<svg width="482pt" height="482pt" viewBox="0 0 482 482" xmlns="http://www.w3.org/2000/svg"><g fill="#36372b"><path d="M161.68 68.7c26.96-17.7 59.17-26.57 91.25-27.38 10.02-1.1 20.03.42 30.05.32 17.94 1.77 35.82 4.65 53.28 9.25 4.2 1.17 8.64 1.5 12.62 3.42 13.71 6.03 27.02 13.32 38.74 22.69 1.52 2.25 3.43 4.23 6.05 5.18.23.19.68.59.91.78 4.33 4.49 8.66 9 13.28 13.21 3.58 3.67 6.58 7.86 9.51 12.06 7.17 10.67 13.44 22.19 16.6 34.73 3.96 13.89 7.8 27.83 12.54 41.47 2.26 6.98 6.23 13.21 8.92 20.02 2.06 5.19 4.92 10.05 6.57 15.41 4.48 13.62 9.93 26.99 13.27 40.96-.78 1.36-.51 2.46.81 3.29l.06.23c.38 2.76 1 5.49 1.97 8.11l.15.54c-.89 2.3-.99 4.92.64 6.93l.15.56c2.1 16.2 2.24 32.63.03 48.84l-.09.48c-1.5.97-1.7 2.84-.8 4.3-3.17 15.83-10.17 30.98-20.1 43.72-2.08-.64-3.58 1.64-2.83 3.48-.3.3-.91.92-1.21 1.22-3.97 3.54-7.42 7.62-11.47 11.07-8.42 7.41-18.04 13.25-27.72 18.81.15 5.69-.46 11.75-3.91 16.48-2.38 2.45-6.11 2.45-9.28 2.57-.4-.27-1.22-.8-1.62-1.06-2.16-2.71-3.33-5.99-3.94-9.36-.96 2.6-1.98 5.36-4.25 7.13-2.93 1.19-5.8-.64-8.28-2-.27-.21-.81-.64-1.08-.85-.05-1.32-.11-2.63-.16-3.93-6.59.43-12.92 2.48-19.45 3.33-9.58 2.07-19.47 2.26-29 4.53l-.07.01c-13.27.94-26.48 2.79-39.79 3.43-31.67 1.84-63.61 1.23-94.99-3.78-1.69-.24-3.39-.38-5.09-.51-.38 3.15-1.42 6.16-2.71 9.04l-.24.36c-2.82 1.71-6.09 2.18-9.34 2.22-1.51-1.39-3.2-2.63-4.35-4.35-1.14-2.34-1.07-4.99-1.23-7.52-.95 3.05-1.88 6.86-5.07 8.28-3.33 1.29-7.31-.57-8.64-3.83-1.09-2.87-1.43-5.94-1.93-8.95-7.61-2.41-15.23-4.96-22.38-8.57-3.03-1.87-6.69-1.08-10.04-1.22-7.95.09-15.55-2.6-23.35-3.7l-.4-.12c-1.43-.65-2.86-1.27-4.34-1.76-15.17-4.79-29.56-11.83-43.12-20.1l-.33-.22c-1.92-2.37-4.4-4.17-7.26-5.22-.21-.13-.62-.37-.83-.49-.21-1.55-1.11-2.29-2.7-2.21-.26-.2-.78-.59-1.04-.78-2.79-3.84-6.86-6.4-10.08-9.82-3.95-3.71-7.39-7.99-11.86-11.1-.27-.27-.8-.8-1.07-1.06.64-2.39-1.26-4.7-3.74-4.42-.29-.4-.86-1.2-1.15-1.59.69-2.37-1.17-4.7-3.64-4.42-4.74-6.3-9.62-12.71-11.61-20.5l.16-1.87-.77-.41c-.14-.4-.44-1.18-.59-1.58 1.11-1.79 1.21-4.14-.01-5.9l.14-.27c2.03-3.25 4.61-6.69 8.62-7.46 4.59-.72 9.34-1.06 13.96-.47 10.3 2.21 20.45 5.5 29.79 10.42-1.12-7.89-2.51-15.79-2.46-23.79-.17-5.87.49-11.73.34-17.59.66-9.57 2.91-18.94 5.22-28.22 2.73-10.56 5.78-21.1 10.34-31.04 2.26-5.05 5.07-9.84 7.14-14.98 4.14-9.97 10.75-18.59 15.61-28.19 6.12-8.68 10.97-18.14 15.19-27.87 3.9-7.76 6.03-16.26 10.12-23.93 3.97-9.75 9.72-18.61 15.8-27.14 9.42-10.3 19.6-20.07 31.58-27.35m83.3-19.3c-4.78.07-9.54.77-14.08 2.26-1.24.08-2.43.42-3.59.79-3.27-.41-6.46.61-9.62 1.26-13.52 2.97-26.53 7.95-38.9 14.13-2.72 1.47-6 2.17-8.1 4.6-8 4.41-15.24 10.12-22.14 16.08-4.61 5.38-10 10.07-14.18 15.82-4.88 6.61-9.07 13.78-12.23 21.36-2.5 2.79-3.14 6.62-4.5 10-1.53 3.93-1.95 8.15-2.59 12.29-.98 7.36-4.12 14.23-7.8 20.6-2.9 6.95-8.28 12.51-11.17 19.45-3.04 6.23-7.24 11.77-10.53 17.86C73.69 227 64.16 249.85 60.97 274c-3.18 21.74-.78 44.56 8.67 64.55 9.86 21.32 26.37 38.97 45.32 52.58 13.72 10.27 29.74 16.9 46.03 21.93 2.69 1.21 5.13-1.44 7.89-.93 3.82-.03 5.09 4.43 8.31 5.8 1.26-1.97 2.22-4.22 3.98-5.82 3.39-3.04 9.38-1.84 11.56 2.08 1.42 2.04 1.82 4.51 2.17 6.92 28.12 4.33 56.65 6.1 85.08 4.93 33.74-1.35 67.46-5.09 100.49-12.22.51-2.68.52-5.75 2.52-7.85 2.25-2.62 6.62-3.65 9.43-1.3 2.37 1.65 3.03 4.6 4.08 7.12.16-.05.48-.14.64-.19 1.58-3.35 2.53-7.68 6.36-9.23 3.24-2.03 6.77 1.74 10.02-.11 29.99-14.21 53.29-43.79 56.56-77.21 3.23-16.69 1.85-33.95-1.3-50.55-3.56-19.17-11.08-37.24-16.53-55.88-2.29-4.77-3.89-9.86-6.48-14.48-5.43-11.68-9.26-24.06-12.81-36.42-2.64-6.63-4.16-13.62-6.34-20.4-3.5-13.95-10.33-26.84-18.2-38.79-15.45-20.89-37.24-36.82-61.13-46.77-17.54-4.59-35.28-8.61-53.27-11.03-3.77-.53-7.53-1.95-11.37-1.18-12.5-1.35-25.16-1.27-37.67-.15M7.43 319.88c1.16 4.26 3.66 7.99 6.2 11.55 2.91 3.76 5.25 8.17 8.98 11.16 7.68 8.29 16.5 15.46 25.62 22.1 16.43 11.65 34.02 21.9 53.03 28.75-2.65-2.63-5.83-4.62-8.72-6.94-9.06-7.15-17.42-15.26-24.41-24.47-2.49-4.25-5.74-8.06-7.63-12.65-2.46-5.28-2.27-11.46-5.16-16.55-6.84-7-15.96-11.18-25.2-13.99-4.34-2.34-9.32-3.08-14.11-3.96-3.39-.47-8.81.62-8.6 5z"/><path d="M171.33 190.82c-2.68-5.25 1.59-12.56 7.56-12.47 17.37.02 34.71-.96 52.09-.76 4.69.31 10.36-1.38 14.08 2.38 5.17 4.39 2.83 14.1-3.93 15.42-9.52.55-19.09.18-28.62.42-11.72.03-23.43.62-35.16.43-2.39-1.28-4.93-2.8-6.02-5.42zm184.45-12.17c5.02-.82 10.15-.13 15.21-.41 13.32-.9 26.68-.44 40.01-.7 2.38-.29 4.49.78 6.26 2.27 3.42 3.59 3.23 9.44.44 13.34-1.67 1.2-3.47 2.53-5.64 2.42-9.31.16-18.61.15-27.91.23-8.39.28-16.78.61-25.18.54-3.47.18-6.64-2.28-7.82-5.45-1.97-4.5.19-10.19 4.63-12.24zm-84.87 2.09c6.22-1.81 12.76-1.69 19.14-.98 3.08.68 6 1.85 8.95 2.94 2.74-.76 5.27-2.25 8.16-2.51l.72-.48c7.16-.55 14.78-1.14 21.47 2.03 5.35 3.57 10.02 9.36 9.5 16.16.49 5.39-3.48 9.85-7.99 12.15-.5 2.02-1.02 4.04-1.52 6.06-5.68 12.57-19.29 22.13-33.34 21.12-12.87-3.08-25.55-12.71-27.78-26.4-4.25-2.61-9-6.28-8.94-11.78-.98-7.92 4.75-15.13 11.63-18.31m7.63 5.02c-4.23.92-8.47 3.06-10.81 6.83-1.39 2.53-1.84 6.08.18 8.41 2.63 2.69 6.35 4.26 10.1 4.3 6.34-.3 12.45-2.39 18.06-5.27 1.83-1.04 4.09-1.12 5.93-.05 5.88 2.99 12.31 5.29 18.97 5.31 4.8-.44 11.43-3.41 10.56-9.23-.6-5.68-6.35-8.76-11.23-10.34-7.13-1.34-14.29.52-21.26 1.79-6.72-1.38-13.61-2.97-20.5-1.75m6.46 25.42c-2.97.28-5.93.67-8.83 1.42 2.79 6.18 7.71 11.29 13.74 14.39 3.23 1.53 6.37 3.95 10.14 3.56 2.11.1 3.94-1.04 5.76-1.93 4.66-2.34 9.25-5.13 12.6-9.19 1.73-2.17 3.67-4.57 3.27-7.54-7.94.17-15.44-2.53-22.7-5.37-4.55 1.88-9.2 3.46-13.98 4.66z"/><path d="M289.25 189.35c2.93-1.3 7.14 2.82 4.4 5.31-2.86 3.02-6.33-3.57-4.4-5.31zm14.95 1.82c1.07-2.17 3.57-1.99 5.6-1.77-.5 2.18-.97 4.53-2.7 6.11-2.27.49-4.74-2.44-2.9-4.34zm100.22 14.29c1.7.2 4.1-.83 5.17.99 1.69 2.66 3.65 5.88 2.78 9.15-1.11 1.52-3.78 1.38-4.95-.03-2.39-2.74-3.43-6.51-3-10.11zm20.16-.18c1.21.07 2.45.09 3.66.3 2.1 2.3 3.21 5.35 3.99 8.32.05 2.85-4.02 3.7-5.62 1.62-2.72-2.73-1.98-6.77-2.03-10.24zm-41.08 2.54c.76-1.91 3.07-1.76 4.71-1.26 2.26 2.31 3.08 5.56 4.25 8.48-.29.63-.89 1.89-1.18 2.52-1.56-.06-3.6.56-4.64-1-1.69-2.58-3.16-5.6-3.14-8.74zm-163.8 1.42c1.62.14 3.83-.53 4.77 1.27 1.41 2.3 2.62 4.83 3 7.52.22 2.64-3.62 3.47-5.13 1.66-2.07-2.11-2.67-5.14-3.79-7.78.29-.67.86-2 1.15-2.67zm-19.5 2.71c-.21-3.19 4.56-3.3 5.59-.7 1.79 3.03 5.02 8.41.32 10.47-3.99-1.4-5.68-5.89-5.91-9.77zm-19.84-.56c1.1-1.26 3.17-1.21 4.2.12 1.91 2.04 2.77 4.85 3.62 7.47.88 1.55-.93 2.73-1.96 3.51-3.47.27-4.94-3.37-5.94-6.01-.53-1.56-1.62-3.89.08-5.09zm-53.81 47.21c4.8-4.58 11.57-8.87 18.43-6.47 7.8 1.19 13.27 7.75 16.77 14.34 5.38 10.61 7.37 22.71 6.98 34.54.29 15.32-1.85 32.29-12.84 43.89-3.73 4.24-9.33 5.83-14.72 6.62-1.84-.25-3.76-.47-5.39-1.45.02-.72.07-2.15.1-2.87 2.48-1.09 5.12-1.73 7.68-2.6 2.92-1.66 5.59-3.71 8.08-5.95.81-1.17 1.6-2.35 2.33-3.56 1.34-2.35 2.47-4.82 3.47-7.33.54-1.4 1.04-2.82 1.47-4.25 2.01-7.54 3.23-15.36 2.44-23.18-.15-5.57-.64-11.16-1.71-16.63-.63-3.25-1.41-6.48-2.81-9.48-1.23-2.98-2.6-5.92-4.34-8.64-1.75-1.99-3.69-3.81-5.74-5.48-2.07-.9-4.34-2.2-6.67-1.44-4.29 1.38-7.79 4.49-10.57 7.95-1.26 1.69-2.42 3.46-3.55 5.25-1.09 1.79-2.18 3.57-3.17 5.42-1.17 2.55-1.72 5.35-2.74 7.98-.27.74-.54 1.49-.82 2.24-1.46 3.08-1.83 6.48-2.3 9.81-.71-.76-1.74-1.43-1.51-2.62-.01-6.48 1.18-12.89 1.9-19.31.95-6.45 4.95-12.05 9.23-16.78z"/></g><path d="M244.98 49.4c12.51-1.12 25.17-1.2 37.67.15.58.19 1.75.55 2.33.74-4.68.2-9.35.52-14.02.82-2.84-2.27-6.62-1.47-9.96-1.55-6.69.42-13.46-.45-20.06.91-3.32.65-6.68 1-10.04 1.19 4.54-1.49 9.3-2.19 14.08-2.26zm149.6 33.56c4.9 3.89 9.21 8.47 13.28 13.21-4.62-4.21-8.95-8.72-13.28-13.21zm17.48 112.61c2.17.11 3.97-1.22 5.64-2.42 9.97 1.54 20.29 4.23 28.07 10.99 2.59 4.62 4.19 9.71 6.48 14.48-3.88 11.34-15.94 16.76-26.83 19.11-7.38 1.22-14.87 3.39-22.4 2.17-8.95-1.39-18.11-2.81-26.17-7.21-7.25-3.67-14.63-11.18-12.24-20.02 2.72-8.99 12.06-12.69 19.54-16.87 9.3-.08 18.6-.07 27.91-.23m-7.64 9.89c-.43 3.6.61 7.37 3 10.11 1.17 1.41 3.84 1.55 4.95.03.87-3.27-1.09-6.49-2.78-9.15-1.07-1.82-3.47-.79-5.17-.99m20.16-.18c.05 3.47-.69 7.51 2.03 10.24 1.6 2.08 5.67 1.23 5.62-1.62-.78-2.97-1.89-6.02-3.99-8.32-1.21-.21-2.45-.23-3.66-.3m-41.08 2.54c-.02 3.14 1.45 6.16 3.14 8.74 1.04 1.56 3.08.94 4.64 1 .29-.63.89-1.89 1.18-2.52-1.17-2.92-1.99-6.17-4.25-8.48-1.64-.5-3.95-.65-4.71 1.26zm-206.15-11.58c11.73.19 23.44-.4 35.16-.43 4.93 2.83 10.81 3.17 15.81 5.86 7.04 3.35 14.05 9.15 14.86 17.41-.96 8.66-8.55 14.42-15.9 17.86-10.44 4.46-21.97 6.06-33.27 5.4-10.56-.64-21.31-3.18-30.19-9.14-4.66-3.2-9.09-8.16-8.48-14.23-.64-6.2 4.09-10.93 8.56-14.42 5.72-3.38 12-5.57 18.37-7.33-1.49.01-2.99.03-4.48.05l-.44-1.03m42.35 13c-.29.67-.86 2-1.15 2.67 1.12 2.64 1.72 5.67 3.79 7.78 1.51 1.81 5.35.98 5.13-1.66-.38-2.69-1.59-5.22-3-7.52-.94-1.8-3.15-1.13-4.77-1.27m-19.5 2.71c.23 3.88 1.92 8.37 5.91 9.77 4.7-2.06 1.47-7.44-.32-10.47-1.03-2.6-5.8-2.49-5.59.7m-19.84-.56c-1.7 1.2-.61 3.53-.08 5.09 1 2.64 2.47 6.28 5.94 6.01 1.03-.78 2.84-1.96 1.96-3.51-.85-2.62-1.71-5.43-3.62-7.47-1.03-1.33-3.1-1.38-4.2-.12zm104.64-.21c4.78-1.2 9.43-2.78 13.98-4.66 7.26 2.84 14.76 5.54 22.7 5.37.4 2.97-1.54 5.37-3.27 7.54-3.35 4.06-7.94 6.85-12.6 9.19-1.82.89-3.65 2.03-5.76 1.93-3.77.39-6.91-2.03-10.14-3.56-6.03-3.1-10.95-8.21-13.74-14.39 2.9-.75 5.86-1.14 8.83-1.42zm191.14 53.16c.91 2.64 1.57 5.35 1.97 8.11-.97-2.62-1.59-5.35-1.97-8.11zM50.02 298.05c.19-6.88-.44-13.81.66-20.63.15 5.86-.51 11.72-.34 17.59-.05 8 1.34 15.9 2.46 23.79-9.34-4.92-19.49-8.21-29.79-10.42-4.62-.59-9.37-.25-13.96.47-4.01.77-6.59 4.21-8.62 7.46 1.02-2.63 2.66-5.1 5.21-6.44 4.61-2.78 10.15-2.03 15.27-2.36 10.77 2.04 21.14 5.79 31.11 10.32-.58-6.6-2.19-13.12-2-19.78zm429.03-17.57c1.49 6.36 1.96 12.98 1.81 19.52-.15 9.79.74 19.73-1.78 29.32 2.21-16.21 2.07-32.64-.03-48.84zM56.81 388.17c13.56 8.27 27.95 15.31 43.12 20.1 1.48.49 2.91 1.11 4.34 1.76-10.54-2.68-20.61-6.96-30.28-11.88-5.88-3.05-11.82-6.07-17.18-9.98zm47.86 21.98c7.8 1.1 15.4 3.79 23.35 3.7 3.35.14 7.01-.65 10.04 1.22 7.15 3.61 14.77 6.16 22.38 8.57.5 3.01.84 6.08 1.93 8.95 1.33 3.26 5.31 5.12 8.64 3.83 3.19-1.42 4.12-5.23 5.07-8.28.16 2.53.09 5.18 1.23 7.52 1.15 1.72 2.84 2.96 4.35 4.35 3.25-.04 6.52-.51 9.34-2.22-2.1 1.86-4.96 2.75-7.73 2.82-4.02-.96-7.11-4.64-7.54-8.73-1.61 2.58-3.49 5.24-6.55 6.17-2.52-1.26-5.67-2.11-7.03-4.82-1.48-3.09-1.59-6.63-2.85-9.8-.63-.06-1.89-.16-2.52-.22-2.62-1.17-5.32-2.15-8.05-3.03-4.31-1.78-8.64-3.5-12.76-5.67-10.62.85-21.15-1.42-31.3-4.36zm291.44 10.88c.61 3.37 1.78 6.65 3.94 9.36-1.99-1.74-3.07-4.18-4.34-6.43-1.26 1.56-2.05 3.73-4.01 4.57-2.84 1.83-5.87-.79-8.12-2.37 2.48 1.36 5.35 3.19 8.28 2 2.27-1.77 3.29-4.53 4.25-7.13zm-202.16 7.36c1.7.13 3.4.27 5.09.51 31.38 5.01 63.32 5.62 94.99 3.78 13.31-.64 26.52-2.49 39.79-3.43-7.15 1.56-14.55 1.6-21.78 2.7-5.42-.14-10.7 1.29-16.1 1.13-6.02-.17-11.96 1.22-17.98.98-11.97-.36-23.96.13-35.93-.16-6.63-1.09-13.4-.43-20.01-1.64-9.13-.51-18.12-2.23-27.19-3.25-.93 2.9-1.88 5.86-3.59 8.42 1.29-2.88 2.33-5.89 2.71-9.04z" fill="#f0d4ac"/><g fill="#697a73"><path d="M282.65 49.55c3.84-.77 7.6.65 11.37 1.18 17.99 2.42 35.73 6.44 53.27 11.03 23.89 9.95 45.68 25.88 61.13 46.77 7.87 11.95 14.7 24.84 18.2 38.79 2.18 6.78 3.7 13.77 6.34 20.4-1.14-.21-2.28-.42-3.41-.63-8.43-30.05-26.75-57.08-50.98-76.66-23.31-18.93-52.58-30.39-82.54-32.42-30.16-2.13-60.85 5.6-86.61 21.37-20.83 12.85-38.55 30.73-51 51.81-2.72 4.87-4.6 10.14-6.44 15.38-3.11 8.96-6.14 18-7.85 27.35-3.43-1.35-7.01-2.28-10.6-3.06 5.6-20.42 14.45-40.08 27.3-57 25.79-35.01 66.67-58.94 110.13-62.75 4.67-.3 9.34-.62 14.02-.82-.58-.19-1.75-.55-2.33-.74z"/><path d="M217.69 53.71c3.16-.65 6.35-1.67 9.62-1.26-25.27 7.71-49.43 20.78-67.33 40.51-11.16 12.25-20.51 26.75-24.22 43.08-2.69 11.35-4.39 22.96-4.59 34.63-3.78.06-7.51.83-11.28.99 1.86-26.27 10.09-52.43 26-73.64 7.35-9.84 16.1-18.66 25.9-26.07l-1.1.49c2.1-2.43 5.38-3.13 8.1-4.6 12.37-6.18 25.38-11.16 38.9-14.13zM387.62 77c2.14 1.58 4.19 3.28 6.05 5.18-2.62-.95-4.53-2.93-6.05-5.18zm-269.98 58.7c1.36-3.38 2-7.21 4.5-10-2.07 6.34-5.23 12.47-5.59 19.23-.29 8.92.15 17.84.81 26.73l.04 1.2c-2.77 1.27-5.54 2.55-8.17 4.11-.76-2.77-1.42-5.57-1.98-8.38 3.68-6.37 6.82-13.24 7.8-20.6.64-4.14 1.06-8.36 2.59-12.29zm160.9 50.06c6.89-1.22 13.78.37 20.5 1.75 6.97-1.27 14.13-3.13 21.26-1.79 4.88 1.58 10.63 4.66 11.23 10.34.87 5.82-5.76 8.79-10.56 9.23-6.66-.02-13.09-2.32-18.97-5.31-1.84-1.07-4.1-.99-5.93.05-5.61 2.88-11.72 4.97-18.06 5.27-3.75-.04-7.47-1.61-10.1-4.3-2.02-2.33-1.57-5.88-.18-8.41 2.34-3.77 6.58-5.91 10.81-6.83m10.71 3.59c-1.93 1.74 1.54 8.33 4.4 5.31 2.74-2.49-1.47-6.61-4.4-5.31m14.95 1.82c-1.84 1.9.63 4.83 2.9 4.34 1.73-1.58 2.2-3.93 2.7-6.11-2.03-.22-4.53-.4-5.6 1.77zm-113.83 54.42c4.84-.76 10.21-.4 14.11 2.89 4.97 3.84 6.23 10.83 4.58 16.62-3.83 6.98-12.41 10.54-20.14 9.12-3.27-.68-6.98-.41-9.75-2.54-2.83-1.87-1.47-5.8-1.81-8.64-.62-8.03 5.57-15.27 13.01-17.45zm207.12 4.07c4.15-.6 8.83-.87 12.46 1.64 6.76 3.44 10.29 11.38 9.62 18.77.35 3.34-2.08 6.58-5.42 7.1-6 .71-12.22 1.72-18.09-.29-3.78-1.93-7.41-4.79-9.06-8.81-2.3-7.65 2.65-16.56 10.49-18.41zM146.75 260.1c2.05 1.67 3.99 3.49 5.74 5.48-.34.01-1.02.03-1.37.03-1.95 2.61-3.91 5.22-5.89 7.81 1.43 4.5 7.5 5.44 11.66 4.75-.02-.98-.05-2.96-.06-3.95 1.4 3 2.18 6.23 2.81 9.48-7.44 3.2-16.29-.25-20.17-7.19-5.04.58-9.78-1.35-13.51-4.65 1.13-1.79 2.29-3.56 3.55-5.25 1.46 3.7 6.47 5.83 10.03 3.8 3.92-1.98 6.4-6.09 7.21-10.31zm328.52.72c.91.93 1.18 2.03.81 3.29-1.32-.83-1.59-1.93-.81-3.29zm-257.05 7.54c1.3-.92 3.06-.97 4.21.22 3.88 2.86 7.54 6.22 10.01 10.41 1.01 1.83-.68 3.46-1.97 4.54-4.57 3.88-12.35 2.51-15.33-2.7-2.82-4.05-1.1-10.1 3.08-12.47zm260.04 4.63c1.25 2.12.95 4.6.64 6.93-1.63-2.01-1.53-4.63-.64-6.93zm-361.64 2.37l.7.02c-.72 6.42-1.91 12.83-1.9 19.31-.23 1.19.8 1.86 1.51 2.62.47-3.33.84-6.73 2.3-9.81-.35 1.71-.67 3.42-.97 5.13 2.95.81 6.62-.04 9.02 2.17 1.69 2.76-.26 6.4-3.34 6.95-3.74 1.49-7.54-.23-11.1-1.37-1.53 2.94-4.03 6.12-2.86 9.62.56 2.26 3.06 2.93 4.73 4.14-1.21 4.42-4.26 8.63-3.1 13.43 2.22 4.27 7.51 2.78 11.38 2.8-1.12 4.12-5.1 7.19-4.8 11.69-.05 3.22 3.05 5.57 5.93 6.24 3.9.59 8.22 1 11.76-1.1-.03.72-.08 2.15-.1 2.87 1.63.98 3.55 1.2 5.39 1.45-6.45 2.51-13.72 2.9-20.29.64-3.43-1.62-7.17-4.14-7.84-8.16-.9-3.38.97-6.57 1.98-9.68-2.8-.95-5.94-2.26-6.98-5.31-1.49-4.42.41-8.91 1.77-13.09-.8-2.14-3.31-3.47-3.26-6.01-1.1-6.48 3.63-11.78 8.13-15.72-.22-6.34.89-12.61 1.94-18.83zm256.78 1.2c1.84-1.93 4.46-.38 6 1.11 3.12 3.03 3.63 8.24.92 11.71-3.84 5.7-13.63 5.75-17.04-.39l.08-1.98c2.3-4.31 6.17-7.57 10.04-10.45z"/><path d="M120.05 285.26c1.02-2.63 1.57-5.43 2.74-7.98l.16 2.35c3.16.31 6.29-.31 9.07-1.87.66.25 1.98.73 2.64.97-.23 1.57.32 3.59-1.16 4.7-3.6 3.49-8.99 2.27-13.45 1.83zm127.15.91l.8-.4c5.66 1.04 11.93 2.17 16.29 6.19.6 7.57-9.25 12.31-15.33 8.32-5.1-2.44-6.54-10.74-1.76-14.11zm-103.15 3.23c2.02-.78 4.62-3.17 6.54-.94 1.29.78 1.08 2.5.75 3.76-4.58 5.37-13.22 5-18.54.94-1.15-1.36-.2-3.19-.13-4.74 3.84-.22 7.59 2.54 11.38.98zm188.42 6c4.5-3.56 10.36-4.42 15.74-5.94 4.72 2.23 5.25 8.95 1.9 12.59-3.78 4.58-11.52 4.83-15.54.46-1.78-1.84-2.93-4.56-2.1-7.11zm-181.59 7.51c-.54-1.28-.65-3.58 1.24-3.69 3.09.19 6.13.92 9.23 1.11.79 7.82-.43 15.64-2.44 23.18l.08-2.69c-5.18 2.31-12.14 3.1-16.46-1.3-.66-1.69-.59-4.17 1.42-4.85 3.15-.55 5.85 2.62 9.03 1.72 2.52-.63 4.94-1.59 7.43-2.32.17-2.62.33-5.24.46-7.86-3.42-.56-7.67-.2-9.99-3.3zm-24.66.66c3.8-1.23 6.99 2.36 10.77 1.7 2.25-.68 4.67-2.89 7.07-1.46 2.13.95 1.85 4.12-.03 5.22-4.77 3.78-11.94 2.94-16.67-.5-1.8-.98-.92-3.37-1.14-4.96zm-11.98 1.77c2.33-2.11 4.72.49 6.65 1.78 1.99 1.63 5.56.88 6.5 3.76.41 2.3-2.15 4.32-4.35 3.95-3.28-.26-6.48-1.81-8.78-4.15-1.45-1.31-1.58-4.12-.02-5.34zM7.43 319.88c-.21-4.38 5.21-5.47 8.6-5 4.79.88 9.77 1.62 14.11 3.96-4.71-.92-9.32-2.3-14.04-3.15-3.08-.49-7.93.49-7.86 4.43 2.2 3 5.37 5.08 8.37 7.21 12.36 8.42 26.77 13.3 41.31 16.37-.98-3.59-1.97-7.19-2.58-10.87 2.89 5.09 2.7 11.27 5.16 16.55 1.89 4.59 5.14 8.4 7.63 12.65-16.67-2.21-31.01-11.67-45.52-19.44-3.73-2.99-6.07-7.4-8.98-11.16-2.54-3.56-5.04-7.29-6.2-11.55zm117.27-3.4c3-.83 4.75 1.39 6.29 3.57 2.69 3.86 8.39.42 11.37 3.69.65 1.51.81 4.02-1.17 4.56-5.91 2.91-13.51-.27-16.81-5.67-1.35-1.93-.59-4.24.32-6.15zM0 317.01l.29-.43c1.22 1.76 1.12 4.11.01 5.9l-.3-.44v-5.03zm.89 7.05l.77.41-.16 1.87c-.15-.57-.46-1.71-.61-2.28zm147.93 4.99c1.35-3.69 5.85-1.81 8.62-1.29-1 2.51-2.13 4.98-3.47 7.33-1.98-1.62-5.49-3.04-5.15-6.04zm329.37 5.05c-.9-1.46-.7-3.33.8-4.3.33 1.49.12 3.06-.8 4.3zm-340.04 4.69c-2-2.67-.18-8.01 3.75-6.48 3.05 2.42 5.37 6.29 9.74 6.34-2.49 2.24-5.16 4.29-8.08 5.95-1.88-1.87-3.89-3.63-5.41-5.81zm-125.04 8.05c2.47-.28 4.33 2.05 3.64 4.42-1.48-1.25-2.68-2.75-3.64-4.42zm4.79 6.01c2.48-.28 4.38 2.03 3.74 4.42-1.45-1.3-2.77-2.73-3.74-4.42zm4.81 5.48c4.47 3.11 7.91 7.39 11.86 11.1 3.22 3.42 7.29 5.98 10.08 9.82-8.07-6.09-15.58-13.06-21.94-20.92zm432.55 22.97c-.75-1.84.75-4.12 2.83-3.48-.72 1.33-1.69 2.49-2.83 3.48zm-409.57-1.27c1.59-.08 2.49.66 2.7 2.21-1.3-.24-2.2-.97-2.7-2.21zm3.53 2.7c2.86 1.05 5.34 2.85 7.26 5.22-2.61-1.46-5.07-3.18-7.26-5.22z"/></g><g fill="#fafbe4"><path d="M240.94 50.47c6.6-1.36 13.37-.49 20.06-.91 3.34.08 7.12-.72 9.96 1.55-43.46 3.81-84.34 27.74-110.13 62.75-12.85 16.92-21.7 36.58-27.3 57-.59-.04-1.77-.14-2.36-.19.2-11.67 1.9-23.28 4.59-34.63 3.71-16.33 13.06-30.83 24.22-43.08 17.9-19.73 42.06-32.8 67.33-40.51 1.16-.37 2.35-.71 3.59-.79 3.36-.19 6.72-.54 10.04-1.19z"/><path d="M209.42 79.38c25.76-15.77 56.45-23.5 86.61-21.37 29.96 2.03 59.23 13.49 82.54 32.42 24.23 19.58 42.55 46.61 50.98 76.66-2.66 1.76-5.59 3.36-7.41 6.08-1.57 2.25-3.09 4.54-4.88 6.64-1.77-1.49-3.88-2.56-6.26-2.27-13.33.26-26.69-.2-40.01.7-5.06.28-10.19-.41-15.21.41-4.44 2.05-6.6 7.74-4.63 12.24 1.18 3.17 4.35 5.63 7.82 5.45 8.4.07 16.79-.26 25.18-.54-7.48 4.18-16.82 7.88-19.54 16.87-2.39 8.84 4.99 16.35 12.24 20.02-2.39-.27-4.81.1-6.89 1.33-3.64 2.01-7.82 4.21-9.18 8.46-9 25.9-35.62 43.82-62.81 44.11-20.81.73-41.7-8.5-55.07-24.48-6.62-7.46-10.24-16.87-15.62-25.17 7.35-3.44 14.94-9.2 15.9-17.86-.81-8.26-7.82-14.06-14.86-17.41-5-2.69-10.88-3.03-15.81-5.86 9.53-.24 19.1.13 28.62-.42 6.76-1.32 9.1-11.03 3.93-15.42-3.72-3.76-9.39-2.07-14.08-2.38-17.38-.2-34.72.78-52.09.76-5.97-.09-10.24 7.22-7.56 12.47 1.09 2.62 3.63 4.14 6.02 5.42l.44 1.03c1.49-.02 2.99-.04 4.48-.05-6.37 1.76-12.65 3.95-18.37 7.33.08-12.96-7.97-25.34-19.77-30.63 1.71-9.35 4.74-18.39 7.85-27.35 1.84-5.24 3.72-10.51 6.44-15.38 12.45-21.08 30.17-38.96 51-51.81m61.49 101.36c-6.88 3.18-12.61 10.39-11.63 18.31-.06 5.5 4.69 9.17 8.94 11.78 2.23 13.69 14.91 23.32 27.78 26.4 14.05 1.01 27.66-8.55 33.34-21.12.5-2.02 1.02-4.04 1.52-6.06 4.51-2.3 8.48-6.76 7.99-12.15.52-6.8-4.15-12.59-9.5-16.16-6.69-3.17-14.31-2.58-21.47-2.03l-.72.48c-2.89.26-5.42 1.75-8.16 2.51-2.95-1.09-5.87-2.26-8.95-2.94-6.38-.71-12.92-.83-19.14.98zM148.55 88.52c6.9-5.96 14.14-11.67 22.14-16.08l1.1-.49c-9.8 7.41-18.55 16.23-25.9 26.07-15.91 21.21-24.14 47.37-26 73.64-.85.01-1.69.01-2.53 0-.66-8.89-1.1-17.81-.81-26.73.36-6.76 3.52-12.89 5.59-19.23 3.16-7.58 7.35-14.75 12.23-21.36 4.18-5.75 9.57-10.44 14.18-15.82zm-41.3 80.07c.56 2.81 1.22 5.61 1.98 8.38-4.41 3.66-8.37 7.85-13.15 11.07 2.89-6.94 8.27-12.5 11.17-19.45zm22.26 98.02c2.78-3.46 6.28-6.57 10.57-7.95 2.33-.76 4.6.54 6.67 1.44-.81 4.22-3.29 8.33-7.21 10.31-3.56 2.03-8.57-.1-10.03-3.8zm21.61-1c.35 0 1.03-.02 1.37-.03 1.74 2.72 3.11 5.66 4.34 8.64.01.99.04 2.97.06 3.95-4.16.69-10.23-.25-11.66-4.75 1.98-2.59 3.94-5.2 5.89-7.81zm-28.33 11.67c.99-1.85 2.08-3.63 3.17-5.42 3.73 3.3 8.47 5.23 13.51 4.65 3.88 6.94 12.73 10.39 20.17 7.19 1.07 5.47 1.56 11.06 1.71 16.63-3.1-.19-6.14-.92-9.23-1.11-1.89.11-1.78 2.41-1.24 3.69 2.32 3.1 6.57 2.74 9.99 3.3-.13 2.62-.29 5.24-.46 7.86-2.49.73-4.91 1.69-7.43 2.32-3.18.9-5.88-2.27-9.03-1.72-2.01.68-2.08 3.16-1.42 4.85 4.32 4.4 11.28 3.61 16.46 1.3l-.08 2.69c-.43 1.43-.93 2.85-1.47 4.25-2.77-.52-7.27-2.4-8.62 1.29-.34 3 3.17 4.42 5.15 6.04-.73 1.21-1.52 2.39-2.33 3.56-4.37-.05-6.69-3.92-9.74-6.34-3.93-1.53-5.75 3.81-3.75 6.48 1.52 2.18 3.53 3.94 5.41 5.81-2.56.87-5.2 1.51-7.68 2.6-3.54 2.1-7.86 1.69-11.76 1.1-2.88-.67-5.98-3.02-5.93-6.24-.3-4.5 3.68-7.57 4.8-11.69-3.87-.02-9.16 1.47-11.38-2.8-1.16-4.8 1.89-9.01 3.1-13.43-1.67-1.21-4.17-1.88-4.73-4.14-1.17-3.5 1.33-6.68 2.86-9.62 3.56 1.14 7.36 2.86 11.1 1.37 3.08-.55 5.03-4.19 3.34-6.95-2.4-2.21-6.07-1.36-9.02-2.17.3-1.71.62-3.42.97-5.13.28-.75.55-1.5.82-2.24 4.46.44 9.85 1.66 13.45-1.83 1.48-1.11.93-3.13 1.16-4.7-.66-.24-1.98-.72-2.64-.97-2.78 1.56-5.91 2.18-9.07 1.87l-.16-2.35m21.26 12.12c-3.79 1.56-7.54-1.2-11.38-.98-.07 1.55-1.02 3.38.13 4.74 5.32 4.06 13.96 4.43 18.54-.94.33-1.26.54-2.98-.75-3.76-1.92-2.23-4.52.16-6.54.94m-17.83 14.17c.22 1.59-.66 3.98 1.14 4.96 4.73 3.44 11.9 4.28 16.67.5 1.88-1.1 2.16-4.27.03-5.22-2.4-1.43-4.82.78-7.07 1.46-3.78.66-6.97-2.93-10.77-1.7m-11.98 1.77c-1.56 1.22-1.43 4.03.02 5.34 2.3 2.34 5.5 3.89 8.78 4.15 2.2.37 4.76-1.65 4.35-3.95-.94-2.88-4.51-2.13-6.5-3.76-1.93-1.29-4.32-3.89-6.65-1.78m10.46 11.14c-.91 1.91-1.67 4.22-.32 6.15 3.3 5.4 10.9 8.58 16.81 5.67 1.98-.54 1.82-3.05 1.17-4.56-2.98-3.27-8.68.17-11.37-3.69-1.54-2.18-3.29-4.4-6.29-3.57zM8.24 320.12c-.07-3.94 4.78-4.92 7.86-4.43 4.72.85 9.33 2.23 14.04 3.15 9.24 2.81 18.36 6.99 25.2 13.99.61 3.68 1.6 7.28 2.58 10.87-14.54-3.07-28.95-7.95-41.31-16.37-3-2.13-6.17-4.21-8.37-7.21z"/></g><path d="M429.55 167.09c1.13.21 2.27.42 3.41.63 3.55 12.36 7.38 24.74 12.81 36.42-7.78-6.76-18.1-9.45-28.07-10.99 2.79-3.9 2.98-9.75-.44-13.34 1.79-2.1 3.31-4.39 4.88-6.64 1.82-2.72 4.75-4.32 7.41-6.08zm-312.15 5.77l-.04-1.2c.84.01 1.68.01 2.53 0 3.77-.16 7.5-.93 11.28-.99.59.05 1.77.15 2.36.19 3.59.78 7.17 1.71 10.6 3.06 11.8 5.29 19.85 17.67 19.77 30.63-4.47 3.49-9.2 8.22-8.56 14.42-.61 6.07 3.82 11.03 8.48 14.23 8.88 5.96 19.63 8.5 30.19 9.14 11.3.66 22.83-.94 33.27-5.4 5.38 8.3 9 17.71 15.62 25.17 13.37 15.98 34.26 25.21 55.07 24.48 27.19-.29 53.81-18.21 62.81-44.11 1.36-4.25 5.54-6.45 9.18-8.46 2.08-1.23 4.5-1.6 6.89-1.33 8.06 4.4 17.22 5.82 26.17 7.21 7.53 1.22 15.02-.95 22.4-2.17 10.89-2.35 22.95-7.77 26.83-19.11 5.45 18.64 12.97 36.71 16.53 55.88 3.15 16.6 4.53 33.86 1.3 50.55-3.27 33.42-26.57 63-56.56 77.21-3.25 1.85-6.78-1.92-10.02.11-3.83 1.55-4.78 5.88-6.36 9.23-.16.05-.48.14-.64.19-1.05-2.52-1.71-5.47-4.08-7.12-2.81-2.35-7.18-1.32-9.43 1.3-2 2.1-2.01 5.17-2.52 7.85-33.03 7.13-66.75 10.87-100.49 12.22-28.43 1.17-56.96-.6-85.08-4.93-.35-2.41-.75-4.88-2.17-6.92-2.18-3.92-8.17-5.12-11.56-2.08-1.76 1.6-2.72 3.85-3.98 5.82-3.22-1.37-4.49-5.83-8.31-5.8-2.76-.51-5.2 2.14-7.89.93-16.29-5.03-32.31-11.66-46.03-21.93-18.95-13.61-35.46-31.26-45.32-52.58-9.45-19.99-11.85-42.81-8.67-64.55 3.19-24.15 12.72-47 24.58-68.1 3.29-6.09 7.49-11.63 10.53-17.86 4.78-3.22 8.74-7.41 13.15-11.07 2.63-1.56 5.4-2.84 8.17-4.11m72.97 72.73c-7.44 2.18-13.63 9.42-13.01 17.45.34 2.84-1.02 6.77 1.81 8.64 2.77 2.13 6.48 1.86 9.75 2.54 7.73 1.42 16.31-2.14 20.14-9.12 1.65-5.79.39-12.78-4.58-16.62-3.9-3.29-9.27-3.65-14.11-2.89m207.12 4.07c-7.84 1.85-12.79 10.76-10.49 18.41 1.65 4.02 5.28 6.88 9.06 8.81 5.87 2.01 12.09 1 18.09.29 3.34-.52 5.77-3.76 5.42-7.1.67-7.39-2.86-15.33-9.62-18.77-3.63-2.51-8.31-2.24-12.46-1.64m-270.94 8.94c-4.28 4.73-8.28 10.33-9.23 16.78l-.7-.02c-1.05 6.22-2.16 12.49-1.94 18.83-4.5 3.94-9.23 9.24-8.13 15.72-.05 2.54 2.46 3.87 3.26 6.01-1.36 4.18-3.26 8.67-1.77 13.09 1.04 3.05 4.18 4.36 6.98 5.31-1.01 3.11-2.88 6.3-1.98 9.68.67 4.02 4.41 6.54 7.84 8.16 6.57 2.26 13.84 1.87 20.29-.64 5.39-.79 10.99-2.38 14.72-6.62 10.99-11.6 13.13-28.57 12.84-43.89.39-11.83-1.6-23.93-6.98-34.54-3.5-6.59-8.97-13.15-16.77-14.34-6.86-2.4-13.63 1.89-18.43 6.47m91.67 9.76c-4.18 2.37-5.9 8.42-3.08 12.47 2.98 5.21 10.76 6.58 15.33 2.7 1.29-1.08 2.98-2.71 1.97-4.54-2.47-4.19-6.13-7.55-10.01-10.41-1.15-1.19-2.91-1.14-4.21-.22m155.18 8.2c-3.87 2.88-7.74 6.14-10.04 10.45l-.08 1.98c3.41 6.14 13.2 6.09 17.04.39 2.71-3.47 2.2-8.68-.92-11.71-1.54-1.49-4.16-3.04-6-1.11m-126.2 9.61c-4.78 3.37-3.34 11.67 1.76 14.11 6.08 3.99 15.93-.75 15.33-8.32-4.36-4.02-10.63-5.15-16.29-6.19l-.8.4m85.27 9.23c-.83 2.55.32 5.27 2.1 7.11 4.02 4.37 11.76 4.12 15.54-.46 3.35-3.64 2.82-10.36-1.9-12.59-5.38 1.52-11.24 2.38-15.74 5.94zM22.61 342.59c14.51 7.77 28.85 17.23 45.52 19.44 6.99 9.21 15.35 17.32 24.41 24.47 2.89 2.32 6.07 4.31 8.72 6.94-19.01-6.85-36.6-17.1-53.03-28.75-9.12-6.64-17.94-13.81-25.62-22.1zm419.97 51c4.05-3.45 7.5-7.53 11.47-11.07-2.95 4.16-7.06 7.31-9.99 11.49-2.88 4.27-7.97 5.92-11.87 9-5.56 3.24-10.61 7.45-16.9 9.25.28 6.19-.52 13.23-5.12 17.82-2.53 1.35-5.69 2.63-8.5 1.37 3.17-.12 6.9-.12 9.28-2.57 3.45-4.73 4.06-10.79 3.91-16.48 9.68-5.56 19.3-11.4 27.72-18.81zm-79.69 31.12c6.53-.85 12.86-2.9 19.45-3.33.05 1.3.11 2.61.16 3.93-.34-.78-1-2.33-1.33-3.11-3.95.4-7.18 3.36-11.23 3.24-5.05.05-9.86 2.04-14.92 1.78-7.13-.41-14.03 1.91-21.13 2.02 9.53-2.27 19.42-2.46 29-4.53z" fill="#8ec9d5"/></svg>