<svg height="110" version="1" viewBox="0 0 110 110" width="110" xmlns="http://www.w3.org/2000/svg"><circle cx="55" cy="55" r="55" fill="#25b7d3"/><path d="M87 87H23v-.04A3.96 3.96 0 0 1 26.96 83h56.08A3.96 3.96 0 0 1 87 86.96V87z" fill="#e2e4e5"/><path fill="#fff" d="M27 47h56v36H27z"/><path d="M32.143 47c0 2.209-2.047 4-4.571 4S23 49.209 23 47h9.143z" fill="#df2c2c"/><path d="M41.286 47c0 2.209-2.047 4-4.571 4s-4.571-1.791-4.571-4h9.142z" fill="#cfd3d4"/><path d="M50.429 47c0 2.209-2.047 4-4.571 4s-4.571-1.791-4.571-4h9.142z" fill="#df2c2c"/><path d="M59.571 47c0 2.209-2.047 4-4.571 4s-4.571-1.791-4.571-4h9.142zm18.286 0c0 2.209-2.047 4-4.571 4-2.525 0-4.571-1.791-4.571-4h9.142z" fill="#cfd3d4"/><path d="M68.714 47c0 2.209-2.047 4-4.571 4-2.525 0-4.571-1.791-4.571-4h9.142zM87 47c0 2.209-2.047 4-4.571 4-2.525 0-4.571-1.791-4.571-4H87z" fill="#df2c2c"/><path fill="#fa5655" d="M23 47h9.143l8-20h-8z"/><path fill="#fff" d="M32.143 47h9.143L47 27h-6.857z"/><path fill="#fa5655" d="M41.286 47h9.143l3.428-20H47z"/><path fill="#fff" d="M50.429 47h9.142V27h-5.714z"/><path fill="#fa5655" d="M87 47h-9.143l-5.714-20H79z"/><path fill="#fff" d="M77.857 47h-9.143l-3.428-20h6.857z"/><path fill="#fa5655" d="M68.714 47h-9.143V27h5.715z"/><path fill="#6fdaf1" d="M31 55h28v16H31z"/><path fill="#40c9e7" d="M59 71H31l28-16zm6-16h14v13H65zm0 16h14v12H65z"/><path d="M57.978 76c.26-3.258-3.405-5.625-7.407-5.625-2.324 0-4.396.764-5.759 1.959-.619-1.182-1.646-1.959-2.812-1.959-1.093 0-2.055.692-2.683 1.75-.775-1.918-2.607-3.268-4.746-3.268-2.5 0-4.58 1.845-5.042 4.288-.358-.31-.784-.493-1.243-.493-1.355 0-2.406 1.54-2.262 3.348h31.954z" fill="#0d9681"/><path fill="#9c6144" d="M26 76h32v7H26z"/><path fill="#af7653" d="M26 76h32v2H26z"/></svg>