<svg width="400" height="400" viewBox="0 0 300 300" xmlns="http://www.w3.org/2000/svg"><path fill="#f1d070" d="M226.99 19.99c15.75-4.19 39.07 6.89 43.17 24.98-1.97 3.47-3.38 7.36-6.13 10.32l-.79-.43c1.19-3.56 3.47-8.73.47-11.6-5.35 1.48-11.28.31-14.86-4.11-2.52-3.92-9.92-2.42-10.47-7.81-.29-2.15-2.19-3.5-3.31-5.22l6.05-3.37c-2.44-4.37-8.02-2.36-12.16-2.77-.49 0-1.48.01-1.97.01z"/><path fill="#ccb053" d="M205.2 32.25c5.09-6.48 13.04-11.99 21.79-12.26.49 0 1.48-.01 1.97-.01-1.2 4.96-1.97 10.39 1.85 14.36-5.23-.83-7.61-5.19-10.05-9.28-6.37-1.03-10.07 5.22-15.56 7.19z"/><path fill="#e4c053" d="M228.96 19.98c4.14.41 9.72-1.6 12.16 2.77l-6.05 3.37c1.12 1.72 3.02 3.07 3.31 5.22.55 5.39 7.95 3.89 10.47 7.81 3.58 4.42 9.51 5.59 14.86 4.11 3 2.87.72 8.04-.47 11.6-3-2.3-6.94-.67-10.09-2.61-5.27-8.19-13.62-13.88-22.34-17.91-3.82-3.97-3.05-9.4-1.85-14.36z"/><path fill="#bd9c29" d="M205.2 32.25c5.49-1.97 9.19-8.22 15.56-7.19 2.44 4.09 4.82 8.45 10.05 9.28 8.72 4.03 17.07 9.72 22.34 17.91-3.66.42-7.35.16-11.01.37 1.16-3.12.91-8.09-2.95-9.11-2.48-.27-4.92-.29-6.99 1.17-6.49-1.15-13.5.35-19.42 3.12-2.59 1.07-1.29 3.89-1.33 6.02-10.1 5.12-7.98 18.14-9.66 27.19-7-.57-10.51-8.69-17.22-10.44-4.42-.16-8.8-.9-12.8-2.83.33-2.51 2.21-4.22 3.88-5.94-.47 6.97 8.04-.21 11.4 1.17 6.2-.91 5.42 9.54 10.7 10.15-.16-12.92 8.35-23.49 10.43-35.93 1.9-2.51-1.59-3.22-3.24-4.33l.26-.61z"/><path fill="#ad9028" d="M176.96 59.88c10.41-7.67 17.37-20.15 27.98-27.02 1.65 1.11 5.14 1.82 3.24 4.33-2.08 12.44-10.59 23.01-10.43 35.93-5.28-.61-4.5-11.06-10.7-10.15-3.36-1.38-11.87 5.8-11.4-1.17.33-.48.98-1.44 1.31-1.92z"/><path fill="#7d6a33" d="M232.2 44.68c2.07-1.46 4.51-1.44 6.99-1.17-4.24-.46-6.08 2.79-5.35 6.61l-.64-.42c-.49-.96-.94-1.94-1.36-2.93l.36-2.09z"/><path fill="#ceaf3a" d="M212.78 47.8c5.92-2.77 12.93-4.27 19.42-3.12l-.36 2.09c-3.89-1.34-6.85 2.74-10.73 2.43-4.59.7-4.25 8.34.15 8.97-1.75 6.73-12.99.75-12.08 10.22-4.07 4.54.01 10.17-.22 15.36-8.61 5.79-14.72-5.52-22.79-6.98-6.37-3.3-13.77-1.78-20.44-4 1.96-1.74 4.04-3.34 6.04-5.03 4 1.93 8.38 2.67 12.8 2.83 6.71 1.75 10.22 9.87 17.22 10.44 1.68-9.05-.44-22.07 9.66-27.19.04-2.13-1.26-4.95 1.33-6.02z"/><path fill="#413219" d="M233.84 50.12c-.73-3.82 1.11-7.07 5.35-6.61 3.86 1.02 4.11 5.99 2.95 9.11-3.19 1.01-5.92-.51-8.3-2.5z"/><path fill="#d9bd9d" d="M270.16 44.97c2.96 6.08 8.85 9.7 12.87 15.06-4.91-3.37-9.7-8.32-16.16-8.09 1.02 4.47 8.57 3.82 9.27 8.83-1.4.12-2.79.23-4.19.33-2.94.19-5.82.67-8.75.84-1.86-1.58-3.8-3.1-5.34-5.02 3.03 1.21 5.79 3.45 9.23 3.19-.86-1.7-1.92-3.29-3.06-4.82 2.75-2.96 4.16-6.85 6.13-10.32z"/><path fill="#e7c659" d="M221.11 49.2c3.88.31 6.84-3.77 10.73-2.43.42.99.87 1.97 1.36 2.93.48 1.29 1.87 2.91.2 3.94 5.67 8.29 17.21-1.58 21.85 7.92-8.37-3.67-9.77 12.71-2.02 7.34.71 2.08 1.37 4.18 2.07 6.27-.6.25-1.82.76-2.43 1.01-5.17-2.53-6.06 10.46-13.14 7.47-4.8-1.77-9.82-3.18-15.11-3.09-1.26-4.59-5.95-6.88-6.07-12.11 4.14-.9 8.79-9.49 2.71-10.28-4.4-.63-4.74-8.27-.15-8.97z"/><path fill="#c8a759" d="M233.2 49.7l.64.42c2.38 1.99 5.11 3.51 8.3 2.5 3.66-.21 7.35.05 11.01-.37 3.15 1.94 7.09.31 10.09 2.61l.79.43c1.14 1.53 2.2 3.12 3.06 4.82-3.44.26-6.2-1.98-9.23-3.19 1.54 1.92 3.48 3.44 5.34 5.02l-.3.84c-3.76-.25-7.2 2.01-10.97 2.3.68 2.05 3.48 1.89 5.22 2.55-1.34.3-2.72.57-3.92 1.27-7.75 5.37-6.35-11.01 2.02-7.34-4.64-9.5-16.18.37-21.85-7.92 1.67-1.03.28-2.65-.2-3.94z"/><path fill="#eedbc9" d="M266.87 51.94c6.46-.23 11.25 4.72 16.16 8.09 6.69 6.72-9.04 1.62-11.08 1.07 1.4-.1 2.79-.21 4.19-.33-.7-5.01-8.25-4.36-9.27-8.83z"/><path fill="#debc4a" d="M221.26 58.17c6.08.79 1.43 9.38-2.71 10.28.12 5.23 4.81 7.52 6.07 12.11 5.29-.09 10.31 1.32 15.11 3.09 7.08 2.99 7.97-10 13.14-7.47 2.25 1.98 4.72 4.47 8.02 3.58.36 2.31-.96 5.45-3.68 5.23-1.63-2.26-1.4-6.89-5.24-6.03-1.44 3.71 4.37 5.75 2.18 9.15-1.99 3.93-3.29 8.44-6.39 11.67-13.76.69-24.77-10.82-38.65-9.49-9.18-.63-15.42-8.09-23.93-10.52-4.73-2.51-12.08-6.06-16.04-.5-1.25 5.99 10.46 4.38 7.57 12.03-3.03 12.69 13.55 20.22 10.93 33.15-2.69 5.73 4.46 6.49 7.36 9.56 3.88 2.6-.92 8.37 3.18 10.76 6.64 3.94 20.22-.88 22.44 8.76 8.68-2.77 8.91 8.1 5.28 12.36-8.09 8.3-19.61 12.67-28.16 19.97-1.16.71-2.34 1.41-3.59 1.97-6.16-.75-.55-5.71 2.19-7.46 7.49-2.5 12.97-8.73 20.62-10.67-1.06-3.44-1.42-9.73-7.04-7.65-4.53.54-5.62-4.54-6.34-7.91-3.83-.94-8.73 3.99-11.32-.34-1.43-5.8-3.45-11.47-4.63-17.3-1.28-5.44-12.01-2.84-8.45-10.53.95-7.6-2.85-14.9-7.88-20.33-.73-5.16-1.28-10.37-.45-15.53-1.87-4.28-7.6-6.34-7.27-11.79-1.21-.26-2.43-.46-3.66-.59 1.61-2.01 3.7-3.53 5.81-4.96 6.67 2.22 14.07.7 20.44 4 8.07 1.46 14.18 12.77 22.79 6.98.23-5.19-3.85-10.82.22-15.36-.91-9.47 10.33-3.49 12.08-10.22z"/><path fill="#bfaa54" d="M126.07 91.95c14.96-12.96 31.83-25.45 50.89-32.07-.33.48-.98 1.44-1.31 1.92-1.67 1.72-3.55 3.43-3.88 5.94-2 1.69-4.08 3.29-6.04 5.03-2.11 1.43-4.2 2.95-5.81 4.96-1.54 1.88-2.89 3.92-4.12 6.01-4.02 4.01-9.91 2.97-15.06 3.9-4.48 1.47-9.27 2.98-12.56 6.57-1.1.24-2.2.47-3.3.7.41-.98.81-1.97 1.19-2.96z"/><path fill="#8e543a" d="M251.93 65.08c3.77-.29 7.21-2.55 10.97-2.3 1.13.87 2.26 1.73 3.37 2.63-1.08 1.08-2.18 2.16-3.39 3.09-1.91-.32-3.82-.59-5.73-.87-1.74-.66-4.54-.5-5.22-2.55z"/><path fill="#be907f" d="M266.27 65.41c2.78-.11 6.43 3.19 8.22 5.89-2.53 5.66-7.81-1.82-11.61-2.8 1.21-.93 2.31-2.01 3.39-3.09z"/><path fill="#dfc3a7" d="M253.23 68.9c1.2-.7 2.58-.97 3.92-1.27 1.91.28 3.82.55 5.73.87 3.8.98 9.08 8.46 11.61 2.8 1.93.51 5.12 5.41 4.55 8.68-2.61.37-5.15.28-7.64-.27-3.6-5.48-10.17-6.2-16.1-4.54-.7-2.09-1.36-4.19-2.07-6.27z"/><path fill="#c09965" d="M255.3 75.17c5.93-1.66 12.5-.94 16.1 4.54-2.79.04-5.57.02-8.35-.07-.72-.01-1.44.03-2.16.12-3.3.89-5.77-1.6-8.02-3.58.61-.25 1.83-.76 2.43-1.01z"/><path fill="#eaca5b" d="M169.14 79.27c3.96-5.56 11.31-2.01 16.04.5 8.51 2.43 14.75 9.89 23.93 10.52 13.88-1.33 24.89 10.18 38.65 9.49 3.1-3.23 4.4-7.74 6.39-11.67 2.19-3.4-3.62-5.44-2.18-9.15 3.84-.86 3.61 3.77 5.24 6.03 2.72.22 4.04-2.92 3.68-5.23.72-.09 1.44-.13 2.16-.12-2.2 4.92-5.01 9.76-8.98 13.46-1.68 4.29-1.52 10.15-5.79 13.04-3.64 1.6-9.74-2.38-11.22 2.95-2.88 1.08-5.93 1.78-8.87 2.71-5.8-3.39 8.89-11.28-2.72-10.34-3.25-1.09-3.77-8.39-7.11-2.99-12.66-1.59-22.56-15.4-36.11-15.35-2.65 14.49 5.6 31.33 19.37 38.32 3.62 2.1-.85 5.5-2.52 7.4 3.28 2.41 9.12 5.11 5.2-.85 4.1-2.35 8.66-4.04 11.77-7.88 5.11 6.63 12.35.98 18.99 3.03-5.41 7.88-14.96 17.63-25.8 15.11-1.12.8-3.34 2.59-1.09 3.51 5.92 3.73 17.64-.9 20.35 7.07 4.21-2.33 8.87-3.58 13.46-4.97-.14 3.5-1.2 6.82-2.09 10.17-9.72 14.04-25.74 21.57-38.83 31.98-.83-.03-2.49-.11-3.32-.15 8.55-7.3 20.07-11.67 28.16-19.97 3.63-4.26 3.4-15.13-5.28-12.36-2.22-9.64-15.8-4.82-22.44-8.76-4.1-2.39.7-8.16-3.18-10.76-2.9-3.07-10.05-3.83-7.36-9.56 2.62-12.93-13.96-20.46-10.93-33.15 2.89-7.65-8.82-6.04-7.57-12.03z"/><path fill="#d2b13c" d="M155.8 83.74c1.23-2.09 2.58-4.13 4.12-6.01 1.23.13 2.45.33 3.66.59-.33 5.45 5.4 7.51 7.27 11.79-.83 5.16-.28 10.37.45 15.53 5.03 5.43 8.83 12.73 7.88 20.33-3.56 7.69 7.17 5.09 8.45 10.53 1.18 5.83 3.2 11.5 4.63 17.3 2.59 4.33 7.49-.6 11.32.34.72 3.37 1.81 8.45 6.34 7.91 5.62-2.08 5.98 4.21 7.04 7.65-7.65 1.94-13.13 8.17-20.62 10.67-2.74 1.75-8.35 6.71-2.19 7.46-5.04 1.34-8.74 4.79-12.36 8.31-3.45 1.21-7.25 4.1-10.11.24-4.99-5.23-14.46 2.25-18.49-4.77-4.98-.55-10.32-.15-14.43-3.46 8.24 1.98 16.19-1.07 24.39-1.16-.32 2.96-4.01 3.25-6.14 4.52 4.07 3.65 10.76-.81 15.59 1.93 6.74.66 11.64-4.11 13.78-10.07 7.55-4.03 15.1-11.94 11.41-21.13-5.05 1.47-8.95-2.54-12.55-5.49-1.74-3.57-.27-8.02-2.61-11.35-11.1-7.63-7.51-23.48-14.18-33.8-3.17-7.61-3.03-16.08-5.08-23.97-.95-3.42-4.49-4.02-7.57-3.89z"/><path fill="#f1d466" d="M182.25 83.12c13.55-.05 23.45 13.76 36.11 15.35 3.34-5.4 3.86 1.9 7.11 2.99 11.61-.94-3.08 6.95 2.72 10.34 2.94-.93 5.99-1.63 8.87-2.71 1.48-5.33 7.58-1.35 11.22-2.95 4.27-2.89 4.11-8.75 5.79-13.04-1.07 10.54 2.81 21.23-.48 31.58-2.86 10.34-6.55 21.25-13.7 29.35.89-3.35 1.95-6.67 2.09-10.17-4.59 1.39-9.25 2.64-13.46 4.97-2.71-7.97-14.43-3.34-20.35-7.07-2.25-.92-.03-2.71 1.09-3.51 10.84 2.52 20.39-7.23 25.8-15.11-6.64-2.05-13.88 3.6-18.99-3.03-3.11 3.84-7.67 5.53-11.77 7.88 3.92 5.96-1.92 3.26-5.2.85 1.67-1.9 6.14-5.3 2.52-7.4-13.77-6.99-22.02-23.83-19.37-38.32z"/><path fill="#c5a330" d="M140.74 87.64c5.15-.93 11.04.11 15.06-3.9 3.08-.13 6.62.47 7.57 3.89 2.05 7.89 1.91 16.36 5.08 23.97 6.67 10.32 3.08 26.17 14.18 33.8 2.34 3.33.87 7.78 2.61 11.35 3.6 2.95 7.5 6.96 12.55 5.49 3.69 9.19-3.86 17.1-11.41 21.13-2.14 5.96-7.04 10.73-13.78 10.07-4.83-2.74-11.52 1.72-15.59-1.93 2.13-1.27 5.82-1.56 6.14-4.52-8.2.09-16.15 3.14-24.39 1.16-8.25-1.22-12.71 7.18-18.91 10.8l.22-.88c4.18-9.92 15.55-13.93 25.57-12.55 3.9-.84 6.98-5.93 10.51-5.75 9.09 9.69 14.57-17.66 22.67-5.85 4.83-6.87-.99-13.3-2.77-19.98-3.45-5.64-6.28-11.62-9.81-17.22-1.26-7.37 3.2-16-3.12-21.8-.48-5.76-3.25-10.68-8.15-13.97 3.91-3.33 5.91-9.65 2.8-13.9-3.03-.32-4.97 2.67-7.62 3.65-2.82-1.86-5.98-3.09-9.41-3.06z"/><path fill="#b59729" d="M150.15 90.7c2.65-.98 4.59-3.97 7.62-3.65 3.11 4.25 1.11 10.57-2.8 13.9 4.9 3.29 7.67 8.21 8.15 13.97 6.32 5.8 1.86 14.43 3.12 21.8 3.53 5.6 6.36 11.58 9.81 17.22 1.78 6.68 7.6 13.11 2.77 19.98-8.1-11.81-13.58 15.54-22.67 5.85-3.53-.18-6.61 4.91-10.51 5.75-10.02-1.38-21.39 2.63-25.57 12.55-3.4-3.54-9.92 4.05-9.27-2.17 2.26-4.83 1.57-8.31-4.05-10.63 4.6 1.76 9.91 2.18 13.25-2.27 4.59-4.99 11.98-3.41 17.6-6.41 4.18-5.56 9.88-10.61 9.85-18.2.25-14 14.02-22.95 13.99-36.77-4.04-6.34-5.34-17.11-14.05-17.96l-2.45-.96c1.92-3.21.32-7.17-2.89-8.77-4.57-2.26-9.35.78-13.97 1.22l.1-.94c3.29-3.59 8.08-5.1 12.56-6.57 3.43-.03 6.59 1.2 9.41 3.06z"/><path fill="#ac9c6e" d="M111.22 112.24c3.45-7.62 7.97-15.27 14.85-20.29-.38.99-.78 1.98-1.19 2.96-5 5.75-10.03 12.06-11.45 19.74-12.04 8.41-22.35 18.84-33.18 28.68-1.02 2.2.88 2.8 2.7 3.1-.14 2.97-3.66 3.78-5.91 4.75.18-1.2.6-2.3 1.26-3.32 1.45-4.81-12.42-.36-16.26-1.89-1.51.23-3.92-3.51-.06-2.96 8.49-4.55 18.68-4.98 26.72-10.31 7.72-6.57 15.1-13.58 22.52-20.46z"/><path fill="#9d8729" d="M128.08 95.15c4.62-.44 9.4-3.48 13.97-1.22 3.21 1.6 4.81 5.56 2.89 8.77-6.05 3.61-11.97 8.36-19.65 6.19-4.32-3.82-1.13-10.71 2.79-13.74z"/><path fill="#96823e" d="M124.88 94.91c1.1-.23 2.2-.46 3.3-.7l-.1.94c-3.92 3.03-7.11 9.92-2.79 13.74 7.68 2.17 13.6-2.58 19.65-6.19l2.45.96c-.34 2.55-.8 5.08-1.56 7.53-6.93.7-11.42 5.13-12.72 11.77 6.24 3.38 13.78-7.99 19.78-2.73-2.05 10.39-16.31 8.69-23.49 13.23-4.92 5.14-11.82 7.37-17.5 11.45-8.95-6.48-5.1 13.52-14.97 10.12.12-3.17 1.24-6.1 2.01-9.12-9.84.89-18.69 5.94-26.16 11.96.41-.97.82-1.94 1.24-2.9.85-1.33 1.53-3.12 3.02-3.79 2.25-.97 5.77-1.78 5.91-4.75-1.82-.3-3.72-.9-2.7-3.1 10.83-9.84 21.14-20.27 33.18-28.68 1.42-7.68 6.45-13.99 11.45-19.74z"/><path fill="#a88d27" d="M147.39 103.66c8.71.85 10.01 11.62 14.05 17.96.03 13.82-13.74 22.77-13.99 36.77.03 7.59-5.67 12.64-9.85 18.2-5.62 3-13.01 1.42-17.6 6.41-3.34 4.45-8.65 4.03-13.25 2.27-5.11-4.41-9.84-9.55-12.08-16.03-3.21-.95-3.09 4.78-5.04 6.38-1.13 3.04-8.56 2.73-5.81-.89 8.37-1.2 6.57-10.8 10.99-15.96 1.51.29 3.01.61 4.51.95 1.35 4.05-2.22 9.77.95 13.04 3.81 2.01 6.16 7.61 10.61 8.13 8.24-3.87 16.73-8.55 23.3-14.67 2.38-5.33 4.94-10.94 4.73-16.9-3.57-1.19-9.83-.81-10.85-5.13 4.03-3.17 8.07-8.31 13.82-6.61 7.41-1.89 21.59-10.73 12.72-18.11-1.47-3.98-3.37-9.66-8.77-8.28.76-2.45 1.22-4.98 1.56-7.53z"/><path fill="#9c8426" d="M133.11 122.96c1.3-6.64 5.79-11.07 12.72-11.77 5.4-1.38 7.3 4.3 8.77 8.28 8.87 7.38-5.31 16.22-12.72 18.11-5.75-1.7-9.79 3.44-13.82 6.61 1.02 4.32 7.28 3.94 10.85 5.13.21 5.96-2.35 11.57-4.73 16.9-6.57 6.12-15.06 10.8-23.3 14.67-4.45-.52-6.8-6.12-10.61-8.13-3.17-3.27.4-8.99-.95-13.04 1.09-4.28-3.72-5.01-4.51-.95-4.42 5.16-2.62 14.76-10.99 15.96-1.8.37-3.17 1.49-4.37 2.81-3.77-1.66-5.78-5.56-8.67-8.28-6.53-5.86-17.6 4.68-23.62-.85 7.07-6.58 17.56-5.77 25.62-10.54 7.47-6.02 16.32-11.07 26.16-11.96-.77 3.02-1.89 5.95-2.01 9.12 9.87 3.4 6.02-16.6 14.97-10.12 5.68-4.08 12.58-6.31 17.5-11.45 7.18-4.54 21.44-2.84 23.49-13.23-6-5.26-13.54 6.11-19.78 2.73z"/><path fill="#ded1af" d="M62.04 145.97c3.84 1.53 17.71-2.92 16.26 1.89-4.36-2.34-13.72 1.36-16.26-1.89z"/><path fill="#b1984a" d="M28.85 170.98c14.8-5.96 29.75-11.82 45.17-16.01-.42.96-.83 1.93-1.24 2.9-8.06 4.77-18.55 3.96-25.62 10.54 6.02 5.53 17.09-5.01 23.62.85 2.89 2.72 4.9 6.62 8.67 8.28 1.2-1.32 2.57-2.44 4.37-2.81-2.75 3.62 4.68 3.93 5.81.89 1.95-1.6 1.83-7.33 5.04-6.38 2.24 6.48 6.97 11.62 12.08 16.03 5.62 2.32 6.31 5.8 4.05 10.63l-.8.13c-.02-.5-.08-1.49-.11-1.98-1.79-4.77-9.85-7.97-15.02-6.23l-.58-.23c-3.51-1.9-7.34-3.19-11.28-3.85-.94-.23-1.85-.56-2.72-.99-5.01-2.51-10.27-4.7-15.94-5.07-6.08-5.29-13.53-.58-20.23-3.43-4.46-.99-17.65 4.57-15.27-3.27z"/><path fill="#a79039" d="M94.81 158.77c.79-4.06 5.6-3.33 4.51.95-1.5-.34-3-.66-4.51-.95z"/><path fill="#bba572" d="M21.77 174.04c1.55-2.06 4.72-2.22 7.08-3.06-2.38 7.84 10.81 2.28 15.27 3.27 6.7 2.85 14.15-1.86 20.23 3.43-3.04.04-6.07.2-9.1.11-8.4-1.4-16.88-.53-25.3.06-4.4 2.61-6.23-1.27-8.18-3.81z"/><path fill="#cfbd9c" d="M17.78 174.98c1.32-.36 2.63-.77 3.99-.94 1.95 2.54 3.78 6.42 8.18 3.81 8.42-.59 16.9-1.46 25.3-.06-9.08-3.13-15.21 8.3-24.2 3.05-4.14-2.43-8.75-1.35-13.19-.88-.31-1.65-.51-3.34-.08-4.98z"/><path fill="#e5dccd" d="M5.85 181.98c2.54-4.15 7.49-5.71 11.93-7-.43 1.64-.23 3.33.08 4.98-2.01 2.4-8.23 1.7-12.01 2.02z"/><path fill="#dccb9e" d="M55.25 177.79c3.03.09 6.06-.07 9.1-.11 5.67.37 10.93 2.56 15.94 5.07-8.56-.87-16.3-5.52-25.35-3.94l.31-1.02z"/><path fill="#e0ce9f" d="M83.01 183.74c3.94.66 7.77 1.95 11.28 3.85-3.88.03-8.7-1.01-11.28-3.85z"/><path fill="#e6cc7d" d="M194.15 187.83c1.25-.56 2.43-1.26 3.59-1.97.83.04 2.49.12 3.32.15-2.65 2.47-5.9 4.16-8.8 6.28-7.3 5.92-3.26 15.75-4.37 23.78-.8-.72-1.63-1.43-2.6-1.89-3.91-1.35-6.47-6.14-3.84-9.78 1.89-2.67 1.11-5.43.34-8.26 3.62-3.52 7.32-6.97 12.36-8.31z"/><path fill="#cfb56d" d="M94.87 187.82c5.17-1.74 13.23 1.46 15.02 6.23-1.65-.03-3.29-.05-4.93-.08-3.75-.79-7.69-3.33-10.09-6.15z"/><path fill="#d0b05e" d="M119.85 198.95c6.2-3.62 10.66-12.02 18.91-10.8 4.11 3.31 9.45 2.91 14.43 3.46 4.03 7.02 13.5-.46 18.49 4.77 2.86 3.86 6.66.97 10.11-.24.77 2.83 1.55 5.59-.34 8.26-2.63 3.64-.07 8.43 3.84 9.78-2.27 1.23-4.66 2.23-7.16 2.89-1.65-1.79-3.15-3.73-4.27-5.89 5.27-9.19-5.55-5.91-3.09-12.14-8.93-.23-17.86-.03-26.79.18-1.66-5.12-11.33-1.81-16-2.07-7.48 1.62-8.79 11.78-14.91 15.95 4.25-4.33 1.29-11.52 6.78-14.15z"/><path fill="#e8dcbe" d="M104.96 193.97c1.64.03 3.28.05 4.93.08.03.49.09 1.48.11 1.98 0 3.65.11 7.33.02 10.99-2.79-1.7-.05-8.39-1.11-11.84-1.17-.58-3.92.63-3.95-1.21z"/><path fill="#ae8860" d="M110 196.03l.8-.13c-.65 6.22 5.87-1.37 9.27 2.17l-.22.88c-5.49 2.63-2.53 9.82-6.78 14.15l-.27.74c-2.07 3.17-4.59 6.36-4.75 10.31-.62 1.01-1.27 2-1.94 2.98-1.82 2.25-3.85 4.15-3.3-.27 2.33-6.58 6.95-12.67 7.21-19.84.09-3.66-.02-7.34-.02-10.99z"/><path fill="#e6d4a4" d="M127.98 197.15c4.67.26 14.34-3.05 16 2.07-5.35-.52-10.66-1.41-16-2.07z"/><path fill="#ebdaac" d="M143.98 199.22c8.93-.21 17.86-.41 26.79-.18-2.46 6.23 8.36 2.95 3.09 12.14-1.74-2.25 1.07-7.85-2.96-7.14-9.32 2.57-3.88-2.25-1.87-4.15-8.35.07-16.75.5-25.05-.67z"/><path fill="#d8bea9" d="M108.05 224.15c.16-3.95 2.68-7.14 4.75-10.31-.8 3.74-2.7 7.12-4.75 10.31z"/><path fill="#c59a75" d="M185.29 214.18c.97.46 1.8 1.17 2.6 1.89 3.86 6 8.67 11.29 13.08 16.86 8.08 13.13 14.21 28.97 13.29 44.45-2.46-9.66-6.19-19.35-8.55-29.18.53-2.38-1.02-2.11-2.73-1.44-2.03-2.62-6.3 1.4-6.39-1.95.73-3.64 2.21-7.57-.55-10.84-4.71-6.58-8.73-15.96-17.91-16.9 2.5-.66 4.89-1.66 7.16-2.89z"/><path fill="#c6a086" d="M94.34 243.56c.2-6.26 6.93-10.52 8.47-16.7-.55 4.42 1.48 2.52 3.3.27-1.39 6.81-1.51 14.41 1.68 20.72-2.77 2.17-.69 6.03-.87 9.1l-.21.86c-.98 5.32-4.15 6.98-4.67-.96-.93-2.31-.15-6.92-3.88-5.82-4.83 10.38-2.72 22.33-5.74 33.18-.36-1.71-.97-3.3-2.39-4.39-1.82-8.56-.5-17.54 2.03-25.83 3.98 1.82 3.07-7.26 2.28-10.43z"/><path fill="#debfa4" d="M200.97 232.93c5.01 1.32 6.66 6.76 10.3 9.86 1.71 1.79 7.77-1.51 8.79 1.13-3.98.08-11.39-1.69-8.3 4.24 2.53 10.39 6.61 21.01 4.3 31.8.66 1.89-.94 6.23-2.07 3.11.05-1.9.13-3.8.27-5.69.92-15.48-5.21-31.32-13.29-44.45z"/><path fill="#ab7f62" d="M91.21 246.97c-.05-1.68 2.08-2.4 3.13-3.41.79 3.17 1.7 12.25-2.28 10.43-3.15-1.63-.16-4.45-.85-7.02z"/><path fill="#bf936b" d="M211.76 248.16c-3.09-5.93 4.32-4.16 8.3-4.24.51.01 1.54.02 2.05.02 2.58 3.97-2.23 3.38-5.33 3.8-1.68.15-3.35.28-5.02.42z"/><path fill="#dbc3ac" d="M222.11 243.94c2.88-.43 5.5 1.27 7.33 3.32-2.76 3.45-8.77-.14-12.66.48 3.1-.42 7.91.17 5.33-3.8z"/><path fill="#d2b398" d="M195.94 246.9c.16-.52.49-1.57.65-2.09.09 3.35 4.36-.67 6.39 1.95-4.4 6.78-1.65 15.79-6.71 22.51a95.6 95.6 0 0 1-.43-4.48c.12-5.97.1-11.93.1-17.89z"/><path fill="#e8e7e6" d="M202.98 246.76c1.71-.67 3.26-.94 2.73 1.44 2.36 9.83 6.09 19.52 8.55 29.18-.14 1.89-.22 3.79-.27 5.69-2.64-.88.9-7.58-6-3.07-37.94.09-75.89-.18-113.82.11.02 4.64-.56 6.01-1.75 4.1 3.02-10.85.91-22.8 5.74-33.18 3.73-1.1 2.95 3.51 3.88 5.82.73 3.78-.62 12.87 5.86 12.21.08-1.35.11-2.71.09-4.06 27.44 6.31 57.74-2.23 85.65 3.75.79-1.29 1.49-2.62 2.2-3.96.11 1.5.25 2.99.43 4.48 5.06-6.72 2.31-15.73 6.71-22.51z"/><path fill="#f6f6f6" d="M31.28 249.3c8.8-1.08 20.51-4.2 27.81-1.23-2.02 1.39-7.19.71-6.81 3.67 7.98 4.02 17.09 5.35 25.86 6.34-1.46 2.34-4.16 3.77-7.1 3.15-11.02 2.1-21.9 6.88-29.75 15.05-.56 3.26 5.32 2.54 7.65 3.72-7.12 2.33-18.77.83-27.63-.38-2.23-.44-5.45-1.41-4.14-4.35 6.51-4.9 11.56-11.63 19.14-14.98 5.43-4.69-12.76-6.23-5.03-10.99z"/><path fill="#c7a793" d="M89.25 248.23c.49-.31 1.47-.94 1.96-1.26.69 2.57-2.3 5.39.85 7.02-5.26.25-8.4 5.41-13.21 7.05.96-5.91 6.16-9.21 10.4-12.81z"/><path fill="#eeeeed" d="M192.73 247.76c1.06-.3 2.14-.59 3.21-.86 0 5.96.02 11.92-.1 17.89-.71 1.34-1.41 2.67-2.2 3.96-27.91-5.98-58.21 2.56-85.65-3.75-.58-2.37-1.04-4.77-1.28-7.19l.21-.86c2.18-1.98 4.57-4.43 8.08-2.92 25.3-.22 50.61.2 75.91-.12 3.06-.97 5.07-3.87 1.82-6.15z"/><path fill="#e9e9e8" d="M229.44 247.26c.33.01.99.02 1.32.03 8.54.96 17.36-.23 25.59 2.88-10.16 7.71-24.23 6.73-36.24 6.97-5.18.27 2.09 8.6 4.88 4.83 12.78-1.73 26.45 2.07 34.47 12.58 3.12 1.81.15 3.95-1.63 5.32-13.92.3-27.85.12-41.77.09 2.31-10.79-1.77-21.41-4.3-31.8 1.67-.14 3.34-.27 5.02-.42 3.89-.62 9.9 2.97 12.66-.48z"/><path fill="#f4f4f4" d="M230.76 247.29c14.63.44 30.25-2.87 44.22 2.78-1.44 5.24-8.44 5.37-11.04 9.79 7.86 2.91 14.37 10.1 16.14 18.07-7.06 1.28-15.34 3.98-22.25 1.94 1.78-1.37 4.75-3.51 1.63-5.32-8.02-10.51-21.69-14.31-34.47-12.58-2.79 3.77-10.06-4.56-4.88-4.83 12.01-.24 26.08.74 36.24-6.97-8.23-3.11-17.05-1.92-25.59-2.88z"/><path fill="#eae9e9" d="M52.28 251.74c-.38-2.96 4.79-2.28 6.81-3.67 10.04-.03 20.13-.45 30.16.16-4.24 3.6-9.44 6.9-10.4 12.81 4.81-1.64 7.95-6.8 13.21-7.05-2.53 8.29-3.85 17.27-2.03 25.83-13.69.33-27.39.2-41.09.18-2.33-1.18-8.21-.46-7.65-3.72 7.85-8.17 18.73-12.95 29.75-15.05 2.94.62 5.64-.81 7.1-3.15-8.77-.99-17.88-2.32-25.86-6.34z"/><path fill="#e5e4e4" d="M106.92 256.95c.18-3.07-1.9-6.93.87-9.1 28.31.22 56.63.34 84.94-.09 3.25 2.28 1.24 5.18-1.82 6.15-25.3.32-50.61-.1-75.91.12-3.51-1.51-5.9.94-8.08 2.92z"/><path fill="#d3c1b3" d="M102.04 256.85c.52 7.94 3.69 6.28 4.67.96.24 2.42.7 4.82 1.28 7.19.02 1.35-.01 2.71-.09 4.06-6.48.66-5.13-8.43-5.86-12.21z"/></svg>