<svg width="256pt" height="256pt" viewBox="0 0 256 256" xmlns="http://www.w3.org/2000/svg"><g fill="#aa9e89"><path d="M162.52 7.52c2.73-2.88 6.28-5.63 10.5-5.33 3.06 0 5.76 2 7.18 4.6 2.4 4.3 2.83 9.3 3.12 14.1.42 10.6-.93 21.2-2.04 31.7 5.9 9.6 10.26 20 14.46 30.4 10.66 27.4 19.24 55.8 24.12 84.9.98 4.7.66 9.7 1.8 14.3 6.56 6.4 10.5 15.4 10.54 24.7.22 8.4-3 16.7-8.1 23.4-7.17 9.3-17.9 17-30.06 17.2-4.32.1-8.54-1.6-11.28-5-7.4 2-14.76 4.3-22.47 4.9-2 2.2-4.1 4.3-6.7 5.9-3.8.8-8.2 1.7-11.8-.4-1-1.3-1.8-2.6-2.6-3.9-8.9.7-17.8.8-26.7 0-1.1 1.5-2.2 3-3.6 4.2-3.8 1.6-8.2 1.6-11.7-.6-2.1-1.5-3.7-3.3-5.3-5.2-16.3-1.9-33.3-6.4-45.2-18.3-10.9-11-16.2-27-15.3-42.4.7-15.5 3.9-30.8 7.6-45.8 6-23.5 13.5-46.6 23.1-68.9 2.7-6.3 5.7-12.4 9.1-18.3-1.1-11.6-2.8-23.3-1.8-35 .6-5.1 1.5-11.1 6-14.3 4-2.5 8.7-.4 12.6 1.2 6.1 3.9 9.5 10.7 14 16.2 3.4-1.2 6.8-2.5 10.3-3.6 6-1.9 12.3-1.6 18.5-1.5 6.7.2 12.9 2.8 19.3 4.7 4.1-4.7 8-9.6 12.2-14.2m-82.9 2c-2.6 1.1-3.1 4.3-3.6 6.7-.5 5.8-1 11.6-.1 17.3-.6 5.5.7 11 1.1 16.4.1 2.2 1 4.7-.4 6.7-8.1 14.3-14 29.7-19.5 45.2 4.9 4.7 10.6 8.5 15.5 13.4 1.8 1.9 3.7 4.6 2.9 7.4-1.4 2.3-4.5 1.9-6.7 1.1-6-2.1-10.8-6.3-15.7-10.1l-3 9.6c4.2 3.8 9.6 6.8 12.4 11.9 1.3 2.1 0 5.2-2.7 4.9-4.9-.4-8.8-3.6-12.8-6.1-.8 2.9-1.6 5.8-2.3 8.8 3 2.9 8.8 6.1 6.8 11.1-3 1.9-6.3-.6-9.2-1.6-2.68 12-4.9 24.2-5.2 36.6-.5 15.4 6.02 31.5 18.8 40.7 9.7 7 21.62 10 33.32 11.7-5.5-10.6-9.4-21.9-12.3-33.4-.7-2.2 2.2-2 3.57-2.1 2.93 11.9 7.03 23.6 12.6 34.5 1.7 4.4 5.2 9.3 10.4 9.2 4.9-.9 5.3-6.8 5.64-10.7 1.32-11.3.4-22.8-1.4-34 2.1-.1 4.2 1 4.4 3.3 2.1 11.56 2 23.46.45 35.1 8.6.56 17.2.47 25.8-.03-1.74-12.14-1.5-24.6.8-36.6 0-2.46 2.6-2.4 4.3-1.9-2.1 11.7-3 23.8-1.5 35.7.6 3.6 1.8 9.1 6.5 9.04 4.9-.6 8-5.1 9.6-9.3 5.7-11.2 9.9-23.1 12.8-35.3 1.3.23 2.6.47 3.9.73-2.9 12.23-6.86 24.3-12.8 35.5 6.7-.9 13.3-2.4 19.7-4.4.07-3.26-.33-6.7 1.2-9.7 2-4.2 6.3-6.56 10.2-8.7 5.5-2.9 10.92-6.1 15.3-10.68 5.1-5.2 7.7-12.6 7.2-19.9-.6-12.6-2.8-25.1-5.6-37.3-2.9 1-7.1 3.8-9.4.5-.4-4.6 4.22-7.2 7.1-10-.6-2.4-1.2-4.8-2-7.2-4.1 2.5-8.1 5.9-13.17 6.3-3.07.2-3.95-3.5-2.4-5.6 3.1-4.9 8.3-7.8 12.5-11.7-1-3.4-2.06-6.84-3.2-10.2-5.25 3.9-10.3 8.4-16.77 10.2-1.9.64-4.8.3-5.5-1.93-.5-3.1 1.7-5.64 3.77-7.65 4.6-4.44 9.96-8.1 14.6-12.5-5.56-16.2-12.1-32.1-20.65-46.9.1-7.1 1.9-14 1.6-21.2.7-5.5.4-11.07-.1-16.5-.4-2.7-.84-5.6-2.9-7.5-2.17-1.5-4.56.5-6.1 2-5.55 5.6-9.8 12.5-15.76 17.7-8.6-3.5-17.7-6.1-27-5.7-8.7-.1-17 2.8-24.83 6.2-3.7-4.3-6.5-9.4-10.4-13.7-2.6-2.8-5.86-6.4-10.1-5.7m140.6 180.2c-.23 8.7-4.1 17.2-10.7 22.9-5.6 5.4-13 8.3-19.35 12.6-4.2 2.6-5.2 8.5-3.1 12.8 1.6 2.6 5 3.32 7.9 3.4 6.7-.1 12.9-3.4 17.8-7.7 6.5-5.6 11.8-13.04 13.1-21.64 1.3-7.8-.8-16.1-5.6-22.4z"/><path d="M108.45 37.35c.92-1.3 3.26-.2 2.4 1.43-1.72 2.57-3.76 4.97-6.06 7.04-1.4.33-2.1-.23-1.9-1.68 1.5-2.5 3.5-4.66 5.5-6.8zm5.08.15c.94-1.12 3 .08 2.28 1.42-1.2 2.57-3 4.86-4.7 7.17-.4 1.6-3.5 1.9-3.1-.2 1.5-3.1 3.6-5.8 5.7-8.5zm21.1 1.38c0-1.52.7-2.07 2.1-1.65 2.2 2.88 4.82 5.76 5.93 9.25l-1.6 1.4a49.985 49.985 0 0 1-6.43-9zm5.04-2.14c4.06.42 5.6 4.95 8.28 7.5l-1.12 1.98c-3.1-1.5-5.04-4.58-7-7.28l-.16-2.2zm-30.9 18.3c3.78.65 5.98 4.27 7.98 7.2 5.54 9.1 3.68 21.58-3.7 29.13-6.17 6.13-15.72 8.23-23.9 5.27-6.48-2.6-11.73-8.06-13.87-14.7-2.56-7.36-1.2-15.94 3.57-22.1.6-.94 1.46-1.54 2.55-1.82-3.23 5-4.62 11.12-3.06 16.96-.56 6.2 3.13 12.2 8.05 15.73 6.3 4.7 15.6 4.5 21.8-.4 5.6-4.3 9.3-12.1 7-19.2.5-6.1-2.3-11.8-6.6-16zm24.67 11.3c1.74-4.14 4.28-8.65 8.66-10.4-3.53 4.2-5.7 9.45-5.37 15-3.38 11.16 7.08 22.93 18.27 23.1 10.18.66 20.18-8.46 19.66-18.8 1.45-5.44.5-11.14-2.12-16.1 2.97 1 3.83 4.63 5.07 7.2 4.7 12-2.5 26.6-14.7 30.55-7.4 2.4-15.7.6-21.8-4.1-7.6-6.2-11.3-17.2-7.6-26.5z"/><path d="M96.3 82.16c1.26-4.22 5.9-7.4 10.28-6.63 1.22.03 1.2 1.8.6 2.54-2.07 3.6-6.88 6-10.88 4.1zm61.04.54c-.2-4.57 5.7-7.5 9.72-7.12l1.7 1.28c-1.77 4.05-7.12 8.06-11.42 5.83zm-59.78 19.94c5.47-.67 10.62-3.04 16.1-3.45l.44 2.5c-5.42 1.3-10.72 3.3-16.3 3.7-1.86.3-2.06-2.8-.24-2.8zm44.37-3.74c5.66 1.4 11.3 2.84 17 4.1.47 1.76-.15 2.56-1.86 2.4-5.1-.58-10.1-2.05-14.97-3.63-1.63-.27-.36-2.02-.17-2.87zm-27.53 5.46c1.43-1.72 4.15.77 2.13 2.07-4.7 2.9-9.5 5.78-14.68 7.74-1.86.2-2.2-2.35-.56-2.86 4.5-2 8.7-4.5 13.1-6.9zm23.45 1.38c.38-1.03 1.62-2.78 2.86-1.56 4.8 2.76 9.6 5.3 14.5 7.77.3 1.92-1.3 2.8-2.9 1.76-5-2.1-9.8-4.9-14.4-7.9z"/></g><g fill="#dcd5c6"><path d="M79.65 9.54c4.25-.7 7.5 2.85 10.1 5.7 3.9 4.24 6.7 9.35 10.48 13.72 7.86-3.38 16.15-6.3 24.83-6.17 9.3-.4 18.4 2.2 26.97 5.6 5.98-5.3 10.2-12.1 15.77-17.8 1.55-1.5 3.94-3.5 6.12-2 2.06 1.9 2.5 4.8 2.93 7.5-8.6 3.5-14.15 14.3-10.18 23.1 1.1 2.9 4.86 4.9 7.63 2.9 1.5-3 1.92-6.4 2.58-9.6.3 7.1-1.45 14.1-1.6 21.1 8.56 14.8 15.1 30.7 20.65 46.9-4.62 4.4-9.95 8-14.57 12.4-2.03 2-4.25 4.6-3.74 7.7.7 2.2 3.56 2.5 5.5 1.9 6.44-1.8 11.53-6.4 16.78-10.3 1.14 3.4 2.2 6.8 3.17 10.2-4.17 3.9-9.4 6.8-12.5 11.7-1.54 2.1-.66 5.8 2.38 5.5 5.03-.4 9.06-3.8 13.16-6.3.8 2.3 1.5 4.7 2 7.2-2.8 2.8-7.5 5.4-7.1 10 2.3 3.3 6.5.5 9.4-.5 2.9 12.2 5.1 24.7 5.6 37.4.6 7.2-2 14.7-7.2 19.9-4.3 4.5-9.8 7.8-15.3 10.7-3.9 2.1-8.2 4.5-10.1 8.7-1.5 3-1.1 6.4-1.1 9.7-6.4 2-13 3.5-19.7 4.4 6-11.2 9.9-23.3 12.8-35.5-1.3-.3-2.6-.5-3.9-.8-2.9 12.2-7.1 24.1-12.8 35.3-4-1.5-8.3-2-12.5-1.6-1.4 0-2.7.6-3.5 1.7-1.5-11.9-.6-24 1.5-35.7-1.7-.4-4.3-.5-4.3 1.9-2.3 12-2.6 24.5-.8 36.6-8.6.5-17.2.6-25.8 0 1.5-11.6 1.6-23.5-.4-35.1-.2-2.3-2.3-3.4-4.4-3.3 1.8 11.2 2.8 22.6 1.4 33.9-5.3-.18-10.9-.6-16 1.5-5.5-11-9.7-22.6-12.6-34.58-1.3.1-4.3-.1-3.6 2.1 2.9 11.5 6.8 22.84 12.4 33.4C78.4 239 66.5 236 56.8 229c-12.7-9.1-19.3-25.2-18.8-40.6.3-12.37 2.6-24.6 5.2-36.64 2.9 1.03 6.2 3.45 9.2 1.6 2-5-3.9-8.2-6.8-11.1.7-3 1.5-5.9 2.3-8.8 4 2.5 7.9 5.72 12.8 6.1 2.7.22 4-2.9 2.7-5-2.8-5.16-8.1-8.1-12.4-11.9l3-9.68c4.9 3.8 9.8 8 15.7 10.1 2.2.7 5.3 1.2 6.7-1.1.9-2.8-1.04-5.5-2.9-7.5-4.8-4.8-10.6-8.6-15.5-13.4C63 86 68.9 70.6 77.1 56.36c1.3-2 .4-4.5.3-6.7-.5-5.45-1.8-10.92-1.2-16.42 1.1 3 1.7 6.2 3.25 9.1 2.6.9 5.7-.1 6.86-2.7 4.7-8.7-.9-20.5-10-23.8.5-2.4.9-5.7 3.6-6.7M108.7 37c-2 2.14-4.1 4.3-5.6 6.8-.1 1.45.5 2 1.9 1.7 2.3-2.1 4.3-4.5 6-7.05.9-1.6-1.5-2.7-2.4-1.4m5.1.16c-2.1 2.7-4.1 5.4-5.6 8.4-.3 2.2 2.8 1.8 3.2.2 1.7-2.4 3.5-4.6 4.7-7.2.7-1.4-1.3-2.6-2.3-1.4m21.1 1.3c1.8 3.2 4 6.2 6.5 9l1.6-1.4c-1.1-3.5-3.75-6.4-5.95-9.3-1.4-.4-2.1.2-2.1 1.7m5.06-2.1l.1 2.2c2 2.7 3.9 5.7 7 7.3.3-.5.8-1.5 1.1-2-2.6-2.6-4.2-7.1-8.2-7.5M81.4 58c-1.1.28-1.94.88-2.55 1.8-4.8 6.18-6.1 14.78-3.6 22.1 2.17 6.66 7.4 12.1 13.9 14.7-4.7 1.6-7.2 7-7.7 11.7-.6 8.88.2 17.8 1.3 26.6 2.1 15.5 6.6 31.3 16.5 43.7 7 8.83 18.1 15 29.6 13.97 12.1-.95 22.1-9.5 28.3-19.4 10.3-16.46 13.7-36.15 14.5-55.2.2-6.16.7-13.1-3.5-18.14-1.3-1.48-3-3.74-5.3-3 12.2-3.93 19.4-18.55 14.7-30.55-1.2-2.56-2.1-6.2-5-7.17-3.8-5.6-10.7-9.1-17.5-8.7-4.8.3-9.4 2.3-12.9 5.6-4.4 1.8-6.9 6.3-8.65 10.4-3.7 9.4-.1 20.3 7.6 26.5l-1.2-.3-.6 2.6c-.1-4.5-5.8-4.6-9.2-5-5.5.1-12.4-1.3-16.4 3.6l-.7-2.2c7.4-7.5 9.2-20 3.7-29.1-2-2.9-4.2-6.5-8-7.2-8-6.5-21-5.1-27.4 3z"/><path d="M150.48 58.5c4.2-1.23 8.55 3.26 7.14 7.44-1.05 4.28-7.15 5.8-10.05 2.46-3.2-3.05-1.43-9.05 2.9-9.9zm-60.12.87c3.46-2.07 8.34.65 8.5 4.63.54 4.33-4.66 7.82-8.45 5.58-4-1.9-4-8.28 0-10.2zm31.07 34.3c3.7-.67 7.9-1.05 11.4.58.35 1.68-1.76 1.6-2.83 2.02-3.2.42-6.67.52-9.68-.87-.4-1-.04-1.57 1.1-1.73zm98.82 96.03c4.78 6.3 6.9 14.58 5.58 22.4-1.3 8.6-6.62 16.06-13.1 21.64-4.9 4.3-11.12 7.55-17.78 7.64-2.88-.02-6.25-.76-7.85-3.4-2.16-4.27-1.1-10.14 3.1-12.8 6.38-4.28 13.73-7.16 19.34-12.57 6.64-5.6 10.48-14.2 10.7-22.9z"/></g><g fill="#f6f1e7"><path d="M76.06 16.27c9.1 3.27 14.7 15.03 10 23.8-1.18 2.6-4.26 3.53-6.85 2.64-1.5-2.8-2.1-6.1-3.2-9.1-.8-5.7-.4-11.6.1-17.3zm90.6 23.1c-3.96-8.8 1.6-19.6 10.2-23.15.4 5.5.75 11.05.02 16.53-.66 3.22-1.1 6.57-2.58 9.54-2.77 1.9-6.52-.1-7.63-3zm-51.36 31.7c2.2 7.06-1.45 14.85-7.08 19.22-6.17 4.8-15.47 5-21.83.4-5-3.6-8.7-9.5-8.1-15.8 2.5 8.3 10.9 14.4 19.6 13.5 9-.5 16.8-8.4 17.3-17.5zM155 94.05c-11.2-.18-21.65-11.95-18.27-23.12.42 9.52 8.74 17.87 18.3 18.1 8.75.68 17.08-5.5 19.63-13.78.52 10.33-9.48 19.45-19.66 18.8z"/><path d="M89.14 96.64c8.2 2.96 17.74.86 23.9-5.27.2.55.55 1.65.73 2.2.98 5.88 6 11.14 12.12 11.45 6 .5 12.4-3.7 13.3-9.93l.6-2.7 1.1.3c6.1 4.7 14.4 6.4 21.8 4 2.3-.8 3.9 1.5 5.3 3 4.2 5 3.6 11.9 3.5 18.1-.9 19.1-4.3 38.7-14.5 55.2-6.2 9.9-16.3 18.4-28.3 19.4-11.5 1-22.6-5.2-29.6-14-9.9-12.4-14.4-28.2-16.6-43.7-1.1-8.8-1.9-17.8-1.3-26.6.5-4.7 3-10.1 7.7-11.7m8.4 6c-1.9 0-1.7 3.1.2 2.8 5.5-.5 10.8-2.4 16.3-3.8-.1-.7-.4-1.9-.5-2.5-5.5.4-10.7 2.7-16.1 3.4m44.3-3.8c-.2.9-1.5 2.6.1 2.9 4.9 1.6 9.8 3 15 3.6 1.7.1 2.3-.7 1.8-2.4-5.7-1.3-11.4-2.7-17-4.1m-27.5 5.5c-4.4 2.4-8.6 4.9-13.1 7-1.7.5-1.3 3 .5 2.8 5.2-2 10-4.8 14.7-7.8 2-1.3-.7-3.8-2.1-2.1m23.4 1.3c4.6 3 9.4 5.8 14.4 8 1.5 1 3.2.1 2.9-1.8-4.9-2.5-9.8-5-14.5-7.8-1.2-1.3-2.5.5-2.9 1.5zm-44.1 135c5.1-2.1 10.6-1.6 16-1.5-.4 3.9-.8 9.8-5.6 10.7-5.2 0-8.7-4.9-10.4-9.2zm48.9.2c.9-1.1 2.1-1.8 3.6-1.8 4.2-.5 8.5.1 12.5 1.6-1.7 4.2-4.8 8.7-9.6 9.3-4.8.1-5.9-5.5-6.5-9.1z"/></g><path d="M81.4 58.02c6.4-8.12 19.37-9.5 27.37-2.97 4.25 4.22 7.02 9.93 6.52 16.02-.5 9.06-8.3 16.96-17.4 17.45-8.8.87-17.2-5.24-19.6-13.54-1.6-5.84-.2-11.95 3-16.96m8.9 1.35c-4.1 1.93-4 8.3 0 10.2 3.8 2.25 9-1.24 8.4-5.57-.2-3.98-5.1-6.7-8.5-4.63m5.9 22.8c4 1.9 8.8-.5 10.9-4.1.6-.73.6-2.5-.6-2.54-4.4-.77-9 2.4-10.3 6.63zm46-26.22c3.5-3.22 8.1-5.27 12.8-5.53 6.8-.4 13.7 3.1 17.5 8.74 2.6 4.94 3.6 10.64 2.1 16.1-2.6 8.28-10.9 14.45-19.6 13.77-9.5-.23-17.9-8.58-18.3-18.1-.3-5.54 1.9-10.8 5.4-14.98m8.4 2.55c-4.4.85-6.1 6.85-2.9 9.9 2.9 3.35 9 1.82 10-2.46 1.4-4.18-2.9-8.67-7.1-7.44m6.8 24.2c4.3 2.22 9.6-1.8 11.4-5.84-.4-.32-1.3-.96-1.7-1.28-4-.38-9.9 2.55-9.7 7.1z" fill="#541e00"/><path fill="#dc1b6c" d="M113.77 93.57c3.9-4.85 10.86-3.47 16.34-3.52 3.4.45 9.2.52 9.2 5.04-.9 6.2-7.3 10.4-13.3 9.9-6.1-.3-11.1-5.6-12.1-11.5m7.7.1c-1.1.1-1.5.7-1.1 1.7 3 1.4 6.5 1.3 9.7.8 1.1-.4 3.2-.4 2.9-2-3.5-1.7-7.7-1.3-11.4-.6z"/><path opacity=".3" d="M46.9 229.48c11.9 11.9 28.95 16.34 45.18 18.24 1.56 1.9 3.24 3.73 5.26 5.17-5.1.4-10.2-.3-15.3-.6-13.62-1-27.25-2.3-40.67-4.9-5.43-1.2-11-2.3-15.95-4.9-1.5-.9-3.7-2.6-2.6-4.6 1.3-1.9 3.47-2.8 5.48-3.6 5.96-2.5 12.43-3.2 18.6-5zm147.14 18.12c12.16-.2 22.9-7.84 30.07-17.18 6 2.08 12.8 2.6 18 6.5 1.9 1.22 1.3 3.88-.5 4.84-5.1 3.4-11.3 4.4-17.2 5.74-21.2 4-42.8 5.23-64.3 6.12-2.1.1-4.2.06-6.3-.14 2.6-1.57 4.7-3.65 6.6-5.92 7.7-.57 15.1-2.9 22.5-4.9 2.8 3.36 7 5.12 11.3 4.93zm-85 5.9c1.43-1.22 2.53-2.74 3.6-4.28 8.85.85 17.75.7 26.63 0 .85 1.32 1.68 2.65 2.62 3.9l.5.8c-11.2.14-22.3.34-33.5-.43z"/></svg>