<svg width="256pt" height="256pt" viewBox="0 0 256 256" xmlns="http://www.w3.org/2000/svg"><g fill="#4c5d6e"><path d="M39.58 19.53c3.05-2.11 7.04-1.57 10.37-.49 7.31 2.48 13.69 7.04 19.56 11.94 13.39-5.5 29.63-6.88 42.49.73 6.38-5.58 13.64-10.47 21.87-12.82 3.5-1.02 7.84-1.22 10.52 1.71 3.89 4.08 3.9 10.19 3.58 15.46-.98 9.1-1.33 18.33-3.59 27.25 4.77 6.91 8.86 14.5 15.33 20.03 5.59 5.25 12.76 8.2 19.55 11.51 15.55 7.48 31.59 14.25 45.78 24.21 9.34 6.49 17.69 14.74 22.99 24.88 5.43 10.44 7.91 22.46 6.7 34.19-1.62 16.43-8.92 32.36-20.73 43.95-7.61 7.37-17 12.97-27.26 15.71-12.62 3.39-25.97 5.7-38.98 3.35-4.92-.73-8.93-3.81-12.64-6.9-5.35.37-10.71.76-16.07.71-3.52.06-7.36-.47-10.39 1.73-7.24 4.45-16.5 6.33-24.62 3.28-2.48-.74-3.26-3.38-4.36-5.41-1.89-.12-3.79-.22-5.68-.32-3.33 5.34-10.35 5.59-15.97 5.02-11.24-1.59-20.33-9.41-27.53-17.7-13.22-15.31-20.09-35.06-23.34-54.77-4.75-28.75-3.86-58.73 4.67-86.71 1.45-5.63 4.44-10.68 6.24-16.18-1.75-11.19-3.27-22.5-3.23-33.88.05-3.91 1.27-8.25 4.74-10.48m1.25 10.49c-.08 10.74 1.51 21.42 2.84 32.06.67 4.09-1.8 7.66-3.15 11.33-7.14 18.31-9.93 38.07-10.21 57.65-.07 18.3 2.09 36.69 7.29 54.26 3.91 12.82 10.36 25.12 19.77 34.74 3.12 3.08 6.42 6.01 10.05 8.47 5.9 3.95 13.36 5.79 20.32 3.92.07-7.18-5.46-12.57-8.65-18.55-2.93-5.78-6.47-11.46-7.27-18.02 1.4.26 2.8.53 4.22.74 3.63 11.2 10.97 20.61 16.03 31.15 3.59.43 7.2.65 10.81.7 3.82-8.14 10.35-14.69 13.88-22.96 2.42-2.81 3.58-6.37 5.18-9.64.79 1.2 2.98 2.29 2.23 4.05-1.3 5.37-4.96 9.68-7.23 14.61-4.22 6.18-9.57 12.12-10.78 19.76 11.67 3.51 22.7-4 30.62-11.84l.36-.01c5.15-5.47 9.72-11.58 12.75-18.49.87-2.25 2.7-3.84 4.63-5.18.13 1.78.57 3.65-.28 5.34-3.9 9.6-10.63 17.72-17.98 24.89 5.84-.05 11.67-.33 17.51-.52.18-3.39-.3-7.13 1.66-10.1 2.29-3.6 6.33-5.56 10.29-6.72 7.89-2.2 16.16-2.06 24.28-2.1 10.39-.02 20.66-3.46 29.25-9.25 8.65-5.89 16.33-14.38 18.26-24.98l2.68-.12c.21 1.94.7 3.97-.08 5.86-3.06 8.97-9.81 16.24-17.38 21.7-11.38 8.25-25.72 11.9-39.67 10.68-6.11-.66-12.42.01-18.12 2.38-2.61 1.14-5.31 2.79-6.46 5.53-1.43 4.36.71 9.33 4.72 11.47 7.32 4.1 16.09 3.57 24.19 3.28 9.18-2.12 18.74-3.33 27.24-7.64 14.66-7.06 25.69-20.55 30.85-35.86 3.61-10.76 4.96-22.65 1.78-33.69-1.54-6.02-3.17-12.23-6.96-17.29-6.76-8.32-14.72-15.8-24.09-21.11-1.67 7.16-4.19 14.22-8.34 20.33-1.8 2.53-3.92 5.01-6.78 6.34-1.38.56-3.22 1.4-4.2-.24-.07-3.25 1.48-6.2 2.91-9.02 3.68-6.86 7.85-13.96 7.89-21.98-1.96-2.09-4.81-2.95-7.31-4.2-2.19 9.75-5.69 19.65-12.53 27.16-2.26 2.18-5.38 4.91-8.73 3.81-1.65-2.33.39-5.3 1.13-7.65 4.42-8.98 10.25-17.73 10.61-28.09-2.24-1.03-4.47-2.07-6.7-3.11-2.13 8.6-5.12 17.42-11.23 24.06-2.22 2.24-5.71 4.92-8.79 2.59 2.67-10.37 10.96-18.76 11.3-29.79.19-1.27-1.33-1.5-2.1-2.09-4.38-2.25-8.97-4.15-12.96-7.08-8.28-6.02-14.73-14.17-20.13-22.78-1.86-2.76-1.29-6.23-1.22-9.36.61-2.59.67-5.27.81-7.91 1.61-4.32 1.28-9 1.79-13.5.19-3.96.94-8.19-.61-11.97-1.15-2.95-4.78-1.9-7.05-1.1-6.17 2.42-11.81 6.16-16.73 10.57 1.86 3.11 5.93 4.46 8.2 7.41-2.03.32-4.36 1.42-6.11-.23-7.39-5.47-16.04-9.74-25.36-10.2-8.86-.33-17.86 1.56-25.7 5.75-2.87 1.48-5.36 3.6-8.28 5-1.63.1-2.44-.66-2.43-2.28 2.03-2.44 4.92-3.91 7.56-5.59-5.49-4.95-11.86-9.39-19.12-11.16-3.61-1.23-5.31 2.92-5.17 5.81z"/><path d="M51.4 75.5c5.11-2.24 10.95-.85 15.87 1.24 3.66 1.69 7.58 3.88 9.31 7.72.98 1.95-2.18 4.48-3.58 2.56-4.33-4.54-10.42-8.1-16.86-7.46-2.31.12-5.94 2.69-7.16-.49-.42-1.78 1-2.9 2.42-3.57zm61.85-.11c4.62-1.17 10.08-1.65 14.2 1.2 1.8 1.05 1.5 3.81-.45 4.5-2.67-.45-5.24-1.57-7.97-1.6-3.65.25-7.26 1.35-10.41 3.21-2.21 1.32-3.53 3.69-5.66 5.11-1.95.53-3.71-1.83-2.65-3.56 2.36-4.99 7.97-7.31 12.94-8.86zM75.46 94.63c5.73-3.46 12.79-2.99 19.17-2.21 1.99.59 4.93.55 5.76 2.82-1.31 4.72-5.09 8.01-9.57 9.69.87 2.88 1.93 6.34 5.27 7.13 4.52 1.88 8.47-1.62 12.56-2.88.59.12 1.76.37 2.35.49-1.54 4.91-7.31 6.69-11.93 6.89-3.9.22-7.18-2.05-10-4.44-3.46 3.28-8.25 5.4-13.06 4.1-3.57-.91-8.84-2.7-8.18-7.34 4.8.77 9.04 5.1 14.1 3.23 3.38-.73 4.55-4.17 5.33-7.1-2.53-1.11-5.3-1.95-7.33-3.9-1.87-1.88-3.1-4.25-4.47-6.48m6.49 2.22c3.85 2.52 8.79 1.77 12.78 0-2.25-3.03-6.34-2.97-9.69-2.4-1.33.28-2.96.79-3.09 2.4z"/></g><g fill="#85919e"><path d="M40.83 30.02c-.14-2.89 1.56-7.04 5.17-5.81 7.26 1.77 13.63 6.21 19.12 11.16-2.64 1.68-5.53 3.15-7.56 5.59-.01 1.62.8 2.38 2.43 2.28 2.92-1.4 5.41-3.52 8.28-5 7.84-4.19 16.84-6.08 25.7-5.75 9.32.46 17.97 4.73 25.36 10.2 1.75 1.65 4.08.55 6.11.23-2.27-2.95-6.34-4.3-8.2-7.41 4.92-4.41 10.56-8.15 16.73-10.57 2.27-.8 5.9-1.85 7.05 1.1 1.55 3.78.8 8.01.61 11.97-.51 4.5-.18 9.18-1.79 13.5.05-7.52.74-15.08-.49-22.54-4.14 4.03-7.89 8.49-10.95 13.4-1.09 1.86-2.43 4.17-1.07 6.27 2.55 4.85 5.84 9.32 9.25 13.61.78-.98 1.61-1.91 2.45-2.83-.07 3.13-.64 6.6 1.22 9.36 5.4 8.61 11.85 16.76 20.13 22.78 3.99 2.93 8.58 4.83 12.96 7.08.77.59 2.29.82 2.1 2.09-.34 11.03-8.63 19.42-11.3 29.79 3.08 2.33 6.57-.35 8.79-2.59 6.11-6.64 9.1-15.46 11.23-24.06 2.23 1.04 4.46 2.08 6.7 3.11-.36 10.36-6.19 19.11-10.61 28.09-.74 2.35-2.78 5.32-1.13 7.65 3.35 1.1 6.47-1.63 8.73-3.81 6.84-7.51 10.34-17.41 12.53-27.16 2.5 1.25 5.35 2.11 7.31 4.2-.04 8.02-4.21 15.12-7.89 21.98-1.43 2.82-2.98 5.77-2.91 9.02.98 1.64 2.82.8 4.2.24 2.86-1.33 4.98-3.81 6.78-6.34 4.15-6.11 6.67-13.17 8.34-20.33 9.37 5.31 17.33 12.79 24.09 21.11 3.79 5.06 5.42 11.27 6.96 17.29 3.18 11.04 1.83 22.93-1.78 33.69-5.16 15.31-16.19 28.8-30.85 35.86-8.5 4.31-18.06 5.52-27.24 7.64-3.56-2.21-7.72-4.65-8.55-9.15-1.53-4.94.58-10.08 4.22-13.51 13.95 1.22 28.29-2.43 39.67-10.68 7.57-5.46 14.32-12.73 17.38-21.7.78-1.89.29-3.92.08-5.86l-2.68.12c-1.93 10.6-9.61 19.09-18.26 24.98-8.59 5.79-18.86 9.23-29.25 9.25-8.12.04-16.39-.1-24.28 2.1-3.96 1.16-8 3.12-10.29 6.72-1.96 2.97-1.48 6.71-1.66 10.1-5.84.19-11.67.47-17.51.52 7.35-7.17 14.08-15.29 17.98-24.89.85-1.69.41-3.56.28-5.34-1.93 1.34-3.76 2.93-4.63 5.18-3.03 6.91-7.6 13.02-12.75 18.49l-.36.01c-4.95-.05-10.19.77-14.84-1.36-2.71-1.16-3.93-4.02-5-6.56 2.27-4.93 5.93-9.24 7.23-14.61.75-1.76-1.44-2.85-2.23-4.05-1.6 3.27-2.76 6.83-5.18 9.64 1.97-7.05 4.71-14 5-21.4.59-10.34.32-21.18-4.1-30.74-3.72-7.85-10.84-14.78-19.77-15.85-7.23-.85-15.45.21-20.91 5.43-4.71 5.18-6.72 12.28-7.31 19.12-1.01 11.86 2.09 23.59 6.37 34.55-1.42-.21-2.82-.48-4.22-.74.8 6.56 4.34 12.24 7.27 18.02-2.01 2.06-3.95 4.38-6.66 5.53-4.75 2.09-10.11 1.53-15.06.63-9.41-9.62-15.86-21.92-19.77-34.74-5.2-17.57-7.36-35.96-7.29-54.26.28-19.58 3.07-39.34 10.21-57.65 1.35-3.67 3.82-7.24 3.15-11.33-1.33-10.64-2.92-21.32-2.84-32.06m3.23-1.11c-1.15 6.37-.82 12.87-.39 19.3.58 4.9.3 10.19 2.94 14.56 3.35-5.53 8.68-10.24 10.15-16.68-2.77-6.6-7.74-12.11-12.7-17.18M68.34 56.2c-1.98 1.83.79 3.22 1.77 4.7 2.44 2.34 2.96 5.88 4.99 8.5 2.75-.02 1.46-2.85 1.02-4.48-1.52-3.54-3.72-7.74-7.78-8.72m38.97.16c-4.21 2.65-7.27 7.54-7.31 12.59.5.08 1.48.25 1.98.34 1.66-3.9 3.55-7.71 6.64-10.71 1.4-.89-.06-2.58-1.31-2.22M63 59.02c-.4 2.45 1.96 3.94 3.01 5.88 1.21 1.34 1.67 3.79 3.78 3.94 1.45-1.86-.05-3.97-1-5.67-1.36-1.96-3.06-4.45-5.79-4.15m45.45 3.41c-1.3 1.96-3.82 5.67-.15 6.54 1.14-3.67 5.11-6.01 5.53-9.79-2.42-.77-4.06 1.63-5.38 3.25M51.4 75.5c-1.42.67-2.84 1.79-2.42 3.57 1.22 3.18 4.85.61 7.16.49 6.44-.64 12.53 2.92 16.86 7.46 1.4 1.92 4.56-.61 3.58-2.56-1.73-3.84-5.65-6.03-9.31-7.72-4.92-2.09-10.76-3.48-15.87-1.24m61.85-.11c-4.97 1.55-10.58 3.87-12.94 8.86-1.06 1.73.7 4.09 2.65 3.56 2.13-1.42 3.45-3.79 5.66-5.11 3.15-1.86 6.76-2.96 10.41-3.21 2.73.03 5.3 1.15 7.97 1.6 1.95-.69 2.25-3.45.45-4.5-4.12-2.85-9.58-2.37-14.2-1.2M45.3 93.43c-.87 2.47 2.2 2.26 3.76 2.09 6.31-.7 12.59.75 18.44 3.01a90 90 0 0 1-1.13 2.69c-7.29-1.73-15.72-2.32-22.28 1.91.04.47.11 1.4.14 1.86 2.25.21 4.35-.8 6.48-1.33 3.32-1.03 6.82-.55 10.23-.52 1.55.38 3.11.76 4.66 1.15.42 1.42.91 2.82 1.34 4.25l.89.34c-.66 4.64 4.61 6.43 8.18 7.34 4.81 1.3 9.6-.82 13.06-4.1 2.82 2.39 6.1 4.66 10 4.44 4.62-.2 10.39-1.98 11.93-6.89.57-1.48 1.36-2.9 1.65-4.46 7.46-1.19 15.22-1.32 22.27 1.83.28-.54.86-1.62 1.15-2.16-7.04-4.43-15.74-3.94-23.58-2.47-.45-1.12-1.18-2.09-1.98-2.98 7.77-3.53 16.37-4.07 24.78-3.54-.63-1-.77-2.67-2.27-2.71-8.36-1.39-17.11.43-24.68 4.12-2.08-1.87-4.94-2.31-7.52-3.07l-.43 1.01c-.83-2.27-3.77-2.23-5.76-2.82-6.38-.78-13.44-1.25-19.17 2.21-1.95.65-3.91 1.24-5.89 1.78-7.39-3.43-16.33-5.6-24.27-2.98zM12.37 52.36c1.27-1.24 3.58-.69 4.08 1.03 1.19 2.89.11 6.04-1.62 8.45-1.94 2.68-1.56 6.56-4.2 8.78-1.44 1.51-4.19 2.53-5.54.36-1.2-2.78 2.69-3.57 3.02-6.03.72-2.43 1.72-4.75 3.06-6.9 1.14-1.7.11-4 1.2-5.69zm10.75.65c.62-2.19 4.07-2.26 4.66-.01 1.44 3.85 1.67 9.01-1.91 11.79-4.34 3.01-1.72 9.25-5.26 12.78-1.8 1.74-4.03 3.54-6.67 3.49-1.23-.71-2.25-2.23-1.41-3.63 1.48-1.45 3.59-2.21 4.82-3.89.87-2.73.59-5.74 1.86-8.36.89-2.15 2.74-3.64 4.44-5.13-.02-2.36-.39-4.69-.53-7.04z"/><path d="M154.39 52.3c1.09-1.54 3.92-1.24 4.34.73-.09 2.35-.74 4.66-.6 7.02 1.56 2.06 3.81 3.62 4.84 6.06 1.31 2.8.9 6.04 1.96 8.89 1.39 1.71 3.49 2.61 5.14 4.03.71 1.55-.34 3.51-2.06 3.69-2.64-.46-4.9-2.16-6.66-4.11-2.42-2.86-1.76-6.86-2.86-10.21-1.01-2.39-3.69-3.55-4.75-5.91-1.13-3.29-.8-7.05.65-10.19zm12.74-.26c1.47-.93 3.86.08 3.6 1.98-.58 4.4 3.35 7.42 3.91 11.62.22 2.68 4.47 3.39 3.32 6.34-1.37 2.2-4.07 1.16-5.58-.3-2.93-2.37-2.41-6.66-4.6-9.54-2.1-2.81-3.3-7.26-.65-10.1zM0 57.51c1.01-1.69 2.17-3.45 4.07-4.22 1.38.23 3.18 1.46 2.42 3.07C5.05 59.32 4.18 63.8 0 63.57v-6.06zm177.23-3.26c3.46-2.2 6.07 2.72 6.57 5.61 1.34 2.34-1.93 5.23-3.9 3.25-1.16-2.36-2.24-4.77-3.46-7.1.2-.44.59-1.32.79-1.76z"/></g><path d="M44.06 28.91c4.96 5.07 9.93 10.58 12.7 17.18-1.47 6.44-6.8 11.15-10.15 16.68-2.64-4.37-2.36-9.66-2.94-14.56-.43-6.43-.76-12.93.39-19.3zm84.34 13.46c3.06-4.91 6.81-9.37 10.95-13.4 1.23 7.46.54 15.02.49 22.54-.14 2.64-.2 5.32-.81 7.91-.84.92-1.67 1.85-2.45 2.83-3.41-4.29-6.7-8.76-9.25-13.61-1.36-2.1-.02-4.41 1.07-6.27zM81.95 96.85c.13-1.61 1.76-2.12 3.09-2.4 3.35-.57 7.44-.63 9.69 2.4-3.99 1.77-8.93 2.52-12.78 0zm-12.38-.44c1.98-.54 3.94-1.13 5.89-1.78 1.37 2.23 2.6 4.6 4.47 6.48 2.03 1.95 4.8 2.79 7.33 3.9-.78 2.93-1.95 6.37-5.33 7.1-5.06 1.87-9.3-2.46-14.1-3.23l-.89-.34c-.43-1.43-.92-2.83-1.34-4.25-1.55-.39-3.11-.77-4.66-1.15 1.53-.01 3.07-.05 4.6-.15.21-.44.62-1.33.83-1.77a90 90 0 0 0 1.13-2.69c.69-.11 1.37-.29 2.06-.4.01-.43.01-1.29.01-1.72zm30.82-1.17l.43-1.01c2.58.76 5.44 1.2 7.52 3.07.74.69 1.47 1.4 2.17 2.13.8.89 1.53 1.86 1.98 2.98.1.93.14 1.86.16 2.8-.29 1.56-1.08 2.98-1.65 4.46-.59-.12-1.76-.37-2.35-.49-4.09 1.26-8.04 4.76-12.56 2.88-3.34-.79-4.4-4.25-5.27-7.13 4.48-1.68 8.26-4.97 9.57-9.69zm-23.41 47.71c5.46-5.22 13.68-6.28 20.91-5.43 8.93 1.07 16.05 8 19.77 15.85 4.42 9.56 4.69 20.4 4.1 30.74-.29 7.4-3.03 14.35-5 21.4-3.53 8.27-10.06 14.82-13.88 22.96-3.61-.05-7.22-.27-10.81-.7-5.06-10.54-12.4-19.95-16.03-31.15-4.28-10.96-7.38-22.69-6.37-34.55.59-6.84 2.6-13.94 7.31-19.12zm87.96 72.88c5.7-2.37 12.01-3.04 18.12-2.38-3.64 3.43-5.75 8.57-4.22 13.51.83 4.5 4.99 6.94 8.55 9.15-8.1.29-16.87.82-24.19-3.28-4.01-2.14-6.15-7.11-4.72-11.47 1.15-2.74 3.85-4.39 6.46-5.53zm-92.51 3.6c2.71-1.15 4.65-3.47 6.66-5.53 3.19 5.98 8.72 11.37 8.65 18.55-6.96 1.87-14.42.03-20.32-3.92-3.63-2.46-6.93-5.39-10.05-8.47 4.95.9 10.31 1.46 15.06-.63zm33.73 14.86c1.21-7.64 6.56-13.58 10.78-19.76 1.07 2.54 2.29 5.4 5 6.56 4.65 2.13 9.89 1.31 14.84 1.36-7.92 7.84-18.95 15.35-30.62 11.84z" fill="#aab7c5"/><path d="M68.34 56.2c4.06.98 6.26 5.18 7.78 8.72.44 1.63 1.73 4.46-1.02 4.48-2.03-2.62-2.55-6.16-4.99-8.5-.98-1.48-3.75-2.87-1.77-4.7zm38.97.16c1.25-.36 2.71 1.33 1.31 2.22-3.09 3-4.98 6.81-6.64 10.71-.5-.09-1.48-.26-1.98-.34.04-5.05 3.1-9.94 7.31-12.59zM63 59.02c2.73-.3 4.43 2.19 5.79 4.15.95 1.7 2.45 3.81 1 5.67-2.11-.15-2.57-2.6-3.78-3.94-1.05-1.94-3.41-3.43-3.01-5.88zm45.45 3.41c1.32-1.62 2.96-4.02 5.38-3.25-.42 3.78-4.39 6.12-5.53 9.79-3.67-.87-1.15-4.58.15-6.54zm-63.15 31c7.94-2.62 16.88-.45 24.27 2.98 0 .43 0 1.29-.01 1.72-.69.11-1.37.29-2.06.4-5.85-2.26-12.13-3.71-18.44-3.01-1.56.17-4.63.38-3.76-2.09zm63.04 3.87c7.57-3.69 16.32-5.51 24.68-4.12 1.5.04 1.64 1.71 2.27 2.71-8.41-.53-17.01.01-24.78 3.54-.7-.73-1.43-1.44-2.17-2.13zm-64.25 5.83c6.56-4.23 14.99-3.64 22.28-1.91-.21.44-.62 1.33-.83 1.77-1.53.1-3.07.14-4.6.15-3.41-.03-6.91-.51-10.23.52-2.13.53-4.23 1.54-6.48 1.33-.03-.46-.1-1.39-.14-1.86zm68.4-.72c7.84-1.47 16.54-1.96 23.58 2.47-.29.54-.87 1.62-1.15 2.16-7.05-3.15-14.81-3.02-22.27-1.83-.02-.94-.06-1.87-.16-2.8z" fill="#c6d0da"/><path opacity=".3" d="M26.41 227.5c7.57-3.5 15.96-4.48 24.09-5.95 7.2 8.29 16.29 16.11 27.53 17.7 5.62.57 12.64.32 15.97-5.02 1.89.1 3.79.2 5.68.32 1.1 2.03 1.88 4.67 4.36 5.41 8.12 3.05 17.38 1.17 24.62-3.28 3.03-2.2 6.87-1.67 10.39-1.73 5.36.05 10.72-.34 16.07-.71 3.71 3.09 7.72 6.17 12.64 6.9 13.01 2.35 26.36.04 38.98-3.35 10.26-2.74 19.65-8.34 27.26-15.71 7.45 1.82 15.34 2.77 22 6.87v4.16c-8.52 4.6-18.24 5.86-27.66 7.35-23.97 3.32-48.19 4.39-72.36 4.89-24.35.34-48.72-.03-73.01-1.71-15.87-1.2-31.81-2.56-47.35-6.13-4.15-1.18-8.78-2.03-11.98-5.15-1.66-2.09 1.05-4.07 2.77-4.86z"/></svg>