<svg width="256pt" height="256pt" viewBox="0 0 256 256" xmlns="http://www.w3.org/2000/svg"><path d="M164.83 45.84c6.07-2.27 13.08-4.66 19.42-2.07 4 1.71 4.27 6.86 2.84 10.42-3.42 9.04-10.65 15.97-17.97 21.98-6.55 5.03-13.66 9.61-21.48 12.38-1.68-3.42-2.35-7.37-4.95-10.28-2.84-3.58-6.99-5.94-11.41-6.99 8.49-11.4 20.59-19.83 33.55-25.44zm-100.4-.45c6.77-2.91 14.25.03 20.71 2.44 12.87 5.69 24.69 14.35 33.08 25.73-6.46 3.33-9.79 10.62-10.12 17.63-5.44-2.84-11.19-5.25-17.35-5.84-10.89-7.04-21.84-15.25-27.9-27.03-2.13-4-3.28-10.44 1.58-12.93z" fill="#d94d34"/><path fill="#c33a22" d="M118.22 73.56c3.93-2.31 8.61-2.79 13.06-2.28 4.42 1.05 8.57 3.41 11.41 6.99 2.6 2.91 3.27 6.86 4.95 10.28-.69.81-.91 1.8-.63 2.97-.12 11.05-11.08 20.37-22.03 18.5-9.31-1.1-16.42-9.65-16.88-18.83.33-7.01 3.66-14.3 10.12-17.63z"/><path fill="#e5c145" d="M50.53 105.58c8.25-13.5 24.29-22.31 40.22-20.23 6.16.59 11.91 3 17.35 5.84.46 9.18 7.57 17.73 16.88 18.83 10.95 1.87 21.91-7.45 22.03-18.5 8.83-5.48 19.71-7.81 29.95-5.66 11.93 2.35 22.33 10.36 28.47 20.75 5.27 9.1 10.45 18.25 15.67 27.37.65.97 1 2.33 2.22 2.77 8.92 4.84 17.77 9.82 26.72 14.63-35.34 20.81-70.84 41.35-106.28 61.99.11-10.74.64-21.5.53-32.23-5.57-9.69-11.15-19.38-16.65-29.11-5.1 9.08-10.32 18.1-15.49 27.14-.63 1.17-1.61 2.35-1.26 3.79.28 9.86.36 19.72.71 29.58l-.47.65C76.07 192.67 40.92 172.31 5.86 151.8l-.53-.5c8.93-4.68 17.68-9.71 26.56-14.48 1.23-.44 1.64-1.76 2.27-2.75 5.46-9.5 10.8-19.06 16.37-28.49z"/><path d="M37.63 186.48c-.94-3.51-1.08-7.86 1.28-10.81 11.68 6.88 23.43 13.66 35.13 20.51-2.09 4.06-6.6 6.3-10.99 6.84-10.84 1.1-22.21-6.02-25.42-16.54zm143.72 9.68c11.79-6.88 23.52-13.87 35.41-20.56 2.22 4.39 1.94 9.74-.32 14.06-4.62 9.1-15.42 14.93-25.55 13.12-3.84-.76-7.97-2.97-9.54-6.62z" fill="#b99829"/></svg>