<svg height="512" viewBox="0 0 512 512" width="512" xmlns="http://www.w3.org/2000/svg"><path d="M512.351 256.15c0 141.388-114.623 256.002-256.004 256.002C114.965 512.152.351 397.538.351 256.15.351 114.767 114.964.152 256.347.152 397.728.153 512.351 114.767 512.351 256.15z" fill="#f57f17"/><path d="M472.857 256.155c0 119.572-96.939 216.504-216.507 216.504-119.572 0-216.502-96.932-216.502-216.504 0-119.573 96.93-216.504 216.502-216.504 119.568 0 216.507 96.932 216.507 216.504z" fill="#eee"/><path d="M432.778 381.99c25.404-35.511 40.418-78.941 40.418-125.835 0-119.568-97.278-216.843-216.841-216.843-119.567 0-216.841 97.274-216.841 216.843 0 88.741 53.606 165.162 130.119 198.686 26.578 11.644 55.896 18.152 86.722 18.152 72.548 0 136.842-35.85 176.229-90.724l.231-.242-.037-.037zm-261.84-1.875l-31.973 51.438c-2.275-1.527-4.489-3.114-6.695-4.726l32.052-51.564a153.924 153.924 0 0 0 6.616 4.852zm4.764 3.143a150.432 150.432 0 0 0 12.827 7.308l-41.448 46.188c-1.124-.683-2.209-1.421-3.314-2.122l31.935-51.374zm58.657 21.889v60.998c-20.232-2.107-39.61-7.112-57.748-14.54l18.027-58.115c12.442 5.613 25.766 9.606 39.721 11.657zm5.706.725c4.86.524 9.786.808 14.768.858l-10.654 60.186c-1.379-.079-2.744-.209-4.113-.315v-60.729zm88.884-17.809l17.79 58.863a209.411 209.411 0 0 1-69.428 19.322l-15.654-59.615c24.326-.845 47.204-7.47 67.292-18.57zm8.301 7.749l33.412 37.721a213.031 213.031 0 0 1-18.746 10.803l-14.666-48.524zm-80.895 5.254c-79.906 0-144.92-65.009-144.92-144.911 0-79.907 65.014-144.917 144.92-144.917 79.896 0 144.896 65.009 144.896 144.917.001 79.903-64.999 144.911-144.896 144.911zM45.22 256.155c0-5.023.237-9.991.589-14.926l22.725 10.037-23.18 10.236c-.046-1.781-.134-3.555-.134-5.347zm52.237-86.527l20.25 27.692a149.399 149.399 0 0 0-10.348 36.797l-31.764 14.03-29.331-12.953a209.431 209.431 0 0 1 19.146-69.03l32.047 3.464zm-29.345-8.909a212.308 212.308 0 0 1 10.009-17.539l14.781 20.213-24.79-2.674zm52.302 30.631l-15.283-20.896 25.58 2.767a149.987 149.987 0 0 0-10.297 18.129zm-13.57 82.791H46.042c-.186-2.159-.381-4.309-.497-6.486l30.051-13.268 30.641 13.533c.161 2.084.361 4.159.607 6.221zm-.974-12.62l-23.217-10.255 23.867-10.543a151.348 151.348 0 0 0-.785 15.432c0 1.801.074 3.584.135 5.366zm1.74 18.32a149.386 149.386 0 0 0 5.172 21.834l-52.878 31.694a209.352 209.352 0 0 1-13.324-53.528h61.03zm7.048 27.363c.938 2.604 1.94 5.177 3.018 7.711l-52.228 31.31a208.477 208.477 0 0 1-3.394-7.488l52.604-31.533zm5.385 12.943a153.07 153.07 0 0 0 3.682 7.321l-51.908 31.119a220.603 220.603 0 0 1-3.825-7.233l52.051-31.207zm6.509 12.28a150.547 150.547 0 0 0 8.078 12.289l-57.966 22.136a195.627 195.627 0 0 1-1.996-3.319l51.884-31.106zm1.146 21.04l-35.046 35.85c-4.578-5.617-8.849-11.485-12.841-17.558l47.887-18.292zm33.561-285.733a193.412 193.412 0 0 1 5.998-2.934l30.399 52.651a147.11 147.11 0 0 0-5.557 2.516l-27.358-20-3.482-32.233zm-2.749 27.679l-19.814-14.485a210.529 210.529 0 0 1 17.122-10.404l2.692 24.889zm126.976 12.98V47.07c26.806 3.718 52.001 12.483 74.628 25.306l-29.98 52.549a149.46 149.46 0 0 0-44.648-16.532zm-5.705-1.021a148.24 148.24 0 0 0-8.171-1.063V45.626c2.739.195 5.464.417 8.171.719v61.027zm-13.876-1.5c-1.463-.093-2.93-.153-4.396-.204l-13.445-30.404 13.254-30.125c1.527.037 3.068.046 4.587.116v60.617zm-10.682-.306c-7.201.056-14.29.604-21.216 1.639l10.947-24.875 10.269 23.236zm-10.284-37.368l-9.782-22.122a213.235 213.235 0 0 1 19.972-1.031l-10.19 23.153zm-3.115 7.071l-14.568 33.115a149.852 149.852 0 0 0-24.243 6.94l-30.538-52.887c17.79-7.735 36.852-13.06 56.768-15.622l12.581 28.454zm-55.454 47.576a151.557 151.557 0 0 0-17.953 11.142l-2.851-26.346 20.804 15.204zm205.676 198.626l52.794 29.638c-.599 1.188-1.198 2.382-1.82 3.557l-58.021-20.27a153.739 153.739 0 0 0 7.047-12.925zm2.367-5.214a149.474 149.474 0 0 0 11.43-42.075h60.826c-2.173 25.483-8.858 49.689-19.294 71.807l-52.962-29.732zm11.996-47.776c.223-2.707.367-5.433.446-8.176h60.528c-.056 2.734-.13 5.464-.283 8.176h-60.691zm.511-13.877a144.83 144.83 0 0 0-.325-8.314h60.641c.13 2.757.194 5.529.213 8.314H406.92zm-.766-14.015c-1.751-16.996-6.37-33.152-13.319-48.008l51.54-32.293a209.57 209.57 0 0 1 22.479 80.302h-60.7zM390.3 187.437a154.748 154.748 0 0 0-3.937-7.168l51.304-32.145a206.637 206.637 0 0 1 4.076 7.08L390.3 187.437zm49.929 172.297a212.68 212.68 0 0 1-11.602 18.259l-36.304-34.995 47.906 16.736zm-5.58-216.457l-51.267 32.122c-12.303-19.28-28.839-35.599-48.328-47.6l29.999-52.577c28.144 16.973 51.988 40.344 69.596 68.055zM133.785 84.4l25.552 18.682 3.779 34.917a151.68 151.68 0 0 0-28.69 29.884l-33.848-3.658-19.146-26.185c14.117-20.845 31.898-38.997 52.353-53.64zM96.357 393.686l42.488-43.464a152.055 152.055 0 0 0 20.994 21.453l-32.145 51.718a212.607 212.607 0 0 1-31.337-29.707zm55.775 45.974l33.946-37.823-14.745 47.517a210.743 210.743 0 0 1-19.201-9.694zm97.803 27.47l8.742-49.373 12.851 48.932c-5.019.357-10.065.604-15.172.604-2.155-.001-4.281-.099-6.421-.163zm125.537-36.769l-40.547-45.775a151.802 151.802 0 0 0 46.322-44.346l44.024 42.438a212.878 212.878 0 0 1-49.799 47.683z"/><path d="M377.403 172.255l-16.021 5.706-17.121 2.878-99.771 73.032-64.313 29.22-.297.14-10.608 13.756-12.59 11.42 1.166 2.247 16.597-3.723 17.354-.785 62.033-36.62.083-.051c.056-.037.103-.084.158-.121l104.525-67.056.265-.167 8.857-14.926 11.114-12.86-1.431-2.09z" fill="#424242"/><path d="M273.008 256.155c0 9.196-7.456 16.652-16.652 16.652-9.202 0-16.657-7.456-16.657-16.652 0-9.202 7.456-16.658 16.657-16.658 9.196.001 16.652 7.457 16.652 16.658z" fill="#212121"/></svg>