<svg width="256pt" height="256pt" viewBox="0 0 256 256" xmlns="http://www.w3.org/2000/svg"><path fill="#878483" opacity=".97" d="M180.48 0h6.87c-3.42 3.07-7.67 5.69-8.99 10.36-3.05 4.24 1.08 5.77 3.88 6-1.68.86-3.45 1.96-5.38 1.17.27-.31.82-.94 1.09-1.26-2.55-.72-5.24-1.2-7.51-2.62-1.35-2.4-1.44-6.32-4.58-7.03 3.64-4.58 9.57-4.69 14.62-6.62z"/><path fill="#7a7468" d="M187.35 0h4.24c2.93 1.05 5.89 2.06 8.6 3.61-3.22-.32-1.21 2.09-.55 3.71 2.03 3.49.43 7.92 2.37 11.46-.45.09-1.36.28-1.81.37-1.82-3.21-5.64-4.56-8.98-2.84l.21-.85c1.68-2.48 1.83-5.3-.28-7.56-.21-4.17-6.31-1.9-8.39-.15-3.21 1.69-1.81 6.14.29 8.29l-.81.32c-2.8-.23-6.93-1.76-3.88-6 1.32-4.67 5.57-7.29 8.99-10.36z"/><path fill="#85827f" opacity=".98" d="M199.64 7.32c-.66-1.62-2.67-4.03.55-3.71 4.6 2.51 9.98 6.09 9.97 11.91-2.64 2.41-3.48 6.09-4.35 9.43a68.25 68.25 0 0 0-4.43-2.06l-.44-.6c.41-1.11 1.93-2.29 1.07-3.51-1.94-3.54-.34-7.97-2.37-11.46z"/><path fill="#5b4e26" d="M182.76 7.75c2.08-1.75 8.18-4.02 8.39.15-2.47.04-6.07-.71-4.36 2.81-2.39-.19-3.72 1.41-1.59 3.09 1.35 2.36 3.89 2.31 6.23 1.66l-.21.85c-1.77.59-3.62.8-5.45 1.06-.91-.43-1.82-.88-2.72-1.33-2.1-2.15-3.5-6.6-.29-8.29z"/><path fill="#27312e" opacity=".96" d="M146.71 12.71c4.7-5.44 12.63-5.21 19.15-6.09 3.14.71 3.23 4.63 4.58 7.03 2.27 1.42 4.96 1.9 7.51 2.62-.27.32-.82.95-1.09 1.26-1.28-.22-2.57-.43-3.85-.63-3.23-1.15-6.46-2.31-9.75-3.26-5.81-2-13.2-2.29-17.82 2.36-.5-1.41-.07-2.51 1.27-3.29z"/><path fill="#0b0902" d="M186.79 10.71c-1.71-3.52 1.89-2.77 4.36-2.81 2.11 2.26 1.96 5.08.28 7.56-2.34.65-4.88.7-6.23-1.66-2.13-1.68-.8-3.28 1.59-3.09z"/><path fill="#272413" opacity=".58" d="M145.44 16c4.62-4.65 12.01-4.36 17.82-2.36-6.12-.35-12 1.23-17.75 3.09l-.07-.73z"/><path fill="#e7b31d" opacity=".97" d="M145.51 16.73c5.75-1.86 11.63-3.44 17.75-3.09 3.29.95 6.52 2.11 9.75 3.26.04.47.13 1.41.18 1.88-3.49.12-6.96.24-10.45.33-5.57-2.17-11.79-.57-17.59-1.07.09-.32.27-.98.36-1.31z"/><path fill="#2e2c24" d="M191.22 16.31c3.34-1.72 7.16-.37 8.98 2.84-.31.54-.93 1.64-1.24 2.19-1.28-.51-2.55-1.06-3.88-1.4-3.13-.85-6.49-.83-9.31-2.57 1.83-.26 3.68-.47 5.45-1.06z"/><path fill="#e1d5cc" d="M182.24 16.36l.81-.32c.9.45 1.81.9 2.72 1.33 2.82 1.74 6.18 1.72 9.31 2.57-1.7 3.61-2.48 9.5-7.05 10.12-6.25-.14-10.13-5.71-13.78-10.11-.26-.29-.8-.88-1.06-1.17-.05-.47-.14-1.41-.18-1.88 1.28.2 2.57.41 3.85.63 1.93.79 3.7-.31 5.38-1.17z"/><path fill="#a2a0a2" opacity=".98" d="M205.81 24.95c.87-3.34 1.71-7.02 4.35-9.43 2.84 3.5 4.56 7.73 6.43 11.8-.96 5.38 3.54 10.07 1.13 15.5-.36.08-1.08.26-1.44.35 2.29-4.25-3.26-4.59-6.12-5.45-3.09-.6-1.69-3.83-1.78-6.06.41-2.56-1.64-4.51-2.57-6.71z"/><path fill="#dbb25b" opacity=".97" d="M162.74 19.11c3.49-.09 6.96-.21 10.45-.33.26.29.8.88 1.06 1.17-1.61 1.94-3.64 3.62-4.56 6.04-2.25-2.32-5.75-3.73-6.95-6.88z"/><path fill="#5b574f" d="M200.2 19.15c.45-.09 1.36-.28 1.81-.37.86 1.22-.66 2.4-1.07 3.51-.49-.24-1.49-.72-1.98-.95.31-.55.93-1.65 1.24-2.19z"/><path fill="#e6c171" d="M174.25 19.95c3.65 4.4 7.53 9.97 13.78 10.11.2.4.62 1.19.83 1.59-2.12 2.93 1.96 10.99-2.83 11.52-1.24.18-2.47.53-3.73.51-2.64-2.72-7.17-4.09-8.5-7.84-.13-.53-.38-1.58-.51-2.11-.67-2.79-1.44-5.69-3.6-7.74.92-2.42 2.95-4.1 4.56-6.04z"/><path fill="#dacbb6" d="M195.08 19.94c1.33.34 2.6.89 3.88 1.4.49.23 1.49.71 1.98.95l.44.6c-1.09 4.76-3.97 9.07-7.4 12.46-1.62-1.35-3.36-2.55-5.12-3.7-.21-.4-.63-1.19-.83-1.59 4.57-.62 5.35-6.51 7.05-10.12z"/><path fill="#d6c3a3" d="M201.38 22.89c1.49.63 2.98 1.32 4.43 2.06.93 2.2 2.98 4.15 2.57 6.71.09 2.23-1.31 5.46 1.78 6.06-3.82-.7-4.92 2.54-6.34 5.3-2.39-1.16-3.71-3.64-6.01-4.92-1.3-.88-2.64-1.72-3.83-2.75 3.43-3.39 6.31-7.7 7.4-12.46z"/><path fill="#eacc88" d="M186.03 43.17c4.79-.53.71-8.59 2.83-11.52 1.76 1.15 3.5 2.35 5.12 3.7 1.19 1.03 2.53 1.87 3.83 2.75 1.57 3.85 3.63 7.61 6.4 10.72 3.85 1.11 7.81 1.92 11.8 2.34.05.52.14 1.55.19 2.07-1.34 13.55-6.05 27.06-15.9 36.91-2.09 1.28-3.95 2.89-6.02 4.2-2.46-8.16-.62-16.83-1.43-25.18-.49-.11-1.48-.31-1.97-.41 2.91-1.35 4.01-4.88 1.92-7.45-2.72 1.16-3.77-1.15-4.76-3.26-.44-4.95 1.22-10.57-2.01-14.87z"/><path fill="#8c918b" d="M156.31 41.37c6.05-1.6 11.9-3.92 16.98-7.64.13.53.38 1.58.51 2.11-1.04 1.21-3.85 2.6-2.01 4.35 2.02 1.93.42 4.47-.19 6.65-2.98 3.55-5.08 8.32-5.55 12.88.75.15 2.26.45 3.02.59-.14 2.25-4.14 3.75-2.27 5.88 2.64 2.57-.99 5.28-2.94 6.89 1.34 1.12 2.79 2.1 4.22 3.11-1.39 1.56-2.83 3.09-4.2 4.66-2.92 2.42-5.86 4.81-8.77 7.23-2.25.69-4.57.74-6.89.51-3.05 3.06-6.75 5.18-11.3 5.01-2.86.04-5.73.05-8.59.07-1.98-1.61-3.62-3.88-6.26-4.45-4.91.15-8.8-4.95-9.46-9.42 1.15-3.35 3.53-6.19 6.95-7.34 10.47-12.06 21.04-25.72 36.75-31.09z"/><path fill="#ddd5c6" d="M171.79 40.19c-1.84-1.75.97-3.14 2.01-4.35 1.33 3.75 5.86 5.12 8.5 7.84 1.26.02 2.49-.33 3.73-.51 3.23 4.3 1.57 9.92 2.01 14.87-4.61-1.8-8.54-4.97-12.98-7.12-2-.5-2.83-2.39-3.46-4.08.61-2.18 2.21-4.72.19-6.65z"/><path fill="#dbc59a" d="M197.81 38.1c2.3 1.28 3.62 3.76 6.01 4.92 1.42-2.76 2.52-6 6.34-5.3 2.86.86 8.41 1.2 6.12 5.45-.22 2.66-.31 5.32-.27 7.99-3.99-.42-7.95-1.23-11.8-2.34-2.77-3.11-4.83-6.87-6.4-10.72z"/><path fill="#796d51" opacity=".68" d="M216.28 43.17c.36-.09 1.08-.27 1.44-.35-.71 3.44-1.01 6.94-1.52 10.41-.05-.52-.14-1.55-.19-2.07-.04-2.67.05-5.33.27-7.99z"/><path fill="#d6cfb6" d="M166.05 59.72c.47-4.56 2.57-9.33 5.55-12.88.63 1.69 1.46 3.58 3.46 4.08 4.44 2.15 8.37 5.32 12.98 7.12.99 2.11 2.04 4.42 4.76 3.26 2.09 2.57.99 6.1-1.92 7.45-2.16 1.33-4.13 2.99-6.41 4.12-.29-1.29-.93-1.61-1.91-.95-2.79.08-3.73-5.17-6.32-3.17-1.79 2.02-3.57 4.04-5.39 6.04-.94.45-1.86.92-2.77 1.4-1.43-1.01-2.88-1.99-4.22-3.11 1.95-1.61 5.58-4.32 2.94-6.89-1.87-2.13 2.13-3.63 2.27-5.88-.76-.14-2.27-.44-3.02-.59z"/><path fill="#e7c273" d="M176.24 68.75c2.59-2 3.53 3.25 6.32 3.17 5.06 6.35 1.18 15.67 2.43 23.09-.61 2.11 1.54 2.72 3.06 3.33-3.19 1.67-6.63 2.79-9.79 4.53-.81-2.39-2.09-4.55-4.37-5.79 2.67-.33 7.58 1.16 4.14-5.09-.37-7.73 1.32-15.88-1.79-23.24z"/><path fill="#e6bf6a" d="M176.24 68.75c3.11 7.36 1.42 15.51 1.79 23.24 3.44 6.25-1.47 4.76-4.14 5.09-2.01-.05-4.03-.07-6.04-.1 1.01-.74 2.03-1.45 2.97-2.27.3-6.64.31-13.29.03-19.92 1.82-2 3.6-4.02 5.39-6.04z"/><path fill="#e9c87e" d="M184.47 72.87c2.28-1.13 4.25-2.79 6.41-4.12.49.1 1.48.3 1.97.41.81 8.35-1.03 17.02 1.43 25.18-1.11.86-2.26 1.67-3.39 2.5-.95.49-1.9.99-2.84 1.5-1.52-.61-3.67-1.22-3.06-3.33-1.25-7.42 2.63-16.74-2.43-23.09.98-.66 1.62-.34 1.91.95z"/><path fill="#e3b95f" d="M168.08 76.19c.91-.48 1.83-.95 2.77-1.4.28 6.63.27 13.28-.03 19.92-.94.82-1.96 1.53-2.97 2.27-1.39-.02-2.85.04-4.08-.72.14-5.13.29-10.27.11-15.41 1.37-1.57 2.81-3.1 4.2-4.66z"/><path fill="#81786d" d="M102.7 103.74c3.65-7.89 6.29-16.05 9.91-23.94.66 4.47 4.55 9.57 9.46 9.42.2 2.28-.82 3.88-3.06 4.83-4.69 4.29-11.21 6.14-15.38 11.02-.24-.33-.7-.99-.93-1.33z"/><path fill="#e0b351" d="M155.11 88.08c2.91-2.42 5.85-4.81 8.77-7.23.18 5.14.03 10.28-.11 15.41-2.79-1.45-5.75-2.53-8.94-2.59.37-1.6.77-3.23.2-4.84l.08-.75z"/><path fill="#6d5c3e" d="M148.22 88.59c2.32.23 4.64.18 6.89-.51l-.08.75c-5.91 5.81-12.76 10.49-19.21 15.65-5.5 3.89-10.75 8.12-16.09 12.21-4.63 2.69-8.56 6.63-13.65 8.5.49-1.55 4.77-4.83 1.01-4.17.21-.25.63-.76.84-1.01 2.57-.59 4.86-1.94 6.85-3.63 5.61-4.38 11-9.02 16.42-13.61 1.1-1.18 7.35-5.03 2.82-4.9.84-1.53 4.97-2.44 2.9-4.27 4.55.17 8.25-1.95 11.3-5.01z"/><path fill="#5f5341" d="M122.07 89.22c2.64.57 4.28 2.84 6.26 4.45 2.86-.02 5.73-.03 8.59-.07 2.07 1.83-2.06 2.74-2.9 4.27-1.6 1.4-3.3 2.69-4.85 4.16-1.56 1.49-3.3 2.76-5.02 4.04-3.23.77-5.1 3.58-7.24 5.86-3.66 1.81-6.49 4.9-8.98 8.08-.21.25-.63.76-.84 1.01-3.66 4.23-7.94 7.85-11.85 11.83-4.69 4.8-10.14 8.84-14.24 14.27 1.24-6.96 6.43-12.27 9.94-18.13 2.37-4.33 4.34-8.86 6.85-13.1 3.24-2.33 9.3-6.29 5.84-10.82 4.17-4.88 10.69-6.73 15.38-11.02 2.24-.95 3.26-2.55 3.06-4.83z"/><path fill="#deab3b" d="M135.82 104.48c6.45-5.16 13.3-9.84 19.21-15.65.57 1.61.17 3.24-.2 4.84-.64 1.35-1.97 2.62-1.68 4.23 2 3.98 1.61 8.51 2.12 12.83.44.1 1.33.31 1.78.41-1.49 1.28-3.12 2-4.15-.19-2.19 1.41-3.32 4.1-5.9 5.04-2.78.9-3.57 3.72-4.92 5.99l-.46.8c-1.26 1.73-2.36 3.8-4.53 4.52.46-3.84 2.9-7.21 1.18-11.31-1.27-3.59 1.61-9.17-2.45-11.51z"/><path fill="#332815" opacity=".84" d="M194.28 94.34c2.07-1.31 3.93-2.92 6.02-4.2-3.19 5.69-8.69 9.76-14.14 13.11 1.55-2.15 3.13-4.29 4.73-6.41 1.13-.83 2.28-1.64 3.39-2.5z"/><path fill="#b2b4a2" d="M153.15 97.9c-.29-1.61 1.04-2.88 1.68-4.23 3.19.06 6.15 1.14 8.94 2.59 1.23.76 2.69.7 4.08.72 2.01.03 4.03.05 6.04.1 2.28 1.24 3.56 3.4 4.37 5.79.63 1.43 1.4 2.8 2.05 4.22-.37 1.32-.75 2.64-1.34 3.88-3.27-1.82-5 1.91-7.2 3.64l-.81.08-1.08-2.61c2.57-2.2 5.67-4.28 6.31-7.89-2.07-4.53-8.41-3.68-11.01-.03.32 2.18 3.14 2.92 5.05 3.24-.2 2.59-3.3 1.2-5.01 1.49-.68-2.51-3.4-3.38-5.05-5.13-.08-1.7 1.18-3.12 1.7-4.68-2.98.12-5.94-.12-8.72-1.18z"/><path fill="#706031" opacity=".97" d="M188.05 98.34c.94-.51 1.89-1.01 2.84-1.5-1.6 2.12-3.18 4.26-4.73 6.41-1.95 1.28-3.91 2.55-5.85 3.84-.65-1.42-1.42-2.79-2.05-4.22 3.16-1.74 6.6-2.86 9.79-4.53z"/><path fill="#8e7b5c" d="M134.02 97.87c4.53-.13-1.72 3.72-2.82 4.9-.51-.19-1.52-.56-2.03-.74 1.55-1.47 3.25-2.76 4.85-4.16z"/><path fill="#dfb24e" d="M153.15 97.9c2.78 1.06 5.74 1.3 8.72 1.18-.52 1.56-1.78 2.98-1.7 4.68 1.65 1.75 4.37 2.62 5.05 5.13l-2.53.88c-2.06-.89-5.02-1.5-5.64 1.37-.45-.1-1.34-.31-1.78-.41-.51-4.32-.12-8.85-2.12-12.83z"/><path fill="#dcb767" d="M165.18 104.16c2.6-3.65 8.94-4.5 11.01.03-2.72.44-5.85-.64-5.96 3.21-1.91-.32-4.73-1.06-5.05-3.24z"/><path fill="#9f8b6c" d="M129.17 102.03c.51.18 1.52.55 2.03.74-5.42 4.59-10.81 9.23-16.42 13.61-.62-1.81 1.39-3.01 2.13-4.45 3.18-.85 5.08-3.6 7.24-5.86 1.72-1.28 3.46-2.55 5.02-4.04z"/><path fill="#433b2d" opacity=".93" d="M97.79 115.89c1.55-4.08 3.19-8.13 4.91-12.15.23.34.69 1 .93 1.33 3.46 4.53-2.6 8.49-5.84 10.82z"/><path fill="#3e3422" d="M170.23 107.4c.11-3.85 3.24-2.77 5.96-3.21-.64 3.61-3.74 5.69-6.31 7.89l1.08 2.61c-3.76 1.3-6.22-2.37-8.27-4.92l2.53-.88c1.71-.29 4.81 1.1 5.01-1.49z"/><path fill="#e2b043" d="M119.73 116.69c5.34-4.09 10.59-8.32 16.09-12.21 4.06 2.34 1.18 7.92 2.45 11.51 1.72 4.1-.72 7.47-1.18 11.31-2.18 2.26-4.39 4.48-6.56 6.75-1.99 1.89-3.89 3.88-5.45 6.15-2.3 1.08-4.65 2.04-7.01 2.96 1.1-1.92 2.8-3.36 4.5-4.74.68-7.36.58-14.78.4-22.16-1.08.13-2.16.28-3.24.43z"/><path fill="#836e4d" d="M116.91 111.93c2.14-2.28 4.01-5.09 7.24-5.86-2.16 2.26-4.06 5.01-7.24 5.86z"/><path fill="#a2a699" opacity=".94" d="M157.05 111.14c.62-2.87 3.58-2.26 5.64-1.37 2.05 2.55 4.51 6.22 8.27 4.92l.81-.08c1.74.2 3.48.3 5.23.36 4.56 1.63 9.79 3.37 12.01 8.12.48 3.5-.62 6.79-2.28 9.77-3.8.58-1.7-3.12-.89-4.97 3.15-6.56-8.24-10.73-10.88-4.92-.82 2-1.12 4.18-2.06 6.14-3.73-1.46-.57-5.89-1.06-8.88-1.18-.95-2.48-1.73-3.77-2.52-1.53-.94-3.12-1.78-4.68-2.68-1.08-.77-2.15-1.52-3.26-2.23-.98-.64-2.03-1.16-3.08-1.66z"/><path fill="#1c1c1a" opacity=".49" d="M171.77 114.61c2.2-1.73 3.93-5.46 7.2-3.64-.61 1.36-1.28 2.68-1.97 4-1.75-.06-3.49-.16-5.23-.36z"/><path fill="#a4752b" d="M147 115.99c2.58-.94 3.71-3.63 5.9-5.04 1.03 2.19 2.66 1.47 4.15.19 1.05.5 2.1 1.02 3.08 1.66-1.93 2.38-4.49 4.12-6.57 6.36-1.5 1.29-2.96 2.72-4.81 3.51-2.23-.17-4.43-.64-6.67-.69 1.35-2.27 2.14-5.09 4.92-5.99z"/><path fill="#836f4e" d="M107.93 120.01c2.49-3.18 5.32-6.27 8.98-8.08-.74 1.44-2.75 2.64-2.13 4.45-1.99 1.69-4.28 3.04-6.85 3.63z"/><path fill="#403017" d="M153.56 119.16c2.08-2.24 4.64-3.98 6.57-6.36 1.11.71 2.18 1.46 3.26 2.23-3.15 1.36-6.24 4.77-9.83 4.13z"/><path fill="#73622e" opacity=".96" d="M163.39 115.03c1.56.9 3.15 1.74 4.68 2.68-13.54 8.88-27.94 16.51-42.99 22.49 1.56-2.27 3.46-4.26 5.45-6.15.89.7 1.84.82 2.83.35 6.08-2.12 11.7-5.37 16.94-9.09-1.74-2.02-8.86 2.04-8.68-2.53l.46-.8c2.24.05 4.44.52 6.67.69 1.85-.79 3.31-2.22 4.81-3.51 3.59.64 6.68-2.77 9.83-4.13z"/><path fill="#e7b651" d="M119.73 116.69c1.08-.15 2.16-.3 3.24-.43.18 7.38.28 14.8-.4 22.16-1.7 1.38-3.4 2.82-4.5 4.74-5.51 6.1-14.44 8.54-18.89 15.85-3.02.53-5.34 2.63-8.05 3.9-1.07-1.2-1.97-2.55-2.56-4.06 3.08-4.2 2.28-10.15 6.43-13.72 1.29-3.95 4.63-6.93 6.12-10.97 1.68-2.98 3.13-6.09 4.96-8.97 5.09-1.87 9.02-5.81 13.65-8.5z"/><path fill="#493d2c" opacity=".9" d="M107.09 121.02c3.76-.66-.52 2.62-1.01 4.17-1.83 2.88-3.28 5.99-4.96 8.97-1.62.54-3.31.76-5 .89l-.88-2.2c3.91-3.98 8.19-7.6 11.85-11.83z"/><path fill="#3f3016" d="M137.09 127.3c2.17-.72 3.27-2.79 4.53-4.52-.18 4.57 6.94.51 8.68 2.53-5.24 3.72-10.86 6.97-16.94 9.09-.99.47-1.94.35-2.83-.35 2.17-2.27 4.38-4.49 6.56-6.75z"/><path fill="#665b43" opacity=".97" d="M96.12 135.05c1.69-.13 3.38-.35 5-.89-1.49 4.04-4.83 7.02-6.12 10.97-.55-.08-1.65-.25-2.2-.33.29-3.48 1.9-6.62 3.32-9.75z"/><path fill="#75725c" opacity=".96" d="M78.75 164.7c3.68-7.25 8.22-14.2 14.05-19.9.55.08 1.65.25 2.2.33-4.15 3.57-3.35 9.52-6.43 13.72-1.37 1.55-2.62 3.19-3.86 4.84-2.6 1.89-3.7 5.13-5.53 7.68-.33-.35-.99-1.07-1.32-1.42 1.12-1.56 1.05-3.43.89-5.25z"/><path fill="#1e1c16" d="M84.71 163.69c1.24-1.65 2.49-3.29 3.86-4.84.59 1.51 1.49 2.86 2.56 4.06 2.71-1.27 5.03-3.37 8.05-3.9-.72 1.73-1.7 3.34-2.83 4.83-2.01-1.47-4.13.61-5.88 1.56-1.08 2.53-2.2 5.04-3.36 7.54-1.12-2.96-1.21-6.27-2.4-9.25z"/><path fill="#b2b19d" opacity=".96" d="M90.47 165.4c1.75-.95 3.87-3.03 5.88-1.56-2.95 3.59-5.06 7.78-8.03 11.35-.3-.56-.91-1.69-1.21-2.25 1.16-2.5 2.28-5.01 3.36-7.54z"/><path fill="#e2dfcd" d="M79.18 171.37c1.83-2.55 2.93-5.79 5.53-7.68 1.19 2.98 1.28 6.29 2.4 9.25.3.56.91 1.69 1.21 2.25-.71.95-1.42 1.91-2.12 2.87-2.55 1.1-3.82 3.44-4.15 6.11-1.25 2.31-2.51 4.63-4.07 6.76-1.95.62-3.88 1.32-5.87 1.82-2.08-1.33-.36-3.96-.2-5.85 1.29-5.67 4.22-10.65 7.27-15.53z"/><path fill="#a9babd" opacity=".91" d="M69.58 180.98c2.74-5.59 5.21-11.42 9.17-16.28.16 1.82.23 3.69-.89 5.25-2.69 3.73-5.14 7.64-7.15 11.78-.28-.19-.85-.57-1.13-.75z"/><path fill="#9a9175" opacity=".97" d="M70.71 181.73c2.01-4.14 4.46-8.05 7.15-11.78.33.35.99 1.07 1.32 1.42-3.05 4.88-5.98 9.86-7.27 15.53-3.64 1.2-5.86 4.52-9.16 6.04 2.08-4.1 4.72-7.88 6.83-11.96.28.18.85.56 1.13.75z"/><path fill="#88816b" opacity=".89" d="M82.05 184.17c.33-2.67 1.6-5.01 4.15-6.11-1.01 2.26-2.34 4.4-4.15 6.11z"/><path fill="#bcad86" opacity=".97" d="M62.75 192.94c3.3-1.52 5.52-4.84 9.16-6.04-.16 1.89-1.88 4.52.2 5.85 1.99-.5 3.92-1.2 5.87-1.82-2.68 3.9-5.03 8-7.45 12.06a28.63 28.63 0 0 0-11.27-.81c-2.19 2.55-3.97 5.43-6.49 7.69 2.78-5.94 6.46-11.42 9.98-16.93z"/><path fill="#d0c097" opacity=".97" d="M59.26 202.18c3.79-.48 7.55-.21 11.27.81-10.79 17.59-21.29 35.47-33.34 52.2.04-1.4.21-2.79.23-4.19-1.16-7.36 3.57-13.96 4.5-21.09 3.32-6.8 6.64-13.73 10.85-20.04 2.52-2.26 4.3-5.14 6.49-7.69z"/></svg>