<svg width="256pt" height="256pt" viewBox="0 0 256 256" xmlns="http://www.w3.org/2000/svg"><g fill="#222b00"><path d="M89.37 3.68c9.72-2.4 20.22.78 27.72 7.22 10 8.47 15.4 21.27 17.4 34.05 3.5-5.45 8-10.44 13.7-13.65 9.9-5.95 23-6.3 33.2-.84 11.4 5.88 19.1 17.88 20.7 30.54 1.2 8.64-.6 17.45-4.2 25.33 7.3 5.15 15.4 8.8 22.8 13.78 6 4.1 11.2 10 12.4 17.4 1.3 8-.3 16.6-4.5 23.6-6.8 11-18 18.2-29.2 24.1l2 1c4.4-3.4 9.4-6.8 15.2-7.2 10.8-1 20.8 7.8 23.2 18 2.3 9.9-.6 20-4.5 29.1l1.7 2c7.5 1.8 16.7 4.9 18.7 13.5v3c-1 4.7-4.3 9.3-9.1 10.5-3.4.9-6.7-.6-9.8-1.7.5 5.3-1.2 11.4-6.6 13.5-4.4 2.4-9.2.2-12.6-2.7-1.4 2.8-2.7 6-5.5 7.7-5.7 3.6-14.1 3-18.8-2.1-3.1-3.2-3.5-8.1-2.6-12.3 1-4.9 4.3-8.9 6.5-13.3-5.7 3-11 6.5-16.9 9.1-20.1 9.2-42.7 14.6-64.8 11.1-15.3-2.3-30.2-7-44.2-13.6-4.3-1.9-8.1-4.84-12.8-5.6 3.6 6.1 8 13 5.8 20.4-2.6 9.14-15.5 11.4-22.3 5.7-2.1-1.8-3.2-4.4-4.4-6.85-2.2 1.5-4.3 3.3-7 3.7-4.8.56-9.7-2.45-11.4-6.9-.8-2.4-.7-5-.8-7.5-3.1 1.15-6.4 2.6-9.8 1.75-4.8-1.2-8-5.68-9.1-10.28V222c.8-4 3.5-7.38 7-9.34 4.5-2.94 10.6-2.8 14.34-6.93-3.5-8.12-6-17.12-4.6-26.1 1.3-9.6 8.95-18.1 18.4-20.1 5.1-1.1 10 1 14.87 2.2-5.5-4.2-11.4-7.9-15.9-13.2-10.95-11.2-12.45-31.5-.42-42.44 9.2-9 21.7-12.8 32.1-19.8C55.08 67.6 54.4 44 64 25.1c5.2-10 14.1-18.8 25.37-21.4m.9 8.5c-7.54 2.1-13.5 7.93-17.4 14.53-6.9 11.66-8.54 26-5.85 39.2 2 9.4 6.43 18.6 13.93 24.83 5.5 4.6 13.1 6.97 20.1 5.22 7.8-1.75 13.9-7.5 18-14.1 7.2-11.7 9-26.2 6.4-39.55-2-9.87-6.72-19.6-14.8-25.88-5.6-4.42-13.2-6.3-20.2-4.3m70.1 23.38c-15.6 3.2-25.2 20.38-22.85 35.6C138.96 84 148.8 96.3 162 98.1c11.16 1.8 22.4-4.77 27.7-14.5 7.4-12.8 5.3-30.6-5.5-40.9-6.17-6-15.3-9-23.78-7.1m-48.56 65.25c-7.57 4.5-17.08 5.52-25.42 2.7-6.13-2-11.3-6.1-15.72-10.7-8.04 5.5-17.14 9.2-25.42 14.3-4.76 3.1-9.43 7.2-10.92 12.9-1.83 7.42.1 15.64 5.22 21.35 7.63 8.9 18.26 14.48 28.8 19.15 15.85 6.74 32.73 11 49.84 12.77 15.05 1.63 30.28-.3 44.9-3.94 14.06-3.54 27.8-8.68 40.25-16.14 6.2-3.85 12.1-8.33 16.5-14.2 4.3-5.6 6.2-13.08 5.1-20.08-1-5.7-5.7-9.78-10.3-12.76-7.1-4.4-14.6-7.96-21.4-12.8-4.3 4.86-9.5 9.08-15.7 11.3-10.6 4.05-23 2.32-32.1-4.27-7.5-5.2-12.7-13.18-15.3-21.82-3.8 9-9.9 17.3-18.5 22.3m-54.5 64c-4.6 4.3-9.3 8.8-11.8 14.7-3.8 8.6-1.7 19.3 4.9 25.9 8 8.5 18.6 14 29.1 18.8 15.9 6.8 32.9 11.6 50.3 12 17.1-.2 33.9-5 49.2-12.4 10-5.2 20.3-11.3 26.8-20.9 4-6.4 5.8-15.7.8-22-4.4-5.3-11-8.1-16.8-11.5-24.2 9.8-50.8 15.4-76.9 11.9-19.3-2.5-38.3-7.9-55.8-16.4m-32 14.2c-1.5 6.7.3 13.5 2.5 19.8 2.5-1.3 5.1-2.6 7.7-3.7-2.1-9.7 1.1-19.7 6.9-27.4-7.8-2.3-15.7 3.9-17.2 11.4m184-8.3c3 3 6.1 6.2 7.7 10.3 1.8 4.3 1.9 9 1.4 13.6 3.8 1.2 7.4 2.9 10.7 5 2.3-6.2 4.2-13 3-19.7-.9-5.6-5.2-10.5-10.6-12.3-4.4-1.3-8.7 1.1-12.38 3.3m6.9 32c-2 4-4.56 7.6-7.4 11 .76 2.5 1.9 5.2.85 7.8-2.5 7-10.1 11.6-10.4 19.4 0 5.4 9.5 5.7 10.3.6 1-3.8-.1-7.7.3-11.6.5-2.8 4.4-4.1 6.5-2.2 4 3.3 6.2 8.3 10 11.8.83-.8 1.64-1.7 2.4-2.6.3-4.7-2.77-8.6-4.05-12.9-.5-2.5 1.9-4.9 4.4-4.7 6.1.7 10.2 6.1 16.1 7.2 1.5-1.1 3.6-3.4 1.8-5.2-3.7-4.4-10.1-3.7-14.6-6.5-4.4-5.1-9.2-10.24-16.1-11.9m-192.55 12c-4.9 2.18-11.3 2-14.7 6.77-.33 1.9 1.4 3.4 2.3 4.9 5.35-1.8 9.6-6 15.1-7.4 2.7-1 5.97 1.5 5.4 4.4-1.2 4.03-3.9 7.7-4.05 12-.2 1.65 1.6 2.45 2.48 3.55 3.6-3.5 5.8-8.05 9.4-11.4 2.1-2.3 6.35-1.3 7.07 1.73.6 4.5-1.3 9.53 1.2 13.65 2.6 2.86 9.6 2.02 9.4-2.65-.4-8.05-8.3-12.7-10.6-20-.8-2.2.3-4.4.8-6.54-3.3-3.4-6.3-7.07-8.8-11.15-6.3 2.27-10.6 7.4-15 12.1z"/><path d="M115.24 107.3c2.83-1.37 5.56 1.42 6.45 3.9 1.6 4.48 1.3 10.7-2.9 13.66-3 1.9-6.2-1.15-7-3.95-1.6-4.5-1.1-10.9 3.4-13.6zm18.16-.02c2.13-1.92 5.4-.6 6.62 1.7 2.63 4.5 2.45 11-1.38 14.76-1.9 1.85-5.1 1.05-6.4-1.1-3.1-4.5-2.94-11.52 1.16-15.36z"/></g><path d="M90.28 12.24c6.95-2 14.6-.1 20.23 4.3 8.1 6.28 12.9 16.02 14.9 25.9 2.6 13.33.9 27.85-6.3 39.54-4 6.58-10.2 12.35-18 14.1-7.1 1.74-14.6-.62-20.1-5.23C73.5 84.63 69.1 75.4 67.1 66c-2.72-13.2-1.1-27.52 5.8-39.2 3.9-6.6 9.85-12.43 17.4-14.56m7.46 34.48c-7.75 3.83-10.36 14.83-5.1 21.7 4.76 7.18 15.98 8.35 22.1 2.3 4.58-4 5.46-10.53 4.22-16.2-1 3.87-3.67 7.82-8.04 8.05-5.12.76-9.84-4.62-8.13-9.58 1-4.3 5.4-6 9.3-6.7-4.7-1.4-10-2.2-14.4.4zm62.65-11.1c8.4-1.9 17.6 1.1 23.7 7.1 10.9 10.3 13 28.08 5.5 40.9-5.3 9.73-16.5 16.27-27.6 14.47-13.2-1.8-23.1-14.1-24.4-26.9-2.3-15.3 7.3-32.4 22.9-35.6M149.2 50c2.7.38 5.86 1.2 6.9 4.08 1.9 3.85-1.95 8.6-6.1 7.7-3.17-.3-4.7-3.36-5.94-5.88-.04 3.43-.38 7.23 1.86 10.13 3.58 5.5 12.24 6.3 16.73 1.48 4.78-4.5 4.03-13.1-1.5-16.7-3.45-2.7-8.05-2.1-11.94-.8z" fill="#fff"/><path d="M97.75 46.72c4.42-2.6 9.7-1.8 14.35-.4-3.84.74-8.3 2.4-9.3 6.67-1.7 4.9 3 10.3 8.13 9.5 4.37-.3 7.05-4.2 8.04-8.1 1.24 5.7.36 12.2-4.23 16.2-6.1 6-17.33 4.9-22.08-2.3-5.27-6.9-2.66-17.9 5.1-21.7zm51.43 3.3c3.9-1.32 8.5-1.88 11.95.82 5.52 3.57 6.27 12.2 1.5 16.7-4.5 4.8-13.16 4.03-16.73-1.48-2.24-2.9-1.9-6.7-1.86-10.13 1.24 2.52 2.77 5.58 5.94 5.88 4.15.9 8.02-3.8 6.1-7.7-1.04-2.8-4.2-3.7-6.9-4z"/><g fill="#bcd35f"><path d="M111.83 100.87c8.55-4.94 14.68-13.24 18.45-22.24 2.63 8.64 7.8 16.6 15.28 21.82 9.14 6.6 21.57 8.32 32.1 4.26 6.2-2.2 11.4-6.4 15.72-11.2 6.77 4.9 14.32 8.4 21.35 12.8 4.64 2.9 9.27 7 10.27 12.7 1.1 7-.72 14.5-5.06 20.1-4.43 5.9-10.4 10.4-16.58 14.2-12.45 7.5-26.2 12.6-40.24 16.2-14.62 3.7-29.85 5.6-44.9 4-17.1-1.8-34-6-49.83-12.7-10.6-4.6-21.2-10.2-28.8-19.1-5.2-5.7-7.1-13.9-5.3-21.3 1.5-5.7 6.1-9.8 10.9-12.9 8.3-5.1 17.4-8.8 25.4-14.3 4.4 4.6 9.6 8.7 15.7 10.7 8.3 2.9 17.8 1.8 25.4-2.7m3.4 6.5c-4.5 2.7-5 9.1-3.4 13.6.8 2.8 3.9 5.9 6.9 4 4.2-2.9 4.5-9.2 2.9-13.6-.9-2.5-3.7-5.2-6.5-3.9m18.1 0c-4.1 3.9-4.3 10.9-1.2 15.4 1.3 2.2 4.5 3 6.4 1.1 3.8-3.7 4-10.2 1.3-14.7-1.2-2.3-4.5-3.6-6.6-1.7z"/><path d="M57.38 164.92c17.52 8.5 36.48 13.92 55.77 16.42 26.14 3.5 52.73-2.1 76.95-11.88 5.83 3.43 12.4 6.17 16.82 11.52 5.04 6.38 3.2 15.66-.83 22.07-6.6 9.55-16.8 15.68-26.8 20.9-1.2-5.7-2.5-11.56-5.8-16.43-7.8-11.94-21.6-18.9-35.5-20.8-17.4-2.4-36.5 2.58-48.6 15.72-5.8 5.92-8.6 13.9-9.8 21.93-10.5-4.83-21-10.37-29.1-18.85-6.6-6.63-8.8-17.35-5-25.93 2.5-5.9 7.2-10.4 11.7-14.7zM25.4 179.07c1.58-7.5 9.44-13.74 17.24-11.38-5.86 7.7-9.04 17.7-6.96 27.4-2.64 1.1-5.22 2.3-7.74 3.7-2.2-6.3-4.06-13.2-2.55-19.9zm183.77-8.17c3.64-2.27 7.96-4.66 12.38-3.3 5.38 1.76 9.68 6.7 10.52 12.33 1.23 6.7-.7 13.44-3 19.7-3.34-2.15-6.94-3.84-10.74-4.97.46-4.54.4-9.27-1.43-13.54-1.58-4.06-4.65-7.25-7.73-10.22zm6.9 31.96c6.8 1.66 11.68 6.84 16.1 11.94 4.5 2.84 10.96 2.1 14.65 6.52 1.76 1.8-.34 4.12-1.8 5.28-5.9-1.12-10.03-6.55-16.1-7.2-2.5-.27-4.86 2.16-4.38 4.66 1.28 4.3 4.32 8.22 4.03 12.9-.77.92-1.58 1.8-2.43 2.63-3.77-3.6-5.95-8.5-9.93-11.9-2.1-1.9-6-.6-6.5 2.2-.4 3.8.7 7.8-.2 11.6-.8 5.1-10.3 4.8-10.3-.6.3-7.9 7.8-12.5 10.4-19.4 1.1-2.6-.1-5.3-.8-7.8 2.9-3.4 5.4-7 7.4-11zm-192.8 12.42c4.4-4.7 8.72-9.83 15-12.08 2.44 4.08 5.45 7.77 8.76 11.16-.5 2.13-1.57 4.34-.82 6.55 2.3 7.4 10.3 12 10.6 20.1.3 4.7-6.8 5.5-9.3 2.7-2.5-4.1-.6-9.1-1.1-13.6-.7-3-4.9-4-7-1.7-3.6 3.4-5.8 8-9.3 11.4-.8-1.1-2.6-1.9-2.4-3.5.2-4.3 2.9-8 4.1-12 .6-2.9-2.7-5.4-5.4-4.4-5.5 1.4-9.8 5.6-15.1 7.4-.9-1.5-2.7-2.9-2.3-4.9 3.4-4.7 9.8-4.6 14.7-6.7z"/></g><path fill="#e5ff80" d="M89.44 202.44c12.13-13.14 31.23-18.12 48.6-15.7 13.88 1.88 27.66 8.84 35.47 20.78 3.4 4.87 4.7 10.72 5.8 16.43-15.3 7.34-32.1 12.2-49.2 12.4-17.4-.38-34.4-5.22-50.3-11.98 1.2-8.02 4-16 9.8-21.93z"/></svg>