<svg width="512pt" height="512pt" viewBox="0 0 512 512" xmlns="http://www.w3.org/2000/svg"><g fill="#fff197"><path d="M252.28 0h6.42c50.11.45 99.95 16.09 141.21 44.55.86 2.98 2.16 6.01 4.8 7.83 2.43 2.14 5.84 2.02 8.86 2.16 9.85 7.89 19.36 16.25 27.9 25.55-1.71 5.73 3.54 11.61 9.42 10.44 15.73 18.57 28.76 39.38 38.67 61.6-2.18 1.14-5.11 1.72-6.21 4.19-1.83 3.51.48 8.7 4.69 8.82 2.44.6 4.36-1.04 5.83-2.76 16.24 41.66 21.49 87.53 14.78 131.75-5.72 38.03-20.06 74.77-41.89 106.44-20.94 30.67-48.67 56.65-80.58 75.63-38.05 22.73-82.14 35.09-126.44 35.8h-8.46c-54.17-.88-107.93-19.46-150.82-52.62-50.74-38.53-86.16-96.7-96.75-159.56-7.68-46.04-3.34-94.3 14.02-137.74 2.29 1.84 5.04 4.1 8.18 2.8 4.03-1.09 5.23-6.4 2.83-9.54-1.43-2.44-4.6-2.21-6.98-2.89 9.81-22.28 22.89-43.12 38.62-61.69 2.82-.14 6.22.34 8.31-2.04 2.76-2.52 3.56-6.42 2.47-9.93 8.55-8.99 17.8-17.32 27.61-24.92 2.77.69 5.82.87 8.29-.83 3.61-1.84 4.98-5.89 5.97-9.53C153.87 15.78 202.93.53 252.28 0M136.31 32.3c-6.81 2.09-9.96 11.3-5.84 17.13 3.08 5.16 10.59 6.72 15.59 3.5 4.85-2.82 6.94-9.49 4.46-14.55-2.18-5.4-8.79-8.11-14.21-6.08m38.07.13c-8.3 2.93-9.5 15.62-2 20.17 6.78 5.13 17.69-.15 17.82-8.66 1.01-8.28-8.28-14.77-15.82-11.51m33.18 5.13c-2.79 4.4-1.36 9.98 1.68 13.84-9.62 5.85-18.19 13.58-24.72 22.78-2.63-1.17-5.6-2.35-8.45-1.2-4.29 1.13-6.99 5.71-6.37 10.02.27 3.53 3.4 5.71 5.63 8.07-2.84 6.6-4.06 13.69-5.57 20.65-5.93 5.11-12.42 9.57-18.64 14.33-14.26 10.89-28.63 21.65-42.91 32.52-1.52-2.31-2.88-5.66-6.16-5.68-4-.75-7.6 3.17-6.93 7.07.25 2.43 2.4 3.91 4.03 5.46-10.82 8.17-21.6 16.37-32.42 24.52 3.35 6.53 6.85 12.99 10.33 19.46 1.43 2.77 2.87 5.53 4.33 8.29.4.74 1.2 2.23 1.6 2.98 4.02 7.54 7.9 15.17 12.03 22.66 39.26-14.92 78.4-30.2 117.65-45.16.89 2.19 2.62 4.6 5.34 4.2 2.59-.19 3.78-2.63 4.71-4.7 27.16 10.08 60.02 4.59 81.36-15.3 3.91 2.8 7.57 5.92 11.15 9.12.98 1.02 1.97 2.04 2.97 3.05 2.17 2.25 4.24 4.6 6.22 7.02.8 1.09 1.6 2.19 2.41 3.28 1.95 2.79 3.68 5.74 5.11 8.83.54 1.26 1.09 2.52 1.65 3.78.8 2.35 1.48 4.76 2.06 7.18.11.98.35 2.94.47 3.92 0 1.39.03 2.79-.06 4.19-2.3-.03-5.74.41-5.85 3.36-.36 2.77 2.61 4.04 4.91 4.1-.42 8.52-.04 17.74 4.54 25.21 3.1 5.18 9.34 7.7 15.23 7.18 10.18-.8 19.43-5.75 28.03-10.91 3.27 13.07 5.23 27.73-.97 40.27-5.13 10.58-15.24 17.58-25.66 22.35-14.76 6.55-31.89 8.6-47.51 4.03-14.39-4.85-24.31-17.02-34.2-27.84-12.93-13.99-29.83-24.46-48.53-28.56-24.32-5.67-49.65-1.16-73.02 6.49-17.42 5.52-34.3 12.97-49.72 22.84-11.92 7.75-22.82 17.31-31.16 28.9-4.21 5.8-7.08 12.63-7.73 19.8-1.43 13.37 3.97 26.87 12.93 36.68 8.5 9.59 20.66 16.56 33.67 16.9 12.33.05 23.94-5.61 33.56-12.96 13.25-10.07 24.01-23.02 33.13-36.85 7.13-11.13 13.85-22.57 22.04-32.97 7.28-9.14 16.11-17.73 27.38-21.6 11.36-3.87 24.23-2.49 34.87 2.88 8.44 4.28 13.92 12.87 15.92 21.95 4.66 20.65-.48 42.34 5.27 62.84 3.78 13.6 15.17 23.96 28.07 28.95 17.64 6.87 37.24 7.4 55.74 4.24 20.17-3.46 38.81-13.99 53.11-28.5 2.74.15 5.53.47 8.27-.02 4.78-1.2 8.76-4.48 11.79-8.27 1.58-2.01 3.35-4.08 3.68-6.72-1.67-1.1-3.29-2.28-4.8-3.59 3.57-3.83 6.92-7.89 9.88-12.2 2.15-2.17-2.11-4.4-3.35-2.14-3.37 3.77-6.24 7.95-9.56 11.76-2.31-1.89-4.69-3.71-7.02-5.58 3.22-3.04 5.63-6.78 8.52-10.11 1.23-1.7 3.39-3.33 2.55-5.69-.53-.1-1.59-.29-2.12-.38-4.87 3.66-7.8 9.35-11.97 13.75-1.02-.81-2.04-1.61-3.06-2.4-5.34 3.96-10.41 9.28-11.34 16.14-.7 4.19 1.2 8.14 3.19 11.69-18.66 18.13-44.68 28.87-70.78 28.27-16.41-.21-32.87-5.98-45.27-16.84-6.27-5.11-10.61-12.38-12.34-20.27-4.41-20.01 2.12-40.86-3.33-60.76 7.33 7.35 15.77 14.17 25.97 16.94 15.3 4.26 31.63 1.54 46.35-3.66 12.69-4.56 24.93-12.52 31.19-24.84 7.76-14.89 6.71-32.85 1.83-48.46 4.47-3.04 8.85-6.25 12.91-9.83 1.85-1.54 2.04-4.15 2.23-6.38-.08-6.69-2.82-12.97-5.72-18.87-6.49-12.61-15.15-23.91-23.83-35.06-3.34-3.91-6.34-8.16-10.19-11.6-1.37-2.58-3.59-4.59-5.42-6.83-9.2-10.14-18.3-20.42-28.31-29.77.65-3.58 1.34-7.17 1.69-10.79 2.64-.47 5.65-.59 7.65-2.62 3.55-2.86 3.57-8.95.12-11.88-2.08-2.13-5.18-2.33-7.95-2.72-1.9-16.2-8.85-31.72-19.53-44.03-4.32-4.78-9.11-9.14-14.32-12.92 2.94-1.6 6.19-3.28 7.62-6.51 2.49-4.53 1.31-10.67-2.7-13.93-5.18-4.8-14.9-3.08-17.76 3.5-1.52 2.8-1.16 6.07-.99 9.12-5.16-2.33-10.57-4.05-16.1-5.24-.75-5.65-5.81-10.71-11.74-10.09-5.3-.19-9.27 4.03-11.2 8.55-5.27.39-10.51 1.29-15.62 2.66-.63-2.99-1.42-6.19-3.88-8.23-5.01-4.99-14.7-3.61-17.79 2.89m121.78-5.13c-3.42 1.44-6 4.65-6.75 8.28-1.38 6.02 2.87 12.68 9.05 13.67 7.59 1.86 15.29-5.8 13.45-13.42-.89-7.18-9.33-11.18-15.75-8.53m38.98-.04c-5.17 1.88-8.17 8.02-6.93 13.3 1.09 5.43 6.76 9.39 12.22 8.87 6.46-.46 11.74-7.2 10.31-13.61-1.09-6.98-9.14-11.1-15.6-8.56M101.27 72.48c-7.48-.24-12.31 9.76-7.03 15.23 4.06 5.5 13.75 3.64 15.73-2.8 2.42-5.68-2.53-12.72-8.7-12.43m38.15 0c-7.81.15-11.57 10.82-5.73 15.89 5.14 5.7 15.91 1.28 15.55-6.35.4-5.36-4.6-9.89-9.82-9.54m193.96-.01c-7.78.05-11.84 11.01-5.8 15.94 4.66 4.99 13.98 2.22 15.23-4.46 1.69-5.79-3.47-11.98-9.43-11.48m38.87.02c-6.04.02-10.75 6.88-8.25 12.47 2.09 7.02 13.14 8.19 16.55 1.62 3.97-5.92-1.28-14.57-8.3-14.09m39.03-.01c-4.36-.07-8.06 3.49-9.05 7.57-.9 4.62 2.23 9.69 6.87 10.76 4.37.95 9.61-1.42 10.94-5.9 2.51-5.71-2.56-12.81-8.76-12.43M60.44 112.4c-3.36 1.02-5.99 4.17-6.19 7.71-.1 3.52 2.24 6.95 5.61 8.06 4.8 1.93 10.74-2.03 10.97-7.16.46-5.32-5.18-10.21-10.39-8.61m38.9-.03c-3.3 1.01-6.11 4.05-6.23 7.61-.55 5.23 5.17 9.93 10.2 8.41 4.04-1.05 6.91-5.42 6.05-9.53-.62-4.5-5.64-7.82-10.02-6.49m38.93.02c-6.34 1-8.74 10.02-3.71 13.98 4.24 4.46 12.82 1.82 13.52-4.35 1.41-5.62-4.23-11.19-9.81-9.63m232.1.02c-2.83.9-5.16 3.3-5.8 6.22-1 3.9 1.38 8.31 5.24 9.52 4.87 2.03 10.85-1.92 11.06-7.15.49-5.39-5.27-10.3-10.5-8.59m38.9 0c-5.29 1.42-8.22 8.47-4.52 12.86 3.52 5.29 12.71 4.03 14.47-2.14 2.35-5.86-3.91-12.7-9.95-10.72m39.03-.07c-5.59 1.19-8.44 8.49-4.65 12.95 3.48 5.43 12.75 3.86 14.3-2.35 2.07-5.7-3.64-12.5-9.65-10.6M60.21 153.31c-4.36 1.34-5.25 7.63-1.87 10.47 3.49 3.24 9.97.97 10.43-3.86.84-4.6-4.35-8.49-8.56-6.61m309.98.05c-4.46 1.44-5.23 8.3-1.23 10.72 3.34 2.43 8.85.89 9.69-3.39 1.59-4.81-3.86-9.66-8.46-7.33m38.18.08c-4.47 2.33-4.21 9.72.65 11.42 4.21 1.81 9.44-1.92 8.65-6.52-.29-4.42-5.56-6.63-9.3-4.9m38.95 0c-3.57 1.69-4.69 7.15-1.69 9.87 2.96 3.35 9.39 2.17 10.47-2.35 1.79-4.99-4.11-10.09-8.78-7.52M22.24 193.28c-3.2 1-4.41 5.95-1.51 7.96 2.34 2.1 6.98 1.23 7.53-2.16 1.3-3.41-2.59-7.28-6.02-5.8m38.16.17c-3.28 1.41-3.36 6.72-.14 8.26 3.09 1.99 7.67-1.04 6.86-4.7-.19-3.21-3.98-4.9-6.72-3.56m232.97-.06c-2.72 1.11-4.03 4.91-2.04 7.27 2.36 3.27 8.55 1.59 8.51-2.59.43-3.37-3.42-6.14-6.47-4.68m115.96.04c-3.39 1.42-3.4 6.88-.08 8.38 3.1 1.88 7.62-1.24 6.79-4.82-.21-3.21-3.95-4.96-6.71-3.56m39.02-.12c-2.32 1.21-3.9 4.32-2.35 6.72 1.88 3.98 9.13 2.51 8.91-2.05.29-3.41-3.46-5.93-6.56-4.67m38.92.05c-3.02.84-4.13 5.08-1.94 7.33 2.04 2.7 7.1 2.08 8.02-1.33 1.77-3.54-2.66-7.53-6.08-6M22.18 233.18c-1.8.92-2.74 3.39-1.45 5.11 1.28 2.26 5.54 2.43 6.27-.37 1.51-2.94-1.86-6.62-4.82-4.74m38.15.19c-1.87 1.37-1.86 4.81.25 5.99 2.28 1.74 6.24-.36 5.51-3.38.11-2.88-3.66-4.05-5.76-2.61m77.94-.09c-1.35.77-2.61 2.51-1.69 4.06.61 3.08 5.23 3.66 6.65.92 2.19-2.93-2.03-7.01-4.96-4.98m38.99-.06c-1.27.74-2.5 2.14-2.06 3.74.41 2.91 4.83 4.29 6.53 1.69 2.48-2.69-1.32-7.46-4.47-5.43m38.04.21c-2.24 1.47-1.48 5.3.89 6.27 2.39 1.23 5.63-.93 4.92-3.72.02-2.97-3.64-4.01-5.81-2.55m38.97-.06c-2.18 1.46-2.07 5.84.77 6.43 2.48 1.01 5.36-1.25 4.99-3.88.02-2.77-3.72-4.09-5.76-2.55m39.02-.1c-1.84 1.06-2.52 3.81-.97 5.42 1.74 2.47 6.18 1.21 6.48-1.77.48-2.83-3.09-5.25-5.51-3.65m116.07.05c-1.85 1.02-1.67 3.63-1.03 5.34 2.02 2.87 7.22.79 6.69-2.68.12-2.87-3.54-4-5.66-2.66m38.84-.12c-1.51 1.34-2.61 3.8-.86 5.44 1.67 2.69 6.15 1.2 6.5-1.72.46-2.89-3.13-5.16-5.64-3.72m39.03.06c-1.79.87-2.78 3.17-1.55 4.92 1.46 3.05 6.76 2.01 7-1.33.49-2.81-3.11-5.1-5.45-3.59M22.39 273.43c-1.89 1.52.17 4.9 2.39 3.44 2.76-1.33-.16-5.53-2.39-3.44m38.36.43c-1.34 1.38.38 3.81 2.22 3.28 1.88-.08 1.57-2.39 1.78-3.66-1.35-.18-3.05-1.15-4 .38m39.35-.77c-1.65 1.4-.55 3.32.77 4.46 1.02-.59 2.05-1.18 3.07-1.78-.65-1.65-1.71-3.54-3.84-2.68m37.79.69c.09.78.25 2.33.34 3.11l3.77.06c-.03-1.35-.08-2.7-.14-4.05-1.34.22-2.66.54-3.97.88m116.45.52c-.96 1.71 1.91 3.94 3.36 2.44 1.67-.71.48-2.63.4-3.86-1.24.35-3.26-.18-3.76 1.42m39.18-.78c-.24 1.08-.43 2.17-.56 3.27 1.33.06 2.67.13 4.01.21-.02-1.36-.02-2.71-.02-4.07-1.16.14-2.3.33-3.43.59m38.49 3.43c1.31 0 2.63-.02 3.95-.04-.11-1.52.15-3.8-1.97-3.95-2.63-.43-1.82 2.35-1.98 3.99m39.24-3.64c-2.34 1.45.42 5.18 2.5 3.48 2.67-1.42-.11-5.26-2.5-3.48m39.02-.02c-3.31 1.69 1.41 5.78 3.02 2.95 1.53-1.83-1.32-4.33-3.02-2.95m37.21 1.69c1.09 1.11 2.58 2.86 4.33 1.83.53-1.21.53-2.4-.02-3.6-1.79-.76-3.21.53-4.31 1.77m39.19-1.24l.56 3.2c1.21-.03 2.43-.04 3.66-.04-.03-1.29-.05-2.57-.07-3.84-1.42.04-2.83.13-4.15.68z"/><path d="M109.27 305.27c26.57-16.82 57.06-28.57 88.72-29.78 20.67-.64 42.37 3.74 59.1 16.46-17.17-4.48-36.08.29-49.83 11.29-23.55 19.78-33.62 50.4-54.96 72.09-10.1 10.02-22.84 18.48-37.32 19.88-11.13 1.24-22.45-3.09-30.44-10.82-6.27-6.13-11.87-13.54-13.66-22.29-2.07-9.14.87-18.67 5.78-26.4 7.96-12.82 20.16-22.25 32.61-30.43z"/></g><path d="M136.31 32.3c5.42-2.03 12.03.68 14.21 6.08 2.48 5.06.39 11.73-4.46 14.55-5 3.22-12.51 1.66-15.59-3.5-4.12-5.83-.97-15.04 5.84-17.13zm38.07.13c7.54-3.26 16.83 3.23 15.82 11.51-.13 8.51-11.04 13.79-17.82 8.66-7.5-4.55-6.3-17.24 2-20.17zm33.18 5.13c3.09-6.5 12.78-7.88 17.79-2.89 2.46 2.04 3.25 5.24 3.88 8.23-7.01 1.9-13.72 4.82-19.99 8.5-3.04-3.86-4.47-9.44-1.68-13.84zm37.29 2.68c1.93-4.52 5.9-8.74 11.2-8.55 5.93-.62 10.99 4.44 11.74 10.09a86.167 86.167 0 0 0-22.94-1.54zm40.03-2.34c2.86-6.58 12.58-8.3 17.76-3.5 4.01 3.26 5.19 9.4 2.7 13.93-1.43 3.23-4.68 4.91-7.62 6.51a76.26 76.26 0 0 0-8.12-5.04c-1.88-.98-3.78-1.91-5.71-2.78-.17-3.05-.53-6.32.99-9.12zm44.46-5.47c6.42-2.65 14.86 1.35 15.75 8.53 1.84 7.62-5.86 15.28-13.45 13.42-6.18-.99-10.43-7.65-9.05-13.67.75-3.63 3.33-6.84 6.75-8.28zm38.98-.04c6.46-2.54 14.51 1.58 15.6 8.56 1.43 6.41-3.85 13.15-10.31 13.61-5.46.52-11.13-3.44-12.22-8.87-1.24-5.28 1.76-11.42 6.93-13.3zM98.77 53.87c4.6-3.67 9.36-7.12 14.26-10.36-.99 3.64-2.36 7.69-5.97 9.53-2.47 1.7-5.52 1.52-8.29.83zm301.14-9.32c4.67 3.17 9.25 6.48 13.66 9.99-3.02-.14-6.43-.02-8.86-2.16-2.64-1.82-3.94-4.85-4.8-7.83zM101.27 72.48c6.17-.29 11.12 6.75 8.7 12.43-1.98 6.44-11.67 8.3-15.73 2.8-5.28-5.47-.45-15.47 7.03-15.23zm38.15 0c5.22-.35 10.22 4.18 9.82 9.54.36 7.63-10.41 12.05-15.55 6.35-5.84-5.07-2.08-15.74 5.73-15.89zm36.65.5c2.85-1.15 5.82.03 8.45 1.2-3.67 5.28-6.77 10.94-9.19 16.89-2.23-2.36-5.36-4.54-5.63-8.07-.62-4.31 2.08-8.89 6.37-10.02zm157.31-.51c5.96-.5 11.12 5.69 9.43 11.48-1.25 6.68-10.57 9.45-15.23 4.46-6.04-4.93-1.98-15.89 5.8-15.94zm38.87.02c7.02-.48 12.27 8.17 8.3 14.09-3.41 6.57-14.46 5.4-16.55-1.62-2.5-5.59 2.21-12.45 8.25-12.47zm39.03-.01c6.2-.38 11.27 6.72 8.76 12.43-1.33 4.48-6.57 6.85-10.94 5.9-4.64-1.07-7.77-6.14-6.87-10.76.99-4.08 4.69-7.64 9.05-7.57zM60.38 90.76c3.43-4.13 7.01-8.14 10.78-11.97 1.09 3.51.29 7.41-2.47 9.93-2.09 2.38-5.49 1.9-8.31 2.04zm390.51-.23c-5.88 1.17-11.13-4.71-9.42-10.44 3.24 3.39 6.41 6.85 9.42 10.44zM60.44 112.4c5.21-1.6 10.85 3.29 10.39 8.61-.23 5.13-6.17 9.09-10.97 7.16-3.37-1.11-5.71-4.54-5.61-8.06.2-3.54 2.83-6.69 6.19-7.71zm38.9-.03c4.38-1.33 9.4 1.99 10.02 6.49.86 4.11-2.01 8.48-6.05 9.53-5.03 1.52-10.75-3.18-10.2-8.41.12-3.56 2.93-6.6 6.23-7.61zm38.93.02c5.58-1.56 11.22 4.01 9.81 9.63-.7 6.17-9.28 8.81-13.52 4.35-5.03-3.96-2.63-12.98 3.71-13.98zm193.3-.6c2.77.39 5.87.59 7.95 2.72 3.45 2.93 3.43 9.02-.12 11.88-2 2.03-5.01 2.15-7.65 2.62.61-5.73.52-11.51-.18-17.22zm38.8.62c5.23-1.71 10.99 3.2 10.5 8.59-.21 5.23-6.19 9.18-11.06 7.15-3.86-1.21-6.24-5.62-5.24-9.52.64-2.92 2.97-5.32 5.8-6.22zm38.9 0c6.04-1.98 12.3 4.86 9.95 10.72-1.76 6.17-10.95 7.43-14.47 2.14-3.7-4.39-.77-11.44 4.52-12.86zm39.03-.07c6.01-1.9 11.72 4.9 9.65 10.6-1.55 6.21-10.82 7.78-14.3 2.35-3.79-4.46-.94-11.76 4.65-12.95zM21.76 152.45c2.38.68 5.55.45 6.98 2.89 2.4 3.14 1.2 8.45-2.83 9.54-3.14 1.3-5.89-.96-8.18-2.8 1.32-3.22 2.66-6.43 4.03-9.63zm38.45.86c4.21-1.88 9.4 2.01 8.56 6.61-.46 4.83-6.94 7.1-10.43 3.86-3.38-2.84-2.49-9.13 1.87-10.47zm34.91 6.65c-.67-3.9 2.93-7.82 6.93-7.07 3.28.02 4.64 3.37 6.16 5.68a3069.9 3069.9 0 0 0-9.06 6.85c-1.63-1.55-3.78-3.03-4.03-5.46zm275.07-6.6c4.6-2.33 10.05 2.52 8.46 7.33-.84 4.28-6.35 5.82-9.69 3.39-4-2.42-3.23-9.28 1.23-10.72zm38.18.08c3.74-1.73 9.01.48 9.3 4.9.79 4.6-4.44 8.33-8.65 6.52-4.86-1.7-5.12-9.09-.65-11.42zm38.95 0c4.67-2.57 10.57 2.53 8.78 7.52-1.08 4.52-7.51 5.7-10.47 2.35-3-2.72-1.88-8.18 1.69-9.87zm36.03 2.88c1.1-2.47 4.03-3.05 6.21-4.19 1.5 3.39 2.93 6.81 4.31 10.25-1.47 1.72-3.39 3.36-5.83 2.76-4.21-.12-6.52-5.31-4.69-8.82zM22.24 193.28c3.43-1.48 7.32 2.39 6.02 5.8-.55 3.39-5.19 4.26-7.53 2.16-2.9-2.01-1.69-6.96 1.51-7.96zm38.16.17c2.74-1.34 6.53.35 6.72 3.56.81 3.66-3.77 6.69-6.86 4.7-3.22-1.54-3.14-6.85.14-8.26zm232.97-.06c3.05-1.46 6.9 1.31 6.47 4.68.04 4.18-6.15 5.86-8.51 2.59-1.99-2.36-.68-6.16 2.04-7.27zm115.96.04c2.76-1.4 6.5.35 6.71 3.56.83 3.58-3.69 6.7-6.79 4.82-3.32-1.5-3.31-6.96.08-8.38zm39.02-.12c3.1-1.26 6.85 1.26 6.56 4.67.22 4.56-7.03 6.03-8.91 2.05-1.55-2.4.03-5.51 2.35-6.72zm38.92.05c3.42-1.53 7.85 2.46 6.08 6-.92 3.41-5.98 4.03-8.02 1.33-2.19-2.25-1.08-6.49 1.94-7.33zm-268.78 2.55c1.38.65 2.8 1.22 4.23 1.76-.93 2.07-2.12 4.51-4.71 4.7-2.72.4-4.45-2.01-5.34-4.2 1.94-.75 3.88-1.5 5.82-2.26zM22.18 233.18c2.96-1.88 6.33 1.8 4.82 4.74-.73 2.8-4.99 2.63-6.27.37-1.29-1.72-.35-4.19 1.45-5.11zm38.15.19c2.1-1.44 5.87-.27 5.76 2.61.73 3.02-3.23 5.12-5.51 3.38-2.11-1.18-2.12-4.62-.25-5.99zm77.94-.09c2.93-2.03 7.15 2.05 4.96 4.98-1.42 2.74-6.04 2.16-6.65-.92-.92-1.55.34-3.29 1.69-4.06zm38.99-.06c3.15-2.03 6.95 2.74 4.47 5.43-1.7 2.6-6.12 1.22-6.53-1.69-.44-1.6.79-3 2.06-3.74zm38.04.21c2.17-1.46 5.83-.42 5.81 2.55.71 2.79-2.53 4.95-4.92 3.72-2.37-.97-3.13-4.8-.89-6.27zm38.97-.06c2.04-1.54 5.78-.22 5.76 2.55.37 2.63-2.51 4.89-4.99 3.88-2.84-.59-2.95-4.97-.77-6.43zm39.02-.1c2.42-1.6 5.99.82 5.51 3.65-.3 2.98-4.74 4.24-6.48 1.77-1.55-1.61-.87-4.36.97-5.42zm36.92 2.83c.11-2.95 3.55-3.39 5.85-3.36-.22 2.5-.62 4.97-.94 7.46-2.3-.06-5.27-1.33-4.91-4.1zm79.15-2.78c2.12-1.34 5.78-.21 5.66 2.66.53 3.47-4.67 5.55-6.69 2.68-.64-1.71-.82-4.32 1.03-5.34zm38.84-.12c2.51-1.44 6.1.83 5.64 3.72-.35 2.92-4.83 4.41-6.5 1.72-1.75-1.64-.65-4.1.86-5.44zm39.03.06c2.34-1.51 5.94.78 5.45 3.59-.24 3.34-5.54 4.38-7 1.33-1.23-1.75-.24-4.05 1.55-4.92zM22.39 273.43c2.23-2.09 5.15 2.11 2.39 3.44-2.22 1.46-4.28-1.92-2.39-3.44zm38.36.43c.95-1.53 2.65-.56 4-.38-.21 1.27.1 3.58-1.78 3.66-1.84.53-3.56-1.9-2.22-3.28zm39.35-.77c2.13-.86 3.19 1.03 3.84 2.68-1.02.6-2.05 1.19-3.07 1.78-1.32-1.14-2.42-3.06-.77-4.46zm37.79.69c1.31-.34 2.63-.66 3.97-.88.06 1.35.11 2.7.14 4.05l-3.77-.06c-.09-.78-.25-2.33-.34-3.11zm116.45.52c.5-1.6 2.52-1.07 3.76-1.42.08 1.23 1.27 3.15-.4 3.86-1.45 1.5-4.32-.73-3.36-2.44zm39.18-.78c1.13-.26 2.27-.45 3.43-.59 0 1.36 0 2.71.02 4.07-1.34-.08-2.68-.15-4.01-.21.13-1.1.32-2.19.56-3.27zm38.49 3.43c.16-1.64-.65-4.42 1.98-3.99 2.12.15 1.86 2.43 1.97 3.95-1.32.02-2.64.04-3.95.04zm39.24-3.64c2.39-1.78 5.17 2.06 2.5 3.48-2.08 1.7-4.84-2.03-2.5-3.48zm39.02-.02c1.7-1.38 4.55 1.12 3.02 2.95-1.61 2.83-6.33-1.26-3.02-2.95zm37.21 1.69c1.1-1.24 2.52-2.53 4.31-1.77.55 1.2.55 2.39.02 3.6-1.75 1.03-3.24-.72-4.33-1.83zm39.19-1.24c1.32-.55 2.73-.64 4.15-.68.02 1.27.04 2.55.07 3.84-1.23 0-2.45.01-3.66.04l-.56-3.2zm-60.69 88.59c4.17-4.4 7.1-10.09 11.97-13.75.53.09 1.59.28 2.12.38.84 2.36-1.32 3.99-2.55 5.69-2.89 3.33-5.3 7.07-8.52 10.11-1.01-.82-2.01-1.63-3.02-2.43zm19.6-3.75c1.24-2.26 5.5-.03 3.35 2.14-2.96 4.31-6.31 8.37-9.88 12.2-1.02-.87-2.02-1.73-3.03-2.58 3.32-3.81 6.19-7.99 9.56-11.76z" fill="#fff6bb"/><g fill="#887dba"><path d="M229.23 42.9a84.467 84.467 0 0 1 15.62-2.66c7.67-.52 15.4.01 22.94 1.54 5.53 1.19 10.94 2.91 16.1 5.24 1.93.87 3.83 1.8 5.71 2.78-2.09 3.09-4.15 6.19-6.18 9.31-14.2-7.41-30.94-9.36-46.6-6.38-15.85 3.16-30.65 11.66-41.09 24.03-13.63 15.41-19.69 36.9-16.88 57.21 1.81 13.74 7.67 26.94 16.81 37.39 11.31 13.54 27.89 22.39 45.31 24.83 15.62 2.18 31.92-.9 45.63-8.72 16.05-9.04 28.55-24.37 33.82-42.06 7.51-24.08 1.5-52.05-15.98-70.39 2.48-2.48 5.01-4.9 7.6-7.26 10.68 12.31 17.63 27.83 19.53 44.03.7 5.71.79 11.49.18 17.22-.35 3.62-1.04 7.21-1.69 10.79 10.01 9.35 19.11 19.63 28.31 29.77 1.83 2.24 4.05 4.25 5.42 6.83 2.89 10.67 7.59 20.75 10.49 31.43 2.81 10.35 6.39 21.36 3.4 32.08-1.7 6.07-7.45 9.91-13.24 11.55-6.38 1.77-13.55 2.52-19.76-.25-3.48-1.51-5.82-4.6-8.02-7.55 9.55-.62 17.17-7.03 24.51-12.49 4.02-2.63 4.15-7.85 3.91-12.14-.77-10.85-6.33-20.74-13.27-28.87-7.11-8.28-15.44-15.51-24.54-21.52-2.84-1.99-6.65-2.91-9.85-1.22-6.2 3.1-9.59 9.45-13.34 14.95-21.34 19.89-54.2 25.38-81.36 15.3-1.43-.54-2.85-1.11-4.23-1.76-11.39-6.37-20.53-15.97-27.97-26.57-35.95 16.87-71.59 34.42-107.53 51.33-.4-.75-1.2-2.24-1.6-2.98 6.46-3.9 13.51-6.64 20.22-10.05 14.06-7.05 28.35-13.61 42.43-20.63 9.29-4.74 19.01-8.62 28.06-13.82-6.37-.07-12.7.79-19.06.96-3.15.15-6.42.1-9.34 1.42-22.36 10.98-44.29 22.82-66.64 33.83-3.48-6.47-6.98-12.93-10.33-19.46 10.82-8.15 21.6-16.35 32.42-24.52 3.02-2.29 6.03-4.57 9.06-6.85 14.28-10.87 28.65-21.63 42.91-32.52 6.22-4.76 12.71-9.22 18.64-14.33 1.51-6.96 2.73-14.05 5.57-20.65 2.42-5.95 5.52-11.61 9.19-16.89 6.53-9.2 15.1-16.93 24.72-22.78 6.27-3.68 12.98-6.6 19.99-8.5z"/><path d="M216.36 116.22c3.12-15.1 17.2-26.93 32.59-27.51 9.95-.71 19.88 3.44 26.91 10.4 2.43 2.45 5.03 5.07 6.04 8.46.46 9.7-.99 19.75-6.19 28.12-7.52 13.04-22.26 20.74-37.08 21.51-16.44-5.24-26.48-24.36-22.27-40.98zm110.53 70.71c3.14-1.31 5.22-4.11 7.49-6.5-.38 2.34-.05 5.13-1.9 6.94-3.72 4.05-9.21 5.6-14.28 7.17-1-1.01-1.99-2.03-2.97-3.05 3.84-1.65 7.84-2.88 11.66-4.56zm8.62 10.54c3.22-1.38 5.56-4.09 8.15-6.35-.47 2.21-.31 4.86-2.14 6.53-3.93 3.99-9.49 5.58-14.69 7.19-.81-1.09-1.61-2.19-2.41-3.28 3.68-1.4 7.47-2.53 11.09-4.09zm8.06 11.84c3.27-1.37 5.28-4.43 7.62-6.92-.3 2.56-.16 5.57-2.29 7.45-4.15 4.1-9.97 5.69-15.31 7.61-.56-1.26-1.11-2.52-1.65-3.78 3.87-1.46 7.84-2.68 11.63-4.36zm3.26 11.25c3.16-1.36 5.42-4.04 7.83-6.37-.48 2.17-.28 4.76-2.02 6.43-4.39 4.49-10.69 6.18-16.52 7.93-.12-.98-.36-2.94-.47-3.92 3.73-1.34 7.54-2.48 11.18-4.07z"/></g><path d="M289.6 49.8a76.26 76.26 0 0 1 8.12 5.04c5.21 3.78 10 8.14 14.32 12.92-2.59 2.36-5.12 4.78-7.6 7.26-6.09-6.41-13.11-11.92-21.02-15.91 2.03-3.12 4.09-6.22 6.18-9.31zm-7.7 57.77c8.67 14.43 3.94 34.93-9.59 44.75-9.41 7.18-22.65 9.53-33.68 4.88 14.82-.77 29.56-8.47 37.08-21.51 5.2-8.37 6.65-18.42 6.19-28.12zm35.52 59.85c3.2-1.69 7.01-.77 9.85 1.22 9.1 6.01 17.43 13.24 24.54 21.52 6.94 8.13 12.5 18.02 13.27 28.87.24 4.29.11 9.51-3.91 12.14-7.34 5.46-14.96 11.87-24.51 12.49 2.2 2.95 4.54 6.04 8.02 7.55 6.21 2.77 13.38 2.02 19.76.25 5.79-1.64 11.54-5.48 13.24-11.55 2.99-10.72-.59-21.73-3.4-32.08-2.9-10.68-7.6-20.76-10.49-31.43 3.85 3.44 6.85 7.69 10.19 11.6 8.68 11.15 17.34 22.45 23.83 35.06 2.9 5.9 5.64 12.18 5.72 18.87-.19 2.23-.38 4.84-2.23 6.38-4.06 3.58-8.44 6.79-12.91 9.83-1.82 1.2-3.63 2.38-5.47 3.54-8.6 5.16-17.85 10.11-28.03 10.91-5.89.52-12.13-2-15.23-7.18-4.58-7.47-4.96-16.69-4.54-25.21.32-2.49.72-4.96.94-7.46.09-1.4.06-2.8.06-4.19 5.83-1.75 12.13-3.44 16.52-7.93 1.74-1.67 1.54-4.26 2.02-6.43-2.41 2.33-4.67 5.01-7.83 6.37-3.64 1.59-7.45 2.73-11.18 4.07-.58-2.42-1.26-4.83-2.06-7.18 5.34-1.92 11.16-3.51 15.31-7.61 2.13-1.88 1.99-4.89 2.29-7.45-2.34 2.49-4.35 5.55-7.62 6.92-3.79 1.68-7.76 2.9-11.63 4.36-1.43-3.09-3.16-6.04-5.11-8.83 5.2-1.61 10.76-3.2 14.69-7.19 1.83-1.67 1.67-4.32 2.14-6.53-2.59 2.26-4.93 4.97-8.15 6.35-3.62 1.56-7.41 2.69-11.09 4.09-1.98-2.42-4.05-4.77-6.22-7.02 5.07-1.57 10.56-3.12 14.28-7.17 1.85-1.81 1.52-4.6 1.9-6.94-2.27 2.39-4.35 5.19-7.49 6.5-3.82 1.68-7.82 2.91-11.66 4.56-3.58-3.2-7.24-6.32-11.15-9.12 3.75-5.5 7.14-11.85 13.34-14.95zM82.99 220.67c35.94-16.91 71.58-34.46 107.53-51.33 7.44 10.6 16.58 20.2 27.97 26.57-1.94.76-3.88 1.51-5.82 2.26-39.25 14.96-78.39 30.24-117.65 45.16-4.13-7.49-8.01-15.12-12.03-22.66zm70.05-46.52c6.36-.17 12.69-1.03 19.06-.96-9.05 5.2-18.77 9.08-28.06 13.82-14.08 7.02-28.37 13.58-42.43 20.63-6.71 3.41-13.76 6.15-20.22 10.05-1.46-2.76-2.9-5.52-4.33-8.29 22.35-11.01 44.28-22.85 66.64-33.83 2.92-1.32 6.19-1.27 9.34-1.42z" fill="#9f9aca"/><path fill="#be79b3" d="M236.82 52.73c15.66-2.98 32.4-1.03 46.6 6.38 7.91 3.99 14.93 9.5 21.02 15.91 17.48 18.34 23.49 46.31 15.98 70.39-5.27 17.69-17.77 33.02-33.82 42.06-13.71 7.82-30.01 10.9-45.63 8.72-17.42-2.44-34-11.29-45.31-24.83-9.14-10.45-15-23.65-16.81-37.39-2.81-20.31 3.25-41.8 16.88-57.21 10.44-12.37 25.24-20.87 41.09-24.03m-20.46 63.49c-4.21 16.62 5.83 35.74 22.27 40.98 11.03 4.65 24.27 2.3 33.68-4.88 13.53-9.82 18.26-30.32 9.59-44.75-1.01-3.39-3.61-6.01-6.04-8.46-7.03-6.96-16.96-11.11-26.91-10.4-15.39.58-29.47 12.41-32.59 27.51z"/><path fill="#3f2615" d="M382.92 261.68c1.84-1.16 3.65-2.34 5.47-3.54 4.88 15.61 5.93 33.57-1.83 48.46-6.26 12.32-18.5 20.28-31.19 24.84-14.72 5.2-31.05 7.92-46.35 3.66-10.2-2.77-18.64-9.59-25.97-16.94 5.45 19.9-1.08 40.75 3.33 60.76 1.73 7.89 6.07 15.16 12.34 20.27 12.4 10.86 28.86 16.63 45.27 16.84 26.1.6 52.12-10.14 70.78-28.27-1.99-3.55-3.89-7.5-3.19-11.69.93-6.86 6-12.18 11.34-16.14a320.34 320.34 0 0 1 6.08 4.83c2.33 1.87 4.71 3.69 7.02 5.58 1.01.85 2.01 1.71 3.03 2.58 1.51 1.31 3.13 2.49 4.8 3.59-.33 2.64-2.1 4.71-3.68 6.72-3.03 3.79-7.01 7.07-11.79 8.27-2.74.49-5.53.17-8.27.02-14.3 14.51-32.94 25.04-53.11 28.5-18.5 3.16-38.1 2.63-55.74-4.24-12.9-4.99-24.29-15.35-28.07-28.95-5.75-20.5-.61-42.19-5.27-62.84-2-9.08-7.48-17.67-15.92-21.95-10.64-5.37-23.51-6.75-34.87-2.88-11.27 3.87-20.1 12.46-27.38 21.6-8.19 10.4-14.91 21.84-22.04 32.97-9.12 13.83-19.88 26.78-33.13 36.85-9.62 7.35-21.23 13.01-33.56 12.96-13.01-.34-25.17-7.31-33.67-16.9-8.96-9.81-14.36-23.31-12.93-36.68.65-7.17 3.52-14 7.73-19.8 8.34-11.59 19.24-21.15 31.16-28.9 15.42-9.87 32.3-17.32 49.72-22.84 23.37-7.65 48.7-12.16 73.02-6.49 18.7 4.1 35.6 14.57 48.53 28.56 9.89 10.82 19.81 22.99 34.2 27.84 15.62 4.57 32.75 2.52 47.51-4.03 10.42-4.77 20.53-11.77 25.66-22.35 6.2-12.54 4.24-27.2.97-40.27m-273.65 43.59c-12.45 8.18-24.65 17.61-32.61 30.43-4.91 7.73-7.85 17.26-5.78 26.4 1.79 8.75 7.39 16.16 13.66 22.29 7.99 7.73 19.31 12.06 30.44 10.82 14.48-1.4 27.22-9.86 37.32-19.88 21.34-21.69 31.41-52.31 54.96-72.09 13.75-11 32.66-15.77 49.83-11.29-16.73-12.72-38.43-17.1-59.1-16.46-31.66 1.21-62.15 12.96-88.72 29.78z"/></svg>