<svg width="256pt" height="256pt" viewBox="0 0 256 256" xmlns="http://www.w3.org/2000/svg"><path fill="#ee0606" d="M22.17 36.2c10.24-11.34 24.45-19.26 39.69-21.09 7.77-.16 15.64-.48 23.17 1.81 18.21 4.79 33.24 17.94 42.99 33.75 5.04-7.87 11.11-15.19 18.46-21 5.31-3.88 10.71-7.95 17.09-9.86 8.06-4.43 17.48-4.76 26.43-5.21 11.99.61 23.7 4.91 33.29 12.12 14.82 10.99 25.84 27.7 28.4 46.13 1.09 13.27-.63 26.8-5.31 39.29-6.79 17.99-19.09 33.23-32.18 47.03-14.89 16.12-31.24 30.81-47.2 45.86-13.09 12.03-25.98 24.28-39 36.39-23.92-22.56-48.24-44.68-71.92-67.49-14.13-14.28-28.5-28.72-38.86-46.09C8.72 113.78 3.9 97.42 4.04 80.95c-.69-16.64 7.13-32.64 18.13-44.75z"/></svg>