<svg xmlns="http://www.w3.org/2000/svg" viewBox="0 0 556 636" height="636" width="556"><defs><clipPath id="a"><path d="M2102.15 230.078c-9.79 480.602-45.82 874.152-228 1454.582 184.36 40.58 64.31 73.2 248.68 113.77 5.89-511.13 64.21-1003.39 319.26-1472.875 32.97-284.395-386.99-234.504-339.94-95.477z" clip-rule="evenodd"/></clipPath><linearGradient id="b" gradientTransform="matrix(0 -10 10 0 2098.45 1207.62)" gradientUnits="userSpaceOnUse" x2="89.301" x1="-89.301"><stop offset="0" stop-color="#ca5b2c"/><stop offset="1" stop-color="#a04636"/></linearGradient><clipPath id="c"><path d="M2012.53 1636.43c-2023.842 650.14-848.1 2557.95-179.24 2943.67 107.24-701.9 1973.07-1835 179.24-2943.67z" clip-rule="evenodd"/></clipPath><linearGradient id="d" gradientTransform="matrix(0 -10 10 0 1922.89 3108.26)" gradientUnits="userSpaceOnUse" x2="147.184" x1="-147.184"><stop offset="0" stop-color="#227a41"/><stop offset=".688" stop-color="#cce86e"/><stop offset="1" stop-color="#fffa99"/></linearGradient><clipPath id="e"><path d="M1702.3 4214.73c-212.96-1114.93 389.03-1085.39 261.97-2392.17C2274 2746.28 1624.4 3374.49 1702.3 4214.73z" clip-rule="evenodd"/></clipPath><linearGradient id="f" gradientTransform="matrix(0 10 -10 0 1852.36 3018.64)" gradientUnits="userSpaceOnUse" x2="119.608" x1="-119.608"><stop offset="0" stop-color="#efef81"/><stop offset="1" stop-color="#fff"/></linearGradient><clipPath id="g"><path d="M2246.92 2081.08c744.05 831.59-92.64 1294.41-306.78 1857.89 7.94-614.46 444.34-960.28 306.78-1857.89z" clip-rule="evenodd"/></clipPath><linearGradient id="h" gradientTransform="matrix(0 10 -10 0 2190.95 2955.35)" gradientUnits="userSpaceOnUse" x2="90.493" x1="-90.493"><stop offset="0" stop-color="#e3eb76"/><stop offset="1" stop-color="#81bb42"/></linearGradient><clipPath id="i"><path d="M1729.05 1940.03c-682.89 360.66-906.93 1276.61-319.77 1878.3-76.88-683.4 531.55-1194.33 319.77-1878.3z" clip-rule="evenodd"/></clipPath><linearGradient id="j" gradientTransform="matrix(0 10 -10 0 1377.94 2868.7)" gradientUnits="userSpaceOnUse" x2="94.963" x1="-94.963"><stop offset="0" stop-color="#e8ed7d"/><stop offset="1" stop-color="#81bb42"/></linearGradient><clipPath id="k"><path d="M2065.31 863.766C1162.14-260.95 238.516 947.113 156.402 1464.58c470.813-102.39 1641.688 805.01 1908.908-600.814z" clip-rule="evenodd"/></clipPath><linearGradient id="l" gradientTransform="rotate(-21 3701.58 -2420.82) scale(10)" gradientUnits="userSpaceOnUse" x2="100.165" x1="-100.165"><stop offset="0" stop-color="#227a41"/><stop offset=".688" stop-color="#cce86e"/><stop offset="1" stop-color="#fffa99"/></linearGradient><clipPath id="m"><path d="M356.148 1292.9C1011 887.37 1138.37 1276.02 1935.63 878.367 1425.45 1298.81 869.703 1039.61 356.148 1292.9z" clip-rule="evenodd"/></clipPath><linearGradient id="n" gradientTransform="rotate(159 473.783 655.218) scale(10)" gradientUnits="userSpaceOnUse" x2="81.182" x1="-81.182"><stop offset="0" stop-color="#efef81"/><stop offset="1" stop-color="#fff"/></linearGradient><clipPath id="o"><path d="M1840.41 1120.21c-346.4 673.32-842.75 255.44-1251.8 256.5 391.312-144.1 716.37 48.53 1251.8-256.5z" clip-rule="evenodd"/></clipPath><linearGradient id="p" gradientTransform="rotate(159 516.487 766.01) scale(10)" gradientUnits="userSpaceOnUse" x2="61.58" x1="-61.58"><stop offset="0" stop-color="#e3eb76"/><stop offset="1" stop-color="#81bb42"/></linearGradient><clipPath id="q"><path d="M1804.11 757.812C1409.82 412.594 775.027 492.91 536.223 1011.03c414.41-214.6 885.847 46.98 1267.887-253.218z" clip-rule="evenodd"/></clipPath><linearGradient id="r" gradientTransform="rotate(159 494.84 484.9) scale(10)" gradientUnits="userSpaceOnUse" x2="64.681" x1="-64.681"><stop offset="0" stop-color="#e8ed7d"/><stop offset="1" stop-color="#81bb42"/></linearGradient><clipPath id="s"><path d="M2222.45 931.426C3288.23-40.59 4014.54 1295.46 4015.88 1819.39c-449.4-173.76-1746.18 542.24-1793.43-887.964z" clip-rule="evenodd"/></clipPath><linearGradient id="t" gradientTransform="rotate(-150 1742.738 272.365) scale(10)" gradientUnits="userSpaceOnUse" x2="98.322" x1="-98.322"><stop offset="0" stop-color="#227a41"/><stop offset=".688" stop-color="#cce86e"/><stop offset="1" stop-color="#fffa99"/></linearGradient><clipPath id="u"><path d="M3845 1618.97c-584.49-501.66-770.27-137.3-1496.69-653.138C2787.57 1459.93 3376.64 1289.53 3845 1618.97z" clip-rule="evenodd"/></clipPath><linearGradient id="v" gradientTransform="rotate(30 -902.016 6452.637) scale(10)" gradientUnits="userSpaceOnUse" x2="82.135" x1="-82.135"><stop offset="0" stop-color="#efef81"/><stop offset="1" stop-color="#fff"/></linearGradient><clipPath id="w"><path d="M2405.11 1219.48c238.44 718.68 793.28 382.33 1197.28 446.44-364.41-202.71-715.29-62.51-1197.28-446.44z" clip-rule="evenodd"/></clipPath><linearGradient id="x" gradientTransform="rotate(30 -1311.43 6257.283) scale(10)" gradientUnits="userSpaceOnUse" x2="60.895" x1="-60.895"><stop offset="0" stop-color="#e3eb76"/><stop offset="1" stop-color="#81bb42"/></linearGradient><clipPath id="y"><path d="M2496.85 867.012c442.81-280.3 1057.63-103.06 1213.68 445.668-376.37-275.9-882.5-90.16-1213.68-445.668z" clip-rule="evenodd"/></clipPath><linearGradient id="z" gradientTransform="rotate(30 -246.823 6422.563) scale(10)" gradientUnits="userSpaceOnUse" x2="64.128" x1="-64.128"><stop offset="0" stop-color="#e8ed7d"/><stop offset="1" stop-color="#81bb42"/></linearGradient></defs><path d="M399.396 403.753c-55.675-3.58-111.763 5.672-118.732 103.39 22.443 24.77 43.705 39.15 63.456 45.595 22.967 7.494 44.223 4.045 62.992-6.174 19.93-10.85 37.445-29.274 51.62-50.66 18.21-27.477 30.64-59.313 35.612-86.36-18.03 1.92-39.023-.312-61.36-2.69-10.967-1.17-22.288-2.374-33.588-3.1m-119.153 7.783a395.574 395.574 0 0 1-10.355 7.796c.1 2.507.212 5.015.34 7.522 3.056-5.647 6.405-10.736 10.015-15.318m-46.976 106.08c2.284-4.073 6.416-7.033 11.406-7.62a15.003 15.003 0 0 1 5.915.47 407.601 407.601 0 0 1-.972-4.507 15.238 15.238 0 0 1-3.312 1.54c-7.925 2.575-16.44-1.76-19.016-9.685-29.293-90.158-100.664-71.103-160.367-55.162-21.69 5.792-42.08 11.235-60.19 12.124 9.01 25.752 26 55.024 47.96 79.236 17.31 19.077 37.49 34.727 58.9 42.503 20.19 7.328 41.78 7.576 63.34-3.29 18.74-9.443 37.76-27.158 56.35-55.61m31.76 46.138c.76 12.738 1.21 26.12 1.5 40.297.02.16.03.31.04.47 1.06.29 2.32.49 3.71.56 2.81.16 5.695-.26 8.025-1.42 2.03-1.01 3.55-3.18 3.64-6.93a326.63 326.63 0 0 1-16.943-37.53l-.294-.78c.117 1.78.23 3.57.334 5.36" fill="#2e318f"/><path d="M265.18 603.363c-.277-12.657-.72-25.102-1.475-37.838l-.025-.443c-14.505 16.075-29.397 27.522-44.38 35.073-29.83 15.034-59.53 14.75-87.19 4.708-26.43-9.596-50.647-28.155-70.95-50.535C29.69 519.638 7.114 475.052.428 440.744c-1.565-8.187 3.802-16.092 11.988-17.657 2.397-.46 4.77-.323 6.966.304l.003-.01.008.01c15.22 4.33 40.638-2.45 68.532-9.9 24.117-6.44 49.804-13.29 74.748-15.21-11.304-6.95-21.22-14.49-29.853-22.55-34.544-32.25-48.528-72.15-48.514-114.19.015-40.63 13.324-83.02 33.697-122C148.665 80.86 195.748 29.31 237.385 3.31c7.076-4.402 16.384-2.234 20.787 4.842a15.03 15.03 0 0 1 2.225 6.676l.02-.002.002.027c.03.376.05.752.05 1.124 2.81 24.91 25.81 56.67 51.01 91.48 59.26 81.85 129.4 178.767 24.15 281.064 27.08-15.53 60.82-17.05 94.44-14.89 11.78.76 23.52 2.01 34.88 3.22 28.72 3.06 54.89 5.85 69.26-.78 7.57-3.49 16.53-.18 20.02 7.38 1.16 2.52 1.57 5.2 1.32 7.77-1.56 35.06-17.11 82.45-42.88 121.34-16.66 25.13-37.74 47.06-62.37 60.47-25.78 14.04-55.04 18.76-86.73 8.42-11.54-3.76-23.34-9.55-35.35-17.64 3.21 7.27 6.73 14.47 10.6 21.6.96 1.76 1.53 3.62 1.74 5.5l.03-.003c2.4 20.69-7.038 33.334-20.06 39.82-7.19 3.58-15.46 4.924-23.143 4.5-7.924-.445-15.614-2.846-21.275-6.706-8.687-5.92-13.37-14.53-10.96-25.13" fill="#e9e9e9"/><g clip-path="url(#a)" transform="matrix(.13333 0 0 -.13333 0 636)"><path d="M2102.15 230.078c-9.79 480.602-45.82 874.152-228 1454.582 184.36 40.58 64.31 73.2 248.68 113.77 5.89-511.13 64.21-1003.39 319.26-1472.875 32.97-284.395-386.99-234.504-339.94-95.477" fill="url(#b)"/></g><path d="M269.25 421.263c-296.647-58.226-138.153-333.777-23.9-405.12 8.785 99.1 267.208 249.028 23.9 405.12" fill="#227a41" fill-rule="evenodd"/><g clip-path="url(#c)" transform="matrix(.13333 0 0 -.13333 0 636)"><path d="M2012.53 1636.43c-2023.842 650.14-848.1 2557.95-179.24 2943.67 107.24-701.9 1973.07-1835 179.24-2943.67" fill="url(#d)"/></g><g clip-path="url(#e)" transform="matrix(.13333 0 0 -.13333 0 636)"><path d="M1702.3 4214.73c-212.96-1114.93 389.03-1085.39 261.97-2392.17C2274 2746.28 1624.4 3374.49 1702.3 4214.73" fill="url(#f)"/></g><g clip-path="url(#g)" transform="matrix(.13333 0 0 -.13333 0 636)"><path d="M2246.92 2081.08c744.05 831.59-92.64 1294.41-306.78 1857.89 7.94-614.46 444.34-960.28 306.78-1857.89" fill="url(#h)"/></g><g clip-path="url(#i)" transform="matrix(.13333 0 0 -.13333 0 636)"><path d="M1729.05 1940.03c-682.89 360.66-906.93 1276.61-319.77 1878.3-76.88-683.4 531.55-1194.33 319.77-1878.3" fill="url(#j)"/></g><path d="M154.355 218.358c-42.135 32.853-29.773 78.29 31.71 86.4-31.366-19.967-46.444-45.46-31.71-86.4m165.395 6.938c35.7 7.067 48.083 49.526 13.17 73.306 12.96-21.762 8.342-52.92-13.17-73.306" fill="#deef97" fill-rule="evenodd"/><path d="M277.774 521.087C168.884 694.94 32.732 527.63 15.25 437.914c64.932 18.485 222.66-108.892 262.524 83.173" fill="#227a41" fill-rule="evenodd"/><g clip-path="url(#k)" transform="matrix(.13333 0 0 -.13333 0 636)"><path d="M2065.31 863.766C1162.14-260.95 238.516 947.113 156.402 1464.58c470.813-102.39 1641.688 805.01 1908.908-600.814" fill="url(#l)"/></g><g clip-path="url(#m)" transform="matrix(.13333 0 0 -.13333 0 636)"><path d="M356.148 1292.9C1011 887.37 1138.37 1276.02 1935.63 878.367 1425.45 1298.81 869.703 1039.61 356.148 1292.9" fill="url(#n)"/></g><g clip-path="url(#o)" transform="matrix(.13333 0 0 -.13333 0 636)"><path d="M1840.41 1120.21c-346.4 673.32-842.75 255.44-1251.8 256.5 391.312-144.1 716.37 48.53 1251.8-256.5" fill="url(#p)"/></g><g clip-path="url(#q)" transform="matrix(.13333 0 0 -.13333 0 636)"><path d="M1804.11 757.812C1409.82 412.594 775.027 492.91 536.223 1011.03c414.41-214.6 885.847 46.98 1267.887-253.218" fill="url(#r)"/></g><path d="M121.31 544.653c10.595 34.674 42.387 37.868 62.448.875-20.266 15.032-40.08 18.397-62.448-.875m44.537-103.127c13.142-20.91 43.053-18.45 49.65 9.445-10.646-13.49-31.51-18.12-49.65-9.44" fill="#deef97" fill-rule="evenodd"/><path d="M293.98 512.435c134.395 154.985 243.12-31.32 246.558-122.658-61.305 28.275-236.784-73.258-246.56 122.658" fill="#227a41" fill-rule="evenodd"/><g clip-path="url(#s)" transform="matrix(.13333 0 0 -.13333 0 636)"><path d="M2222.45 931.426C3288.23-40.59 4014.54 1295.46 4015.88 1819.39c-449.4-173.76-1746.18 542.24-1793.43-887.964" fill="url(#t)"/></g><g clip-path="url(#u)" transform="matrix(.13333 0 0 -.13333 0 636)"><path d="M3845 1618.97c-584.49-501.66-770.27-137.3-1496.69-653.138C2787.57 1459.93 3376.64 1289.53 3845 1618.97" fill="url(#v)"/></g><g clip-path="url(#w)" transform="matrix(.13333 0 0 -.13333 0 636)"><path d="M2405.11 1219.48c238.44 718.68 793.28 382.33 1197.28 446.44-364.41-202.71-715.29-62.51-1197.28-446.44" fill="url(#x)"/></g><g clip-path="url(#y)" transform="matrix(.13333 0 0 -.13333 0 636)"><path d="M2496.85 867.012c442.81-280.3 1057.63-103.06 1213.68 445.668-376.37-275.9-882.5-90.16-1213.68-445.668" fill="url(#z)"/></g><path d="M452.206 511.594c-5.12 35.893-36.042 43.95-61.566 10.492 22.34 11.727 42.437 12 61.566-10.492M392.3 416.567c-16.208-18.632-45.383-11.592-47.6 16.987 8.438-14.973 28.34-22.77 47.6-16.987" fill="#deef97" fill-rule="evenodd"/><path d="M263.964 430.454c1.536 22.344 4.496 37.26 11.26 51.702-2.705-17.773-6.212-35.002-11.26-51.702m15.83 49.846c1.538 22.343 4.496 37.26 11.26 51.703-2.704-17.774-6.21-35.002-11.26-51.703m-2.897-55.255c-.288 15.003.82 25.018 4.51 34.717-.77-11.936-2.107-23.504-4.51-34.717m4.825 101.797c-.286 15.002.82 25.017 4.51 34.716-.768-11.935-2.106-23.503-4.51-34.716m14.248 44.578c-.288 15.003.82 25.02 4.51 34.717-.77-11.935-2.107-23.503-4.51-34.716m-22.52-131.89c-.287 15.01.82 25.02 4.51 34.72-.768-11.93-2.107-23.5-4.51-34.71m21.74 92.48c1.537 22.35 4.496 37.26 11.26 51.71-2.704-17.77-6.21-35-11.26-51.7m-8.33 35.178c2.78 17.63 3.106 29.61.338 41.634-1.038-14.18-1.345-28.03-.34-41.63m-.754-41.14c5.965 16.82 8.482 28.534 7.965 40.863-3.63-13.755-6.47-27.31-7.97-40.867" fill="#df9e27" fill-rule="evenodd"/></svg>