<svg width="256pt" height="256pt" viewBox="0 0 256 256" xmlns="http://www.w3.org/2000/svg"><g fill="#54485f"><path d="M112.07 16.66c1.02-5.94 6.39-10.12 12-11.5 2.83-.32 5.69-.12 8.53-.1 5.02 1.83 10.93 5.08 11.59 10.93-5.7-.34-11.42-.29-17.14-.26-5 .08-10.13-.64-14.98.93zm-9.66 27.87zm-1.98 6.01zm59.43 11.48l.88.18.39.99-.52.76c-.19-.48-.56-1.44-.75-1.93zm3.78 9.28c.01.03.04.11.05.15-.01-.04-.04-.12-.05-.15zm12.92 37.03c.02.04.05.14.07.18-.02-.04-.05-.14-.07-.18zm3.91 11.08zm-105.13 3.12c.02-.05.04-.13.06-.18-.02.05-.04.13-.06.18zm-4.06 10.57l.87-.2c-.18.49-.54 1.47-.72 1.95l-.53-.75.38-1zm-8.86 26.44c.01-.04.04-.11.05-.15-.01.04-.04.11-.05.15zm139.19 19.8c.02.03.04.11.06.14-.02-.03-.04-.11-.06-.14zm2 6.02c.01.05.04.13.05.18-.01-.05-.04-.13-.05-.18zM46.38 205.54zm168.13 10.82c.02.05.05.14.07.19-.02-.05-.05-.14-.07-.19zM37.37 231.5l.07-.18-.07.18zm186.11 10.81l.82-.16c-.2.52-.58 1.56-.78 2.08-2.68.24-5.38.09-8.07.1-.01 1.19-.02 2.38-.02 3.58-.42.43-1.24 1.28-1.66 1.71-.53.01-1.59.02-2.11.03-3.8-.13-7.6-.25-11.4-.06-.49.02-1.46.04-1.95.05-.38-.42-1.12-1.27-1.5-1.69-.02-1.21-.04-2.42-.05-3.62-43.6.03-87.2-.04-130.8.03-1.4.08-2.73-.16-4-.72 2-.2 4-.42 6.01-.48 37.37 0 74.74.02 112.11.02 5.84.03 11.69-.3 17.51.36 8.62 1.09 17.39.39 25.89-1.23z"/><path d="M33.31 244.07c3.29-1.37 6.87-1.01 10.29-.52 6.09.86 12.25.55 18.36.09 1.28 2.88.05 6.32-3.46 5.95-4.02-.1-8.05-.2-12.06 0-.24 0-.72.02-.96.02-.82-.53-1.65-1.06-2.48-1.58-.01-1.25-.03-2.49-.05-3.73-3.21.07-6.43.12-9.64-.23z"/></g><path fill="#41313e" d="M112.07 16.66c4.85-1.57 9.98-.85 14.98-.93 5.72-.03 11.44-.08 17.14.26 4.46 13.3 9.39 26.43 13.9 39.71.62 2.08 2.07 4.07 1.77 6.32.19.49.56 1.45.75 1.93 1.52 2.15 1.92 4.95 3.03 7.35.01.03.04.11.05.15 4.17 12.34 8.58 24.58 12.87 36.88.02.04.05.14.07.18 1.31 3.62 2.4 7.33 3.84 10.9.01.04.04.12.06.16 6.89 19.97 14.06 39.85 21.08 59.77.02.03.04.11.06.14.72 1.94 1.3 3.92 1.94 5.88.01.05.04.13.05.18 2.31 6.58 4.67 13.14 6.94 19.74l.05.15.05.14c.77 1.93 1.38 3.92 2.02 5.9.56 1.64 1.15 3.27 1.79 4.89.02.05.05.14.07.19 2.82 8.64 6.11 17.11 8.9 25.76-8.5 1.62-17.27 2.32-25.89 1.23-5.82-.66-11.67-.33-17.51-.36-37.37 0-74.74-.02-112.11-.02-2.01.06-4.01.28-6.01.48-6.11.46-12.27.77-18.36-.09-3.42-.49-7-.85-10.29.52l-.43.13c1.73-4.15 2.97-8.48 4.49-12.7l.07-.18c3.02-8.58 6.04-17.16 8.94-25.78.02-.05.05-.14.06-.18 5.29-15.29 10.72-30.52 15.98-45.82.01-.04.04-.11.05-.15 1.96-4.89 3.43-9.95 5.14-14.93 1.62-3.06 1.95-6.73 3.82-9.61.18-.48.54-1.46.72-1.95-.06-3.65 2.57-6.79 3.19-10.37.02-.05.04-.13.06-.18.66-2.06 1.33-4.12 2.07-6.15 1.37 1.4 2.77 2.78 4.17 4.16-4.93 13.3-9.47 26.74-14.34 40.06h3.78c14.98-.02 29.96.04 44.94-.03.09 1.3.22 2.61.4 3.91-15.83.06-31.66.03-47.5 0-1.6-.09-3.22.18-3.98 1.83 17.38.34 34.78.04 52.17.15 3.04 6.01 10.93 8.8 17.05 5.94 2.68-1.1 4.46-3.53 5.9-5.93 17.18.01 34.37-.1 51.55.06l-.04-1.98c-16.94-.1-33.89 0-50.83-.06.26-1.3.48-2.61.65-3.93 14.91.08 29.82.02 44.73.03h3.81c-16.55-46.95-32.92-93.97-49.5-140.91-7.72.11-15.45-.08-23.17.12C106.31 51 95.08 82.28 83.94 113.58c-1.01-.95-2.05-1.88-3.09-2.79 0-1.2.02-2.41.07-3.61.34-2.91 1.71-5.55 2.68-8.28 4.48-13.16 9.2-26.24 13.67-39.41.01-.04.05-.12.06-.16 1.15-2.89 2.18-5.82 3.1-8.79.01-.04.04-.13.06-.17.63-1.95 1.23-3.91 1.92-5.84.02-.04.05-.13.06-.17 3.21-9.22 6.62-18.39 9.6-27.7z"/><path d="M117.26 19.62c7.72-.2 15.45-.01 23.17-.12 16.58 46.94 32.95 93.96 49.5 140.91h-3.81c-15.86-45.45-31.43-91-47.48-136.39l-.16-1.76c-6.57-.09-13.14-.02-19.7-.07-.09 1.11-.17 2.21-.25 3.31-10.55 30.29-21.25 60.53-31.91 90.78-.89-.91-1.77-1.82-2.68-2.7 11.14-31.3 22.37-62.58 33.32-93.96zM67.3 160.42c4.87-13.32 9.41-26.76 14.34-40.06.88.86 1.76 1.74 2.64 2.62-4.4 12.47-8.75 24.98-13.2 37.44H67.3zm-2.36 5.71c.76-1.65 2.38-1.92 3.98-1.83 15.84.03 31.67.06 47.5 0 .18.49.52 1.48.69 1.98-17.39-.11-34.79.19-52.17-.15zm75.8-1.82c16.94.06 33.89-.04 50.83.06l.04 1.98c-17.18-.16-34.37-.05-51.55-.06.17-.5.51-1.48.68-1.98z" fill="#ebefdf"/><path d="M118.78 22.19c6.56.05 13.13-.02 19.7.07l.16 1.76c-.28 40.99 0 81.98-.15 122.96 0 2.25.03 4.51.33 6.75-2.04-2.52-5-3.94-8.01-4.95-.03-1.7-.05-3.4-.06-5.1 2.01-.02 4.03-.04 6.05-.07-.13-.5-.41-1.5-.54-2l-5.42.18c-.06-1.96-.15-3.92-.01-5.87 1.42-.56 2.91-.95 4.37-1.39-1.11-.2-3.34-.6-4.45-.81 0-2.02.01-4.05.01-6.07 2.01-.04 4.03-.08 6.05-.13-.11-.45-.33-1.37-.44-1.82-1.9-.07-3.79-.15-5.68-.23 0-1.97 0-3.93-.01-5.9 1.33-.14 2.65-.27 3.97-.4l.02-1.69c-1.33-.1-2.66-.21-3.98-.32.03-2.08.07-4.15.11-6.23 2.16-.12 4.31-.27 6.46-.5-2.05-.78-4.23-.9-6.39-.93-.06-2.21-.11-4.41-.15-6.62 1.58-.36 3.16-.71 4.73-1.12-1.56-.23-3.13-.44-4.69-.64 0-2.1 0-4.21.01-6.31 2.17-.07 4.34-.12 6.51-.28-1.37-2.31-4.24-1.61-6.49-1.89-.03-2.02-.05-4.03-.08-6.04 1.31-.09 2.62-.18 3.93-.26l.04-1.71-3.98-.3.09-6.06c2.15-.08 4.3-.22 6.45-.43-1.97-1.21-4.29-1.17-6.52-1.27.05-2.08.09-4.16.15-6.23.94 0 2.82.02 3.76.02l.06-1.82-3.95-.21c.01-2.02.01-4.04.02-6.05 2.21-.22 4.42-.48 6.63-.81-1.71-1.84-4.4-1.18-6.61-1.44-.02-2.12-.02-4.23-.03-6.35l4-.12c0-.28.01-.84.02-1.12-1.35-.04-2.7-.09-4.05-.12.04-2.29.07-4.57.12-6.85 2.17-.09 4.34-.33 6.46-.83-2.19-.38-4.37-.68-6.57-.94.04-2.07.09-4.14.14-6.21.95 0 2.85.02 3.8.03l-.03-1.88c-.94 0-2.84.01-3.79.02-.04-2.14-.07-4.27-.09-6.41 1.82.03 3.65.05 5.48.08.14-.48.43-1.44.57-1.92-1.59-.06-3.17-.14-4.76-.23-2-1.39-4.2-1.38-6.24-.06-1.69.14-3.38.26-5.07.4.89 2.64 4.03 1.48 6.12 1.86-.01 1.99-.01 3.98-.02 5.97-1.58.33-3.7.05-4.08 2.12 1.37.05 2.73.09 4.1.13 0 2.01.01 4.02.01 6.03-2.19.21-4.39.51-6.46 1.3 2.14.25 4.29.39 6.44.51.01 2.19.01 4.39.01 6.58-1.5.36-2.98.75-4.44 1.2 1.49.2 3 .38 4.5.54 0 2.1-.01 4.19-.02 6.29l-5.73.21c-.01.37-.01 1.11-.02 1.47l5.71.42c0 2.07 0 4.13.01 6.2-1.43.08-2.86.17-4.28.28.84 1.65 2.64 1.76 4.26 2.05 0 1.95 0 3.91.01 5.87-2.17.14-4.33.4-6.4 1.06 2.14.31 4.29.53 6.45.72.02 1.96.03 3.91.05 5.87-1.63.31-3.57.24-4.53 1.9 1.47.16 2.94.31 4.42.44 0 2.04.01 4.07.01 6.11-2.18.3-5.01-.45-6.27 1.89 2.08.13 4.17.2 6.25.25.01 2.12.01 4.24.02 6.36-1.47.19-2.94.39-4.4.6 1.47.38 2.93.74 4.4 1.11 0 2.2-.01 4.4-.01 6.6-2.11.08-4.24.19-6.23.97 2.06.23 4.14.39 6.21.52.02 2.11.03 4.22.05 6.34-1.27.05-2.55.1-3.81.16.05.46.16 1.39.22 1.86 1.2.02 2.4.04 3.61.07-.03 2.1-.05 4.2-.07 6.3-1.75-.04-3.5-.09-5.24-.14-.13.5-.39 1.52-.52 2.03 1.93.02 3.86.03 5.79.05 0 1.99 0 3.98.01 5.97-1.51.46-3.03.9-4.53 1.38 1.51.18 3.01.36 4.52.53 0 2.08-.01 4.16-.01 6.24-1.75-.05-3.49-.09-5.23-.13-.14.5-.42 1.5-.56 2.01 1.93.02 3.87.03 5.8.05-.01 1.73-.01 3.45-.02 5.18-3.94 1.19-7.83 3.21-9.69 7.09-10.85-11.09-21.93-21.95-32.87-32.96-.88-.88-1.76-1.76-2.64-2.62-1.4-1.38-2.8-2.76-4.17-4.16-5.08-6.09-11.14-11.32-16.62-17.05-2.49-2.22-4.41-5.21-7.45-6.72 1.88-1.07 3.45-2.58 4.85-4.2 7.42 7.16 14.49 14.67 21.99 21.74.01-.7.02-2.11.03-2.82l.65.03c-.05 1.2-.07 2.41-.07 3.61 1.04.91 2.08 1.84 3.09 2.79.91.88 1.79 1.79 2.68 2.7 10.6 10.7 21.3 21.32 31.94 31.98.06-40.92.11-81.84-.03-122.76.08-1.1.16-2.2.25-3.31zM35.17 73.53c1.53-1.34 2.97-2.77 4.38-4.24 1.69 1.88 3.48 3.67 5.24 5.49a28.139 28.139 0 0 0-4.29 3.94c-1.78-1.73-3.53-3.48-5.33-5.19z" fill="#fce358"/><path d="M138.64 24.02c16.05 45.39 31.62 90.94 47.48 136.39-14.91-.01-29.82.05-44.73-.03-.66-2.29-1.57-4.49-2.57-6.65-.3-2.24-.33-4.5-.33-6.75.15-40.98-.13-81.97.15-122.96zm-52.02 92.26c10.66-30.25 21.36-60.49 31.91-90.78.14 40.92.09 81.84.03 122.76-10.64-10.66-21.34-21.28-31.94-31.98zm-2.34 6.7c10.94 11.01 22.02 21.87 32.87 32.96-.45 1.46-.82 2.95-1.13 4.45-14.98.07-29.96.01-44.94.03 4.45-12.46 8.8-24.97 13.2-37.44zM46.44 249.59c4.01-.2 8.04-.1 12.06 0-3.97.74-8.1.77-12.06 0zm153.82 0c3.8-.19 7.6-.07 11.4.06-3.76.65-7.65.69-11.4-.06z" fill="#5a7cc1"/><path d="M125.81 27.12c2.04-1.32 4.24-1.33 6.24.06 1.59.09 3.17.17 4.76.23-.14.48-.43 1.44-.57 1.92-1.83-.03-3.66-.05-5.48-.08.02 2.14.05 4.27.09 6.41.95-.01 2.85-.02 3.79-.02l.03 1.88c-.95-.01-2.85-.03-3.8-.03-.05 2.07-.1 4.14-.14 6.21 2.2.26 4.38.56 6.57.94-2.12.5-4.29.74-6.46.83-.05 2.28-.08 4.56-.12 6.85 1.35.03 2.7.08 4.05.12-.01.28-.02.84-.02 1.12l-4 .12c.01 2.12.01 4.23.03 6.35 2.21.26 4.9-.4 6.61 1.44-2.21.33-4.42.59-6.63.81-.01 2.01-.01 4.03-.02 6.05l3.95.21-.06 1.82c-.94 0-2.82-.02-3.76-.02-.06 2.07-.1 4.15-.15 6.23 2.23.1 4.55.06 6.52 1.27-2.15.21-4.3.35-6.45.43l-.09 6.06 3.98.3-.04 1.71c-1.31.08-2.62.17-3.93.26.03 2.01.05 4.02.08 6.04 2.25.28 5.12-.42 6.49 1.89-2.17.16-4.34.21-6.51.28-.01 2.1-.01 4.21-.01 6.31 1.56.2 3.13.41 4.69.64-1.57.41-3.15.76-4.73 1.12.04 2.21.09 4.41.15 6.62 2.16.03 4.34.15 6.39.93-2.15.23-4.3.38-6.46.5-.04 2.08-.08 4.15-.11 6.23 1.32.11 2.65.22 3.98.32l-.02 1.69c-1.32.13-2.64.26-3.97.4.01 1.97.01 3.93.01 5.9 1.89.08 3.78.16 5.68.23.11.45.33 1.37.44 1.82-2.02.05-4.04.09-6.05.13 0 2.02-.01 4.05-.01 6.07 1.11.21 3.34.61 4.45.81-1.46.44-2.95.83-4.37 1.39-.14 1.95-.05 3.91.01 5.87l5.42-.18c.13.5.41 1.5.54 2-2.02.03-4.04.05-6.05.07.01 1.7.03 3.4.06 5.1 3.01 1.01 5.97 2.43 8.01 4.95 1 2.16 1.91 4.36 2.57 6.65-.17 1.32-.39 2.63-.65 3.93-.17.5-.51 1.48-.68 1.98-1.44 2.4-3.22 4.83-5.9 5.93-6.12 2.86-14.01.07-17.05-5.94-.17-.5-.51-1.49-.69-1.98-.18-1.3-.31-2.61-.4-3.91.31-1.5.68-2.99 1.13-4.45 1.86-3.88 5.75-5.9 9.69-7.09.01-1.73.01-3.45.02-5.18-1.93-.02-3.87-.03-5.8-.05.14-.51.42-1.51.56-2.01 1.74.04 3.48.08 5.23.13 0-2.08.01-4.16.01-6.24-1.51-.17-3.01-.35-4.52-.53 1.5-.48 3.02-.92 4.53-1.38-.01-1.99-.01-3.98-.01-5.97-1.93-.02-3.86-.03-5.79-.05.13-.51.39-1.53.52-2.03 1.74.05 3.49.1 5.24.14.02-2.1.04-4.2.07-6.3-1.21-.03-2.41-.05-3.61-.07-.06-.47-.17-1.4-.22-1.86 1.26-.06 2.54-.11 3.81-.16-.02-2.12-.03-4.23-.05-6.34-2.07-.13-4.15-.29-6.21-.52 1.99-.78 4.12-.89 6.23-.97 0-2.2.01-4.4.01-6.6-1.47-.37-2.93-.73-4.4-1.11 1.46-.21 2.93-.41 4.4-.6-.01-2.12-.01-4.24-.02-6.36-2.08-.05-4.17-.12-6.25-.25 1.26-2.34 4.09-1.59 6.27-1.89 0-2.04-.01-4.07-.01-6.11-1.48-.13-2.95-.28-4.42-.44.96-1.66 2.9-1.59 4.53-1.9-.02-1.96-.03-3.91-.05-5.87-2.16-.19-4.31-.41-6.45-.72 2.07-.66 4.23-.92 6.4-1.06-.01-1.96-.01-3.92-.01-5.87-1.62-.29-3.42-.4-4.26-2.05 1.42-.11 2.85-.2 4.28-.28-.01-2.07-.01-4.13-.01-6.2l-5.71-.42c.01-.36.01-1.1.02-1.47l5.73-.21c.01-2.1.02-4.19.02-6.29-1.5-.16-3.01-.34-4.5-.54 1.46-.45 2.94-.84 4.44-1.2 0-2.19 0-4.39-.01-6.58-2.15-.12-4.3-.26-6.44-.51 2.07-.79 4.27-1.09 6.46-1.3 0-2.01-.01-4.02-.01-6.03-1.37-.04-2.73-.08-4.1-.13.38-2.07 2.5-1.79 4.08-2.12.01-1.99.01-3.98.02-5.97-2.09-.38-5.23.78-6.12-1.86 1.69-.14 3.38-.26 5.07-.4zM97.27 59.49c.01-.04.05-.12.06-.16-.01.04-.05.12-.06.16zM44.79 74.78c3.68-1.76 8.57-1.04 11.32 2.09 3.24 2.75 3.01 7.58 2.14 11.36-1.4 1.62-2.97 3.13-4.85 4.2l-2.75 1.04c-2.06 1.03-4.08-.58-6.07-1a94.37 94.37 0 0 0-3.34-2.64c-.46-.81-.93-1.63-1.4-2.44.15-2.88-.4-5.91.66-8.67 1.28-1.46 2.73-2.77 4.29-3.94zm165.81 130.5c.03.07.08.22.1.29l-.05-.14-.05-.15z" fill="#913e59"/></svg>