<svg width="460pt" height="460pt" viewBox="0 0 460 460" xmlns="http://www.w3.org/2000/svg"><path d="M211.49 1.81c36.77-3 74.28 2.92 108.21 17.46 35.15 14.97 66.43 38.91 90.04 68.95 20.65 25.95 35.38 56.52 43.06 88.76 11.05 46.75 7.19 97-11.48 141.31-15.99 38.39-42.76 72.2-76.38 96.67-33.09 24.36-72.95 39.41-113.88 43.03-29.58 2.66-59.71-.24-88.1-9.01-31.16-9.46-60.17-25.83-84.53-47.43-31.56-27.74-55.22-64.37-67.44-104.57-10.45-34-12.59-70.43-6.73-105.48 6.47-38.75 23.35-75.65 48.22-106.05C91.22 37.54 149.97 6.3 211.49 1.81m1.05 19.94C160.95 25.86 111.23 50.1 76.53 88.53c-41.9 44.17-61.81 107.72-53.81 167.96 4.61 37.29 19.71 73.21 43.04 102.67 18.71 23.24 41.89 43.1 68.58 56.63 28.24 14.64 59.88 22.59 91.68 23.13 47.54 1.1 95.25-14.8 132.61-44.23 6.7-5.27 12.86-11.2 19.16-16.94 6.35-6.96 12.89-13.77 18.6-21.29 7.65-10.03 14.35-20.78 20.05-32.04 21.97-42.87 28.06-93.49 17.43-140.44-7.14-31.84-21.95-61.95-42.79-87.06-4.25-4.76-8.53-9.48-12.84-14.16-4.21-4.12-8.7-7.93-13-11.93-41.57-36-97.98-53.85-152.7-49.08z"/><path fill="#fff" d="M246.59 137.27c2.54-1.58 5.6-1.7 8.43-2.44 2.42.67 4.86 1.27 7.31 1.85 7.94 4.36 12.3 12.79 14.94 21.12 2.71 7.52 4.68 15.34 5.71 23.27 1.27 4.27 1.02 8.83 2.21 13.1 2.48 22.06 4.38 44.3 9.52 65.96.32 1 .64 2.01.95 3.03.85.53 1.71 1.08 2.57 1.63 2.34-2.5 3.54-5.77 4.61-8.95.43-1.29.82-2.58 1.27-3.85.28-1.29.56-2.58.92-3.84 2.53-10.88 5.04-21.78 8.64-32.37 2.28-6.96 7.04-13.46 13.85-16.51 4.65-1.31 9.59-.86 13.98 1.19 4.25 2.69 7.91 6.39 10.41 10.77.22.49.67 1.47.9 1.97 1.33 2.72 2.59 5.48 3.94 8.2 2.66 6.09 4.98 12.46 9.15 17.73 2.13 2.78 5.64 4.36 9.12 4.37 14.27.03 28.55-.05 42.82.04.05 6.4.01 12.79.03 19.19-15.65-.01-31.29-.01-46.93.01-1.35.01-2.67-.21-3.96-.55-5.93-1.74-11.41-5.1-15.42-9.82-3.2-3.57-5.52-7.77-7.98-11.84-.47-1.19-.94-2.38-1.37-3.57-2.8-5.21-4.2-11.21-8.03-15.81-.58.36-1.73 1.09-2.31 1.46-3.36 11.34-6.04 22.87-8.94 34.33-1.21 4.29-2.81 8.46-4.61 12.54-3.12 6.07-7.06 12.24-13.41 15.32-1.23.44-2.46.86-3.68 1.32-1.77.21-3.53.48-5.24.99-3.89-.55-7.9-1.41-10.85-4.22-5.37-5.81-8.35-13.38-10.05-21.01-.45-1.63-.77-3.29-1.25-4.91-4.19-21.53-6.06-43.4-8.64-65.15-.97-2.43-.55-5.13-1.33-7.61-1.21-8.86-3.85-17.43-6.98-25.78-1.51-.01-3.69-.46-3.89 1.71-3.03 7.98-4.95 16.37-6 24.84-.64 2.04-.65 4.19-.79 6.3-1.23 2.76-.16 5.92-1.45 8.65-.31 2.99.18 6.12-.94 8.99-1.59 24.76-3.45 49.49-6.76 74.13-.6 2.23-.65 4.55-1.27 6.77-.39 3.06-1.04 6.09-1.74 9.1-1.65 7.36-4.68 14.33-8.68 20.71-1.25 1.26-2.51 2.51-3.78 3.77-2.72 1.3-5.6 2.17-8.55 2.77-1.7-.53-3.46-.81-5.21-1.09-.5-.2-1.52-.61-2.03-.81-3.97-2.26-7.12-5.66-9.71-9.38-4.12-7.17-7.04-15.01-8.98-23.03-.45-1.62-.78-3.25-1.25-4.86-.28-1.31-.55-2.61-.88-3.9-2.35-10.33-4.2-20.77-6.1-31.19-.45-1.64-.58-3.33-.75-5.01-.88-3.63-1.38-7.35-2.27-10.97-1.02-6.43-2.86-12.71-5.17-18.79-.46-1.3-1.74-2.04-2.63-3.01-.74 1.26-1.47 2.53-2.17 3.81-4.38 12.98-6.34 26.58-8.68 40.03-1.84 11.17-4.61 22.26-9.44 32.55-3.21 5.54-8.26 10.87-14.97 11.58-1.87.87-3.92.53-5.77-.2-.63-.05-1.89-.13-2.52-.18-9.64-3.5-14.83-13.25-17.89-22.43-2.47-7.13-4.91-14.27-7.42-21.39-.23-.51-.7-1.52-.94-2.03-1.88-3.98-4.28-7.95-8.33-10-1.26-.23-2.54-.4-3.82-.41-14.18.01-28.36.02-42.54 0a94.26 94.26 0 0 1 0-19.94c13.81-.04 27.61.02 41.42-.03 8.26 0 16.75 2.87 22.39 9.12 4.49 5.05 8.19 10.94 10.44 17.34 3.22 8.33 5.75 16.91 9.1 25.2.32.86.63 1.73.93 2.61.75.09 2.25.27 3 .35 3.48-6.14 4.58-13.2 6.1-19.99 2.54-14.8 4.82-29.69 9.02-44.14 2.35-7.5 5.53-15.13 11.62-20.39 3.11-2.85 7.4-3.66 11.38-4.56 7.48.41 13.5 5.83 16.94 12.16 4.78 10.45 8.09 21.58 9.99 32.91.51 1.99.72 4.03 1.21 6.02.25 1.62.47 3.25.89 4.84 1.79 12.14 4.47 24.14 6.88 36.16.71 2.3 1.47 4.6 1.83 6.99 1.56 3.64 1.72 8.2 4.89 10.93.71-.35 1.41-.73 2.09-1.13.44-1.67.85-3.34 1.24-5.01.84-3.59 1.26-7.26 2.18-10.82 3.78-26.94 5.35-54.05 7.86-81.08.79-5.31.91-10.74 2.11-15.98 1.09-11.9 3.99-23.6 8.16-34.79 2.45-5.82 5.83-11.6 11.35-14.96z"/><path fill="#3498db" d="M212.54 21.75c54.72-4.77 111.13 13.08 152.7 49.08 4.3 4 8.79 7.81 13 11.93 4.31 4.68 8.59 9.4 12.84 14.16 20.84 25.11 35.65 55.22 42.79 87.06 10.63 46.95 4.54 97.57-17.43 140.44-5.7 11.26-12.4 22.01-20.05 32.04-5.71 7.52-12.25 14.33-18.6 21.29-6.3 5.74-12.46 11.67-19.16 16.94-37.36 29.43-85.07 45.33-132.61 44.23-31.8-.54-63.44-8.49-91.68-23.13-26.69-13.53-49.87-33.39-68.58-56.63-23.33-29.46-38.43-65.38-43.04-102.67-8-60.24 11.91-123.79 53.81-167.96 34.7-38.43 84.42-62.67 136.01-66.78m34.05 115.52c-5.52 3.36-8.9 9.14-11.35 14.96-4.17 11.19-7.07 22.89-8.16 34.79-1.2 5.24-1.32 10.67-2.11 15.98-2.51 27.03-4.08 54.14-7.86 81.08-.92 3.56-1.34 7.23-2.18 10.82-.39 1.67-.8 3.34-1.24 5.01-.68.4-1.38.78-2.09 1.13-3.17-2.73-3.33-7.29-4.89-10.93-.36-2.39-1.12-4.69-1.83-6.99-2.41-12.02-5.09-24.02-6.88-36.16-.42-1.59-.64-3.22-.89-4.84-.49-1.99-.7-4.03-1.21-6.02-1.9-11.33-5.21-22.46-9.99-32.91-3.44-6.33-9.46-11.75-16.94-12.16-3.98.9-8.27 1.71-11.38 4.56-6.09 5.26-9.27 12.89-11.62 20.39-4.2 14.45-6.48 29.34-9.02 44.14-1.52 6.79-2.62 13.85-6.1 19.99-.75-.08-2.25-.26-3-.35-.3-.88-.61-1.75-.93-2.61-3.35-8.29-5.88-16.87-9.1-25.2-2.25-6.4-5.95-12.29-10.44-17.34-5.64-6.25-14.13-9.12-22.39-9.12-13.81.05-27.61-.01-41.42.03a94.26 94.26 0 0 0 0 19.94c14.18.02 28.36.01 42.54 0 1.28.01 2.56.18 3.82.41 4.05 2.05 6.45 6.02 8.33 10 .24.51.71 1.52.94 2.03 2.51 7.12 4.95 14.26 7.42 21.39 3.06 9.18 8.25 18.93 17.89 22.43.63.05 1.89.13 2.52.18 1.85.73 3.9 1.07 5.77.2 6.71-.71 11.76-6.04 14.97-11.58 4.83-10.29 7.6-21.38 9.44-32.55 2.34-13.45 4.3-27.05 8.68-40.03.7-1.28 1.43-2.55 2.17-3.81.89.97 2.17 1.71 2.63 3.01 2.31 6.08 4.15 12.36 5.17 18.79.89 3.62 1.39 7.34 2.27 10.97.17 1.68.3 3.37.75 5.01 1.9 10.42 3.75 20.86 6.1 31.19.33 1.29.6 2.59.88 3.9.47 1.61.8 3.24 1.25 4.86 1.94 8.02 4.86 15.86 8.98 23.03 2.59 3.72 5.74 7.12 9.71 9.38.51.2 1.53.61 2.03.81 1.75.28 3.51.56 5.21 1.09 2.95-.6 5.83-1.47 8.55-2.77 1.27-1.26 2.53-2.51 3.78-3.77 4-6.38 7.03-13.35 8.68-20.71.7-3.01 1.35-6.04 1.74-9.1.62-2.22.67-4.54 1.27-6.77 3.31-24.64 5.17-49.37 6.76-74.13 1.12-2.87.63-6 .94-8.99 1.29-2.73.22-5.89 1.45-8.65.14-2.11.15-4.26.79-6.3 1.05-8.47 2.97-16.86 6-24.84.2-2.17 2.38-1.72 3.89-1.71 3.13 8.35 5.77 16.92 6.98 25.78.78 2.48.36 5.18 1.33 7.61 2.58 21.75 4.45 43.62 8.64 65.15.48 1.62.8 3.28 1.25 4.91 1.7 7.63 4.68 15.2 10.05 21.01 2.95 2.81 6.96 3.67 10.85 4.22 1.71-.51 3.47-.78 5.24-.99 1.22-.46 2.45-.88 3.68-1.32 6.35-3.08 10.29-9.25 13.41-15.32 1.8-4.08 3.4-8.25 4.61-12.54 2.9-11.46 5.58-22.99 8.94-34.33.58-.37 1.73-1.1 2.31-1.46 3.83 4.6 5.23 10.6 8.03 15.81.43 1.19.9 2.38 1.37 3.57 2.46 4.07 4.78 8.27 7.98 11.84 4.01 4.72 9.49 8.08 15.42 9.82 1.29.34 2.61.56 3.96.55 15.64-.02 31.28-.02 46.93-.01-.02-6.4.02-12.79-.03-19.19-14.27-.09-28.55-.01-42.82-.04-3.48-.01-6.99-1.59-9.12-4.37-4.17-5.27-6.49-11.64-9.15-17.73-1.35-2.72-2.61-5.48-3.94-8.2-.23-.5-.68-1.48-.9-1.97-2.5-4.38-6.16-8.08-10.41-10.77-4.39-2.05-9.33-2.5-13.98-1.19-6.81 3.05-11.57 9.55-13.85 16.51-3.6 10.59-6.11 21.49-8.64 32.37-.36 1.26-.64 2.55-.92 3.84-.45 1.27-.84 2.56-1.27 3.85-1.07 3.18-2.27 6.45-4.61 8.95-.86-.55-1.72-1.1-2.57-1.63-.31-1.02-.63-2.03-.95-3.03-5.14-21.66-7.04-43.9-9.52-65.96-1.19-4.27-.94-8.83-2.21-13.1-1.03-7.93-3-15.75-5.71-23.27-2.64-8.33-7-16.76-14.94-21.12-2.45-.58-4.89-1.18-7.31-1.85-2.83.74-5.89.86-8.43 2.44z"/></svg>