<svg width="512pt" height="512pt" viewBox="0 0 512 512" xmlns="http://www.w3.org/2000/svg"><path d="M257.56 11.69c12.1-2.22 25.35 1.94 33.68 11.07 65.84 65.84 131.67 131.67 197.51 197.5 5.14 5.57 11.58 10.23 14.86 17.27 6.44 12.22 5.3 27.98-2.86 39.13-2.26 3.38-5.31 6.11-8.14 8.99-67.5 67.5-134.99 135-202.48 202.5-6.58 6.45-12.77 14.01-21.79 17.07-13.46 5.38-30.04 2.07-40.07-8.48-68.84-68.83-137.68-137.68-206.52-206.52-5.04-4.85-8.29-11.39-9.77-18.19-2.85-12.33 1.27-25.94 10.34-34.74 71.67-71.67 143.34-143.34 215.01-215 5.42-5.53 12.6-9.29 20.23-10.6m.04 3.02c-7.12 1.33-13.7 5.02-18.72 10.21-70.68 70.66-141.33 141.33-212 211.98-3.24 3.15-6.38 6.5-8.51 10.52-5.78 10.37-5.66 23.7.31 33.96 2.19 3.97 5.39 7.23 8.6 10.37 67.67 67.65 135.31 135.35 203 202.99 10 10.17 26.46 12.95 39.29 6.77 7.08-3.11 12.02-9.25 17.45-14.5C356.01 418.02 425 349.03 493.98 280.04c5.92-5.7 9.84-13.46 10.63-21.66 1.16-10.49-2.79-21.33-10.38-28.65C425.9 161.39 357.56 93.06 289.22 24.74c-7.99-8.36-20.26-12.29-31.62-10.03z"/><path d="M258.42 21.51c9.33-2.11 19.38 1.26 25.94 8.14 68.35 68.33 136.7 136.67 205.02 205.03 7.3 7.16 10.65 18.37 7.36 28.2-1.6 5.96-5.86 10.61-10.18 14.8-68.66 68.64-137.3 137.3-205.95 205.95-3.71 3.66-7.24 7.61-11.66 10.46-6.23 3.59-13.89 5.02-20.89 3.02-5.42-1.15-10.04-4.44-13.91-8.27-68.16-68.17-136.34-136.32-204.49-204.5-5.66-5.54-9.25-13.38-8.67-21.38.13-7.78 4.25-14.93 9.78-20.19 71.01-70.98 141.99-141.99 213-212.97 4.04-4.01 8.98-7.23 14.65-8.29m-1.13 10.02c-2.9 1.11-5.47 2.93-7.63 5.14-70.01 70.02-140.02 140.03-210.03 210.04-3.34 3.36-7.18 6.68-8.43 11.45-2.32 7.08-.09 15.23 5.34 20.3 68.18 68.15 136.33 136.35 204.53 204.49 7.27 7.58 20.49 7.45 27.65-.23 71.34-71.31 142.66-142.64 213.97-213.97 7.64-7.12 7.97-20.47.29-27.67C414.84 172.85 346.62 104.7 278.45 36.5c-5.27-5.67-13.93-7.73-21.16-4.97z"/><path d="M172.42 175.61c7.12-2.22 15.25 3.12 16.06 10.51 1.19 6.92-4.38 13.98-11.36 14.49-6.43.81-12.85-4.06-13.84-10.45-1.29-6.27 2.95-12.98 9.14-14.55z"/><path d="M123.67 216.7c11.97-6.91 23.79-14.06 35.59-21.26 5.8 3.26 11.6 6.52 17.37 9.83 3.98 9.01 7.97 18.01 12 26.99-1.7 5.21-3.37 10.43-5.25 15.57.41.13 1.21.39 1.62.52 52.14 9.74 104.3 19.47 156.45 29.19 0-5.08.05-10.16.01-15.24 6.63-7.35 13.39-14.58 20.05-21.9 6.52-1.3 13.05-2.53 19.57-3.78 8.86 10.5 17.7 21.02 26.81 31.3 5.62 6.03 4.77 17.29-2.54 21.62 6.08.97 12.12 2.22 18.18 3.32-.99 5.33-1.98 10.66-2.99 15.99-16.89-3.16-33.78-6.3-50.68-9.45-6.01 7.99-11.88 16.08-17.94 24.03-4.93-2.28-9.61-5.67-14.36-8.5 2.43-6.72 6.2-13.21 9.07-19.88-31.06-5.76-62.11-11.62-93.18-17.35 5.2 4.52 10.52 8.89 15.75 13.37-.01 17.57.01 35.13-.01 52.7-11.29 0-22.58.01-33.87 0-.02-17.55.03-35.09-.02-52.64 5.36-4.67 10.87-9.16 16.25-13.81-26.06-4.85-52.12-9.73-78.19-14.58.81 6.93 1.65 13.86 2.48 20.79-5.52 1.26-11.04 2.53-16.58 3.75-3.14-9.65-6.26-19.3-9.44-28.94-18.15-3.37-36.3-6.77-54.45-10.15.98-5.33 1.98-10.66 2.98-15.98 6.52 1.22 13.05 2.37 19.55 3.69-3.17-6.65-.75-15.56 5.77-19.2m33.37 13.34c3.37 5.04 6.87 9.98 10.28 15 2.84.57 5.69 1.09 8.54 1.6.28-3.22.56-6.44.68-9.67.78-6.98-6.4-10.88-11.22-14.43-2.77 2.49-5.51 5.01-8.28 7.5m195.89 36.95c-1.95 3.68-2.51 7.93-3.7 11.9 2.94.75 5.94 1.19 8.92 1.76 4.68-3.5 9.36-6.98 14.01-10.5-1.85-3.28-3.59-6.62-5.56-9.83-4.74 1.64-10.25 2.7-13.67 6.67z"/><path d="M363.2 212.28c6.79-2.85 15.31 1.54 16.94 8.71 2.01 6.87-2.96 14.65-10.02 15.76-6.51 1.38-13.49-3.24-14.79-9.76-1.47-5.97 2.1-12.61 7.87-14.71z"/><g fill="#f9dc55"><path d="M257.6 14.71c11.36-2.26 23.63 1.67 31.62 10.03 68.34 68.32 136.68 136.65 205.01 204.99 7.59 7.32 11.54 18.16 10.38 28.65-.79 8.2-4.71 15.96-10.63 21.66C425 349.03 356.01 418.02 287.02 487.01c-5.43 5.25-10.37 11.39-17.45 14.5-12.83 6.18-29.29 3.4-39.29-6.77-67.69-67.64-135.33-135.34-203-202.99-3.21-3.14-6.41-6.4-8.6-10.37-5.97-10.26-6.09-23.59-.31-33.96 2.13-4.02 5.27-7.37 8.51-10.52 70.67-70.65 141.32-141.32 212-211.98 5.02-5.19 11.6-8.88 18.72-10.21m.82 6.8c-5.67 1.06-10.61 4.28-14.65 8.29-71.01 70.98-141.99 141.99-213 212.97-5.53 5.26-9.65 12.41-9.78 20.19-.58 8 3.01 15.84 8.67 21.38 68.15 68.18 136.33 136.33 204.49 204.5 3.87 3.83 8.49 7.12 13.91 8.27 7 2 14.66.57 20.89-3.02 4.42-2.85 7.95-6.8 11.66-10.46 68.65-68.65 137.29-137.31 205.95-205.95 4.32-4.19 8.58-8.84 10.18-14.8 3.29-9.83-.06-21.04-7.36-28.2-68.32-68.36-136.67-136.7-205.02-205.03-6.56-6.88-16.61-10.25-25.94-8.14z"/><path d="M257.29 31.53c7.23-2.76 15.89-.7 21.16 4.97 68.17 68.2 136.39 136.35 204.53 204.58 7.68 7.2 7.35 20.55-.29 27.67-71.31 71.33-142.63 142.66-213.97 213.97-7.16 7.68-20.38 7.81-27.65.23-68.2-68.14-136.35-136.34-204.53-204.49-5.43-5.07-7.66-13.22-5.34-20.3 1.25-4.77 5.09-8.09 8.43-11.45 70.01-70.01 140.02-140.02 210.03-210.04 2.16-2.21 4.73-4.03 7.63-5.14m-84.87 144.08c-6.19 1.57-10.43 8.28-9.14 14.55.99 6.39 7.41 11.26 13.84 10.45 6.98-.51 12.55-7.57 11.36-14.49-.81-7.39-8.94-12.73-16.06-10.51m-48.75 41.09c-6.52 3.64-8.94 12.55-5.77 19.2-6.5-1.32-13.03-2.47-19.55-3.69-1 5.32-2 10.65-2.98 15.98 18.15 3.38 36.3 6.78 54.45 10.15 3.18 9.64 6.3 19.29 9.44 28.94 5.54-1.22 11.06-2.49 16.58-3.75-.83-6.93-1.67-13.86-2.48-20.79 26.07 4.85 52.13 9.73 78.19 14.58-5.38 4.65-10.89 9.14-16.25 13.81.05 17.55 0 35.09.02 52.64 11.29.01 22.58 0 33.87 0 .02-17.57 0-35.13.01-52.7-5.23-4.48-10.55-8.85-15.75-13.37 31.07 5.73 62.12 11.59 93.18 17.35-2.87 6.67-6.64 13.16-9.07 19.88 4.75 2.83 9.43 6.22 14.36 8.5 6.06-7.95 11.93-16.04 17.94-24.03 16.9 3.15 33.79 6.29 50.68 9.45 1.01-5.33 2-10.66 2.99-15.99-6.06-1.1-12.1-2.35-18.18-3.32 7.31-4.33 8.16-15.59 2.54-21.62-9.11-10.28-17.95-20.8-26.81-31.3-6.52 1.25-13.05 2.48-19.57 3.78-6.66 7.32-13.42 14.55-20.05 21.9.04 5.08-.01 10.16-.01 15.24-52.15-9.72-104.31-19.45-156.45-29.19-.41-.13-1.21-.39-1.62-.52 1.88-5.14 3.55-10.36 5.25-15.57-4.03-8.98-8.02-17.98-12-26.99-5.77-3.31-11.57-6.57-17.37-9.83-11.8 7.2-23.62 14.35-35.59 21.26m239.53-4.42c-5.77 2.1-9.34 8.74-7.87 14.71 1.3 6.52 8.28 11.14 14.79 9.76 7.06-1.11 12.03-8.89 10.02-15.76-1.63-7.17-10.15-11.56-16.94-8.71z"/><path d="M157.04 230.04c2.77-2.49 5.51-5.01 8.28-7.5 4.82 3.55 12 7.45 11.22 14.43-.12 3.23-.4 6.45-.68 9.67-2.85-.51-5.7-1.03-8.54-1.6-3.41-5.02-6.91-9.96-10.28-15zm195.89 36.95c3.42-3.97 8.93-5.03 13.67-6.67 1.97 3.21 3.71 6.55 5.56 9.83-4.65 3.52-9.33 7-14.01 10.5-2.98-.57-5.98-1.01-8.92-1.76 1.19-3.97 1.75-8.22 3.7-11.9z"/></g></svg>