<svg width="128pt" height="128pt" viewBox="0 0 128 128" xmlns="http://www.w3.org/2000/svg"><path d="M41.07 11.41c6.21-7.09 17.4-8.95 25.6-4.35 3.76 2.69 7.05 6.04 9.35 10.06.44 1.11.76 2.25.96 3.43 2.84-3.64 7.29-6.35 12.04-6.04 5.51-.27 10.57 3.5 12.9 8.33.58 1.91.93 3.89 1.02 5.89-.08.37-.23 1.11-.31 1.48-.53-2.79-1-5.7-2.67-8.08-3.33-5.46-10.93-7.7-16.66-4.82-3.26 1.31-5.26 4.32-6.99 7.21-5.06.32-10.35.84-14.28 4.41 1.91-1.54 3.7-3.44 6.14-4.09 2.59-.56 5.26-.68 7.89-.95C74.95 17 70.34 10.67 63.66 8.3c-9.23-4.05-20.79 1-24.85 10.03-.22-.5-.66-1.51-.87-2.01.96-1.68 1.99-3.33 3.13-4.91zM31.33 79.1c.16.15.5.44.67.58 1.13 1.01 2.21 2.07 3.34 3.08-1.22-.82-2.65-1.53-3.48-2.79-.13-.22-.4-.65-.53-.87zm56.25 17.97c.43-.34 1.27-1.03 1.7-1.38.57.18 1.71.54 2.28.71l.89 1.37.55 1.38-1.06.7c-1.35.55-2.77.92-4.15 1.36-.09-1.38-.16-2.76-.21-4.14z" fill="#cbe2ff"/><path fill="#4896de" d="M38.81 18.33C42.87 9.3 54.43 4.25 63.66 8.3c6.68 2.37 11.29 8.7 12.4 15.59-2.63.27-5.3.39-7.89.95-2.44.65-4.23 2.55-6.14 4.09 3.93-3.57 9.22-4.09 14.28-4.41 1.73-2.89 3.73-5.9 6.99-7.21 5.73-2.88 13.33-.64 16.66 4.82 1.67 2.38 2.14 5.29 2.67 8.08-1.92-.85-3.63.12-5.2 1.15-3.32 2.19-7.45 1.99-11.25 2.09-4.73.01-9.47.49-14.2.23-3.12-.13-5.91-1.86-9.01-2.06-1.83.37-2.68 2.26-3.79 3.54.5-2.33.91-4.68 1.46-7.01-1.38-.2-2.75-.47-4.12-.68-.13-.71-.26-1.41-.38-2.12-6.43.15-11.85-3.69-18.05-4.54.24-.82.48-1.65.72-2.48z"/><path opacity=".97" d="M66.67 7.06c4.33 1.89 7.57 5.76 9.35 10.06-2.3-4.02-5.59-7.37-9.35-10.06zm-56.1 72.39c4.77-.81 9.6-1.16 14.39-1.71 2.19-.21 4.8-.57 6.37 1.36.13.22.4.65.53.87-5.65 5.77-15.92 5.49-21.29-.52z" fill="#0e4d8b"/><path fill="#2e4157" opacity=".37" d="M31.01 18.1c3.58-1.86 7.07-3.93 10.06-6.69-1.14 1.58-2.17 3.23-3.13 4.91-.31.51-.91 1.52-1.21 2.03-1.91-.12-3.82-.23-5.72-.25z"/><path d="M36.73 18.35c.3-.51.9-1.52 1.21-2.03.21.5.65 1.51.87 2.01-.24.83-.48 1.66-.72 2.48-4.86-.47-10.04-.63-14.5 1.67-2.43 1.02-4.58 3.19-7.41 2.76.41-.44 1.24-1.32 1.65-1.76 3.61-3.2 8.27-5.49 13.18-5.38 1.9.02 3.81.13 5.72.25zm42.21 31.24c1.29-.78 2.53-1.63 3.83-2.4.03-.02.1-.05.14-.07 2.13 1.74 4.3 3.73 7.11 4.21 2.05.17 4.08-.32 6.09-.66-1.69.36-3.39.78-5.13.9-3.05-.14-5.57-2.11-8.09-3.62-1.32.54-2.64 1.07-3.95 1.64z" fill="#94bfef"/><path fill="#3c8cd1" d="M23.59 22.48c4.46-2.3 9.64-2.14 14.5-1.67 6.2.85 11.62 4.69 18.05 4.54.12.71.25 1.41.38 2.12 1.37.21 2.74.48 4.12.68-.55 2.33-.96 4.68-1.46 7.01-.12.39-.38 1.17-.5 1.56-2.58-.37-5.15-.79-7.74-1.04-4.85-.59-9.63 1.34-14.48.61-4.18-.54-8.57-.47-12.42-2.43-2.79-1.37-6-1.73-9.02-1.01-1.44.96-1.47 2.96-2.22 4.39-.27.14-.83.41-1.11.55-.11-1.02-.2-2.03-.28-3.04.66-3.54 2.37-6.84 4.77-9.51 2.83.43 4.98-1.74 7.41-2.76z"/><path fill="#090f16" opacity=".11" d="M10.71 27.68c1.96-1.94 3.92-4.95 7.12-4.2-.41.44-1.24 1.32-1.65 1.76-2.4 2.67-4.11 5.97-4.77 9.51-1.03 4.05-.32 8.27 1.12 12.12 1.54 3.71 4.33 6.65 7.15 9.42-1.14.08-2.25.3-3.33.66l-.95.37c-.03-1.1.81-2.51-.26-3.37-3.34-3.48-7.02-7.15-7.93-12.11-1.29-4.93 0-10.43 3.5-14.16z"/><path fill="#1d2a3a" opacity=".26" d="M101.92 22.84c3.1 1.65 4.3 5.56 8.1 6.14-2.35-.2-4.72-.25-7.08-.25-.09-2-.44-3.98-1.02-5.89z"/><path fill="#307ec3" d="M97.43 31.36c1.57-1.03 3.28-2 5.2-1.15 5.65-.04 11.77.51 15.85 4.96-2.46 1.74-4.63 4.05-7.49 5.11-4.76.36-9.21-2.05-13.97-1.99-7.99-.03-16.05-.5-23.97.84-4.04.84-8.01-.45-11.83-1.63-1.14.83-2.32 1.61-3.46 2.44-5.54-.59-11.14-1.02-16.7-.49-4.05.37-8.09 1.89-12.16.92-5.37-1.08-10.46-3.88-16.1-3.13.75-1.43.78-3.43 2.22-4.39 3.02-.72 6.23-.36 9.02 1.01 3.85 1.96 8.24 1.89 12.42 2.43 4.85.73 9.63-1.2 14.48-.61 2.59.25 5.16.67 7.74 1.04.12-.39.38-1.17.5-1.56 1.11-1.28 1.96-3.17 3.79-3.54 3.1.2 5.89 1.93 9.01 2.06 4.73.26 9.47-.22 14.2-.23 3.8-.1 7.93.1 11.25-2.09z"/><path d="M102.94 28.73c2.36 0 4.73.05 7.08.25 7.75 1.3 12.65 9.54 11.34 17.07l-.02-.8c.06-3.57-.62-7.19-2.86-10.08-4.08-4.45-10.2-5-15.85-4.96.08-.37.23-1.11.31-1.48zM33.01 90.55l5.08-.12c1.58 2.31 3.06 4.7 4.03 7.34-3.89-.47-7.78-1.04-11.71-.86-.28 1.48-.56 2.95-.85 4.42-.91-4.07 1.03-7.67 3.45-10.78zm29.97 10.02c1.69-.05 3.39-.11 5.09-.16 1.58 2.27 3.01 4.65 4.05 7.23-3.91-.23-7.83-.37-11.75-.38-.27 1.36-.54 2.73-.81 4.1-.93-4.07 1.03-7.67 3.42-10.79z" fill="#89b5ff"/><path fill="#2169af" d="M11.41 34.75c.08 1.01.17 2.02.28 3.04.28-.14.84-.41 1.11-.55 5.64-.75 10.73 2.05 16.1 3.13 4.07.97 8.11-.55 12.16-.92 5.56-.53 11.16-.1 16.7.49 1.14-.83 2.32-1.61 3.46-2.44 3.82 1.18 7.79 2.47 11.83 1.63 7.92-1.34 15.98-.87 23.97-.84 4.76-.06 9.21 2.35 13.97 1.99 2.86-1.06 5.03-3.37 7.49-5.11 2.24 2.89 2.92 6.51 2.86 10.08-2.81 1.11-5.45 2.64-8.34 3.54-4.81-.07-9.23-2.52-14.03-2.84-5.34-.38-11.07-1.27-16.06 1.17-.04.02-.11.05-.14.07-1.66-3.5-5.72-2.54-8.81-2.18-3.97.68-8.01.66-12.01.31 2.48 6.89 11.36 7.52 16.99 4.27 1.31-.57 2.63-1.1 3.95-1.64 2.52 1.51 5.04 3.48 8.09 3.62 1.74-.12 3.44-.54 5.13-.9l.53-.11c.77 1.36 1.53 2.73 2.29 4.11-2.45.71-4.88 1.84-7.48 1.74-4.99-.73-9.34-4.03-14.5-3.95-9.54.25-19.15-3.94-28.56-.78-2.64-2.28-5.76-4.26-9.33-4.54-3.45-.44-6.7 1.08-9.65 2.68-5.22-2.43-11.12-4.21-16.88-2.95-1.44-3.85-2.15-8.07-1.12-12.12z"/><path fill="#115495" d="M61.95 45.32c4 .35 8.04.37 12.01-.31 3.09-.36 7.15-1.32 8.81 2.18-1.3.77-2.54 1.62-3.83 2.4-5.63 3.25-14.51 2.62-16.99-4.27z"/><path fill="#185c9e" d="M12.53 46.87c5.76-1.26 11.66.52 16.88 2.95-2.12 1.84-3.62 4.22-4.98 6.65-1.58-.07-3.16-.16-4.75-.18-2.82-2.77-5.61-5.71-7.15-9.42z"/><path fill="#12579a" d="M82.91 47.12c4.99-2.44 10.72-1.55 16.06-1.17 4.8.32 9.22 2.77 14.03 2.84 2.89-.9 5.53-2.43 8.34-3.54-.67 2.44-1.55 4.93-3.31 6.82-.49.45-1.48 1.36-1.97 1.82-1.6 1.1-3.26 2.1-4.95 3.04-2.88.16-5.75-.06-8.6-.34-.97 1.52-1.92 3.06-2.89 4.59l-.39-.21c-4.01-.97-8.24.24-12.23-1.03-6.22-1.74-12.76-4.51-19.24-2.13-4.27 1.4-8.79 1.13-13.15.41-.7-.18-2.09-.53-2.79-.71-1.02-2.01-2.1-4-3.43-5.83 9.41-3.16 19.02 1.03 28.56.78 5.16-.08 9.51 3.22 14.5 3.95 2.6.1 5.03-1.03 7.48-1.74-.76-1.38-1.52-2.75-2.29-4.11l-.53.11c-2.01.34-4.04.83-6.09.66-2.81-.48-4.98-2.47-7.11-4.21z"/><path d="M29.41 49.82c2.95-1.6 6.2-3.12 9.65-2.68 3.57.28 6.69 2.26 9.33 4.54 1.33 1.83 2.41 3.82 3.43 5.83.7.18 2.09.53 2.79.71-.75 0-2.25-.01-3-.01.2.86.62 2.58.83 3.44 6.19-1.05 12.45 1.65 15.87 6.91-2.19-2.02-4.4-4.17-7.18-5.36-3.04-1.05-6.34-.59-9.5-.63-.24-1.38-.48-2.75-.78-4.12-2-6.51-8.98-11.37-15.82-9.6-4.61.89-7.89 4.56-9.99 8.54-2.72 0-5.44.02-8.17.01-1.03.77-2.06 1.54-3.09 2.3.84-.93 1.69-1.85 2.57-2.75 1.08-.36 2.19-.58 3.33-.66 1.59.02 3.17.11 4.75.18 1.36-2.43 2.86-4.81 4.98-6.65zm6.52 50.14c.95-.55 1.92-1.07 2.89-1.57.62.46 1.87 1.37 2.49 1.83.37 1.66-1.22 2.87-1.94 4.19-.72-.22-2.16-.65-2.88-.87-.19-1.19-.37-2.39-.56-3.58zm30.21 9.83c.88-.47 1.77-.93 2.67-1.38.63.46 1.89 1.36 2.52 1.81.32 1.65-1.2 2.84-1.92 4.15-.74-.18-2.21-.55-2.95-.74-.11-1.28-.21-2.56-.32-3.84z" fill="#cce0ff"/><path fill="#4998e0" d="M25.04 57.39c2.1-3.98 5.38-7.65 9.99-8.54 6.84-1.77 13.82 3.09 15.82 9.6-2.94 2.22-5.76 5.59-9.79 5.39-3.67-.06-7.35.35-11.01.12-2.01-.95-3.24-2.93-4.73-4.49-5.84 1.69-12.56.99-17.25 5.53 1.39-3.33 3.88-6.39 7.33-7.68l.95-.37c-.88.9-1.73 1.82-2.57 2.75 1.03-.76 2.06-1.53 3.09-2.3 2.73.01 5.45-.01 8.17-.01z"/><path fill="#3775ad" opacity=".93" d="M116.06 53.89c.49-.46 1.48-1.37 1.97-1.82 1.62 3.68 2.33 7.69 2.02 11.7-.85-1.53-1.67-3.07-2.33-4.69-.61-1.71-1.12-3.46-1.66-5.19z"/><path fill="#227bbe" d="M111.11 56.93c1.69-.94 3.35-1.94 4.95-3.04.54 1.73 1.05 3.48 1.66 5.19-2.23 4.42-4.71 9.57-9.7 11.33-4.64-.61-8.36-3.88-12.28-6.2 1.2-1.04 2.35-2.14 3.49-3.24l.39.21c2.58 1.92 6 2.91 9.07 1.53 1.92-1.24 1.8-3.83 2.42-5.78z"/><path fill="#2c90cf" d="M102.51 56.59c2.85.28 5.72.5 8.6.34-.62 1.95-.5 4.54-2.42 5.78-3.07 1.38-6.49.39-9.07-1.53.97-1.53 1.92-3.07 2.89-4.59z"/><path fill="#0c4f8f" d="M67.76 57.81c6.48-2.38 13.02.39 19.24 2.13 3.99 1.27 8.22.06 12.23 1.03-1.14 1.1-2.29 2.2-3.49 3.24-5.44 3.4-12.29 4.09-18.43 2.46-4.06-1.81-6.65-5.66-9.55-8.86z"/><path fill="#145b9d" d="M54.61 58.22c4.36.72 8.88.99 13.15-.41 2.9 3.2 5.49 7.05 9.55 8.86 6.14 1.63 12.99.94 18.43-2.46 3.92 2.32 7.64 5.59 12.28 6.2 4.99-1.76 7.47-6.91 9.7-11.33.66 1.62 1.48 3.16 2.33 4.69-.41 5.23-3.09 9.97-6.77 13.62-4.2.21-8.68.92-12.56-1.19-5.26-2.64-10.89-4.99-16.92-4.5-.23 1.13-.46 2.25-.69 3.37-.06-.56-.17-1.69-.22-2.26-4.04.57-8.1 1.69-12.19.83-.73-1.72-1.31-3.54-2.39-5.08-3.42-5.26-9.68-7.96-15.87-6.91-.21-.86-.63-2.58-.83-3.44.75 0 2.25.01 3 .01z"/><path fill="#3382c6" d="M8.07 65c4.69-4.54 11.41-3.84 17.25-5.53 1.49 1.56 2.72 3.54 4.73 4.49 3.66.23 7.34-.18 11.01-.12 4.03.2 6.85-3.17 9.79-5.39.3 1.37.54 2.74.78 4.12 3.16.04 6.46-.42 9.5.63 2.78 1.19 4.99 3.34 7.18 5.36 1.08 1.54 1.66 3.36 2.39 5.08 4.09.86 8.15-.26 12.19-.83.05.57.16 1.7.22 2.26-4.17-1.03-8.47-.27-12.68-.92-.05 1.28-.1 2.56-.16 3.84-.39-2.14-.65-4.45-2.04-6.21-4.41-1.69-8.76 1.8-13.24 1.47-11.01-1.02-22.05-4.28-33.15-2.45-4.75.87-9.15-2.26-13.96-1.39-.09-1.1-.17-2.2-.25-3.29l-.07-.77.51-.35z"/><path fill="#1c63a7" opacity=".97" d="M10.57 79.45c-2.67-3.78-5.01-8.74-2.94-13.33.08 1.09.16 2.19.25 3.29 4.81-.87 9.21 2.26 13.96 1.39 11.1-1.83 22.14 1.43 33.15 2.45 4.48.33 8.83-3.16 13.24-1.47 1.39 1.76 1.65 4.07 2.04 6.21-.29 1.07-.6 2.13-.93 3.19-4.09.32-8.34 1.12-12.35-.19-7.98-2.75-16.77-3.22-24.99-1.31-.17-.14-.51-.43-.67-.58-1.57-1.93-4.18-1.57-6.37-1.36-4.79.55-9.62.9-14.39 1.71z"/><path fill="#0b4b8a" opacity=".98" d="M83.8 71.7c6.03-.49 11.66 1.86 16.92 4.5 3.88 2.11 8.36 1.4 12.56 1.19-8.34 7.55-23.47 7.12-30.17-2.32.23-1.12.46-2.24.69-3.37z"/><path fill="#0e4f8e" opacity=".97" d="M32 79.68c8.22-1.91 17.01-1.44 24.99 1.31 4.01 1.31 8.26.51 12.35.19-2.55 4.86-7.72 8.56-13.36 8.28-4.56.06-8.59-2.68-11.5-6-2.99.49-6.41.96-9.14-.7-1.13-1.01-2.21-2.07-3.34-3.08z"/><path d="M81.27 92.99c1.58-3.29 3.86-6.16 5.79-9.24 2.13 3.14 4.28 6.27 6.19 9.55a76.1 76.1 0 0 0-11.98-.31zm-49.38 11.57c1.3-1.57 2.6-3.15 4.04-4.6.19 1.19.37 2.39.56 3.58.72.22 2.16.65 2.88.87-2.39 1.28-5.04 1.28-7.48.15zm29.97 9.97c1.37-1.63 2.75-3.25 4.28-4.74.11 1.28.21 2.56.32 3.84.74.19 2.21.56 2.95.74-2.4 1.33-5.1 1.35-7.55.16z" fill="#89b6ff"/><path opacity=".9" d="M35.55 86.43c.84 1.33 1.69 2.67 2.54 4l-5.08.12c.86-1.36 1.7-2.74 2.54-4.12zm27.43 14.14c.88-1.37 1.76-2.75 2.63-4.13.81 1.32 1.63 2.65 2.46 3.97-1.7.05-3.4.11-5.09.16z" fill="#5688e2"/><path fill="#66a6fd" d="M80.93 93l.34-.01c3.99-.22 8-.1 11.98.31.27 1.75.21 3.52-.28 5.24l-.52-.77-.89-1.37c-.57-.17-1.71-.53-2.28-.71-2.29-.61-4.63-.96-6.97-1.31-.15 1.24-.31 2.48-.46 3.72l-.77.96c-.12-2.02-.14-4.04-.15-6.06z"/><path fill="#3b82ff" d="M82.31 94.38c2.34.35 4.68.7 6.97 1.31-.43.35-1.27 1.04-1.7 1.38-1.67 1.5-3.68 2.52-5.88 3 .04-.49.11-1.47.15-1.97.15-1.24.31-2.48.46-3.72z"/><path d="M30.41 96.91c3.93-.18 7.82.39 11.71.86-.03.74-.09 2.21-.13 2.95l-.68-.5c-.62-.46-1.87-1.37-2.49-1.83-.97.5-1.94 1.02-2.89 1.57-1.44 1.45-2.74 3.03-4.04 4.6-.78-1.07-1.58-2.13-2.33-3.23.29-1.47.57-2.94.85-4.42zm29.96 10.35c3.92.01 7.84.15 11.75.38-.03.76-.08 2.29-.1 3.05l-.69-.47c-.63-.45-1.89-1.35-2.52-1.81-.9.45-1.79.91-2.67 1.38-1.53 1.49-2.91 3.11-4.28 4.74-.76-1.06-1.56-2.09-2.3-3.17.27-1.37.54-2.74.81-4.1z" fill="#3b8cff"/><path fill="#7dc0ff" d="M81.7 100.07c2.2-.48 4.21-1.5 5.88-3 .05 1.38.12 2.76.21 4.14 1.38-.44 2.8-.81 4.15-1.36-2.22 3.83-7.48 2.92-10.24.22z"/></svg>