<svg width="128pt" height="128pt" viewBox="0 0 128 128" xmlns="http://www.w3.org/2000/svg"><g fill="#78a0fe"><path d="M52.35 21.07c7.11-8.03 18.1-11.76 28.67-11.1 5.74.02 13.68 1.17 15.3 7.8-.08 5.19-5.04 7.48-9.44 8.34 2.68.08 5.37.11 8.05.31 2.24.18 4.46.62 6.65 1.1.12.02.35.07.46.1 5.15 1.51 11.08 4.55 11.96 10.43 1.02 2.62.52 5.5-1.55 7.42-4.4.24-8.74-.54-12.69-2.6 4.89 2.63 9.07 6.44 12.22 10.99 3.07 5.59 3.34 12.43.9 18.3-1.53-1.05-3.3-1.68-5.1-2.05-1.89-2.8-3.73-5.63-5.87-8.24 2.54 1.45 5.21 2.66 7.9 3.83.62-3.84 1.61-8.22-.88-11.65-3.88-5.48-9.79-9.01-14.85-13.27 4.26.72 8.58 2.14 12.93 1.52 3.14-.59 1.25-4.58-.54-5.74-8.14-6.13-18.76-7.66-28.7-7.95 2.91-2.37 6.27-4.49 8.08-7.88 1.66-3.11-1.95-5.89-4.49-7.02-6.41-2.11-13.6-.98-19.51 2.12-3.29 1.5-6.46 3.27-9.5 5.24z"/><path d="M55.13 23.67c3.4-.64 6.57.49 8.77 3.15-3.04 2.07-6.29 3.8-9.46 5.65-4.1 2.35-6.86 6.29-10.18 9.55l.49-2.06c2.21-6.13 5.88-11.61 10.38-16.29zm8.26 21.68c2.24-2.02 5.36-.77 7.94-.32-2.52 6.61-9.75 12.38-6.92 20.14 2.92-2.95 5.26-6.51 8.59-9.05 2.5-2.07 7.09-.53 7.33 2.86-.48 4.44-4.85 6.71-6.98 10.24-.57 2.44-.61 4.95-.9 7.43-1.77-4.51.01-9.24.03-13.87-3.82 2.92-4.46 7.92-7.1 11.65-1.1 2.01-4.64 1.86-5.23-.49-2.2-5.44-.5-11.44-.38-17.08-1.6 4.29-2.82 8.72-3.8 13.19-.77 2.98-1.35 6.36-3.9 8.4-2.27-.24-3.31-2.46-4.23-4.25-1.83-4.12-1.37-8.77-2.17-13.13-3.97 5.27-3.21 12.11-4.51 18.23-.88-8.24-.69-17.24 3.49-24.63 1.01-2.12 3.36-2.2 5.39-2.03-.2 4.91-3.59 10.96.75 14.9 4.83-7.04 5.99-16.37 12.6-22.19zm25.11 7.38c1.54.73 3.1 1.44 4.58 2.28 5.08 5.68 10.64 11.4 13.02 18.82.83 3.04 1.28 6.79-.85 9.4-1.54 2.13-4.96 2.09-6.69.23-4.41-4.36-5.9-11.4-11.68-14.4-3.25-1.45-5.92 1.39-7.69 3.71.54-1.77.72-4.06 2.55-5.04 2.16-1.12 4.69-.18 6.71.8 4.28 2.28 7.91 5.57 12.04 8.09-1.39-9.08-6.87-16.57-11.99-23.89zM61.3 79.55c6.4 1.43 11.61 5.56 15.99 10.25-3.59-1.58-7.22-3.09-10.96-4.29 2.16 4.64 6.89 9.37 4.37 14.8-3.96-3.07-8-6.06-12.4-8.47.83 3.03 1.74 6.03 2.69 9.02-.48.23-1.45.69-1.93.92-3.88-2.73-7.62-5.72-10.42-9.6 2.49 1.21 4.76 2.82 7.23 4.06-1.34-4.12-2.59-8.28-3.12-12.6 5.53 2.45 9.53 7.16 14.73 10.14-2.2-4.68-5.07-9.11-6.18-14.23z"/></g><path d="M61.85 15.83c5.91-3.1 13.1-4.23 19.51-2.12 2.54 1.13 6.15 3.91 4.49 7.02-1.81 3.39-5.17 5.51-8.08 7.88 9.94.29 20.56 1.82 28.7 7.95 1.79 1.16 3.68 5.15.54 5.74-4.35.62-8.67-.8-12.93-1.52 5.06 4.26 10.97 7.79 14.85 13.27 2.49 3.43 1.5 7.81.88 11.65-2.69-1.17-5.36-2.38-7.9-3.83-2.49-2.82-5.45-5.19-8.83-6.86-1.48-.84-3.04-1.55-4.58-2.28 5.12 7.32 10.6 14.81 11.99 23.89-4.13-2.52-7.76-5.81-12.04-8.09-2.02-.98-4.55-1.92-6.71-.8-1.83.98-2.01 3.27-2.55 5.04-1.13 4.67-2.41 9.6-.96 14.36 2.37 6.45 8.08 10.82 14.05 13.75-7 3.05-14.99 3.12-22.27 1.06-2.93-.74-5.97-2-9.02-1.08-.95-2.99-1.86-5.99-2.69-9.02 4.4 2.41 8.44 5.4 12.4 8.47 2.52-5.43-2.21-10.16-4.37-14.8 3.74 1.2 7.37 2.71 10.96 4.29-4.38-4.69-9.59-8.82-15.99-10.25 1.11 5.12 3.98 9.55 6.18 14.23-5.2-2.98-9.2-7.69-14.73-10.14.53 4.32 1.78 8.48 3.12 12.6-2.47-1.24-4.74-2.85-7.23-4.06 2.8 3.88 6.54 6.87 10.42 9.6-4.93 2.8-10.57 3.9-16.2 3.63 1.75-2.1 3.65-4.11 5.06-6.47-3.08-3.2-7.34-5.42-9.27-9.61-4.07-8.56-2.75-18.45-.78-27.38 1.89-7.44 3.87-14.91 6.88-21.99l-.49 2.06c3.32-3.26 6.08-7.2 10.18-9.55 3.17-1.85 6.42-3.58 9.46-5.65-2.2-2.66-5.37-3.79-8.77-3.15 2.66-2.8 5.63-5.27 8.35-8l-1.63.16m1.54 29.52c-6.61 5.82-7.77 15.15-12.6 22.19-4.34-3.94-.95-9.99-.75-14.9-2.03-.17-4.38-.09-5.39 2.03-4.18 7.39-4.37 16.39-3.49 24.63 1.3-6.12.54-12.96 4.51-18.23.8 4.36.34 9.01 2.17 13.13.92 1.79 1.96 4.01 4.23 4.25 2.55-2.04 3.13-5.42 3.9-8.4.98-4.47 2.2-8.9 3.8-13.19-.12 5.64-1.82 11.64.38 17.08.59 2.35 4.13 2.5 5.23.49 2.64-3.73 3.28-8.73 7.1-11.65-.02 4.63-1.8 9.36-.03 13.87.29-2.48.33-4.99.9-7.43 2.13-3.53 6.5-5.8 6.98-10.24-.24-3.39-4.83-4.93-7.33-2.86-3.33 2.54-5.67 6.1-8.59 9.05-2.83-7.76 4.4-13.53 6.92-20.14-2.58-.45-5.7-1.7-7.94.32zm35.53-21.59c3.69-2.13 7.52-5.17 12.05-4.46 1.8.82 2.54 3.09 1.88 4.9-3.76 1.32-7.79.73-11.59-.02l-2.34-.42zm13.46 26.07c3.56 1.78 7.52 3.41 9.89 6.78 1.4 1.72.9 4.05 1.07 6.08-.41-.03-1.23-.1-1.63-.13-.88-.05-1.6-.4-2.18-1.04-2.76-2.95-4.53-6.63-6.39-10.17l-.76-1.52zM111.96 94c-3.79-5.35-3.2-12.36-3.85-18.58 2.59 3.85 4.77 8 6.19 12.44-.01 2.27-.33 4.7-2.34 6.14z" fill="#36f"/><path fill="#0449ea" d="M52.35 21.07c3.04-1.97 6.21-3.74 9.5-5.24l1.63-.16c-2.72 2.73-5.69 5.2-8.35 8-4.5 4.68-8.17 10.16-10.38 16.29-3.01 7.08-4.99 14.55-6.88 21.99-1.97 8.93-3.29 18.82.78 27.38 1.93 4.19 6.19 6.41 9.27 9.61-1.41 2.36-3.31 4.37-5.06 6.47 5.63.27 11.27-.83 16.2-3.63.48-.23 1.45-.69 1.93-.92 3.05-.92 6.09.34 9.02 1.08 7.28 2.06 15.27 1.99 22.27-1.06l.37-.13c2.38.87 4.79 1.69 7.23 2.38-.8.21-2.39.62-3.19.83-9.79 2.85-20.3 2.2-30.01-.66-3.18-1.05-5.96 1.33-8.72 2.51-8.69 4.54-18.88 5-28.38 3.33 4.19-2.16 8.12-4.84 11.51-8.13l1.6-1.08c-11.8 1.04-24.82 3.57-35.68-2.63-.57-.41-1.71-1.22-2.28-1.63 8.34-1.57 15.85-6.55 20.43-13.7 5.65-8.53 8.47-18.53 10.57-28.44 3.22-11.72 7.43-24.02 16.62-32.46z"/><path opacity=".24" d="M96.32 17.77c.8 3 .07 5.99-1.39 8.65-2.68-.2-5.37-.23-8.05-.31 4.4-.86 9.36-3.15 9.44-8.34zm16.82 33.58c1.86 3.54 3.63 7.22 6.39 10.17.58.64 1.3.99 2.18 1.04l2.78.48c-.83.84-1.66 1.68-2.5 2.51-3.04-.38-4.65-3.4-6.61-5.41.1 4.54.63 9.42-1.52 13.59-1.07 2.1-3.85 1.34-5.75 1.69.65 6.22.06 13.23 3.85 18.58 2.01-1.44 2.33-3.87 2.34-6.14.4 2.15 1.06 4.47.14 6.59-.63 1.56-2.57 1.49-3.89 1.03-2.09-2.99-2.28-6.8-3.1-10.25-2.57 1.24-5.56 3.58-8.44 1.74-5.19-3.63-6.27-10.91-11.65-14.37-2.09-.87-5-.61-6.2 1.56-2.47 3.84-2.39 8.59-2.93 12.97-1.45-4.76-.17-9.69.96-14.36 1.77-2.32 4.44-5.16 7.69-3.71 5.78 3 7.27 10.04 11.68 14.4 1.73 1.86 5.15 1.9 6.69-.23 2.13-2.61 1.68-6.36.85-9.4-2.38-7.42-7.94-13.14-13.02-18.82 3.38 1.67 6.34 4.04 8.83 6.86 2.14 2.61 3.98 5.44 5.87 8.24.94 1.69 2.57 3.17 4.64 3.08.11-.26.34-.77.46-1.03 2.44-5.87 2.17-12.71-.9-18.3.29-.62.87-1.88 1.16-2.51z"/><path fill="#050a18" opacity=".45" d="M101.26 24.18c3.8.75 7.83 1.34 11.59.02-.07.62-.2 1.85-.26 2.47-3.48.61-7.01 1.08-10.55.95-.11-.03-.34-.08-.46-.1-.11-1.11-.22-2.23-.32-3.34z"/><path fill="#4d66a3" opacity=".82" d="M107.78 70.11c1.8.37 3.57 1 5.1 2.05-.12.26-.35.77-.46 1.03-2.07.09-3.7-1.39-4.64-3.08z"/><path fill="#000717" opacity=".53" d="M7.01 97.3c10.86 6.2 23.88 3.67 35.68 2.63l-1.6 1.08-2.95.36.55 1.04c-9.65 1.47-20.07 2.25-29.27-1.63-1.63-.42-2.06-2.06-2.41-3.48z"/><path fill="#00091e" opacity=".52" d="M57.96 105.81c2.76-1.18 5.54-3.56 8.72-2.51 9.71 2.86 20.22 3.51 30.01.66-.03.61-.11 1.81-.15 2.42-10.44 2-21.62 2.18-31.71-1.59-8.61 4.48-17.97 8.13-27.86 7.62-3.11.08-5.69-1.85-8.22-3.39l.83.12c9.5 1.67 19.69 1.21 28.38-3.33z"/></svg>