<svg width="256pt" height="256pt" viewBox="0 0 256 256" xmlns="http://www.w3.org/2000/svg"><path fill="#fff275" d="M72.77 15.73C96.78 3.8 124.69.1 151.01 5.02c27.21 4.98 52.53 19.42 70.78 40.19 18.25 20.54 29.39 47.26 31.04 74.69 1.08 16.07-1.1 32.3-6.05 47.61-8.07 2.81-17.37 4.06-25.26.01-11.96-5.71-17.57-21.32-12.35-33.43 2.7-6.96 8.93-12.02 16.01-14.06-6.29-2.12-13.05.5-18.54 3.62-11.06 6.45-18.28 17.33-25.48 27.56-6.02 7.46-12.86 16.26-23.08 17.39-12.35 1.54-24.05-8.15-26.58-20-2.19-8.77.55-18.73 7.38-24.77 2.89-2.75 6.71-4.13 10.32-5.65-5.7-1.17-11.66-.24-16.82 2.38-9.64 4.8-16.87 13.22-22.7 22.07-5.12 7.97-10.94 15.83-18.92 21.14-6.32 4.26-14.85 4.44-21.61 1.11-12.63-5.82-18.51-22.47-12.4-34.95 2.91-6.65 9.15-11.1 15.95-13.18-7.1-1.71-14.38.78-20.31 4.64-8.41 5.46-14.9 13.34-20.43 21.59-5.99 8.82-14.14 16.3-23.96 20.61-8.33-28.37-6.42-59.67 5.76-86.65C25.51 50.5 46.77 28.43 72.77 15.73z"/><path fill="#006cce" d="M52.39 121.39c5.93-3.86 13.21-6.35 20.31-4.64-6.8 2.08-13.04 6.53-15.95 13.18-6.11 12.48-.23 29.13 12.4 34.95 6.76 3.33 15.29 3.15 21.61-1.11 7.98-5.31 13.8-13.17 18.92-21.14 5.83-8.85 13.06-17.27 22.7-22.07 5.16-2.62 11.12-3.55 16.82-2.38-3.61 1.52-7.43 2.9-10.32 5.65-6.83 6.04-9.57 16-7.38 24.77 2.53 11.85 14.23 21.54 26.58 20 10.22-1.13 17.06-9.93 23.08-17.39 7.2-10.23 14.42-21.11 25.48-27.56 5.49-3.12 12.25-5.74 18.54-3.62-7.08 2.04-13.31 7.1-16.01 14.06-5.22 12.11.39 27.72 12.35 33.43 7.89 4.05 17.19 2.8 25.26-.01-9.53 28.58-29.61 53.49-55.8 68.47-21.04 12.35-45.72 18.45-70.09 16.89-31.78-1.51-62.63-16.14-84.15-39.54C23.75 199.06 13.39 182.21 8 163.59c9.82-4.31 17.97-11.79 23.96-20.61 5.53-8.25 12.02-16.13 20.43-21.59m-9.23 9.82c-6.28 6.21-10.2 14.31-16.32 20.66-4.77 5.17-10.48 9.46-16.84 12.49 2.36 8.71 6.17 17.01 10.63 24.83.75 1.74 2.8.6 4.12.42 9.81-2.35 18.18-8.43 25.02-15.63 7.22 8.38 17.15 14.61 28.18 16.29 14.73 2.5 30.73-2.39 40.98-13.38.99-.93 1.8-2.15 3.07-2.7 1.46.67 2.39 2.11 3.57 3.17 8.36 8.71 20.4 13.54 32.43 13.54 13.78.16 27.64-6.01 36.16-16.95 4.34 4.02 8.47 8.4 13.81 11.14 8.05 4.28 17.54 6.97 26.63 5.48 3.81-6.49 7.12-13.34 9.55-20.47-8.48 2.26-18.12 2.42-25.73-2.53-11.95-7.36-16.3-24.41-9.46-36.64 1.69-3.77 5.26-6.08 7.61-9.36-6.3.75-11.59 4.77-16.35 8.68-9.52 8.05-14.95 19.59-23.41 28.59-3.59 3.72-7.38 7.49-12.16 9.65-7.58 3.14-16.7 1.98-23.37-2.77-9.88-6.65-14.35-20.03-10.84-31.35 1.6-6.06 5.93-10.79 10.72-14.61-7.54.34-13.89 5.33-19.24 10.23-8.66 7.93-13.34 19.05-21.49 27.42-3.65 3.78-7.55 7.57-12.49 9.61-7.74 3.23-17.06 1.72-23.7-3.3-11.18-7.96-14.8-24.51-7.89-36.37 1.72-3.5 5.06-5.7 7.25-8.83-8.18 1.24-14.82 6.98-20.44 12.69m-14.13 58.9c.52 4.81-1.74 10.71 2.28 14.46 8.19 10.33 17.84 19.63 29.03 26.66.41-14.08.01-28.19.2-42.28-.15-1.45.5-3.5-1.14-4.32-3.5-2.43-6.71-5.23-9.66-8.3a53.404 53.404 0 0 1-20.71 13.78m66.16 1.45c-.44 18.51-.07 37.05-.19 55.57 10.4 2.93 21.21 4.33 32 4.44-.02-23.56.04-47.12-.02-70.68a713.03 713.03 0 0 0-4.99-4.59c-7.04 7.71-16.46 13.41-26.8 15.26m66.31.97c-.03 18.1.05 36.2-.04 54.31 10.96-2.96 21.46-7.65 31.07-13.67-.14-18.2.16-36.42-.15-54.61-8.2 8.18-19.34 13.12-30.88 13.97m66.01.02c-.04 2.71-.06 5.42.07 8.13 2.38-2.24 3.9-5.15 5.61-7.88-1.88-.28-3.79-.32-5.68-.25z"/><path fill="#1791ff" d="M43.16 131.21c5.62-5.71 12.26-11.45 20.44-12.69-2.19 3.13-5.53 5.33-7.25 8.83-6.91 11.86-3.29 28.41 7.89 36.37 6.64 5.02 15.96 6.53 23.7 3.3 4.94-2.04 8.84-5.83 12.49-9.61 8.15-8.37 12.83-19.49 21.49-27.42 5.35-4.9 11.7-9.89 19.24-10.23-4.79 3.82-9.12 8.55-10.72 14.61-3.51 11.32.96 24.7 10.84 31.35 6.67 4.75 15.79 5.91 23.37 2.77 4.78-2.16 8.57-5.93 12.16-9.65 8.46-9 13.89-20.54 23.41-28.59 4.76-3.91 10.05-7.93 16.35-8.68-2.35 3.28-5.92 5.59-7.61 9.36-6.84 12.23-2.49 29.28 9.46 36.64 7.61 4.95 17.25 4.79 25.73 2.53-2.43 7.13-5.74 13.98-9.55 20.47-9.09 1.49-18.58-1.2-26.63-5.48-5.34-2.74-9.47-7.12-13.81-11.14-8.52 10.94-22.38 17.11-36.16 16.95-12.03 0-24.07-4.83-32.43-13.54-1.18-1.06-2.11-2.5-3.57-3.17-1.27.55-2.08 1.77-3.07 2.7-10.25 10.99-26.25 15.88-40.98 13.38-11.03-1.68-20.96-7.91-28.18-16.29-6.84 7.2-15.21 13.28-25.02 15.63-1.32.18-3.37 1.32-4.12-.42-4.46-7.82-8.27-16.12-10.63-24.83 6.36-3.03 12.07-7.32 16.84-12.49 6.12-6.35 10.04-14.45 16.32-20.66z"/><path d="M29.03 190.11a53.404 53.404 0 0 0 20.71-13.78c2.95 3.07 6.16 5.87 9.66 8.3 1.64.82.99 2.87 1.14 4.32-.19 14.09.21 28.2-.2 42.28-11.19-7.03-20.84-16.33-29.03-26.66-4.02-3.75-1.76-9.65-2.28-14.46zm66.16 1.45c10.34-1.85 19.76-7.55 26.8-15.26 1.67 1.52 3.33 3.05 4.99 4.59.06 23.56 0 47.12.02 70.68-10.79-.11-21.6-1.51-32-4.44.12-18.52-.25-37.06.19-55.57zm66.31.97c11.54-.85 22.68-5.79 30.88-13.97.31 18.19.01 36.41.15 54.61-9.61 6.02-20.11 10.71-31.07 13.67.09-18.11.01-36.21.04-54.31zm66.01.02c1.89-.07 3.8-.03 5.68.25-1.71 2.73-3.23 5.64-5.61 7.88-.13-2.71-.11-5.42-.07-8.13z" fill="#6cb9ff"/></svg>