<svg width="256pt" height="256pt" viewBox="0 0 256 256" xmlns="http://www.w3.org/2000/svg"><path fill="#dc0000" d="M116.27 23.31c2.38-4.15 6.62-8.05 11.72-7.74 4.72-.14 9.1 2.96 11.21 7.08 32.56 56.13 64.91 112.38 97.5 168.49 6.29 11.59 13.71 22.59 19.3 34.54v4.81c-1.47 4.9-5.66 9.27-10.93 9.7-76.37.01-152.75-.01-229.12.01-3.08-.11-6.41.49-9.25-1.04-3.33-1.47-5.1-4.86-6.7-7.93v-7.83l.67.57c6.38-12.79 14.28-24.75 21.09-37.3 31.63-54.39 62.93-108.95 94.51-163.36m9.64 32.62c-29.76 51.52-59.57 103-89.33 154.51-1.01 1.68-2.11 3.34-2.59 5.26 62.66-.03 125.33-.02 188 0-.19-.48-.58-1.45-.77-1.93-30.88-53.5-61.89-106.93-92.73-160.46-1.65-.4-1.81 1.64-2.58 2.62z"/><g fill="#fff"><path d="M125.91 55.93c.77-.98.93-3.02 2.58-2.62 30.84 53.53 61.85 106.96 92.73 160.46.19.48.58 1.45.77 1.93-62.67-.02-125.34-.03-188 0 .48-1.92 1.58-3.58 2.59-5.26 29.76-51.51 59.57-102.99 89.33-154.51m-29.97 61.8c-2.21 3.89-3.44 8.29-5.95 12.02-1.7 2.37-1.26 5.46-1.38 8.21.18 2.98-.56 6.41 1.48 8.92 2.72 2.88 1.04 7.16 2.51 10.55 2.34.22 4.69.16 7.03-.05.16-3.1.52-6.19.6-9.3 5.51-.57 11.09-.02 16.63-.29.97-2.19 1.8-4.73 3.97-6.04 3.52-.7 7.08-1.27 10.68-1.3-.22-1.83-.64-3.84.28-5.56 1.77-2.14 4.85-1.4 7.27-1.44 1.01.29 3.15-.44 3.22 1.21.05 1.52.05 3.05.01 4.57-1.47.05-2.99-.11-4.4.39 2.39-.28 4.93 1.05 7.16.28.72-5.6-1.4-10.91-4.09-15.7-1.87-2.87-1.95-7.83-6.01-8.58-10.18-1.83-20.63-1.64-30.9-.88-2.77.64-6.57.04-8.11 2.99m29.08 24.89c-1.58.23-3.47.42-4.5 1.82-2.58 3.75-3.55 8.37-6.11 12.14-2.7 3.9-1.43 8.95-1.68 13.39-.3 2.77 2.02 4.66 2.87 7.05.28 2.56.36 5.14.81 7.69 2.34.65 4.77.42 7.16.31.28-3.21.41-6.44.7-9.65 5.59-.05 11.19.24 16.77-.15.87-2.21 1.64-4.97 4.02-6 7.93-2.09 16.2-1.03 24.27-1.86-.23-3.6-.16-7.42-1.89-10.69-1.9-3.66-3.56-7.43-5.17-11.22-.97-2-3.37-2.47-5.35-2.75-10.56-1.39-21.33-1.53-31.9-.08m20.84 28.12c-2.85 2.29-3.62 6.08-5.22 9.19-1.31 3.32-4.2 6.13-3.9 9.93.19 4.18-1 8.97 1.8 12.54 2.52 2.84.35 7.06 2.42 9.98 2.26.44 4.56.18 6.82-.09.01-3.09.37-6.16.5-9.24 11.38-.47 22.81-.05 34.21-.21.13 3.27.08 6.55.05 9.83 2.43.04 4.86.05 7.29.06.1-3.67-.52-7.82 1.93-10.91 2.25-3.16 1.26-7.26 1.39-10.87-.03-5.45-3.55-9.87-5.45-14.76-.75-1.51-1.11-3.31-2.35-4.53-2.72-1.84-6.21-1.55-9.33-2.07-10.03-.71-20.26-.89-30.16 1.15z"/><path d="M96.1 128.85c.83-4.07 2.44-10.91 7.88-10.46 9.48-.41 19.01-.75 28.46.31 3.4 2.01 3.93 6.42 5.14 9.87-3.53.36-7.04-.52-10.56-.64-10.31-.32-20.65-.19-30.92.92zm-4.98 10.93c.22-1.93-.05-4.01.81-5.8 2.87-.83 6.14-1.13 9.02-.16 2.39.99 1.31 3.92 1.6 5.91-3.81.06-7.62.01-11.43.05zm35.47 6.13c9.12-.4 18.27-.41 27.4-.11 5.42-.09 6.63 6.48 7.53 10.59-13.67-1.48-27.55-1.58-41.21.06.39-3.94 1.92-9.35 6.28-10.54zm29.87 15.75c3.04-1.7 6.62-.59 9.89-.34-.04 1.9-.08 3.8-.16 5.7-3.65.38-7.32.26-10.98.17.24-1.84-.32-4.15 1.25-5.53zm-40.85.15c3.2-1.51 7.41-1.78 10.51.13.8 1.66.33 3.56.41 5.33-3.79-.04-7.58-.04-11.37 0 .05-1.83.24-3.65.45-5.46zm28.54 21.95c.85-3.73 1.95-8.69 5.92-10.23 10.11-.41 20.33-.84 30.42.11 3.37 2.07 4.18 6.54 5.17 10.1-13.8-1.39-27.71-1.34-41.51.02zm37.26 4.91c2.93-.67 5.98-.21 8.95-.01-.02 1.87-.04 3.74-.07 5.61-3.66.29-7.33.32-10.99.45.19-2.09-.46-5.2 2.11-6.05zm-42.28 6.06c.47-1.98-.56-5.15 1.73-6.15 2.7-.29 5.53-.67 8.17.14 2.5.91 1.37 3.95 1.65 5.96-3.85.03-7.7-.03-11.55.05z"/></g><path d="M95.94 117.73c1.54-2.95 5.34-2.35 8.11-2.99 10.27-.76 20.72-.95 30.9.88 4.06.75 4.14 5.71 6.01 8.58 2.69 4.79 4.81 10.1 4.09 15.7-2.23.77-4.77-.56-7.16-.28 1.41-.5 2.93-.34 4.4-.39.04-1.52.04-3.05-.01-4.57-.07-1.65-2.21-.92-3.22-1.21-2.42.04-5.5-.7-7.27 1.44-.92 1.72-.5 3.73-.28 5.56-3.6.03-7.16.6-10.68 1.3-2.17 1.31-3 3.85-3.97 6.04-5.54.27-11.12-.28-16.63.29-.08 3.11-.44 6.2-.6 9.3-2.34.21-4.69.27-7.03.05-1.47-3.39.21-7.67-2.51-10.55-2.04-2.51-1.3-5.94-1.48-8.92.12-2.75-.32-5.84 1.38-8.21 2.51-3.73 3.74-8.13 5.95-12.02m.16 11.12c10.27-1.11 20.61-1.24 30.92-.92 3.52.12 7.03 1 10.56.64-1.21-3.45-1.74-7.86-5.14-9.87-9.45-1.06-18.98-.72-28.46-.31-5.44-.45-7.05 6.39-7.88 10.46m-4.98 10.93c3.81-.04 7.62.01 11.43-.05-.29-1.99.79-4.92-1.6-5.91-2.88-.97-6.15-.67-9.02.16-.86 1.79-.59 3.87-.81 5.8z"/><path d="M125.02 142.62c10.57-1.45 21.34-1.31 31.9.08 1.98.28 4.38.75 5.35 2.75 1.61 3.79 3.27 7.56 5.17 11.22 1.73 3.27 1.66 7.09 1.89 10.69-8.07.83-16.34-.23-24.27 1.86-2.38 1.03-3.15 3.79-4.02 6-5.58.39-11.18.1-16.77.15-.29 3.21-.42 6.44-.7 9.65-2.39.11-4.82.34-7.16-.31-.45-2.55-.53-5.13-.81-7.69-.85-2.39-3.17-4.28-2.87-7.05.25-4.44-1.02-9.49 1.68-13.39 2.56-3.77 3.53-8.39 6.11-12.14 1.03-1.4 2.92-1.59 4.5-1.82m1.57 3.29c-4.36 1.19-5.89 6.6-6.28 10.54 13.66-1.64 27.54-1.54 41.21-.06-.9-4.11-2.11-10.68-7.53-10.59-9.13-.3-18.28-.29-27.4.11m29.87 15.75c-1.57 1.38-1.01 3.69-1.25 5.53 3.66.09 7.33.21 10.98-.17.08-1.9.12-3.8.16-5.7-3.27-.25-6.85-1.36-9.89.34m-40.85.15c-.21 1.81-.4 3.63-.45 5.46 3.79-.04 7.58-.04 11.37 0-.08-1.77.39-3.67-.41-5.33-3.1-1.91-7.31-1.64-10.51-.13z"/><path d="M145.86 170.74c9.9-2.04 20.13-1.86 30.16-1.15 3.12.52 6.61.23 9.33 2.07 1.24 1.22 1.6 3.02 2.35 4.53 1.9 4.89 5.42 9.31 5.45 14.76-.13 3.61.86 7.71-1.39 10.87-2.45 3.09-1.83 7.24-1.93 10.91-2.43-.01-4.86-.02-7.29-.06.03-3.28.08-6.56-.05-9.83-11.4.16-22.83-.26-34.21.21-.13 3.08-.49 6.15-.5 9.24-2.26.27-4.56.53-6.82.09-2.07-2.92.1-7.14-2.42-9.98-2.8-3.57-1.61-8.36-1.8-12.54-.3-3.8 2.59-6.61 3.9-9.93 1.6-3.11 2.37-6.9 5.22-9.19m-1.71 13.02c13.8-1.36 27.71-1.41 41.51-.02-.99-3.56-1.8-8.03-5.17-10.1-10.09-.95-20.31-.52-30.42-.11-3.97 1.54-5.07 6.5-5.92 10.23m37.26 4.91c-2.57.85-1.92 3.96-2.11 6.05 3.66-.13 7.33-.16 10.99-.45.03-1.87.05-3.74.07-5.61-2.97-.2-6.02-.66-8.95.01m-42.28 6.06c3.85-.08 7.7-.02 11.55-.05-.28-2.01.85-5.05-1.65-5.96-2.64-.81-5.47-.43-8.17-.14-2.29 1-1.26 4.17-1.73 6.15z"/></svg>