<svg width="288" height="288" viewBox="0 0 216 216" xmlns="http://www.w3.org/2000/svg"><g fill="#fafdfe"><path d="M137.65 63.68c2.59-2.14 5.88-3.54 9.29-3.37 15.7.05 31.41.22 47.11.35 7.35-.29 14.19 6 14.38 13.37-.05 15.45-.1 30.91-.24 46.36.6.04 1.8.11 2.4.15-.57 4.88.65 9.89-.49 14.7.32-4.79-.63-9.56-.06-14.34-25.96-.78-51.95.84-77.87-.17.64-15.57.19-31.18.56-46.76.15-1.68.38-3.34.7-5-13.49 11.34-27.29 22.32-40.95 33.46-2.11 1.81-5 3.55-5.19 6.65-.35 7.96.15 15.94-.18 23.91.1 1.69-.41 3.3-1.26 4.75-.88-9.98-.17-20.07-.13-30.09-10.69 6.65-21.49 13.12-32.24 19.68-1.12.84-2.78 1.51-2.92 3.11-.74 5.75.19 11.55-.41 17.31 11.56-3.33 23.21-6.35 34.8-9.54 0 1.95 0 3.9-.01 5.86-11.75 2.35-23.51 4.65-35.28 6.95-.4-7.03-.35-14.06-.24-21.1-8.25 4.52-16.76 8.59-24.88 13.36-6.42 2.52-12.94 4.82-19.26 7.6-.06 2-.17 4.01-.55 5.99-.06-2.06-.01-4.1 0-6.15 6.24-2.94 12.83-5.06 19.18-7.73 9.73-6.09 20.69-10.09 29.92-16.96 10.24-6.21 20.46-12.47 30.7-18.68 1.98-1.15 3.25-3.14 5.02-4.55 16.04-13.02 32.05-26.09 48.1-39.12m-3.64 9.88c24.28.42 48.57.16 72.85.47-.26-6.53-6.29-12.08-12.82-11.78-15.68-.01-31.35-.43-47.03-.4-6.61-.2-12.14 5.34-13 11.71m.23 1.67c-.1 14.79-.01 29.58-.25 44.38 24.23.21 48.46.07 72.68.39.06-14.82.14-29.64.17-44.46-24.2.03-48.4-.18-72.6-.31z"/><path d="M166.23 65.24c3.53-2.35 6.34 4.24 2.35 5.34-3.18 1.32-5.61-3.94-2.35-5.34z"/><path d="M172.23 65.24c3.1-2.11 6.24 3.29 3 5.08-3.2 2.14-6.72-3.4-3-5.08zm10.25 12.95c7.29-.08 14.59.26 21.88-.2.2 7.03.27 14.08.04 21.11-7.33-.09-14.7.34-22.01-.25-.03-6.89 0-13.78.09-20.66zm-45.73-.01c7.31.05 14.62.03 21.93.01 0 6.87.34 13.76-.03 20.62-2.8.71-5.73.2-8.58.22-4.49-.36-9.09.77-13.5-.37.19-6.83-.02-13.66.18-20.48zm27.96.06c3.86-.06 7.72-.04 11.59-.03.01 6.96.19 13.93-.05 20.89-3.84.03-7.69.13-11.53-.13-.17-6.91-.06-13.82-.01-20.73zm-42.15 9.53c1.9-1.34 3.79-2.68 5.7-3.99-.09 5.09-.03 10.18-.06 15.27-1.91 1.1-3.82 2.2-5.79 3.17.03-4.82.16-9.63.15-14.45zm-8.17 5.7c1.73-1.12 3.42-2.31 5.11-3.5.01 4.73.15 9.45-.01 14.17-1.76.95-3.5 1.93-5.23 2.91.01-4.52-.07-9.05.13-13.58zm-6.96 5.54c1.01-1.79 3.3-2.53 4.82-3.86.02 4.34.02 8.68.06 13.02-1.66.97-3.32 1.94-5 2.88.06-4.02-.13-8.04.12-12.04zm-7.31 4.79c1.47-1.08 2.96-2.11 4.49-3.09.07 3.98.12 7.96.08 11.94-1.52.86-3.03 1.72-4.54 2.58-.03-3.81.05-7.62-.03-11.43zm45.75-.32c7.44-.62 14.93-.12 22.39-.28.51 2.42 1.03 4.83 1.5 7.25-7.94-2.39-15.87-4.85-23.89-6.97zm29.72-.23c7.5.01 15.02-.26 22.52.15-8.02 2.24-15.99 4.63-23.96 7.04.46-2.4.96-4.79 1.44-7.19zm-81.76 4.95c1.35-.95 2.68-1.92 3.99-2.91.18 3.66.34 7.32.34 10.98-1.44.89-2.9 1.75-4.36 2.6-.01-3.56-.01-7.12.03-10.67zm-5.87 4.8c.94-1.41 2.49-2.25 3.78-3.32.12 3.45.09 6.91.11 10.37-1.24.73-2.47 1.47-3.71 2.2-.09-3.08-.36-6.17-.18-9.25zm-9.4 4.99c1.56-.89 3.11-1.81 4.64-2.73-.01 3.02 0 6.04.07 9.06-1.57.86-3.16 1.67-4.74 2.5-.03-2.94-.01-5.89.03-8.83zm-6.32 3.26c1.36-.64 2.7-1.3 4.04-1.97-.02 2.78 0 5.55.06 8.33-1.43.66-2.86 1.29-4.3 1.93.02-2.77.04-5.53.2-8.29zm14.43 16.88c14.72-5.29 29.34-10.85 44.04-16.18-.01 3.22.01 6.44.04 9.66-14.7 4-29.44 7.83-44.15 11.81.02-1.76.04-3.53.07-5.29z"/><path d="M136.82 122.3c.94.01 1.88.02 2.82.04 2.28 2.37 4.39 4.96 7.04 6.94 1.67 1.28 4.03 1.86 5.02 3.87 1.54 2.86 3.77 5.24 5.7 7.83 1.55-2.56 1.52-6.44-.92-8.47-3.56-3.62-7.25-7.12-10.8-10.76 1.3.49 2.89.53 3.87 1.65 2.78 2.68 5.6 5.36 7.89 8.48.75-1.76 1.49-3.51 2.25-5.25-1.7-1.58-3.4-3.17-5.04-4.82 2.65.17 4.52 1.95 6.17 3.83 1.93-.07 3.85-.13 5.78-.16l-.1-1.53c-1-.59-1.98-1.21-2.94-1.84 2.76-.27 4.5 1.84 6.52 3.29 1.97.15 3.07-1.99 4.46-3.08.71.01 2.13.04 2.84.05-.97.52-1.94 1.03-2.92 1.53l-.04 1.59c1.92.02 3.84.08 5.77.14 1.62-1.86 3.46-3.6 6.05-3.83-1.53 1.64-3.16 3.19-4.78 4.74.63 1.69 1.21 3.4 1.75 5.13 4.07-3.25 6.71-8.83 12.12-9.94-3.7 3.84-7.63 7.46-11.3 11.33-2.04 1.98-1.03 5.09-1.2 7.59 2.44-1.87 4.75-4.01 6.06-6.85 1.12-2.88 4.49-3.41 6.55-5.39 2.87-2.36 4.82-6.3 8.93-6.65-2.85 2.85-5.71 5.71-8.72 8.38 1.34.95 2.53 2.19 4.09 2.79 3.34-2.83 6.29-6.09 9.21-9.35l-.4 3.02c-2.34 2.28-4.74 4.53-7.01 6.9-1.84 1.74-2 4.5-3.56 6.43-1.85 1.3-4.28 1.57-5.97 3.13-2.85 2.62-5.26 5.71-8.44 7.96l-.2 1.58c2.56-.29 5.69.58 7.56-1.68 6.13-6.1 12.28-12.18 18.28-18.41-.49 3.78-3.76 6-6.2 8.55-3.51 3.3-6.59 7.06-10.44 9.98l-.16 1.57c1.87-.08 3.76-.05 5.63-.31 2.86-1.68 4.81-4.48 7.04-6.87-.27 1.19-.55 2.38-.83 3.57-.61.88-1.37 1.6-2.3 2.17-.43.16-1.29.47-1.72.63 1.18.53 2.35 1.09 3.51 1.68-7.32.95-14.93.2-22.37.35-.07-7.62.07-15.24-.04-22.85.22-1.92-1.13-4.04-3.21-3.98-5.07-.21-10.18-.25-15.25.02-2.05-.04-3.33 2.07-3.12 3.94-.09 7.63.06 15.25-.04 22.88-7.16.11-14.32.04-21.49.03-.86-.55-1.72-1.09-2.58-1.63-.79.11-2.37.31-3.16.42-1.63-5.71-3.27-11.42-5-17.1-5.49 1.38-11.03 2.61-16.52 4.01 1.41 4.83 2.87 9.65 4.16 14.52-3.77.28-7.54.58-11.32.87-1.25-4.23-2.47-8.46-3.73-12.69-4.13.95-8.25 2-12.45 2.61.55 3.78 1.57 7.47 2.94 11.03-.22-.09-.65-.29-.87-.38-1.03-3.56-2.13-7.13-2.47-10.84 14.62-3.44 29.04-7.7 43.58-11.48l.31 1.82c.35-.82.7-1.64 1.03-2.46 5.36 6.37 11.71 11.86 17.44 17.91 1.92 2.59 5.27 1.96 8.08 2.12l-.24-1.59c-2.98-2.13-5.33-4.97-7.94-7.51-1.7-1.88-4.37-2.16-6.42-3.5-1.36-1.25-1.55-3.2-2.08-4.86-2.76-2.94-5.62-5.76-8.54-8.53l-.32-2.83c2.94 3.25 6.13 6.26 9.14 9.44 1.36-1.04 2.71-2.1 4.08-3.12-2.94-2.5-5.52-5.38-8.52-7.8m-5.49 12.3c1.57 5.49 3.26 10.95 4.69 16.48.87.57 1.76 1.14 2.65 1.7l1.34-1.87c-1.45-.1-2.42-.79-2.91-2.07-.37-1-.73-2.01-1.08-3.02 2.36 2.11 4.19 4.83 6.9 6.52 1.87.22 3.76.17 5.63.24v-1.79c-3.87-1.98-6.29-5.98-9.58-8.76-1.83-2.34-5.23-3.88-5.62-7.01-.5-.11-1.52-.32-2.02-.42m17.96 6.64c3.01 2.79 5.72 5.89 8.88 8.52-.03-2.17.62-4.55-.28-6.6-1.48-1.96-3.41-3.53-5.05-5.35a114.9 114.9 0 0 1-3.55 3.43m38.8-3.18c-1.74 1.56-3.51 3.15-4.9 5.04-.82 1.99-.3 4.23-.32 6.32 3.37-2.24 5.83-5.52 8.83-8.18-1.21-1.03-2.19-2.42-3.61-3.18zm-121.52-13.6c1.26-.72 2.53-1.45 3.79-2.17.03 2.64.05 5.29.09 7.94-1.34.56-2.68 1.12-4.03 1.67.03-2.48.09-4.96.15-7.44zm-5.81 3.19c1.21-.75 2.44-1.49 3.66-2.23.05 2.48.07 4.97.01 7.46-1.21.5-2.42 1-3.63 1.51 0-2.25 0-4.5-.04-6.74zm-4.86 2.34c1.08-.54 2.17-1.08 3.25-1.63 0 2.23.01 4.47.02 6.7-1.14.49-2.28.98-3.41 1.48.01-2.19.05-4.37.14-6.55zm-4.51 2.35c.97-.39 1.94-.78 2.91-1.15-.02 2.01-.01 4.03 0 6.05-1.18.44-2.37.87-3.56 1.29.02-2.08.25-4.15.65-6.19zm-6.71 3.53c1-.33 1.99-.66 2.99-.98.03 1.75.07 3.5.11 5.26-1.11.35-2.22.69-3.32 1.03.08-1.77.15-3.54.22-5.31zm-4.47 2.17c.87-.4 1.74-.8 2.6-1.19.05 1.71.08 3.41.1 5.12-.95.32-1.91.65-2.86.97.04-1.64.1-3.27.16-4.9zm-4.07 6.35c.05-2.36-.51-5.68 2.93-5.5l.15 4.31c-1.02.4-2.05.79-3.08 1.19zm-3.75-2.66l2.4-1.26c-.06 2.26.89 5.44-2.49 5.41.02-1.04.06-3.12.09-4.15zm-3.59 5.36c-.2-2.06-.24-4.43 2.32-4.86l.12 4.03c-.61.21-1.83.62-2.44.83z"/><path d="M124.53 156.96c-.63-5.21-.81-11.1 2.74-15.39 2.31 6.58 6.43 14.56 1.42 20.96-.43.02-1.31.05-1.75.06-1.28-1.63-2.2-3.54-2.41-5.63zm-5.17-12.51c1.74-.87 2.71 1.24 3.19 2.56 1.3 4.27 1.23 8.97-.1 13.22-.33 1.39-1.96 3.12-3.4 1.8-1.89-2.59-2-5.97-2.14-9.05.23-2.93.36-6.25 2.45-8.53zm-93.71 3.2c-.86-1.08.19-3.89 1.76-2.89 1.01 1.11-.15 3.96-1.76 2.89zm-5.01-.85c.62-.18 1.87-.55 2.49-.73.31 2.03.07 3.84-2.34 4.13-.04-.85-.11-2.55-.15-3.4zm57.57-.05c2.31-.57 4.64-1 6.99-1.37 1.04 3.93 2.3 7.8 3.27 11.76-.53-.13-1.58-.39-2.11-.51-1.55-3.26-2.58-6.75-4.08-10.03-1.34.34-2.78 1.13-4.07.15z"/><path d="M60.26 150.03c6.17-.6 12.1-2.89 18.34-2.83-2.87 1.16-6.03 1.14-9.04 1.66 1.07 2.95 2.2 5.88 3.33 8.81-3.05.18-6.1.42-9.14.65-1.17-2.76-2.26-5.56-3.49-8.29zm38.53 12.15c-1.96-4.86-2.33-10.89.84-15.34 1.47 5.07 4.82 10.8 1.25 15.77-.52-.1-1.57-.32-2.09-.43zm-81.47-11.54c-1.06-1.05.21-3.87 1.73-2.69 1.12 1.06-.23 3.74-1.73 2.69zm-3.03.98c-1.15-1.07.26-3.83 1.76-2.67 1.11 1.08-.28 3.64-1.76 2.67zm10.12-2.56c.25.06.75.17 1 .23-.2 1.55-.38 3.11-.55 4.67 7.92-1.73 15.81-3.57 23.68-5.5-.89 4.25 2.8 7.32 2.97 11.46-.54-.46-1.63-1.38-2.17-1.84-.06 1.61.11 4.45-2.23 4.42-2.6-1.15-2.61-7.56.93-7.11-.21-.53-.62-1.59-.83-2.12-3.01.13-6.02.24-9.03.32.63 1.78 1.31 3.54 1.75 5.39.37.14 1.1.44 1.46.58-.15-1.94.75-3.54 2.69-3.86.83 2.04 1.72 4.49.14 6.44-1.54 1.08-2.29-1.29-3.47-1.92-2.03-1.06-4.43.58-6.52-.42-1.04-1.78-1.88-3.7-2.01-5.79-.23.33-.68.98-.91 1.3-2.18.12-4.34.32-6.51.51-.16-2.25-.29-4.5-.39-6.76z"/><path d="M92.27 159.17c-.5-3.59-1.12-8.77 2.64-10.82 2.29 3.99 2.59 9.16.74 13.36-1.78 2.23-3.2-.93-3.38-2.54zm-80.97-9.16c1.61-1.4 2.75 1.65 1.32 2.51-1.57 1.25-2.66-1.64-1.32-2.51zm69.91 11.75c-2.27-3.63-2.04-8.77.99-11.94 1.6 3.4 4.52 7.37 2.45 11.2-.45 1.36-2.53 2.14-3.44.74z"/><path d="M75.38 152.33c.4-.24 1.2-.72 1.61-.96 3.05 2.46 3.54 8.81.08 11.15-3.94-1.22-3.48-7.26-1.69-10.19zm-19.82 2.17c3.57-.73 4.12 7.45.47 8.09-2.21-1.95-2.19-5.85-.47-8.09z"/><path d="M59.7 162.21c-1.5-3.06-1.38-6.57.4-9.49 1.44 2.88 3.57 6.07 2.09 9.38-.62.03-1.86.09-2.49.11zM5.36 157.5c6.25-1.2 12.54-2.28 18.85-3.19-.6 2.04-.04 3.13 1.69 3.28-.2.46-.59 1.38-.78 1.84l2.31.27c-.69.24-2.05.73-2.73.98-.63 1.71-2.14 2.26-3.37.76-2.43 2.4-3.91-.85-2.62-3.04.9.38 1.81.73 2.73 1.05.86-.97 1.68-1.98 2.46-3.01-3.65.77-7.37 1.14-11.1.98.98.17 1.96.33 2.94.48.63 1.1 1.25 2.2 1.87 3.3-1.81-.01-3.62-.08-5.42-.21l.19 1.5c-1.65-.19-2.75-1.28-3.01-2.92l2.06.08-.11-1.51c-2.22.14-4.42.38-6.63.59.16-.31.5-.93.67-1.23zm46.83-.32c.55.67.55.67 0 0zm-24.73 4.66c.14-1.65.65-3.15 1.5-4.5 1.63.99 2.23 2.5 1.81 4.54-1.11.02-2.21 0-3.31-.04z"/><path d="M33.07 161.85c-2.06 1.42-2.97-3.59-1.23-3.96 1.13.94 1.79 2.52 1.23 3.96zm-25.59-.75c.31-.42.93-1.27 1.24-1.69.7 1.05.71 2.11.01 3.16l-.92-.3-.33-1.17z"/></g><path d="M134.01 73.56c.86-6.37 6.39-11.91 13-11.71 15.68-.03 31.35.39 47.03.4 6.53-.3 12.56 5.25 12.82 11.78-24.28-.31-48.57-.05-72.85-.47m32.22-8.32c-3.26 1.4-.83 6.66 2.35 5.34 3.99-1.1 1.18-7.69-2.35-5.34m6 0c-3.72 1.68-.2 7.22 3 5.08 3.24-1.79.1-7.19-3-5.08z"/><path d="M92.48 102.43c13.66-11.14 27.46-22.12 40.95-33.46-.32 1.66-.55 3.32-.7 5-.37 15.58.08 31.19-.56 46.76 25.92 1.01 51.91-.61 77.87.17-.57 4.78.38 9.55.06 14.34-1.6 5.14-3.13 10.3-4.82 15.41-.26-.42-.78-1.24-1.03-1.65.28-1.19.56-2.38.83-3.57-2.23 2.39-4.18 5.19-7.04 6.87-1.87.26-3.76.23-5.63.31l.16-1.57c3.85-2.92 6.93-6.68 10.44-9.98 2.44-2.55 5.71-4.77 6.2-8.55-6 6.23-12.15 12.31-18.28 18.41-1.87 2.26-5 1.39-7.56 1.68l.2-1.58c3.18-2.25 5.59-5.34 8.44-7.96 1.69-1.56 4.12-1.83 5.97-3.13 1.56-1.93 1.72-4.69 3.56-6.43 2.27-2.37 4.67-4.62 7.01-6.9l.4-3.02c-2.92 3.26-5.87 6.52-9.21 9.35-1.56-.6-2.75-1.84-4.09-2.79 3.01-2.67 5.87-5.53 8.72-8.38-4.11.35-6.06 4.29-8.93 6.65-2.06 1.98-5.43 2.51-6.55 5.39-1.31 2.84-3.62 4.98-6.06 6.85.17-2.5-.84-5.61 1.2-7.59 3.67-3.87 7.6-7.49 11.3-11.33-5.41 1.11-8.05 6.69-12.12 9.94-.54-1.73-1.12-3.44-1.75-5.13 1.62-1.55 3.25-3.1 4.78-4.74-2.59.23-4.43 1.97-6.05 3.83-1.93-.06-3.85-.12-5.77-.14l.04-1.59c.98-.5 1.95-1.01 2.92-1.53-.71-.01-2.13-.04-2.84-.05-1.39 1.09-2.49 3.23-4.46 3.08-2.02-1.45-3.76-3.56-6.52-3.29.96.63 1.94 1.25 2.94 1.84l.1 1.53c-1.93.03-3.85.09-5.78.16-1.65-1.88-3.52-3.66-6.17-3.83 1.64 1.65 3.34 3.24 5.04 4.82-.76 1.74-1.5 3.49-2.25 5.25-2.29-3.12-5.11-5.8-7.89-8.48-.98-1.12-2.57-1.16-3.87-1.65 3.55 3.64 7.24 7.14 10.8 10.76 2.44 2.03 2.47 5.91.92 8.47-1.93-2.59-4.16-4.97-5.7-7.83-.99-2.01-3.35-2.59-5.02-3.87-2.65-1.98-4.76-4.57-7.04-6.94-.94-.02-1.88-.03-2.82-.04 3 2.42 5.58 5.3 8.52 7.8-1.37 1.02-2.72 2.08-4.08 3.12-3.01-3.18-6.2-6.19-9.14-9.44l.32 2.83c2.92 2.77 5.78 5.59 8.54 8.53.53 1.66.72 3.61 2.08 4.86 2.05 1.34 4.72 1.62 6.42 3.5 2.61 2.54 4.96 5.38 7.94 7.51l.24 1.59c-2.81-.16-6.16.47-8.08-2.12-5.73-6.05-12.08-11.54-17.44-17.91-.33.82-.68 1.64-1.03 2.46l-.31-1.82c-14.54 3.78-28.96 8.04-43.58 11.48.34 3.71 1.44 7.28 2.47 10.84.22.09.65.29.87.38-1.37-3.56-2.39-7.25-2.94-11.03 4.2-.61 8.32-1.66 12.45-2.61 1.26 4.23 2.48 8.46 3.73 12.69 3.78-.29 7.55-.59 11.32-.87-1.29-4.87-2.75-9.69-4.16-14.52 5.49-1.4 11.03-2.63 16.52-4.01 1.73 5.68 3.37 11.39 5 17.1.79-.11 2.37-.31 3.16-.42.86.54 1.72 1.08 2.58 1.63 7.17.01 14.33.08 21.49-.03.1-7.63-.05-15.25.04-22.88-.21-1.87 1.07-3.98 3.12-3.94 5.07-.27 10.18-.23 15.25-.02 2.08-.06 3.43 2.06 3.21 3.98.11 7.61-.03 15.23.04 22.85 7.44-.15 15.05.6 22.37-.35-1.16-.59-2.33-1.15-3.51-1.68.43-.16 1.29-.47 1.72-.63.43.09 1.31.27 1.75.36.52-.18 1.05-.34 1.58-.5-1.03 3.79-1.33 7.69-1.05 11.6-25.18.02-50.37.21-75.54-.1 5.01-6.4.89-14.38-1.42-20.96-3.55 4.29-3.37 10.18-2.74 15.39.21 2.09 1.13 4 2.41 5.63-8.68.16-17.37.12-26.06.02 3.57-4.97.22-10.7-1.25-15.77-3.17 4.45-2.8 10.48-.84 15.34l.21.58c-12.32-.13-24.64-.15-36.96.01l.15-.67c1.48-3.31-.65-6.5-2.09-9.38-1.78 2.92-1.9 6.43-.4 9.49l.19.53c-10.63-.08-21.26-.16-31.89.08-6.5-.18-13.03-.36-19.52.23l.25-.48c.7-1.05.69-2.11-.01-3.16-.31.42-.93 1.27-1.24 1.69l.33 1.17c-2.22-.73-4.07-3.03-3.08-5.4.38-1.98.49-3.99.55-5.99 6.32-2.78 12.84-5.08 19.26-7.6 8.12-4.77 16.63-8.84 24.88-13.36-.11 7.04-.16 14.07.24 21.1 11.77-2.3 23.53-4.6 35.28-6.95.01-1.96.01-3.91.01-5.86-11.59 3.19-23.24 6.21-34.8 9.54.6-5.76-.33-11.56.41-17.31.14-1.6 1.8-2.27 2.92-3.11 10.75-6.56 21.55-13.03 32.24-19.68-.04 10.02-.75 20.11.13 30.09.85-1.45 1.36-3.06 1.26-4.75.33-7.97-.17-15.95.18-23.91.19-3.1 3.08-4.84 5.19-6.65m30.08-14.66c.01 4.82-.12 9.63-.15 14.45 1.97-.97 3.88-2.07 5.79-3.17.03-5.09-.03-10.18.06-15.27-1.91 1.31-3.8 2.65-5.7 3.99m-8.17 5.7c-.2 4.53-.12 9.06-.13 13.58 1.73-.98 3.47-1.96 5.23-2.91.16-4.72.02-9.44.01-14.17-1.69 1.19-3.38 2.38-5.11 3.5m-6.96 5.54c-.25 4-.06 8.02-.12 12.04 1.68-.94 3.34-1.91 5-2.88-.04-4.34-.04-8.68-.06-13.02-1.52 1.33-3.81 2.07-4.82 3.86m-7.31 4.79c.08 3.81 0 7.62.03 11.43 1.51-.86 3.02-1.72 4.54-2.58.04-3.98-.01-7.96-.08-11.94-1.53.98-3.02 2.01-4.49 3.09m-6.29 4.4c-.04 3.55-.04 7.11-.03 10.67 1.46-.85 2.92-1.71 4.36-2.6 0-3.66-.16-7.32-.34-10.98-1.31.99-2.64 1.96-3.99 2.91m-5.87 4.8c-.18 3.08.09 6.17.18 9.25 1.24-.73 2.47-1.47 3.71-2.2-.02-3.46.01-6.92-.11-10.37-1.29 1.07-2.84 1.91-3.78 3.32m-9.4 4.99a371.3 371.3 0 0 0-.03 8.83c1.58-.83 3.17-1.64 4.74-2.5-.07-3.02-.08-6.04-.07-9.06-1.53.92-3.08 1.84-4.64 2.73m-6.32 3.26c-.16 2.76-.18 5.52-.2 8.29 1.44-.64 2.87-1.27 4.3-1.93-.06-2.78-.08-5.55-.06-8.33-1.34.67-2.68 1.33-4.04 1.97m14.43 16.88c-.03 1.76-.05 3.53-.07 5.29 14.71-3.98 29.45-7.81 44.15-11.81-.03-3.22-.05-6.44-.04-9.66-14.7 5.33-29.32 10.89-44.04 16.18m-20.1-13.67c-.06 2.48-.12 4.96-.15 7.44 1.35-.55 2.69-1.11 4.03-1.67-.04-2.65-.06-5.3-.09-7.94-1.26.72-2.53 1.45-3.79 2.17m-5.81 3.19c.04 2.24.04 4.49.04 6.74 1.21-.51 2.42-1.01 3.63-1.51.06-2.49.04-4.98-.01-7.46-1.22.74-2.45 1.48-3.66 2.23m-4.86 2.34c-.09 2.18-.13 4.36-.14 6.55 1.13-.5 2.27-.99 3.41-1.48-.01-2.23-.02-4.47-.02-6.7-1.08.55-2.17 1.09-3.25 1.63m-4.51 2.35c-.4 2.04-.63 4.11-.65 6.19 1.19-.42 2.38-.85 3.56-1.29-.01-2.02-.02-4.04 0-6.05-.97.37-1.94.76-2.91 1.15m-6.71 3.53c-.07 1.77-.14 3.54-.22 5.31 1.1-.34 2.21-.68 3.32-1.03-.04-1.76-.08-3.51-.11-5.26-1 .32-1.99.65-2.99.98m-4.47 2.17c-.06 1.63-.12 3.26-.16 4.9.95-.32 1.91-.65 2.86-.97-.02-1.71-.05-3.41-.1-5.12-.86.39-1.73.79-2.6 1.19m-4.07 6.35c1.03-.4 2.06-.79 3.08-1.19l-.15-4.31c-3.44-.18-2.88 3.14-2.93 5.5m-3.75-2.66c-.03 1.03-.07 3.11-.09 4.15 3.38.03 2.43-3.15 2.49-5.41l-2.4 1.26m-3.59 5.36c.61-.21 1.83-.62 2.44-.83l-.12-4.03c-2.56.43-2.52 2.8-2.32 4.86m90.56-2.64c-2.09 2.28-2.22 5.6-2.45 8.53.14 3.08.25 6.46 2.14 9.05 1.44 1.32 3.07-.41 3.4-1.8 1.33-4.25 1.4-8.95.1-13.22-.48-1.32-1.45-3.43-3.19-2.56m-93.71 3.2c1.61 1.07 2.77-1.78 1.76-2.89-1.57-1-2.62 1.81-1.76 2.89m-5.01-.85c.04.85.11 2.55.15 3.4 2.41-.29 2.65-2.1 2.34-4.13-.62.18-1.87.55-2.49.73m57.57-.05c1.29.98 2.73.19 4.07-.15 1.5 3.28 2.53 6.77 4.08 10.03.53.12 1.58.38 2.11.51-.97-3.96-2.23-7.83-3.27-11.76-2.35.37-4.68.8-6.99 1.37m-17.95 3.28c1.23 2.73 2.32 5.53 3.49 8.29 3.04-.23 6.09-.47 9.14-.65-1.13-2.93-2.26-5.86-3.33-8.81 3.01-.52 6.17-.5 9.04-1.66-6.24-.06-12.17 2.23-18.34 2.83m-42.94.61c1.5 1.05 2.85-1.63 1.73-2.69-1.52-1.18-2.79 1.64-1.73 2.69m-3.03.98c1.48.97 2.87-1.59 1.76-2.67-1.5-1.16-2.91 1.6-1.76 2.67m10.12-2.56c.1 2.26.23 4.51.39 6.76 2.17-.19 4.33-.39 6.51-.51.23-.32.68-.97.91-1.3.13 2.09.97 4.01 2.01 5.79 2.09 1 4.49-.64 6.52.42 1.18.63 1.93 3 3.47 1.92 1.58-1.95.69-4.4-.14-6.44-1.94.32-2.84 1.92-2.69 3.86-.36-.14-1.09-.44-1.46-.58-.44-1.85-1.12-3.61-1.75-5.39 3.01-.08 6.02-.19 9.03-.32.21.53.62 1.59.83 2.12-3.54-.45-3.53 5.96-.93 7.11 2.34.03 2.17-2.81 2.23-4.42.54.46 1.63 1.38 2.17 1.84-.17-4.14-3.86-7.21-2.97-11.46-7.87 1.93-15.76 3.77-23.68 5.5.17-1.56.35-3.12.55-4.67-.25-.06-.75-.17-1-.23m67.86 10.11c.18 1.61 1.6 4.77 3.38 2.54 1.85-4.2 1.55-9.37-.74-13.36-3.76 2.05-3.14 7.23-2.64 10.82m-80.97-9.16c-1.34.87-.25 3.76 1.32 2.51 1.43-.86.29-3.91-1.32-2.51m69.91 11.75c.91 1.4 2.99.62 3.44-.74 2.07-3.83-.85-7.8-2.45-11.2-3.03 3.17-3.26 8.31-.99 11.94m-5.83-9.43c-1.79 2.93-2.25 8.97 1.69 10.19 3.46-2.34 2.97-8.69-.08-11.15-.41.24-1.21.72-1.61.96m-19.82 2.17c-1.72 2.24-1.74 6.14.47 8.09 3.65-.64 3.1-8.82-.47-8.09m-50.2 3c-.17.3-.51.92-.67 1.23 2.21-.21 4.41-.45 6.63-.59l.11 1.51-2.06-.08c.26 1.64 1.36 2.73 3.01 2.92l-.19-1.5c1.8.13 3.61.2 5.42.21-.62-1.1-1.24-2.2-1.87-3.3-.98-.15-1.96-.31-2.94-.48 3.73.16 7.45-.21 11.1-.98-.78 1.03-1.6 2.04-2.46 3.01-.92-.32-1.83-.67-2.73-1.05-1.29 2.19.19 5.44 2.62 3.04 1.23 1.5 2.74.95 3.37-.76.68-.25 2.04-.74 2.73-.98l-2.31-.27c.19-.46.58-1.38.78-1.84-1.73-.15-2.29-1.24-1.69-3.28-6.31.91-12.6 1.99-18.85 3.19m46.83-.32c.55.67.55.67 0 0m-24.73 4.66c1.1.04 2.2.06 3.31.04.42-2.04-.18-3.55-1.81-4.54a9.903 9.903 0 0 0-1.5 4.5m5.61.01c.56-1.44-.1-3.02-1.23-3.96-1.74.37-.83 5.38 1.23 3.96z"/><path d="M134.24 75.23c24.2.13 48.4.34 72.6.31-.03 14.82-.11 29.64-.17 44.46-24.22-.32-48.45-.18-72.68-.39.24-14.8.15-29.59.25-44.38m48.24 2.96c-.09 6.88-.12 13.77-.09 20.66 7.31.59 14.68.16 22.01.25.23-7.03.16-14.08-.04-21.11-7.29.46-14.59.12-21.88.2m-45.73-.01c-.2 6.82.01 13.65-.18 20.48 4.41 1.14 9.01.01 13.5.37 2.85-.02 5.78.49 8.58-.22.37-6.86.03-13.75.03-20.62-7.31.02-14.62.04-21.93-.01m27.96.06c-.05 6.91-.16 13.82.01 20.73 3.84.26 7.69.16 11.53.13.24-6.96.06-13.93.05-20.89-3.87-.01-7.73-.03-11.59.03m-18.84 25.24c8.02 2.12 15.95 4.58 23.89 6.97-.47-2.42-.99-4.83-1.5-7.25-7.46.16-14.95-.34-22.39.28m29.72-.23c-.48 2.4-.98 4.79-1.44 7.19 7.97-2.41 15.94-4.8 23.96-7.04-7.5-.41-15.02-.14-22.52-.15m-34.74 6.25c-1.93 1.37-3.75 2.97-3.34 5.61l1.32 2.08 2.18 1.15c1.35.01 2.7.01 4.06.01.57-.24 1.72-.73 2.29-.97 1.49-1.46 1.19-3.59 1.16-5.47-.37-.59-1.12-1.75-1.49-2.33-2.06-.08-4.12-.09-6.18-.08m54.03.05c-1.03.82-2.07 1.64-3.13 2.43-.06.82-.2 2.46-.27 3.28.96 1.2 2.08 2.27 3.31 3.21 1.46-.04 2.93-.05 4.4-.02 2.9-.94 3.89-3.67 3.29-6.51l-1.43-2.38c-2.05-.07-4.11-.08-6.17-.01zm-63.55 25.05c.5.1 1.52.31 2.02.42.39 3.13 3.79 4.67 5.62 7.01 3.29 2.78 5.71 6.78 9.58 8.76v1.79c-1.87-.07-3.76-.02-5.63-.24-2.71-1.69-4.54-4.41-6.9-6.52.35 1.01.71 2.02 1.08 3.02.49 1.28 1.46 1.97 2.91 2.07l-1.34 1.87c-.89-.56-1.78-1.13-2.65-1.7-1.43-5.53-3.12-10.99-4.69-16.48zm17.96 6.64a114.9 114.9 0 0 0 3.55-3.43c1.64 1.82 3.57 3.39 5.05 5.35.9 2.05.25 4.43.28 6.6-3.16-2.63-5.87-5.73-8.88-8.52zm38.8-3.18c1.42.76 2.4 2.15 3.61 3.18-3 2.66-5.46 5.94-8.83 8.18.02-2.09-.5-4.33.32-6.32 1.39-1.89 3.16-3.48 4.9-5.04z"/><path d="M140.85 109.5c2.06-.01 4.12 0 6.18.08.37.58 1.12 1.74 1.49 2.33.03 1.88.33 4.01-1.16 5.47-.57.24-1.72.73-2.29.97-1.36 0-2.71 0-4.06-.01l-2.18-1.15-1.32-2.08c-.41-2.64 1.41-4.24 3.34-5.61zm54.03.05c2.06-.07 4.12-.06 6.17.01l1.43 2.38c.6 2.84-.39 5.57-3.29 6.51-1.47-.03-2.94-.02-4.4.02-1.23-.94-2.35-2.01-3.31-3.21.07-.82.21-2.46.27-3.28 1.06-.79 2.1-1.61 3.13-2.43z" fill="#fbf608"/></svg>