<svg width="256pt" height="256pt" viewBox="0 0 256 256" xmlns="http://www.w3.org/2000/svg"><path fill="#f8cd53" d="M85.77 26.76c3.09-1.79 6.74-2.31 10.26-2.38 40.01-.01 80.02.01 120.02-.01 4.44.03 9.3.78 12.66 3.92 3.2 2.93 4.31 7.47 4.21 11.67-.01 29.7.02 59.4-.02 89.1.08 5.08-2.45 10.41-7.15 12.7-5.85 2.92-12.58 1.71-18.86 2.03-.1 17.47.04 34.93-.07 52.4-10.39-10.86-20.31-22.18-30.31-33.39-5.08-6.01-10.46-11.77-15.7-17.63-1.36-1.83-3.79-1.53-5.79-1.62-19.35.12-38.71.02-58.06.07-5.12-.07-10.98-.93-14.27-5.31-3.9-4.88-3.02-11.49-3.06-17.31-.05-20.76.16-41.53-.11-62.29-.12-6.25.07-12.51-.15-18.76-.13-5.04 1.97-10.47 6.4-13.19z"/><path fill="#4f78bc" d="M26.15 64.16c3.05-3.84 8.12-5.34 12.86-5.36 13.51-.1 27.01.09 40.51-.09.27 20.76.06 41.53.11 62.29.04 5.82-.84 12.43 3.06 17.31 3.29 4.38 9.15 5.24 14.27 5.31 19.35-.05 38.71.05 58.06-.07 2 .09 4.43-.21 5.79 1.62 5.24 5.86 10.62 11.62 15.7 17.63-.02 3.89-.99 8.03-3.9 10.82-3.22 3.37-8.06 4.35-12.55 4.33-21 .02-41.99-.03-62.99.07-14.02 15.33-27.89 30.81-41.88 46.17-1.82 2.06-3.51 4.26-5.77 5.87-.06-17.35.13-34.71-.09-52.07-6.22-.22-12.78.81-18.66-1.76-5.29-2.5-7.84-8.57-7.76-14.19-.08-28.35.01-56.7-.04-85.04-.04-4.45.56-9.17 3.28-12.84z"/></svg>