<svg width="367pt" height="367pt" viewBox="0 0 367 367" xmlns="http://www.w3.org/2000/svg"><path d="M76.98 0h4.69c3.36.43 6.62 1.47 9.82 2.58 6.46 2.72 11.26 7.99 16.52 12.42 10.13 10.23 20.83 19.9 30.4 30.67-4.01-2.19-6.65-6.06-10.03-9.03-4.79-4.27-9.55-8.61-14.8-12.32-7.02-5.28-14.96-9.17-22.89-12.88-4.45-2.03-10.29-3.63-14.5-.24-4.41 3.76-6.05 9.62-7.76 14.93-4.65 16.58-6.73 33.76-8.44 50.85-1.57 17.35-1.32 34.9 1.5 52.11.76 4.05 1.81 8.05 2.26 12.15-1.75-4.41-2.24-9.27-4.59-13.45l-.34-.72c-1.28-8.64-3.24-17.18-4.01-25.89-3.09-23.12-.51-46.53 4.15-69.24 1.67-7.58 3.5-15.23 6.87-22.25C67.93 5.1 71.76.8 76.98 0zm206.97 0h5.51c7.06 1.35 11.03 8.28 13.19 14.53 5.4 15.91 7.73 32.66 9.55 49.3 2.34 24.57-1.37 49.25-7.61 73-.66 1.47-1.41 2.9-2.15 4.33 5.76-23.94 6.1-48.9 3.03-73.26-1.94-14.87-3.84-29.87-8.31-44.23-1.62-4.77-3.4-10.04-7.77-12.99-3.8-2.53-8.66-1.34-12.57.26-6.11 2.69-12.04 5.81-17.81 9.16-9.84 6.16-18.55 13.94-26.73 22.13-1.07 1.12-2.31 2.15-3.92 2.29 9.68-10.04 19.87-19.56 29.93-29.21 3.51-3.52 7.23-6.83 11.26-9.74 4.26-3.01 9.39-4.38 14.4-5.57zM144.43 46.53c10.01-8.82 23.77-12 36.82-10.19-3.7.73-7.29 2.09-10.03 4.77-1.57 2.06-2.55 4.48-3.38 6.91 4.58-2.65 9.24-5.19 14.23-6.98 10.94-3.82 23.01-5.28 34.37-2.58-4.16.11-8.69-.15-12 2.9-.97 1.75-1.64 3.65-2.25 5.56 3-.68 5.92-1.65 8.86-2.56 4.47.09 9.1-.46 13.38 1.16-2.12.18-4.24.33-6.34.65-10.05 1.68-19.54 5.82-28.04 11.37-.11-5.73 1.63-11.84 6.58-15.23-11.7 2.62-23.64 5.73-33.54 12.8-.76-4.02-.66-8.16.7-12.05-6.62.28-12.75 3.4-19.36 3.47z"/><path d="M223.99 78.43c9.16 4.19 18.96 7.1 28.99 8.14-2.02 4.75-8.7 3.72-12.97 3.96 10.18 6.37 22.46 7.64 34.13 9-3.74 4.99-10.31 6.97-16.34 5.98 9.51 3.78 19.54 7.03 29.9 6.68-5.45 3.89-12.6 3.24-18.84 2.13-9.7-2.06-19.13-5.47-28.03-9.82 2.68-1.08 5.4-2.08 8.09-3.17-7.67-2.24-17.89-4.11-20.31-13.09 1.57-.37 3.15-.82 4.55-1.64-3.62-1.8-8.67-3.51-9.17-8.17zM113 86.66c10.24-1.04 20.1-4.18 29.57-8.07-1.02 4.71-5.96 6.34-9.75 8.27 1.6.43 3.21.85 4.82 1.25-.76 4.96-5.28 8.12-9.63 9.83-3.25 1.64-6.95 1.96-10.25 3.47 2.5 1.03 5.03 1.96 7.5 3.04-2.03 1.49-4.45 2.26-6.74 3.21-8.84 3.55-17.98 6.86-27.57 7.48-4.21.19-8.66-.38-12.17-2.9 10.18.17 20.15-2.75 29.45-6.69-6.02.98-12.25-1.27-16.09-6.02 11.62-1.38 23.99-2.48 34.04-9.05-4.44-.06-10.57.59-13.18-3.82zm5.88 43.8c8.9 1.07 18.17 1.91 26.12 6.44 3.11 1.64 5.49 4.26 8 6.66 1.39-4.21-1.48-7.58-4.06-10.48 5.87 2.41 12.05 4.74 16.69 9.24 2.23 2.07 3.89 5.55 2.07 8.42-.76 1.09-1.34 3.04-2.91 3.03-1.4-3.07-3.91-5.33-6.56-7.31-.99 2.14-2.04 4.24-3.11 6.34-2-4.67-6.23-7.98-11.1-9.24.4 1.64.83 3.27 1.26 4.91-14.6-2.31-29.22-4.61-43.63-7.97 11.38-6.17 25.07-3.03 36.47 1.49-.13-3.39-3.76-4.4-6.19-5.85-4.15-2.36-8.91-3.32-13.05-5.68zm100.27 7.83c8.44-5.7 18.87-6.82 28.75-7.81-5.82 2.66-12.14 4.27-17.48 7.91-1.15.83-1.92 1.94-2.31 3.33 3.1-.35 5.85-1.92 8.84-2.69 9.22-2.8 19.56-2.78 28.36 1.44-14.65 3.23-29.43 5.71-44.24 8.03.49-1.7.98-3.4 1.46-5.1-4.88 1.46-9.28 4.6-11.31 9.4-1.04-2.14-2.09-4.26-3.16-6.37-2.79 1.95-5.24 4.45-6.55 7.64-1.92-1.42-3.55-3.59-3.44-6.09-.17-2.85 1.96-5.13 3.97-6.86 4.77-3.69 10.37-6.14 16.01-8.18-3.05 2.46-5.6 5.85-4.85 10.02 2.45-.86 3.75-3.39 5.95-4.67zM56.9 149.27c1.3-1.02 2.62-2.02 3.91-3.04-3.12 8.72-5.69 17.67-7.08 26.85-.69 5.91-1.7 11.93-.42 17.84 4.6-2.32 9.29-4.47 13.9-6.77-3.05 7.15-3.52 15.06-2.54 22.69 1.69 12.54 6.31 24.44 11.37 35.95 3-7.38 10.84-10.89 18.29-11.86-3.69 15.68-1.35 32.77 7.35 46.43 1.42 1.82 2.29 4.71 4.57 5.49 1.17-2.87 1.92-6.14 4.45-8.18 2.48-2.39 6.01-2.9 9.29-3.08 5.68 23.17 11.19 47.03 23.95 67.51.81 1.92 3.87 3.02 3.4 5.29-3.92-3.4-6.75-7.79-10.09-11.72-11.17-13.42-20.34-28.56-26.47-44.93-3.35 4.8-5.49 10.83-3.85 16.67-6.96-8.64-13.86-17.45-18.78-27.45-4.98-9.45-8.42-20.52-5.6-31.18-4.79 3.98-8.77 10.05-7.18 16.53-6.19-10.29-10.96-21.43-14.83-32.78-3.88-11.38-6.2-23.46-5.02-35.51-2.9 5.05-6.16 9.88-9 14.96-.65-15.45-1.69-31.42 3.3-46.32 1.44-4.74 4.13-8.93 6.77-13.07l.31-.32zm249.07-2.33c.51.21 1.52.61 2.03.82 3.7 4.53 7.06 9.46 8.68 15.14 4.97 14.66 3.04 30.35 3.14 45.52-3.25-4.66-6.01-9.64-9.04-14.45 2.16 24.38-8.48 47.44-19.55 68.46 1.07-6.61-2.52-12.59-7.44-16.65 2.56 9.72-.03 19.98-4.32 28.81-5.26 10.84-12.36 20.68-20.13 29.85 2.32-5.77-.7-11.76-3.72-16.63-6.85 17.94-17.13 34.49-29.89 48.82-2 2.21-3.8 4.6-5.79 6.82.29-.6.86-1.8 1.15-2.4 14.01-20.82 19.2-45.8 25.56-69.66 3.09.51 6.43.92 8.85 3.12 2.87 2.22 3.74 5.91 4.8 9.19 3.18-4.12 5.97-8.55 8.12-13.29 5.86-12.23 6.4-26.35 3.67-39.47 4.14.73 8.28 1.85 11.87 4.11 2.88 1.74 4.57 4.75 6.61 7.32 2.92-6.81 5.76-13.68 7.87-20.79 3.61-12.05 6.03-25.55.65-37.46 4.74 2.26 9.41 4.66 14.24 6.72 1.37-15.02-2.75-29.77-7.36-43.9zm-194.92 9.68c10.35-1.76 21.02-4.5 31.48-2.01 3.66.8 6.83 3.37 8.17 6.9 2.47 6.4 1.83 13.43.93 20.07-1.93-1.98-3.83-4-5.73-6.02-4.65 2.99-10.7 2.31-15.45-.07-4.91-2.5-6.62-8.32-7.42-13.37-9.33-.69-18.83-1.24-28.08.4 4.68-3.5 10.59-4.45 16.1-5.9m25.04.58c-5.66 1.42-8.5 8.92-4.86 13.62 3.59 5.79 13.47 4.57 15.49-1.96 2.9-6.36-4.13-13.83-10.63-11.66zm85.99-2.03c7.73-2.58 16.03-1.48 23.91-.22 8.42 1.56 17.25 2.7 24.84 6.93-9.12-.33-18.28-.76-27.38.26-1.01 4.87-2.45 10.52-7.12 13.16-4.83 2.35-11.03 3.49-15.75.27-1.98 1.95-3.87 3.98-5.88 5.9-.59-5.83-1.13-11.84.17-17.61 1.02-3.73 3.34-7.46 7.21-8.69m2.29 2.44c-4.18 1.66-6.52 6.87-4.86 11.07 1.19 3.48 4.69 6.08 8.42 5.89 4.94.2 9.36-4.59 8.7-9.52-.09-5.82-7.05-10.07-12.26-7.44z"/><path d="M137.17 160.12c2.42-1.58 5.94 1.04 5.5 3.81-.05 2.56-3.47 4.68-5.64 3.03-2.75-1.15-2.67-5.8.14-6.84zm88.1.3c2.8-2.49 7.53 1.34 5.82 4.57-.77 2.31-3.95 3.38-5.87 1.75-2.16-1.47-2.16-4.91.05-6.32zm18.79 29.52c6.49 5.27 7.52 14.26 7.27 22.07-.45 4.38-.47 8.86-1.64 13.14-1.81-5.08-4.88-11.36-11.19-11.24 2.55 3.12 5.02 6.71 4.81 10.95-.66 8.92-6.63 16.25-12.47 22.55 2.1-8.29 3.41-17.12 1.32-25.55-.99-4.09-3.65-7.44-6.37-10.53 5.41-3.29 11.8-5.88 18.22-4.39 1.2-5.62 1.01-11.36.05-17zm-128.52 13.13c.69-5.01 2.76-10.17 7.1-13.11-1.51 5.5-1.5 11.35-.18 16.89 6.42-1.32 12.72 1.24 18.16 4.44-3.45 3.83-6.46 8.34-7.04 13.59-.68 7.71-.3 15.61 2.26 22.97-5.91-6.76-12.78-14.37-12.64-23.91-.17-3.94 2.39-7.13 4.79-9.95-6.53-.38-9.41 6.26-11.51 11.28-1.13-7.33-1.8-14.8-.94-22.2zm61.86 37.5c5.08-1.6 10.01 1.33 14.12 4.01 4.7 3.45 9.43 7.44 11.79 12.92 1.49 4.1-1.62 7.85-3.93 10.93-4.63 5.37-10.18 10.31-16.88 12.88-6.43 1.74-11.91-3.56-16.21-7.6-3.99-4.33-9.42-9.8-7.52-16.22 3.7-7.69 10.7-13.84 18.63-16.92zm4.55 58.98c10.37-1.02 19.94-5.6 29.18-10.14-2.25 3.27-5 6.14-7.77 8.96-4.19 4.24-9.54 7.08-13.94 11.07-2.56 2.09-2.3 5.69-3.92 8.35-4-2.29-6.25-6.53-9.98-9.12-4.46-3.07-9.45-5.27-13.84-8.41-3.86-3.02-7.46-6.46-10.15-10.58 2.33 1.68 4.81 3.17 7.52 4.18 7.33 2.82 14.81 6.45 22.9 5.69zM168 355c14.81 2.93 31.59 3.12 44.35-6.11-.06.5-.17 1.5-.23 2-7.49 5.71-13.87 13.56-23.34 16.11h-6.55c-10.29-1.84-19.26-7.66-26.97-14.48 4.37-.02 8.45 1.87 12.74 2.48z"/><g fill="gray"><path d="M76.19 11.2c4.21-3.39 10.05-1.79 14.5.24 7.93 3.71 15.87 7.6 22.89 12.88 5.25 3.71 10.01 8.05 14.8 12.32 3.38 2.97 6.02 6.84 10.03 9.03 1.68 1.51 4.6 4.07 6.02.86 6.61-.07 12.74-3.19 19.36-3.47-1.36 3.89-1.46 8.03-.7 12.05 9.9-7.07 21.84-10.18 33.54-12.8-4.95 3.39-6.69 9.5-6.58 15.23 8.5-5.55 17.99-9.69 28.04-11.37 1.83.85 3.63 1.98 5.69 2.12 1.6-1.17 3.02-2.56 4.58-3.77 1.61-.14 2.85-1.17 3.92-2.29 8.18-8.19 16.89-15.97 26.73-22.13 5.77-3.35 11.7-6.47 17.81-9.16 3.91-1.6 8.77-2.79 12.57-.26 4.37 2.95 6.15 8.22 7.77 12.99 4.47 14.36 6.37 29.36 8.31 44.23 3.07 24.36 2.73 49.32-3.03 73.26.74-1.43 1.49-2.86 2.15-4.33-.71 4.17 2.76 7.08 3.41 10.93-.51-.21-1.52-.61-2.03-.82 4.61 14.13 8.73 28.88 7.36 43.9-4.83-2.06-9.5-4.46-14.24-6.72 5.38 11.91 2.96 25.41-.65 37.46-2.11 7.11-4.95 13.98-7.87 20.79-2.04-2.57-3.73-5.58-6.61-7.32-3.59-2.26-7.73-3.38-11.87-4.11 2.73 13.12 2.19 27.24-3.67 39.47-2.15 4.74-4.94 9.17-8.12 13.29-1.06-3.28-1.93-6.97-4.8-9.19-2.42-2.2-5.76-2.61-8.85-3.12-6.36 23.86-11.55 48.84-25.56 69.66-.29.6-.86 1.8-1.15 2.4-2.38 2.69-4.88 5.34-7.82 7.44.06-.5.17-1.5.23-2-12.76 9.23-29.54 9.04-44.35 6.11-4.29-.61-8.37-2.5-12.74-2.48-3.49-2.2-6.46-5.07-9.36-7.97l1.44-.16c.47-2.27-2.59-3.37-3.4-5.29-12.76-20.48-18.27-44.34-23.95-67.51-3.28.18-6.81.69-9.29 3.08-2.53 2.04-3.28 5.31-4.45 8.18-2.28-.78-3.15-3.67-4.57-5.49-8.7-13.66-11.04-30.75-7.35-46.43-7.45.97-15.29 4.48-18.29 11.86-5.06-11.51-9.68-23.41-11.37-35.95-.98-7.63-.51-15.54 2.54-22.69-4.61 2.3-9.3 4.45-13.9 6.77-1.28-5.91-.27-11.93.42-17.84 1.39-9.18 3.96-18.13 7.08-26.85-1.29 1.02-2.61 2.02-3.91 3.04-.08-3.64 2.92-6.1 4.02-9.3-.46-4.09-2.16-8.01-1.76-12.18 2.35 4.18 2.84 9.04 4.59 13.45-.45-4.1-1.5-8.1-2.26-12.15-2.82-17.21-3.07-34.76-1.5-52.11 1.71-17.09 3.79-34.27 8.44-50.85 1.71-5.31 3.35-11.17 7.76-14.93m147.8 67.23c.5 4.66 5.55 6.37 9.17 8.17-1.4.82-2.98 1.27-4.55 1.64 2.42 8.98 12.64 10.85 20.31 13.09-2.69 1.09-5.41 2.09-8.09 3.17 8.9 4.35 18.33 7.76 28.03 9.82 6.24 1.11 13.39 1.76 18.84-2.13-10.36.35-20.39-2.9-29.9-6.68 6.03.99 12.6-.99 16.34-5.98-11.67-1.36-23.95-2.63-34.13-9 4.27-.24 10.95.79 12.97-3.96-10.03-1.04-19.83-3.95-28.99-8.14M113 86.66c2.61 4.41 8.74 3.76 13.18 3.82-10.05 6.57-22.42 7.67-34.04 9.05 3.84 4.75 10.07 7 16.09 6.02-9.3 3.94-19.27 6.86-29.45 6.69 3.51 2.52 7.96 3.09 12.17 2.9 9.59-.62 18.73-3.93 27.57-7.48 2.29-.95 4.71-1.72 6.74-3.21-2.47-1.08-5-2.01-7.5-3.04 3.3-1.51 7-1.83 10.25-3.47 4.35-1.71 8.87-4.87 9.63-9.83-1.61-.4-3.22-.82-4.82-1.25 3.79-1.93 8.73-3.56 9.75-8.27-9.47 3.89-19.33 7.03-29.57 8.07m5.88 43.8c4.14 2.36 8.9 3.32 13.05 5.68 2.43 1.45 6.06 2.46 6.19 5.85-11.4-4.52-25.09-7.66-36.47-1.49 14.41 3.36 29.03 5.66 43.63 7.97-.43-1.64-.86-3.27-1.26-4.91 4.87 1.26 9.1 4.57 11.1 9.24 1.07-2.1 2.12-4.2 3.11-6.34 2.65 1.98 5.16 4.24 6.56 7.31 1.57.01 2.15-1.94 2.91-3.03 1.82-2.87.16-6.35-2.07-8.42-4.64-4.5-10.82-6.83-16.69-9.24 2.58 2.9 5.45 6.27 4.06 10.48-2.51-2.4-4.89-5.02-8-6.66-7.95-4.53-17.22-5.37-26.12-6.44m100.27 7.83c-2.2 1.28-3.5 3.81-5.95 4.67-.75-4.17 1.8-7.56 4.85-10.02-5.64 2.04-11.24 4.49-16.01 8.18-2.01 1.73-4.14 4.01-3.97 6.86-.11 2.5 1.52 4.67 3.44 6.09 1.31-3.19 3.76-5.69 6.55-7.64 1.07 2.11 2.12 4.23 3.16 6.37 2.03-4.8 6.43-7.94 11.31-9.4-.48 1.7-.97 3.4-1.46 5.1 14.81-2.32 29.59-4.8 44.24-8.03-8.8-4.22-19.14-4.24-28.36-1.44-2.99.77-5.74 2.34-8.84 2.69.39-1.39 1.16-2.5 2.31-3.33 5.34-3.64 11.66-5.25 17.48-7.91-9.88.99-20.31 2.11-28.75 7.81m-108.1 18.33c-5.51 1.45-11.42 2.4-16.1 5.9 9.25-1.64 18.75-1.09 28.08-.4.8 5.05 2.51 10.87 7.42 13.37 4.75 2.38 10.8 3.06 15.45.07 1.9 2.02 3.8 4.04 5.73 6.02.9-6.64 1.54-13.67-.93-20.07-1.34-3.53-4.51-6.1-8.17-6.9-10.46-2.49-21.13.25-31.48 2.01m111.03-1.45c-3.87 1.23-6.19 4.96-7.21 8.69-1.3 5.77-.76 11.78-.17 17.61 2.01-1.92 3.9-3.95 5.88-5.9 4.72 3.22 10.92 2.08 15.75-.27 4.67-2.64 6.11-8.29 7.12-13.16 9.1-1.02 18.26-.59 27.38-.26-7.59-4.23-16.42-5.37-24.84-6.93-7.88-1.26-16.18-2.36-23.91.22m21.98 34.77c.96 5.64 1.15 11.38-.05 17-6.42-1.49-12.81 1.1-18.22 4.39 2.72 3.09 5.38 6.44 6.37 10.53 2.09 8.43.78 17.26-1.32 25.55 5.84-6.3 11.81-13.63 12.47-22.55.21-4.24-2.26-7.83-4.81-10.95 6.31-.12 9.38 6.16 11.19 11.24 1.17-4.28 1.19-8.76 1.64-13.14.25-7.81-.78-16.8-7.27-22.07m-128.52 13.13c-.86 7.4-.19 14.87.94 22.2 2.1-5.02 4.98-11.66 11.51-11.28-2.4 2.82-4.96 6.01-4.79 9.95-.14 9.54 6.73 17.15 12.64 23.91-2.56-7.36-2.94-15.26-2.26-22.97.58-5.25 3.59-9.76 7.04-13.59-5.44-3.2-11.74-5.76-18.16-4.44-1.32-5.54-1.33-11.39.18-16.89-4.34 2.94-6.41 8.1-7.1 13.11m61.86 37.5c-7.93 3.08-14.93 9.23-18.63 16.92-1.9 6.42 3.53 11.89 7.52 16.22 4.3 4.04 9.78 9.34 16.21 7.6 6.7-2.57 12.25-7.51 16.88-12.88 2.31-3.08 5.42-6.83 3.93-10.93-2.36-5.48-7.09-9.47-11.79-12.92-4.11-2.68-9.04-5.61-14.12-4.01m4.55 58.98c-8.09.76-15.57-2.87-22.9-5.69-2.71-1.01-5.19-2.5-7.52-4.18 2.69 4.12 6.29 7.56 10.15 10.58 4.39 3.14 9.38 5.34 13.84 8.41 3.73 2.59 5.98 6.83 9.98 9.12 1.62-2.66 1.36-6.26 3.92-8.35 4.4-3.99 9.75-6.83 13.94-11.07 2.77-2.82 5.52-5.69 7.77-8.96-9.24 4.54-18.81 9.12-29.18 10.14z"/><path d="M167.84 48.02c.83-2.43 1.81-4.85 3.38-6.91 3.61.12 7.24.19 10.85-.07-4.99 1.79-9.65 4.33-14.23 6.98zm34.35-1.1c.61-1.91 1.28-3.81 2.25-5.56.43.34 1.28 1.03 1.7 1.38 1.69.34 3.39.75 4.91 1.62-2.94.91-5.86 1.88-8.86 2.56z"/></g><path d="M136.09 157.2c6.5-2.17 13.53 5.3 10.63 11.66-2.02 6.53-11.9 7.75-15.49 1.96-3.64-4.7-.8-12.2 4.86-13.62m1.08 2.92c-2.81 1.04-2.89 5.69-.14 6.84 2.17 1.65 5.59-.47 5.64-3.03.44-2.77-3.08-5.39-5.5-3.81zm87.2-2.51c5.21-2.63 12.17 1.62 12.26 7.44.66 4.93-3.76 9.72-8.7 9.52-3.73.19-7.23-2.41-8.42-5.89-1.66-4.2.68-9.41 4.86-11.07m.9 2.81c-2.21 1.41-2.21 4.85-.05 6.32 1.92 1.63 5.1.56 5.87-1.75 1.71-3.23-3.02-7.06-5.82-4.57z" fill="#ab9300"/></svg>