<svg width="172pt" height="172pt" viewBox="0 0 172 172" xmlns="http://www.w3.org/2000/svg"><path d="M34.92 35.94c12.41-12.92 29.94-20.61 47.78-21.5-4.14.69-7.93 3.35-9.02 7.57-1.86 7.25.19 14.83-.88 22.17-.49 2.31-2.53 3.76-4 5.46 3.11 1.32 6.33 2.36 9.59 3.27-2.86 2.44-6.15 4.3-9.7 5.53-1.02.44-2.02.9-3.01 1.39-2.9 2.06-5.35 5.01-5.79 8.65-.53 4.81-.46 9.73-1.96 14.4-2.01 6.63-2.93 13.96-7.63 19.39-7.78 9.41-9.82 22.17-17.57 31.59-11.38-12.78-18.15-29.65-18.28-46.8-.37-18.85 7.13-37.76 20.47-51.12zm56-21.4c17.03 1.25 33.63 8.64 45.62 20.86 13.88 13.63 21.63 33.19 20.99 52.62-.35 16.76-7.07 33.13-18.11 45.69-7.26-8.62-9.31-20.22-15.83-29.31-6.32-8.1-8.75-18.39-10.39-28.32-.51-3.31-.36-6.74-1.33-9.96-1.01-3.29-3.9-5.5-6.8-7.07-.85-.32-1.7-.62-2.56-.91-3.2-.84-6.1-2.51-8.35-4.95 3.5-.9 6.99-1.88 10.36-3.19-1.27-1.84-3.03-3.55-3.3-5.88-.67-6.51.43-13.09-.41-19.59-.73-4.94-4.59-9.85-9.89-9.99zm10.39 53.81c7.98 12.08 6.98 27.62 14.44 39.93 5.27 10.57 13.2 19.39 21.43 27.72l-2.63 2.48c-8.4-4.76-17.36-8.45-26.45-11.66-1.86-.58-3.6-1.65-4.36-3.52-3.25-6.46-7.23-12.88-7.91-20.24-.69-6.56 1.1-13.01 3.08-19.19 1.69-5.03.93-10.46 2.4-15.52zm-41.68 34.24c3.82-10.45 5.08-21.83 10.38-31.74.77 3.35 1.18 6.76 1.8 10.13 3.18 13.5 2.93 28.24-2.77 41.05-.82 1.72-1.61 3.86-3.72 4.31-9.64 2.97-19.2 6.5-27.98 11.54-.49-.57-1.47-1.72-1.96-2.29 9.44-9.85 19.04-20.17 24.25-33zm24.67 43.76c3.27-.95 6.68-.35 9.91.47 6.07 1.58 12.13 3.24 18 5.46-12.42 5.69-26.82 6.4-40.15 3.93-4.18-.91-8.42-1.89-12.27-3.84 8.21-1.83 16.37-3.9 24.51-6.02z" fill="#ffeb64"/><path d="M82.7 14.44l.19-.06c2.67.26 5.35.16 8.03.16 5.3.14 9.16 5.05 9.89 9.99.84 6.5-.26 13.08.41 19.59.27 2.33 2.03 4.04 3.3 5.88-3.37 1.31-6.86 2.29-10.36 3.19 2.25 2.44 5.15 4.11 8.35 4.95-2.92 9.76-15.22 13.39-24.12 10.27-4.67-1.55-7.58-5.78-9.7-9.97 3.55-1.23 6.84-3.09 9.7-5.53-3.26-.91-6.48-1.95-9.59-3.27 1.47-1.7 3.51-3.15 4-5.46 1.07-7.34-.98-14.92.88-22.17 1.09-4.22 4.88-6.88 9.02-7.57zm22.37 44.61c2.9 1.57 5.79 3.78 6.8 7.07.97 3.22.82 6.65 1.33 9.96 1.64 9.93 4.07 20.22 10.39 28.32 6.52 9.09 8.57 20.69 15.83 29.31 1.33 2.08 4.14 1.5 5.76 3.16 2.12 1.71 4.17 3.49 6.06 5.45a9.166 9.166 0 0 1-3.33-1.74c-.42-.01-1.26-.05-1.69-.07 2.33 3.69 5.85 6.9 6.9 11.21-.24.58-.71 1.74-.94 2.32-1.79-1.42-2.85-3.5-4.64-4.9-.31-.71-.63-1.41-.94-2.11.04.58.13 1.73.17 2.3-2.63-1.53-4.25-4.14-5.87-6.61-1.22-2.25-2.1-4.71-3.72-6.72-8.23-8.33-16.16-17.15-21.43-27.72-7.46-12.31-6.46-27.85-14.44-39.93 1.12-3.15 2.49-6.21 3.76-9.3zm-45.18 9.43c.44-3.64 2.89-6.59 5.79-8.65 1.69 3.57 3.41 7.16 4.33 11.02-5.3 9.91-6.56 21.29-10.38 31.74-5.21 12.83-14.81 23.15-24.25 33 .49.57 1.47 1.72 1.96 2.29-5.01 2.37-7.93 7.16-11 11.53.27.73.56 1.45.85 2.17-.57-.35-1.7-1.05-2.26-1.4-.2.69-.59 2.07-.78 2.76-.48-.17-1.44-.5-1.92-.67-.8.39-2.4 1.18-3.19 1.58-.05-5.42 5.44-8.6 6.59-13.71-1.21.5-3.63 1.49-4.84 1.99 3.84-1.88 5.99-6.96 10.66-6.84.32-.36.96-1.08 1.28-1.43 7.75-9.42 9.79-22.18 17.57-31.59 4.7-5.43 5.62-12.76 7.63-19.39 1.5-4.67 1.43-9.59 1.96-14.4zm-.17 67.19c3-1.1 5.69-3.43 9.01-3.39 1.42 1.25 2.26 3.01 3.62 4.32 1.95 1.18 4.28 1.42 6.45 1.99l-.15 5.18c-6.31-1.79-12.98-.6-19.29-2.31-4.72-1.22-9.54-2.09-14.43-1.87 1.09-2.26 4.22-2.15 6.2-3.34 2.7-1.8 5.85.92 8.59-.58zm48.27-.61c3.04.12 6.04-.27 9.04-.67 1.29-.43 2.16.5 2.93 1.35-6.43 2.31-13.15 3.73-20.01 2.89 2.46-1.58 4.94-3.7 8.04-3.57z" fill="#c38b51"/><path fill="#ffa433" d="M65.68 59.83c.99-.49 1.99-.95 3.01-1.39 2.12 4.19 5.03 8.42 9.7 9.97 8.9 3.12 21.2-.51 24.12-10.27.86.29 1.71.59 2.56.91-1.27 3.09-2.64 6.15-3.76 9.3-1.47 5.06-.71 10.49-2.4 15.52-1.98 6.18-3.77 12.63-3.08 19.19.68 7.36 4.66 13.78 7.91 20.24.76 1.87 2.5 2.94 4.36 3.52 9.09 3.21 18.05 6.9 26.45 11.66 2.19 1.29 4.36 2.64 6.35 4.24 1.62 2.47 3.24 5.08 5.87 6.61.46.31 1.38.94 1.84 1.25-.68.98-1.43 1.98-1.21 3.27-1.36 2.17-3.75 3.52-6.3 3.64-9.97.8-19.28-3.55-28.89-5.21-5.87-2.22-11.93-3.88-18-5.46-3.23-.82-6.64-1.42-9.91-.47-8.14 2.12-16.3 4.19-24.51 6.02-9.24 1.27-18.63 3.89-27.98 1.94-1.65-.57-3.76-1.06-4.62-2.73-.29-.72-.58-1.44-.85-2.17 3.07-4.37 5.99-9.16 11-11.53 8.78-5.04 18.34-8.57 27.98-11.54 2.11-.45 2.9-2.59 3.72-4.31 5.7-12.81 5.95-27.55 2.77-41.05-.62-3.37-1.03-6.78-1.8-10.13-.92-3.86-2.64-7.45-4.33-11.02m-5.96 75.84c-2.74 1.5-5.89-1.22-8.59.58-1.98 1.19-5.11 1.08-6.2 3.34 4.89-.22 9.71.65 14.43 1.87 6.31 1.71 12.98.52 19.29 2.31l.15-5.18c-2.17-.57-4.5-.81-6.45-1.99-1.36-1.31-2.2-3.07-3.62-4.32-3.32-.04-6.01 2.29-9.01 3.39m48.27-.61c-3.1-.13-5.58 1.99-8.04 3.57 6.86.84 13.58-.58 20.01-2.89-.77-.85-1.64-1.78-2.93-1.35-3 .4-6 .79-9.04.67z"/></svg>