<svg width="256pt" height="256pt" viewBox="0 0 256 256" xmlns="http://www.w3.org/2000/svg"><path fill="#02804f" d="M15.75 25.81c2.22-1.31 4.41-3.32 7.19-3.1 4.24-.58 6.19 4.13 9.93 5.26 3.67-.73 7.41-.38 11.12-.39 13.3 0 26.59.03 39.89.05 1.56 1.71 2.95 3.8 5.19 4.68 7.01 1.16 14.3-.09 21.1 2.18 2.92-.56 5.83-.84 8.73-.01 9.02-1.36 17.95-3.34 26.91-5.09 4.41-1.05 9.16-1.01 13.5.28 1.68 1.22 4.83 2.95 2.89 5.3 3.74 5.23 8.69 9.84 10 16.4 3.25 1.99 6 4.85 9.85 5.71 2.39.36 3.52 2.39 3.91 4.59 1.53.48 3.51.28 4.6 1.67.1 1.98-.18 3.94-.19 5.92 1.28 1.66 2.58 3.31 3.76 5.04 3.86.61 7.82 1.3 11.28 3.22.06.64.2 1.92.26 2.56 3.54-3.96 10.04-3.48 14.55-1.45 2.41 1.33 5.14 1.01 7.76.81 2.69-.28 5.29.65 7.77 1.6.92 3.98 2.1 7.94 2.23 12.05.12 3.87 2.95 6.93 3.54 10.68.82 3.71.21 7.53.17 11.29-.02 4.32-2.09 8.49-1.21 12.82.4 2.7.45 5.44.55 8.17 3.24.18 6.51.11 9.74.5-.89 5.54-4.23 10.26-5.48 15.71-1.16 5.57-5.38 10.83-11.02 12.21-2.07 2.51-4.54 4.66-6.7 7.07-3.43 6.6-8.45 12.15-12.99 17.99-1.79 2.32-4.23 3.97-6.71 5.47-4.86 2.98-7.92 8.02-12.6 11.23-7.29 5.26-14.44 11.12-23.05 14.06-2.99 1.32-6.15-.53-9.23-.17-1.12.81-.26 2.25-.5 3.35-2.54.89-5.2-.08-7.69-.64-.58 1.01-1.16 2.02-1.76 3.03-4.46-.32-8.62-2.37-13.1-2.42-4.3 2.92-9.24-.95-13.79.52-1.87 1.16-3.54 2.65-5.52 3.62-1.93.29-3.86.58-5.8.67-2.27.17-4.54.37-6.81.6-3.09-.13-4.69 2.89-6.79 4.64-1.73-.54-3.55-.74-5.35-.67-1.32-1.46-2.99-2.76-3.36-4.81-1.82-.2-3.64-.24-5.47-.35-.08-1.35-.16-2.69-.25-4.03-2.46.18-1.68 2.56-2.67 3.84-4-.58-3.66-5.82-1.61-8.34-1.79-3.03-4.04-5.73-6.2-8.48-1.69-2.63.82-6.52 3.91-4.72 2.24-3.93.64-8.87-1.69-12.38-5.25-7.17-10.75-14.63-12.56-23.52-.78-4.38-3.61-7.87-5.63-11.69-3.81-3.73-8.76-6.46-11.24-11.36-2.43-4.33-5.54-9.06-4.93-14.22-.69-.51-1.38-1.02-2.08-1.54.41-4.41-1.73-8.58-1.26-13.01.76-4.01-2.59-6.92-3.47-10.59-1.4-3.15.12-6.59-.65-9.86-.18-3-1.33-6.2.8-8.8-1.2-5.06-5.84-8.04-7.86-12.66-2.63-4.08-5.6-7.98-7.02-12.7-3.36-6.05-5.92-12.61-10.03-18.2-5.13-4.57-9.15-11.89-6.98-18.89 2.99-2.31 6.74-1.26 10.12-.7m.06 1.09c-1.61-.16-3.23-.27-4.83-.45 2.94 1.51 5.68 3.38 8.43 5.22C56.19 55.86 92.99 80 129.76 104.2c2.29 1.35 4.4 3.6 7.28 3.27 34.71-.03 69.42.01 104.13-.02-.43-2.1-.92-4.2-1.28-6.32-.32-.37-.97-1.1-1.3-1.47-.6-2.09-1.29-4.15-1.79-6.26.37-3.99-1.18-7.75-1.83-11.61-3.2-1.23-6.6-1.67-10-1.16-3.23.49-5.93-1.75-8.97-2.37-2.62-.15-5.21.32-7.81.61-.28.57-.84 1.71-1.13 2.28-2.2.32-2.6-1.24-2.6-3.08-3.35-1.56-6.99-2.08-10.57-2.81-1.55-1.77-2.98-3.64-4.64-5.3.17-2.27.26-4.55.24-6.82l-4.54-.3c-.44-1.68-.26-4.21-2.47-4.51-4.13-1.09-7.49-3.68-10.91-6.12-.96-1.92-1.77-3.92-2.22-6.03-2.22-3.29-4.88-6.25-7.14-9.5-1.02-1.07-1.08-2.53-.96-3.92-2.85-3.71-8.04-3.08-12.17-2.92-9.73 1.77-19.4 3.89-29.15 5.59-3.05.16-6.19-1.17-9.09.39-7.06-2.71-14.78-1.15-22.09-2.55-2.36-.85-3.87-3.01-5.59-4.7-14.13.21-28.28-.28-42.4.15-2.87-.74-5.86.4-8.74.01-2.42-1.01-4.52-2.68-6.11-4.76-3.76-.97-7.13.82-10.1 2.93m22.03 67.76c.02 3.41.1 6.82-.03 10.23.71 3.63 2.06 7.53 5.03 9.93l-.69-.47c-1.01 5.36.7 10.54 1.28 15.82 3 2.46 1.22 6.61 3.38 9.57l.91-.61c-.21.2-.63.61-.84.81 1.09 4.49 4.37 8.31 7.13 11.98 11.87-7.78 23.78-15.48 35.54-23.42-17.3-11.17-34.39-22.69-51.71-33.84m95.18 56.17c-18.99 12.49-37.97 24.99-56.99 37.44 2.92 3.83 5.82 7.84 6.49 12.76-.31 1.54-.23 3.22-.96 4.66-1.01 1.49-3.11.99-4.62 1.5 1.1 5.02 5.46 8.45 7.13 13.27-.49.41-1.48 1.23-1.98 1.65.02.74.07 2.24.09 2.99 1.58-1.4 3.5-2.22 5.65-2.14.11 1.19.23 2.38.35 3.57 1.89.12 3.77.31 5.65.53.71 1.52 1.43 3.03 2.15 4.54 1.68.19 3.36.39 5.04.6 1.8-1.62 3.32-4.11 5.99-4.23 4.31-.58 8.65-.99 13-1.18 1.71-1.24 3.39-2.5 5.02-3.84 3.68-.84 7.35.1 10.99.62 5.16-2.85 10.88.64 16.22 1.18.57-.94 1.15-1.88 1.72-2.82 2.21.32 4.43.67 6.63 1.03.52-1.38.61-3.46 2.43-3.75 3.26-.26 6.68 1.29 9.83-.2 7.6-2.85 14.03-7.99 20.56-12.68 3.48-2.46 6.48-5.5 9.4-8.59 3.22-3.51 8.05-5.07 10.99-8.88 4.02-5.15 8.48-10.03 11.6-15.81 1.95-3.67 5.71-5.86 7.91-9.36 6.68-1.21 10.46-7.85 11.78-14-35.05.02-70.09.04-105.14-.01-2.34.09-4.95-.42-6.93 1.15z"/><path d="M15.81 26.9c2.97-2.11 6.34-3.9 10.1-2.93 1.59 2.08 3.69 3.75 6.11 4.76 2.88.39 5.87-.75 8.74-.01 32.05 21.14 64.17 42.17 96.23 63.29 1.46 1.05 3.23 1.45 5.01 1.38 31.6-.03 63.2-.05 94.8.01.5 2.11 1.19 4.17 1.79 6.26.33.37.98 1.1 1.3 1.47.36 2.12.85 4.22 1.28 6.32-34.71.03-69.42-.01-104.13.02-2.88.33-4.99-1.92-7.28-3.27C92.99 80 56.19 55.86 19.41 31.67c-2.75-1.84-5.49-3.71-8.43-5.22 1.6.18 3.22.29 4.83.45zm117.21 123.93c1.98-1.57 4.59-1.06 6.93-1.15 35.05.05 70.09.03 105.14.01-1.32 6.15-5.1 12.79-11.78 14-30.78.29-61.58.01-92.36.14-1.94-.13-3.55 1.06-5.1 2.04-17.72 11.81-35.62 23.35-53.33 35.16-.67-4.92-3.57-8.93-6.49-12.76 19.02-12.45 38-24.95 56.99-37.44z" fill="#fdfdfd"/><path fill="#e63a31" d="M40.76 28.72c14.12-.43 28.27.06 42.4-.15 1.72 1.69 3.23 3.85 5.59 4.7 7.31 1.4 15.03-.16 22.09 2.55 2.9-1.56 6.04-.23 9.09-.39 9.75-1.7 19.42-3.82 29.15-5.59 4.13-.16 9.32-.79 12.17 2.92-.12 1.39-.06 2.85.96 3.92 2.26 3.25 4.92 6.21 7.14 9.5.45 2.11 1.26 4.11 2.22 6.03 3.42 2.44 6.78 5.03 10.91 6.12 2.21.3 2.03 2.83 2.47 4.51l4.54.3c.02 2.27-.07 4.55-.24 6.82 1.66 1.66 3.09 3.53 4.64 5.3 3.58.73 7.22 1.25 10.57 2.81 0 1.84.4 3.4 2.6 3.08.29-.57.85-1.71 1.13-2.28 2.6-.29 5.19-.76 7.81-.61 3.04.62 5.74 2.86 8.97 2.37 3.4-.51 6.8-.07 10 1.16.65 3.86 2.2 7.62 1.83 11.61-31.6-.06-63.2-.04-94.8-.01-1.78.07-3.55-.33-5.01-1.38-32.06-21.12-64.18-42.15-96.23-63.29z"/><path fill="#fdbd13" d="M37.84 94.66c17.32 11.15 34.41 22.67 51.71 33.84-11.76 7.94-23.67 15.64-35.54 23.42-2.76-3.67-6.04-7.49-7.13-11.98.21-.2.63-.61.84-.81 5.36-3.55 10.8-6.97 16.09-10.63-7.05-4.46-13.98-9.12-20.97-13.68-2.97-2.4-4.32-6.3-5.03-9.93.13-3.41.05-6.82.03-10.23z"/><path fill="#020202" d="M42.15 114.35l.69.47c6.99 4.56 13.92 9.22 20.97 13.68-5.29 3.66-10.73 7.08-16.09 10.63l-.91.61c-2.16-2.96-.38-7.11-3.38-9.57-.58-5.28-2.29-10.46-1.28-15.82z"/><path fill="#02249b" d="M135.85 165.87c1.55-.98 3.16-2.17 5.1-2.04 30.78-.13 61.58.15 92.36-.14-2.2 3.5-5.96 5.69-7.91 9.36-3.12 5.78-7.58 10.66-11.6 15.81-2.94 3.81-7.77 5.37-10.99 8.88-2.92 3.09-5.92 6.13-9.4 8.59-6.53 4.69-12.96 9.83-20.56 12.68-3.15 1.49-6.57-.06-9.83.2-1.82.29-1.91 2.37-2.43 3.75-2.2-.36-4.42-.71-6.63-1.03-.57.94-1.15 1.88-1.72 2.82-5.34-.54-11.06-4.03-16.22-1.18-3.64-.52-7.31-1.46-10.99-.62-1.63 1.34-3.31 2.6-5.02 3.84-4.35.19-8.69.6-13 1.18-2.67.12-4.19 2.61-5.99 4.23-1.68-.21-3.36-.41-5.04-.6-.72-1.51-1.44-3.02-2.15-4.54-1.88-.22-3.76-.41-5.65-.53-.12-1.19-.24-2.38-.35-3.57-2.15-.08-4.07.74-5.65 2.14-.02-.75-.07-2.25-.09-2.99.5-.42 1.49-1.24 1.98-1.65-1.67-4.82-6.03-8.25-7.13-13.27 1.51-.51 3.61-.01 4.62-1.5.73-1.44.65-3.12.96-4.66 17.71-11.81 35.61-23.35 53.33-35.16z"/></svg>