<svg width="800" height="800" viewBox="0 0 600 600" xmlns="http://www.w3.org/2000/svg"><path fill="#ff0" d="M432.56 87.54c14.7-10.4 31.2-19.6 49.45-21.2 13.2-1.4 26.8 3.3 36.3 12.38 7.1 7.5 7.3 18.67 6.7 28.36-1.3 12.4-4.6 25.53-13.5 34.76 10.5 6.02 20.6 14.06 25.4 25.46 3.9 9 2.7 19.5-1.8 28.06-6.7 12.58-20.2 19.67-33.6 23-21.4 5.3-44.4 3.02-65.1-4.62-29.3-10.66-54.1-31.86-71.3-57.64 9.1-12.3 19.2-23.83 29.8-34.8 11.6-12.38 24.2-23.85 37.9-33.76z"/><path d="M268.87 97.37c25.37-12.53 56.35-15.53 82.6-3.88 16.05 6.5 28.58 18.8 43.2 27.8-10.6 10.9-20.68 22.5-29.73 34.8 17.2 25.7 42.04 46.9 71.33 57.6 20.63 7.6 43.6 9.9 65.08 4.6 13.37-3.3 26.9-10.4 33.6-23 21.73-3 43.33-6.9 65.05-9.9v6.9c-.67 10.5-.4 21-.85 31.5-30.4.6-60.83.7-91.25 1.1-2.4-.2-4.44 1.1-6.12 2.7-17.88 16.5-38.6 30.4-61.72 38.4-24.24 8.5-51.27 9.6-75.83 1.7-21.13-6.9-41.2-17.5-58.17-32-24.95-21-42.75-50.3-49.66-82.2-1.42-8.1-.24-16.4-.34-24.6 1.8.4 3.73 1 5.6.5 2.9-1.4 4.64-4.3 6.23-6.9 3.3-6.1 5.7-12.9 5.3-19.9.1-2.8-2.6-4.1-4.4-5.6m44.5 4.2c-4.3.9-8.2 3.9-9.8 8-2.9 7 1.8 16.3 9.4 17.6 7.5 1.7 15.9-4.3 15.9-12.2.4-8-7.6-15.5-15.6-13.5zM267.2 338c10 2.52 20.5 4.47 29 10.66-9.1.68-18.3 1.18-27.42 1.2.2-4.02-.42-8.02-1.53-11.86z" fill="#fc0"/><path fill="#fddea5" d="M260.28 99.2c2.9-.37 5.84-.8 8.6-1.83 1.8 1.52 4.43 2.87 4.3 5.6.46 7-1.97 13.84-5.3 19.88-1.58 2.64-3.32 5.53-6.23 6.87-1.86.48-3.78-.12-5.6-.53-8.44-7-15.43-15.6-21.2-24.8 8.37-2.2 16.84-4.1 25.43-5.2z"/><path fill="#1a171b" d="M313.4 101.58c8.02-2.06 15.98 5.44 15.55 13.44.05 7.9-8.4 13.9-15.9 12.2-7.66-1.3-12.34-10.58-9.43-17.64 1.65-4.07 5.53-7.08 9.8-8m-4.94 6.85c-3.9 2.48-2.6 9.26 1.96 10.12 3.8 1.18 7.73-2.65 6.9-6.5-.42-4.03-5.7-5.9-8.86-3.62z"/><path fill="#fff" d="M308.48 108.43c3.16-2.28 8.44-.4 8.86 3.63.83 3.84-3.1 7.67-6.9 6.5-4.57-.87-5.85-7.65-1.96-10.13z"/><path d="M101.2 242.92c8.28 7.35 16.16 15.17 25.03 21.85 17.58 14 34.85 28.42 51.55 43.46 8.56 7.52 17.32 15.1 23.53 24.77-3.6 2.55-7 5.4-10.3 8.34 3.8 4.5 8.1 8.68 10.6 14.07 4.6 9.4 4.7 20.4 2.4 30.5-1.9 8.4-7.5 15.7-14.7 20.4-10.6 7.2-23.6 9.8-36.3 10.6-7 .5-14.3-.9-21.2 1-4.5 1.2-9 2.7-13.7 2.3-5.5-.2-10.1-4.3-15.6-4.7-5-.4-10.3-.2-14.9-2.7-3.6-1.8-5.9-5.3-9.1-7.6-5.2-1.2-11.1-.2-15.9-3.3-4.5-2.2-6.9-6.9-10.4-10.4-4.2-1.4-9-.9-13-3.1-4.8-2.3-8.1-6.7-10.7-11.2 3.6-1.3 7.3-2.4 11-3.6-5.3-.3-11-.2-15.9-2.5-6.1-2.7-10.3-8.3-12.4-14.5 5.5-1 10.9-2 16.3-3.5-6.1-.7-12.5-1.4-17.6-5.2-5.3-3.6-8.3-9.6-9.5-15.7v-.9c10 1 20 .8 30 .6 26.4-1.6 52.7-2.8 79.1-3-2.8-3.1-6-5.9-7.7-9.9-1.6-3.9-.5-8.3-1.2-12.4-1.5-3.1-4.2-5.4-5.6-8.6-1.8-3.9-1-8.4-.6-12.6 3.1 1.3 6.1 2.7 9.1 4-3.7-3.5-8-7.1-9.4-12.3-1.3-4.3-.4-8.8 1.1-12.9 3.5 1.9 6.9 3.9 10.5 5.8-2.9-4.2-6.3-8.4-6.9-13.6-.6-4.5 1.2-8.8 3-12.8zm.16 193.23c2.8 1.2 5.64 2.36 8.5 3.5-3.8 5.14-6.5 10.94-9.84 16.36-5.06 8.2-9.92 16.6-15.8 24.3-4.4 5.7-9.78 11.7-17.23 13-4 .9-8-.4-11.7-1.9 1.9-2.1 3.8-4.2 5.8-6.2 1.9-1.7 3.6-3.6 5.3-5.6 8.3-10.3 17.2-20.1 25.4-30.5 3.4-4 6.8-8.1 9.4-12.7z" fill="teal"/><path fill="#338000" d="M476.57 316.63c6.8-5.18 12.6-11.48 19.16-16.94 1.82 3.4 3.44 7.2 3 11.1-.2 5.3-3.72 9.4-6.68 13.5 3.45-1.7 6.74-3.6 10.03-5.5 1.3 3.6 2.2 7.6 1.18 11.5-1.06 4.8-4.86 8.3-8.3 11.7 2.6-1 5.2-2.1 7.8-3.1.3 3.7.93 7.7-.48 11.3-1.16 3.1-3.8 5.3-5.52 8.1-.6 3.7.5 7.7-.87 11.3-1.5 4-4.9 6.9-7.9 9.8 10.4-.2 20.8.1 31.2.7 12.9.3 25.8.9 38.8 1.7 10.8.5 21.6.2 32.4-.1-.9 6.3-4.2 12.3-9.6 15.7-4.4 3.2-10.1 3.1-15.1 4.5 4.7 1.5 9.6 2.1 14.4 3-1.7 6.3-6.5 11.8-12.6 14.2-4.4 1.8-9.3 1.4-14 1.7 3.4 1.3 6.8 2.2 10.3 3.2-3 6.2-8.6 11.6-15.7 12.6-2.9.7-6.7-.1-8.3 3.1-3.6 5.5-9.4 9.9-16.1 10-2.7.5-6.1-.6-8.1 1.7-2.9 2.8-5.8 5.83-9.7 7.2-4 1.56-8.3.9-12.4 1.2-4.4 1.33-8.3 4.1-12.9 4.6-7.9.95-15.2-3.66-23-2.95-14.3.7-29.2-1.06-41.9-8.18-8.1-4.5-14.6-12.16-16.6-21.3-1.8-8.4-1.5-17.47 1.4-25.6 2.1-6 6.6-10.6 10.9-15.2-3.3-3.1-6.9-5.86-10.6-8.4 2.3-2 4.3-4.38 6.3-6.76 5.7-6.97 12.8-12.5 19.4-18.5 16-14.4 32.7-28 49.5-41.5z"/><path fill="#0cf" d="M232.82 316.82c7.46-1.87 15.94-1.6 22.44 2.9 6.28 4.18 9.8 11.26 11.98 18.28 1.1 3.84 1.74 7.84 1.57 11.85-5 9.93-9.1 20.28-13.4 30.5-8.2 18.98-16.7 38.56-31.7 53.27-11.6 11.6-27.5 18.68-43.9 19.8-24 1.86-47.7-5.1-69.8-13.78-2.8-1.13-5.7-2.28-8.5-3.5l-5-2.23c-2-.9-4-1.9-6-3-1.6-.9-3.1-1.8-4.6-2.8 5.6-4.3 11.3-8.3 16.7-12.8 5.6.5 10.1 4.5 15.7 4.7 4.7.4 9.2-1.1 13.7-2.2 6.9-1.9 14.2-.4 21.2-.9 12.7-.7 25.7-3.4 36.3-10.5 7.2-4.7 12.8-11.9 14.7-20.3 2.4-10 2.2-21-2.3-30.4-2.5-5.4-6.8-9.5-10.5-14.1 3.3-2.9 6.7-5.8 10.3-8.3 9.7-6.8 20-13.3 31.6-16.1m10.7 14.5c-3 1.9-2.5 7.3 1 8.4 3.1 1.3 6.8-1.3 6.5-4.6.1-3.6-4.5-5.7-7.4-3.7z"/><path fill="#fccb01" d="M243.47 331.32c2.9-2 7.5.04 7.43 3.7.3 3.34-3.43 5.94-6.47 4.66-3.5-1.08-3.94-6.45-.96-8.36m1.4 5.58h4.27c-.28-1.35-.1-4.13-2.14-3.94-2.03-.2-1.86 2.6-2.13 3.94z"/><path fill="#342c1a" d="M244.87 336.9c.27-1.35.1-4.13 2.13-3.94 2.03-.2 1.86 2.6 2.14 3.95h-4.27z"/><path fill="#8dd35f" d="M355.4 369.43c6.94-2.85 14.8-1.84 21.72.54 8.76 3.06 16.8 7.92 24.24 13.4 3.7 2.57 7.24 5.34 10.53 8.42-4.3 4.5-8.8 9.2-10.9 15.2-3 8.1-3.3 17.1-1.5 25.6 2 9.1 8.5 16.8 16.6 21.3 12.6 7.1 27.5 8.8 41.8 8.1 7.8-.7 15.1 3.9 23 2.9 4.6-.5 8.5-3.3 12.9-4.6 5.4 4.2 11.2 8 16.4 12.5-2.2 1.2-4.4 2.4-6.6 3.5-1.3.6-2.5 1.2-3.8 1.8l-5.2 2.3c-2.3 1-4.6 1.9-6.9 2.8-19.1 7.4-39.3 13.6-60 13.2-15.1-.1-30.4-4.9-42-14.7-14.1-11.4-22.6-27.9-30.1-44.1-3.5-7.9-6.8-15.8-10.2-23.8-2-4.8-4.5-9.3-6-14.3 1.6-2.6 3.1-5.2 4.5-7.9l-3.4-4c1.7-7.9 6.8-15.5 14.4-18.7m2.1 13c-2.7 1.9-1.9 7.2 1.7 7.8 3.5 1.1 6.8-3.1 5.1-6.2-1.1-2.7-4.6-2.9-6.8-1.7z"/><path fill="#803400" d="M357.46 382.33c2.23-1.22 5.72-1.03 6.76 1.66 1.72 3.1-1.6 7.3-5.1 6.2-3.56-.6-4.34-6-1.66-7.9m.14 1.5c.05 1-.18 2.2.15 3.2 1.03.3 2.05.7 3.08 1l.4-4.3-3.63-.1z"/><path fill="#180900" d="M357.6 383.9c.9 0 2.73.04 3.64.06-.15 1.4-.28 2.83-.4 4.26-1.04-.37-2.06-.73-3.1-1.05-.32-1.06-.1-2.2-.14-3.27z"/><path fill="#f60" d="M313.74 398.52c7.7-6.34 18.03-7.34 27.2-10.38 1.14 1.32 2.27 2.65 3.4 4-1.4 2.67-2.9 5.32-4.52 7.9-8.66-.95-17.4-.75-26.08-1.52z"/><path fill="#5fbcd3" d="M40.55 454.53c15.15-8.64 30.5-17 45.13-26.47 1.54.95 3.07 1.9 4.64 2.8-10.75 8.44-21.65 16.7-32.74 24.7-7.42 5.35-14.7 10.95-22.6 15.6-3.03.05-6.22.1-9.07-1.1-2.3-1.1-4.1-3.05-6-4.8 6.9-3.52 14-6.83 20.7-10.73z"/><path fill="#2c89a0" d="M90.32 430.86c1.97 1.1 4 2.08 6.03 3.05-4.84 5.3-10 10.3-15.4 15.1-11.03 10.4-21.88 20.9-33.7 30.4-6.15.5-13.02.2-17.5-4.6 1.72-1.2 3.46-2.3 5.24-3.4 7.8-4.6 15.1-10.2 22.5-15.6 11.1-8 22-16.2 32.7-24.7z"/><path fill="#006680" d="M96.35 433.9c1.66.77 3.33 1.5 5 2.25-2.6 4.63-6.05 8.7-9.44 12.75-8.2 10.37-17.1 20.2-25.4 30.5-1.6 2-3.4 3.88-5.3 5.66-3.8 1.68-7.9 3.3-12.1 3.4-3.2.1-6.2-1.47-9-2.85 2.4-2.1 4.8-4.2 7.3-6.3 11.8-9.4 22.7-20 33.7-30.3 5.4-4.7 10.6-9.7 15.4-15z"/><path fill="#112b00" d="M503.77 476.46c2.2-1.12 4.4-2.3 6.56-3.5 20.22 12 40.33 24.32 61.58 34.45-2.2 2.3-4.6 4.9-8 5.4-3.3.4-6.7.3-10-.1-18-10.1-33.7-23.5-50-36.1z"/><path fill="#250" d="M500 478.3l3.77-1.84c16.27 12.6 32.04 26.02 50.03 36.16 3.84 2.45 7.6 5.05 11.35 7.64-3.84 3.6-9.12 4.35-14.16 4.53-17.9-14.6-34.3-30.8-51-46.5z"/><path fill="#4a0" d="M494.83 480.64c1.73-.76 3.45-1.54 5.16-2.34 16.7 15.75 33.1 31.95 51 46.5l1.7 1.4c-6.1 5.63-15.3 2.62-21-1.9-12.9-14.06-24.6-29.1-36.9-43.66z"/><path fill="#6f0" d="M487.96 483.52c2.3-.92 4.6-1.9 6.87-2.88 12.28 14.57 24.03 29.6 36.9 43.66 2.37 2.54 4.77 5.06 7.17 7.6-3.7 1.45-7.73 2.7-11.72 1.67-6.7-1.57-11.54-6.95-15.56-12.2-8.94-11.92-16.04-25.08-23.66-37.85z"/></svg>