<svg xmlns="http://www.w3.org/2000/svg" xmlns:xlink="http://www.w3.org/1999/xlink" width="560.635" height="394.97"><title>Blackbird</title><defs><linearGradient id="a"><stop offset="0"/><stop offset="1" stop-color="#333"/></linearGradient><linearGradient id="c"><stop offset="0"/><stop offset="1" stop-color="#333"/></linearGradient><linearGradient id="b"><stop offset="0"/><stop offset="1" stop-color="#4d4d4d"/></linearGradient><linearGradient xlink:href="#a" id="e" x1="428.557" y1="560.165" x2="585.131" y2="616.734" gradientUnits="userSpaceOnUse"/><linearGradient xlink:href="#b" id="d" x1="379.565" y1="596.783" x2="389.919" y2="498.546" gradientUnits="userSpaceOnUse"/><linearGradient xlink:href="#c" id="f" gradientUnits="userSpaceOnUse" x1="260" y1="506.291" x2="408.929" y2="589.505"/></defs><path d="M85.424 41.268c22.5-11.786 32.143-15.357 51.428-14.643 19.286.715 35.715 12.143 43.929 22.143 8.214 10 25.714 51.429 32.143 60 6.428 8.572 34.286 30.357 46.786 40s42.857 34.286 52.857 43.929 30.357 29.643 36.071 37.143c5.714 7.5 12.5 19.285 12.5 19.285s26.072 13.215 38.929 17.5c12.857 4.286 30 11.429 51.785 17.857 21.786 6.429 54.643 18.572 64.643 21.786 10 3.214 3.929 4.286 9.286 8.572 5.357 4.285 6.429 8.571 5 10.357-1.429 1.785-10 2.857-16.429 4.285-6.428 1.429-13.214-2.142-17.142-.714-3.929 1.429 3.214 3.572-10.358 2.5-13.571-1.071-27.5-12.857-43.571-17.143-16.071-4.285-38.571-16.785-49.643-17.143-11.071-.357-46.786.358-46.786.358s5.358 5 5.715 8.214c.357 3.214 3.571 9.643 0 8.928-3.572-.714-38.929-8.928-43.572-9.642-4.643-.715-7.143 4.285-14.643 3.214-7.5-1.072-8.928-5-16.071-6.429-7.143-1.428-10-1.071-10-1.071s1.071 13.928-1.071 17.5c-2.143 3.571-28.215 30.357-31.072 32.857-2.857 2.5-12.41 9.464-12.41 9.464s11.388 2.707 12.28 4.672c0 0-10.735-1.887-15.02-2.601 0 0-8.284 9.917-9.177 12.863-1.875-4.821 5.423-12.47 5.423-12.47l-17.453 10.177s8.909-9.39 12.884-10.95c-2.08-.636-10.504 2.792-20.813 5.452 8.215-8.393 23.75-8.036 27.322-10.178 3.571-2.143 13.75-14.286 18.75-18.215 5-3.928 10-13.214 10.357-14.643.357-1.428-.714-18.214-.714-18.214s-5.715 10-7.143 10c-1.429 0-22.857 7.5-28.214 9.643-2.939 1.175-13.835 2.698-19.77 6.334-2.47 1.512 6.602 4.873 9.963 7.82-1.635.648-12.331-4.507-14.02-3.954-1.193.315-2.113 1.002-4.573 1.787-3.378 1.079-15.175 11.306-16.327 10.687-1.52-.816 10.005-8.51 11.349-12 1.29-3.35-20.926 7.533-21.77 8.05-2.416-.86 14.659-10.315 19.288-10.557-2.662-1.759-23.52 4.327-23.79 3.546-.228-.661 13.368-5.6 16.346-6.445 4.786-1.357 14.375-.625 16.16-1.697 1.786-1.071 16.072-7.5 20-8.928 3.93-1.429 17.5-6.429 17.858-7.857.357-1.429 3.214-6.072.714-7.5-2.5-1.429-1.786-1.786-9.286-5-7.5-3.215-20.714-9.286-28.214-14.286s-40-34.286-50.714-54.643c-10.714-20.357-23.214-57.857-22.857-67.5.357-9.643 1.785-28.928 3.928-42.857 2.143-13.929 1.786-18.214.715-22.143-1.072-3.928-13.572-22.143-15.715-26.428-2.143-4.286-7.5-12.143-8.571-14.286-1.072-2.143-7.5-16.786-7.5-16.786z"/><path d="M95.08 36.339c-2.974 1.455-6.14 3.096-9.656 4.937 0 0 6.428 14.639 7.5 16.782.771 1.543 3.74 6.03 6.156 10.031 5.198 1.668 9.791 3.065 12.031 3.625 6.061 1.515 24.741 7.85 28.782 13.406 4.04 5.556-4.772 14.64.53 19.438 5.304 4.798 12.347 8.822 21.438 4.781 9.092-4.04 29.814-5.052 32.844-6.063 2.106-.701 6.372-6.01 9.563-10.218-7.027-14.112-15.793-32.994-21.625-41.719-16.518 3.296-25.28 5.227-30.875 2.719-7.324-3.283-20.696-11.891-32.313-13.407-6.817-.889-16.868-2.897-24.375-4.312z"/><path d="M65.067 37.518c-6.607-1.428-13.65-.05-14.465.357-2.5 1.25 0 2.322 1.965 2.857 1.964.536 6.964 2.5 8.035 2.679 1.072.179 29.286 11.607 32.679 14.107 3.393 2.5 14.821 10 14.821 10s-6.25-7.5-6.964-8.214c-.714-.714-4.464-5.179-5.178-5.893-.715-.714-17.858-13.571-18.75-14.107-.893-.536-12.143-1.786-12.143-1.786z" fill="#fbd351" stroke="#000"/><path d="M97.21 35.554c-15.358-4.643-28.572-6.429-36.072-4.643-7.5 1.786-11.253 2.755-12.143 3.929-1.48 1.953 3.155 1.853 8.393 2.678 2.687.423 10.714 3.036 13.572 4.107 2.857 1.072 24.821 13.036 24.821 13.036 3.638 2.356 4.03 3.203 7.143 4.821-1.429-1.071 2.143-1.071.357-2.857-1.786-1.785-12.143-7.143-12.857-8.928-.714-1.786-2.857-6.072-2.857-6.072z" fill="#fde980" stroke="#000"/><path d="M128.82 55.42c0 4.908-4.519 8.887-10.093 8.887s-10.092-3.979-10.092-8.887 4.518-8.887 10.092-8.887c5.574 0 10.093 3.979 10.093 8.887z" style="marker:none" color="#000" fill="#b2ab8e" overflow="visible"/><path style="marker:none" d="M125.798 55.598c0 3.352-3.086 6.07-6.892 6.07-3.806 0-6.892-2.718-6.892-6.07 0-3.351 3.086-6.068 6.892-6.068 3.806 0 6.892 2.717 6.892 6.068z" color="#000" fill="#413b2d" overflow="visible"/><path d="M123.063 55.241c0 2.022-1.861 3.66-4.157 3.66-2.296 0-4.157-1.638-4.157-3.66 0-2.021 1.861-3.66 4.157-3.66 2.296 0 4.157 1.639 4.157 3.66z" style="marker:none" color="#000" overflow="visible"/><path d="M118.893 51.589c-2.296 0-4.157 1.635-4.157 3.656 0 .198.029.374.063.563 2.769-.981 3.302-1.171 5-1.313 1.166-.097 2.35.48 3.219 1.063.01-.108.03-.203.03-.313 0-2.021-1.86-3.656-4.155-3.656z" style="marker:none" color="#000" fill="#686089" overflow="visible"/><path d="M244.969 498.281c-1.515-.252-8.333 6.593-6.313 12.906 2.02 6.314 6.82 16.413 12.375 21.97 5.556 5.555 31.547 20.694 39.375 29.28 7.829 8.587 27.782 22.468 30.813 28.782 2.343 4.88 3.624 12.434 4.437 18.781 3.102 1.532 3.183 1.989 5.063 3.063 2.5 1.428-.362 6.07-.719 7.5-.112.447-1.589 1.289-3.594 2.218-.038 2.91.033 5.758.813 8.094 8.267-2.96 19.267-6.719 20.281-6.719 1.429 0 7.156-10 7.156-10s1.045 16.79.688 18.219c-.112.448-.711 1.694-1.594 3.281.373.083.728.161 1.063.282 2.313.832 4.79 2.16 7.312 3.562 5.957-6.279 11.243-12.04 12.156-13.563 2.143-3.57 1.063-17.5 1.063-17.5s2.857-.366 10 1.063c7.143 1.429 8.594 5.366 16.094 6.438 7.5 1.07 9.982-3.934 14.625-3.22 4.642.715 40.022 8.943 43.593 9.657 3.572.714.357-5.723 0-8.938-.357-3.214-5.719-8.218-5.719-8.218s35.71-.701 46.782-.344c7.717.249 20.974 6.346 33.75 11.5a6318.45 6318.45 0 0 0-1.063-32.406c-10.169-3.635-18.927-7.028-26.25-9.469-1.801-.6-3.881-1.391-6.094-2.281-14.549 2.008-19.718 2.764-32.093 1.593-18.688-1.767-89.661-38.893-117.188-40.156-27.526-1.262-93.687-18.939-93.687-15.656 0 3.283-11.61-19.466-13.125-19.719z" fill="url(#d)" transform="translate(-107.076 -307.88)"/><path d="M389.031 533.406c-33.85.055 38.508 45.414 40.969 47.875 2.5 2.5 7.5 6.424 17.5 9.282 7.663 2.189 22.853 6.772 47.125 14.218 2.385.013 4.526.043 6.094.094 11.071.357 33.553 12.84 49.625 17.125 16.071 4.286 30.022 16.085 43.593 17.156 13.572 1.072 6.416-1.071 10.344-2.5 3.929-1.428 10.728 2.148 17.157.719 6.428-1.429 14.977-2.527 16.406-4.313 1.428-1.785.357-6.058-5-10.343-5.357-4.286.718-5.349-9.282-8.563-10-3.214-42.839-15.352-64.625-21.781-21.785-6.429-38.924-13.59-51.78-17.875-12.858-4.286-38.938-17.5-38.938-17.5l-.125-.219c-19.377-8.929-51.036-22.35-77.375-23.344a42.764 42.764 0 0 0-1.688-.03z" fill="url(#e)" stroke="#000" transform="translate(-107.076 -307.88)"/><path d="M241.75 473.938c-2.07.119-3.853.78-4.969 2.343-3.571 5 .375 35.375.375 35.375l-.375 1.406c14.643 17.858 22.5 20.367 25 21.438 2.5 1.071-.361 3.214 9.281 10 9.643 6.786 23.237 12.138 28.594 14.281 5.357 2.143 26.045 16.424 33.188 19.282 7.143 2.857 48.576 22.522 55.719 23.593 3.523.529 16.53 5.926 28.968 11.344 7.614 1.466 38.768 8.704 42.125 9.375 3.572.714.357-5.723 0-8.938-.357-3.214-5.719-8.218-5.719-8.218h.688c-1.063-.932-2.055-1.824-2.844-2.5-2.5-2.143-13.553-12.152-14.625-13.938-1.071-1.785-5.375-21.062-5.375-21.062s2.87-4.991 4.656-6.063c1.786-1.071 1.782-18.227-.718-22.156-2.5-3.929-20.005-18.933-25.719-23.219-5.714-4.285-26.79-16.428-35.719-17.5-8.928-1.071-18.915.023-27.844-1.406-8.928-1.429-26.424-7.527-36.78-9.313-10.358-1.785-26.786-2.116-30-3.187-3.215-1.071-18.938-6.446-23.938-7.875-3.438-.982-9.413-3.325-13.969-3.063z" fill="url(#f)" transform="translate(-107.076 -307.88)"/></svg>