<svg width="164pt" height="164pt" viewBox="0 0 164 164" xmlns="http://www.w3.org/2000/svg"><path fill="#b78847" d="M127.98 48.84c2.96-.67 6-.15 8.97.2 4.63.6 9.34 1.08 13.8 2.58-.63 4.54-1.15 9.17-2.97 13.42-1 .83-2.04 1.62-3.1 2.38l-.22-3.76c-.36 1.26-.68 2.53-1 3.8l-2.3 1.08 2.2-.37c-3.05 5.06-8.6 7.7-13.34 10.9-3.48 2.04-6.9 4.33-10.78 5.54-.35-.6-1.06-1.9-1.4-2.5l2.02-1c2.34-1.1 4.6-2.5 6.78-4 2.1-1.3 4.34-2.5 6.5-3.9 2.17-1.4 4.2-3.1 6.15-4.8 2.2-2.1 4.3-4.5 5.9-7.2.3-1.2.5-2.5.8-3.8l.2-.7.7-3.2.4-2c-6.5-.3-12.9-2-19.4-2.3z"/><path fill="#3a1b04" d="M118.55 52.7c3.1-1.4 6.27-2.6 9.43-3.86 6.5.35 12.84 2.03 19.35 2.34-.1.52-.3 1.56-.42 2.08-5.2-.84-10.5-1.83-15.9-2.28-3-.34-5.8 1.3-8.5 2.34l-.6.2 2.1 2.22c-2.2.98-4.5.78-6.7-.05 1.4-.9 2.7-1.6 4.1-2.5l-2-.5-.6-.1z"/><path fill="#b98225" d="M122.47 53.32c2.74-1.05 5.47-2.68 8.52-2.34 5.3.45 10.6 1.44 15.9 2.28-.2 1.06-.5 2.12-.7 3.18l-3.2-.26-1.6-1.48c-6.4 1.35-12.8-.05-19.1-1.38z"/><path d="M104.38 58.1c4.62-2.04 9.38-3.82 14.17-5.4l.66.12c-3.9 1.46-8.1 2.5-11.6 4.9 1.7.26 3.4.5 5.1.7.1.24.2.7.3.93l-1.7 1.06-2.7 1.6c-.8.5-1.7 1-2.5 1.4-6.4.2-10.5 5.4-15.9 7.9l2.3-3c2.9-1.6 6.5-3.3 6.5-7.2-18.7 7-37.8 13-56 21.3-1 .5-2.1 1-3.2 1.4-2 .9-4.1 1.6-6.2 2.4l-2.9 1-.3-.7c22.3-9.8 45.4-17.4 68.2-26 .1-2.3 1.2-4.5 3.7-4.9-1.4 1.5-2.8 3.1-3 5.3l5.2-2.7zM89.33 71.64l.37-.24-.37.24zm-14.6 8.06c4.93-2.35 9-6.35 14.33-7.88-7.04 5.67-15.1 9.9-22.3 15.35-.02.62-.04 1.87-.04 2.5-.75-.5-1.5-.97-2.25-1.45l-1.96 1.85.1 3.1-.5-.27-.5-.32c-1-.9-2-1.8-3-2.74 2.3-.53 4.3-1.66 5.7-3.5 2.8-.8 5.1-2.44 7.3-4.18L74 80.3l.22-.2.2-.2.4-.3zM48.07 97.9c2.3-1.6 4.5-3.36 6.82-4.95l.8.93c-.9.87-1.8 1.7-2.7 2.5l-2.9 2.18c-.8-.2-1.5-.44-2.2-.66z" fill="#c88d5f"/><path fill="#1e0800" d="M107.56 57.7c3.52-2.37 7.7-3.42 11.65-4.88.6.1 1.6.34 2.1.45-1.3.82-2.7 1.6-4 2.42 2.2.8 4.5 1 6.7 0 1.6-.6 3.3-.2 4.8.3-4.1 3.6-10 3.9-14.9 6.2l-.9-3-.2-.9c-1.7-.2-3.4-.5-5-.8z"/><path fill="#7d4f0e" d="M121.86 53.53l.6-.2c6.22 1.32 12.7 2.72 19.05 1.37l1.6 1.48 3.2.26-.2.75c-1.5.2-3 .3-4.5.5-2.6-1.4-5.6-1.8-8.5-.7l-1.8-1.4v1l-2.3-.7c-1.5-.5-3.2-1-4.8-.4l-2.1-2.2z"/><path fill="#2c1b0b" opacity=".57" d="M102.16 55.52l2.22 2.6c-1.74.87-3.46 1.78-5.2 2.66.15-2.2 1.55-3.77 2.98-5.26z"/><path fill="#432301" d="M128.75 56.1l2.35.68 1.04 4c-1.98.96-3.96 1.94-5.8 3.16-1-1.26-1.94-2.57-3.12-3.66-2.64 1.1-7.1 3.04-5.03 6.5-.8.53-1.6 1.07-2.4 1.63l-2-6.1c4.9-2.2 10.8-2.6 14.9-6.2z"/><path d="M131.13 55.7l1.86 1.33 1.5 1.23.3 4.42-1.8 2.8-.8-3.35c-5.1 3.34-10.4 6.3-15.8 9.23l-.6-2c3.6-1.3 7.1-3.04 10.2-5.42 1.8-1.22 3.8-2.2 5.8-3.17l-1.1-4V55.7zM54.2 79.98c.9-.4 1.8-.8 2.7-1.17.38 2.3.87 4.4 1.4 6.6-1.74.9-3.52 1.8-5.33 2.5-.37-1.2-.74-2.4-1.14-3.6l3.77-2.8-1.4-1.5zm58.9-.78l1.3.32c.9.33 1.77.7 2.63 1.1l.8 1.4c.35.66 1.06 1.94 1.4 2.6l-3.2 1.04-1.1 1.8c-.45.17-1.32.5-1.76.7-.32-.15-.95-.43-1.27-.56 1.75-1.5 3.6-2.9 5.75-3.76l-1-1.75c-.16-.3-.52-.9-.7-1.2-.93-.6-1.9-1.2-2.84-1.7zm-27.92 6.64c-.37-1.47-.04-4.86 1.3-5.43.4 1.6.76 5.2-1.3 5.5z" fill="#0a0100"/><path fill="#552e03" d="M133 57.03c2.83-1.1 5.82-.67 8.5.7 1.28 1.02 2.5 2.12 3.7 3.25-1.6 2.7-3.66 5.08-5.9 7.25-.26-3.08-.52-6.15-.7-9.22-.54 2-1.12 4-1.78 6l-1.93-2.2c-.2-1.4-.3-2.9-.4-4.4l-1.6-1.2z"/><path d="M141.5 57.73c1.5-.16 3.02-.32 4.54-.54-.3 1.2-.54 2.5-.84 3.7-1.2-1.2-2.42-2.3-3.7-3.3zM39.63 83.7c1.1-.45 2.17-.9 3.25-1.4l.68 2.4c2.15-.17 4.3-.23 6.46-.1.3 1.15.6 2.3.93 3.44-5 2.06-10.36 2.95-15.32 5.1-2.5-.8-5-1.58-7.47-2.4l.1 1.97-.58.1c-1.47-.1-2.95-.1-4.42-.2 5.05 4.5 12.13 5.3 18.14 8l-4.15.1c-4.66-2-9.42-3.9-14.34-5.3-2.8-.7-4.5 2.2-6.1 4.1-.8-.6-1.6-1.3-2.3-2 4.7-4.5 10.4-7.4 16.2-10.1l2.9-1c.5 1.3-.2 2.2-1 3.1 3.4-.3 6.9-.9 9.6-3.2L39.9 84z" fill="#0d0100"/><path fill="#68410a" d="M136.82 64.93c.66-1.95 1.24-3.93 1.77-5.92.1 3.1.4 6.2.7 9.3-2 1.8-4 3.4-6.2 4.9l-2.2-1.4c1.2-.9 2.6-1.7 3.5-3.1.4-1.9.3-3.9.4-5.9l1.9 2.3z"/><path fill="#503224" d="M111.2 60.4c.4-.26 1.26-.8 1.68-1.05l.94 2.96 1.97 6.1.2 1 .5 2 .2 1.5c-1.3-.2-2.5-.3-3.8-.6 1.6-2.7-.1-5.7-.8-8.4l-1.1-3.4z"/><path fill="#6b3e07" d="M123.22 60.28c1.18 1.1 2.12 2.4 3.13 3.66-3.1 2.38-6.6 4.13-10.28 5.43l-.28-.96c.8-.5 1.6-1.1 2.4-1.6-2.1-3.4 2.3-5.4 5-6.5z"/><path fill="#1f0e06" d="M108.47 62l2.72-1.6c.3 1.15.7 2.3 1 3.43l-3.3.9-.6-2.72z"/><path fill="#251100" d="M42.88 82.3C61.06 74 80.16 68 98.83 60.9c-.06 3.88-3.68 5.58-6.54 7.25-3.5 1.7-6.6 3.9-10.3 5.08-4.1 1.35-8.3 3.18-10.7 6.9l-1.8-3.96c-2.5 1.2-4 3.25-3.6 6.14-1.9 1.1-3.7 2.1-5.5 3.2-1.4-2.1-1.7-4.9-3.7-6.6L54.2 80c.36.36 1.05 1.1 1.4 1.47l-3.77 2.86c-.5-1.4-1.38-2.6-2.56-3.54.2 1.3.45 2.5.75 3.8-2.15-.2-4.3-.1-6.46.1l-.68-2.4z"/><path fill="#5a3508" d="M105.95 63.4c.85-.43 1.7-.9 2.52-1.4l.53 2.72 3.28-.9c.76 2.74 2.45 5.7.83 8.44l-2.9-1.6c-1.6-.98-3.1-2.08-4.6-3.2 1.1-.96 1.7-2.12 1.9-3.5l-1.5-.56z"/><path fill="#6f3e06" d="M116.6 71.36c5.35-2.92 10.66-5.9 15.76-9.23l.8 3.34-.77 1.2-1.4-2-2.9 1.5c.2 1.67 1.6 3.7 0 5.04-1.5 1.4-3.5 1.7-5.4 2.4l.8-2.5c-2 .5-4 1.1-5.9 1.7l-.8.2-.3-1.5z"/><path fill="#2c1300" d="M133.15 65.47l1.74-2.8c-.1 2-.1 4-.5 5.93-.9 1.33-2.3 2.14-3.5 3.1-2 1.38-3.9 2.86-5.7 4.4l-1.8-1.2c-1.9-.97-3.9-1.7-5.9-2.24 1.9-.6 3.9-1.15 5.9-1.67l-.8 2.5c1.8-.7 3.9-1 5.3-2.4 1.6-1.4.2-3.4 0-5.1l2.9-1.5 1.3 2 .7-1.2z"/><path fill="#482704" d="M89.98 71.22c5.47-2.43 9.57-7.66 15.97-7.8l1.48.54c-.2 1.38-.8 2.54-1.84 3.5l-2.4.1-1.2-1.1-2.7.58c-1.7.34-3.1 1.4-4.4 2.48l-.9 1.1c-2 1-4 2.1-5.8 3.4l-.3.18-.2.3-1.1 1.9c-1.7.53-3.5 1.14-5.1 1.88-2 1.14-3.9 2.52-5.7 3.92-2.8 2.13-6.7 3.8-6.8 7.86.4.94.9 1.88 1.3 2.83l-.3 1.3-1.3-1.8c-1.5.5-3 1.1-4.4 1.6l-1.9-.9-.1-3.1 1.9-1.9 2.2 1.4V87c7.3-5.4 15.4-9.6 22.4-15.25l.3-.2.3-.28.3-.2z"/><g fill="#210000"><path d="M143.47 67.46c.3-1.27.63-2.54 1-3.8l.2 3.76c1.07-.76 2.1-1.55 3.1-2.38-4.3 10.82-10.7 21.14-19.95 28.4l-.1-2.74c-5.3 2.98-10.22 6.63-15.66 9.4-8.16 4.56-17 7.73-25.84 10.73-.46-.34-1.38-1-1.83-1.35 1.7-1.24 3.4-2.7 4.7-4.46-4.7-.46-9.5 3.65-13.7.63 13.7-3.14 27.6-6.83 39.9-14.04 10.1-5.1 20.4-10.6 27.9-19.4 1.4-1.5 2.2-3.4 2.9-5.3l-2.8 1.4-2.2.4 2.3-1.1z"/><path d="M114.7 101.82c4.36-2.33 8.06-5.7 12.45-7.97-3.2 3.36-7.3 5.66-11.2 8.13-14.9 9.1-31.68 14.83-48.86 17.78-12.3 2-25.8 3.45-37.3-2.5 16 4.97 33.1 3.05 49.1-1.03 12.3-3.46 24.4-8.15 35.7-14.4z"/></g><path fill="#406e65" d="M99.34 67.04l2.72-.58 1.18 1.1 2.35-.1c1.4 1.12 3 2.22 4.6 3.2l-1.2.9c-1 3.26 3.3 3.78 5.3 5.1v2.86l-1.3-.32c.9.56 1.9 1.1 2.8 1.7.2.3.5.9.7 1.2-2.8 1.1-4.9 3.26-7.1 5.13-1.3-.07-2.5-.1-3.7-.1 1.1-.52 2-1.2 2.9-2.06-3.4-.64-7-.6-9.8-2.65 2.3.8 4.7.58 7 .52 2-.53 2.8 2.83 4.7 1.85-.5-2.4-1.4-4.8-1.5-7.2-1.5-1.5-3.6-1.9-5.5-2.5l-.8-3.1 3.4-.6c-1.6-2.8-6.3-1.1-7.1-4.6m7.9 6.3c.5.5.5.5 0 0z"/><path d="M94.92 69.52c1.32-1.08 2.7-2.14 4.42-2.48.88 3.47 5.58 1.78 7.1 4.53l-3.4.52-.77.1c-2.04 2-4.13 4.3-7.32 3.8 1.43-1.1 2.88-2.1 4.28-3.1-1.88-.8-3.7.7-5.6.2-.96 1.4-2.14 2.6-3.67 3.4l.62 2.3c-1.26-.9-2.53-1.7-3.82-2.5l1.08-1.9.2-.3.24-.3c1.8-1.3 3.75-2.4 5.75-3.4l2.7.3-1.8-1.5zm-12.9 3.7c3.67-1.16 6.85-3.4 10.27-5.07l-2.4 3.07-.3.18-.4.24-.3.18c-5.4 1.53-9.4 5.53-14.4 7.9L74 80l-.2.1-.24.2-2.45 1.8v-2c2.4-3.8 6.6-5.6 10.7-6.9z" fill="#588981"/><path fill="#76736b" d="M143.37 68.17c.93-.46 1.86-.9 2.8-1.33-.65 1.94-1.52 3.82-2.9 5.35-7.5 8.7-17.8 14.2-27.9 19.4.4-1.1.82-2.2 1.2-3.3-.42-.2-1.24-.7-1.65-.9l1.12-1.8 3.2-1.1c3.9-1.2 7.3-3.5 10.78-5.6 4.75-3.2 10.3-5.9 13.35-10.9z"/><path fill="#78b5ad" d="M94.03 70.63l.9-1.1 1.8 1.45c-.67-.1-2.02-.26-2.7-.35z"/><path fill="#639087" d="M110.2 70.66c.96.55 1.93 1.08 2.9 1.6 1.25.26 2.5.43 3.76.62l-.73 1.9c1.72.34 3.43.66 5.15 1.02-.98.58-1.94 1.18-2.9 1.8-1.3-.42-2.67-.68-4.02-.93l.23-1.84c-1.9-1.17-3.8-2.2-5.6-3.26l1.2-.9z"/><path fill="#75a297" d="M93.63 73.15c1.9.5 3.72-.94 5.6-.2-1.4 1.06-2.85 2.07-4.28 3.12 3.2.54 5.28-1.8 7.32-3.8l.77-.18.78 3c1.9.6 4 1 5.47 2.4 0 2.5.9 4.8 1.4 7.2-1.9.9-2.7-2.4-4.7-1.9-2.4 0-4.8.3-7.1-.5 2.9 2 6.5 2 9.8 2.6-.9.8-1.8 1.5-2.9 2h-.3c-5.1-1.9-10.7-3.9-15.9-1.2 1.2 1.2 2.3 2.5 3.7 3.4 2.1 0 4.1-.5 6.2-.7-5.8 2.7-12.1 4-18.3 5.3l-2.2-1 .3-2.2.54.12-.48-.67-3.3-1.7 2.7-.1c-.17-1.4-.2-2.9.1-4.3.73.8 1.44 1.7 2.15 2.5l2.4-.7 1.9-6.7-3.8-.6c1.6-.7 3.3-1.3 5.1-1.9 1.3.8 2.5 1.7 3.8 2.5l-.6-2.3c1.5-.8 2.7-2 3.6-3.4m6.5 3.1l2.8 1.7-.8 2.7 1.6-.7 2.4 1.2c-1.2-2.4-3.26-4.9-6.2-4.8m-7.7.9c-.5 1.3 1.63 2.2 2.5 1.4.7-1.3-1.63-2.3-2.5-1.4M85 86c2.07-.25 1.7-3.88 1.3-5.44-1.33.6-1.66 4-1.3 5.46m.7 4.3c2.4-1.3 2.9-4.2 3.3-6.64-1.8 1.6-2.87 4.25-3.26 6.63M82 87.4c.57.58.57.58 0 0m7.1 1c-.84 1 .5 2.9 1.7 2.37.8-.93-.5-2.9-1.7-2.34m-8.07.7c.3 3.24 3-1.7 0 0z"/><path fill="#1f3b34" d="M114.36 76.66c-1.98-1.32-6.35-1.84-5.36-5.1 1.88 1.06 3.78 2.1 5.6 3.27l-.24 1.83z"/><path fill="#9e6718" d="M125.3 76.1c1.83-1.54 3.7-3.02 5.66-4.4l2.17 1.4c-2.15 1.33-4.38 2.53-6.5 3.9l-1.33-.9z"/><path fill="#88bdb0" d="M107.3 73.34c.55.55.55.55 0 0z"/><path fill="#88b6af" d="M116.86 72.88l.8-.22c2 .54 3.98 1.27 5.83 2.25-.6.3-1.7.7-2.3.9l-5.2-1 .7-1.9z"/><path fill="#99cec7" d="M88 74.2l.28-.18-.23.24-.2.25.15-.3z"/><path fill="#577b6f" d="M123.5 74.9l1.8 1.2 1.34.9c-2.18 1.47-4.44 2.82-6.78 4-.48-1.14-.97-2.27-1.47-3.4.9-.62 1.9-1.22 2.8-1.8l2.2-.9z"/><path fill="#0c0200" d="M66.08 82.3c-.4-2.88 1.06-4.93 3.55-6.13.6 1.3 1.2 2.62 1.73 3.97 0 .5.05 1.52.07 2.02-1.76-.72-3.62-.53-5.35.15z"/><path fill="#69958c" d="M100.16 76.22c2.93-.05 5 2.44 6.17 4.86-.62-.3-1.85-.85-2.47-1.14l-1.66.7.82-2.73c-.96-.5-1.9-1.1-2.86-1.6z"/><path fill="#5c8a7f" d="M92.47 77.14c.85-.9 3.2.07 2.48 1.38-.87.77-2.98-.12-2.48-1.38z"/><path fill="#7aa79c" d="M114.36 76.67c1.35.25 2.7.5 4.03.93.5 1.13.9 2.26 1.4 3.4l-2.1 1.03-.8-1.42c-.9-.4-1.8-.7-2.7-1l-.1-2.8z"/><path fill="#3c2001" d="M56.9 78.8c2.05 1.68 2.27 4.54 3.7 6.65 1.82-1.04 3.63-2.12 5.48-3.14 1.73-.6 3.6-.8 5.35-.1-2.23 1.8-4.57 3.4-7.3 4.2-1.45 1.8-3.44 3-5.7 3.5 1 1 2.03 1.9 3.08 2.8l-2.7 1.7c.7-2.2-2.8-2.8-3.9-1.3-2.3 1.6-4.5 3.4-6.8 5-1.8-.5-3.7-1-5.6-1.6-2.1-1.3-4.4-2.4-6.8-3.1 5-2.2 10.3-3.1 15.3-5.1l-.9-3.4c-.3-1.2-.5-2.5-.7-3.8 1.2 1 2.1 2.2 2.6 3.6l1.2 3.6c1.8-.7 3.6-1.6 5.3-2.5-.5-2.2-1-4.3-1.4-6.6z"/><path d="M74.3 80l.42-.3-.43.3zm15.42 6.05c5.2-2.75 10.78-.68 15.86 1.15-1.92.63-3.88 1.15-5.86 1.57-2.1.22-4.15.7-6.25.68-1.45-.9-2.56-2.22-3.75-3.4m3.33.25c-1.47 2.95 3.4.18 0 0z" fill="#26413b"/><path fill="#4a6e65" d="M75.93 82.2c1.84-1.4 3.7-2.78 5.74-3.92l3.74.6c-.6 2.25-1.2 4.5-1.9 6.75l-2.4.73L79 83.9c-.3 1.42-.3 2.86-.13 4.3l-2.7.12c1.12.56 2.23 1.13 3.33 1.7l-.1.55-.35 2.16 2.4 1.42c-1.55.26-3.13.5-4.7.72l.05-2.34-2.75 1.4-2.3-1.8c.77-1.8 1.5-3.64 2.17-5.48 1-1.32 1.85-2.77 2.08-4.45m5.3.88c.2 3.25 3.04-1.5 0 0z"/><path fill="#173c32" d="M74.1 80.1l.2-.1-.2.12-.23.17.23-.2z"/><path fill="#74a398" d="M69.2 90.06c.1-4.07 3.94-5.73 6.73-7.86-.23 1.68-1.06 3.13-2.07 4.45-.68 1.84-1.4 3.67-2.17 5.48.7.6 1.5 1.2 2.3 1.8l1.6 1.35c-2.1.63-4.3 1.2-6.4 1.63l.9-2.7.3-1.3c-.4-.9-.9-1.9-1.3-2.8z"/><path fill="#71958c" d="M81.23 83.08c3.04-1.5.2 3.25 0 0z"/><path fill="#79a69e" d="M109.53 87.23c2.26-1.87 4.34-4.04 7.13-5.14l1 1.7c-2.16.8-4 2.2-5.76 3.7l-2.37-.4z"/><path fill="#321800" d="M33.38 86.08c2.1-.77 4.2-1.54 6.25-2.38l2.3 2.23c-2.73 2.23-6.2 2.9-9.6 3.2.8-.84 1.53-1.78 1.05-3.05z"/><path fill="#426a5e" d="M85.9 90.13c.4-2.38 1.47-5.04 3.27-6.65-.37 2.44-.86 5.35-3.27 6.65z"/><path fill="#85a19e" d="M93.05 86.3c3.4.18-1.47 2.95 0 0z"/><path fill="#b98947" d="M26.1 88.34c1.4-.56 2.82-1.62 4.44-1.2-5.76 2.7-11.5 5.68-16.13 10.13.8.7 1.6 1.4 2.4 2.06 6.6 2 13.7 1.18 20.5 1.27 1.4 0 2.8-.02 4.2-.04 4.6-.03 9.2-.5 13.8-1.18l1.4-.2 4.6-.76 2-.38 1.4-.3c1.6-.3 3.2-.53 4.8-.83 2.2-.4 4.3-1 6.5-1.6L74 94c.9-.48 1.82-.95 2.74-1.4l-.05 2.33c1.5-.22 3.1-.46 4.7-.72 6.2-1.3 12.5-2.6 18.3-5.3 2-.4 3.9-.9 5.8-1.6l.3-.1 3.3 2.6c-18.5 6.9-37.8 11.6-57.3 14.8-12 1.7-24.1 1.2-36-.2-2.2.2-4.4.1-6.3-.9.1-1.4.1-2.9.1-4.3C14 94 20.1 91.2 26 88.4z"/><path fill="#22342d" d="M82.1 87.3c.57.55.57.55 0 0z"/><path fill="#665c41" d="M105.87 87.12c1.22 0 2.44.04 3.66.1.6.1 1.78.3 2.37.38.32.13.95.4 1.27.55-1.32.55-2.64 1.1-3.98 1.58l-3.4-2.6z"/><path fill="#4b776d" d="M89.2 88.26c1.2-.57 2.5 1.4 1.7 2.37-1.2.5-2.54-1.4-1.7-2.37z"/><path fill="#7a7873" d="M113.17 88.15l1.75-.7 1.64.85c-.37 1.1-.8 2.2-1.2 3.3-12.26 7.22-26.15 10.9-39.9 14.05-9.48 1.43-18.9 3.32-28.37 4.73-9.8.3-20.1 1.62-29.5-2.02l-1.8-4.1c11.9 1.36 24 1.82 35.9.18 19.5-3.1 38.8-7.86 57.3-14.7 1.3-.5 2.6-1.04 3.9-1.6z"/><path fill="#26443b" d="M81.13 89c3-1.7.26 3.24 0 0z"/><path fill="#0d2c23" d="M79.43 90.03l.47.67-.56-.13.1-.54z"/><path fill="#673b04" d="M28.16 90.74c2.48.82 4.97 1.6 7.47 2.4 2.4.73 4.7 1.8 6.85 3.14-5.12.17-10.5-.48-14.8-3.5l.58-.07-.1-1.9z"/><path fill="#908275" d="M54.9 92.95c1.1-1.5 4.57-.94 3.9 1.32l-.32.64c-.2.2-.6.6-.82.8l-1.94-1.8-.82-.9z"/><path fill="#582d00" d="M64.42 94.04c1.48-.5 2.94-1.07 4.4-1.62l1.33 1.78-.94 2.7c-1.5.3-3.1.54-4.7.84.1-1.23 0-2.47 0-3.7z"/><path fill="#7d7b76" d="M112.06 100.1c5.44-2.77 10.35-6.42 15.66-9.4l.1 2.73-.67.42c-4.4 2.28-8.1 5.64-12.46 7.97-11.3 6.26-23.4 10.95-35.7 14.4-16 4.1-33.2 6-49.2 1.03-2.7-1.16-5.2-2.8-7.7-4.46l.1-1.7c6.2 2.5 12.8 4.4 19.6 4.5 14.8.1 30 0 44.2-4.8 8.8-3 17.7-6.2 25.8-10.8z"/><path fill="#8d5912" d="M23.26 92.6c1.47.04 2.95.1 4.42.2 4.3 3 9.68 3.65 14.8 3.48 1.86.55 3.74 1.04 5.6 1.62.7.22 1.4.47 2.12.66 1.62.44 3.27.74 4.95.82-4.55.7-9.14 1.15-13.75 1.18-6-2.66-13.1-3.5-18.14-7.96z"/><path fill="#140b04" d="M58.8 94.27l2.7-1.7.55.33c.16 1.85-2.1 3.45-3.57 2l.3-.63z"/><path fill="#613a1b" d="M62.05 92.9l.5.27 1.87.87c.03 1.23.06 2.47 0 3.7l-1.38.3c.56-2.64-2.8-1.9-3.9-.67.5.27 1.46.8 1.95 1.05l-4.6.75c-1.1-1.06-2.3-1.98-3.5-2.8.9-.78 1.8-1.62 2.6-2.5l1.9 1.84.8-.8c1.4 1.5 3.7-.1 3.5-2z"/><path fill="#986618" d="M16.77 99.33c1.6-1.83 3.26-4.8 6.14-4.03 5 1.36 9.7 3.24 14.4 5.3-6.8-.1-13.8.73-20.5-1.27z"/><path fill="#412001" d="M59.15 97.37c1.1-1.24 4.45-1.97 3.9.67-.5.1-1.48.3-1.96.38l-2-1.05z"/><path fill="#4a270f" d="M50.2 98.56l2.86-2.2c1.23.83 2.4 1.75 3.46 2.8l-1.37.22c-1.68-.08-3.33-.38-4.95-.82z"/><path fill="#2b0000" d="M7.5 103c.74-1.37 1.5-2.7 2.27-4.04 0 1.44-.03 2.9-.15 4.33 1.93 1 4.1 1.1 6.26.9.6 1.3 1.18 2.7 1.75 4.1 9.37 3.7 19.67 2.4 29.47 2.1 9.47-1.4 18.88-3.3 28.36-4.8 4.22 3 9-1.1 13.64-.7-1.28 1.7-2.93 3.2-4.7 4.4l1.82 1.3c-14.22 4.8-29.42 4.9-44.26 4.8-6.77 0-13.36-2-19.58-4.5l-.15 1.7c-2.22-1.6-4.3-3.3-6.3-5.1-2.6 1.1-5.13 2.3-7.8 3.2l.13-.5c.32-1.3.65-2.5 1.07-3.7.44-.4 1.32-1.3 1.77-1.7-.9-1.1-2.36-1.5-3.6-2.1z"/><path fill="#ae8041" opacity=".97" d="M3.45 104.9c1.07-1.04 2.46-2.13 4.05-1.9 1.24.6 2.7.98 3.6 2.1l-1.77 1.72c-2.13 0-4.1-.82-5.88-1.93z"/><path fill="#6e4a1e" opacity=".94" d="M3.45 104.9c1.78 1.1 3.75 1.9 5.88 1.92-.42 1.2-.75 2.42-1.07 3.65l-3.82-1.8c-.3-1.27-.64-2.53-1-3.78z"/></svg>