<svg width="256pt" height="256pt" viewBox="0 0 256 256" xmlns="http://www.w3.org/2000/svg"><path d="M91.22 41.26c8.55-1.27 17.21.11 25.8.19 5.7.53 11.97-.54 17.12 2.45 3.41 4.63 6.17 9.74 9.38 14.53 12.42 4.14 25.47 6.67 37.11 12.88 4.5 2.35 9.79 3.99 13.17 7.92-.27 2.96-2.02 5.59-2.95 8.4 4.15 5.68 7.85 11.73 12.23 17.24 5.73 3.01 12.42 3.88 18.25 6.73 1.51 4.76 1.36 9.95 2.22 14.88 9.18.23 18.37.47 27.55.55 1.4-.02 3.72.13 3.62 2.05-.46 2.43-1.41 4.73-2.13 7.08.37.46 1.11 1.36 1.48 1.81-3.77 8.03-6.93 16.32-10.37 24.5-2.04 4.87-5.76 8.74-8.66 13.1 1.53 1.92 3.09 3.82 4.69 5.7-.8.94-1.34 2.4-2.79 2.44-14.17 2.45-28.37 4.77-42.54 7.23-.38.49-1.14 1.48-1.52 1.97-9.43.5-18.87.83-28.3 1.34-1.81 2.53-4.85 3.54-7.49 4.96-2.06 1.08-4.23 2.07-6.6 2.08-3.68 1.58-7.56.7-11.16-.6-4.49 1.21-10.27 1.6-13.36-2.6-1.82-1.71.69-3.88 1.25-5.64-1.13-1.63-2.44-4.2-.47-5.77 2.79-2.2 6.54-2.31 9.89-2.96 2.49-4.82 7.35-8.64 12.99-8.27.19-5.45-1.18-10.75-2.27-16.03-1.18-2.59-3.11-4.74-4.68-7.08-2.08 2.6-5.94 4.09-8.78 1.69-3.36-3.16-1.2-8.09-.99-12.01.86-3.94-4.14-6.4-2.98-10.51-.44-.36-1.32-1.07-1.75-1.43-.88 2.02-1.06 4.82-3.35 5.82-2.29 1.29-5.37-.09-6.31-2.44-1.88-3.25.68-6.65 1.5-9.82-3.35 1.7-6.65 3.56-10.22 4.79-.73-1.8-1.42-3.61-2.04-5.45-1.13.96-2.15 2.26-3.73 2.46-1.18-.44-2.3-1.01-3.36-1.71-1.31 4.24.38 10.2-4.03 12.88-3.11 1.75-5.28-1.65-7.1-3.58.53 3.76 1.31 7.49 2.22 11.17-1.84 3.75-4.3 7.48-4.01 11.85.42 5.79.68 12.12 4.34 16.94 2.39 3.05 6.92 4.68 7.52 8.9.11 2.55-2.06 3.79-4.2 4.38-.93.88-1.85 1.77-2.78 2.66 1.4 1.99 3.62 4.23 2.54 6.9-2.41 3.65-7.23 4.06-10.91 5.82 1.1 3.07 3.8 5.89 3.22 9.34-.87 3.17-4.59 4.1-7.48 4.25-9.36.41-18.78.62-28.1-.46-3.25-.65-7.82-1.83-8.27-5.74.06-4.58 4.59-6.47 7.98-8.35-1.49-2.08-3.88-4.68-2.41-7.4 2.49-3.84 7.32-4.82 11.39-6.13-6.38-1.57-12.59-3.86-19.11-4.81-6.13-1.14-12.37-1.87-18.39-3.53-3.61-1.8-7.25-3.79-10.41-6.28-1.64-4.77-2.38-9.79-3.67-14.66-1.22-5.95-3.69-12.01-2.31-18.15 5.28-2.86 11.19-4.4 16.69-6.8-.88-5.39-2.1-10.73-2.92-16.13-.46-1.79 1.07-3.12 1.83-4.56 5.04-1.02 10.07-2.13 15.08-3.33 1.4-2.99 3.23-5.81 4.16-9 .75-3.96 1.1-7.98 1.76-11.95 3.39-1.51 6.99-2.45 10.57-3.41 2.18-.41 3.19-2.59 4.48-4.14 3.06-3.96 5.75-8.23 9.11-11.94 5.06-3.07 10.42-5.63 15.58-8.55 2.76-6.21 5.4-12.46 8.18-18.66m4.02 3.84c1.62 1.55 3.18 3.76 5.7 3.62 7.62.31 15.24.56 22.86.87 1.38-1.08 2.76-2.15 4.15-3.23-10.9-.48-21.81-.97-32.71-1.26m31.48 8.32c-1.14 3.08-1.73 6.33-2.63 9.48 5.15-.53 10.38-.97 15.32-2.64-2.36-3.87-4.81-7.68-7.24-11.5-1.84 1.5-4.06 2.69-5.45 4.66M86.6 62.6c-4.87 4.03-11.25 5.81-16.3 9.61-3.1 3.26-5.39 7.19-8.21 10.68 3.82-.6 7.73-.71 11.48-1.68 3.44-1.96 5.71-5.45 9.11-7.48 3.27-.9 6.73-.7 10.1-.95 1.01-7.01 1.95-14.04 2.98-21.05-1.03-.91-2.06-1.83-3.1-2.75-2.12 4.49-3.67 9.26-6.06 13.62m13.48-9.48c-.96 6.46-1.87 12.93-2.72 19.41 7.7.33 15.41.49 23.11.82-.39-1.81-.82-3.62-1.11-5.45-.97-4.8 1.55-9.32 2.5-13.92-7.26-.34-14.52-.59-21.78-.86m27.46 14.02c7.54 3.71 16.14 3.34 24.14 5.34 4.87 1.57 9.48 3.84 14.28 5.63 4.48 1.99 9.43-.59 14.01.84 2.5.67 5.04 1.4 7.66 1.07-5.67-3.42-11.81-5.98-17.8-8.77-8.85-3.1-17.92-5.56-26.88-8.32-4.66 2.8-10.13 3.44-15.41 4.21m-3.15 3.43c.18.77.55 2.3.73 3.07 4.52.58 9.05 1.07 13.61 1.24-4.98-.71-9.84-2.06-14.34-4.31m15.07 4.33c1.23 1.67 2.43 3.36 3.6 5.07-.51 1.45-1.03 2.89-1.54 4.33 8.21.49 15.16 5.42 22.75 8.07.66-3.16 1.3-6.33 1.91-9.5-4.27-1.7-8.52-3.5-12.82-5.15-4.45-1.72-9.26-1.92-13.9-2.82M93.82 77c2.08 2.31 4.12 4.64 6.08 7.04 12.05-1.49 24.09-3.09 36.13-4.68-13.98-1.97-28.12-2.06-42.21-2.36M79.2 82.41c4.02 2.12 7.61 4.95 10.67 8.31 2.03-1.53 4.06-3.06 6.09-4.6-2.97-3.67-6.3-7.34-10.97-8.77-1.93 1.69-3.85 3.38-5.79 5.06m91.31.95c-.48 2.55-.95 5.09-1.29 7.66 3.26-1.64 5.12-4.71 6.12-8.1-1.62.14-3.22.29-4.83.44M104 88c-4.24.06-7.32 3.18-10.46 5.59-4.54 3.79-10.71 4.08-16.13 5.87-3.82 1.25-8.06 1.57-11.57 3.6-1.69 5.82-.22 12.58-3.97 17.74-2.29 3.49-4.55 7.01-6.59 10.66 10.08-3.94 16.88-12.71 24.87-19.51 8.38-1.4 16.98-1.33 25.43-2.31 4.05-5.02 8.28-9.87 12.43-14.79-.66-1.6-1.44-3.16-1.81-4.85-.1-1.55 1.7-1.74 2.79-2.08 6.15-1.41 12.44-2.17 18.56-3.76-11.26.4-22.35 2.74-33.55 3.84m73.94.58c1.32-.25 2.62-.56 3.92-.91.72-.99.9-2.26 1.33-3.39-.82-.17-2.48-.53-3.3-.7-.66 1.66-1.32 3.33-1.95 5M49.2 90.47c4.24 3.09 8.9 5.66 13.92 7.27 1.65.69 3.39.04 5.03-.33 5.8-1.66 11.64-3.13 17.43-4.82-3.1-2.75-6.33-5.79-10.5-6.71-8.75.59-17.48 2.02-25.88 4.59m74.96.9c10.71 8.4 25.82 6.78 36.77 14.73 3.75 2.95 8.68 2.54 13.02 3.89 3.7 3.11 6.43 7.22 9.77 10.72 10.77-.47 21.97-1.12 31.55-6.65-4.36-1.63-8.83-2.92-13.19-4.52-1.87-.5-2.9-2.23-3.96-3.69-3.45-5.05-6.94-10.08-10.49-15.06-3.74 1.49-7.75 1.9-11.7 2.38-3.75.32-6.81 2.67-9.86 4.64-6.66-2.51-13.07-5.63-19.69-8.22-7.39-2.26-14.91.63-22.22 1.78M46.9 94.35c-.79 4.84-1.41 9.77-.7 14.67.2 2.96 1.24 6.18-.38 8.93-2.63 5.22-5.37 10.39-7.97 15.63 3.18.57 6.35 1.15 9.53 1.73 3.95-6.09 7.8-12.25 11.56-18.45 1.86-4.74 1.47-10.04 2.37-15-5.08-1.93-9.98-4.33-14.41-7.51m76.96 1.93c1.13 2.65 2.39 5.24 3.77 7.76.16-1.71.31-3.42.46-5.12-1.41-.89-2.82-1.77-4.23-2.64m-14.51 15.97c.77 3.38 1.75 6.71 2.88 9.98 4.27-1.56 8.29-3.67 12.17-6.01.22-3.08.91-6.31-.23-9.28-1.04-2.82-2.56-5.42-3.96-8.06-3.88 4.24-7.32 8.85-10.86 13.37m22.77-11.64c-.5 8.57-.24 17.21-1.68 25.7 3.36 2.44 6.95 4.53 10.34 6.92 2.16 1.32 2.58 3.98 3.49 6.12 2.07-2.28 4.27-4.43 6.59-6.45.6.29 1.82.87 2.43 1.17-.34 6.09-.92 12.17-1.39 18.25 2.5 1.16 5.01 2.28 7.55 3.36 4.96-6.14 9.74-12.42 14.7-18.57 3.39-3.94 4.08-9.27 5.71-14.03-2.72-2.97-5.02-6.37-8.12-8.97-3.31-1.3-7.09-.9-10.29-2.57-3.49-1.8-6.56-4.44-10.38-5.56-6.29-1.86-12.64-3.55-18.95-5.37m-105.5 38.38c3.1 3.69 6.22 7.36 9.31 11.06.93.92 1.71 2.25 3.1 2.48 3.94.81 7.93 1.39 11.85 2.33-1.21-5.04-2.42-10.09-3.64-15.13-4.49-.94-9.07-1.44-13.52-2.57-1.47-.24-1.72-2.27-.97-3.33 2.74-5.82 5.97-11.41 8.73-17.21 1.12-2.08.53-4.5.57-6.74-5.3 9.62-10.23 19.44-15.43 29.11m5.88-24.8c.15 1.4.82 1.65 2 .75-.16-1.41-.82-1.66-2-.75m49.69 2.03c-4.9 3.72-8.69 8.72-13.72 12.31-5 4.43-11.35 6.69-17.04 10.02 1.53 5.83 2.79 11.73 4.34 17.56 7.69-1.89 15.02 2.27 22.5 3.39-.36-4.51-1.38-8.98-1.31-13.51.43-4.51 1.78-8.86 2.69-13.28 3.17-1.32 6.98-1.92 9.18-4.81 3.45-4.4 6.87-8.82 10.3-13.23-5.64.59-11.37.48-16.94 1.55m22.07-1.18c-1.27.78-1.26 1.48.02 2.11 1.27-.78 1.26-1.48-.02-2.11m79.59 10.02c-1.72 4.75-2.29 10.12-5.71 14.05-3.91 4.87-7.78 9.77-11.58 14.72l5.76-.51c3.21-4.8 5.8-10.03 9.31-14.61 3.1-2.38 6.45-4.47 9.93-6.25 2.11-.03 4.14.68 6.19 1.06 3.43-2.02 7.47-2.06 11.29-2.61 3.51-.43 6.7-2.01 9.96-3.25-.19-3.35-.57-6.68-1.03-10-10.27 6.15-22.43 7.11-34.12 7.4m-158.54-6.34c.56 3.26 1.17 6.52 1.89 9.76 1.64-3.01 3.19-6.07 4.7-9.14-2.19-.21-4.39-.42-6.59-.62m70.09 9.5c-1.21.62-1.8 2.5-1.06 3.67 1.71.62 2.79-3.27 1.06-3.67m27.91.11c-1.26.42-1.97 2.29-1.16 3.39 1.68.75 3.03-3.05 1.16-3.39m90.26 6.11c-4.28 1.51-9.09.76-13.17 2.89-2.59 1.69-5.46-.31-8.21-.11-2.77 1.1-5.08 3.05-7.37 4.91 4.42 1.37 9.1 1.07 13.66 1.55.74-1.63 1.51-3.24 2.27-4.85 10.74.4 21.47.81 32.22 1.12 4.97.09 9.97.68 14.93 0-2.09-1.23-4.67-1.72-6.47-3.36-.81-2.73 2.67-3.68 4.23-5.17-6.88-.12-13.76-.34-20.63-.46-4.16-.3-7.66 2.28-11.46 3.48M82.01 152.41c1.8-2.71 3.85-5.39 4.68-8.58.26-3.06-.94-5.99-1.74-8.88-3.9 4.75-3.83 11.65-2.94 17.46m53.56-17.7c4.06 5.02.13 11.07 1.33 16.66 3.26-2.98 1.05-7.56 1.95-11.34 1.05-2.6-1.76-3.88-3.28-5.32m-125.04 8.02c.55 4.78 5.52 7.01 8.58 10.14 4.65 2.48 10.27 2.27 15.42 2.29-4.31-5.63-9.57-10.53-13.32-16.56-3.54 1.42-7.1 2.81-10.68 4.13m134.26 2.77c.84 2.11 1.69 4.21 2.62 6.29.38-3.38.62-6.77.88-10.16-1.16 1.29-2.33 2.58-3.5 3.87m54.21 13c3.42-4.93 6.76-9.91 10.09-14.9-1.87-.1-3.73-.19-5.59-.28-1.82 4.96-3.17 10.07-4.5 15.18m15.32-14.71c-5.99 8.89-12 17.76-18.01 26.62-3.18 4.74-3.95 10.67-2.77 16.19 13.08-2.2 26.16-4.44 39.25-6.61-1.03-1.83-3.86-4.01-1.95-6.16 2.14-3.21 4.88-6.11 6.13-9.84 2.27-6.39 4.42-12.83 6.63-19.25-9.76-.35-19.52-.7-29.28-.95m-29.14 3.55c-3.62 2.24-5.9 6.06-9.12 8.8-2.26 2.29-5.79 1.64-8.69 2.14-2.02 4.3-4.48 8.39-6.26 12.79-1.22 3.46 1.34 6.48 2.51 9.52-.61 1.24-1.38 2.38-2.12 3.54.83 1.83 1.65 3.65 2.47 5.49 8.41-.01 16.8-.77 25.21-.94-.27-3.86-1.24-7.82-.15-11.64 2.76-9.64 5.54-19.29 8.15-28.97-4-.25-7.99-.93-12-.73m-172.72 5.41c.54 3.03 1.22 6.03 2.07 8.99.42-1.87 1.01-3.72 1.09-5.63-.66-1.41-2.16-2.23-3.16-3.36m7.32 5.32c-.89 4.08-1.75 8.17-2.59 12.27 4.44 3.21 9.51 5.39 15 5.93 3.61.66 7.23 1.3 10.85 1.88-.2-4.04-.81-8.09-.46-12.14 3.58-2.37 7.97-3.25 11.41-5.91-1.66-.43-3.31-.85-4.98-1.21-6.78-2-13.5 1.67-20.39.79-2.95-.55-5.89-1.07-8.84-1.61m29.73 9.52c7.57 1.46 15.03 3.39 22.6 4.83 3.53.11 6.83-1.66 10.2-2.55-.25-1.63-.51-3.25-.75-4.88-6.84-1.95-13.81-3.38-20.68-5.21-3.56 2.92-6.92 6.26-11.37 7.81m33.84-7.33c.41.41.41.41 0 0m70.88 15.25c.49-.39 1.47-1.18 1.96-1.58.07-4.19-1.01-8.29-1.89-12.35-.66 4.62-.65 9.3-.07 13.93m-107.2-4.01l.6 7.35c8.11 2.2 16.11 4.91 24.35 6.59 3.07-1.88 6.27-3.53 9.43-5.23.19-1.86.39-3.72.58-5.57-2.97.85-5.94 1.72-8.9 2.62-8.67-1.99-17.37-3.87-26.06-5.76m39.08 6.02c1.84.61 4.8.8 4.41 3.5-.92 1.86-3.12 1.34-4.78 1.49-4.23 3.14-9.16 5.12-13.69 7.76-2.03-.34-4.18-1.4-6.19-.4-4.31 1.71-8.99 2.67-12.79 5.45 1.43 1.83 3.71 3.3 4.19 5.71-1.93 3.67-6.41 4.83-9.51 7.31 1.89 1.14 3.95 2.05 6.19 2.19 8.35.77 16.76.63 25.13.29 1.5-.02 2.87-.65 4.24-1.19-1.4-2.68-3.66-5.41-3.39-8.58 1.59-4.77 7.53-4.91 11.35-6.98-1.82-2.09-4.99-3.26-5.87-6.02.94-1.89 3.26-2.33 4.95-3.33.29-2.44 2.09-3.34 4.34-3.52-3.06-2.15-5.84-4.7-7.9-7.85-.21 1.39-.44 2.78-.68 4.17m56.96 4.87c3.54 2.26 7.17 4.38 10.77 6.55 1.32-.53 2.64-1.07 3.97-1.59-.62-1.13-1.2-2.29-1.72-3.46.36-1.38 1.38-2.46 2.12-3.65-.52-.32-1.55-.96-2.07-1.28-4.36 1.12-9.45.31-13.07 3.43m-1.64 4.37l-.39 6.15c3.65 1.16 7.19 2.75 10.97 3.45 3.09-.46 6.44-1.97 7.95-4.87-2.38.57-4.72 1.29-7.05 2.05-3.86-2.21-7.63-4.57-11.48-6.78m-10.55 2.33c.95 1.31 1.93 2.59 2.75 3.99-.09 1.87-2.04 2.62-3.23 3.72 2.13.07 4.26.11 6.4.11-.16-2.86-.12-5.73.01-8.6l-5.93.78z"/><path d="M95.24 45.1c10.9.29 21.81.78 32.71 1.26-1.39 1.08-2.77 2.15-4.15 3.23-7.62-.31-15.24-.56-22.86-.87-2.52.14-4.08-2.07-5.7-3.62zm31.48 8.32c1.39-1.97 3.61-3.16 5.45-4.66 2.43 3.82 4.88 7.63 7.24 11.5-4.94 1.67-10.17 2.11-15.32 2.64.9-3.15 1.49-6.4 2.63-9.48zm.82 13.72c5.28-.77 10.75-1.41 15.41-4.21 8.96 2.76 18.03 5.22 26.88 8.32 5.99 2.79 12.13 5.35 17.8 8.77-2.62.33-5.16-.4-7.66-1.07-4.58-1.43-9.53 1.15-14.01-.84-4.8-1.79-9.41-4.06-14.28-5.63-8-2-16.6-1.63-24.14-5.34zM93.82 77c14.09.3 28.23.39 42.21 2.36-12.04 1.59-24.08 3.19-36.13 4.68-1.96-2.4-4-4.73-6.08-7.04zM79.2 82.41c1.94-1.68 3.86-3.37 5.79-5.06 4.67 1.43 8 5.1 10.97 8.77-2.03 1.54-4.06 3.07-6.09 4.6-3.06-3.36-6.65-6.19-10.67-8.31zm-30 8.06c8.4-2.57 17.13-4 25.88-4.59 4.17.92 7.4 3.96 10.5 6.71-5.79 1.69-11.63 3.16-17.43 4.82-1.64.37-3.38 1.02-5.03.33-5.02-1.61-9.68-4.18-13.92-7.27zm74.96.9c7.31-1.15 14.83-4.04 22.22-1.78 6.62 2.59 13.03 5.71 19.69 8.22 3.05-1.97 6.11-4.32 9.86-4.64 3.95-.48 7.96-.89 11.7-2.38 3.55 4.98 7.04 10.01 10.49 15.06 1.06 1.46 2.09 3.19 3.96 3.69 4.36 1.6 8.83 2.89 13.19 4.52-9.58 5.53-20.78 6.18-31.55 6.65-3.34-3.5-6.07-7.61-9.77-10.72-4.34-1.35-9.27-.94-13.02-3.89-10.95-7.95-26.06-6.33-36.77-14.73zm89.41 43.07c3.8-1.2 7.3-3.78 11.46-3.48 6.87.12 13.75.34 20.63.46-1.56 1.49-5.04 2.44-4.23 5.17 1.8 1.64 4.38 2.13 6.47 3.36-4.96.68-9.96.09-14.93 0-10.75-.31-21.48-.72-32.22-1.12-.76 1.61-1.53 3.22-2.27 4.85-4.56-.48-9.24-.18-13.66-1.55 2.29-1.86 4.6-3.81 7.37-4.91 2.75-.2 5.62 1.8 8.21.11 4.08-2.13 8.89-1.38 13.17-2.89zm-203.04 8.29c3.58-1.32 7.14-2.71 10.68-4.13 3.75 6.03 9.01 10.93 13.32 16.56-5.15-.02-10.77.19-15.42-2.29-3.06-3.13-8.03-5.36-8.58-10.14zm38.98 24.86c4.45-1.55 7.81-4.89 11.37-7.81 6.87 1.83 13.84 3.26 20.68 5.21.24 1.63.5 3.25.75 4.88-3.37.89-6.67 2.66-10.2 2.55-7.57-1.44-15.03-3.37-22.6-4.83zm93.56 14.8c3.62-3.12 8.71-2.31 13.07-3.43.52.32 1.55.96 2.07 1.28-.74 1.19-1.76 2.27-2.12 3.65.52 1.17 1.1 2.33 1.72 3.46-1.33.52-2.65 1.06-3.97 1.59-3.6-2.17-7.23-4.29-10.77-6.55z" fill="#61747b"/><g fill="#4d565b"><path d="M86.6 62.6c2.39-4.36 3.94-9.13 6.06-13.62 1.04.92 2.07 1.84 3.1 2.75-1.03 7.01-1.97 14.04-2.98 21.05-3.37.25-6.83.05-10.1.95-3.4 2.03-5.67 5.52-9.11 7.48-3.75.97-7.66 1.08-11.48 1.68 2.82-3.49 5.11-7.42 8.21-10.68 5.05-3.8 11.43-5.58 16.3-9.61zM46.9 94.35c4.43 3.18 9.33 5.58 14.41 7.51-.9 4.96-.51 10.26-2.37 15-3.76 6.2-7.61 12.36-11.56 18.45-3.18-.58-6.35-1.16-9.53-1.73 2.6-5.24 5.34-10.41 7.97-15.63 1.62-2.75.58-5.97.38-8.93-.71-4.9-.09-9.83.7-14.67z"/><path d="M26.62 138.99c5.2-9.67 10.13-19.49 15.43-29.11-.04 2.24.55 4.66-.57 6.74-2.76 5.8-5.99 11.39-8.73 17.21-.75 1.06-.5 3.09.97 3.33 4.45 1.13 9.03 1.63 13.52 2.57 1.22 5.04 2.43 10.09 3.64 15.13-3.92-.94-7.91-1.52-11.85-2.33-1.39-.23-2.17-1.56-3.1-2.48-3.09-3.7-6.21-7.37-9.31-11.06zm157.23-13.93c11.69-.29 23.85-1.25 34.12-7.4.46 3.32.84 6.65 1.03 10-3.26 1.24-6.45 2.82-9.96 3.25-3.82.55-7.86.59-11.29 2.61-2.05-.38-4.08-1.09-6.19-1.06-3.48 1.78-6.83 3.87-9.93 6.25-3.51 4.58-6.1 9.81-9.31 14.61l-5.76.51c3.8-4.95 7.67-9.85 11.58-14.72 3.42-3.93 3.99-9.3 5.71-14.05zm30.47 18.73c9.76.25 19.52.6 29.28.95-2.21 6.42-4.36 12.86-6.63 19.25-1.25 3.73-3.99 6.63-6.13 9.84-1.91 2.15.92 4.33 1.95 6.16-13.09 2.17-26.17 4.41-39.25 6.61-1.18-5.52-.41-11.45 2.77-16.19 6.01-8.86 12.02-17.73 18.01-26.62zM19.78 158.07c2.95.54 5.89 1.06 8.84 1.61 1.13 5.54 2.33 11.07 3.57 16.59-5.49-.54-10.56-2.72-15-5.93.84-4.1 1.7-8.19 2.59-12.27z"/></g><path d="M100.08 53.12c7.26.27 14.52.52 21.78.86-.95 4.6-3.47 9.12-2.5 13.92.29 1.83.72 3.64 1.11 5.45-7.7-.33-15.41-.49-23.11-.82.85-6.48 1.76-12.95 2.72-19.41zm70.43 30.24c1.61-.15 3.21-.3 4.83-.44-1 3.39-2.86 6.46-6.12 8.1.34-2.57.81-5.11 1.29-7.66zM104 88c11.2-1.1 22.29-3.44 33.55-3.84-6.12 1.59-12.41 2.35-18.56 3.76-1.09.34-2.89.53-2.79 2.08.37 1.69 1.15 3.25 1.81 4.85-4.15 4.92-8.38 9.77-12.43 14.79-8.45.98-17.05.91-25.43 2.31-7.99 6.8-14.79 15.57-24.87 19.51 2.04-3.65 4.3-7.17 6.59-10.66 3.75-5.16 2.28-11.92 3.97-17.74 3.51-2.03 7.75-2.35 11.57-3.6 5.42-1.79 11.59-2.08 16.13-5.87 3.14-2.41 6.22-5.53 10.46-5.59zm73.94.58c.63-1.67 1.29-3.34 1.95-5 .82.17 2.48.53 3.3.7-.43 1.13-.61 2.4-1.33 3.39-1.3.35-2.6.66-3.92.91zM25.31 118.72c2.2.2 4.4.41 6.59.62-1.51 3.07-3.06 6.13-4.7 9.14-.72-3.24-1.33-6.5-1.89-9.76zm159.87 28.62c4.01-.2 8 .48 12 .73-2.61 9.68-5.39 19.33-8.15 28.97-1.09 3.82-.12 7.78.15 11.64-8.41.17-16.8.93-25.21.94-.82-1.84-1.64-3.66-2.47-5.49.74-1.16 1.51-2.3 2.12-3.54-1.17-3.04-3.73-6.06-2.51-9.52 1.78-4.4 4.24-8.49 6.26-12.79 2.9-.5 6.43.15 8.69-2.14 3.22-2.74 5.5-6.56 9.12-8.8zM73.09 177.26c2.96-.9 5.93-1.77 8.9-2.62-.19 1.85-.39 3.71-.58 5.57-3.16 1.7-6.36 3.35-9.43 5.23.39-2.73.75-5.46 1.11-8.18zm68.34 9.5c3.85 2.21 7.62 4.57 11.48 6.78 2.33-.76 4.67-1.48 7.05-2.05-1.51 2.9-4.86 4.41-7.95 4.87-3.78-.7-7.32-2.29-10.97-3.45l.39-6.15z" fill="#242b2e"/><g fill="#3a4246"><path d="M124.39 70.57c4.5 2.25 9.36 3.6 14.34 4.31-4.56-.17-9.09-.66-13.61-1.24-.18-.77-.55-2.3-.73-3.07zm15.07 4.33c4.64.9 9.45 1.1 13.9 2.82 4.3 1.65 8.55 3.45 12.82 5.15-.61 3.17-1.25 6.34-1.91 9.5-7.59-2.65-14.54-7.58-22.75-8.07.51-1.44 1.03-2.88 1.54-4.33-1.17-1.71-2.37-3.4-3.6-5.07zM199 158.5c1.33-5.11 2.68-10.22 4.5-15.18 1.86.09 3.72.18 5.59.28-3.33 4.99-6.67 9.97-10.09 14.9zm-170.38 1.18c6.89.88 13.61-2.79 20.39-.79 1.67.36 3.32.78 4.98 1.21-3.44 2.66-7.83 3.54-11.41 5.91-.35 4.05.26 8.1.46 12.14-3.62-.58-7.24-1.22-10.85-1.88-1.24-5.52-2.44-11.05-3.57-16.59z"/><path d="M47.03 171.5c8.69 1.89 17.39 3.77 26.06 5.76-.36 2.72-.72 5.45-1.11 8.18-8.24-1.68-16.24-4.39-24.35-6.59l-.6-7.35z"/></g><path fill="#2b3134" d="M123.86 96.28c1.41.87 2.82 1.75 4.23 2.64-.15 1.7-.3 3.41-.46 5.12-1.38-2.52-2.64-5.11-3.77-7.76z"/><path d="M109.35 112.25c3.54-4.52 6.98-9.13 10.86-13.37 1.4 2.64 2.92 5.24 3.96 8.06 1.14 2.97.45 6.2.23 9.28-3.88 2.34-7.9 4.45-12.17 6.01-1.13-3.27-2.11-6.6-2.88-9.98zm-27.34 40.16c-.89-5.81-.96-12.71 2.94-17.46.8 2.89 2 5.82 1.74 8.88-.83 3.19-2.88 5.87-4.68 8.58z" fill="#131719"/><path fill="#323b3f" d="M132.12 100.61c6.31 1.82 12.66 3.51 18.95 5.37 3.82 1.12 6.89 3.76 10.38 5.56 3.2 1.67 6.98 1.27 10.29 2.57 3.1 2.6 5.4 6 8.12 8.97-1.63 4.76-2.32 10.09-5.71 14.03-4.96 6.15-9.74 12.43-14.7 18.57-2.54-1.08-5.05-2.2-7.55-3.36.47-6.08 1.05-12.16 1.39-18.25-.61-.3-1.83-.88-2.43-1.17-2.32 2.02-4.52 4.17-6.59 6.45-.91-2.14-1.33-4.8-3.49-6.12-3.39-2.39-6.98-4.48-10.34-6.92 1.44-8.49 1.18-17.13 1.68-25.7z"/><path fill="#2c3538" d="M32.5 114.19c1.18-.91 1.84-.66 2 .75-1.18.9-1.85.65-2-.75z"/><path fill="#2a3238" d="M82.19 116.22c5.57-1.07 11.3-.96 16.94-1.55-3.43 4.41-6.85 8.83-10.3 13.23-2.2 2.89-6.01 3.49-9.18 4.81-.91 4.42-2.26 8.77-2.69 13.28-.07 4.53.95 9 1.31 13.51-7.48-1.12-14.81-5.28-22.5-3.39-1.55-5.83-2.81-11.73-4.34-17.56 5.69-3.33 12.04-5.59 17.04-10.02 5.03-3.59 8.82-8.59 13.72-12.31z"/><path fill="#476710" d="M104.26 115.04c1.28.63 1.29 1.33.02 2.11-1.28-.63-1.29-1.33-.02-2.11z"/><path fill="#2e430a" d="M95.4 128.22c1.73.4.65 4.29-1.06 3.67-.74-1.17-.15-3.05 1.06-3.67z"/><path fill="#344d0c" d="M123.31 128.33c1.87.34.52 4.14-1.16 3.39-.81-1.1-.1-2.97 1.16-3.39z"/><path d="M135.57 134.71c1.52 1.44 4.33 2.72 3.28 5.32-.9 3.78 1.31 8.36-1.95 11.34-1.2-5.59 2.73-11.64-1.33-16.66zm9.22 10.79c1.17-1.29 2.34-2.58 3.5-3.87-.26 3.39-.5 6.78-.88 10.16-.93-2.08-1.78-4.18-2.62-6.29zm-58.68 32.02c.24-1.39.47-2.78.68-4.17 2.06 3.15 4.84 5.7 7.9 7.85-2.25.18-4.05 1.08-4.34 3.52-1.69 1-4.01 1.44-4.95 3.33.88 2.76 4.05 3.93 5.87 6.02-3.82 2.07-9.76 2.21-11.35 6.98-.27 3.17 1.99 5.9 3.39 8.58-1.37.54-2.74 1.17-4.24 1.19-8.37.34-16.78.48-25.13-.29-2.24-.14-4.3-1.05-6.19-2.19 3.1-2.48 7.58-3.64 9.51-7.31-.48-2.41-2.76-3.88-4.19-5.71 3.8-2.78 8.48-3.74 12.79-5.45 2.01-1 4.16.06 6.19.4 4.53-2.64 9.46-4.62 13.69-7.76 1.66-.15 3.86.37 4.78-1.49.39-2.7-2.57-2.89-4.41-3.5zm44.77 11.57l5.93-.78c-.13 2.87-.17 5.74-.01 8.6-2.14 0-4.27-.04-6.4-.11 1.19-1.1 3.14-1.85 3.23-3.72-.82-1.4-1.8-2.68-2.75-3.99z" fill="#81bd1d"/><path fill="#30373a" d="M12.46 152.75c1 1.13 2.5 1.95 3.16 3.36-.08 1.91-.67 3.76-1.09 5.63-.85-2.96-1.53-5.96-2.07-8.99z"/><path fill="#3e5b0e" d="M83.35 160.26c.41.41.41.41 0 0z"/><path fill="#111516" d="M154.23 175.51c-.58-4.63-.59-9.31.07-13.93.88 4.06 1.96 8.16 1.89 12.35-.49.4-1.47 1.19-1.96 1.58z"/></svg>