<svg xmlns="http://www.w3.org/2000/svg" width="32" height="32" viewBox="0 0 32 32.000001"><path d="M25.168 25.482a2 2 0 0 1-1.414 2.45 2 2 0 0 1-2.45-1.414 2 2 0 0 1 1.415-2.45 2 2 0 0 1 2.45 1.414z" fill="#ff9a00"/><path d="M18.578 8.613a1.508 1.508 0 0 0-1.061 1.837 1.508 1.508 0 0 0 1.837 1.06 1.508 1.508 0 0 0 1.06-1.837 1.508 1.508 0 0 0-1.836-1.06zm.258.966a.493.493 0 0 1 .613.353.493.493 0 0 1-.354.612.493.493 0 0 1-.612-.353.493.493 0 0 1 .353-.612z" style="line-height:normal;text-indent:0;text-align:start;text-decoration-line:none;text-decoration-style:solid;text-decoration-color:#000;text-transform:none;block-progression:tb;isolation:auto;mix-blend-mode:normal" color="#000" font-weight="400" font-family="sans-serif" white-space="normal" overflow="visible" fill="#ff9a00"/><path d="M20.893 10.342a6.034 6.034 0 0 0-1.797.203 5.988 5.988 0 0 0-4.243 7.35l.258.964.26.967 1.553 5.795 5.795-1.553 5.795-1.553-1.553-5.795-.258-.966-.26-.967a5.985 5.985 0 0 0-5.55-4.445z" fill="#ff9a00"/><path d="M16.406 23.69a1 1 0 0 1-.708 1.224l.26.966 1.931-.518-.518-1.932-.965.26zm11.591-3.107a1 1 0 0 0 1.224.708l.26.965-1.933.518-.517-1.932.966-.259z" fill="#ff9a00"/><path d="M15.698 24.914l13.523-3.623a.998.998 0 0 1 1.225.707.998.998 0 0 1-.707 1.224l-13.523 3.624a.998.998 0 0 1-1.225-.707.998.998 0 0 1 .707-1.225zm2.394-13.996c-.63.295-1.192.69-1.668 1.162a4.96 4.96 0 0 1 .97 6.201l-.5.865-.496.86-.006.01-.662 1.148.73 2.729 1.655-2.864.006-.01.504-.875.5-.865c1.597-2.765 1.082-6.172-1.033-8.361z" fill="#e67401"/><path d="M17.063 8.854c.712.41.96 1.336.549 2.049a1.508 1.508 0 0 1-2.05.549 1.508 1.508 0 0 1-.548-2.05 1.508 1.508 0 0 1 2.049-.548zm-.5.866a.493.493 0 0 0-.683.183.493.493 0 0 0 .183.683.493.493 0 0 0 .683-.183.493.493 0 0 0-.183-.683z" style="line-height:normal;text-indent:0;text-align:start;text-decoration-line:none;text-decoration-style:solid;text-decoration-color:#000;text-transform:none;block-progression:tb;isolation:auto;mix-blend-mode:normal" color="#000" font-weight="400" font-family="sans-serif" white-space="normal" overflow="visible" fill="#ff9a00"/><path d="M16.453 24.713l-.754.2a.997.997 0 0 0-.707 1.225c.144.536.69.85 1.225.707l.853-.228a2.026 2.026 0 0 0-.617-1.904z" fill="#c06200"/><path d="M24.294 7.47a.5.5 0 0 0-.507.06 10.964 10.964 0 0 1-13.352-.194.5.5 0 1 0-.62.785 11.973 11.973 0 0 0 14.57.212.5.5 0 0 0-.091-.863z" style="line-height:normal;text-indent:0;text-align:start;text-decoration-line:none;text-decoration-style:solid;text-decoration-color:#000;text-transform:none;block-progression:tb;isolation:auto;mix-blend-mode:normal" color="#000" font-weight="400" font-family="sans-serif" white-space="normal" overflow="visible" fill="#4d4d4d"/><path d="M18.578 8.613a1.502 1.502 0 0 0-.673 2.51c.379.377.932.526 1.449.387a.5.5 0 1 0-.259-.966.498.498 0 1 1-.259-.966.5.5 0 1 0-.258-.965z" style="line-height:normal;text-indent:0;text-align:start;text-decoration-line:none;text-decoration-style:solid;text-decoration-color:#000;text-transform:none;block-progression:tb;isolation:auto;mix-blend-mode:normal" color="#000" font-weight="400" font-family="sans-serif" white-space="normal" overflow="visible" fill="#ff9a00"/><path d="M17.92 8.992c-.19.185-.332.418-.402.682-.139.516.01 1.07.388 1.449.03.03.069.049.102.076.286-.463.38-1.027.236-1.565a1.962 1.962 0 0 0-.324-.642z" style="line-height:normal;text-indent:0;text-align:start;text-decoration-line:none;text-decoration-style:solid;text-decoration-color:#000;text-transform:none;block-progression:tb;isolation:auto;mix-blend-mode:normal" color="#000" font-weight="400" font-family="sans-serif" white-space="normal" overflow="visible" fill="#e67401"/><path d="M16.7 8.703a1.503 1.503 0 0 1 .675 2.51 1.502 1.502 0 0 1-1.45.387.5.5 0 1 1 .258-.965.49.49 0 0 0 .483-.13.497.497 0 0 0 .13-.482.498.498 0 0 0-.353-.354.5.5 0 1 1 .258-.966z" style="line-height:normal;text-indent:0;text-align:start;text-decoration-line:none;text-decoration-style:solid;text-decoration-color:#000;text-transform:none;block-progression:tb;isolation:auto;mix-blend-mode:normal" color="#000" font-weight="400" font-family="sans-serif" white-space="normal" overflow="visible" fill="#ff9a00"/><path d="M23.444 11.735a2.215 2.215 0 0 0-.222-1.686 2.215 2.215 0 0 0-1.35-1.035l-2.498 2.37.384.665.392.68c1.098-.33 3.207-.668 3.294-.994z" fill="#e6001f"/><path d="M17.643 15.085a2.215 2.215 0 0 1-1.35-1.036 2.215 2.215 0 0 1-.222-1.686l3.303-.978.384.664.392.68c-.835.786-2.182 2.443-2.507 2.356z" fill="#e6001f"/><path d="M20.524 10.993a.571.571 0 0 1 .633.068c.566.476 1.053.796 1.59 1.017-.378.13-.93.26-1.493.391-.113-.073-.226-.145-.337-.225l-.253.308c.021.016.045.028.067.044-.288.07-.574.14-.802.208l-.392-.679.81-.988a.571.571 0 0 1 .177-.143z" style="line-height:normal;text-indent:0;text-align:start;text-decoration-line:none;text-decoration-style:solid;text-decoration-color:#000;text-transform:none;block-progression:tb;isolation:auto;mix-blend-mode:normal" color="#000" font-weight="400" font-family="sans-serif" white-space="normal" overflow="visible" fill="#990012"/><path style="isolation:auto;mix-blend-mode:normal" d="M21.011 11.424l-.962 1.172c1.098.886 1.791 1.387 3.912 1.572l-.274-.74 1.236-.432c-1.68-.14-2.691-.546-3.912-1.572z" color="#000" overflow="visible" fill="#e6001f"/><path d="M19.374 11.385s-2.284 1.566-2.594 1.65a.581.581 0 0 1-.3-1.123c.31-.083 2.894-.527 2.894-.527zm0 0s2.498-1.195 2.725-1.422a.581.581 0 0 0-.821-.821c-.227.227-1.904 2.243-1.904 2.243z" fill="#6e0012"/><path d="M21.012 11.424c.182.154.359.29.535.416a1.71 1.71 0 0 1-.428 1.536 9.027 9.027 0 0 1-.946-.685h.001a.547.547 0 0 0 .27-.576l.568-.69z" style="line-height:normal;text-indent:0;text-align:start;text-decoration-line:none;text-decoration-style:solid;text-decoration-color:#000;text-transform:none;block-progression:tb;isolation:auto;mix-blend-mode:normal" color="#000" font-weight="400" font-family="sans-serif" white-space="normal" overflow="visible" fill="#990012"/><path style="line-height:normal;text-indent:0;text-align:start;text-decoration-line:none;text-decoration-style:solid;text-decoration-color:#000;text-transform:none;block-progression:tb;isolation:auto;mix-blend-mode:normal" d="M18.527 12.116a.571.571 0 0 0-.259.582c.13.727.163 1.309.086 1.885.302-.263.69-.675 1.086-1.098-.007-.134-.013-.268-.027-.404l.394-.065c.003.026.001.053.004.08.204-.215.408-.427.581-.59L20 11.827l-1.261.208a.571.571 0 0 0-.212.082z" color="#000" font-weight="400" font-family="sans-serif" white-space="normal" overflow="visible" fill="#990012"/><path d="M18.59 12.822l1.496-.247c.217 1.394.305 2.244-.595 4.174l-.503-.607-.993.854c.719-1.525.873-2.604.595-4.174z" style="isolation:auto;mix-blend-mode:normal" color="#000" overflow="visible" fill="#e6001f"/><path d="M18.59 12.823l.98-.162c.152.11.35.13.534.053.063.41.11.785.12 1.152a1.713 1.713 0 0 1-1.552-.483 9.42 9.42 0 0 0-.082-.56z" style="line-height:normal;text-indent:0;text-align:start;text-decoration-line:none;text-decoration-style:solid;text-decoration-color:#000;text-transform:none;block-progression:tb;isolation:auto;mix-blend-mode:normal" color="#000" font-weight="400" font-family="sans-serif" white-space="normal" overflow="visible" fill="#990012"/><path d="M19.374 11.385s.659-.316 1.332-.654c.264.143.497.348.657.625.183.318.246.673.211 1.016-.513.12-1.03.24-1.423.358-.287.269-.632.638-.977 1.007a1.682 1.682 0 0 1-.75-.684 1.655 1.655 0 0 1-.213-.886c.599-.396 1.163-.782 1.163-.782zm.237.33a.558.558 0 0 0-.208.772c.16.276.497.367.773.207a.557.557 0 0 0 .207-.772.557.557 0 0 0-.772-.208z" fill="#990012"/><path d="M18.913 12.77a1.132 1.132 0 0 1 1.546.415 1.132 1.132 0 0 1 .414-1.546 1.132 1.132 0 0 1-1.546-.414 1.132 1.132 0 0 1-.414 1.545z" style="isolation:auto;mix-blend-mode:normal" color="#000" overflow="visible" fill="#e6001f"/><path d="M6.331 23.441a2 2 0 0 1 .732 2.732 2 2 0 0 1 2.732-.732 2 2 0 0 1-.732-2.732 2 2 0 0 1-2.732.732z" fill="#ff9a00"/><path d="M13.22 9.777a5.987 5.987 0 0 0-5.353 3.004l-.5.865-.5.867-3 5.196 5.188 2.994c.003 0 .005 0 .008.01h.008l5.19 2.996 2.993-5.186.006-.01.5-.867.5-.865a5.986 5.986 0 0 0-2.197-8.195 5.996 5.996 0 0 0-2.842-.809z" fill="#ff9a00"/><path d="M15.26 23.977a1 1 0 0 0 .365 1.366l-.5.866-1.732-1 1-1.732.866.5zm-10.393-6a1 1 0 0 1-1.366.366l-.5.866 1.732 1 1-1.732-.866-.5z" fill="#ff9a00"/><path d="M15.625 25.343l-12.124-7a.998.998 0 0 0-1.366.366.998.998 0 0 0 .366 1.366l12.124 7a.998.998 0 0 0 1.366-.366.998.998 0 0 0-.366-1.366z" fill="#e67401"/><path d="M11.1 11.33a2.215 2.215 0 0 1 .221-1.687 2.215 2.215 0 0 1 1.35-1.035l2.498 2.37-.383.665-.393.68c-1.098-.331-3.206-.669-3.294-.994z" fill="#e6001f"/><path d="M16.9 14.678a2.215 2.215 0 0 0 1.35-1.035 2.22 2.22 0 0 0 .222-1.686l-3.303-.978-.383.664-.393.68c.836.785 2.182 2.442 2.507 2.355z" fill="#e6001f"/><path style="line-height:normal;text-indent:0;text-align:start;text-decoration-line:none;text-decoration-style:solid;text-decoration-color:#000;text-transform:none;block-progression:tb;isolation:auto;mix-blend-mode:normal" d="M14.019 10.587a.571.571 0 0 0-.633.067c-.566.475-1.053.795-1.59 1.017.379.13.93.26 1.493.391.113-.073.226-.145.337-.226l.253.31c-.02.015-.045.027-.066.043.287.07.573.139.801.208l.392-.679-.81-.989a.571.571 0 0 0-.177-.142z" color="#000" font-weight="400" font-family="sans-serif" white-space="normal" overflow="visible" fill="#990012"/><path d="M13.532 11.018l.962 1.172c-1.098.885-1.791 1.386-3.912 1.572l.274-.74-1.236-.432c1.68-.14 2.692-.546 3.912-1.572z" style="isolation:auto;mix-blend-mode:normal" color="#000" overflow="visible" fill="#e6001f"/><path d="M15.17 10.979s2.283 1.566 2.593 1.65a.581.581 0 0 0 .3-1.123c-.31-.083-2.894-.527-2.894-.527zm0 0s-2.5-1.195-2.726-1.422a.581.581 0 0 1 .821-.822c.227.227 1.904 2.244 1.904 2.244z" fill="#6e0012"/><path style="line-height:normal;text-indent:0;text-align:start;text-decoration-line:none;text-decoration-style:solid;text-decoration-color:#000;text-transform:none;block-progression:tb;isolation:auto;mix-blend-mode:normal" d="M13.531 11.018a8.99 8.99 0 0 1-.535.416c-.119.55.04 1.126.428 1.535a8.83 8.83 0 0 0 .946-.684h-.001a.547.547 0 0 1-.27-.576l-.568-.69z" color="#000" font-weight="400" font-family="sans-serif" white-space="normal" overflow="visible" fill="#990012"/><path d="M16.017 11.71a.571.571 0 0 1 .258.581c-.13.728-.163 1.31-.086 1.885-.302-.263-.69-.675-1.086-1.097.007-.134.013-.268.028-.404l-.394-.065c-.004.026-.002.053-.005.08a15.574 15.574 0 0 0-.58-.59l.39-.68 1.262.209a.571.571 0 0 1 .212.082z" style="line-height:normal;text-indent:0;text-align:start;text-decoration-line:none;text-decoration-style:solid;text-decoration-color:#000;text-transform:none;block-progression:tb;isolation:auto;mix-blend-mode:normal" color="#000" font-weight="400" font-family="sans-serif" white-space="normal" overflow="visible" fill="#990012"/><path style="isolation:auto;mix-blend-mode:normal" d="M15.953 12.416l-1.496-.247c-.217 1.393-.305 2.244.595 4.173l.504-.606.992.854c-.719-1.526-.873-2.604-.595-4.174z" color="#000" overflow="visible" fill="#e6001f"/><path style="line-height:normal;text-indent:0;text-align:start;text-decoration-line:none;text-decoration-style:solid;text-decoration-color:#000;text-transform:none;block-progression:tb;isolation:auto;mix-blend-mode:normal" d="M15.954 12.417l-.98-.163a.541.541 0 0 1-.535.053 9.24 9.24 0 0 0-.12 1.153c.562.109 1.15-.07 1.552-.483.02-.18.048-.367.083-.56z" color="#000" font-weight="400" font-family="sans-serif" white-space="normal" overflow="visible" fill="#990012"/><path d="M15.169 10.979s-.658-.316-1.331-.654a1.647 1.647 0 0 0-.657.625 1.676 1.676 0 0 0-.212 1.016c.513.119 1.03.239 1.424.357.286.27.631.639.976 1.008.305-.142.572-.374.75-.684.161-.279.223-.585.214-.887-.6-.395-1.164-.781-1.164-.781zm-.236.329c.276.16.366.496.207.773a.558.558 0 0 1-.773.207.557.557 0 0 1-.206-.772.557.557 0 0 1 .772-.208z" fill="#990012"/><path d="M15.63 12.364a1.132 1.132 0 0 1-1.546.414 1.132 1.132 0 0 1-.414-1.545 1.132 1.132 0 0 1 1.546-.415 1.132 1.132 0 0 1 .414 1.546z" style="isolation:auto;mix-blend-mode:normal" color="#000" overflow="visible" fill="#e6001f"/></svg>