<svg width="512pt" height="512pt" viewBox="0 0 512 512" xmlns="http://www.w3.org/2000/svg"><path d="M189.25 19.98c13.1-.7 26.27-.1 39.4-.32-.54 2.75-1.03 5.53-1.02 8.34.2 37.7-.13 75.4.16 113.1-14.8 3.38-28.8 9.6-41.2 18.26-.4-9.93-.2-19.87-.3-29.8.4-35.2 0-70.38.2-105.56 0-1.7 1.8-2.72 2.7-4.02zm90-.3c11.27 0 22.53 0 33.8-.03 1.9-.03 3.78.16 5.66.5l2.4 2.87c0 35.36.1 70.7 0 106.06-.2 10.02 0 20.04-.1 30.06-12.5-8.3-26.2-14.72-40.9-18V41.04c-.1-7.13.6-14.32-.7-21.37zm.93 350.57c14.58-3.3 28.42-9.55 40.73-18-.6 9.95.2 19.9.2 29.87.1 34.64 0 69.27.1 103.9.3 3.2-2.9 6.4-6.1 6.17-11.9-.1-23.9-.1-35.8 0 .5-2.8.8-5.5.9-8.3.1-37.9-.2-75.8.1-113.8zM186.5 382c.43-9.83-1-19.82.92-29.5 12.1 8.62 26.04 14.52 40.5 17.85-.54 37.54 0 75.1-.3 112.66-.05 3.1.43 6.2 1.08 9.2h-35.8c-3.34.3-6.6-2.9-6.38-6.2 0-34.6.03-69.3 0-104z" fill="#fecf2e"/><path d="M228.66 19.66c16.86.02 33.73.02 50.6 0 1.33 7.06.65 14.25.75 21.37.1 33.37.1 66.74.1 100.1-17.1-3.87-35.1-3.88-52.2-.02-.3-37.7.1-75.4-.1-113.1 0-2.8.5-5.6 1.1-8.3zM175.98 263.8c23.05-3.08 46.07-6.4 69.14-9.43.07 2 .24 3.98.56 5.95-23.18 3.52-46.45 6.44-69.66 9.73-2.3.73-5.05-1.57-4.23-4 .5-1.86 2.6-1.94 4.1-2.25zm51.92 106.55c17.15 3.87 35.15 3.85 52.28-.1-.3 37.9-.08 75.82-.13 113.73-.07 2.75-.45 5.5-.9 8.2H228.7c-.65-3-1.13-6.08-1.07-9.17.28-37.5-.25-75.1.28-112.6z" fill="#feb900"/><path d="M321.07 129.08c4.87 2.84 10.5 5.22 13.48 10.3 1.96 4.53 2.3 9.54 3.86 14.2 1 7.93 3.2 15.7 3.9 23.68l-.9-.13c-6.5-6.22-12.4-13.35-20.3-18 .1-10-.1-20.03.1-30.05zM171.8 143.12c1.76-6.9 8.28-11.18 14.57-13.57.13 9.94-.05 19.88.28 29.8-8 5.6-15.1 12.32-21.62 19.55 1.94-11.98 3.9-23.97 6.76-35.78zm79.5 16.46c6.34-3.04 13.93 4.37 11.04 10.77-1.83 5.93-10.5 7.46-14.3 2.58-3.9-4.13-1.93-11.38 3.26-13.35zm-43.9 14.97c3.3-1.92 8.03.5 8.07 4.4.5 4-4.23 7.24-7.75 5.32-3.95-1.6-4.16-7.9-.3-9.72zm89.77-.38c3.6-1.38 7.8 2.06 7.15 5.86-.38 3.8-5.2 6.18-8.35 3.9-3.92-2.05-3.1-8.73 1.2-9.76zm51.7 12.28c2.87-1.64 5.56-3.8 8.86-4.46 2.62 3.6 4.64 7.6 7 11.4 1.22 2 2.78 4.1 2.33 6.7-2.48 1.4-5.14 2.7-7.4 4.5-3.4-6.2-6.54-12.6-10.78-18.2zm-177.3 25.5c.9-1.8 1.52-4.03 3.5-5 2.8-1.5 6.65.03 7.6 3.1 1.6 3.47-1.97 7.83-5.7 7.26-2.93-.1-4.37-3-5.4-5.3zm110.03-1.28c1.7-2.17 4.47-3.65 7.26-3.22 4.04.53 7.38 4.5 6.9 8.6.02 2.3-1.6 4.08-2.95 5.76-8.7 10.3-17.1 20.8-25.8 31.1-.8 1-1.4 2.1-1.9 3.3 19.2 11.2 38.7 21.9 58 32.9 1.9 1 3.1 2.9 3.4 5 .4 2.4-1.8 3.9-3.1 5.5-1.9-.2-4 .2-5.7-.9-18.3-10.4-36.7-20.6-55-31.1-5.1-3.9-13.5-.6-16.8-7.2-.3-1.9-.5-3.9-.5-5.9.3-2.5 1.9-4.8 4.1-6.1 3.36-2 5.5-5.2 7.97-8.1 8.1-9.8 16.3-19.6 24.4-29.4zm46.75-3.24c2.85-2.14 7.34-.43 8.2 3 1.35 4.03-3.52 8.4-7.34 6.3-3.7-1.42-4.2-7.2-.8-9.3zm46.8 29.77c4.64-.17 9.3.1 13.94-.13 1.8 3 1 6.6 1.2 9.95-.2 9 .4 18.04-.4 27.03-5.2 1.1-11 1.3-16.1-.03l.1-.7c.3-2.42.5-4.83.8-7.25l-3.9-.2c.2-6.58.2-13.17 0-19.76l3.8-.1c-.3-2.4-.6-4.8-.8-7.2l1.1-1.4zM163.3 251.33c3.98-2.16 9.1 2.18 7.55 6.47-.93 4.1-7 5.36-9.42 1.87-2.37-2.54-1.27-7 1.86-8.34zm178-.03c2.7-.95 6.14.28 7.02 3.18 1.78 4.07-3.28 8.8-7.22 6.65-4.15-1.56-4.1-8.5.2-9.82zm-166.96 45.05c2.4-1.8 6.4-1.15 7.8 1.64 2.4 3.4-1.03 8.7-5.17 7.8-4.7-.1-6.56-7-2.63-9.6zm152.43.42c2.73-1.32 6.68-2.43 8.78.56 3.02 3.3-.13 9.27-4.58 8.56-4.5-.2-6.38-5.6-4.2-9.2zm22.15 27.77c3.95-5.7 7.58-11.63 10.9-17.7 3.1 1.48 6.36 3.04 8.3 6.02-3.6 5.36-6.14 11.44-10.3 16.44-3.12-1.3-6.04-3-8.9-4.76zm-141.56 4c3.66-2.3 8.9 1.2 7.93 5.5-.5 3.9-5.7 5.95-8.6 3.3-2.9-2.2-2.5-7.1.6-8.8zm89-.1c3.35-1.9 7.84.8 7.9 4.57.17 4-4.62 7.1-8.03 4.9-3.6-1.8-3.53-7.6.13-9.4zM165.1 332.4c6.6 7.58 14.14 14.25 22.32 20.1-1.93 9.68-.5 19.67-.9 29.5-4.07-1.87-8.13-4.02-11.2-7.33-3.3-3.74-4.17-8.77-5.14-13.5-.97-4.57-1.83-9.17-2.65-13.78-.86-5-1.8-10-2.44-15zm155.8 19.85c8.2-4.82 13.87-12.7 21.33-18.4-.44 3.93-.8 7.9-1.8 11.74-1.35 8.8-3.12 17.5-5.56 26.1-3.2 5-8.7 7.7-13.8 10.4 0-10-.8-19.9-.16-29.9zm-68.75-12c3.03-1.6 7.04.5 7.58 3.83 1.06 4.37-4.6 8.17-8.23 5.42-3.46-2.04-3.05-7.74.65-9.26z" fill="#c66715"/><path fill="#7c3435" d="M227.8 141.1a119.13 119.13 0 0 1 52.24.04c14.66 3.28 28.45 9.7 40.94 18 7.86 4.64 13.74 11.77 20.3 18 .23.02.7.1.94.12l.6.07c.37 3.77 4.26 5.96 6.06 9.12 4.24 5.65 7.38 12.03 10.8 18.2 3.9 8 7.06 16.44 8.8 25.2 1.45 5.26 1.58 10.75 2.96 16.02.77-.7 1.53-1.4 2.26-2.14-.07-1.7 0-3.4.26-5.08.23 2.43.53 4.85.8 7.27-1.28.06-2.57.12-3.84.2.2 6.58.17 13.17-.05 19.76l3.9.2c-.27 2.4-.52 4.82-.8 7.24-.28-2.63.05-5.68-2.44-7.36-1.72 6.44-2.17 13.13-3.9 19.57-2.02 7.3-4.68 14.4-7.8 21.3-3.33 6.08-6.96 12-10.9 17.7-1.85 3.24-4.98 5.63-6.4 9.1l-.3.22c-7.46 5.7-13.13 13.58-21.32 18.4-12.3 8.45-26.1 14.7-40.7 18-17.1 3.95-35.1 3.97-52.2.1-14.4-3.33-28.4-9.23-40.5-17.86-8.2-5.9-15.7-12.6-22.3-20.1-18.9-21.3-29.3-50-28.7-78.4-.3-6.9 1.2-13.7 1.9-20.5 4.2-20.1 13.1-39.3 26.8-54.6 6.5-7.3 13.6-14 21.6-19.6 12.4-8.7 26.5-14.9 41.2-18.3m11.8 13.6c-25.7 3.5-49.8 17.4-65.8 37.9-14.3 18.1-22.3 41.2-21.65 64.3 0 21.6 7.55 43.1 20.64 60.22 15.6 20.86 39.63 35.17 65.4 39.07 23.27 3.8 47.8-1.04 68-13.2 21.93-13 38.6-34.6 45.62-59.1 6.66-22.9 5-48.2-4.9-69.96-9.4-21.03-26.14-38.7-46.7-49.15-18.5-9.54-40-13.05-60.6-10.15z"/><path fill="#fdf7f3" d="M239.6 154.75c20.6-2.9 42.08.6 60.6 10.14 20.54 10.4 37.3 28.1 46.7 49.1 9.88 21.7 11.54 47 4.86 69.9-7.02 24.5-23.7 46.1-45.63 59.1-20.2 12.1-44.72 17-68 13.2-25.76-3.9-49.78-18.2-65.4-39.1-13.1-17.2-20.64-38.6-20.64-60.3-.7-23.1 7.3-46.2 21.6-64.3 16-20.5 40.1-34.5 65.8-38m11.7 4.8c-5.2 1.95-7.2 9.2-3.3 13.33 3.8 4.9 12.4 3.36 14.3-2.57 2.9-6.4-4.7-13.8-11.1-10.78m-43.9 14.95c-3.9 1.8-3.7 8.12.3 9.7 3.5 1.93 8.2-1.3 7.7-5.3-.06-3.92-4.78-6.33-8.08-4.4m89.8-.35c-4.3 1.04-5.1 7.7-1.2 9.76 3.15 2.3 7.96-.1 8.34-3.9.64-3.8-3.56-7.2-7.16-5.82m-125.6 37.8c1 2.32 2.45 5.22 5.4 5.34 3.7.6 7.3-3.74 5.7-7.22-.97-3.08-4.8-4.6-7.6-3.1-2 .96-2.6 3.2-3.5 5m110-1.3c-8.1 9.83-16.25 19.64-24.4 29.46-2.44 2.9-4.6 6.15-7.94 8.13-2.2 1.3-3.8 3.54-4.1 6.1-23.1 3-46.1 6.33-69.15 9.4-1.55.3-3.63.4-4.2 2.3-.8 2.43 1.95 4.73 4.26 4 23.2-3.3 46.5-6.2 69.67-9.73 3.33 6.62 11.77 3.34 16.84 7.22 18.3 10.4 36.7 20.62 55 31.04 1.7 1.1 3.8.7 5.7.9 1.3-1.63 3.5-3.1 3.17-5.46-.3-2.1-1.5-4-3.38-5-19.3-11.03-38.8-21.68-58-32.88.47-1.2 1.05-2.3 1.9-3.3 8.7-10.3 17.2-20.8 25.9-31.1 1.35-1.62 3-3.4 2.96-5.7.5-4.1-2.84-8.1-6.9-8.6-2.8-.43-5.54 1.05-7.24 3.2m46.73-3.22c-3.4 2.1-2.9 7.9.83 9.3 3.84 2.1 8.7-2.26 7.35-6.3-.83-3.42-5.32-5.13-8.2-3m-165 43.96c-3.15 1.34-4.25 5.8-1.9 8.35 2.45 3.5 8.5 2.27 9.44-1.84 1.57-4.3-3.56-8.62-7.55-6.46m178-.04c-4.3 1.3-4.36 8.26-.2 9.8 3.93 2.17 9-2.6 7.2-6.64-.87-2.9-4.3-4.12-7-3.16m-166.9 45.05c-3.94 2.6-2.1 9.4 2.62 9.54 4.12.84 7.54-4.44 5.14-7.9-1.4-2.77-5.4-3.43-7.8-1.62m152.45.42c-2.2 3.5-.3 8.96 4.2 9.1 4.43.7 7.6-5.26 4.6-8.57-2.1-3-6.07-1.9-8.8-.6m-119.4 31.8c-3.18 1.7-3.56 6.6-.68 8.8 2.9 2.7 8.17.6 8.6-3.3.97-4.3-4.3-7.8-7.94-5.5m89-.1c-3.65 1.76-3.73 7.55-.1 9.4 3.4 2.2 8.2-.9 8-4.8-.1-3.8-4.6-6.48-7.9-4.58M252 340.1c-3.7 1.54-4.1 7.24-.7 9.3 3.63 2.73 9.3-1.07 8.24-5.44-.55-3.35-4.56-5.43-7.6-3.84z"/></svg>