<svg width="500pt" height="500pt" viewBox="0 0 500 500" xmlns="http://www.w3.org/2000/svg"><g fill="#00a859"><path d="M234.43 0h31.72l.91 1.25c3.69.4 7.5-.28 11.07 1.06 27.33 3 54.17 10.68 79 22.49 41.01 19.71 76.7 50.5 101.48 88.71 19.78 29.78 32.67 64.04 38.08 99.36.66 3.44.49 7.02 1.62 10.38 1 3.31-.98 7.38 1.69 10.14v32.91c-2.76 3.55-.43 8.26-2.16 12.19-5.3 45.53-23.27 89.62-51.78 125.57-38.23 49.06-95.54 82.83-157.06 92.25-4.02 1-8.24.75-12.2 1.97-3.59.96-7.71-.8-10.87 1.72H233.7c-3.59-2.77-8.34-.42-12.3-2.19-50.92-5.86-99.95-27.81-137.9-62.3-4.86-3.76-8.8-8.52-13.26-12.71-4.05-3.68-7.05-8.3-10.96-12.11-17.95-21.7-32.64-46.17-42.65-72.51C12 324.9 7.69 311.46 5.31 297.57c-1.82-7.06-1.91-14.44-3.76-21.49-.82-3.42 1.2-7.66-1.55-10.44v-30.93c2.76-3.72.45-8.58 2.24-12.67 5.12-46.72 24.02-91.72 53.51-128.28 3.93-4.74 7.97-9.38 11.97-14.05 5.8-5.52 11.03-11.67 17.39-16.57 13.08-11.97 27.91-21.84 43.16-30.82 23.7-13.22 49.57-22.57 76.27-27.47 6.72-1.61 13.73-1.59 20.42-3.32 3.14-.6 6.88.95 9.47-1.53m-9.87 109.8a330.089 330.089 0 0 0-64.79 10.97c-15.78 5.25-31.5 10.96-46.15 18.89-9.32 5.15-18.51 11.22-24.93 19.89-4.53 6.04-6.86 13.82-5.55 21.34.96 16.26 2.61 32.64 7.5 48.25 4.6 14.99 12.47 29.47 24.82 39.46 13.26 10.94 30.62 15.69 47.56 16.39 10.54.31 20.36-5.01 27.91-12 11.68-10.81 19.92-24.61 28.26-38.01 3.68-5.81 6.7-12.19 11.83-16.92 4.97-4.83 11.95-8.08 18.99-7.06 7.97 1.03 14.45 6.88 18.44 13.58 8.88 15.47 17.36 31.4 29.15 44.91 7.76 8.87 18.26 16.42 30.43 16.9 16.15.19 32.87-3.65 45.96-13.48 12.5-9.25 20.86-23 26.31-37.36 6.3-16.56 9.4-34.13 11.5-51.66.86-5.92-.85-11.93-3.63-17.13-5.34-9.67-14.27-16.69-23.44-22.51-16.16-10.01-34-16.89-51.84-23.23-4.79-1.8-9.82-2.81-14.79-3.95-30.63-6.84-62.22-9.43-93.54-7.27m15.92 108.61c-9.14 21.65-18.32 43.28-27.47 64.93 10.89-6.33 23.29-10.46 35.98-10.29 12.55.02 24.75 4.16 35.59 10.29-9.98-21.66-20-43.31-29.98-64.97-2.41-5.61-11.73-5.49-14.12.04m.61 59.75c-18.03 1.85-35.01 11.55-45.87 26.03-9.45 12.4-14.26 28.22-13.32 43.78.8 15.82 7.57 31.22 18.63 42.56 11.33 11.77 27.14 19.11 43.45 20.08 15.01 1.02 30.32-3.27 42.59-11.98 11.34-7.98 20.11-19.58 24.6-32.71 5.23-15.08 4.76-32.06-1.32-46.82-5.09-12.5-14.1-23.35-25.43-30.66-12.68-8.3-28.28-11.93-43.33-10.28m104.42 41.04c.02 16.21-.1 32.42.06 48.63 16.34-.1 32.69 0 49.04-.04-.01-16.2-.01-32.39 0-48.58-16.37-.02-32.74.01-49.1-.01m-27.64 1.92c0 14.91 0 29.83.01 44.75h24.53c.02-14.92.01-29.84 0-44.76-8.18 0-16.36 0-24.54.01m-217.44 2.17c.01 14.49.01 28.98 0 43.47 25.58.01 51.15 0 76.73 0-.03-14.5.1-29-.06-43.5-25.56.06-51.11 0-76.67.03z"/><path d="M204.07 119.79c6.14-1.77 12.52-2.54 18.87-3.18 17.32-1.51 34.8-1.46 52.09.45 6.32.86 12.83 1.57 18.7 4.24 1.62.57 3.69 2.77 1.59 4.16-4.17 2.89-9.42 3.47-14.28 4.44-15.91 2.4-32.09 2.7-48.15 1.97-9.01-.5-18.07-1.23-26.87-3.34-3.16-.85-6.65-1.68-8.74-4.42 1.24-2.67 4.21-3.53 6.79-4.32m7.09.36c-3.23.74-6.93 1.09-9.24 3.76 2.97 2.88 7.3 3.17 11.15 3.96 16.5 2.42 33.27 2.52 49.9 1.83 8.82-.56 17.76-1.01 26.3-3.47 1.31-.6 3.59-.99 3.46-2.85-2.35-2.12-5.66-2.52-8.63-3.19-12.24-2.15-24.7-2.52-37.09-2.57-11.98.09-24.02.48-35.85 2.53zm-25.66 13.62c3.97-1.43 7.73 1.03 11.57 1.76 34.87 9.47 72.31 8.89 106.91-1.43 1.6-.41 3.25-1.22 4.92-.65 22.72 5.52 45.42 11.15 68.15 16.65 7.71 1.64 15.32 5.28 20.21 11.64 5.51 6.99 6.84 16.51 5.14 25.08-3.76 19.16-7.98 38.73-17.85 55.81-6.7 11.69-17.2 21.22-29.79 26.17-9.25 3.55-19.34 6.48-29.3 4.56-7.35-1.41-13.9-5.58-19.05-10.89-6.91-7.03-11.99-15.57-16.76-24.12-9.61-17.51-17.74-36.04-30.18-51.83-3.11-4.08-8.24-6.54-13.39-6.12-6.18.53-12.24 3.87-15.57 9.19-11.68 16.65-18.56 35.96-28.23 53.74-5.61 10.15-12.58 20.39-23.21 25.8-12.29 6.17-27.13 4.45-39.45-.73-16.72-7.46-27.08-23.85-33.93-40.15-5.53-13.27-9.44-27.17-12.6-41.17-1.04-8.16-2.34-17.03 1.32-24.74 3.66-7.44 11.88-11.03 19.54-12.81 23.85-5.28 47.71-10.47 71.55-15.76m-.06 2.77c-22.12 4.95-44.18 10.17-66.31 15.04-6.05 1.31-12.21 3.35-16.88 7.57-3.68 3.26-5.82 8-6.35 12.85-1.17 10.52 1.28 20.94 4.05 31 4.56 16.78 9.78 34.18 21.36 47.59 10.21 11.96 26.21 17.66 41.66 17.62 8.3-.05 16.59-2.84 22.99-8.17 8.25-6.79 13.69-16.24 18.52-25.6 8.44-16.68 15.26-34.39 26.54-49.46 5.82-6.41 16.1-8.91 23.97-4.93 2.99 1.48 5.21 4.06 7.21 6.65 12.64 15.96 21.04 34.62 30.97 52.26 4.95 8.68 10.29 17.35 17.66 24.21 5.26 4.9 11.99 8.45 19.23 9.05 8.36.75 16.58-1.86 24.2-5.05 12.18-5.23 22.05-14.93 28.58-26.36 9.18-15.9 13.69-33.95 17.21-51.82 1.65-8.09.77-17.02-3.91-23.99-4.26-6.48-11.34-10.61-18.72-12.56-21.39-5.27-42.89-10.02-64.3-15.19-2.69-.58-5.51-1.85-8.22-.67-34.76 10.55-72.43 11.29-107.52 1.82-3.96-.74-7.85-3.26-11.94-1.86z"/><path d="M185.49 145.52c1.5-.63 2.96.25 4.38.67 30.05 10.8 63.04 12.82 94.29 6.41 8.79-1.7 17.4-4.19 25.95-6.84 11.75 2.19 23.42 4.94 35.1 7.54 11.31 2.75 22.77 5.37 33.39 10.24 4.74 2.2 9.69 5.79 10.53 11.33 1.3 7.28.37 14.73-.74 21.97-2.31 13.21-5.99 26.33-12.23 38.25-4.75 8.41-11.22 16.42-20.21 20.46-8.76 3.94-18.56 4.46-28.02 4.41-4.21.18-7.92-2.29-10.85-5.06-5.19-4.98-9.08-11.11-12.86-17.18-9.43-15.71-17.5-32.21-27.26-47.73-3.49-5.35-6.75-11.12-12.08-14.88-10.66-8.09-26.57-8.72-37.44-.68-7.56 5.51-11.53 14.35-15.48 22.54-7.39 15.8-12.51 32.91-23.05 47.03-5.78 7.91-14.83 13.8-24.87 13.75-16.47 2.09-33.13-7.1-41.5-21.17-8.32-13.55-13.36-29.1-15.01-44.9-.53-7.82-.69-16.48 3.76-23.3 3.43-2.98 7.98-4.19 12.15-5.75 20.42-6.62 41.47-11.03 62.05-17.11zm53.96 143.17c13.11-2.1 26.94.59 38.23 7.59 11.34 6.92 20.1 17.97 24.15 30.63 4.31 13.22 3.49 28.04-2.33 40.67-5.96 13.2-17.24 23.88-30.75 29.1-14.27 5.62-30.84 5.04-44.66-1.61-13.4-6.33-24.06-18.18-28.91-32.18-5.13-14.45-3.98-30.99 3.15-44.56 8.03-15.63 23.74-27.02 41.12-29.64m8.84 10.35c-15.08 15.08-30.17 30.14-45.23 45.23 15.07 15.07 30.14 30.15 45.22 45.22 15.08-15.07 30.17-30.14 45.24-45.23-15.08-15.07-30.16-30.15-45.23-45.22m-23.05 10.2c-3.39 2.93-6.35 6.33-9.61 9.4-1.09 1.26-2.97 2.36-2.62 4.3.39 1.78 2.86 2.71 4.17 1.31 3.75-3.61 7.44-7.27 11.04-11.02 2.11-1.83-.61-5.43-2.98-3.99m44.19 1.24c-1.24 1.06-1.1 2.98.16 3.98 3.67 3.67 7.24 7.46 11.08 10.95 1.96 1.57 5.01-1.25 3.54-3.35-3.52-3.9-7.37-7.51-11.09-11.22-.89-1.14-2.61-1.36-3.69-.36m12.98 50.93c-4.03 3.62-7.76 7.57-11.55 11.44-1.45 1.18-.69 3.8 1.1 4.15 1.71.68 2.87-1.12 3.98-2.06 3.23-3.42 6.8-6.53 9.87-10.09 1.19-2.06-1.37-4.59-3.4-3.44m-69.23.76c-1.85.55-2.38 3.2-.81 4.39 3.65 3.68 7.24 7.44 11.05 10.95 1.99 1.87 5.42-1.39 3.49-3.45-2.95-3.37-6.34-6.33-9.41-9.59-1.22-1.07-2.42-2.94-4.32-2.3z"/><path d="M210.67 344.36c12.49-12.65 25.03-25.27 37.74-37.69 12.4 12.63 25.03 25.04 37.5 37.6-12.54 12.54-25.08 25.08-37.63 37.62-12.55-12.5-25-25.09-37.61-37.53m30.82-21.66c-9.41 2.83-16.25 12.34-15.8 22.18.1 9.9 7.52 19.07 17.14 21.32 8.71 2.28 18.54-1.31 23.74-8.65 6.46-8.53 5.51-21.58-2.12-29.09-5.77-6.04-15.02-8.33-22.96-5.76z"/></g><g fill="#fff"><path d="M224.56 109.8c31.32-2.16 62.91.43 93.54 7.27 4.97 1.14 10 2.15 14.79 3.95 17.84 6.34 35.68 13.22 51.84 23.23 9.17 5.82 18.1 12.84 23.44 22.51 2.78 5.2 4.49 11.21 3.63 17.13-2.1 17.53-5.2 35.1-11.5 51.66-5.45 14.36-13.81 28.11-26.31 37.36-13.09 9.83-29.81 13.67-45.96 13.48-12.17-.48-22.67-8.03-30.43-16.9-11.79-13.51-20.27-29.44-29.15-44.91-3.99-6.7-10.47-12.55-18.44-13.58-7.04-1.02-14.02 2.23-18.99 7.06-5.13 4.73-8.15 11.11-11.83 16.92-8.34 13.4-16.58 27.2-28.26 38.01-7.55 6.99-17.37 12.31-27.91 12-16.94-.7-34.3-5.45-47.56-16.39-12.35-9.99-20.22-24.47-24.82-39.46-4.89-15.61-6.54-31.99-7.5-48.25-1.31-7.52 1.02-15.3 5.55-21.34 6.42-8.67 15.61-14.74 24.93-19.89 14.65-7.93 30.37-13.64 46.15-18.89 21.16-5.8 42.9-9.48 64.79-10.97m-20.49 9.99c-2.58.79-5.55 1.65-6.79 4.32 2.09 2.74 5.58 3.57 8.74 4.42 8.8 2.11 17.86 2.84 26.87 3.34 16.06.73 32.24.43 48.15-1.97 4.86-.97 10.11-1.55 14.28-4.44 2.1-1.39.03-3.59-1.59-4.16-5.87-2.67-12.38-3.38-18.7-4.24-17.29-1.91-34.77-1.96-52.09-.45-6.35.64-12.73 1.41-18.87 3.18m-18.57 13.98c-23.84 5.29-47.7 10.48-71.55 15.76-7.66 1.78-15.88 5.37-19.54 12.81-3.66 7.71-2.36 16.58-1.32 24.74 3.16 14 7.07 27.9 12.6 41.17 6.85 16.3 17.21 32.69 33.93 40.15 12.32 5.18 27.16 6.9 39.45.73 10.63-5.41 17.6-15.65 23.21-25.8 9.67-17.78 16.55-37.09 28.23-53.74 3.33-5.32 9.39-8.66 15.57-9.19 5.15-.42 10.28 2.04 13.39 6.12 12.44 15.79 20.57 34.32 30.18 51.83 4.77 8.55 9.85 17.09 16.76 24.12 5.15 5.31 11.7 9.48 19.05 10.89 9.96 1.92 20.05-1.01 29.3-4.56 12.59-4.95 23.09-14.48 29.79-26.17 9.87-17.08 14.09-36.65 17.85-55.81 1.7-8.57.37-18.09-5.14-25.08-4.89-6.36-12.5-10-20.21-11.64-22.73-5.5-45.43-11.13-68.15-16.65-1.67-.57-3.32.24-4.92.65-34.6 10.32-72.04 10.9-106.91 1.43-3.84-.73-7.6-3.19-11.57-1.76z"/><path d="M211.16 120.15c11.83-2.05 23.87-2.44 35.85-2.53 12.39.05 24.85.42 37.09 2.57 2.97.67 6.28 1.07 8.63 3.19.13 1.86-2.15 2.25-3.46 2.85-8.54 2.46-17.48 2.91-26.3 3.47-16.63.69-33.4.59-49.9-1.83-3.85-.79-8.18-1.08-11.15-3.96 2.31-2.67 6.01-3.02 9.24-3.76zm-25.72 16.39c4.09-1.4 7.98 1.12 11.94 1.86 35.09 9.47 72.76 8.73 107.52-1.82 2.71-1.18 5.53.09 8.22.67 21.41 5.17 42.91 9.92 64.3 15.19 7.38 1.95 14.46 6.08 18.72 12.56 4.68 6.97 5.56 15.9 3.91 23.99-3.52 17.87-8.03 35.92-17.21 51.82-6.53 11.43-16.4 21.13-28.58 26.36-7.62 3.19-15.84 5.8-24.2 5.05-7.24-.6-13.97-4.15-19.23-9.05-7.37-6.86-12.71-15.53-17.66-24.21-9.93-17.64-18.33-36.3-30.97-52.26-2-2.59-4.22-5.17-7.21-6.65-7.87-3.98-18.15-1.48-23.97 4.93-11.28 15.07-18.1 32.78-26.54 49.46-4.83 9.36-10.27 18.81-18.52 25.6-6.4 5.33-14.69 8.12-22.99 8.17-15.45.04-31.45-5.66-41.66-17.62-11.58-13.41-16.8-30.81-21.36-47.59-2.77-10.06-5.22-20.48-4.05-31 .53-4.85 2.67-9.59 6.35-12.85 4.67-4.22 10.83-6.26 16.88-7.57 22.13-4.87 44.19-10.09 66.31-15.04m.05 8.98c-20.58 6.08-41.63 10.49-62.05 17.11-4.17 1.56-8.72 2.77-12.15 5.75-4.45 6.82-4.29 15.48-3.76 23.3 1.65 15.8 6.69 31.35 15.01 44.9 8.37 14.07 25.03 23.26 41.5 21.17 10.04.05 19.09-5.84 24.87-13.75 10.54-14.12 15.66-31.23 23.05-47.03 3.95-8.19 7.92-17.03 15.48-22.54 10.87-8.04 26.78-7.41 37.44.68 5.33 3.76 8.59 9.53 12.08 14.88 9.76 15.52 17.83 32.02 27.26 47.73 3.78 6.07 7.67 12.2 12.86 17.18 2.93 2.77 6.64 5.24 10.85 5.06 9.46.05 19.26-.47 28.02-4.41 8.99-4.04 15.46-12.05 20.21-20.46 6.24-11.92 9.92-25.04 12.23-38.25 1.11-7.24 2.04-14.69.74-21.97-.84-5.54-5.79-9.13-10.53-11.33-10.62-4.87-22.08-7.49-33.39-10.24-11.68-2.6-23.35-5.35-35.1-7.54-8.55 2.65-17.16 5.14-25.95 6.84-31.25 6.41-64.24 4.39-94.29-6.41-1.42-.42-2.88-1.3-4.38-.67z"/><path d="M240.48 218.41c2.39-5.53 11.71-5.65 14.12-.04 9.98 21.66 20 43.31 29.98 64.97-10.84-6.13-23.04-10.27-35.59-10.29-12.69-.17-25.09 3.96-35.98 10.29 9.15-21.65 18.33-43.28 27.47-64.93z"/><path d="M241.09 278.16c15.05-1.65 30.65 1.98 43.33 10.28 11.33 7.31 20.34 18.16 25.43 30.66 6.08 14.76 6.55 31.74 1.32 46.82-4.49 13.13-13.26 24.73-24.6 32.71-12.27 8.71-27.58 13-42.59 11.98-16.31-.97-32.12-8.31-43.45-20.08-11.06-11.34-17.83-26.74-18.63-42.56-.94-15.56 3.87-31.38 13.32-43.78 10.86-14.48 27.84-24.18 45.87-26.03m-1.64 10.53c-17.38 2.62-33.09 14.01-41.12 29.64-7.13 13.57-8.28 30.11-3.15 44.56 4.85 14 15.51 25.85 28.91 32.18 13.82 6.65 30.39 7.23 44.66 1.61 13.51-5.22 24.79-15.9 30.75-29.1 5.82-12.63 6.64-27.45 2.33-40.67-4.05-12.66-12.81-23.71-24.15-30.63-11.29-7-25.12-9.69-38.23-7.59z"/><path d="M248.29 299.04c15.07 15.07 30.15 30.15 45.23 45.22-15.07 15.09-30.16 30.16-45.24 45.23-15.08-15.07-30.15-30.15-45.22-45.22 15.06-15.09 30.15-30.15 45.23-45.23m-37.62 45.32c12.61 12.44 25.06 25.03 37.61 37.53 12.55-12.54 25.09-25.08 37.63-37.62-12.47-12.56-25.1-24.97-37.5-37.6-12.71 12.42-25.25 25.04-37.74 37.69zm14.57-35.12c2.37-1.44 5.09 2.16 2.98 3.99-3.6 3.75-7.29 7.41-11.04 11.02-1.31 1.4-3.78.47-4.17-1.31-.35-1.94 1.53-3.04 2.62-4.3 3.26-3.07 6.22-6.47 9.61-9.4zm44.19 1.24c1.08-1 2.8-.78 3.69.36 3.72 3.71 7.57 7.32 11.09 11.22 1.47 2.1-1.58 4.92-3.54 3.35-3.84-3.49-7.41-7.28-11.08-10.95-1.26-1-1.4-2.92-.16-3.98zm76.08 8.72c16.36.02 32.73-.01 49.1.01-.01 16.19-.01 32.38 0 48.58-16.35.04-32.7-.06-49.04.04-.16-16.21-.04-32.42-.06-48.63zm-27.64 1.92c8.18-.01 16.36-.01 24.54-.01.01 14.92.02 29.84 0 44.76h-24.53c-.01-14.92-.01-29.84-.01-44.75z"/><path d="M241.49 322.7c7.94-2.57 17.19-.28 22.96 5.76 7.63 7.51 8.58 20.56 2.12 29.09-5.2 7.34-15.03 10.93-23.74 8.65-9.62-2.25-17.04-11.42-17.14-21.32-.45-9.84 6.39-19.35 15.8-22.18zm-141.06.59c25.56-.03 51.11.03 76.67-.03.16 14.5.03 29 .06 43.5-25.58 0-51.15.01-76.73 0 .01-14.49.01-28.98 0-43.47zm181.98 38.12c2.03-1.15 4.59 1.38 3.4 3.44-3.07 3.56-6.64 6.67-9.87 10.09-1.11.94-2.27 2.74-3.98 2.06-1.79-.35-2.55-2.97-1.1-4.15 3.79-3.87 7.52-7.82 11.55-11.44zm-69.23.76c1.9-.64 3.1 1.23 4.32 2.3 3.07 3.26 6.46 6.22 9.41 9.59 1.93 2.06-1.5 5.32-3.49 3.45-3.81-3.51-7.4-7.27-11.05-10.95-1.57-1.19-1.04-3.84.81-4.39z"/></g></svg>