<svg width="256pt" height="256pt" viewBox="0 0 256 256" xmlns="http://www.w3.org/2000/svg"><path fill="#258eab" opacity=".89" d="M77.64 32.5c-1.04-2.28.17-8.19 3.45-5.64-2.83-.62-2.15 3.54.27 1.71-.18.77-.54 2.33-.73 3.11-.74.21-2.24.62-2.99.82z"/><path fill="#b4e6f3" d="M81.36 28.57c-2.42 1.83-3.1-2.33-.27-1.71l.5.76-.23.95z"/><path fill="#0b647e" opacity=".86" d="M81.59 27.62c.52 2.39 1.08 5.26-.79 7.22-1.74.6-2.29-1.3-3.16-2.34.75-.2 2.25-.61 2.99-.82.19-.78.55-2.34.73-3.11l.23-.95z"/><path fill="#bddce8" d="M143.03 47.61c16.4-10.02 35.87-15.02 55.08-14.18-7.37.9-14.81 1.57-22.05 3.29-.46.1-1.36.3-1.82.4-2.63.28-5.07 1.25-7.04 3.03-1.74.14-3.56.11-5.18.86-14.83 7-28.71 16.14-40.56 27.52-2.36 2.42-5.5 4.54-6.3 8.04-.39.44-.77.9-1.14 1.37l.25-1.38c-7.02 6.76-12.15 15.17-17.34 23.35-1.37 2.01-2.19 4.31-2.64 6.7-1.36 3.67-3.49 6.99-5.14 10.53-4.75 11.38-7.79 23.34-11.13 35.17 1.01-15.37 6.59-29.95 12.45-44.04 3.91-8.73 8.58-17.11 13.63-25.22 3.1-4.8 7.39-8.67 10.69-13.32l.23-.25c4.25-4.54 8.27-9.39 13.43-12.97 4.49-3.56 9.87-5.68 14.58-8.9z"/><path fill="#87a5b5" d="M176.06 36.72c7.24-1.72 14.68-2.39 22.05-3.29 2.35.09 4.69.4 7.05.57l.1.14c.78 1.05 1.56 2.1 2.35 3.15-29.3 21.47-58.57 43-87.91 64.4-6.84 5.03-13.39 10.56-20.87 14.6 13.68-28.28 35.46-53.68 64.14-67.42 3.95-2.04 8.03-3.82 12.13-5.54 1.16-.63 2.31-1.32 3.3-2.22.49-1.97-1.15-3.15-2.34-4.39m8.71-.09c-.51 1.14-.8 2.45.22 3.43 1.6.53 2.89-.37 3.04-2.03-.56-1.45-1.65-1.92-3.26-1.4z"/><path fill="#7d9cac" d="M205.26 34.14c1.11.18 2.22.4 3.32.67 2.76 2.06 5.5 4.2 7.85 6.74 2.61 2.79 3.36 6.69 4.09 10.31-2.68 2.06-5.5 3.94-8.41 5.65-.1-.5-.29-1.5-.39-2.01-1.35-5.49-8.45-4.15-12.46-3.02 2.93.62 5.91.92 8.87 1.39-.84-.06-2.54-.19-3.39-.25-3.32.1-6.48 1.36-9.39 2.87-.64.57-2.27.73-1.88 1.89 1.87 1.11 3.91 1.9 5.87 2.83-2.89 2.14-5.67 4.43-8.56 6.58-2.99 2.32-6.86 3.9-8.32 7.68-1.67-.07-3.33-.06-5-.08-1.25 2.63-2.5 5.26-3.63 7.95-6.26 10.58-15.53 19.56-26.64 24.9l-.08-1.14c5.95-4.28 11.95-8.65 16.59-14.41 4.23-4.81 6.82-10.74 9.12-16.66-6.24 1.94-12.72 2.89-19 4.65-3.86 1.02-6.9 3.94-8.53 7.53-2.01 3.81-3.08 8.02-4.97 11.88l.05-1.98c-14.5 10.28-26.22 24.06-36.1 38.74-4.44 1.88-7.86 5.33-11.83 7.94-.84.47-1.68.92-2.52 1.37.04.47.11 1.43.15 1.9-1.5-.01-2.99.23-4.47.47.11-.54.34-1.62.45-2.16 3.99-10.14 7.66-20.43 12.78-30.08 7.48-4.04 14.03-9.57 20.87-14.6 29.34-21.4 58.61-42.93 87.91-64.4-.79-1.05-1.57-2.1-2.35-3.15z"/><path d="M208.58 34.81c8.13.98 16.61 3.01 22.7 8.85.29 6.17 1.49 12.25 1.74 18.42-3.63-.11-7.25-.13-10.86-.37-.87-.26-1.73-.54-2.59-.82.48-2.98.98-5.99.95-9.03-.73-3.62-1.48-7.52-4.09-10.31-2.35-2.54-5.09-4.68-7.85-6.74zm-16.43 64.92c.09-.45.27-1.33.36-1.77 2.48 2 5.21 3.94 6.7 6.86 3.27 5.87.1 13.24 4 18.94l.26.55c-1.81.63-4.09-.09-3.94-2.36.19-4.26 1.62-8.59.19-12.8-1.04-4.11-4.4-6.91-7.57-9.42z" fill="#5e7d8f"/><path d="M167.2 40.15c1.97-1.78 4.41-2.75 7.04-3.03-1.82 2.13-1.04 4.52.86 6.21-4.1 1.72-8.18 3.5-12.13 5.54-28.68 13.74-50.46 39.14-64.14 67.42-5.12 9.65-8.79 19.94-12.78 30.08-3.06 2.86-5.07 6.68-8.42 9.25.1-.83.29-2.48.39-3.31 3.34-11.83 6.38-23.79 11.13-35.17 1.65-3.54 3.78-6.86 5.14-10.53 5.92-9.99 12.46-19.62 19.73-28.67.37-.47.75-.93 1.14-1.37 12.35-13.94 27.82-25 44.81-32.59 2.5-1.09 5.03-2.18 7.23-3.83zm77.05 34.91c.43.02 1.31.07 1.74.1l.38.61c-.59.14-1.78.42-2.37.57.06-.32.19-.96.25-1.28z" fill="#a4c2d0"/><path d="M174.24 37.12c.46-.1 1.36-.3 1.82-.4 1.19 1.24 2.83 2.42 2.34 4.39-.99.9-2.14 1.59-3.3 2.22-1.9-1.69-2.68-4.08-.86-6.21zm-12.22 3.89c1.62-.75 3.44-.72 5.18-.86-2.2 1.65-4.73 2.74-7.23 3.83-16.99 7.59-32.46 18.65-44.81 32.59.8-3.5 3.94-5.62 6.3-8.04 11.85-11.38 25.73-20.52 40.56-27.52zm-79.69 5.22c3.23-1.38 5.16 4.01 1.9 5.08-3.13 1.45-5.38-4.09-1.9-5.08zm123.98 10.51c1.67-.37 2.17.22 1.5 1.79-1.64.37-2.14-.23-1.5-1.79zm21.54 6.79c4.08-.46 8.18-.86 12.29-.87 2.19.12 4.38.24 6.58.19 1.74.18 3.36.95 5.02 1.47-7.94 1.28-15.9-1.04-23.89-.79zm21.55 3.13c1.07-.44 2.16-.46 3.25-.07.4 2.71-3.55 2.79-3.25.07zM96.93 99.91c5.19-8.18 10.32-16.59 17.34-23.35l-.25 1.38c-7.27 9.05-13.81 18.68-19.73 28.67.45-2.39 1.27-4.69 2.64-6.7zM55.18 86.35c.7-.13 2.1-.4 2.8-.54.49.57 1.47 1.69 1.95 2.26-.76.9-1.55 1.77-2.38 2.61-1.18-.23-2.25-.81-3.35-1.27.25-.77.74-2.29.98-3.06zm-27.1 47.77c-3.24-.71-.92-4.25-.05-5.99l1.15.78c.96.54 1.93 1.06 2.92 1.56-.42 1.91-1.5 4.68-4.02 3.65zm104.94 6.72c1.01-.2 2.03-.39 3.06-.58.35.3 1.07.9 1.42 1.2-.07 1.78-.44 3.56-1.46 5.06-1.57-.86-3.12-1.75-4.66-2.65.55-1.01 1.1-2.01 1.64-3.03zM18.29 154.42c2.76-2.5 6.41 2.34 3.35 4.21-2.68 2.32-6.13-2.37-3.35-4.21zm149.39 19.57c-.38-2.09 1.73-2.67 3.18-3.43l1.52-.03c.95 2.27.8 4.59-.5 6.7-1.53-.86-4.1-1.02-4.2-3.24zm15.59 5.28c1.94-.99 4.21 1.17 3.14 3.15-.64 2.12-3.05 1-4.56.77.41-1.26-.18-3.37 1.42-3.92zM24.25 192.3c.82-1.58 3.18-2.89 4.58-1.22 2.19 1.34.07 3.76-.82 5.26-.5.1-1.5.29-2 .38-.69-1.43-1.45-2.85-1.76-4.42zm8.93 13.05c2.3.01 2.89 2.28 3.25 4.13-1.51 1.42-3.58 1.39-5.51 1.42.15-2.01-.46-5.08 2.26-5.55z" fill="#fff"/><path fill="#eff4f6" d="M184.77 36.63c1.61-.52 2.7-.05 3.26 1.4-.15 1.66-1.44 2.56-3.04 2.03-1.02-.98-.73-2.29-.22-3.43z"/><g fill="#a2e3f5"><path d="M78.68 42.01c.06-1.6 1.56-3.39 3.18-2.07 3.26 2.31 5.21 6.22 5.56 10.16.49 4.63-1.16 9.08-2.1 13.53 2.95-1.18 3.2-4.62 4.99-6.85 2.01 7.12-2.57 13.57-6.59 18.97-3.81 5.31-8.73 10.5-9.33 17.34-.47 3.12.98 7.23 4.64 7.41 3.92.31 6.53-3.16 8.69-5.91-1.64 4.74.3 9.62 2.75 13.68-5.86 14.09-11.44 28.67-12.45 44.04-.1.83-.29 2.48-.39 3.31-2.12 8.65-2.01 17.59-2.65 26.42.1 2.75-2.71 3.97-4.54 5.42-6.17 4.01-11.23 9.46-15.57 15.35-.88-3.61 2.22-5.51 4.11-7.96-.87-3.18-3.61-5.3-5.85-7.52 1.36-.48 2.92-.56 4.1-1.43 1-1.44-.69-2.71-1.55-3.65-3.2-2.9-6.67-5.65-8.75-9.53-1.11-2.69-1.8-5.52-2.42-8.35 2.22.55 4.82.9 6.16 3.03 4.1 5.49 4.26 12.96 8.59 18.31 1.44 2 4.07 2.09 6.24 2.67-1.58-4.77-4.35-9.04-5.66-13.91 1.08.52 2.16 1.03 3.24 1.55 1.46-5.59.73-11.4-1.11-16.8-.04-.69-.1-2.08-.13-2.77 2.41 2.87 4.09 6.53 7.3 8.61 3.5 1.43 3.99-3.72 3.95-6.06-.42-9.61-3.07-19.06-2.27-28.75 1.11.7 2.22 1.39 3.33 2.08 1.62-6.55-1.99-13.47 1.24-19.72.6 2.89-.27 8.46 4.19 8.08 1.42-1.34 2.52-2.97 3.7-4.51.37.41 1.1 1.25 1.47 1.66.68-2.92 1.14-5.88 1.47-8.86l-3.03-.99-.57-4.45c-2.9 1.84-5.52 4.15-8.6 5.7-1.74.59-3.49-.71-3.99-2.34-1.62-4.31-.94-9.02-.99-13.52-2.36.91-5.11 2.12-5.61 4.92-1.15 6.49 2.7 12.41 3.31 18.73.2 1.51-1.17 2.62-1.69 3.9-2-2.06-3.58-4.46-4.86-7.01-.03 5.65.67 11.31.08 16.96-3.85-1.16-6.04-4.71-8.86-7.29.44 1.95.88 3.89 1.31 5.85-3.71-2.13-6.55-5.73-10.87-6.68 2.8 10.57 9.37 19.55 13.73 29.47 1.27 3.34 3 7.2 1.52 10.75-.56 1.8-2.72 1.93-4.17 1.24-4.06-1.74-6.88-5.44-8.96-9.2-2.67-4.73-3.09-10.25-4.64-15.37-.54-.15-1.63-.44-2.17-.59-.12 5.37.77 10.67 1.74 15.94-1.47-.71-2.93-1.43-4.4-2.13.11 7.81 4.07 14.61 7.34 21.45-.21 1.49.09 3.58-1.85 3.99-6.28-.2-10.21-5.85-15.17-8.86-.58.13-1.74.4-2.32.53-2.91-2.64-5.94-5.36-7.73-8.92-1.94-4.11-1.25-8.77-1.9-13.14-.35-4.67-4.66-8.15-4.23-12.99.34-2.37 1.39-4.83 3.36-6.3 1.4-.71 3.11.86 2.75 2.29.13 2.5-1.3 6.16 1.64 7.53 1.93 1.31 4.27-.31 4.77-2.31 1.52-4.76 1.22-10.19-.86-14.73-1.65-4.1-8.85-1.58-9.3-6.47.59-3.27 4.4-3.83 7.11-3.95-1.81-1.73-4.39-3.19-4.93-5.83.01-2.69 3.2-2.08 4.74-1.14 4.85 2.04 7.63 7.03 8.43 12.03-.57-.28-1.71-.85-2.28-1.14-.98-2.75-2.39-5.38-4.66-7.27.5 2.39 1.11 4.76 1.75 7.12-.5.41-1.5 1.25-2 1.66 2.83 5.47 5.88 11.26 5.72 17.58-.21 3.47-1.76 7.99-5.84 8.27-3.43.27-5.15-3.31-7.28-5.37.31 2.51.09 5.36 1.82 7.43 1.38 2.12 4.05 2.42 6.25 3.13 2.53 4.53 4.77 9.36 8.72 12.88 2.55-3.92.93-8.64.45-12.91 1.4-2.33 1.02-4.29-1.47-5.53-.02-1.16-.12-2.31-.21-3.47 1.89 1.76 4.38 2.32 6.88 2.48-.21-7.1-2.55-14.15-.91-21.25.68 2.02 1.32 4.06 1.95 6.1 1.17-.33 2.34-.67 3.5-1 .8.76 1.59 1.53 2.38 2.3-.68-6.31-1.51-12.7-.37-19.01.34-4.48 2.74-8.47 3.26-12.89-1.1-.93-2.36-1.66-3.57-2.44-1.08 4.67-.8 9.75-3.26 14.01-.99-1.51-1.95-3.05-2.91-4.58-2.04 2.37-3.57 5.14-4.33 8.19.07-4.94-.18-10.82 4.06-14.27 2.14 2.03 1.98 5.06 2.49 7.72 4.38-6.19.84-14.88 4.85-21.3.88-1.55 2.08-2.9 3.63-3.81.32 3.44-.9 6.75-1.31 10.13l2.36-.6c.12 3.27-1.98 7.52.96 10.04 1.94.13 3.14-1.7 3.65-3.33 1.7-5.02 1.88-10.79 5.4-15.02 3.56-1.5 1.67 3.99 1.95 5.91-.7.14-2.1.41-2.8.54-.24.77-.73 2.29-.98 3.06 1.1.46 2.17 1.04 3.35 1.27.83-.84 1.62-1.71 2.38-2.61 5.14.5 9.19-3.17 12.27-6.8 7.33-8.91 9.79-21.24 7.39-32.42-.42-2.26-1.21-4.52-.91-6.84m3.65 4.22c-3.48.99-1.23 6.53 1.9 5.08 3.26-1.07 1.33-6.46-1.9-5.08m1.95 19.94c-1.17 1.46 1.39 3.09 2.38 1.62 1.16-1.47-1.39-3.09-2.38-1.62M72.16 84.1c-.21.27-.64.8-.85 1.07.79 3.15 4.25-1.4.85-1.07m-22.22 17.8c-.9-.16-1.81-.33-2.71-.49-2.86 5.08-3.68 11.43-1.53 16.93.88 2.19 3.44 2.75 5.33 3.75-.37-5.62-3.2-12.01.22-17.14.87 1.11 1.73 2.22 2.59 3.34 1.51-4.05 2.15-8.36 2.09-12.67-2.7 1.31-4.13 4.07-5.99 6.28m5.29 5.2c-.57 1.61-.03 2.18 1.62 1.7.56-1.61.02-2.18-1.62-1.7m-36.94 47.32c-2.78 1.84.67 6.53 3.35 4.21 3.06-1.87-.59-6.71-3.35-4.21m47.89 18.83c-1.5 1.32.78 3.63 2.13 2.18 1.48-1.28-.78-3.59-2.13-2.18z"/><path d="M25.1 117.95c.3-.29.9-.88 1.2-1.17l2.51.52c.32 3.86.5 7.74.37 11.61l-1.15-.78c-.73-3.46-1.57-6.91-2.93-10.18zm95.38 14.71c3.59-2.48 7.43-4.58 11.24-6.7 2.67-.44 5.84-.61 8.05 1.24 1.83 1.6 1.66 4.42.71 6.45-1.48 2.2-3.26 4.19-4.4 6.61-1.03.19-2.05.38-3.06.58-.54 1.02-1.09 2.02-1.64 3.03-5.76 1.71-11.17 4.78-15.12 9.37 2.48 1.74 5.37 2.63 8.27 3.38-3 3.06-8.43 2.93-10.08 7.31 6.21.52 12.45.23 18.63-.42-.76-.8-1.53-1.59-2.3-2.37-.52-.53-1.58-1.6-2.1-2.13-1.19.8-2.39 1.59-3.57 2.39-.42-.15-1.26-.46-1.68-.61 1.02-2.18 1.95-4.4 2.78-6.66-1.76-.56-3.51-1.16-5.26-1.73 4.42-3.32 9.96-4.19 15.09-5.88 1.02-1.5 1.39-3.28 1.46-5.06 4.5.47 9.4-1.29 13.47 1.45-5.14 4.72-12.71 4.51-18.87 7.14-2.03.89-3.91 3.3-2.56 5.52 1.51 2.54 4.11 4.21 6.58 5.73 1.58.85 3.23 1.58 4.91 2.23 10.53 4.07 22.14 1.98 32.91 4.84 4.35 1.28 9.03 3.2 11.36 7.37 1.55 2.65 4.94 2.97 7.17 4.83 1.94 1.93.03 4.84-1.9 5.93-3.75 2.24-8.6 3.65-12.76 1.71-8.49-3.61-15.32-10.96-24.77-12.28-3.41-.67-7.36 1.45-7.94 5.03-.28 2.7 2.15 4.48 3.83 6.2-.77 1.03-2.24 1.71-2.51 3.04-.23 1.54 1.17 2.34 2.57 2.08.89-.78 1.6-1.72 2.34-2.63l.28-.36c1.16 2.16 2.51 8.02-1.61 7.07-4.69-2.04-7.54-6.77-12.29-8.73.17 5.11 4.06 9.69 2.71 14.9-.57 2.29-3.39 3.23-5.43 2.29-4.02-1.3-5.87-5.4-8.23-8.54-1.14-1.46-2.57-3.3-4.64-3.11-1.82.71-2.99 2.48-3.68 4.23-.95 3.12 2.05 6.05 1.09 9.11-5.41 3.15-11.17-1.56-15.75-4.26-1.67-2-2.35-4.5-2.41-7.06-3.26-1.77-6.66-3.29-9.95-4.99a68 68 0 0 0 1.71.62c.81-1.44 1.25-4.07 3.49-3.48 1.67 1.02 2.44 3.02 3.73 4.45 2.47 3.29 6.77 4.08 10.57 4.76-.51-2.93-2.41-6.31-.38-9.04 3.94-2.61 8.19.55 11.84 2.11 2.22 1.23 4.79.53 7.16.36-1.17-1.91-2.27-4.18-4.54-4.96-4.27-1.56-8.84-2.04-13.19-3.32.79-2.29 2.02-4.61 4.5-5.41 8.63-3.44 18.16-2.63 27.13-4.57-9.8-9.25-24.38-1.16-35.58-6.58 1.4-3.34 4.8-4.63 7.84-6.02-2.59.04-5.18.09-7.76.24-2.02-3.38 1.07-5.97 3.19-8.24l-3.99-.28c1.04-1.82 2.08-3.67 3.59-5.14 4.97-4.78 10.05-9.66 16.37-12.62-2.21-.13-4.42-.27-6.62-.42m13.18.5c.84-.08 2.52-.25 3.36-.34-.15-1.43.1-3.37-1.98-3.13-2.02-.17-1.35 2.32-1.38 3.47m-17.11 15c5.01-1.68 10.56-3.21 14.19-7.32-5.8-.69-10.59 3.28-14.19 7.32m29.37 23.42a80.043 80.043 0 0 1 20.39 7.01c4.16 1.97 8.16 4.93 13 4.68-.88-3.03-3.94-4.31-6.29-6.01 2.23-.63 4.43-1.34 6.59-2.16-1.79-2.41-4.69-3.26-7.23-4.57l-1.52.03c-8.21-1.6-16.98-1.91-24.94 1.02m-19.56 5.82c-1.48.81-3.5 2.33-2.97 4.26 2.3 2.11 6.27 2.04 7.91 5.01 1.46 3.05 1.87 6.46 2.98 9.64 2.6-4.13-1.1-8.89-1.33-13.26 3.71.72 7.34 1.78 11 2.71-2.58-3.02-6.46-4.09-10.06-5.36 1.69-1.04 3.39-2.07 5.09-3.09-4.18-.15-8.51-1.01-12.62.09m56.91 1.87c-1.6.55-1.01 2.66-1.42 3.92 1.51.23 3.92 1.35 4.56-.77 1.07-1.98-1.2-4.14-3.14-3.15m-68.9 13.89c-1.37 1.31.81 3.57 2.12 2.17 1.56-1.31-.78-3.72-2.12-2.17m19.73 5.97c-1.52 2.12 1.14 5.05 3.13 3.12 2.03-1.86-1-4.97-3.13-3.12m-21.83 4.04c-1.18 1.47 1.4 3.07 2.38 1.61 1.17-1.47-1.4-3.08-2.38-1.61zm-22.35-57.01c.84-.45 1.68-.9 2.52-1.37l.06 3.66c-.61-.1-1.82-.29-2.43-.39-.04-.47-.11-1.43-.15-1.9z"/><path d="M93.89 164.08c2.16.04 4.32.08 6.48.11-1.96 2.56-3.74 5.3-4.59 8.45 4.19.06 8.39-.09 12.58.05-.61 1.52 0 4.15-2.13 4.56-5.45 1.56-12.89-2.61-16.77 3.15-2.89 3.11.77 6.54 1.66 9.64-1.58-.9-3.18-1.76-4.8-2.58-.15-4.64.28-9.28 1.46-13.78 1.13.55 2.25 1.14 3.36 1.75-.13-1.72-.29-3.43-.38-5.14 1.08-2.05 2.23-4.07 3.13-6.21zm-56.62 16.57c3.9 1.74 8.87 3.58 9.33 8.53-3.6.77-7.27 1.12-10.95 1.19 4.82 3.39 10.4 5.52 15.18 8.95.25 6.57-9.67 5.73-10.52 11.96 1.78-.45 3.55-.94 5.32-1.43-1.66 2.29-3.37 4.55-5.04 6.83-.2-1-.59-3-.78-4-1.54.53-2.73 1.53-3.37 3.05.88.41 1.76.81 2.65 1.2l.82.37c-1.33.09-3.24 1.33-4.25-.04-1.07-2.26.23-4.76.99-6.92-.06-.21-.17-.65-.22-.86-.36-1.85-.95-4.12-3.25-4.13-2.72.47-2.11 3.54-2.26 5.55-1.39-.43-3.2-.42-3.96-1.91-1.16-3.15.72-7.25 4.04-8.15 3.35-1.02 6.7.43 9.95 1.13-.7-1.75-1.13-3.91-2.96-4.84-3.03-1.77-6.67-1.13-9.98-.79.89-1.5 3.01-3.92.82-5.26-1.4-1.67-3.76-.36-4.58 1.22.31 1.57 1.07 2.99 1.76 4.42-1.53-.29-3.24-.26-4.49-1.31-1.96-2.02-1.73-5.03-1.94-7.61 3.9-.46 7.64.92 11.46 1.4.08-1.19.16-2.37.23-3.55 3.48.28 6.94 1.07 10.43.67-1.09-2.17-2.82-3.89-4.43-5.67z"/></g><path d="M231.28 43.66c1.84 1.81 3.52 3.79 4.99 5.91-.03 4.29.34 8.57.89 12.82-1.38-.13-2.77-.23-4.14-.31-.25-6.17-1.45-12.25-1.74-18.42zM218.4 69.22c1.5-.81 3.32.13 4.67.88 1.21.99-1.28 1.07-1.78.87-.94-.25-3.08-.4-2.89-1.75z" fill="#4a687c"/><path fill="#91b0bf" d="M105.02 53.42c4.83-3.58 10.81-5.34 16.66-6.43-2.85 4.57-7.63 7.44-12.38 9.68-1.66-.65-3.54-1.51-4.28-3.25z"/><path fill="#7694a5" d="M121.68 46.99c3.56-.37 7.15-.29 10.72-.01.03.45.08 1.36.11 1.81-5.16 3.71-10.05 7.82-15.49 11.13-2.01-2.26-5.05-2.81-7.91-3.16l.19-.09c4.75-2.24 9.53-5.11 12.38-9.68z"/><path fill="#5c7b8d" d="M132.4 46.98c3.53.39 7.07.81 10.63.63-4.71 3.22-10.09 5.34-14.58 8.9-5.16 3.58-9.18 8.43-13.43 12.97.22-3.27 1.43-6.35 2-9.56 5.44-3.31 10.33-7.42 15.49-11.13-.03-.45-.08-1.36-.11-1.81z"/><path fill="#3b596e" d="M236.27 49.57c3.31 4.51 4.73 11.17 10.45 13.28-2.2.05-4.39-.07-6.58-.19l-2.98-.27c-.55-4.25-.92-8.53-.89-12.82z"/><path fill="#a0bfcd" d="M199.26 52.48c4.01-1.13 11.11-2.47 12.46 3.02-1.15-.65-2.34-1.2-3.59-1.63-2.96-.47-5.94-.77-8.87-1.39z"/><path fill="#7391a2" d="M220.52 51.86c.03 3.04-.47 6.05-.95 9.03.86.28 1.72.56 2.59.82-1.78.17-3.55.42-5.32.67 1.36.53 2.73 1.04 4.11 1.52-.79 3.25-3.87 4.85-6.37 6.65-4.14 2.77-7.85 6.37-12.67 7.96-6.49-.98-12.93-2.29-19.45-3.04 1.46-3.78 5.33-5.36 8.32-7.68 2.89-2.15 5.67-4.44 8.56-6.58.45.2 1.35.62 1.8.83 2.62 1.28 5.93 2.69 8.64.83 2.02-1.02 2.27-3.35 2.33-5.36 2.91-1.71 5.73-3.59 8.41-5.65z"/><path fill="#547285" d="M195.35 56.49c2.91-1.51 6.07-2.77 9.39-2.87.23.61.68 1.85.91 2.47-1.65.64-3.27 1.34-4.89 2.03l1.03 1.15c-.22.92-.44 1.85-.65 2.77-.45-.21-1.35-.63-1.8-.83-1.96-.93-4-1.72-5.87-2.83-.39-1.16 1.24-1.32 1.88-1.89z"/><path fill="#3a586d" d="M204.74 53.62c.85.06 2.55.19 3.39.25 1.25.43 2.44.98 3.59 1.63.1.51.29 1.51.39 2.01-.06 2.01-.31 4.34-2.33 5.36-2.71 1.86-6.02.45-8.64-.83.21-.92.43-1.85.65-2.77.6.04 1.81.13 2.41.17.15.04.44.13.59.17 1.5.22 3.35 1.03 4.31-.65.51-2.19-1.61-3.2-3.45-2.87-.23-.62-.68-1.86-.91-2.47z"/><path fill="#131b20" d="M205.65 56.09c1.84-.33 3.96.68 3.45 2.87-.96 1.68-2.81.87-4.31.65l-.26-.15-.33-.02c-.6-.04-1.81-.13-2.41-.17l-1.03-1.15c1.62-.69 3.24-1.39 4.89-2.03m.66.65c-.64 1.56-.14 2.16 1.5 1.79.67-1.57.17-2.16-1.5-1.79z"/><path fill="#a1a4a6" d="M204.2 59.44l.33.02.26.15c-.15-.04-.44-.13-.59-.17z"/><path fill="#8cabba" d="M216.84 62.38c1.77-.25 3.54-.5 5.32-.67 3.61.24 7.23.26 10.86.37 1.37.08 2.76.18 4.14.31l2.98.27c-4.11.01-8.21.41-12.29.87 7.99-.25 15.95 2.07 23.89.79 1.84-.46 2.94 1.4 4.01 2.52-.77-.07-2.32-.19-3.1-.25a4.398 4.398 0 0 0-3.25.07c-9.53 1.85-19.18-.62-28.45-2.76-1.38-.48-2.75-.99-4.11-1.52z"/><path fill="#688698" d="M220.95 63.9c9.27 2.14 18.92 4.61 28.45 2.76-.3 2.72 3.65 2.64 3.25-.07.78.06 2.33.18 3.1.25-1.25 4.45-4.88 7.9-9.38 8.93l-.38-.61c-.66-1.67-2.69-1.27-4.07-1.62-3.07-.38-6.16-.4-9.23-.36 3.69 1.38 7.6 2.22 11.56 1.88-.06.32-.19.96-.25 1.28v.09c-3.61-.93-7.19.36-10.71.99-5.99 1.18-12.13 1.04-18.13 2.08-4.45.35-8.88-.3-13.25-.99 4.82-1.59 8.53-5.19 12.67-7.96 2.5-1.8 5.58-3.4 6.37-6.65m-2.55 5.32c-.19 1.35 1.95 1.5 2.89 1.75.5.2 2.99.12 1.78-.87-1.35-.75-3.17-1.69-4.67-.88z"/><path d="M73.28 65.18c2.11-.81 3.02 3.34.69 3.21-2 .62-2.72-2.78-.69-3.21zm23.96 92.18c6.16-9.54 13.92-18.16 23.24-24.7 2.2.15 4.41.29 6.62.42-6.32 2.96-11.4 7.84-16.37 12.62-1.51 1.47-2.55 3.32-3.59 5.14l3.99.28c-2.12 2.27-5.21 4.86-3.19 8.24-3.08 5.24-7.98 8.98-12.16 13.28.85-3.15 2.63-5.89 4.59-8.45-2.16-.03-4.32-.07-6.48-.11.97-2.31 1.97-4.62 3.35-6.72z" fill="#56adc8"/><path d="M84.28 66.17c.99-1.47 3.54.15 2.38 1.62-.99 1.47-3.55-.16-2.38-1.62zm49.38 66.99c.03-1.15-.64-3.64 1.38-3.47 2.08-.24 1.83 1.7 1.98 3.13-.84.09-2.52.26-3.36.34zm-21.39 70.01c.98-1.47 3.55.14 2.38 1.61-.98 1.46-3.56-.14-2.38-1.61z" fill="#effafd"/><path fill="#2e95b0" opacity=".9" d="M90.66 73c.44-1.76 3.78-3.68 4.25-.98-2.06-1.45-2.2 2.26-.06.83-.12.7-.34 2.11-.45 2.81-.86-.06-2.58-.19-3.44-.25-.07-.6-.23-1.81-.3-2.41z"/><path fill="#2988a1" opacity=".82" d="M49.01 75.23c-.9-1.22-.2-4.22 1.53-3.99l.1.49c.16.49.49 1.46.65 1.95-.43 1.07-1.19 1.59-2.28 1.55z"/><path d="M51.29 73.68c-.16-.49-.49-1.46-.65-1.95l.81.17.35.98-.51.8zm-14.11 33.05c2.46-4.26 2.18-9.34 3.26-14.01 1.21.78 2.47 1.51 3.57 2.44-.52 4.42-2.92 8.41-3.26 12.89-1.14 6.31-.31 12.7.37 19.01-.79-.77-1.58-1.54-2.38-2.3-1.16.33-2.33.67-3.5 1-.63-2.04-1.27-4.08-1.95-6.1-1.64 7.1.7 14.15.91 21.25-2.5-.16-4.99-.72-6.88-2.48.09 1.16.19 2.31.21 3.47-.5 2.09-.2 4.03 1.47 5.53.48 4.27 2.1 8.99-.45 12.91-3.95-3.52-6.19-8.35-8.72-12.88-2.2-.71-4.87-1.01-6.25-3.13-1.73-2.07-1.51-4.92-1.82-7.43 2.13 2.06 3.85 5.64 7.28 5.37 4.08-.28 5.63-4.8 5.84-8.27.16-6.32-2.89-12.11-5.72-17.58.5-.41 1.5-1.25 2-1.66-.64-2.36-1.25-4.73-1.75-7.12 2.27 1.89 3.68 4.52 4.66 7.27-2.02.95-.89 3.14 1.03 3.04 1.36 3.27 2.2 6.72 2.93 10.18-.87 1.74-3.19 5.28.05 5.99 2.52 1.03 3.6-1.74 4.02-3.65-.99-.5-1.96-1.02-2.92-1.56.13-3.87-.05-7.75-.37-11.61.13-2.34.87-4.62 1.13-6.96.76-3.05 2.29-5.82 4.33-8.19.96 1.53 1.92 3.07 2.91 4.58m-3.14 7.25c-1.49 1.53-1.88 4.9.94 5.08 2.09-.19 2.18-2.42 2.29-4.02-1.08-.34-2.15-.7-3.23-1.06zm15.9-12.08c1.86-2.21 3.29-4.97 5.99-6.28.06 4.31-.58 8.62-2.09 12.67-.86-1.12-1.72-2.23-2.59-3.34-3.42 5.13-.59 11.52-.22 17.14-1.89-1-4.45-1.56-5.33-3.75-2.15-5.5-1.33-11.85 1.53-16.93.9.16 1.81.33 2.71.49m-3.65 3.33c-1.55 2.04.65 3.86 2.68 2.76 1.19-1.95-.77-4.06-2.68-2.76zm69.97 48.01c3.95-4.59 9.36-7.66 15.12-9.37 1.54.9 3.09 1.79 4.66 2.65-5.13 1.69-10.67 2.56-15.09 5.88 1.75.57 3.5 1.17 5.26 1.73-.83 2.26-1.76 4.48-2.78 6.66.42.15 1.26.46 1.68.61 1.73 1.71 4.6 2.85 5.67-.26.77.78 1.54 1.57 2.3 2.37-6.18.65-12.42.94-18.63.42 1.65-4.38 7.08-4.25 10.08-7.31-2.9-.75-5.79-1.64-8.27-3.38zm29.66 18.34c7.96-2.93 16.73-2.62 24.94-1.02-1.45.76-3.56 1.34-3.18 3.43.1 2.22 2.67 2.38 4.2 3.24 1.3-2.11 1.45-4.43.5-6.7 2.54 1.31 5.44 2.16 7.23 4.57-2.16.82-4.36 1.53-6.59 2.16 2.35 1.7 5.41 2.98 6.29 6.01-4.84.25-8.84-2.71-13-4.68a80.043 80.043 0 0 0-20.39-7.01zm-19.56 5.82c4.11-1.1 8.44-.24 12.62-.09-1.7 1.02-3.4 2.05-5.09 3.09 3.6 1.27 7.48 2.34 10.06 5.36-3.66-.93-7.29-1.99-11-2.71.23 4.37 3.93 9.13 1.33 13.26-1.11-3.18-1.52-6.59-2.98-9.64-1.64-2.97-5.61-2.9-7.91-5.01-.53-1.93 1.49-3.45 2.97-4.26z" fill="#c7fcff"/><path fill="#c7e4ec" opacity=".96" d="M94.85 72.85c-2.14 1.43-2-2.28.06-.83l-.06.83z"/><path fill="#0a5d75" opacity=".78" d="M51.29 73.68l.51-.8c.39 1.74.05 3.46-.85 4.98-.69-.84-1.34-1.72-1.94-2.63 1.09.04 1.85-.48 2.28-1.55z"/><path d="M61.03 74.58c.1-1.27 2.58-2.06 2.83-.51-.52 1.09-2.1 1.87-2.83.51zm2.4 23.72c.5-2.8 3.25-4.01 5.61-4.92.05 4.5-.63 9.21.99 13.52.5 1.63 2.25 2.93 3.99 2.34 3.08-1.55 5.7-3.86 8.6-5.7l.57 4.45 3.03.99c-.33 2.98-.79 5.94-1.47 8.86-.37-.41-1.1-1.25-1.47-1.66-1.18 1.54-2.28 3.17-3.7 4.51-4.46.38-3.59-5.19-4.19-8.08-3.23 6.25.38 13.17-1.24 19.72-1.11-.69-2.22-1.38-3.33-2.08-.8 9.69 1.85 19.14 2.27 28.75.04 2.34-.45 7.49-3.95 6.06-3.21-2.08-4.89-5.74-7.3-8.61.03.69.09 2.08.13 2.77-1.04-2.61-2.16-5.2-3.21-7.81-1.06.28-2.12.55-3.18.82-4.36-9.92-10.93-18.9-13.73-29.47 4.32.95 7.16 4.55 10.87 6.68-.43-1.96-.87-3.9-1.31-5.85 2.82 2.58 5.01 6.13 8.86 7.29.59-5.65-.11-11.31-.08-16.96 1.28 2.55 2.86 4.95 4.86 7.01.52-1.28 1.89-2.39 1.69-3.9-.61-6.32-4.46-12.24-3.31-18.73m-9.96 39.79c.88 4.38 3.09 8.32 5.53 12.01-.94-4.27-2.11-9.03-5.53-12.01zM23.89 97.38c-2.33-.27.01-4.02 1.34-2.14-.34.54-1.01 1.6-1.34 2.14zm-8.75 28.85c-1.48-2.01 1.19-3.9 2.92-2.39-1 .76-1.96 1.57-2.92 2.39z" fill="#69bcd6"/><path fill="#075167" opacity=".72" d="M90.94 78.53c-.74-1.79-.7-3.68-.28-5.53.07.6.23 1.81.3 2.41.86.06 2.58.19 3.44.25-1 1.13-2.16 2.1-3.46 2.87z"/><path fill="#476579" d="M232.69 73.18c3.07-.04 6.16-.02 9.23.36 1.38.35 3.41-.05 4.07 1.62-.43-.03-1.31-.08-1.74-.1-3.96.34-7.87-.5-11.56-1.88z"/><path d="M61.03 74.58c.73 1.36 2.31.58 2.83-.51 2.58 2.26-3.43 4.12-2.83.51zm86.16 33.66c11.11-5.34 20.38-14.32 26.64-24.9-.3 9.08-5.77 17.27-12.68 22.84-6.33 5.15-14.01 9.21-22.25 9.89-2.12.34-2.54-2.31-3.59-3.52 3.66-.77 7.1-2.25 10.52-3.73.34-.14 1.02-.43 1.36-.58zM15.14 126.23c.96-.82 1.92-1.63 2.92-2.39 2.35 1.61-2.03 5.22-2.92 2.39zm58.44 85.17c3.45-2.99 4.78-7.48 6.74-11.44.82 3.9 2.1 7.71 4.16 11.15.81-2.5 1.74-4.96 2.79-7.36.91 3.6 2.31 7.19 5.38 9.52.01-2.25-.01-4.49-.08-6.73 3.7 4.07 8.22 7.27 13.2 9.57-.05-3.43-.05-6.86-.2-10.29a38.9 38.9 0 0 1 3.78 16.73c-4.54-1.26-7.59-5.06-11.63-7.22-3.66-2.04-7.92-.29-11.8-1.15-2.73-.74-4.31-3.26-5.99-5.32-3.69 6.18-11.07 7.53-17.34 9.65-3.26 1.2-6.8 2.77-8.27 6.17-.82-.13-1.64-.26-2.46-.38 2.92-5.46 8.35-8.78 12.91-12.72-.2 1.53-.4 3.07-.59 4.61 4.14-2.4 7.29-6.03 9.72-10.1-.13 1.77-.24 3.54-.32 5.31z" fill="#1e3a51"/><path d="M177.46 75.39c1.67.02 3.33.01 5 .08 6.52.75 12.96 2.06 19.45 3.04 4.37.69 8.8 1.34 13.25.99-5.86 4.26-12.17 7.8-18.44 11.38 2.4-.35 5.1-1.6 7.36-.09 3.42 1.68 4.35 5.6 5.26 8.96-.1 5.78-.95 11.5-2.27 17.12-2-1.16-2.97 1.98-.9 2.54v2.09c-.68 1.06-2 1.5-2.96 2.26-3.9-5.7-.73-13.07-4-18.94-1.49-2.92-4.22-4.86-6.7-6.86 1.41-1.99 2.82-3.98 4.09-6.06-1.82.65-3.62 1.34-5.4 2.08-4.01 1.52-7.18 4.52-10.98 6.43-7.95 4.08-15.97 8.02-24 11.95-10.48 5.08-21.48 9.21-31.35 15.46-15.09 9.88-28.37 23.46-35.31 40.32-.4.08-1.21.24-1.61.31 4.16-11.14 10.06-21.52 16.32-31.6 9.88-14.68 21.6-28.46 36.1-38.74l-.05 1.98c-1.74 3.44-4.77 5.97-6.88 9.17-.62 1.12-1.17 2.27-1.73 3.42 1.2-.03 2.4-.07 3.6-.13 1.05 1.21 1.47 3.86 3.59 3.52 8.24-.68 15.92-4.74 22.25-9.89 6.91-5.57 12.38-13.76 12.68-22.84 1.13-2.69 2.38-5.32 3.63-7.95zm-91.73 98.22c.51.02 1.54.05 2.05.07-1.18 4.5-1.61 9.14-1.46 13.78 1.62.82 3.22 1.68 4.8 2.58l.3.16c3.29 1.7 6.69 3.22 9.95 4.99.06 2.56.74 5.06 2.41 7.06.69 1.12 1.53 2.24 1.79 3.57.15 3.43.15 6.86.2 10.29-4.98-2.3-9.5-5.5-13.2-9.57.07 2.24.09 4.48.08 6.73-3.07-2.33-4.47-5.92-5.38-9.52-1.05 2.4-1.98 4.86-2.79 7.36-2.06-3.44-3.34-7.25-4.16-11.15-1.96 3.96-3.29 8.45-6.74 11.44.08-1.77.19-3.54.32-5.31-2.43 4.07-5.58 7.7-9.72 10.1.19-1.54.39-3.08.59-4.61-4.56 3.94-9.99 7.26-12.91 12.72.82.12 1.64.25 2.46.38-.97 2.15-2.37 4.11-4.58 5.13-1.2-2.95-1.84-6.44-1.03-9.53.19 2.66.45 5.32 1.11 7.91.42-4.08.94-8.18 2.59-11.98 3.38-2.94 5.75-6.8 8.98-9.87 3.39-3.3 7.19-6.13 10.76-9.21 2.52-2.15 4.31-5 6.81-7.16 4.59-3.1 4.54-9.23 6.18-14.01.14-.59.44-1.76.59-2.35z" fill="#3d5868"/><path fill="#a6c5d3" d="M153.82 80.68c6.28-1.76 12.76-2.71 19-4.65-2.3 5.92-4.89 11.85-9.12 16.66-4.64 5.76-10.64 10.13-16.59 14.41-.07-.5-.2-1.5-.27-2l-3.43-.36c.21 1.68 1.08 3.07 2.42 4.08-3.42 1.48-6.86 2.96-10.52 3.73-1.2.06-2.4.1-3.6.13.56-1.15 1.11-2.3 1.73-3.42 1.72 2.67 5.25-.19 7.8.44-.58-.89-1.16-1.78-1.72-2.67 3.42-5.54 7.97-12.01 5.77-18.82 1.63-3.59 4.67-6.51 8.53-7.53z"/><path fill="#92a7b9" d="M233.29 77.42c3.52-.63 7.1-1.92 10.71-.99-8.81 3.89-18.73 2.88-27.96 4.94-1.83.35-2.7 2.13-3.73 3.47 1.64 3.15 3.26 6.42 3.6 10.01-1.27 2.79-3.3 5.12-5.54 7.17-.26-.56-.77-1.7-1.03-2.27-.91-3.36-1.84-7.28-5.26-8.96-2.26-1.51-4.96-.26-7.36.09 6.27-3.58 12.58-7.12 18.44-11.38 6-1.04 12.14-.9 18.13-2.08z"/><path fill="#e1f6fc" d="M72.16 84.1c3.4-.33-.06 4.22-.85 1.07.21-.27.64-.8.85-1.07z"/><path d="M145.29 88.21c2.2 6.81-2.35 13.28-5.77 18.82.56.89 1.14 1.78 1.72 2.67-2.55-.63-6.08 2.23-7.8-.44 2.11-3.2 5.14-5.73 6.88-9.17 1.89-3.86 2.96-8.07 4.97-11.88zM57.03 205.53c2.85-8.26 10.23-14.75 18.63-17-.15.35-.46 1.07-.62 1.42-2.9 1.44-6.04 2.49-8.56 4.6-3.75 3.09-6.68 7.02-9.45 10.98z" fill="#ebf4f7"/><path d="M180.22 100.41c3.8-1.91 6.97-4.91 10.98-6.43-7.29 5.96-16.01 9.63-24.31 13.89-11.78 5.91-23.7 11.58-35.17 18.09-3.81 2.12-7.65 4.22-11.24 6.7-9.32 6.54-17.08 15.16-23.24 24.7-1.38 2.1-2.38 4.41-3.35 6.72-.9 2.14-2.05 4.16-3.13 6.21-.64 1.21-1.24 2.45-1.9 3.66-.2-1.71-.4-3.42-.61-5.13.33-.17.99-.51 1.31-.68 6.94-16.86 20.22-30.44 35.31-40.32 9.87-6.25 20.87-10.38 31.35-15.46 8.03-3.93 16.05-7.87 24-11.95zm-11.29 27.69c5.7-.13 10.56 2.86 15.02 6.02 9.12 1.15 18.42 3.36 25.97 8.9-7.91 2.94-16.53 2-24.74 3.39-9.87 1.7-19.9 1.7-29.8 3.11-3.35.48-6.75.48-10.11.08 4.92-5.14 11-9.13 17.56-11.85 3.43-1.5 7.53-1.73 10.18-4.66-1.39-1.64-2.81-3.25-4.08-4.99z" fill="#9dc1d1"/><path d="M25.23 95.24c2.69-.12-.23 4.43-1.34 2.14.33-.54 1-1.6 1.34-2.14zM.74 127.14c.83.97 1.7 1.05 2.61.23.08 1.42.18 2.84.22 4.26-.51.05-1.54.14-2.05.18-.5-1.51-1.04-3.05-.78-4.67zm107.2 32.22c2.58-.15 5.17-.2 7.76-.24-3.04 1.39-6.44 2.68-7.84 6.02 11.2 5.42 25.78-2.67 35.58 6.58-8.97 1.94-18.5 1.13-27.13 4.57-2.48.8-3.71 3.12-4.5 5.41 4.35 1.28 8.92 1.76 13.19 3.32 2.27.78 3.37 3.05 4.54 4.96-2.37.17-4.94.87-7.16-.36-3.65-1.56-7.9-4.72-11.84-2.11-2.03 2.73-.13 6.11.38 9.04-3.8-.68-8.1-1.47-10.57-4.76-1.29-1.43-2.06-3.43-3.73-4.45-2.24-.59-2.68 2.04-3.49 3.48a68 68 0 0 1-1.71-.62l-.3-.16c-.89-3.1-4.55-6.53-1.66-9.64 3.88-5.76 11.32-1.59 16.77-3.15 2.13-.41 1.52-3.04 2.13-4.56-4.19-.14-8.39.01-12.58-.05 4.18-4.3 9.08-8.04 12.16-13.28z" fill="#4da6c1"/><path fill="#7a91a2" d="M215.91 94.85c1.33 9.77-2.83 19.8-9.74 26.65v-2.09c.22-.63.67-1.9.9-2.54 1.32-5.62 2.17-11.34 2.27-17.12.26.57.77 1.71 1.03 2.27 2.24-2.05 4.27-4.38 5.54-7.17z"/><path fill="#f9ffff" d="M46.29 105.23c1.91-1.3 3.87.81 2.68 2.76-2.03 1.1-4.23-.72-2.68-2.76z"/><path fill="#dfe7eb" d="M143.41 104.74l3.43.36c.07.5.2 1.5.27 2l.08 1.14c-.34.15-1.02.44-1.36.58-1.34-1.01-2.21-2.4-2.42-4.08z"/><path d="M55.23 107.1c1.64-.48 2.18.09 1.62 1.7-1.65.48-2.19-.09-1.62-1.7zM29 147.43c-1.67-1.5-1.97-3.44-1.47-5.53 2.49 1.24 2.87 3.2 1.47 5.53z" fill="#f7fdfe"/><path fill="#faffff" d="M34.04 113.98c1.08.36 2.15.72 3.23 1.06-.11 1.6-.2 3.83-2.29 4.02-2.82-.18-2.43-3.55-.94-5.08z"/><path fill="#f0fcfe" d="M25.1 117.95c-1.92.1-3.05-2.09-1.03-3.04.57.29 1.71.86 2.28 1.14l-.05.73c-.3.29-.9.88-1.2 1.17z"/><path fill="#ebeef0" d="M206.17 119.41c-2.07-.56-1.1-3.7.9-2.54-.23.64-.68 1.91-.9 2.54z"/><path d="M.74 127.14c.96-1.19 1.83-1.12 2.61.23-.91.82-1.78.74-2.61-.23zm84.99 46.47c-.34-2.19-.2-4.47 2.52-4.79.21 1.71.41 3.42.61 5.13.66-1.21 1.26-2.45 1.9-3.66.09 1.71.25 3.42.38 5.14-1.11-.61-2.23-1.2-3.36-1.75-.51-.02-1.54-.05-2.05-.07z" fill="#c5fbfe"/><path fill="#708fa0" d="M92.44 144.79c3.97-2.61 7.39-6.06 11.83-7.94-6.26 10.08-12.16 20.46-16.32 31.6.4-.07 1.21-.23 1.61-.31-.32.17-.98.51-1.31.68-2.72.32-2.86 2.6-2.52 4.79-.15.59-.45 1.76-.59 2.35-2.42 1.86-4.93 3.59-7.32 5.5.14-.7.4-2.08.53-2.77l.13-.65c1.59-10.02 4.7-19.69 7.12-29.51 1.48-.24 2.97-.48 4.47-.47.61.1 1.82.29 2.43.39l-.06-3.66z"/><path fill="#60b5cf" d="M37.16 139.06c.54.15 1.63.44 2.17.59 1.55 5.12 1.97 10.64 4.64 15.37 2.08 3.76 4.9 7.46 8.96 9.2 1.45.69 3.61.56 4.17-1.24 1.48-3.55-.25-7.41-1.52-10.75 1.06-.27 2.12-.54 3.18-.82 1.05 2.61 2.17 5.2 3.21 7.81 1.84 5.4 2.57 11.21 1.11 16.8-1.08-.52-2.16-1.03-3.24-1.55 1.31 4.87 4.08 9.14 5.66 13.91-2.17-.58-4.8-.67-6.24-2.67-4.33-5.35-4.49-12.82-8.59-18.31-1.34-2.13-3.94-2.48-6.16-3.03.62 2.83 1.31 5.66 2.42 8.35-1.7.52-3.4 1.05-5.09 1.6-3.27-6.84-7.23-13.64-7.34-21.45 1.47.7 2.93 1.42 4.4 2.13-.97-5.27-1.86-10.57-1.74-15.94z"/><path fill="#8dd4e9" d="M53.47 138.09c3.42 2.98 4.59 7.74 5.53 12.01-2.44-3.69-4.65-7.63-5.53-12.01z"/><path fill="#5eb2cc" d="M116.55 148.16c3.6-4.04 8.39-8.01 14.19-7.32-3.63 4.11-9.18 5.64-14.19 7.32z"/><path fill="#93b9cb" d="M209.92 143.02c2.96 2.37 6.25 4.63 8.04 8.09 1.44 2.68 1.19 5.81 1.18 8.74 1.46 1.07 2.94 2.12 4.21 3.42-.43 1.95-2.9 2.01-4.47 1.67-5.09-.71-9.46-3.6-14.27-5.18-2.43-.67-4.97-.66-7.47-.54-11.1-.22-22.05-2.24-33.1-3.07-8.27-.78-16.51 2.39-23.01 7.38-1.68-.65-3.33-1.38-4.91-2.23 2.54-4.22 5.56-8.12 8.92-11.72l.23.02c3.36.4 6.76.4 10.11-.08 9.9-1.41 19.93-1.41 29.8-3.11 8.21-1.39 16.83-.45 24.74-3.39z"/><path fill="#124f60" opacity=".53" d="M1.75 144.75c1.81-2.55 5.3 1.41 3.2 3.21-1.84 1.99-5.71-1.39-3.2-3.21m.65.53c-.55 1.63-.02 2.22 1.6 1.74.59-1.61.06-2.19-1.6-1.74z"/><path fill="#6ad3ef" d="M2.4 145.28c1.66-.45 2.19.13 1.6 1.74-1.62.48-2.15-.11-1.6-1.74z"/><path fill="#9cbbc9" d="M77.63 155.62c3.35-2.57 5.36-6.39 8.42-9.25-.11.54-.34 1.62-.45 2.16-2.42 9.82-5.53 19.49-7.12 29.51.04-1.16-1.66-2.78-2.27-1.06.11 1.21.82 1.78 2.14 1.71-.13.69-.39 2.07-.53 2.77-.2.21-.6.63-.8.85-1.09 1-1.12 2.05-.09 3.16-.43 1.02-.84 2.04-1.27 3.06-8.4 2.25-15.78 8.74-18.63 17-1.74 3.47-3.4 6.99-4.62 10.68-1.65 3.8-2.17 7.9-2.59 11.98-.66-2.59-.92-5.25-1.11-7.91.85-3.92 1.73-7.89 3.49-11.52.92-1.97 1.85-3.94 2.67-5.95 4.34-5.89 9.4-11.34 15.57-15.35 1.83-1.45 4.64-2.67 4.54-5.42.64-8.83.53-17.77 2.65-26.42z"/><path fill="#f5fdfe" d="M125.11 161.4c1.18-.8 2.38-1.59 3.57-2.39.52.53 1.58 1.6 2.1 2.13-1.07 3.11-3.94 1.97-5.67.26z"/><path fill="#8ab2c5" d="M197.14 159.22c2.5-.12 5.04-.13 7.47.54-.63 2.48-.83 5.26-2.61 7.26-2.35 2.78-6.14 3.6-9.61 3.79.8-1.98 2.04-3.74 2.76-5.75-.03-1.57-.85-2.95-1.35-4.39 1.1-.5 2.22-.99 3.34-1.45z"/><path fill="#57adc8" d="M22.5 169.98c.58-.13 1.74-.4 2.32-.53 4.96 3.01 8.89 8.66 15.17 8.86 1.94-.41 1.64-2.5 1.85-3.99 1.69-.55 3.39-1.08 5.09-1.6 2.08 3.88 5.55 6.63 8.75 9.53.86.94 2.55 2.21 1.55 3.65-1.18.87-2.74.95-4.1 1.43 2.24 2.22 4.98 4.34 5.85 7.52-1.89 2.45-4.99 4.35-4.11 7.96-.82 2.01-1.75 3.98-2.67 5.95-2.21.25-4.43.48-6.57 1.09-1.77.49-3.54.98-5.32 1.43.85-6.23 10.77-5.39 10.52-11.96-4.78-3.43-10.36-5.56-15.18-8.95 3.68-.07 7.35-.42 10.95-1.19-.46-4.95-5.43-6.79-9.33-8.53-5.27-3.04-9.93-7-14.77-10.67z"/><path fill="#e7f8fc" d="M66.18 173.25c1.35-1.41 3.61.9 2.13 2.18-1.35 1.45-3.63-.86-2.13-2.18z"/><path fill="#e6edf1" d="M76.21 176.98c.61-1.72 2.31-.1 2.27 1.06l-.13.65c-1.32.07-2.03-.5-2.14-1.71z"/><path fill="#648294" d="M77.82 181.46c2.39-1.91 4.9-3.64 7.32-5.5-1.64 4.78-1.59 10.91-6.18 14.01-2.5 2.16-4.29 5.01-6.81 7.16-3.57 3.08-7.37 5.91-10.76 9.21-3.23 3.07-5.6 6.93-8.98 9.87 1.22-3.69 2.88-7.21 4.62-10.68 2.77-3.96 5.7-7.89 9.45-10.98 2.52-2.11 5.66-3.16 8.56-4.6.16-.35.47-1.07.62-1.42.43-1.02.84-2.04 1.27-3.06 1.43-1.11 1.46-2.16.09-3.16.2-.22.6-.64.8-.85z"/><path fill="#dce5e9" d="M76.93 185.47c-1.03-1.11-1-2.16.09-3.16 1.37 1 1.34 2.05-.09 3.16z"/><path fill="#edfafd" d="M146.42 190.2c.27-1.33 1.74-2.01 2.51-3.04.6.63 1.8 1.87 2.4 2.49-.74.91-1.45 1.85-2.34 2.63-1.4.26-2.8-.54-2.57-2.08z"/><path fill="#eaf9fd" d="M114.37 193.16c1.34-1.55 3.68.86 2.12 2.17-1.31 1.4-3.49-.86-2.12-2.17z"/><path fill="#f4fcfe" d="M134.1 199.13c2.13-1.85 5.16 1.26 3.13 3.12-1.99 1.93-4.65-1-3.13-3.12z"/><path fill="#edf9fd" d="M36.44 215.73c.64-1.52 1.83-2.52 3.37-3.05.19 1 .58 3 .78 4l-1.5.25c-.89-.39-1.77-.79-2.65-1.2z"/></svg>