<svg width="256pt" height="256pt" viewBox="0 0 256 256" xmlns="http://www.w3.org/2000/svg"><path fill="#ffa700" d="M142.89 15.03c5.01 5.04 10.45 9.81 14.22 15.91 6.64 10.19 9.25 22.24 12.31 33.84 1.35 4.46 2.42 9.28 5.65 12.83.75-6.91-1.53-14.51 1.67-20.95 1.82 14.73 11.94 26.19 18.78 38.78 7.15 12.49 7.85 27.92 3.59 41.5 3.64-4.59 7.4-9.11 11.62-13.18-5.89 15.47-11.98 30.89-16.97 46.68-2.17 7.55-5.17 14.98-10.01 21.24a54.19 54.19 0 0 1-3.68 4.05c-3.08 3.12-6.6 5.73-10.21 8.19-1.19-.5-2.41-.96-3.67-1.26-4.15-.83-8.42-.26-12.37 1.16-4.82 1.96-9.09 4.99-12.94 8.45-10.89-7.35-24.74-9.62-37.56-7.2-2.24-1.72-4.53-3.38-6.63-5.27-2.29-2.17-4.35-4.56-6.44-6.92-4.55-7.07-8.39-14.67-10.53-22.83-2.92-8.55-1.18-17.89-4.43-26.35-2.38-7.12-6.31-13.55-10.19-19.93 6.05 4.16 11.57 9.2 15.68 15.32 1.12-2.89 2.15-5.9 2.08-9.05.1-9.63-2.73-18.97-5.52-28.1 4.68 9.01 6.8 19.03 9.18 28.81-.66-8.33 1.47-16.65 4.96-24.16 4.87-10.74 12.75-19.69 18.48-29.93-.58 7.18-1.88 14.71.73 21.66.67 2.06 2.41 3.43 4 4.78-.77-10.09 1.68-20.04 4.85-29.53 2.24-6.45 6.34-12.1 11.24-16.79 6.46-6.27 14.47-11.92 17.21-20.94 2.08-7.38-1.87-14.44-5.1-20.81m7.17 50.93c.51 4.61 2.21 9.65-.15 14.03-4.54 8.73-13.03 14.43-18.15 22.78-4.31 6.13-4.93 13.87-8.47 20.36-.57-4.4-.06-8.81.39-13.19-4.79 3.06-8.04 7.9-11.28 12.46-3.86 5.75-5.48 12.52-7.41 19.07-1.77-3.76-2.7-7.87-4.69-11.53.25 6.95 2.39 14.58-1.25 21-4.42-4-9.78-7.22-15.97-7.02 2.68 1.9 6.19 3.51 6.98 7.04 1.99 7.89-.04 16.17 1.73 24.12 1.11 7.43 4.63 14.92 11.35 18.81 10.37 6.1 22.94 7.8 34.8 6.87 11.79-1.58 23.86-3.58 34.43-9.35 8.25-4.07 15.15-11.18 18.07-20 3.08-8.73 5.59-18.79 1.85-27.69-.75 1.06-1.5 2.13-2.24 3.2.13-6.75.79-13.81-1.78-20.23-2.83-7.05-7.23-13.29-11.17-19.74-2.55-4.07-3.55-8.84-5.79-13.07-.44 4.42-.31 8.87-.61 13.3-2.91-2.99-3.73-7.18-4.8-11.06-2.74-11.02-5.96-23.31-15.84-30.16z"/><path fill="#ff8600" d="M150.06 65.96c9.88 6.85 13.1 19.14 15.84 30.16 1.07 3.88 1.89 8.07 4.8 11.06.3-4.43.17-8.88.61-13.3 2.24 4.23 3.24 9 5.79 13.07 3.94 6.45 8.34 12.69 11.17 19.74 2.57 6.42 1.91 13.48 1.78 20.23.74-1.07 1.49-2.14 2.24-3.2 3.74 8.9 1.23 18.96-1.85 27.69-2.92 8.82-9.82 15.93-18.07 20-10.57 5.77-22.64 7.77-34.43 9.35-11.86.93-24.43-.77-34.8-6.87-6.72-3.89-10.24-11.38-11.35-18.81-1.77-7.95.26-16.23-1.73-24.12-.79-3.53-4.3-5.14-6.98-7.04 6.19-.2 11.55 3.02 15.97 7.02 3.64-6.42 1.5-14.05 1.25-21 1.99 3.66 2.92 7.77 4.69 11.53 1.93-6.55 3.55-13.32 7.41-19.07 3.24-4.56 6.49-9.4 11.28-12.46-.45 4.38-.96 8.79-.39 13.19 3.54-6.49 4.16-14.23 8.47-20.36 5.12-8.35 13.61-14.05 18.15-22.78 2.36-4.38.66-9.42.15-14.03m-1.93 42.85c.28 3.27 1.45 6.89-.43 9.91-3.08 5.09-7.96 8.76-11.22 13.73-3.19 4.35-3.96 9.82-6.18 14.64-.02-3.04.12-6.08.31-9.11-6.78 5.36-11.52 13.3-12.07 22.02-.88-3.09-1.9-6.14-3.27-9.05.31 4.62 1.06 9.34-.34 13.87-2.73-1.84-5.58-3.59-8.85-4.28 1.37 2.63 3.1 5.29 2.93 8.4.1 7.66-.43 16.68 5.59 22.45 6.54 5.91 16.02 6.88 24.47 6.52 9.1-.85 18.4-2.77 26.28-7.59 7.6-4.6 11.13-13.76 11.72-22.27.58-5.06-2.46-9.51-2.74-14.48-.52-6.19-4.47-11.2-7.58-16.32-2.05-3.21-3.24-6.85-4.59-10.38-.19 3.11-.32 6.22-.56 9.32-4.89-8.87-4.41-20.99-13.47-27.38z"/><path fill="#e84600" d="M148.13 108.81c9.06 6.39 8.58 18.51 13.47 27.38.24-3.1.37-6.21.56-9.32 1.35 3.53 2.54 7.17 4.59 10.38 3.11 5.12 7.06 10.13 7.58 16.32.28 4.97 3.32 9.42 2.74 14.48-.59 8.51-4.12 17.67-11.72 22.27-7.88 4.82-17.18 6.74-26.28 7.59-8.45.36-17.93-.61-24.47-6.52-6.02-5.77-5.49-14.79-5.59-22.45.17-3.11-1.56-5.77-2.93-8.4 3.27.69 6.12 2.44 8.85 4.28 1.4-4.53.65-9.25.34-13.87 1.37 2.91 2.39 5.96 3.27 9.05.55-8.72 5.29-16.66 12.07-22.02-.19 3.03-.33 6.07-.31 9.11 2.22-4.82 2.99-10.29 6.18-14.64 3.26-4.97 8.14-8.64 11.22-13.73 1.88-3.02.71-6.64.43-9.91z"/><path d="M63.98 170.79c5.14-1.13 10.54-1.84 15.74-.74 2.14 8.16 5.98 15.76 10.53 22.83-7.87-3.85-16.78-5.65-25.48-4.14-5.46.81-10.66 2.71-15.9 4.34-.73-5.67 0-11.68 3.46-16.39.15 2.06-.66 4.52.88 6.22 5.02 1.08 10.51-.06 14.76-2.92 2.03-1.29 2.9-4.31 1.49-6.34-1.42-1.58-3.57-2.14-5.48-2.86zm119.77 20.89c4.84-6.26 7.84-13.69 10.01-21.24 3.52-.14 7.01.42 10.44 1.2-1.22.58-2.43 1.16-3.64 1.74.56 5.86 6.25 9.04 11.33 10.58.35-.52 1.05-1.57 1.4-2.09-2.02-3.27-4.37-6.34-7.21-8.94 5.8 2.42 9.49 8.37 10.52 14.41.66 3.57-.27 7.13-.85 10.64l-.59-.39c-.28-.18-.86-.56-1.15-.75-8.42-7.01-20.01-6.92-30.26-5.16zm-13.89 12.24c3.61-2.46 7.13-5.07 10.21-8.19-1.09 10.09 5.46 19.36 13.55 24.71 5.86 3.82 13.2 2.69 19.55.86-6.92 5.17-15.17 8.7-23.73 9.93.91-4.91-.87-9.78-4.24-13.36-4.38-5.38-9.51-10.16-15.34-13.95zm-73.17-4.12c2.1 1.89 4.39 3.55 6.63 5.27-5.79 1.57-11.5 4.17-15.62 8.64-5 5.06-7.77 12.03-8.06 19.11-7.83-1.84-15.73-3.47-23.73-4.45-5-.52-10.12-1.77-14.04-5.09 9.5 2.81 20.01 2.71 29.18-1.22 3.81-1.67 5.92-5.44 8.71-8.3 4.94-5.57 13.57-6.81 16.93-13.96zm44.19 12.47c3.85-3.46 8.12-6.49 12.94-8.45-1.52 2.76-3.6 5.71-2.8 9.04 1.17 5.43 2.76 10.76 3.91 16.19.64 3.47 2.94 6.6 6.37 7.73 9.06 3.12 19.25.82 27.03-4.48-2.51 4.33-7.1 6.79-11.71 8.28-10.76 3.35-22.11 6.08-33.42 4.18 4.16-5.7 5.02-13.18 4.06-20.02-.55-4.77-2.86-9.22-6.38-12.47z" fill="#5a5943"/><path d="M52.33 176.69c3.26-3.01 7.34-4.94 11.65-5.9 1.91.72 4.06 1.28 5.48 2.86 1.41 2.03.54 5.05-1.49 6.34-4.25 2.86-9.74 4-14.76 2.92-1.54-1.7-.73-4.16-.88-6.22zm148.23-3.31c1.21-.58 2.42-1.16 3.64-1.74.47.32 1.41.97 1.88 1.29 2.84 2.6 5.19 5.67 7.21 8.94-.35.52-1.05 1.57-1.4 2.09-5.08-1.54-10.77-4.72-11.33-10.58zM64.77 188.74c8.7-1.51 17.61.29 25.48 4.14 2.09 2.36 4.15 4.75 6.44 6.92-3.36 7.15-11.99 8.39-16.93 13.96-2.79 2.86-4.9 6.63-8.71 8.3-9.17 3.93-19.68 4.03-29.18 1.22-4.65-3.58-6.47-10.04-5.11-15.65.74-3.87 3.41-6.91 6.02-9.69-.88 3.35-1.6 7.48 1.07 10.24 3.28 3.25 7.91 4.86 12.41 5.45 5.57.58 10.54-2.52 15.2-5.12 3.87-2.35 8.2-4.31 11.09-7.93 1.69-1.98 2.04-5.22.05-7.14-4.57-4.74-11.65-5.25-17.83-4.7zm118.98 2.94c10.25-1.76 21.84-1.85 30.26 5.16-6.27-2.79-12.86-6.4-19.98-5.11-3.07.2-4.06 3.72-4.12 6.28-.42 7 4.58 14.8 12.03 15.2 6.25.56 14.16-1.23 16.77-7.65 1.38-3.18-1.91-5.64-3.55-7.97l.59.39c4.45 2.8 7.72 8.57 6.14 13.84-1.73 4.01-5.11 7.16-8.72 9.48-6.35 1.83-13.69 2.96-19.55-.86-8.09-5.35-14.64-14.62-13.55-24.71a54.19 54.19 0 0 0 3.68-4.05zm-29.93 12.14c3.95-1.42 8.22-1.99 12.37-1.16-2.25.53-5.81.49-6.06 3.53-.68 4.07-.58 9 2.63 12.05 2.63 2.36 6.11 3.36 9.32 4.66-2.78-.14-5.61-.59-8.38-.11-2.63 1.55-1.85 5.59.55 6.99 3.67 2.36 8.33 2.19 12.53 1.87 3.19-.44 7.02-1.1 8.78-4.16 1.78-2.99.55-6.56-.36-9.62 3.37 3.58 5.15 8.45 4.24 13.36l-1.11 1.07c-7.78 5.3-17.97 7.6-27.03 4.48-3.43-1.13-5.73-4.26-6.37-7.73-1.15-5.43-2.74-10.76-3.91-16.19-.8-3.33 1.28-6.28 2.8-9.04z" fill="#80806a"/><path d="M48.87 193.08c5.24-1.63 10.44-3.53 15.9-4.34 6.18-.55 13.26-.04 17.83 4.7 1.99 1.92 1.64 5.16-.05 7.14-2.89 3.62-7.22 5.58-11.09 7.93-4.66 2.6-9.63 5.7-15.2 5.12-4.5-.59-9.13-2.2-12.41-5.45-2.67-2.76-1.95-6.89-1.07-10.24 1.73-1.93 3.57-4.01 6.09-4.86zm141.04 4.93c.06-2.56 1.05-6.08 4.12-6.28 7.12-1.29 13.71 2.32 19.98 5.11.29.19.87.57 1.15.75 1.64 2.33 4.93 4.79 3.55 7.97-2.61 6.42-10.52 8.21-16.77 7.65-7.45-.4-12.45-8.2-12.03-15.2zm-29.78 8.18c.25-3.04 3.81-3 6.06-3.53 1.26.3 2.48.76 3.67 1.26 5.83 3.79 10.96 8.57 15.34 13.95.91 3.06 2.14 6.63.36 9.62-1.76 3.06-5.59 3.72-8.78 4.16-4.2.32-8.86.49-12.53-1.87-2.4-1.4-3.18-5.44-.55-6.99 2.77-.48 5.6-.03 8.38.11-3.21-1.3-6.69-2.3-9.32-4.66-3.21-3.05-3.31-7.98-2.63-12.05zm-56.81-1.12c12.82-2.42 26.67-.15 37.56 7.2 3.52 3.25 5.83 7.7 6.38 12.47.96 6.84.1 14.32-4.06 20.02-2.03 2.92-5.87 3.53-9.14 3.99-9.34.91-18.72-.19-28.07.31-6.1.18-12.61 1-18.26-1.87-5.3-2.57-8.49-8.55-8.09-14.37.29-7.08 3.06-14.05 8.06-19.11 4.12-4.47 9.83-7.07 15.62-8.64z" fill="#aaa790"/></svg>