<svg width="227pt" height="227pt" viewBox="0 0 227 227" xmlns="http://www.w3.org/2000/svg"><path d="M29.45 62.58c-.06-1.79-.11-3.58-.27-5.37 1.31 2.75 1.7 5.75 2.27 8.71 2.87 9.35 7.15 18.25 12.15 26.64l.16 1.34-.09.65c-5.29-8.61-9.43-17.96-12.39-27.62-.55-1.48-.57-3.07-.66-4.62l-1.17.27zm118.96 6.69c.33.14.98.41 1.3.55 1.68.39 2.64 1.94 3.09 3.49.28.45.83 1.35 1.11 1.8l1.25.69c-.18.49-.54 1.46-.71 1.95.37 1.09.85 2.14 1.44 3.14.49.01 1.47.05 1.97.06.33 1.15.56 2.32.79 3.5l1.18-1.07c.18 1.05.36 2.11.56 3.16 1.04.66 2.05 1.37 3.06 2.08.6 1.4 1.16 2.82 1.74 4.24 1.3 2.21 3.13 4.19 3.63 6.78l.7-.32c.74 1.32 1.49 2.64 2.24 3.96-.48.24-1.44.71-1.91.95-.42-.1-1.26-.31-1.68-.41-2.54-6.87-7.67-12.35-11.69-18.37-3.08-4.35-5.72-8.98-8.44-13.54.09-.66.28-1.98.37-2.64zm-4.8 23.1l3.47.45c1.49 3.05 3.35 5.89 5.14 8.77 3.44.79 6.98.9 10.44 1.56-2.97.31-5.95.46-8.93.34-.34.37-1 1.1-1.33 1.46.47 2.22 1.38 4.34 2.61 6.24.25.27.77.81 1.02 1.08 1.16 3.94 2.91 7.7 5.36 11.01l-.86 1.28c.47.16 1.42.48 1.9.64.15.51.46 1.52.62 2.02l.88.72c-1.35.81-.42 2.71 1.04 2.33-.14.31-.42.94-.56 1.26l.97.85c1.22 1.24 1.71 2.98 2.51 4.48 2.29 4.27 4.41 8.66 5.99 13.23l1.22-.76c-.1 1.04-.21 2.08-.3 3.13 1.18 1.04 2.19 2.27 2.99 3.63l.39.63c4.46-.16 8.91.11 13.26 1.19-.02.37-.05 1.1-.07 1.46 3.04.28 4.74 3.36 4.31 6.19-.49-.02-1.46-.05-1.95-.06-.76-1.64-1.53-3.26-2.39-4.84-4.22-1.43-8.64-1-13-1.23-3.58-.36-4.69-4.15-6.05-6.88-3.52-6.9-6.93-13.86-10.85-20.55-1.14-2.47-2.28-4.96-3.5-7.4-3.54-6.98-7.08-13.97-9.98-21.25l-1-2.49c-.59-1.44-1.19-2.88-1.78-4.33-.44-.11-1.31-.34-1.75-.46.08-1.24.16-2.47.18-3.7z" fill="#e4bc96"/><path d="M133.75 71.41c1.66-4.42 5.99-8.59 11.06-6.77l-.54 1.75c-.34 1.07-.64 2.15-.91 3.24.52.25 1.57.73 2.1.98-1.35 1.36-2.62 2.86-4.4 3.67-1.43-.84-2.85-1.73-4.3-2.53-.76-.09-2.26-.26-3.01-.34zm-30.55 22.2c5.6-5.75 12.88-9.4 19.72-13.43l.5.5c-1.26 1.75-2.57 3.46-3.85 5.2.19-.08.58-.23.77-.31-1.01.9-1.98 1.85-2.92 2.82-1.72-.66-3.4-.15-5.01.5.54 2.87-2.21 4.32-4.25 5.55-1.66-.27-3.31-.57-4.96-.83z" fill="#b2e532"/><path fill="#e1b286" d="M144.27 66.39a6.4 6.4 0 0 1 3.9-.95c.51 1.46 1.02 2.92 1.54 4.38-.32-.14-.97-.41-1.3-.55-.09.66-.28 1.98-.37 2.64-.28-.48-.84-1.43-1.12-1.91-.37.15-1.1.46-1.46.61-.53-.25-1.58-.73-2.1-.98.27-1.09.57-2.17.91-3.24z"/><path fill="#8dc01e" opacity=".93" d="M122.92 80.18c3.73-2.78 7.65-5.34 10.83-8.77.75.08 2.25.25 3.01.34-.42 1.71-.88 3.41-1.46 5.07-.46-.1-1.38-.32-1.84-.43l-1.14-.27c-2.93 1.39-4.97 3.96-6.91 6.46-.66-.64-1.32-1.27-1.99-1.9l-.5-.5z"/><path d="M136.76 71.75c1.45.8 2.87 1.69 4.3 2.53-2.01.63-4.1 1.19-5.76 2.54.58-1.66 1.04-3.36 1.46-5.07zm-73.63 41.39c-.05-4.42-.24-9.69 2.59-13.33.07 3.43-.87 6.75-1.25 10.14 0 1.22-.46 2.33-1.34 3.19zm10.39-1.41c.67-.93 1.34-1.87 2.03-2.78.21.41.62 1.24.82 1.65 1.95 4.01 3.91 8.01 6.19 11.83-.02 1.91-.05 3.81-.07 5.72-.35.04-1.05.1-1.41.14-1.59.18-3.18.42-4.77.65.11.7.35 2.1.46 2.8-.92-1.18-1.28-2.66-1.84-4.02.73-.1 2.18-.28 2.91-.37.01-.88.01-1.75 0-2.62-2.72-1.43-2.45-4.67-3.36-7.18-.62-1.61-1.51-3.09-2.26-4.63 4.06 2.32 3.76 7.78 5.54 11.62 1.04-.03 3.13-.08 4.17-.11-.92-3.49-3.4-6.21-4.85-9.46-.6-1.61-2.29-2.28-3.56-3.24m5.8 13.48c-.24 1.13 1.25 2.89 2.35 1.72 1.16-1.42-1.32-3.06-2.35-1.72zm33.3-11.63c.69-.88 1.38-1.75 2.14-2.56 1.51 1.36-.03 3.54-1.6 4.03-.32 1.44-.58 2.91-1.06 4.31-1.51.12-2.16-1.52-3.22-2.27.6 1.47 1.56 2.69 2.96 3.49-1.04.76-2.24 1.05-3.6.85.46.4 1.36 1.21 1.82 1.61-1.27.16-2.54.31-3.8.46l1.23 1.23c-3.44.75-4.71 4.64-7.98 5.76-1.19.85-2.32-.49-3.24-1.07 1.44-1.44 2.7-3.05 3.75-4.79.41.54 1.23 1.63 1.64 2.18-.9-1.96-.47-3.27 1.28-3.93.15.49.44 1.46.59 1.95.32-2.11.64-4.22.84-6.35 2-2.14 4.36-3.88 7.04-5.06l1.21.16zm19.46 7.96c.34-.02 1.02-.05 1.36-.06-1.19 3.58.38 9.2-3.65 11.11.5-2.85.98-5.71 1.41-8.57.27-.84.56-1.66.88-2.48zm-10.77.88c.29.69.88 2.07 1.17 2.76-.55 2.24-1.18 4.46-1.87 6.66-4.29.83-8.28-1.72-12.51-1.2.33-.08.97-.24 1.29-.33 3.21.44 6.43.79 9.66.9.97-2.87 1.73-5.81 2.26-8.79z" fill="#395617"/><path fill="#41352a" opacity=".51" d="M152.8 73.31l.9.04.58.91-.37.85c-.28-.45-.83-1.35-1.11-1.8z"/><path fill="#bfd632" d="M125.41 82.58c1.94-2.5 3.98-5.07 6.91-6.46l1.14.27c-5.77 5.15-8.24 12.95-14.14 17.97-2.32 2.35-5.87.56-8.7.55l-1.39-.27c.94-.94 1.89-1.87 2.86-2.78 2.33-.14 3.88-1.86 5.33-3.47.94-.97 1.91-1.92 2.92-2.82 1.85-.7 3.65-1.57 5.07-2.99z"/><path fill="#816a55" opacity=".84" d="M155.16 75.8c.68 1.08 1.39 2.13 2.06 3.22l.64 1.93c-.5-.01-1.48-.05-1.97-.06-.59-1-1.07-2.05-1.44-3.14.17-.49.53-1.46.71-1.95z"/><path fill="#669d17" opacity=".91" d="M119.32 94.36c5.9-5.02 8.37-12.82 14.14-17.97.46.11 1.38.33 1.84.43-6.37 5.45-8.73 14.03-14.89 19.72-3.33-.09-6.58-.8-9.79-1.63 2.83.01 6.38 1.8 8.7-.55z"/><path d="M157.22 79.02c2.51 1.34 3.37 4.16 4.2 6.68l1.17-.44c.14.64.43 1.92.58 2.56l1.04-.19c1.02 1.96.92 5.13 3.35 5.93.33 2.02.85 4.08 2.91 4.97.53 1.72 1.07 3.43 1.7 5.12 1.42.36 2.87.71 4.13 1.49-2.16-.19-4.41-.08-6.45-.91.47-.24 1.43-.71 1.91-.95-.75-1.32-1.5-2.64-2.24-3.96l-.7.32c-.5-2.59-2.33-4.57-3.63-6.78-.58-1.42-1.14-2.84-1.74-4.24-1.01-.71-2.02-1.42-3.06-2.08-.2-1.05-.38-2.11-.56-3.16l-1.18 1.07c-.23-1.18-.46-2.35-.79-3.5l-.64-1.93zm-33.8 1.66c.67.63 1.33 1.26 1.99 1.9-1.42 1.42-3.22 2.29-5.07 2.99-.19.08-.58.23-.77.31 1.28-1.74 2.59-3.45 3.85-5.2zm-11.01 8.21c1.61-.65 3.29-1.16 5.01-.5-1.45 1.61-3 3.33-5.33 3.47-.97.91-1.92 1.84-2.86 2.78l-1.07-.2c2.04-1.23 4.79-2.68 4.25-5.55zm-43.18 3.63l.13-.01.72 2.65c.1.4.3 1.19.39 1.59.01.86.02 2.57.03 3.43-.86 3.19-1.44 6.56-3.18 9.42-.19-3.33.83-6.5 1.94-9.59.25-2.49.1-4.99-.03-7.49zm-22.6 7.44c-.33-1.98.87-3.58 2.33-4.75 1.48 1.26 3.56 2.47 3.58 4.68.39 2.13.29 5.87-2.64 5.94-2.99.12-3.25-3.68-3.27-5.87m2.48-1.79c-.52 1.68.02 2.22 1.61 1.62.53-1.67-.01-2.21-1.61-1.62zm73.91 10.13c.47-.62.95-1.23 1.44-1.83.54.14 1.62.42 2.15.56-3.03 1.99-6.43 4.06-7.62 7.72-.73-.08-2.21-.23-2.95-.3 1.52-1.94 3.02-3.9 4.42-5.94.64-.05 1.92-.15 2.56-.21zm36.17 8.85c2.99-1.53.12 3.33 0 0zm2.2 6.13l2.13-.88c-.13 1.37-.38 2.72-.49 4.09 0 .18.01.55.02.73-.16-.5-.47-1.51-.62-2.02-.48-.16-1.43-.48-1.9-.64l.86-1.28zm6.5 13.58c.72-.03 2.16-.1 2.88-.13-.37.42-1.11 1.25-1.48 1.67.48.34 1.45 1.02 1.93 1.37.56 1.28.39 4.62 2.54 3.65-2.3 1.52.62 4.43 1.63 6.11.93 2.13 1.82 4.29 2.4 6.56-.8-1.36-1.81-2.59-2.99-3.63.09-1.05.2-2.09.3-3.13l-1.22.76c-1.58-4.57-3.7-8.96-5.99-13.23z" fill="#2a1205"/><path fill="#98e53f" d="M137.69 90.65c.75-.34 1.5-.67 2.25-1 1.15.39 2.29.77 3.43 1.19.06.38.18 1.14.24 1.53-.02 1.23-.1 2.46-.18 3.7a49.35 49.35 0 0 1-1 3.75l-1.52-.1c-1.44-.75-2.8-1.65-4.16-2.53-1.77 4.59-6.48 6.94-10.14 9.84-.53-.14-1.61-.42-2.15-.56-.49.6-.97 1.21-1.44 1.83-.64.06-1.92.16-2.56.21-1.4 2.04-2.9 4-4.42 5.94.74.07 2.22.22 2.95.3-.69 1.61-1.59 3.13-2.72 4.47-3.72 4.56-7.44 9.39-12.73 12.22-3.38 2.14-7.46.69-11.18 1.33-1.99-1.07-4.1-1.86-6.18-2.73 1.2-.64 2.4-1.27 3.6-1.9.21-2.51-1.75-2.8-3.82-2.54.36-.17 1.08-.5 1.43-.66.47-.1 1.41-.29 1.87-.38 2.47-1.68 3.94-4.36 5.83-6.6 4.38-1.72 8.24-4.52 12.66-6.14 6.5-2.35 12.74-5.46 18.43-9.4 1.82-1.33 3.63-2.68 5.36-4.12 2.5-2.16 4.39-4.89 6.15-7.65m-25.07 22.93l-1.21-.16c-2.68 1.18-5.04 2.92-7.04 5.06-.2 2.13-.52 4.24-.84 6.35-.15-.49-.44-1.46-.59-1.95-1.75.66-2.18 1.97-1.28 3.93-.41-.55-1.23-1.64-1.64-2.18a25.164 25.164 0 0 1-3.75 4.79c.92.58 2.05 1.92 3.24 1.07 3.27-1.12 4.54-5.01 7.98-5.76l-1.23-1.23c1.26-.15 2.53-.3 3.8-.46-.46-.4-1.36-1.21-1.82-1.61 1.36.2 2.56-.09 3.6-.85-1.4-.8-2.36-2.02-2.96-3.49 1.06.75 1.71 2.39 3.22 2.27.48-1.4.74-2.87 1.06-4.31 1.57-.49 3.11-2.67 1.6-4.03-.76.81-1.45 1.68-2.14 2.56z"/><path fill="#5d6d37" opacity=".56" d="M67.99 91.88c5.07-.05 10.42-3.04 15.07.26 5.34-.12 10.95-.93 16.09 1.03-5.11-.54-10.29-1.12-15.39-.05-4.39-2.99-9.62-1.63-14.4-.61l-.13.01c-.89.1-2.68.29-3.57.39l-.55-.01c-.63-.05-1.9-.14-2.54-.18-.48 1.43-.89 2.88-1.3 4.33l-.06-.03c.1-1.55.2-3.11.31-4.66-1.9-.01-3.8-.02-5.7.04l2.38-.45c3.24-.44 6.52.13 9.79-.07z"/><g fill="#b2ff3b"><path d="M43.76 93.9c1.86-.55 3.16-2.25 5.06-2.66 3.14-.29 6.29.16 9.38.71l-2.38.45c-2.1.25-4.21.47-6.31.71 3.77 1.68 7.71 2.88 11.7 3.91l.06.03c2.66.99 5.31 2.01 7.99 2.96-1.11 3.09-2.13 6.26-1.94 9.59 1.74-2.86 2.32-6.23 3.18-9.42 4.44 1.88 9.31 1.71 13.93.62l-.79.67c-2.75 2.43-5.88 4.5-8.09 7.48-.69.91-1.36 1.85-2.03 2.78 1.27.96 2.96 1.63 3.56 3.24 1.45 3.25 3.93 5.97 4.85 9.46-1.04.03-3.13.08-4.17.11-1.78-3.84-1.48-9.3-5.54-11.62.75 1.54 1.64 3.02 2.26 4.63.91 2.51.64 5.75 3.36 7.18.01.87.01 1.74 0 2.62-.73.09-2.18.27-2.91.37-3.58-1.67-7.06-3.74-8.98-7.35-4.39 5.57-7.92 12.15-9.39 19.2-.97-.63-1.95-1.25-2.93-1.87.91-5.17 3.11-10.04 5.72-14.57.96-1.59 1.13-3.48 1.42-5.27.27-.31.8-.94 1.06-1.25-1.42-.51-2.85-1.03-4.29-1.5-.25-1.1-.48-2.21-.69-3.32-.45-3-1-5.99-1.68-8.95-1.43 3.94 1.07 8.48-1.32 12.06-3.41-1.8-6.64-3.92-9.69-6.28-.84-3.45-1.41-6.95-1.58-10.49.36-1.2.88-2.35 1.09-3.58l.09-.65m2.87 6.06c.02 2.19.28 5.99 3.27 5.87 2.93-.07 3.03-3.81 2.64-5.94-.02-2.21-2.1-3.42-3.58-4.68-1.46 1.17-2.66 2.77-2.33 4.75m16.5 13.18c.88-.86 1.34-1.97 1.34-3.19.38-3.39 1.32-6.71 1.25-10.14-2.83 3.64-2.64 8.91-2.59 13.33z"/><path d="M76.37 110.6c5.84 2.63 8.55 8.85 11.02 14.34-.35.16-1.07.49-1.43.66l-.72.35c-.1.85-.32 2.56-.42 3.41-.59-.3-1.75-.9-2.33-1.21.02-1.91.05-3.81.07-5.72-2.28-3.82-4.24-7.82-6.19-11.83zm6.72 3.6c3.98 1.29 7.99 2.53 12 3.76-1.89 2.24-3.36 4.92-5.83 6.6-1.94-3.52-3.86-7.07-6.17-10.36z"/></g><path fill="#cccc7f" d="M69.36 92.51c4.78-1.02 10.01-2.38 14.4.61 1.91.95 3.6 2.26 5.1 3.76-1.47 1.32-2.92 2.65-4.43 3.92-4.62 1.09-9.49 1.26-13.93-.62-.01-.86-.02-2.57-.03-3.43 5.44.45 12.2 3.85 16.77-.49-5.74-.12-11.5.01-17.16-1.1l-.72-2.65z"/><path fill="#dfdfae" d="M49.51 93.11c2.1-.24 4.21-.46 6.31-.71 1.9-.06 3.8-.05 5.7-.04-.11 1.55-.21 3.11-.31 4.66-3.99-1.03-7.93-2.23-11.7-3.91z"/><path fill="#d1d18b" d="M62.57 92.72c.64.04 1.91.13 2.54.18-.69 1.23-.79 3.07.51 3.96.49-1.32.5-2.63.04-3.95.89-.1 2.68-.29 3.57-.39.13 2.5.28 5 .03 7.49-2.68-.95-5.33-1.97-7.99-2.96.41-1.45.82-2.9 1.3-4.33z"/><path fill="#9d9d68" d="M65.11 92.9l.55.01c.46 1.32.45 2.63-.04 3.95-1.3-.89-1.2-2.73-.51-3.96z"/><path fill="#98b27f" d="M83.76 93.12c5.1-1.07 10.28-.49 15.39.05 1.35.13 2.7.25 4.05.44 1.65.26 3.3.56 4.96.83l1.07.2 1.39.27c3.21.83 6.46 1.54 9.79 1.63 3.75.31 7.43 1.15 11.13 1.76-1.73 1.44-3.54 2.79-5.36 4.12-14.18-.33-28.35-1.22-42.54-.95l.79-.67c1.51-1.27 2.96-2.6 4.43-3.92-1.5-1.5-3.19-2.81-5.1-3.76z"/><path fill="#d7d79c" d="M70.08 95.16c5.66 1.11 11.42.98 17.16 1.1-4.57 4.34-11.33.94-16.77.49-.09-.4-.29-1.19-.39-1.59z"/><path fill="#63aa16" d="M136.75 97.19c1.36.88 2.72 1.78 4.16 2.53l.51.26c-2.82-.96-5.19.43-7.02 2.48-6.05 5.34-11.43 11.35-16.63 17.51-2.97 3.3-5.83 6.71-8.38 10.34-.32.09-.96.25-1.29.33-1.78 1.15-3.44 2.63-5.54 3.17-3.4.65-7.27 1.33-10.2-1.04 3.72-.64 7.8.81 11.18-1.33 5.29-2.83 9.01-7.66 12.73-12.22 1.13-1.34 2.03-2.86 2.72-4.47 1.19-3.66 4.59-5.73 7.62-7.72 3.66-2.9 8.37-5.25 10.14-9.84z"/><path fill="#6e9f24" opacity=".85" d="M41.28 97.26l1.3.87c.17 3.54.74 7.04 1.58 10.49 3.05 2.36 6.28 4.48 9.69 6.28 2.39-3.58-.11-8.12 1.32-12.06.68 2.96 1.23 5.95 1.68 8.95.04.45.13 1.33.18 1.77-.44.22-1.31.64-1.75.85.48-.01 1.44-.04 1.92-.05.04 3.69-3.91 4.76-6.89 4.17 1.16-.61 2.72-.88 3.07-2.35-1.88-2.05-4.68-2.35-7.3-2.44-3.7-4.66-3.35-10.98-4.8-16.48z"/><path fill="#867567" d="M49.11 98.17c1.6-.59 2.14-.05 1.61 1.62-1.59.6-2.13.06-1.61-1.62z"/><path fill="#91ae76" d="M134.4 102.46c1.83-2.05 4.2-3.44 7.02-2.48 1.84.32 3.69.59 5.54.88l1 2.49c-4.53-.08-9.06-.33-13.56-.89z"/><path d="M75.55 108.95c2.21-2.98 5.34-5.05 8.09-7.48 14.19-.27 28.36.62 42.54.95-5.69 3.94-11.93 7.05-18.43 9.4-4.42 1.62-8.28 4.42-12.66 6.14-4.01-1.23-8.02-2.47-12-3.76 2.31 3.29 4.23 6.84 6.17 10.36-.46.09-1.4.28-1.87.38-2.47-5.49-5.18-11.71-11.02-14.34-.2-.41-.61-1.24-.82-1.65zm42.22 11.02c5.2-6.16 10.58-12.17 16.63-17.51 4.5.56 9.03.81 13.56.89 2.9 7.28 6.44 14.27 9.98 21.25-1.76-.09-3.52-.17-5.28-.25-.39 2.64-.59 5.39-1.8 7.82.34-2.64.59-5.29.71-7.95-.36-.12-1.09-.36-1.46-.47-2.12-.31-4.27-.4-6.41-.51-.46 3.35-1 6.68-1.38 10.04l-.54-.57c-.34-.36-1.04-1.09-1.39-1.46.22-2.99.42-5.99.58-8.99-1.33-.21-2.66-.4-3.99-.55-1.18-.12-2.36-.21-3.54-.23-.34.01-1.02.04-1.36.06-.32.82-.61 1.64-.88 2.48.07-.63.19-1.89.26-2.51-2.48-1.05-5.21-.94-7.84-1.05-.38 1.57-.75 3.15-1.14 4.72-.29-.69-.88-2.07-1.17-2.76l.04-1.72c-1.2-.24-2.39-.48-3.58-.73zm44.89-16.82c1.83.27 3.66.57 5.51.67.42.1 1.26.31 1.68.41 2.04.83 4.29.72 6.45.91 6.47.88 13.6 2.18 18.14 7.33 1.87 1.9 4.14 4.83 2.44 7.52-2.75 5-8.88 6.39-14.11 6.93-.27.4-.81 1.2-1.09 1.6-2.35 1.26-4.85 2.21-7.47 2.72 2.06-.83 3.84-2.18 5.27-3.88-5.45-.65-10.96-1.35-16.45-.87.11-1.37.36-2.72.49-4.09l-2.13.88c-2.45-3.31-4.2-7.07-5.36-11.01 1.24-.28 1.75-.95 1.52-2.02-1.05-.41-1.9-.09-2.54.94-1.23-1.9-2.14-4.02-2.61-6.24.33-.36.99-1.09 1.33-1.46 2.98.12 5.96-.03 8.93-.34m-3.47 14c.12 3.33 2.99-1.53 0 0z" fill="#4c8233"/><path fill="#334922" d="M155.01 111.19c.64-1.03 1.49-1.35 2.54-.94.23 1.07-.28 1.74-1.52 2.02-.25-.27-.77-.81-1.02-1.08z"/><path fill="#a7f037" opacity=".95" d="M46.08 113.74c2.62.09 5.42.39 7.3 2.44-.35 1.47-1.91 1.74-3.07 2.35-1.45-1.55-2.91-3.12-4.23-4.79z"/><path d="M109.39 130.31c2.55-3.63 5.41-7.04 8.38-10.34 1.19.25 2.38.49 3.58.73l-.04 1.72c-.53 2.98-1.29 5.92-2.26 8.79-3.23-.11-6.45-.46-9.66-.9zm15.2-9.01c2.29.12 4.58.19 6.87.21-.07.62-.19 1.88-.26 2.51-.43 2.86-.91 5.72-1.41 8.57-2.59.07-5.16-.28-7.72-.68a77.19 77.19 0 0 0 2.52-10.61zm10.74.92c.41-.13 1.24-.38 1.65-.51 1.33.15 2.66.34 3.99.55-.16 3-.36 6-.58 8.99.35.37 1.05 1.1 1.39 1.46-2.9.58-5.85 1.02-8.78.32.73-3.61 1.35-7.26 2.33-10.81zm8.37 1.02c2.14.11 4.29.2 6.41.51-.23 3.16-.44 6.33-.48 9.51l1.23-1.09c1.21-2.43 1.41-5.18 1.8-7.82 1.76.08 3.52.16 5.28.25 1.22 2.44 2.36 4.93 3.5 7.4-2.04.94-4.18 1.69-6.46 1.44-4.22-.32-8.47.49-12.66-.16.38-3.36.92-6.69 1.38-10.04zm19.33 3.25c5.49-.48 11 .22 16.45.87-1.43 1.7-3.21 3.05-5.27 3.88-2.92.49-5.85 1.39-8.83 1.14l-.97-.85c.14-.32.42-.95.56-1.26.13-.51.38-1.53.5-2.03-.38-.08-1.15-.22-1.54-.3l-.88-.72c-.01-.18-.02-.55-.02-.73z" fill="#e8e63d"/><path d="M123.62 120.46c2.63.11 5.36 0 7.84 1.05-2.29-.02-4.58-.09-6.87-.21a77.19 77.19 0 0 1-2.52 10.61c2.56.4 5.13.75 7.72.68 4.03-1.91 2.46-7.53 3.65-11.11 1.18.02 2.36.11 3.54.23-.41.13-1.24.38-1.65.51-.98 3.55-1.6 7.2-2.33 10.81-.75-.09-2.26-.27-3.02-.37-2.99 1.65-6.29-.42-9.37-.82.69-2.2 1.32-4.42 1.87-6.66.39-1.57.76-3.15 1.14-4.72zm-47.31 8.48c1.59-.23 3.18-.47 4.77-.65 3.2 3.29 8.28 3.55 11.58 6.8-.8.63-1.61 1.25-2.42 1.88-.47.35-1.42 1.06-1.9 1.42-1.11-.72-2.21-1.44-3.31-2.16-2.4-2.11-6.13-2.28-8.26-4.49-.11-.7-.35-2.1-.46-2.8z" fill="#99e52c"/><path fill="#3e6215" d="M150.11 123.75c.37.11 1.1.35 1.46.47a96.17 96.17 0 0 1-.71 7.95l-1.23 1.09c.04-3.18.25-6.35.48-9.51z"/><path fill="#4b9800" d="M79.32 125.21c1.03-1.34 3.51.3 2.35 1.72-1.1 1.17-2.59-.59-2.35-1.72z"/><path fill="#5eab0c" d="M85.24 125.95l.72-.35c2.07-.26 4.03.03 3.82 2.54-1.2.63-2.4 1.26-3.6 1.9l-1.36-.68c.1-.85.32-2.56.42-3.41z"/><path fill="#597d1e" opacity=".54" d="M81.08 128.29c.36-.04 1.06-.1 1.41-.14.58.31 1.74.91 2.33 1.21l1.36.68c2.08.87 4.19 1.66 6.18 2.73 2.93 2.37 6.8 1.69 10.2 1.04l.08.63c-3.31.33-6.68.68-9.95-.1.38 1.53.64 3.09.78 4.66l-.32-.87c-.22-.54-.64-1.64-.85-2.19-.52.26-1.55.77-2.06 1.03.81-.63 1.62-1.25 2.42-1.88-3.3-3.25-8.38-3.51-11.58-6.8z"/><path fill="#978d3d" d="M163.93 127.94c.39.08 1.16.22 1.54.3-.12.5-.37 1.52-.5 2.03-1.46.38-2.39-1.52-1.04-2.33z"/><path d="M85.03 136.23c1.1.72 2.2 1.44 3.31 2.16.48-.36 1.43-1.07 1.9-1.42.51-.26 1.54-.77 2.06-1.03.21.55.63 1.65.85 2.19-2.84 7.4-8.35 14.09-8.89 22.2-.6 1.69-1.25 3.36-1.92 5.02-1.1-.57-2.19-1.14-3.29-1.69 4.7-7.59 4.61-16.93 8.81-24.74-1.47-.16-2.65-1.2-2.83-2.69zm-5.51 29.58c.97-.06 1.93-.12 2.89-.19-1.9 1.82-.85 4.8-1.89 7.07-.52-.08-1.58-.24-2.11-.32-.48-2.27.34-4.46 1.11-6.56z" fill="#d8cc7f"/><path fill="#d6ca7e" d="M53.63 137.7c.98.62 1.96 1.24 2.93 1.87-3.99 7.56-3.23 16.44-5.33 24.54-4.02 1.22-6.49 5.28-7.98 8.95-.82-.87-2.51-1.65-1.96-3.11 1.69-3.61 7.47-4.42 7.27-9.09.11-8.02 4.13-15.33 5.07-23.16z"/></svg>