<svg width="256pt" height="256pt" viewBox="0 0 256 256" xmlns="http://www.w3.org/2000/svg"><g fill="#010101"><path d="M227.27 51.28c5.55-3.21 10.7-7.85 17.24-8.73-5.4 4.98-11.58 9.46-14.68 16.38 5.09-1.9 10.23-4.39 15.83-3.67-4.92 4.53-11.1 8.08-14.12 14.34-2.92 6.43-5.19 13.33-5.87 20.37 2.06 11.75 2.82 24.41-2.11 35.59-5.49 13.89-16.26 26.14-30.4 31.53-8.69 3.8-18.36 5.48-26.22 11.08-4.83 3.53-9.75 7.94-11.34 13.92.94 3.14 3.2 5.65 5 8.33 3.84 5.11 7.42 10.42 11.52 15.34 7.89 2.44 16.16-2.11 23.95 1.07 3.48 1.23 5.47 4.78 5.45 8.37-1.61-.86-3.15-1.83-4.69-2.77-.08 1.45-.13 2.91-.2 4.36-3.39-2.67-7.12-4.91-11.34-5.97.88 1.78 1.81 3.54 2.75 5.3-4.48-1.91-9.12-3.59-13.96-4.26-4.46-.67-8.74 1.22-13.16 1.33-3.5.25-6.89-.81-10.24-1.66-3.41-.91-6.94-.25-10.41-.17.58-1.64.63-3.85 2.46-4.66 4.1-2.2 8.93-1.06 13.34-.82-6.2-6.77-11.87-14.1-19.08-19.85-5.01-5.26-10.21-10.42-15.98-14.84-13.39 3.17-28.1 5.81-41.36.71.48-4.72 6.27-4.12 9.51-5.92.71-1.2 1.38-2.54 2.79-3.04 3.98-2.41 8.46-3.69 12.97-4.67-2.04-3.59-5.29-6.31-7.53-9.78-4.93-7.26-13.08-11.05-19.92-16.17-15.32-10.21-30.34-20.86-45.6-31.16-2.7-1.94-5.64-3.61-8.02-5.97-1.68-1.5-.57-3.99-.72-5.94-1.93-1.87-3.99-3.68-5.43-5.98-.43-1.55 0-3.21-.17-4.8-2.32-3.75-6.24-6.81-6.87-11.42a42.6 42.6 0 0 1 2.24-2.6c-1.63-2.76-3.81-5.29-4.76-8.39.07-2.64 3.65-2.05 5.43-1.79 3.42.2 5.67 2.99 8.06 5.08 8.18 7.51 16.86 14.45 25.31 21.64 13.24 10.18 26.82 19.89 40.25 29.82 5.22 4.04 10.88 7.59 16.97 10.16 6.62 2.12 13.72 3.32 20.67 2.44 7.29-.94 12.37-6.79 18.77-9.79 9.82-4.84 19.07-10.71 28.12-16.85 4.01-2.71 7.2-6.56 9.32-10.9 1.94-3.99 2.45-8.49 4.35-12.49 2.65-5.9 4.77-12.52 10.05-16.66 6.09-4.85 13.44-9.21 21.52-8.68 3.71-.12 7.14 1.49 10.31 3.24m-.78 8.1c-.64 1.75-1.72 3.26-3.17 4.44-.4.99-.8 1.99-1.19 2.98.79 1.87 1.58 3.75 2.25 5.67-1.61-1.27-3.11-2.66-4.71-3.93.36 2.72 2.26 5.09 1.95 7.91-1.71-2.14-2.92-4.69-5.05-6.47.21 2.92 1.87 5.34 3.11 7.89-3.76-1.11-3.5-6.07-6.75-7.44-.93 1.46-.97 3.59-2.45 4.63-4.22-3.34-4.44-9.25-3.46-14.11.86-3.62 4.06-6.93 7.96-6.91 2.43-.33 4.6.96 6.72 1.92 1.33-1.33 2.68-2.65 4.03-3.96-4.89-2.34-10.69-3.2-15.86-1.25-5.48 2.04-10.63 5.13-14.88 9.16-3.93 3.55-5.36 8.81-7.56 13.43-2.9 5.82-3.34 12.67-7.25 18-2.3 3.63-5.96 6.05-9.48 8.38-8.43 5.77-17.27 10.97-26.45 15.46-4.99 2.54-9.23 6.34-14.3 8.71-6.12 2.03-12.74 1.39-19.04.69-7.53-.87-14.13-4.91-20.37-8.93-14.04-10.33-28.12-20.6-42.09-31.02-10.35-8.65-20.9-17.09-30.72-26.34-2.03-2.25-5.16-2.3-7.95-2.53 2.42 3.7 4.18 8.04 7.72 10.85 27.53 20.07 54.98 40.26 82.51 60.33 1.5.96 2.68 2.31 3.02 4.11-1.36-.66-2.68-1.38-3.92-2.24-25.22-18.42-50.41-36.88-75.6-55.34-3.52-2.5-6.76-5.54-10.89-7.03C14.45 73 19.5 78.27 25.13 81.85c24.15 16.85 48.24 33.78 72.38 50.66 1.73 1.41 4.81 2.43 3.97 5.25-25.84-18.29-51.87-36.32-77.71-54.61-1.65-1.19-3.47-2.11-5.31-2.94 1.52 4.77 5.64 7.96 9.57 10.73 21.03 14.35 42 28.81 62.98 43.23 2.87 2.1 6.37 3.62 8.23 6.81-2.24-.7-4.38-1.7-6.28-3.09-18.07-12.6-36.32-24.94-54.32-37.63-4.77-3.21-9.34-6.75-14.33-9.62-.18 4.02 3.75 5.68 6.5 7.68 18.55 12.28 36.78 25.02 55.22 37.47 2.79 1.89 5.62 3.75 8.09 6.07 5.05 4.67 8.18 11.1 13.46 15.53 2.34.55 4.83-.62 7.2-.87.88-3.58 2.53-8.87-1.35-11.21.09-1.34.41-2.69.24-4.04-.8-1.4-2.43-2.62-1.97-4.43 1.91-3.56 5.85-5.41 9.48-6.72 6.71-1.84 13.77-2.78 20.72-2 1.88-.93 3.82-1.74 5.79-2.46-.33 1.48-.99 2.93-.94 4.47 3.96 1.45 8.29 1.22 12.41.65-.51-.45-1.52-1.34-2.03-1.78.43-2.51 2.15-4.34 3.93-6-.15 2.37.82 4.23 3.15 4.97 1.1-1.04 2.22-2.07 3.37-3.06-.38 1.21-.77 2.42-1.19 3.62.18.59.54 1.78.72 2.38 2.11 2.15 4.69-.48 6.65-1.5-.32 1.66-.61 3.32-.88 4.98 3.85.75 7.33-1.17 10.15-3.61-.18 1.45-.2 2.89-.07 4.33-.3-.15-.91-.45-1.22-.6.19 1.07.56 3.22.75 4.29 2.54 1.4 5.65.9 7.97-.73-1.75-.11-3.51-.21-5.26-.28-.31-.45-.95-1.34-1.27-1.78 1.69.22 3.4.37 5.1.29 2.97-.81 4.88-3.46 7.04-5.46-.38 1.84-.76 3.68-1.11 5.54 6.01-.09 9.45-6.35 9.06-11.76.39-3.12.43-6.27.34-9.4.44-.38 1.32-1.13 1.76-1.51.4 5.14-.42 10.22-.98 15.31-1.02 6.08-4.75 11.17-7.97 16.25a49.017 49.017 0 0 1-12.96 9.89c-6.52 5.58-15.46 5.53-23.28 7.88-7.68 5.79-17.93 3.16-26.78 5.01-4.03-2.17-8.7-1.99-13.07-2.85-4.88-.8-9.47-2.99-14.48-3.04 3.61 3.29 8.57 4.02 13 5.63-6.37 1.11-12.62-.89-18.91-1.6 4.66 3.44 10.76 3.73 16.28 2.79 3.34-.46 6.93-2.22 10.03.03-1.08.12-3.24.35-4.32.47 3.29 3.85 7.33 6.94 11.03 10.37 3.95-1.64 7.96.68 11.76 1.66 2.15-7.47 9.28-11.99 15.95-15.04 9.74-2.8 19.18-6.51 28.68-10.02 13.24-4.95 24.18-15.19 30.73-27.63 4.54-7.76 5.74-17.04 5.14-25.89.2-5.93-2.96-11.61-1.39-17.54l.34-.16c1.59-5.97 2.71-12.08 5.04-17.83-1.72-.73-3.39-1.6-4.72-2.93a89 89 0 0 1 3.22-1.23c3.93-2.02 7.96-3.83 11.75-6.11-4.22 1.77-9.25 2.54-12.36 6.18-.4-.46-.8-.94-1.19-1.42 2.3-4.84 5.27-9.27 8.66-13.41-4.13 2.46-7.03 6.52-8.83 10.9m-15.54-1.41c-2.94 3.7-2.78 8.94-1.07 13.14 1.74-5.61 4.83-10.56 8.6-15.03-2.53.29-5.61-.2-7.53 1.89m6.81 2.77c-.58.8-1.74 2.38-2.31 3.17 1.2.2 2.98.68 3.45-.95-.36-.75-.74-1.49-1.14-2.22m-3.47 4.79c-.33 1.15-.66 2.31-.98 3.47 2.48.15 4.88-.44 6.83-2.02-2-.27-3.96-.74-5.85-1.45m-55.54 61.18c-.22 3.15 2.69 3.87 5.2 3.38-1.71-1.16-3.42-2.33-5.2-3.38m-40.98 7.17c-1.89.85-3.08 2.59-4.21 4.24 4.92-1.79 9.41-4.59 14.4-6.2 3.97-1.45 8.31-1.07 12.33-2.3-7.7-.68-15.62.75-22.52 4.26m23.74-.84c3.17.43 6.37.27 9.51-.34-2.56-.46-5.02-1.31-6.87-3.21-1.81-1.08-1.86 2.58-2.64 3.55m23.35 1.11c1.47 1.17 3.33.39 4.95.06-1.75-.95-3.45-2-5-3.24-.24 1.06-.83 2.23.05 3.18m-43.21 3.49c6.72.25 14.18 1.21 20.19-2.46-.9-1.17-1.77-2.36-2.79-3.43-6.11.54-12.42 2.15-17.4 5.89m39.45-5.37c-1.77.35-1.18 3.33.63 2.71 1.74-.37 1.15-3.3-.63-2.71m-14.72 3.13c-1.65.61-3.26 3.32-1.19 4.42 4.15 2.75 9.56 1.26 13.96-.13-1.35-.34-2.69-.67-4.02-1 .18-1.54.37-3.07.56-4.6-3.11.36-6.28.44-9.31 1.31m10.14 2.02c1.03.91 2.15.12 3.21-.28-.43-1.18-.86-2.35-1.3-3.51-.76 1.19-1.66 2.36-1.91 3.79m14.13-3.12c.83 4.66 6.87 4.56 9.45 1.47-3.29.82-6.67.61-9.45-1.47m-29.95 5.76c.33 1.97 2.84 1.96 4.28 2.73-1.36-2.05-2.19-4.32-2.53-6.75-.63 1.31-1.58 2.55-1.75 4.02m21.74-3.8c-.54 1.46-1.21 2.89-1.4 4.46 2.42.44 3.18-.86 2.22-3.31 1.25-.05 2.53.05 3.72-.41-1.49-.36-3.01-.61-4.54-.74m3.08 8.33c1.18.9 2.84-.14 4.21-.11-1.36-2.28-1.47-4.89-1.23-7.47-1.24 2.4-3.1 4.73-2.98 7.58m27.11-7.27c.49 1.14.65 2.76 2.25 2.8 2.35.88 4.07-1.37 5.59-2.74-2.6.75-5.28.8-7.84-.06m-78.19 3.52c5.24.32 10.52.03 15.75.6-2.24.34-4.48.64-6.71 1.02.91 1.09 2.08 1.87 3.56 1.79 4.33.47 8.66-.27 12.91-1.04-.3-1.14-.59-2.27-.89-3.41-2.74.59-5.53.9-8.33.97 1.57-.45 3.14-.9 4.71-1.34-5.58-1.15-11.54.85-16.84-1.67-1.42.99-2.81 2.01-4.16 3.08m55.29-2.8c.12 2.09.38 4.25 2.08 5.71.55-1.61 1.07-3.22 1.58-4.83-1.22-.3-2.44-.6-3.66-.88m6.17 4.02c-.15 1.34-.97 4.01.92 4.41 2.17-2.58 3.66-5.67 4.61-8.89-2.05 1.1-4.93 1.87-5.53 4.48m14.17-2.08l-.06 4.13c2.54.26 5.05-.13 7.28-1.41-2.39-.96-4.8-1.85-7.22-2.72m-7.57 10.4c1.4-3.1 2.61-6.29 3.58-9.55-4.81-.25-7.24 6.61-3.58 9.55m-67.01-5.33c2.52.2 5.05.3 7.58.36-.53-1-1.06-2-1.58-2.99-2.31.17-5.05-.02-6 2.63m32.84-.5c4.28 3.77 10.44 1.81 15.48 1.18-.11-1.14-.23-2.28-.34-3.42-5.17-.5-10.18 1.02-15.14 2.24m24.64 2.55c-.75 1.87 1.53 1.67 2.62 1.51-.4-1.97-1.09-3.86-1.6-5.8-.39 1.42-.8 2.83-1.02 4.29m13.96-4.55c.18.91.52 2.74.69 3.65l-1.72-.42c.69 1.31.67 3.43 2.42 3.88 1.74-.6 3.18-1.8 4.74-2.75.29 0 .87-.01 1.16-.02-1.66-.74-3.37-1.35-5.08-1.98-.72-.8-1.46-1.59-2.21-2.36m-60.43 3.69c5.38 6.22 14.39 5.07 21.74 6.39-1.21-3.82-6.93-3.56-6.58-8.2-4.97 1.22-10.08 1.42-15.16 1.81m17.6.6c1.59.71 3.31 1.03 4.98 1.48a24.62 24.62 0 0 1-3.22-4.18c-.92.7-2.2 1.28-1.76 2.7m11.5 3.79c5.06 1.57 10.4 1.02 15.38-.52-.05-1.35-.09-2.69-.14-4.03-5.06 1.59-10.33 2.48-15.24 4.55m-39.15-3.24c3.32 3.26 8.1 3.96 12.56 3.75-1.5-1.26-3-2.52-4.48-3.8-2.69-.07-5.39-.08-8.08.05m61.76-.83c-.29 1.38-.56 2.77-.83 4.15 1.16.09 2.32.18 3.49.28-.9-1.47-1.78-2.95-2.66-4.43m6.01 2.25c-.07 1.23-.14 2.47-.19 3.7 1.09-.33 2.19-.66 3.29-.99-1.04-.9-2.07-1.81-3.1-2.71m-35.57 1.77c2.36 2.02 5.42 2.37 8.42 2.41-1.43-.96-2.84-1.95-4.17-3.04-1.42.19-2.84.4-4.25.63m12.4 3.8c-2.47.4-4.21 2.35-6.03 3.88 3.86 2.57 8.79 1.59 12.95.4 3.1-1.76 5.32-4.7 7.75-7.23-4.95.65-9.77 2.03-14.67 2.95m-42.28-2.96c4.06 3.74 9.72 5.15 15.05 5.89-4.1-3.74-9.55-5.64-15.05-5.89m57.98 5.84c2.35-1.05 6.23-1.97 5.54-5.38-3.2-.13-4.95 2.61-5.54 5.38m-47.1-4.01c5.56 4.1 12.5 5.91 19.36 5.51 1.9-.95 2.96-2.94 4.27-4.52-7.9.38-15.75-.51-23.63-.99m-12.99.86c.98 1.6 2.39 2.85 4.32 3.04 9.36 1.94 18.85 4.15 28.48 3.61-6.71-1.41-13.7-.9-20.3-2.97-4.27-.9-8.06-3.49-12.5-3.68m54.47 4.58c1.2-.18 2.4-.37 3.59-.57.37-1.35.77-2.7 1.15-4.05-1.63 1.49-3.23 3.01-4.74 4.62m-20.51 1.91c2.03.31 4.06.68 6.08 1.06-1.82-1.04-3.13-2.49-3.23-4.7-.94 1.22-1.9 2.42-2.85 3.64m-40.53-1.3c.08.26.25.78.33 1.04 2.96 1.27 6.16 1.81 9.27 2.59-.32-1.63-.64-3.26-.95-4.89-2.91.19-5.9.2-8.65 1.26m10.64-.15c1.18 4.48 6.33 5.04 10.17 5.8 8.89 1 18.03.69 26.74-1.41-4.79-1.36-9.79-.46-14.69-.83-7.52-.36-14.87-2.07-22.22-3.56m-23.23 3.58c3.46 1.33 7.04 2.31 10.56 3.45-.92-.85-1.88-1.65-2.71-2.6-.02-1.24.16-2.47.28-3.7-2.83.58-5.6 1.46-8.13 2.85m-6.35 2.99c3.03 1.57 6.32 2.49 9.7 2.88-1.57-1.86-2.94-4.77-5.78-4.74-1.59-.26-2.71 1.13-3.92 1.86m-8.58 5.19c3.28.85 6.61 1.49 9.95 2.1-1.16-1.66-1.47-3.45.06-5.03-3.62-.79-6.84 1.58-10.01 2.93m65.56 10.94c4.28 5.07 8.59 10.13 12.56 15.46 2.54 3.21 4.83 6.73 8.24 9.11-4.45-7.53-10.38-14.07-14.88-21.56-1.57-2.49-.28-5.5.99-7.81 2.29-4.28 6.7-6.64 10.09-9.91-6.77 3.04-15.03 6.84-17 14.71m-55.35-11.82c1.06 2.42 3.96 2.61 6.25 2.65 5.14 0 10.29-.47 15.37-1.28-4.4-.95-8.93-.71-13.37-1.36-2.73-.29-5.58-1.08-8.25-.01m43.49 11.58c3.16 4.2 7.76 6.97 11.08 11.03 4.45 5.27 9.51 10.02 13.62 15.57-5.89.44-11.91-1.68-17.65.32 7.73-.03 15.18 3.71 22.94 1.83 6.37-1.79 12.65.69 18.72 2.41-5.73-5.3-13.82-4.86-21.04-4.39-4.71-5.06-9.67-9.91-13.93-15.37-2.29-2.84-3.68-6.26-5.9-9.13-2.27-1.57-5.21-1.69-7.84-2.27m11.64 3.3c3.38 7.16 8.76 13.36 14.69 18.53-4.47-6.48-9.56-12.56-14.69-18.53m33.93 23.23c4.74.94 9.21 2.74 13.6 4.72-1.29-1.54-2.87-2.8-4.47-4 2.98.45 5.81 1.5 8.49 2.85-3.63-6.03-11.78-4.6-17.62-3.57z"/><path d="M192.43 82.14c.06-7.11 3.99-14.61 11.31-16.41-3.41 3.86-7.87 7.08-9.33 12.29.61-.37 1.83-1.1 2.44-1.47.19 2.05.4 4.1.65 6.15.52-.68 1.56-2.03 2.07-2.71.54 2.17 1.11 4.33 1.7 6.48.41-1.2.81-2.41 1.21-3.62.53.93 1.06 1.87 1.6 2.8l1.53-.52c3.7 2.93 8.18 4.44 12.47 6.28l.4 2.01c-.47-.17-1.4-.5-1.87-.67-3.42-1.33-6.76-2.86-9.94-4.71-.36.25-1.07.74-1.43.98-.68-.77-1.35-1.54-2.03-2.31-.22.7-.68 2.1-.9 2.8-1.21-1.81-2.38-3.65-3.52-5.5-.43.75-1.29 2.25-1.72 3.01-.52-2.6-.94-5.21-1.33-7.82-1.1.99-2.2 1.96-3.31 2.94z"/></g><path fill="#b7aba5" d="M226.49 59.38c1.8-4.38 4.7-8.44 8.83-10.9-3.39 4.14-6.36 8.57-8.66 13.41.39.48.79.96 1.19 1.42 3.11-3.64 8.14-4.41 12.36-6.18-3.79 2.28-7.82 4.09-11.75 6.11a89 89 0 0 0-3.22 1.23c1.33 1.33 3 2.2 4.72 2.93-2.33 5.75-3.45 11.86-5.04 17.83l-.34.16c-2.88 1.09-5.45 3.01-6.5 6.02-4.29-1.84-8.77-3.35-12.47-6.28l-1.53.52c-.54-.93-1.07-1.87-1.6-2.8-.4 1.21-.8 2.42-1.21 3.62-.59-2.15-1.16-4.31-1.7-6.48-.51.68-1.55 2.03-2.07 2.71-.25-2.05-.46-4.1-.65-6.15-.61.37-1.83 1.1-2.44 1.47 1.46-5.21 5.92-8.43 9.33-12.29-7.32 1.8-11.25 9.3-11.31 16.41 1.11-.98 2.21-1.95 3.31-2.94.39 2.61.81 5.22 1.33 7.82.43-.76 1.29-2.26 1.72-3.01 1.14 1.85 2.31 3.69 3.52 5.5.22-.7.68-2.1.9-2.8.68.77 1.35 1.54 2.03 2.31.36-.24 1.07-.73 1.43-.98 3.18 1.85 6.52 3.38 9.94 4.71-7.96 3.64-10.49 12.9-10.49 20.96-.44.38-1.32 1.13-1.76 1.51.09 3.13.05 6.28-.34 9.4-.96-2.33-2.07-4.66-3.83-6.51-4 2.75-6.82 7.85-12.19 8.03-7.25.54-14.26 3.2-21.61 2.39.42-1.2.81-2.41 1.19-3.62-1.15.99-2.27 2.02-3.37 3.06-2.33-.74-3.3-2.6-3.15-4.97-1.78 1.66-3.5 3.49-3.93 6 .51.44 1.52 1.33 2.03 1.78-4.12.57-8.45.8-12.41-.65-.05-1.54.61-2.99.94-4.47-1.97.72-3.91 1.53-5.79 2.46-6.95-.78-14.01.16-20.72 2-3.63 1.31-7.57 3.16-9.48 6.72-.46 1.81 1.17 3.03 1.97 4.43.17 1.35-.15 2.7-.24 4.04-4.19-2.18-8.33-4.49-11.95-7.55.84-2.82-2.24-3.84-3.97-5.25-24.14-16.88-48.23-33.81-72.38-50.66C19.5 78.27 14.45 73 12.62 66.44c4.13 1.49 7.37 4.53 10.89 7.03 25.19 18.46 50.38 36.92 75.6 55.34 1.24.86 2.56 1.58 3.92 2.24-.34-1.8-1.52-3.15-3.02-4.11-27.53-20.07-54.98-40.26-82.51-60.33-3.54-2.81-5.3-7.15-7.72-10.85 2.79.23 5.92.28 7.95 2.53 9.82 9.25 20.37 17.69 30.72 26.34 13.97 10.42 28.05 20.69 42.09 31.02 6.24 4.02 12.84 8.06 20.37 8.93 6.3.7 12.92 1.34 19.04-.69 5.07-2.37 9.31-6.17 14.3-8.71 9.18-4.49 18.02-9.69 26.45-15.46 3.52-2.33 7.18-4.75 9.48-8.38 3.91-5.33 4.35-12.18 7.25-18 2.2-4.62 3.63-9.88 7.56-13.43 4.25-4.03 9.4-7.12 14.88-9.16 5.17-1.95 10.97-1.09 15.86 1.25-1.35 1.31-2.7 2.63-4.03 3.96-2.12-.96-4.29-2.25-6.72-1.92-3.9-.02-7.1 3.29-7.96 6.91-.98 4.86-.76 10.77 3.46 14.11 1.48-1.04 1.52-3.17 2.45-4.63 3.25 1.37 2.99 6.33 6.75 7.44-1.24-2.55-2.9-4.97-3.11-7.89 2.13 1.78 3.34 4.33 5.05 6.47.31-2.82-1.59-5.19-1.95-7.91 1.6 1.27 3.1 2.66 4.71 3.93-.67-1.92-1.46-3.8-2.25-5.67.39-.99.79-1.99 1.19-2.98 1.45-1.18 2.53-2.69 3.17-4.44z"/><g fill="#6b6562"><path d="M210.95 57.97c1.92-2.09 5-1.6 7.53-1.89-3.77 4.47-6.86 9.42-8.6 15.03-1.71-4.2-1.87-9.44 1.07-13.14zM18.46 80.21c1.84.83 3.66 1.75 5.31 2.94 25.84 18.29 51.87 36.32 77.71 54.61 3.62 3.06 7.76 5.37 11.95 7.55 3.88 2.34 2.23 7.63 1.35 11.21-2.37.25-4.86 1.42-7.2.87-5.28-4.43-8.41-10.86-13.46-15.53-2.47-2.32-5.3-4.18-8.09-6.07-18.44-12.45-36.67-25.19-55.22-37.47-2.75-2-6.68-3.66-6.5-7.68 4.99 2.87 9.56 6.41 14.33 9.62 18 12.69 36.25 25.03 54.32 37.63 1.9 1.39 4.04 2.39 6.28 3.09-1.86-3.19-5.36-4.71-8.23-6.81-20.98-14.42-41.95-28.88-62.98-43.23-3.93-2.77-8.05-5.96-9.57-10.73zM188 126.14c5.37-.18 8.19-5.28 12.19-8.03 1.76 1.85 2.87 4.18 3.83 6.51.39 5.41-3.05 11.67-9.06 11.76.35-1.86.73-3.7 1.11-5.54-2.16 2-4.07 4.65-7.04 5.46-1.7.08-3.41-.07-5.1-.29-.24-.22-.73-.67-.97-.9-.13-1.44-.11-2.88.07-4.33-2.82 2.44-6.3 4.36-10.15 3.61.27-1.66.56-3.32.88-4.98-1.96 1.02-4.54 3.65-6.65 1.5-.18-.6-.54-1.79-.72-2.38 7.35.81 14.36-1.85 21.61-2.39zm-70.23 7.74c6.9-3.51 14.82-4.94 22.52-4.26-4.02 1.23-8.36.85-12.33 2.3-4.99 1.61-9.48 4.41-14.4 6.2 1.13-1.65 2.32-3.39 4.21-4.24zm-2.28 11.17c.95-2.65 3.69-2.46 6-2.63.52.99 1.05 1.99 1.58 2.99-2.53-.06-5.06-.16-7.58-.36zm.96 2.34c2.69-.13 5.39-.12 8.08-.05 1.48 1.28 2.98 2.54 4.48 3.8-4.46.21-9.24-.49-12.56-3.75zm.21 6.72c4.44.19 8.23 2.78 12.5 3.68 6.6 2.07 13.59 1.56 20.3 2.97-9.63.54-19.12-1.67-28.48-3.61-1.93-.19-3.34-1.44-4.32-3.04zm-6.57 5.19c2.75-1.06 5.74-1.07 8.65-1.26.31 1.63.63 3.26.95 4.89-3.11-.78-6.31-1.32-9.27-2.59-.08-.26-.25-.78-.33-1.04zm-12.59 3.43c2.53-1.39 5.3-2.27 8.13-2.85-.12 1.23-.3 2.46-.28 3.7.83.95 1.79 1.75 2.71 2.6-3.52-1.14-7.1-2.12-10.56-3.45zm-14.93 8.18c3.17-1.35 6.39-3.72 10.01-2.93-1.53 1.58-1.22 3.37-.06 5.03-3.34-.61-6.67-1.25-9.95-2.1zm65.56 10.94c1.97-7.87 10.23-11.67 17-14.71-3.39 3.27-7.8 5.63-10.09 9.91-1.27 2.31-2.56 5.32-.99 7.81 4.5 7.49 10.43 14.03 14.88 21.56-3.41-2.38-5.7-5.9-8.24-9.11-3.97-5.33-8.28-10.39-12.56-15.46z"/><path d="M136.27 181.61c2.63.58 5.57.7 7.84 2.27 2.22 2.87 3.61 6.29 5.9 9.13 4.26 5.46 9.22 10.31 13.93 15.37 7.22-.47 15.31-.91 21.04 4.39-6.07-1.72-12.35-4.2-18.72-2.41-7.76 1.88-15.21-1.86-22.94-1.83 5.74-2 11.76.12 17.65-.32-4.11-5.55-9.17-10.3-13.62-15.57-3.32-4.06-7.92-6.83-11.08-11.03zm45.57 26.53c5.84-1.03 13.99-2.46 17.62 3.57-2.68-1.35-5.51-2.4-8.49-2.85 1.6 1.2 3.18 2.46 4.47 4-4.39-1.98-8.86-3.78-13.6-4.72z"/></g><g fill="#fdfdfd"><path d="M217.76 60.74c.4.73.78 1.47 1.14 2.22-.47 1.63-2.25 1.15-3.45.95.57-.79 1.73-2.37 2.31-3.17zm-3.47 4.79c1.89.71 3.85 1.18 5.85 1.45-1.95 1.58-4.35 2.17-6.83 2.02.32-1.16.65-2.32.98-3.47zm3.79 25.88c1.05-3.01 3.62-4.93 6.5-6.02-1.57 5.93 1.59 11.61 1.39 17.54.6 8.85-.6 18.13-5.14 25.89-6.55 12.44-17.49 22.68-30.73 27.63-9.5 3.51-18.94 7.22-28.68 10.02-6.67 3.05-13.8 7.57-15.95 15.04-3.8-.98-7.81-3.3-11.76-1.66-3.7-3.43-7.74-6.52-11.03-10.37 1.08-.12 3.24-.35 4.32-.47 2.4-.2 4.78-.58 7.15-.96 8.85-1.85 19.1.78 26.78-5.01 7.82-2.35 16.76-2.3 23.28-7.88 4.83-2.54 9.23-5.9 12.96-9.89 3.22-5.08 6.95-10.17 7.97-16.25.56-5.09 1.38-10.17.98-15.31 0-8.06 2.53-17.32 10.49-20.96.47.17 1.4.5 1.87.67l-.4-2.01zm-59.33 35.3c1.78 1.05 3.49 2.22 5.2 3.38-2.51.49-5.42-.23-5.2-3.38z"/><path d="M164.86 134.15c-.88-.95-.29-2.12-.05-3.18 1.55 1.24 3.25 2.29 5 3.24-1.62.33-3.48 1.11-4.95-.06zm-8.34 3.27c.25-1.43 1.15-2.6 1.91-3.79.44 1.16.87 2.33 1.3 3.51-1.06.4-2.18 1.19-3.21.28zm14.13-3.12c2.78 2.08 6.16 2.29 9.45 1.47-2.58 3.09-8.62 3.19-9.45-1.47zm11.09.21c.31.15.92.45 1.22.6.24.23.73.68.97.9.32.44.96 1.33 1.27 1.78 1.75.07 3.51.17 5.26.28-2.32 1.63-5.43 2.13-7.97.73-.19-1.07-.56-3.22-.75-4.29zm-41.04 5.55c.17-1.47 1.12-2.71 1.75-4.02.34 2.43 1.17 4.7 2.53 6.75-1.44-.77-3.95-.76-4.28-2.73zm21.74-3.8c1.53.13 3.05.38 4.54.74-1.19.46-2.47.36-3.72.41.96 2.45.2 3.75-2.22 3.31.19-1.57.86-3 1.4-4.46zm3.08 8.33c-.12-2.85 1.74-5.18 2.98-7.58-.24 2.58-.13 5.19 1.23 7.47-1.37-.03-3.03 1.01-4.21.11zm27.11-7.27c2.56.86 5.24.81 7.84.06-1.52 1.37-3.24 3.62-5.59 2.74-1.6-.04-1.76-1.66-2.25-2.8zm-19.66 9.78c.22-1.46.63-2.87 1.02-4.29.51 1.94 1.2 3.83 1.6 5.8-1.09.16-3.37.36-2.62-1.51zm13.96-4.55c.75.77 1.49 1.56 2.21 2.36 1.71.63 3.42 1.24 5.08 1.98-.29.01-.87.02-1.16.02-1.84.03-3.67-.22-5.44-.71-.17-.91-.51-2.74-.69-3.65zm-42.83 4.29c-.44-1.42.84-2 1.76-2.7.92 1.51 2 2.9 3.22 4.18-1.67-.45-3.39-.77-4.98-1.48zm34.11-.28c.88 1.48 1.76 2.96 2.66 4.43-1.17-.1-2.33-.19-3.49-.28.27-1.38.54-2.77.83-4.15zm6.01 2.25c1.03.9 2.06 1.81 3.1 2.71-1.1.33-2.2.66-3.29.99.05-1.23.12-2.47.19-3.7zm-35.57 1.77c1.41-.23 2.83-.44 4.25-.63 1.33 1.09 2.74 2.08 4.17 3.04-3-.04-6.06-.39-8.42-2.41zm22.48 8.11c1.51-1.61 3.11-3.13 4.74-4.62-.38 1.35-.78 2.7-1.15 4.05-1.19.2-2.39.39-3.59.57zm-20.51 1.91c.95-1.22 1.91-2.42 2.85-3.64.1 2.21 1.41 3.66 3.23 4.7-2.02-.38-4.05-.75-6.08-1.06z"/></g><path d="M141.51 133.04c.78-.97.83-4.63 2.64-3.55 1.85 1.9 4.31 2.75 6.87 3.21-3.14.61-6.34.77-9.51.34zm-19.86 4.6c4.98-3.74 11.29-5.35 17.4-5.89 1.02 1.07 1.89 2.26 2.79 3.43-6.01 3.67-13.47 2.71-20.19 2.46zm39.45-5.37c1.78-.59 2.37 2.34.63 2.71-1.81.62-2.4-2.36-.63-2.71zm-14.72 3.13c3.03-.87 6.2-.95 9.31-1.31-.19 1.53-.38 3.06-.56 4.6 1.33.33 2.67.66 4.02 1-4.4 1.39-9.81 2.88-13.96.13-2.07-1.1-.46-3.81 1.19-4.42zm-31.94 5.44c1.35-1.07 2.74-2.09 4.16-3.08 5.3 2.52 11.26.52 16.84 1.67-1.57.44-3.14.89-4.71 1.34 2.8-.07 5.59-.38 8.33-.97.3 1.14.59 2.27.89 3.41-4.25.77-8.58 1.51-12.91 1.04-1.48.08-2.65-.7-3.56-1.79 2.23-.38 4.47-.68 6.71-1.02-5.23-.57-10.51-.28-15.75-.6zm55.29-2.8c1.22.28 2.44.58 3.66.88-.51 1.61-1.03 3.22-1.58 4.83-1.7-1.46-1.96-3.62-2.08-5.71zm6.17 4.02c.6-2.61 3.48-3.38 5.53-4.48-.95 3.22-2.44 6.31-4.61 8.89-1.89-.4-1.07-3.07-.92-4.41zm14.17-2.08c2.42.87 4.83 1.76 7.22 2.72-2.23 1.28-4.74 1.67-7.28 1.41l.06-4.13zm-7.57 10.4c-3.66-2.94-1.23-9.8 3.58-9.55-.97 3.26-2.18 6.45-3.58 9.55zm-34.17-5.83c4.96-1.22 9.97-2.74 15.14-2.24.11 1.14.23 2.28.34 3.42-5.04.63-11.2 2.59-15.48-1.18zm-21.83 1.69c5.08-.39 10.19-.59 15.16-1.81-.35 4.64 5.37 4.38 6.58 8.2-7.35-1.32-16.36-.17-21.74-6.39zm29.1 4.39c4.91-2.07 10.18-2.96 15.24-4.55.05 1.34.09 2.68.14 4.03-4.98 1.54-10.32 2.09-15.38.52zm30.3-4.85l1.72.42c1.77.49 3.6.74 5.44.71-1.56.95-3 2.15-4.74 2.75-1.75-.45-1.73-2.57-2.42-3.88zm-24.85 8.6c4.9-.92 9.72-2.3 14.67-2.95-2.43 2.53-4.65 5.47-7.75 7.23-4.16 1.19-9.09 2.17-12.95-.4 1.82-1.53 3.56-3.48 6.03-3.88zm-42.28-2.96c5.5.25 10.95 2.15 15.05 5.89-5.33-.74-10.99-2.15-15.05-5.89zm57.98 5.84c.59-2.77 2.34-5.51 5.54-5.38.69 3.41-3.19 4.33-5.54 5.38zm-47.1-4.01c7.88.48 15.73 1.37 23.63.99-1.31 1.58-2.37 3.57-4.27 4.52-6.86.4-13.8-1.41-19.36-5.51zm-8.92 5.9c7.35 1.49 14.7 3.2 22.22 3.56 4.9.37 9.9-.53 14.69.83-8.71 2.1-17.85 2.41-26.74 1.41-3.84-.76-8.99-1.32-10.17-5.8zm-14.13 3.01c5.01.05 9.6 2.24 14.48 3.04 4.37.86 9.04.68 13.07 2.85-2.37.38-4.75.76-7.15.96-3.1-2.25-6.69-.49-10.03-.03-5.52.94-11.62.65-16.28-2.79 6.29.71 12.54 2.71 18.91 1.6-4.43-1.61-9.39-2.34-13-5.63zm-15.45 3.56c1.21-.73 2.33-2.12 3.92-1.86 2.84-.03 4.21 2.88 5.78 4.74-3.38-.39-6.67-1.31-9.7-2.88zm1.63 4.31c2.67-1.07 5.52-.28 8.25.01 4.44.65 8.97.41 13.37 1.36-5.08.81-10.23 1.28-15.37 1.28-2.29-.04-5.19-.23-6.25-2.65z" fill="#332a2b"/></svg>