<svg width="256" height="256" viewBox="0 0 192 192" xmlns="http://www.w3.org/2000/svg"><path d="M82.38 2.38c1.61-2.48 5.66-2.49 7.46-.19 1.52 2.55 2.01 5.66 3.98 7.96 2.98 3.22 7.58 4.24 10.7 7.27 2.16 2.51.39 5.62-1.37 7.74.09.53.28 1.6.37 2.13 2.99 1.98 6.5 3.5 8.71 6.41 2.18 4.29-2.39 7.56-4.66 10.61 3.31 2.68 6.76 5.32 9.37 8.73 1.68 2.26.76 5.85-1.72 7.13-1.69.65-3.56.56-5.32.83 2.83 3.47 7.7 5.59 9.06 10.04.53 4.52-4.29 5.98-7.91 5.63-.47 1.59-.96 3.17-1.46 4.75 2.53 4.56 6.84 7.59 11.41 9.88 1.64-1.61 3.36-3.13 5.14-4.59-1.21-2.01-3.12-4.12-2.25-6.64.73-2.86 3.95-3.28 6.32-4.03-.22-2.61.46-5.07 2.25-7.01.46-1.66.32-3.67 1.67-4.93 2.98-3 6.46-5.52 9.04-8.91 2.52-3.09 3.9-6.88 6.01-10.21 1.79-2.85 6.8-2.48 8.04.68 1.31 3 2.02 6.37 4.33 8.83 3.55 4.08 9.16 5.34 13.12 8.87 2.32 2.86.32 6.57-2.46 8.19.36 1.36.73 2.72 1.09 4.08 3.5 2.09 7.22 4 10.11 6.93 1.41 1.41 1.7 3.78.61 5.47-1.88 2.9-4.27 5.42-6.6 7.96 4.5 3.28 9.08 6.69 12.45 11.19 1.93 2.37.57 6.32-2.23 7.28-2.43.55-4.94.53-7.4.75 3.24 4.67 7.99 7.91 11.76 12.1v3.78c-1.77 3.9-6.3 3.13-9.79 3.21-.27 2.6-.17 6.2-3.34 7.03-4.86.45-9.69-.71-14.51-1.16.6 3.09 1.32 7.69-2.51 9.01-5.64.84-11.39-.28-17.08.04-2.91 3.84-8.01 2.62-12.16 2.84 2.96 5.64 8.37 9.18 12.66 13.67 2.54 2.42.97 7.18-2.36 7.86-2.79.37-5.6.15-8.4.09 1.03 2.85.91 7.07-2.57 8.07-5.67.5-11.31-1.03-16.97-1.33.31 2.94 2.07 6.67-.52 9.06-1.66 1.87-4.35 1.37-6.56 1.39-4.29-.26-8.62.17-12.88-.42-2.24-.16-4.09-2.18-3.98-4.43.08-2.6.75-5.13 1.25-7.66-5.76.54-11.45 2.14-17.25 2.04-2.83-.48-3.37-3.47-3.87-5.79-1.49-1.53-3.66-3.11-3.2-5.56.76-3.25 3.05-5.87 4.63-8.75-2.82-.07-5.69.21-8.45-.42-3.09-.99-4.12-5.39-1.93-7.74 3.32-4.05 7.39-7.41 11.54-10.58-1.96-.92-4.68-1.33-5.48-3.68-.86-1.93.24-3.91.88-5.72-.59-1.9-1.75-3.93-.87-5.93.99-2.06 3.15-3.15 4.8-4.6-2.08.07-4.16.11-6.24.15.13 2.83-.31 6.69-3.82 7.13-4.66.1-9.27-.9-13.91-1.26.61 3.08 1.42 7.65-2.44 8.94-4.52.7-9.16-.01-13.72.16-2.63.18-5.78-.84-6.39-3.75-.18-2.43.5-4.82.88-7.2-4.76.55-9.46 1.8-14.27 1.83-2.83-.25-3.76-3.17-4.53-5.43-1.11-1.57-2.94-3.01-2.68-5.14.46-2.7 2.32-4.86 3.65-7.17-3.42-.17-7.66.25-9.61-3.27v-3.67c2.82-3.93 6.52-7.09 10.26-10.1-1.31-1-3.13-1.58-3.84-3.19-.87-1.82-.02-3.81.31-5.65-.34-1.85-1.21-3.86-.3-5.68 1.12-1.75 2.95-2.87 4.5-4.2-1.21-2.1-3.4-4.43-2.07-7 .76-2.61 3.76-2.84 5.92-3.6.07-2.59.63-5.13 2.5-7.03-.19-5.33 5.17-7.58 8.19-11.06 3.76-3.51 5.77-8.3 8.28-12.68 1.67-3.37 7.53-2.88 8.5.81 1.34 3.96 2.87 8.22 6.57 10.61 4.5 2.97 9.69 5.02 13.15 9.36-3.01-3.73-2.76-8.6-2.31-13.09.58-1.55 2.07-2.5 3.14-3.7-.68-1.79-1.85-3.67-1.13-5.65.62-2.18 2.92-2.87 4.76-3.7.95-2.99 1.84-6.04 3.28-8.84 1.81-2.47 4.51-4.09 6.51-6.4 2.71-2.81 4.06-6.55 6.16-9.78m-9.29 19.56c.95.36 2.87 1.1 3.82 1.46-1.93.92-3.83 1.91-5.7 2.97.58.22 1.73.67 2.3.89 1.52.44 3.03.87 4.54 1.33-3.74 2.07-7.83 3.37-12 4.23 1.63 1.59 3.33 3.12 5.06 4.62-1.96 1.58-5.54 2.32-6.08 4.99 2.03.83 4.14 1.41 6.25 2.01-2.43 1.16-4.87 2.32-7.33 3.43 2.86.7 5.69 1.48 8.52 2.29-.51.52-1.54 1.55-2.06 2.07-4.27 2.61-7.95 6.01-11.34 9.67 3.39.12 6.75-.33 10.13-.57l.26 1.63c-1.96 2.94-3.49 6.14-5.31 9.17 1.92.24 3.85.49 5.77.74-1.07 1.23-2.13 2.47-3.2 3.71 5.13-.49 10.21-2.02 15.39-1.54l-.39 4.19c-.32 1.59-.63 3.17-.95 4.76 3.77.01 7.54.01 11.3.04-.36-1.6-.73-3.2-1.1-4.8-.31-1.09-.61-2.19-.92-3.28 5.34.55 10.67 1.15 16.01 1.79-1.13-2-2.24-4-3.35-6.01 3.86-.05 7.71-.04 11.56-.03-3.69-3.18-7.33-6.49-9.86-10.7-.83-1.89-1.6-3.8-2.35-5.72 3.71.38 7.43.73 11.17.67-2.74-2.87-5.54-5.73-8.9-7.87-1.72-1.21-3.33-2.55-4.9-3.94 2.49-1.48 4.77-3.3 6.74-5.42-1.1-.25-2.19-.49-3.29-.74 1.76-.61 3.52-1.23 5.28-1.85-3.28-2.66-7.24-4.32-10.49-7.02.21-.49.64-1.47.85-1.96-1.72-1.53-3.44-3.07-5.14-4.63 2.63-.18 5.11-1.22 7.59-2.05-3.22-1.91-6.69-3.47-9.56-5.89-2.69-2.26-4.07-5.58-5.34-8.75-2.79 6.51-7.92 11.37-12.98 16.11M29 48.73c-2.29 2.29-4.7 4.45-7.16 6.56 1.37 1.05 2.95 1.73 4.62 2.13-2.38 1.11-4.65 2.45-6.86 3.88 1.5.53 3 1.04 4.51 1.54.9.23 2.69.68 3.59.91-4.35 2.93-9.48 4.21-14.53 5.32 1.89 2.15 4.1 3.98 6.47 5.58-3.16 1.71-6.21 3.65-8.92 6.02 2.96.95 5.94 1.86 8.92 2.76a571.28 571.28 0 0 1-9.08 4.1c3.43 1.14 7.24 1.44 10.41 3.22-5.53 4.54-11.65 8.41-16.35 13.9 4.09.23 8.24.24 12.17-1.06 1.01 2.73-1.54 5.24-2.38 7.73l-.11-.08c-1.19 2.03-2.36 4.06-3.48 6.12 2.38.35 4.76.7 7.15 1.04-1.42 1.46-2.82 2.94-4.2 4.45 6.39-.47 12.69-2.49 19.13-1.83-.18 1.64-.36 3.28-.55 4.92-.36 1.98-.7 3.96-1.02 5.95 4.53.14 9.06.11 13.59.13-.37-1.91-.75-3.82-1.12-5.73l-.36-.01c-.25-1.4-.5-2.79-.75-4.18 6.49.69 12.97 1.41 19.46 2.15-1.31-2.42-2.64-4.83-3.98-7.23 4.74-.06 9.47-.05 14.21-.07-2.58-2.36-5.14-4.75-7.78-7.05-1.89-2.35-3.51-4.89-5.1-7.45-.82-1.9-1.43-3.87-1.92-5.88 4.41.66 8.87 1.09 13.34.86-3.54-3.67-7.15-7.36-11.56-10-1.88-1.42-3.67-2.94-5.42-4.51a25.54 25.54 0 0 0 8.27-6.61c-1.03-.21-3.09-.64-4.12-.85 2.25-.75 4.5-1.52 6.75-2.29-4.15-3.21-8.87-5.54-13.19-8.52.53-.82 1.05-1.65 1.57-2.47-.98-.77-1.93-1.58-2.98-2.25-1.1-1.17-2.22-2.32-3.36-3.46a51.93 51.93 0 0 0 8.92-2.55c-3.49-2.06-7.03-4.02-10.48-6.14-3.6-3.21-6.08-7.4-7.54-11.98-2.62 4.51-5.01 9.23-8.78 12.93m118.03 9.54c-3.03 3.52-6.56 6.54-9.99 9.64 1.38.87 2.83 1.58 4.37 2.13-2.28 1.2-4.54 2.46-6.8 3.7.97.37 1.94.74 2.92 1.1 1.8.5 3.59 1 5.38 1.52-4.38 2.87-9.5 4.05-14.49 5.36 1.94 2.05 4.04 3.92 6.38 5.51-3.17 1.73-6.14 3.77-9.03 5.92 2.91.89 5.85 1.72 8.61 3.03-2.83 1.36-5.72 2.63-8.6 3.88 3.23.9 6.47 1.79 9.71 2.66.08.26.24.77.33 1.03-4.2 3.24-8.6 6.2-12.58 9.72-1.66-1.12-3.24-2.35-4.82-3.58.53-.5 1.6-1.5 2.13-2-1.45-1.31-2.81-2.75-4.45-3.83-.92-.98-1.85-1.95-2.78-2.92 3.43-.69 6.78-1.71 10.05-2.97-4.04-2.29-8.13-4.5-12.03-7.03a27.857 27.857 0 0 1-8.31-13.67c-2.4 5.11-5.32 10.01-9.04 14.28-2.83 2.86-5.98 5.39-8.79 8.27 1.56 1 3.29 1.62 5.09 2.06-2.62 1.39-5.17 2.9-7.7 4.43 1.87.63 3.75 1.24 5.64 1.82l3.61.96c-4.91 3.12-10.54 4.75-16.2 5.87 1.96 2.54 4.42 4.61 7.09 6.37a64.106 64.106 0 0 0-10.06 6.64c3.34 1.2 6.73 2.25 10.15 3.21-3.42 1.53-6.83 3.08-10.25 4.62 3.97 1.1 7.97 2.05 11.88 3.33-1.94 1.72-3.92 3.42-6.03 4.94-4.84 2.95-8.91 6.96-12.71 11.12 4.91.32 9.84-.09 14.63-1.23-.61 2.48-1.55 4.85-2.78 7.08-1.61 2.76-3.2 5.54-4.87 8.27 2.7.39 5.4.78 8.1 1.19-1.6 1.72-3.22 3.42-4.86 5.1 7.24-.63 14.43-3.01 21.73-2.19-.21 1.85-.42 3.71-.62 5.56l-1.32 6.54c5.12.36 10.26.3 15.39.31-.43-2.19-.88-4.37-1.33-6.55l-.38-.01-.78-4.61c7.27.78 14.53 1.63 21.81 2.37a732.26 732.26 0 0 1-4.51-8.2c5.32-.1 10.64-.06 15.96-.09-3.52-3.06-6.97-6.2-10.22-9.54-1.59-2.4-3.07-4.87-4.52-7.34-.56-1.51-1.11-3.01-1.65-4.52l-.82-.54c.55-.2 1.65-.62 2.2-.83 4.38 1.01 8.88 1.22 13.35 1.03-3.8-4.31-8-8.35-12.93-11.36-2.14-1.54-4.11-3.29-6.04-5.08 1.94-1.08 3.93-2.14 5.57-3.66-.19.96-.39 1.92-.59 2.88 2.3.24 4.58.63 6.84 1.15-1.4 1.45-2.79 2.91-4.18 4.37 6.43-.61 12.82-2.59 19.32-1.94-.39 2.5-.77 5.02-1.09 7.54-.19.85-.57 2.54-.75 3.39 4.59-.01 9.18.02 13.77.31-.38-2.01-.78-4.01-1.22-6-.39-1.39-.77-2.77-1.15-4.15 6.53.68 13.04 1.44 19.57 2.14-1.36-2.43-2.71-4.86-4.04-7.3 4.72-.03 9.44 0 14.16-.06-5.11-4.37-10.15-9.01-13.08-15.18-.72-1.66-1.19-3.39-1.51-5.16 4.34.71 8.73 1.02 13.13.83-3.17-3.31-6.37-6.67-10.26-9.16-2.37-1.53-4.53-3.35-6.54-5.32 3.11-1.59 5.92-3.72 8.16-6.41-1.2-.37-2.38-.76-3.57-1.13 1.85-.63 3.7-1.24 5.55-1.88-3.18-4.23-8.66-5.61-12.56-9.01.42-.51 1.27-1.53 1.7-2.03-2.21-1.94-4.29-4.04-6.77-5.63 3.22-.62 6.28-1.86 9.37-2.92-4.42-2.47-9.03-4.75-12.86-8.13-2.34-3.13-4.28-6.56-5.25-10.38-1.7 3.61-3.75 7.03-5.94 10.36M64.46 81.23l-2.45 2.15c4.53 2.92 8.61 6.51 12.19 10.53 2.31 2.24 1.5 6.53-1.4 7.85-2.52.87-5.26.39-7.88.56 2.08 3.32 4.95 6 7.91 8.52 1.95-.44 3.9-.86 5.85-1.27-1.44-3.07-.38-6.24 2.3-8.13-1.17-6.25 5.85-8.43 8.97-12.54-3.7-.45-7.61.44-11.21-.68-3.29-1.34-2.93-5.35-2.19-8.16-4.01.53-8.02 1.54-12.09 1.17m59.67 23.36c-.35 1.37.19 1.84 1.6 1.4.34-1.37-.19-1.84-1.6-1.4m14.89 34.3c1.01 1.01 2.03 2.02 3.04 3.02.2-1.17.4-2.34.59-3.51-1.21.16-2.42.33-3.63.49z"/><path d="M129.47 117.54c.67-3.2 5.52-.75 2.54 1.41-.63-.36-1.9-1.06-2.54-1.41z"/><path fill="#67933c" d="M73.09 21.94c5.06-4.74 10.19-9.6 12.98-16.11 1.27 3.17 2.65 6.49 5.34 8.75 2.87 2.42 6.34 3.98 9.56 5.89-2.48.83-4.96 1.87-7.59 2.05-3.67.06-7.36-.43-11.01.04-3.42.46-6.13 2.79-8.86 4.7-.57-.22-1.72-.67-2.3-.89 1.87-1.06 3.77-2.05 5.7-2.97-.95-.36-2.87-1.1-3.82-1.46z"/><path d="M82.37 22.56c3.65-.47 7.34.02 11.01-.04 1.7 1.56 3.42 3.1 5.14 4.63-.21.49-.64 1.47-.85 1.96 3.25 2.7 7.21 4.36 10.49 7.02-1.76.62-3.52 1.24-5.28 1.85 1.1.25 2.19.49 3.29.74a30.393 30.393 0 0 1-6.74 5.42c1.57 1.39 3.18 2.73 4.9 3.94-1.06 2.52-2.11 5.05-3.4 7.46a69.849 69.849 0 0 1-7.35-8.03c1.76-.15 3.52-.26 5.28-.4-1.36-1.69-2.72-3.39-4.07-5.09.97-.43 1.94-.85 2.92-1.27-1.34-.88-2.72-1.7-3.92-2.76-.32-1.21.63-2.4.85-3.57-3.31-2.04-6.32-4.59-8.14-8.08-1.63 3.05-4.01 5.6-7.2 7.04.69.38 2.08 1.13 2.78 1.51-1.75 1.52-3.53 3-5.33 4.45 1.03 2.04 2 4.11 2.89 6.21-1.11.98-2.23 1.93-3.34 2.9 1.66.72 3.31 1.44 4.97 2.16-2.05 1.38-4.1 2.76-6.16 4.13 1.48.52 2.97 1.03 4.45 1.55-1.61.8-3.22 1.59-4.84 2.38-1.58-2.05-2.95-4.25-4.31-6.44.52-.52 1.55-1.55 2.06-2.07-2.83-.81-5.66-1.59-8.52-2.29 2.46-1.11 4.9-2.27 7.33-3.43-2.11-.6-4.22-1.18-6.25-2.01.54-2.67 4.12-3.41 6.08-4.99-1.73-1.5-3.43-3.03-5.06-4.62 4.17-.86 8.26-2.16 12-4.23-1.51-.46-3.02-.89-4.54-1.33 2.73-1.91 5.44-4.24 8.86-4.7zm55.16 52.28c6.43-6.15 15.75-7.67 24.18-5.5 2.48 1.59 4.56 3.69 6.77 5.63-.43.5-1.28 1.52-1.7 2.03 3.9 3.4 9.38 4.78 12.56 9.01-1.85.64-3.7 1.25-5.55 1.88 1.19.37 2.37.76 3.57 1.13-2.24 2.69-5.05 4.82-8.16 6.41 2.01 1.97 4.17 3.79 6.54 5.32-1.76 2.69-3.55 5.37-5.06 8.21-3.45-2.68-6.31-6.01-8.83-9.56 2.29-.08 4.59-.17 6.89-.26a58.039 58.039 0 0 0-7.39-6.62c2.07-.17 4.14-.35 6.21-.52-3.35-1.85-6.63-3.84-9.74-6.08l7.05-.99c-4.33-3.19-9.15-6.06-11.57-11.12-1.75 3.55-4.17 6.82-8.06 8.16.95.8 1.89 1.6 2.84 2.41-2.15 1.91-4.36 3.76-6.6 5.57 1.74 2.09 2.75 4.63 3.31 7.28-1.31 1.2-2.57 2.43-3.87 3.65 2.11.79 4.21 1.59 6.31 2.4a101.05 101.05 0 0 1-8.11 5.48c2.09.56 4.18 1.14 6.27 1.73-1.14.48-2.28.97-3.42 1.45-3.31-1.62-5.53-4.54-6.15-8.19-.09-.26-.25-.77-.33-1.03-3.24-.87-6.48-1.76-9.71-2.66 2.88-1.25 5.77-2.52 8.6-3.88-2.76-1.31-5.7-2.14-8.61-3.03 2.89-2.15 5.86-4.19 9.03-5.92-2.34-1.59-4.44-3.46-6.38-5.51 4.99-1.31 10.11-2.49 14.49-5.36-1.79-.52-3.58-1.02-5.38-1.52z" fill="#83a941"/><path d="M79.3 33.38c3.19-1.44 5.57-3.99 7.2-7.04 1.82 3.49 4.83 6.04 8.14 8.08-.22 1.17-1.17 2.36-.85 3.57 1.2 1.06 2.58 1.88 3.92 2.76-.98.42-1.95.84-2.92 1.27 1.35 1.7 2.71 3.4 4.07 5.09-1.76.14-3.52.25-5.28.4 2.24 2.86 4.69 5.55 7.35 8.03l-.3.47c-2.62.57-5.28.97-7.92 1.44 2.51 2.49 5 5.01 7.44 7.57l-.6.44c-2.44-.01-4.87-.22-7.3-.36 1.01 1.28 2.04 2.55 3.04 3.84-2.36.86-4.69 2.06-7.24 2.25-4.37-.35-8.61-1.59-12.94-2.28.29-.28.87-.83 1.16-1.11 1.23-1.19 2.46-2.39 3.68-3.59-1.77-1.82-3.59-3.6-5.23-5.54 1.62-.79 3.23-1.58 4.84-2.38-1.48-.52-2.97-1.03-4.45-1.55 2.06-1.37 4.11-2.75 6.16-4.13-1.66-.72-3.31-1.44-4.97-2.16 1.11-.97 2.23-1.92 3.34-2.9-.89-2.1-1.86-4.17-2.89-6.21 1.8-1.45 3.58-2.93 5.33-4.45-.7-.38-2.09-1.13-2.78-1.51zM29.79 69.46c4.27-1.07 6.65-4.7 8.46-8.41 2.02 5.09 6.65 8.06 11.17 10.69-1.47.73-2.95 1.43-4.41 2.17 1.82 2.24 4.29 3.73 6.92 4.84-1.58.41-3.16.81-4.73 1.23 2.06 2.26 4.13 4.51 6.18 6.77-2.43-.16-4.85-.33-7.28-.49 2.52 3.39 5.17 6.72 8.45 9.41.92.75 1.85 1.49 2.78 2.22-3.94.09-7.88.5-11.69 1.51 2.74 2.79 5.7 5.37 8.29 8.3.35.4 1.03 1.2 1.37 1.6-3.52-.33-7.03-.72-10.54-1.08 1.35 1.71 2.7 3.43 4.06 5.14-3.47 1.19-6.97 3.61-10.8 2.65-4.09-.76-8.2-1.46-12.23-2.51-.17-.23-.5-.71-.67-.94 1.72-1.61 3.43-3.23 5.13-4.85-1.91-2.36-5.36-4.07-5.98-7.12 1.87-1.25 3.93-2.16 5.94-3.12-2.15-.1-4.31-.22-6.46-.33.29-.47.87-1.42 1.17-1.89a34.86 34.86 0 0 0 7.23-4.66c-2.11-.76-4.23-1.51-6.36-2.25 1.59-1.29 3.17-2.58 4.76-3.87-.69-.77-1.38-1.53-2.07-2.29.24-.89.47-1.77.71-2.66-1.08-.75-2.15-1.5-3.23-2.25 2.62-1.76 5.21-3.54 7.79-5.36-1.32-.82-2.64-1.64-3.96-2.45zm123.51 4.35c2.42 5.06 7.24 7.93 11.57 11.12l-7.05.99c3.11 2.24 6.39 4.23 9.74 6.08-2.07.17-4.14.35-6.21.52 2.65 1.99 5.12 4.21 7.39 6.62-2.3.09-4.6.18-6.89.26 2.52 3.55 5.38 6.88 8.83 9.56.44.36 1.3 1.09 1.74 1.45-3.95.04-7.88.59-11.7 1.56 2.77 2.63 5.7 5.11 8.22 8 .38.45 1.16 1.36 1.54 1.82-3.46-.22-6.93-.48-10.39-.71 1.34 1.51 2.67 3.02 4.01 4.54-3.31 1.72-6.9 3.8-10.78 3-4.51-.82-9.04-1.57-13.45-2.83 1.84-1.83 3.64-3.7 5.38-5.61a187.27 187.27 0 0 1-6.65-6.86c1.13-.46 2.25-.92 3.37-1.38 1.14-.48 2.28-.97 3.42-1.45-2.09-.59-4.18-1.17-6.27-1.73 2.79-1.7 5.5-3.52 8.11-5.48-2.1-.81-4.2-1.61-6.31-2.4 1.3-1.22 2.56-2.45 3.87-3.65-.56-2.65-1.57-5.19-3.31-7.28 2.24-1.81 4.45-3.66 6.6-5.57-.95-.81-1.89-1.61-2.84-2.41 3.89-1.34 6.31-4.61 8.06-8.16zm-49.86 32.22c.65 1.21 1.3 2.42 2.01 3.6 2.31 4.25 7.12 6.02 10.77 8.88-2.09.71-4.18 1.42-6.26 2.15 2.79 2.37 5.93 4.27 9.24 5.83-2 .35-4 .72-5.99 1.08 2.64 2.4 5.16 4.93 7.54 7.61-2.89-.28-5.77-.58-8.65-.88 2.92 3.76 5.84 7.59 9.54 10.63.99.71 2.01 1.39 3.03 2.06l.82.54c-4.61.12-9.22.57-13.67 1.82 2.84 2.84 5.94 5.42 8.62 8.42.55.66 1.65 1.97 2.2 2.63-3.95-.38-7.88-.82-11.82-1.25 1.5 1.97 3.01 3.94 4.51 5.91-3.95 1.44-7.98 3.98-12.34 2.84-4.93-.89-9.84-1.93-14.74-2.95 2.09-2.17 4.23-4.29 6.4-6.39-2.49-2.43-4.96-4.96-8-6.7 2.56-1.65 5.2-3.18 7.89-4.62-1.96-.28-3.92-.52-5.85-.9-.14-.26-.43-.79-.57-1.06 3.07-1.78 6.07-3.64 9.02-5.6-2.54-.98-5.1-1.95-7.65-2.92 2.09-1.5 4.18-2.99 6.27-4.47-1.14-.7-2.29-1.4-3.43-2.11.47-1.03.93-2.07 1.4-3.1-1.26-.85-2.51-1.71-3.77-2.56 3.07-2.05 6.06-4.24 8.9-6.61-1.68-.74-3.36-1.48-5.04-2.21 1.85-.78 3.81-1.39 5.5-2.51 1.82-2.09 2.82-4.74 4.12-7.16z" fill="#afcc49"/><path fill="#58863a" d="M29 48.73c3.77-3.7 6.16-8.42 8.78-12.93 1.46 4.58 3.94 8.77 7.54 11.98-5.44.35-10.89.52-16.32.95z"/><path d="M29 48.73c5.43-.43 10.88-.6 16.32-.95 3.45 2.12 6.99 4.08 10.48 6.14a51.93 51.93 0 0 1-8.92 2.55c1.14 1.14 2.26 2.29 3.36 3.46-8.42-3.78-19.14-3.8-26.13 2.91-1.51-.5-3.01-1.01-4.51-1.54 2.21-1.43 4.48-2.77 6.86-3.88-1.67-.4-3.25-1.08-4.62-2.13 2.46-2.11 4.87-4.27 7.16-6.56zm75.33-.65c3.36 2.14 6.16 5 8.9 7.87-3.74.06-7.46-.29-11.17-.67.75 1.92 1.52 3.83 2.35 5.72-1.39 1.36-2.79 2.73-4.26 4.02-2.44-2.56-4.93-5.08-7.44-7.57 2.64-.47 5.3-.87 7.92-1.44l.3-.47c1.29-2.41 2.34-4.94 3.4-7.46zM93.99 91.75c5.76-.53 11.56-.52 17.35-.61 3.9 2.53 7.99 4.74 12.03 7.03-3.27 1.26-6.62 2.28-10.05 2.97.93.97 1.86 1.94 2.78 2.92-6.67-.99-13.65-2.71-20.23-.31-2.89.87-5.29 2.76-7.64 4.58-1.89-.58-3.77-1.19-5.64-1.82 2.53-1.53 5.08-3.04 7.7-4.43-1.8-.44-3.53-1.06-5.09-2.06 2.81-2.88 5.96-5.41 8.79-8.27z" fill="#6b963d"/><path fill="#548339" d="M147.03 58.27c2.19-3.33 4.24-6.75 5.94-10.36.97 3.82 2.91 7.25 5.25 10.38-3.73.03-7.46.03-11.19-.02z"/><path fill="#64913c" d="M59.07 61.9c3.39-3.66 7.07-7.06 11.34-9.67 1.36 2.19 2.73 4.39 4.31 6.44 1.64 1.94 3.46 3.72 5.23 5.54-1.22 1.2-2.45 2.4-3.68 3.59-2.33-1.52-4.74-2.96-6.81-4.84l-.26-1.63c-3.38.24-6.74.69-10.13.57z"/><path d="M24.11 62.84c6.99-6.71 17.71-6.69 26.13-2.91 1.05.67 2 1.48 2.98 2.25-.52.82-1.04 1.65-1.57 2.47 4.32 2.98 9.04 5.31 13.19 8.52-2.25.77-4.5 1.54-6.75 2.29 1.03.21 3.09.64 4.12.85-2.26 2.76-5.08 5-8.27 6.61 1.75 1.57 3.54 3.09 5.42 4.51-1.78 2.64-3.4 5.38-4.81 8.24-3.28-2.69-5.93-6.02-8.45-9.41 2.43.16 4.85.33 7.28.49-2.05-2.26-4.12-4.51-6.18-6.77 1.57-.42 3.15-.82 4.73-1.23-2.63-1.11-5.1-2.6-6.92-4.84 1.46-.74 2.94-1.44 4.41-2.17-4.52-2.63-9.15-5.6-11.17-10.69-1.81 3.71-4.19 7.34-8.46 8.41 1.32.81 2.64 1.63 3.96 2.45-2.58 1.82-5.17 3.6-7.79 5.36 1.08.75 2.15 1.5 3.23 2.25-.24.89-.47 1.77-.71 2.66.69.76 1.38 1.52 2.07 2.29-1.59 1.29-3.17 2.58-4.76 3.87 2.13.74 4.25 1.49 6.36 2.25a34.86 34.86 0 0 1-7.23 4.66c-1.28-1.53-2.56-3.07-3.95-4.5-3.17-1.78-6.98-2.08-10.41-3.22 3.04-1.34 6.07-2.71 9.08-4.1-2.98-.9-5.96-1.81-8.92-2.76 2.71-2.37 5.76-4.31 8.92-6.02-2.37-1.6-4.58-3.43-6.47-5.58 5.05-1.11 10.18-2.39 14.53-5.32-.9-.23-2.69-.68-3.59-.91zm71.76 40.91c6.58-2.4 13.56-.68 20.23.31 1.64 1.08 3 2.52 4.45 3.83-.53.5-1.6 1.5-2.13 2 1.58 1.23 3.16 2.46 4.82 3.58 2.05 1.4 4.17 2.68 6.23 4.07.64.35 1.91 1.05 2.54 1.41l-1.62 1.83c-1.35.29-2.58.84-3.69 1.65.72.23 2.15.71 2.87.95-.9 1.25-1.76 2.52-2.75 3.71-1.64 1.52-3.63 2.58-5.57 3.66 1.93 1.79 3.9 3.54 6.04 5.08-1.81 3.08-3.69 6.11-5.65 9.1-3.7-3.04-6.62-6.87-9.54-10.63 2.88.3 5.76.6 8.65.88-2.38-2.68-4.9-5.21-7.54-7.61 1.99-.36 3.99-.73 5.99-1.08-3.31-1.56-6.45-3.46-9.24-5.83 2.08-.73 4.17-1.44 6.26-2.15-3.65-2.86-8.46-4.63-10.77-8.88-.71-1.18-1.36-2.39-2.01-3.6-1.3 2.42-2.3 5.07-4.12 7.16-1.69 1.12-3.65 1.73-5.5 2.51 1.68.73 3.36 1.47 5.04 2.21-2.84 2.37-5.83 4.56-8.9 6.61 1.26.85 2.51 1.71 3.77 2.56-.47 1.03-.93 2.07-1.4 3.1 1.14.71 2.29 1.41 3.43 2.11-2.09 1.48-4.18 2.97-6.27 4.47 2.55.97 5.11 1.94 7.65 2.92-2.95 1.96-5.95 3.82-9.02 5.6-1.02-2.1-2.11-4.19-3.67-5.95-3.91-1.28-7.91-2.23-11.88-3.33 3.42-1.54 6.83-3.09 10.25-4.62-3.42-.96-6.81-2.01-10.15-3.21 3.14-2.52 6.5-4.75 10.06-6.64-2.67-1.76-5.13-3.83-7.09-6.37 5.66-1.12 11.29-2.75 16.2-5.87l-3.61-.96c2.35-1.82 4.75-3.71 7.64-4.58z" fill="#84aa42"/><path fill="#68933d" d="M147.03 58.27c3.73.05 7.46.05 11.19.02 3.83 3.38 8.44 5.66 12.86 8.13-3.09 1.06-6.15 2.3-9.37 2.92-8.43-2.17-17.75-.65-24.18 5.5-.98-.36-1.95-.73-2.92-1.1 2.26-1.24 4.52-2.5 6.8-3.7-1.54-.55-2.99-1.26-4.37-2.13 3.43-3.1 6.96-6.12 9.99-9.64z"/><path fill="#4d7e38" d="M104.41 61c2.53 4.21 6.17 7.52 9.86 10.7-3.85-.01-7.7-.02-11.56.03 1.11 2.01 2.22 4.01 3.35 6.01-5.34-.64-10.67-1.24-16.01-1.79-2.65-.3-5.29-.65-7.94-.91-5.18-.48-10.26 1.05-15.39 1.54 1.07-1.24 2.13-2.48 3.2-3.71-1.92-.25-3.85-.5-5.77-.74 1.82-3.03 3.35-6.23 5.31-9.17 2.07 1.88 4.48 3.32 6.81 4.84-.29.28-.87.83-1.16 1.11 4.33.69 8.57 1.93 12.94 2.28 2.55-.19 4.88-1.39 7.24-2.25-1-1.29-2.03-2.56-3.04-3.84 2.43.14 4.86.35 7.3.36l.6-.44c1.47-1.29 2.87-2.66 4.26-4.02z"/><path d="M82.11 75.04c2.65.26 5.29.61 7.94.91.31 1.09.61 2.19.92 3.28-3.08.01-6.17.01-9.25 0l.39-4.19zM32.9 121.02c3.26.34 6.52.74 9.79 1.08.25 1.39.5 2.78.75 4.18-3.69-.12-7.39-.24-11.09-.34.19-1.64.37-3.28.55-4.92zm115.31 12.53c3.19.35 6.37.74 9.56 1.09.38 1.38.76 2.76 1.15 4.15-3.74-.04-7.49-.13-11.23-.25-.14.64-.43 1.91-.57 2.55.32-2.52.7-5.04 1.09-7.54zm-50.55 40.06c3.65.43 7.3.85 10.96 1.24l.78 4.61c-4.12-.03-8.24-.15-12.36-.29.2-1.85.41-3.71.62-5.56z" fill="#52290e"/><path d="M81.72 79.23c3.08.01 6.17.01 9.25 0 .37 1.6.74 3.2 1.1 4.8-3.76-.03-7.53-.03-11.3-.04.32-1.59.63-3.17.95-4.76zm-49.37 46.71c3.7.1 7.4.22 11.09.34l.36.01c.37 1.91.75 3.82 1.12 5.73-4.53-.02-9.06.01-13.59-.13.32-1.99.66-3.97 1.02-5.95zm115.34 12.6c3.74.12 7.49.21 11.23.25.44 1.99.84 3.99 1.22 6-4.59-.29-9.18-.32-13.77-.31.18-.85.56-2.54.75-3.39.14-.64.43-1.91.57-2.55zm-50.65 40.63c4.12.14 8.24.26 12.36.29l.38.01c.45 2.18.9 4.36 1.33 6.55-5.13-.01-10.27.05-15.39-.31l1.32-6.54z" fill="#91663b"/><path fill="#57863a" d="M93.99 91.75c3.72-4.27 6.64-9.17 9.04-14.28a27.857 27.857 0 0 0 8.31 13.67c-5.79.09-11.59.08-17.35.61z"/><path d="M59.36 87.43c4.41 2.64 8.02 6.33 11.56 10-4.47.23-8.93-.2-13.34-.86.49 2.01 1.1 3.98 1.92 5.88-1.82 1.78-3.68 3.53-5.57 5.25-2.59-2.93-5.55-5.51-8.29-8.3 3.81-1.01 7.75-1.42 11.69-1.51-.93-.73-1.86-1.47-2.78-2.22 1.41-2.86 3.03-5.6 4.81-8.24zm67.93 48.4c4.93 3.01 9.13 7.05 12.93 11.36-4.47.19-8.97-.02-13.35-1.03-.55.21-1.65.63-2.2.83-1.02-.67-2.04-1.35-3.03-2.06 1.96-2.99 3.84-6.02 5.65-9.1zm-15.47 13.52c4.45-1.25 9.06-1.7 13.67-1.82.54 1.51 1.09 3.01 1.65 4.52-2.25 1.88-4.49 3.79-6.7 5.72-2.68-3-5.78-5.58-8.62-8.42z" fill="#6e983e"/><path fill="#67923c" d="M4.62 104.65c4.7-5.49 10.82-9.36 16.35-13.9 1.39 1.43 2.67 2.97 3.95 4.5-.3.47-.88 1.42-1.17 1.89 2.15.11 4.31.23 6.46.33-2.01.96-4.07 1.87-5.94 3.12.62 3.05 4.07 4.76 5.98 7.12-1.7 1.62-3.41 3.24-5.13 4.85-2.11-3.54-6.01-5.45-8.12-9.01-.06.01-.16.03-.21.04-3.93 1.3-8.08 1.29-12.17 1.06z"/><path fill="#6d973d" d="M175.74 100.75c3.89 2.49 7.09 5.85 10.26 9.16-4.4.19-8.79-.12-13.13-.83.32 1.77.79 3.5 1.51 5.16-1.79 1.93-3.61 3.84-5.44 5.73-2.52-2.89-5.45-5.37-8.22-8 3.82-.97 7.75-1.52 11.7-1.56-.44-.36-1.3-1.09-1.74-1.45 1.51-2.84 3.3-5.52 5.06-8.21z"/><path fill="#558439" d="M59.5 102.45c1.59 2.56 3.21 5.1 5.1 7.45-4.54 3.27-9.33 6.4-14.77 7.92-12 3.26-25.49 1.18-35.42-6.5.84-2.49 3.39-5 2.38-7.73.05-.01.15-.03.21-.04 2.11 3.56 6.01 5.47 8.12 9.01.17.23.5.71.67.94 4.03 1.05 8.14 1.75 12.23 2.51 3.83.96 7.33-1.46 10.8-2.65-1.36-1.71-2.71-3.43-4.06-5.14 3.51.36 7.02.75 10.54 1.08-.34-.4-1.02-1.2-1.37-1.6 1.89-1.72 3.75-3.47 5.57-5.25z"/><path opacity=".71" d="M124.13 104.59c1.41-.44 1.94.03 1.6 1.4-1.41.44-1.95-.03-1.6-1.4z"/><path fill="#65913c" d="M123.24 113.47c3.98-3.52 8.38-6.48 12.58-9.72.62 3.65 2.84 6.57 6.15 8.19-1.12.46-2.24.92-3.37 1.38 2.16 2.35 4.38 4.63 6.65 6.86-1.74 1.91-3.54 3.78-5.38 5.61-2.84-1.81-5.65-3.74-8.89-4.79l-.59-.22 1.62-1.83c2.98-2.16-1.87-4.61-2.54-1.41-2.06-1.39-4.18-2.67-6.23-4.07z"/><path fill="#467837" d="M64.6 109.9c2.64 2.3 5.2 4.69 7.78 7.05-4.74.02-9.47.01-14.21.07 1.34 2.4 2.67 4.81 3.98 7.23-6.49-.74-12.97-1.46-19.46-2.15-3.27-.34-6.53-.74-9.79-1.08-6.44-.66-12.74 1.36-19.13 1.83 1.38-1.51 2.78-2.99 4.2-4.45-2.39-.34-4.77-.69-7.15-1.04 1.12-2.06 2.29-4.09 3.48-6.12l.11.08c9.93 7.68 23.42 9.76 35.42 6.5 5.44-1.52 10.23-4.65 14.77-7.92z"/><path fill="#4e7e38" d="M174.38 114.24c2.93 6.17 7.97 10.81 13.08 15.18-4.72.06-9.44.03-14.16.06 1.33 2.44 2.68 4.87 4.04 7.3-6.53-.7-13.04-1.46-19.57-2.14-3.19-.35-6.37-.74-9.56-1.09-6.5-.65-12.89 1.33-19.32 1.94 1.39-1.46 2.78-2.92 4.18-4.37-2.26-.52-4.54-.91-6.84-1.15.2-.96.4-1.92.59-2.88.99-1.19 1.85-2.46 2.75-3.71.59-.72 1.06-1.51 1.41-2.38 3.24 1.05 6.05 2.98 8.89 4.79 4.41 1.26 8.94 2.01 13.45 2.83 3.88.8 7.47-1.28 10.78-3-1.34-1.52-2.67-3.03-4.01-4.54 3.46.23 6.93.49 10.39.71-.38-.46-1.16-1.37-1.54-1.82 1.83-1.89 3.65-3.8 5.44-5.73z"/><path fill="#1b250f" d="M126.7 122.43a9.618 9.618 0 0 1 3.69-1.65l.59.22c-.35.87-.82 1.66-1.41 2.38-.72-.24-2.15-.72-2.87-.95z"/><path fill="#749d3f" d="M84.45 139.33c1.56 1.76 2.65 3.85 3.67 5.95.14.27.43.8.57 1.06 1.93.38 3.89.62 5.85.9-2.69 1.44-5.33 2.97-7.89 4.62-3.6-1.47-6.22-4.35-8.23-7.59 2.11-1.52 4.09-3.22 6.03-4.94z"/><path fill="#5c8a3b" d="M65.71 155.39c3.8-4.16 7.87-8.17 12.71-11.12 2.01 3.24 4.63 6.12 8.23 7.59 3.04 1.74 5.51 4.27 8 6.7-2.17 2.1-4.31 4.22-6.4 6.39 4.9 1.02 9.81 2.06 14.74 2.95 4.36 1.14 8.39-1.4 12.34-2.84-1.5-1.97-3.01-3.94-4.51-5.91 3.94.43 7.87.87 11.82 1.25-.55-.66-1.65-1.97-2.2-2.63 2.21-1.93 4.45-3.84 6.7-5.72 1.45 2.47 2.93 4.94 4.52 7.34-3.39 3.93-7.89 6.67-12.74 8.41-5.99 2.43-12.58 2.1-18.91 2.03-8.2-.09-16.14-3.45-22.45-8.59 1.23-2.23 2.17-4.6 2.78-7.08a49.322 49.322 0 0 1-14.63 1.23z"/><path fill="#497a37" d="M131.66 159.39c3.25 3.34 6.7 6.48 10.22 9.54-5.32.03-10.64-.01-15.96.09 1.48 2.74 2.99 5.47 4.51 8.2-7.28-.74-14.54-1.59-21.81-2.37-3.66-.39-7.31-.81-10.96-1.24-7.3-.82-14.49 1.56-21.73 2.19 1.64-1.68 3.26-3.38 4.86-5.1-2.7-.41-5.4-.8-8.1-1.19 1.67-2.73 3.26-5.51 4.87-8.27 6.31 5.14 14.25 8.5 22.45 8.59 6.33.07 12.92.4 18.91-2.03 4.85-1.74 9.35-4.48 12.74-8.41z"/></svg>