<svg width="256pt" height="256pt" viewBox="0 0 256 256" xmlns="http://www.w3.org/2000/svg"><path fill="#c1e5fe" d="M96.88 3.47C110.93.04 125.54-.44 139.92.51c26.24 1.87 51.67 12.69 71.33 30.15-3.96 2.14-7.57 4.86-11.52 7.02-.83 1.5-1.11 3.22-1.55 4.87-1.71.05-3.46-.05-5.12.46-1.1.99-1.95 2.2-2.87 3.35-2.87-1-5.9-2.21-8.98-1.47-3.43 1.02-6.52 3.24-10.2 3.3-11 .58-22.05.56-33.04-.37-7.31-.79-14.61.9-21.94.3-7.68-.73-15.37.91-23.04-.07-7.27-.79-14.61-.42-21.88.21-2.54-.11-2.97 2.69-3.97 4.41l-1.41-1.59c.27-.95.55-1.9.78-2.86-.06-.18-.18-.55-.23-.73-.95-2.19-1.96-4.34-2.98-6.5-2.68-.77-4.73-2.63-6.85-4.33-1.94-.85-3.94.6-5.66 1.36-.7 1.36-1.28 2.77-1.92 4.15.65 1.16 1.33 2.32 1.96 3.5-3.23.14-6.44-.41-9.33-1.9-.36-2.29-.82-4.58-1.75-6.71l-.52-1.35C55.01 19.95 75.14 8.53 96.88 3.47z"/><path d="M199.73 37.68c3.95-2.16 7.56-4.88 11.52-7.02 8.52 7.54 16.32 15.94 22.76 25.34-4.08.32-7.98-.85-10.82-3.87-2.27 2.17-5.19 3.09-8.29 2.9-1.42 2.42-2.43 5.46-5.13 6.77-2.42 1.41-5.22.31-7.73-.16-3.52.87-6.25 3.11-8.49 5.85-3.73 2.4-6.9-2.62-10.71-2.11-2.41.06-3.86 2.3-5.95 3.16-3.37.03-6.76-.21-10.08.55-.29-.47-.87-1.41-1.16-1.87 1.21-2.85 2.2-5.79 3.05-8.77 1.31-.65 2.62-1.33 3.94-1.98 1.26-4.86 4.32-8.94 8.57-11.58 3.08-.74 6.11.47 8.98 1.47.92-1.15 1.77-2.36 2.87-3.35 1.66-.51 3.41-.41 5.12-.46.44-1.65.72-3.37 1.55-4.87zm-42.66 44.03c3.05-2.38 6.77-5.61 10.91-3.77 3.8.83 4.04 5.08 4.83 8.16 1.11.83 2.32 1.56 3.31 2.54.42 1.56.41 3.19.52 4.79.4.27 1.19.8 1.59 1.06 2.53-.59 5.15-.83 7.65.04-3.72 3.11-7.38 6.44-11.89 8.35-9.59 4.22-19.21 8.34-28.91 12.29-7.35 2.45-13.6 7.09-20.38 10.7-.91-.63-1.82-1.26-2.73-1.88-2.23 1.42-4.37 2.99-6.72 4.22-2.43 1.2-5.5-.44-7.77 1.26-5.96 4.19-11.58 8.89-17.86 12.63-1.54.37-3.07.75-4.6 1.12-5 .5-9.95-.67-14.94-.68-9.23-.14-18.46-.05-27.7.05-5.56-3.78-9.67-9.11-13.66-14.42-4.64 1.63-8.62 4.58-11.94 8.16-5.65-3.82-11.08-7.94-16.78-11.68v-.16c.4-12.14 2.03-24.31 5.72-35.92 1.21 3.51 2.84 7.52 6.61 8.93 3.27-.04 6.98-2.24 9.87.23 1.98 1.92 2.38 4.87 4.01 7.03 2.31 1.69 5.36 1.79 7.81 3.21.98 1.09 1.73 2.38 2.54 3.61 1.82.32 3.65.61 5.47.9 1.67-2.14 3.76-3.99 5.12-6.36-1.64-3.01-3.26-6.06-3.72-9.5-2.68-.7-6.47-.45-7.57-3.62-1.62-4.75.93-9.59 2.48-14.01 3.05-1.8 6.61.24 9.66 1.06 2.63.54 3.52 3.29 4.83 5.28 2.18.4 4.36.77 6.54 1.18 1.4 2.58 3.32 4.81 5.82 6.37.55 1.38 1.06 2.77 1.58 4.17 1.41 1.01 2.76 2.1 4.17 3.11 4.13-1.6 9.07-3.02 13.09-.32 3.3 1.72 3.85 5.67 4.72 8.91 3.34 1.65 5.71-1.09 8.34-2.64 1.75-.16 3.49.11 5.23.22 1.87-2.14 3.56-5.09 6.68-5.44 3.28-.03 6.61.8 9.86-.01 3.07-.51 4.79-3.59 7.66-4.5 2.9-.6 5.75.53 8.51 1.26.98-1.21 2.06-2.36 2.84-3.71.84-2.65-.41-6.06 1.92-8.13 2.28-2.25 5.7-2.14 8.66-2.42.97-1.1 1.9-2.23 2.86-3.33 1.92.55 3.84 1.1 5.76 1.66z" fill="#fff"/><path d="M50.79 38.02c1.72-.76 3.72-2.21 5.66-1.36 2.12 1.7 4.17 3.56 6.85 4.33 1.02 2.16 2.03 4.31 2.98 6.5-.84.73-1.59 1.54-2.49 2.19-3.55-.08-7.01-1.08-10.56-1.18-.99-3.45-1.8-6.95-2.44-10.48zm-26.7 14.67c4.54-6.09 9.68-11.71 15.14-16.98l.52 1.35c-.13 2.33-.59 4.63-1.15 6.89 2.01 1.21 6.26 2.15 4.82 5.35-1.52 1.08-3.27 1.74-4.94 2.54-1.39 2.26-2.15 6.06-5.47 5.98-3.78.32-6.32-2.93-8.92-5.13zm165.4 23.53c4.57.52 9.17 1.24 13.77.55 3.82.22 8.11.46 11.2 2.99-2.61 1.78-5.11 4.01-8.28 4.68-3.11.69-6.21 1.41-9.33 1.99l-.74-.23c-2.63-.81-5.34-1.32-8.05-1.76-.05-2.81.55-5.56 1.43-8.22zm50.74 1.99c1.52-1.11 3.55-1.18 5.31-1.77 1.07 2.54 2.13 5.08 3.07 7.67l.13 1c-6.18 3.96-12.54 7.63-18.68 11.65-.75-2.57-2.13-5.58-.26-8.02 2.23-1.89 5.52-2.16 7.47-4.43 1.29-1.88 1.82-4.14 2.96-6.1z" fill="#fffefe"/><path fill="#d0ecff" d="M39.75 37.06c.93 2.13 1.39 4.42 1.75 6.71 2.89 1.49 6.1 2.04 9.33 1.9-.63-1.18-1.31-2.34-1.96-3.5.64-1.38 1.22-2.79 1.92-4.15.64 3.53 1.45 7.03 2.44 10.48 3.55.1 7.01 1.1 10.56 1.18.9-.65 1.65-1.46 2.49-2.19.05.18.17.55.23.73-.23.96-.51 1.91-.78 2.86l1.41 1.59c1-1.72 1.43-4.52 3.97-4.41 7.27-.63 14.61-1 21.88-.21 7.67.98 15.36-.66 23.04.07 7.33.6 14.63-1.09 21.94-.3 10.99.93 22.04.95 33.04.37 3.68-.06 6.77-2.28 10.2-3.3-4.25 2.64-7.31 6.72-8.57 11.58-1.32.65-2.63 1.33-3.94 1.98-.85 2.98-1.84 5.92-3.05 8.77.29.46.87 1.4 1.16 1.87 3.32-.76 6.71-.52 10.08-.55 2.09-.86 3.54-3.1 5.95-3.16 3.81-.51 6.98 4.51 10.71 2.11 2.24-2.74 4.97-4.98 8.49-5.85 2.51.47 5.31 1.57 7.73.16 2.7-1.31 3.71-4.35 5.13-6.77 3.1.19 6.02-.73 8.29-2.9 2.84 3.02 6.74 4.19 10.82 3.87 4.46 6.43 8.44 13.24 11.53 20.44-1.76.59-3.79.66-5.31 1.77-1.14 1.96-1.67 4.22-2.96 6.1-1.95 2.27-5.24 2.54-7.47 4.43-1.87 2.44-.49 5.45.26 8.02-5.03 3.34-10.21 6.45-15.27 9.75-2.45-1.97-5.01-3.8-7.43-5.81-4.24-4.16-7.4-9.25-10.51-14.27 3.12-.58 6.22-1.3 9.33-1.99 3.17-.67 5.67-2.9 8.28-4.68-3.09-2.53-7.38-2.77-11.2-2.99-4.6.69-9.2-.03-13.77-.55-.88 2.66-1.48 5.41-1.43 8.22 2.71.44 5.42.95 8.05 1.76l-.39.43c-3.21 2.72-6.61 5.21-9.84 7.9-2.5-.87-5.12-.63-7.65-.04-.4-.26-1.19-.79-1.59-1.06-.11-1.6-.1-3.23-.52-4.79-.99-.98-2.2-1.71-3.31-2.54-.79-3.08-1.03-7.33-4.83-8.16-4.14-1.84-7.86 1.39-10.91 3.77-1.92-.56-3.84-1.11-5.76-1.66-.96 1.1-1.89 2.23-2.86 3.33-2.96.28-6.38.17-8.66 2.42-2.33 2.07-1.08 5.48-1.92 8.13-.78 1.35-1.86 2.5-2.84 3.71-2.76-.73-5.61-1.86-8.51-1.26-2.87.91-4.59 3.99-7.66 4.5-3.25.81-6.58-.02-9.86.01-3.12.35-4.81 3.3-6.68 5.44-1.74-.11-3.48-.38-5.23-.22-2.63 1.55-5 4.29-8.34 2.64-.87-3.24-1.42-7.19-4.72-8.91-4.02-2.7-8.96-1.28-13.09.32-1.41-1.01-2.76-2.1-4.17-3.11-.52-1.4-1.03-2.79-1.58-4.17-2.5-1.56-4.42-3.79-5.82-6.37-2.18-.41-4.36-.78-6.54-1.18-1.31-1.99-2.2-4.74-4.83-5.28-3.05-.82-6.61-2.86-9.66-1.06-1.6 1.55-2.87 3.39-4.1 5.24-8.94-.51-17.9.09-26.83-.56 3.94-11.09 9.65-21.54 16.68-30.98 2.6 2.2 5.14 5.45 8.92 5.13 3.32.08 4.08-3.72 5.47-5.98 1.67-.8 3.42-1.46 4.94-2.54 1.44-3.2-2.81-4.14-4.82-5.35.56-2.26 1.02-4.56 1.15-6.89z"/><path fill="#d8effe" d="M34.24 84.23c1.23-1.85 2.5-3.69 4.1-5.24-1.55 4.42-4.1 9.26-2.48 14.01 1.1 3.17 4.89 2.92 7.57 3.62.46 3.44 2.08 6.49 3.72 9.5-1.36 2.37-3.45 4.22-5.12 6.36-1.82-.29-3.65-.58-5.47-.9-.81-1.23-1.56-2.52-2.54-3.61-2.45-1.42-5.5-1.52-7.81-3.21-1.63-2.16-2.03-5.11-4.01-7.03-2.89-2.47-6.6-.27-9.87-.23-3.77-1.41-5.4-5.42-6.61-8.93.54-1.64 1.1-3.27 1.69-4.9 8.93.65 17.89.05 26.83.56z"/><path fill="#74a9a9" d="M248.61 84.11c.9 2.44 1.69 4.92 2.36 7.44-4.19 12.19-4.29 25.88-11.84 36.78.17-1.74.38-3.48.57-5.22-5.71 5.5-12.23 10.2-17.3 16.34-1.04-.68-2.1-1.35-3.15-2.01l.4-.78c6.31-5 12.3-10.38 18.54-15.45 4.32-2.77 5.34-7.92 6.31-12.57 1.37-6.36 3.71-12.51 4.54-18.99.12-.69.37-2.08.49-2.77-5.15 1.49-9.11 5.25-13.7 7.82-18.66 11.99-37.36 23.92-56.01 35.93-.56-.14-1.69-.41-2.25-.54 2.92-1.56 5.59-3.52 8.37-5.3 3.25-1.8 6.49-3.62 9.51-5.8 6.43-4.18 13-8.16 19.34-12.48 5.06-3.3 10.24-6.41 15.27-9.75 6.14-4.02 12.5-7.69 18.68-11.65l-.13-1z"/><path fill="#98cfd2" d="M196.11 86.2l.74.23c3.11 5.02 6.27 10.11 10.51 14.27-1.77 3.38-3.52 6.81-6.02 9.73-2.17 2.69-5.13 5.01-5.89 8.56-3.02 2.18-6.26 4-9.51 5.8.67-1.97 1.41-3.92 2.39-5.75 2.84-4.72 6.45-9.14 8.05-14.48.94-5.95.07-12-.66-17.93l.39-.43z"/><path fill="#aedbe0" d="M185.88 94.53c3.23-2.69 6.63-5.18 9.84-7.9.73 5.93 1.6 11.98.66 17.93-1.6 5.34-5.21 9.76-8.05 14.48-.2-.78-.61-2.32-.81-3.09-2.38.17-4.71.67-6.92 1.57-4.06 1.59-8.58 1.58-12.56 3.44-6.32 2.76-12.71 5.37-19.01 8.17-2.18.91-4 2.47-5.51 4.27-2.54 3.14-5.45 5.95-8.37 8.74.21-1.14.41-2.27.55-3.41-.23-.2-.7-.59-.93-.78-2.59-1.46-5.6-1.47-8.47-1.68 3.09-2.63 6.34-5.07 9.65-7.43-3.21.9-6.15 2.52-8.68 4.69-3.64-.36-7.24-1.16-10.57-2.71 2.62-1.72 5.26-3.42 8-4.95 6.78-3.61 13.03-8.25 20.38-10.7 9.7-3.95 19.32-8.07 28.91-12.29 4.51-1.91 8.17-5.24 11.89-8.35z"/><path fill="#a1d1d5" d="M235.83 94.7c4.59-2.57 8.55-6.33 13.7-7.82-.12.69-.37 2.08-.49 2.77-3.75 8.06-5.15 16.94-8.25 25.23-.53 1.71-2.34 2.35-3.79 3.08-5.26 2.25-10.63 4.26-16.16 5.74 3.85-7.09 9.88-12.77 13.26-20.15-4.68 2.67-7.99 7.01-12.06 10.44-8.85 7.73-17.39 15.8-26.11 23.68-3.26 3.7-8.47 3.52-12.95 4.3-7.98.9-15.88 2.7-23.94 2.75 6.86-4.8 14.32-8.73 20.78-14.09 18.65-12.01 37.35-23.94 56.01-35.93z"/><path fill="#94bfc5" d="M240.79 114.88c3.1-8.29 4.5-17.17 8.25-25.23-.83 6.48-3.17 12.63-4.54 18.99-.97 4.65-1.99 9.8-6.31 12.57-6.24 5.07-12.23 10.45-18.54 15.45-.79.47-1.59.93-2.39 1.38-2.85 1.45-5.59 3.13-7.86 5.4 1.33-9.05 5.69-17.41 10.98-24.78-7.23 5.65-13.04 12.85-19.73 19.1-1.57-.04-3.15-.07-4.72-.09 8.72-7.88 17.26-15.95 26.11-23.68 4.07-3.43 7.38-7.77 12.06-10.44-3.38 7.38-9.41 13.06-13.26 20.15 5.53-1.48 10.9-3.49 16.16-5.74 1.45-.73 3.26-1.37 3.79-3.08z"/><path fill="#9bc4c3" d="M239.13 128.33c7.55-10.9 7.65-24.59 11.84-36.78 2.91 10.74 4.69 21.79 5.03 32.91v7.17c-.18 4.42-.53 8.85-1.1 13.24-1.4 5.92-8.26 6.69-12.66 9.58-6.52-5.11-12.96-10.36-19.84-15 5.07-6.14 11.59-10.84 17.3-16.34-.19 1.74-.4 3.48-.57 5.22z"/><path fill="#addbe0" d="M207.36 100.7c2.42 2.01 4.98 3.84 7.43 5.81-6.34 4.32-12.91 8.3-19.34 12.48.76-3.55 3.72-5.87 5.89-8.56 2.5-2.92 4.25-6.35 6.02-9.73z"/><path fill="#b6dee2" d="M180.6 117.52c2.21-.9 4.54-1.4 6.92-1.57.2.77.61 2.31.81 3.09-.98 1.83-1.72 3.78-2.39 5.75-2.78 1.78-5.45 3.74-8.37 5.3-4.56 2.25-8.61 5.36-13.08 7.78-1.67.22-3.35.33-5.03.47-.62-.47-1.23-.94-1.85-1.41-.59.17-1.18.34-1.76.52-.95-1.02-1.78-2.17-2.94-2.97-3.06-.76-6.27-.72-9.39-1.08 1.51-1.8 3.33-3.36 5.51-4.27 6.3-2.8 12.69-5.41 19.01-8.17 3.98-1.86 8.5-1.85 12.56-3.44z"/><path fill="#7dada4" d="M200.65 137.76c6.69-6.25 12.5-13.45 19.73-19.1-5.29 7.37-9.65 15.73-10.98 24.78-1.3 1.31-3 2.03-4.72 2.57 2.44-4.89 4.82-9.84 6.35-15.11-4.82 4.35-9.03 9.3-13.4 14.08-6.92 5.3-15.63 7.43-22.99 12.02-.99-.52-1.95-1.08-2.91-1.65 5.76-2.92 11.77-5.31 17.68-7.9 4.73-1.92 7.77-6.18 11.24-9.69z"/><path fill="#b5e4e8" d="M115.25 128.21c2.35-1.23 4.49-2.8 6.72-4.22.91.62 1.82 1.25 2.73 1.88-2.74 1.53-5.38 3.23-8 4.95-5.87 3.76-11.87 7.32-18.17 10.3-2.97.35-5.95.61-8.91.98 6.28-3.74 11.9-8.44 17.86-12.63 2.27-1.7 5.34-.06 7.77-1.26z"/><path fill="#9dcac0" d="M0 124.65c5.7 3.74 11.13 7.86 16.78 11.68 4.07 2.72 7.98 5.8 12.57 7.61 8.56 2.94 17.44 4.96 26.39 6.27 5.54 1.28 11.17 2.2 16.66 3.7-6.02 1.67-12.39 2.44-18.63 1.95-.11.23-.32.69-.42.93-5.91.94-11.96 1.92-17.34 4.69-1.72-1.77-3.41-3.57-5.33-5.13-.71-.18-1.42-.36-2.13-.52l.39-2c-5.9.01-11.66-1.9-17.59-1.16-3.13-2.44-6.52-4.54-10.15-6.14-.4-3.07-.7-6.15-.9-9.24 5.61 1.43 11.4 2.19 17.19 1.87-5.39-4.92-11.66-8.75-17.49-13.11v-1.4z"/><path fill="#a6dde2" d="M0 126.05c5.83 4.36 12.1 8.19 17.49 13.11-5.79.32-11.58-.44-17.19-1.87-.13-1.9-.22-3.79-.3-5.69v-5.55z"/><path fill="#b5e5e9" d="M16.78 136.33c3.32-3.58 7.3-6.53 11.94-8.16 3.99 5.31 8.1 10.64 13.66 14.42-4.37.02-8.76.33-13.03 1.35-4.59-1.81-8.5-4.89-12.57-7.61z"/><path fill="#9acbba" d="M127.27 133.53c2.53-2.17 5.47-3.79 8.68-4.69-3.31 2.36-6.56 4.8-9.65 7.43-6.76 5.48-13.15 11.38-19.86 16.92-1.02-.74-2.05-1.45-3.09-2.15 3.46-2.95 7.28-5.42 11-8.04 4.37-3.07 8.75-6.14 12.92-9.47z"/><path fill="#98c2b4" d="M164.49 137.87c4.47-2.42 8.52-5.53 13.08-7.78.56.13 1.69.4 2.25.54-6.46 5.36-13.92 9.29-20.78 14.09 8.06-.05 15.96-1.85 23.94-2.75 4.48-.78 9.69-.6 12.95-4.3 1.57.02 3.15.05 4.72.09-3.47 3.51-6.51 7.77-11.24 9.69-5.91 2.59-11.92 4.98-17.68 7.9-2.73.23-5.39-.52-8-1.2-.98-.96-1.91-1.99-3.03-2.78-2.89.21-5.74.85-8.58 1.37-2.67.51-4.49 3.02-7.08 3.61-5.35-.38-10.59-1.84-15.97-2.02-3.3-.03-6.45-1.09-9.34-2.61 4.8-4.83 10.32-8.87 15.04-13.77.23.19.7.58.93.78-.14 1.14-.34 2.27-.55 3.41-.35.48-1.06 1.46-1.42 1.94 2.6-.51 5.22-.85 7.86-1.02.37 1.67.72 3.34 1.13 5 .14.51.41 1.54.55 2.06 8.39-1.38 16.85-2.31 25.24-3.68-5.48-1.44-11.21-.39-16.79-.49 4.32-2.59 8.54-5.35 12.77-8.08m-37.6 13.87c4.22-.16 8.65-.46 12.42-2.54 1.25-1.34 1.31-3.23 1.47-4.94-5.34.45-12.05 1.57-13.89 7.48z"/><path fill="#abd7d3" d="M98.53 141.12c6.3-2.98 12.3-6.54 18.17-10.3 3.33 1.55 6.93 2.35 10.57 2.71-4.17 3.33-8.55 6.4-12.92 9.47-5.18-1.31-10.51-1.68-15.82-1.88z"/><path fill="#a9d3cb" d="M197.63 144.98c4.37-4.78 8.58-9.73 13.4-14.08-1.53 5.27-3.91 10.22-6.35 15.11-.73.25-1.46.51-2.17.79-1.63-.61-3.25-1.22-4.88-1.82z"/><path fill="#b5dcd7" d="M135.15 142.14c2.92-2.79 5.83-5.6 8.37-8.74 3.12.36 6.33.32 9.39 1.08 1.16.8 1.99 1.95 2.94 2.97.58-.18 1.17-.35 1.76-.52.62.47 1.23.94 1.85 1.41 1.68-.14 3.36-.25 5.03-.47-4.23 2.73-8.45 5.49-12.77 8.08-2.99.72-5.99 1.42-9 2.11-.41-1.66-.76-3.33-1.13-5-2.64.17-5.26.51-7.86 1.02.36-.48 1.07-1.46 1.42-1.94z"/><path fill="#aed7cb" d="M106.44 153.19c6.71-5.54 13.1-11.44 19.86-16.92 2.87.21 5.88.22 8.47 1.68-4.72 4.9-10.24 8.94-15.04 13.77-1.58 1.4-3.6 1.98-5.69 1.91-3.83-.03-7.38 1.48-10.95 2.65 1.14-1.01 2.24-2.06 3.35-3.09z"/><path d="M217.26 138.04c.8-.45 1.6-.91 2.39-1.38l-.4.78c.2 1.97.71 3.9 1.41 5.75 3.41 8.7 6.35 17.58 9.98 26.19.7 1.82 2.11 3.2 3.71 4.26 3.51 2.42 7.09 4.74 10.55 7.24-1.26 2.8-2.64 5.55-4.15 8.22-1.65-1.38-3.21-3.9-5.69-3.41-6.47.99-13.25 1.39-19.46-1.08 1.96-6.71 5.62-13.34 4.63-20.54-.72-7.7-.4-15.48-1.78-23.11-.06 7.66-.28 15.33-.61 22.98.27 8.1-4.9 14.79-7.59 22.08-3.04.68-6.14 1.11-9.26 1.21-5.62 0-10.47 3.34-15.99 3.96.14-2.76.38-5.52.75-8.26 4.89-1.87 11.45-1.66 14.4-6.72 3.7-5.43 7.76-10.63 11.04-16.34-5.73 5.38-9.69 12.48-15.75 17.48-10.77 4.09-22.17 6.32-33.08 10.03-8.27-1.09-16.69-1.14-24.82-3.18 9.11-.63 18.37 2.12 27.34-.37 8.43-2.22 16.86-4.49 25.31-6.61 2.48-.49 4.47-2.11 6.03-4.02 5.49-6.49 11.11-12.87 16.64-19.33 3.91-4.28 3.63-10.46 4.4-15.83m-12.08 35.24c-1.63 2.27-3.06 4.67-4.18 7.23 2.95.91 5.94 1.67 8.95 2.36 3.72-7.34 7.42-15.6 5.03-23.97-3.65 4.53-6.48 9.62-9.8 14.38zm37.06-18.83c4.4-2.89 11.26-3.66 12.66-9.58-1.35 10.05-3.6 20.04-7.28 29.51-2.23-6.52-3.48-13.31-5.38-19.93z" fill="#6f8f9a"/><path d="M209.4 143.44c2.27-2.27 5.01-3.95 7.86-5.4-.77 5.37-.49 11.55-4.4 15.83-5.53 6.46-11.15 12.84-16.64 19.33-1.56 1.91-3.55 3.53-6.03 4.02-8.45 2.12-16.88 4.39-25.31 6.61-8.97 2.49-18.23-.26-27.34.37-6.58-1.05-13.48-.61-19.7-3.36 1.71-.87 3.58-1.37 5.47-1.71 1.89.3 3.85.6 5.72 0 9.74-2.7 19.61-4.87 29.33-7.64 5.6-1.65 11.62-2.29 16.69-5.38 3.61-2.22 7.6-4.16 10.04-7.77.34-.35 1.03-1.05 1.37-1.4 5.49-3.15 10.76-6.66 16.05-10.14.71-.28 1.44-.54 2.17-.79 1.72-.54 3.42-1.26 4.72-2.57zm-4.22 29.84c3.32-4.76 6.15-9.85 9.8-14.38 2.39 8.37-1.31 16.63-5.03 23.97-3.01-.69-6-1.45-8.95-2.36 1.12-2.56 2.55-4.96 4.18-7.23z" fill="#80a6b3"/><path fill="#44626d" d="M220.66 143.19c-.7-1.85-1.21-3.78-1.41-5.75 1.05.66 2.11 1.33 3.15 2.01 6.88 4.64 13.32 9.89 19.84 15 1.9 6.62 3.15 13.41 5.38 19.93-.86 2.19-1.77 4.35-2.72 6.5-3.46-2.5-7.04-4.82-10.55-7.24-1.6-1.06-3.01-2.44-3.71-4.26-3.63-8.61-6.57-17.49-9.98-26.19z"/><path fill="#a8d4c5" d="M89.62 142.1c2.96-.37 5.94-.63 8.91-.98 5.31.2 10.64.57 15.82 1.88-3.72 2.62-7.54 5.09-11 8.04-7.47-2.09-15.33-2.25-22.78-4.42 1.32-1.32 2.73-2.6 4.45-3.4 1.53-.37 3.06-.75 4.6-1.12z"/><path fill="#44626a" d="M218.45 140.96c1.38 7.63 1.06 15.41 1.78 23.11.99 7.2-2.67 13.83-4.63 20.54-1.49 1.47-2.94 3-4.53 4.38-.57.08-1.7.25-2.27.34.48-1.11.97-2.21 1.45-3.31 2.69-7.29 7.86-13.98 7.59-22.08.33-7.65.55-15.32.61-22.98z"/><path fill="#b3eaff" d="M42.38 142.59c9.24-.1 18.47-.19 27.7-.05 4.99.01 9.94 1.18 14.94.68-1.72.8-3.13 2.08-4.45 3.4 7.45 2.17 15.31 2.33 22.78 4.42 1.04.7 2.07 1.41 3.09 2.15-1.11 1.03-2.21 2.08-3.35 3.09l-1.01.62c.31.29.95.88 1.26 1.17 5.02 6.83 14.74 7.01 20.14 13.4 1.85 1.92 1.69 4.72 1.87 7.18l-2.04.48c-1.89.34-3.76.84-5.47 1.71-6.62 4.97-12.86 10.46-18.82 16.19l1.56 1.04c2.38 1.98 4.91 3.92 6.7 6.48.82 2.35.16 4.95.14 7.38 0 .83.06 1.67.02 2.51.78 1.55 1.7 3.02 2.54 4.53 2.07 4.42 1.87 10.86 6.98 13.1 12.8 6.3 25.63 12.54 38.31 19.08l.36 1.98c-3.76.72-7.53 1.41-11.33 1.88-1.62-1.43-3.09-3.49-5.43-3.64-3.56-.45-7.01.73-10.39 1.67-.04-.8-.11-2.4-.15-3.2-1.89-1.49-4.09-2.4-6.51-2.37-.77-1.85-2.39-2.76-4.29-3.08-.65-2.07-.67-4.89-3.07-5.75-2.71-1.23-5.35.41-7.5 1.94-2.18-.27-4.49-1.08-6.62-.15-1.76.81-3.04 2.35-4.45 3.63-.66-.75-1.32-1.49-1.97-2.22-1.06-.07-2.11-.12-3.16-.17-.54-1.75-.56-3.98-2.29-5.04-1.5-.26-3.03-.18-4.54-.22-.37-.46-1.09-1.38-1.46-1.83-.58 0-1.75.02-2.33.03-.67-2.03-.89-4.63-3.03-5.71-2.56-1.54-5.56-.28-8.18.37-1.09-.81-2.17-1.62-3.23-2.45-1.19-1.91-3-2.81-5.23-2.3-1.49-2.13-4.02-4.27-3.16-7.18 4.55-3.91 10.93-4.23 16.02-7.14 1.57-.63 1.28-2.5 1.72-3.83-6.13-2.21-12.71-2.45-18.95-4.21-1.49-1.58-4.29-3.08-3.57-5.64 1.09-2.12 3.16-3.5 5.21-4.59 12.92-6.49 27.33-9.35 40.19-15.96 2.68-1.22 4.29-4.13 3.17-6.99-2.53-2.59-5.77-4.29-8.49-6.65-.73-1.57.16-3.3.31-4.91 2.21-.22 4.12-1.43 6.01-2.5-3.12-3.16-7.82-2.88-11.89-3.35-10.41-.95-20.85-1.23-31.3-1.36-8.95-1.31-17.83-3.33-26.39-6.27 4.27-1.02 8.66-1.33 13.03-1.35z"/><path fill="#9dced3" d="M126.89 151.74c1.84-5.91 8.55-7.03 13.89-7.48-.16 1.71-.22 3.6-1.47 4.94-3.77 2.08-8.2 2.38-12.42 2.54z"/><path fill="#9bc5b2" d="M174.64 157c7.36-4.59 16.07-6.72 22.99-12.02 1.63.6 3.25 1.21 4.88 1.82-5.29 3.48-10.56 6.99-16.05 10.14-3.95-1.03-7.9.91-11.82.06z"/><path fill="#79ab99" d="M142.72 148.06c3.01-.69 6.01-1.39 9-2.11 5.58.1 11.31-.95 16.79.49-8.39 1.37-16.85 2.3-25.24 3.68-.14-.52-.41-1.55-.55-2.06z"/><path fill="#8cb2ba" d="M1.2 146.53c3.63 1.6 7.02 3.7 10.15 6.14 3.44 2.5 6.66 5.54 10.71 7.04 2.52-.55 4.45-2.43 6.49-3.88.71.16 1.42.34 2.13.52-2.1 1.74-.54 4.38-.1 6.5-3.56.61-7.29 1.21-10.78-.13-4.92-1.73-10.72-2.35-15.16.93-.36-1.26-.69-2.53-.99-3.79 4.17-.09 8.34-.32 12.47-.98-4.71-3.72-9.61-7.19-14.64-10.46l-.28-1.89z"/><path fill="#92c4cb" d="M1.48 148.42c5.03 3.27 9.93 6.74 14.64 10.46-4.13.66-8.3.89-12.47.98-.95-3.77-1.61-7.6-2.17-11.44z"/><path fill="#e4cca3" d="M55.74 150.21c10.45.13 20.89.41 31.3 1.36 4.07.47 8.77.19 11.89 3.35-1.89 1.07-3.8 2.28-6.01 2.5-2.35.29-4.68.74-6.94 1.46-6.12 1.98-12.64 1.33-18.96 1.25-4.36-.02-8.72-.08-13.06-.46 2.46-.8 4.91-1.62 7.33-2.52-2.61-.52-5.29-.45-7.94-.36.1-.24.31-.7.42-.93 6.24.49 12.61-.28 18.63-1.95-5.49-1.5-11.12-2.42-16.66-3.7z"/><path fill="#a8cc62" d="M152.12 152.74c2.84-.52 5.69-1.16 8.58-1.37 1.12.79 2.05 1.82 3.03 2.78 2.61.68 5.27 1.43 8 1.2.96.57 1.92 1.13 2.91 1.65 3.92.85 7.87-1.09 11.82-.06-.34.35-1.03 1.05-1.37 1.4-2.75 1.65-5.53 3.21-8.25 4.9-.62-.41-1.86-1.22-2.48-1.62-4.75.65-9.95 1.66-14.4-.69-1.97-.85-3.76-2.19-5.87-2.66-2.67.31-3.53 3.33-4.92 5.19-2.45.13-4.96.42-7.36-.18-2.13-.76-3.82-2.34-5.85-3.3-5.24 1.74-10.8 1.55-16.15 2.76-.34.6-1.01 1.78-1.34 2.37-5.73-.99-9.3-6.56-15.13-7.04-.31-.29-.95-.88-1.26-1.17l1.01-.62c3.57-1.17 7.12-2.68 10.95-2.65 2.09.07 4.11-.51 5.69-1.91 2.89 1.52 6.04 2.58 9.34 2.61 5.38.18 10.62 1.64 15.97 2.02 2.59-.59 4.41-3.1 7.08-3.61z"/><path fill="#9fc9ab" d="M11.35 152.67c5.93-.74 11.69 1.17 17.59 1.16l-.39 2c-2.04 1.45-3.97 3.33-6.49 3.88-4.05-1.5-7.27-4.54-10.71-7.04z"/><path fill="#94c2c8" d="M30.58 162.85c-.44-2.12-2-4.76.1-6.5 1.92 1.56 3.61 3.36 5.33 5.13 2.32 2.84 5.59 4.76 9.38 4.34-1.1 1.35-2.15 2.74-3.17 4.15-2.15-.43-4.3-.83-6.41-1.43-1.99-1.65-3.85-3.48-5.23-5.69z"/><path d="M36.01 161.48c5.38-2.77 11.43-3.75 17.34-4.69 2.65-.09 5.33-.16 7.94.36-2.42.9-4.87 1.72-7.33 2.52 4.34.38 8.7.44 13.06.46 6.32.08 12.84.73 18.96-1.25 2.26-.72 4.59-1.17 6.94-1.46-.15 1.61-1.04 3.34-.31 4.91 2.72 2.36 5.96 4.06 8.49 6.65-3.25 4.02-8.36 5.39-12.99 7.16-11.22 4.09-22.93 6.66-34.12 10.81-3.6 1.51-7.6 2.89-10.07 6.09-.31 1.39.17 2.81 1.19 3.78 2.91 3.01 7.03 4.35 10.99 5.34 6.24 1.76 12.82 2 18.95 4.21-.44 1.33-.15 3.2-1.72 3.83-5.09 2.91-11.47 3.23-16.02 7.14-.86 2.91 1.67 5.05 3.16 7.18-1.83.34-3.47-.47-4.99-1.39-.13-2.94-1.14-5.7-2.84-8.08l.03-3.72c-4.62-3.97-8.75-8.58-13.86-11.93-1.98-.86-3.98-1.69-5.9-2.68-4.01.71-8.36 2.89-12.22.53.2-.55.59-1.65.79-2.2 5.12-.83 10.49-1.07 15.11-3.7-2.1-.48-4.2-.95-6.31-1.37-3.37-3.11-6.61-6.35-9.91-9.53 4.35-1.86 8.98-3 13.3-4.95 1.48-.99 3.82-1.41 4.31-3.33-.53-1.32-1.32-2.5-2.17-3.63 2.11.6 4.26 1 6.41 1.43.03 1.15.06 2.31.1 3.47 5.27.28 10.66.56 15.76-1.05.3-.64.89-1.93 1.19-2.57 3.23.2 6.47.43 9.72.49 3.45.1 6.6-1.74 10.03-1.85 4.48.53 8.32 3.82 12.95 3.45 2.24 0 3.94-1.56 5.66-2.75-3.79-4.61-9.67-7.26-15.64-7.1-8.31.23-16.72-.51-24.94 1.11.11 1.52.23 3.04.36 4.57 3.07-.17 6.16-.84 9.22-.4.95.85 1.8 1.82 2.66 2.77-3.76-1.01-7.64-1.23-11.5-.77-2.22-1.55-2.49-4.95-3.66-7.34-2.98 1.12-5.92 2.34-8.74 3.82-3.79.42-7.06-1.5-9.38-4.34m18.88 13.41c-3.85 1.17-7.92.99-11.9 1.23.74 2.89.94 6.38 3.27 8.48 2.85.91 5.92-.15 8.75-.71 6.73-1.85 13.49-3.61 20.13-5.76 3.71-1.16 7.6-1.89 10.99-3.87-3.78-2.95-8.79-2.76-13.07-1.1-3.4 1.63-6.6-1.08-9.98-1.21-2.82.71-5.39 2.14-8.19 2.94m-24.81 5.33c-.01 1.93.68 3.69 1.73 5.29 3.77.18 7.57-.82 10.6-3.1.2-1.41.76-3.7-1.33-3.86-3.74-.32-7.65-.24-11 1.67zm70.5 17.85c.68.01 2.02.05 2.69.07 5.36 1.02 10.15 3.97 13.05 8.65 0 .57.01 1.71.01 2.28-2.89 1.18-5.9 2.04-8.91 2.86.02-2.43.68-5.03-.14-7.38-1.79-2.56-4.32-4.5-6.7-6.48z" fill="#d8c198"/><path fill="#d8c197" d="M103.34 158.07c5.83.48 9.4 6.05 15.13 7.04 4.74 1.59 9.49 4.59 11.34 9.46.48 1.46 2.27 1.48 3.45 2.07-2.65.64-5.27 1.36-7.91 2.01-.18-2.46-.02-5.26-1.87-7.18-5.4-6.39-15.12-6.57-20.14-13.4z"/><path fill="#91b247" d="M149.17 163.46c1.39-1.86 2.25-4.88 4.92-5.19 2.11.47 3.9 1.81 5.87 2.66 4.45 2.35 9.65 1.34 14.4.69.62.4 1.86 1.21 2.48 1.62-3.76 2.43-7.88 4.25-12.22 5.36-10.42 2.8-20.91 5.33-31.36 8.04-1.18-.59-2.97-.61-3.45-2.07-1.85-4.87-6.6-7.87-11.34-9.46.33-.59 1-1.77 1.34-2.37 5.35-1.21 10.91-1.02 16.15-2.76 2.03.96 3.72 2.54 5.85 3.3 2.4.6 4.91.31 7.36.18z"/><path d="M176.84 163.24c2.72-1.69 5.5-3.25 8.25-4.9-2.44 3.61-6.43 5.55-10.04 7.77-5.07 3.09-11.09 3.73-16.69 5.38-9.72 2.77-19.59 4.94-29.33 7.64-1.87.6-3.83.3-5.72 0l2.04-.48c2.64-.65 5.26-1.37 7.91-2.01 10.45-2.71 20.94-5.24 31.36-8.04 4.34-1.11 8.46-2.93 12.22-5.36zM9.63 178c3.29.77 6.51 1.78 9.78 2.61-1.89.29-3.79.54-5.69.82 2.15 3.02 4.33 6.26 7.67 8.06 2.85.97 5.94.4 8.89.49 2.11.42 4.21.89 6.31 1.37-4.62 2.63-9.99 2.87-15.11 3.7-.2.55-.59 1.65-.79 2.2-.05.21-.15.62-.2.82-4.32-6.28-7.74-13.13-10.86-20.07z" fill="#6f9088"/><path fill="#446363" d="M195.44 177.35c6.06-5 10.02-12.1 15.75-17.48-3.28 5.71-7.34 10.91-11.04 16.34-2.95 5.06-9.51 4.85-14.4 6.72-7.14 2.06-14.36 3.91-21.34 6.49-.69 1.36-1.39 2.71-2.09 4.06-.51.96-1 1.93-1.47 2.91-.17-.38-.5-1.13-.67-1.51-.2-.46-.61-1.36-.82-1.82.47-.59.91-1.21 1.37-1.81-.5-.14-1.49-.41-1.98-.54 1.21-1.1 2.38-2.25 3.61-3.33 10.91-3.71 22.31-5.94 33.08-10.03z"/><path fill="#a8cb62" d="M4.64 163.65c4.44-3.28 10.24-2.66 15.16-.93 3.49 1.34 7.22.74 10.78.13 1.38 2.21 3.24 4.04 5.23 5.69.85 1.13 1.64 2.31 2.17 3.63-.49 1.92-2.83 2.34-4.31 3.33-.95-.64-1.69-1.75-2.94-1.8-4.59-.61-9.5-.88-13.37-3.76-1.41.67-2.79 1.45-4.31 1.89-2.29-.52-4.39-1.6-6.59-2.39-.64-1.92-1.27-3.84-1.82-5.79z"/><path fill="#84b0b7" d="M45.39 165.82c2.82-1.48 5.76-2.7 8.74-3.82 1.17 2.39 1.44 5.79 3.66 7.34l1.48.48c-.3.64-.89 1.93-1.19 2.57-5.1 1.61-10.49 1.33-15.76 1.05-.04-1.16-.07-2.32-.1-3.47 1.02-1.41 2.07-2.8 3.17-4.15z"/><path d="M57.05 163.17c8.22-1.62 16.63-.88 24.94-1.11 5.97-.16 11.85 2.49 15.64 7.1-1.72 1.19-3.42 2.75-5.66 2.75-4.63.37-8.47-2.92-12.95-3.45-3.43.11-6.58 1.95-10.03 1.85-3.25-.06-6.49-.29-9.72-.49l-1.48-.48c3.86-.46 7.74-.24 11.5.77-.86-.95-1.71-1.92-2.66-2.77-3.06-.44-6.15.23-9.22.4-.13-1.53-.25-3.05-.36-4.57zm-2.16 11.72c2.8-.8 5.37-2.23 8.19-2.94 3.38.13 6.58 2.84 9.98 1.21 4.28-1.66 9.29-1.85 13.07 1.1-3.39 1.98-7.28 2.71-10.99 3.87-6.64 2.15-13.4 3.91-20.13 5.76-2.83.56-5.9 1.62-8.75.71-2.33-2.1-2.53-5.59-3.27-8.48 3.98-.24 8.05-.06 11.9-1.23z" fill="#e5cca3"/><path fill="#90b246" d="M6.46 169.44c2.2.79 4.3 1.87 6.59 2.39 1.52-.44 2.9-1.22 4.31-1.89 3.87 2.88 8.78 3.15 13.37 3.76 1.25.05 1.99 1.16 2.94 1.8-4.32 1.95-8.95 3.09-13.3 4.95l-.96.16c-3.27-.83-6.49-1.84-9.78-2.61-1.19-2.8-2.19-5.68-3.17-8.56z"/><path fill="#ead2ab" d="M101.1 168.98c1.12 2.86-.49 5.77-3.17 6.99-12.86 6.61-27.27 9.47-40.19 15.96-2.05 1.09-4.12 2.47-5.21 4.59-.72 2.56 2.08 4.06 3.57 5.64-3.96-.99-8.08-2.33-10.99-5.34-1.02-.97-1.5-2.39-1.19-3.78 2.47-3.2 6.47-4.58 10.07-6.09 11.19-4.15 22.9-6.72 34.12-10.81 4.63-1.77 9.74-3.14 12.99-7.16z"/><path fill="#92bc4c" d="M30.08 180.22c3.35-1.91 7.26-1.99 11-1.67 2.09.16 1.53 2.45 1.33 3.86-3.03 2.28-6.83 3.28-10.6 3.1-1.05-1.6-1.74-3.36-1.73-5.29z"/><path fill="#80a6b1" d="M13.72 181.43c1.9-.28 3.8-.53 5.69-.82l.96-.16c3.3 3.18 6.54 6.42 9.91 9.53-2.95-.09-6.04.48-8.89-.49-3.34-1.8-5.52-5.04-7.67-8.06z"/><path fill="#719285" d="M99.02 197.03c5.96-5.73 12.2-11.22 18.82-16.19 6.22 2.75 13.12 2.31 19.7 3.36 8.13 2.04 16.55 2.09 24.82 3.18-1.23 1.08-2.4 2.23-3.61 3.33-4.32 3.61-8.73 7.12-13.1 10.66-5.36-3.51-11.84-1.42-17.76-2.18-3.93-.49-7.87-1.11-11.86-.96-4.3.29-8.58-1.97-12.76-.09-.67-.02-2.01-.06-2.69-.07l-1.56-1.04z"/><path fill="#71918c" d="M164.41 189.42c6.98-2.58 14.2-4.43 21.34-6.49-.37 2.74-.61 5.5-.75 8.26 5.52-.62 10.37-3.96 15.99-3.96 3.12-.1 6.22-.53 9.26-1.21-.48 1.1-.97 2.2-1.45 3.31-3.34 1.56-5.17 5.25-8.81 6.43-1.82.72-3.67 1.37-5.51 2.04-.35-1.27-.7-2.53-1.05-3.79-.87 1.71-1.74 3.43-2.61 5.14l-.45-2.97c-9.26-1.79-18.82-.6-28.05-2.7.7-1.35 1.4-2.7 2.09-4.06z"/><path fill="#92bc4e" d="M211.07 188.99c1.59-1.38 3.04-2.91 4.53-4.38 6.21 2.47 12.99 2.07 19.46 1.08 2.48-.49 4.04 2.03 5.69 3.41-11.17 19.95-27.5 36.95-46.97 48.93-3.77-.81-7.12-2.75-10.63-4.26-1.29-.42-2.35-1.36-2.82-2.65-.26-2.09 1.31-3.72 2.2-5.44-.4-1.11-.79-2.22-1.2-3.32-5.19.31-10.46.48-15.44 2.1-1.57-.6-3.11-1.3-4.75-1.64-6.35-1.21-11.72-5.38-18.34-5.57-2.87 1.2-5.95 1.51-8.94.52-2.34.71-4.83 1.44-7.21.44-3.45-1.29-7.12-1.56-10.74-.93-2.84-.89-5.34-2.84-8.47-2.84.04-.84-.02-1.68-.02-2.51 3.01-.82 6.02-1.68 8.91-2.86 0-.57-.01-1.71-.01-2.28 3.88-.31 7.79-.44 11.64-1.07 2.5-.34 4.61-1.87 7.04-2.46 2.23-.14 4.32.81 6.37 1.57l1.28.48c1.23.27 2.47.43 3.71.6 2.1.26 4.27.53 6.14 1.6 1.77.96 3.44 2.17 5.39 2.78 2.74.2 5.41-.83 8.16-.64 3.76.48 7.01 3.38 10.91 2.93 3.68-1.45 7.29-3.11 11.09-4.29 2.18-.49 3.09-2.71 4.3-4.33 1.03-.22 2.06-.43 3.09-.65 1.13-2.72 2.28-5.55 4.55-7.55 3.64-1.18 5.47-4.87 8.81-6.43.57-.09 1.7-.26 2.27-.34z"/><path fill="#456945" d="M145.65 201.37c4.37-3.54 8.78-7.05 13.1-10.66.49.13 1.48.4 1.98.54-.46.6-.9 1.22-1.37 1.81-4.01 4.6-8.79 8.44-13 12.85-1.24-.17-2.48-.33-3.71-.6l-1.28-.48c1.42-1.15 2.85-2.31 4.28-3.46z"/><path fill="#719573" d="M146.36 205.91c4.21-4.41 8.99-8.25 13-12.85.21.46.62 1.36.82 1.82-2.45 4.28-5.78 8.03-7.68 12.63-1.87-1.07-4.04-1.34-6.14-1.6z"/><path fill="#71947e" d="M160.85 196.39c.47-.98.96-1.95 1.47-2.91 9.23 2.1 18.79.91 28.05 2.7l.45 2.97c.87-1.71 1.74-3.43 2.61-5.14.35 1.26.7 2.52 1.05 3.79 1.84-.67 3.69-1.32 5.51-2.04-2.27 2-3.42 4.83-4.55 7.55-1.03.22-2.06.43-3.09.65-3.64.5-7.46 2.25-11.07.67-7.13-2.98-15.03-.67-22.38-2.61.67-1.87 1.26-3.77 1.95-5.63z"/><path fill="#71966c" d="M160.18 194.88c.17.38.5 1.13.67 1.51-.69 1.86-1.28 3.76-1.95 5.63 7.35 1.94 15.25-.37 22.38 2.61 3.61 1.58 7.43-.17 11.07-.67-1.21 1.62-2.12 3.84-4.3 4.33-3.8 1.18-7.41 2.84-11.09 4.29-3.9.45-7.15-2.45-10.91-2.93-2.75-.19-5.42.84-8.16.64-1.95-.61-3.62-1.82-5.39-2.78 1.9-4.6 5.23-8.35 7.68-12.63z"/><path fill="#92bb4e" d="M20.69 197.25c3.86 2.36 8.21.18 12.22-.53 1.92.99 3.92 1.82 5.9 2.68 5.11 3.35 9.24 7.96 13.86 11.93l-.03 3.72c1.7 2.38 2.71 5.14 2.84 8.08 1.52.92 3.16 1.73 4.99 1.39 2.23-.51 4.04.39 5.23 2.3 1.06.83 2.14 1.64 3.23 2.45 2.62-.65 5.62-1.91 8.18-.37 2.14 1.08 2.36 3.68 3.03 5.71.58-.01 1.75-.03 2.33-.03.37.45 1.09 1.37 1.46 1.83 1.51.04 3.04-.04 4.54.22 1.73 1.06 1.75 3.29 2.29 5.04 1.05.05 2.1.1 3.16.17.65.73 1.31 1.47 1.97 2.22 1.41-1.28 2.69-2.82 4.45-3.63 2.13-.93 4.44-.12 6.62.15 2.15-1.53 4.79-3.17 7.5-1.94 2.4.86 2.42 3.68 3.07 5.75 1.9.32 3.52 1.23 4.29 3.08 2.42-.03 4.62.88 6.51 2.37.04.8.11 2.4.15 3.2 3.38-.94 6.83-2.12 10.39-1.67 2.34.15 3.81 2.21 5.43 3.64-2.98.37-5.97.72-8.97.99h-14.54c-12.09-1.03-24.19-3.04-35.69-7-26.4-9.22-48.94-27.95-64.61-50.93.05-.2.15-.61.2-.82z"/><path fill="#719570" d="M103.27 198.14c4.18-1.88 8.46.38 12.76.09 3.99-.15 7.93.47 11.86.96 5.92.76 12.4-1.33 17.76 2.18-1.43 1.15-2.86 2.31-4.28 3.46-2.05-.76-4.14-1.71-6.37-1.57-2.43.59-4.54 2.12-7.04 2.46-3.85.63-7.76.76-11.64 1.07-2.9-4.68-7.69-7.63-13.05-8.65z"/><path fill="#9ecdbf" d="M107.44 214.44c3.13 0 5.63 1.95 8.47 2.84 3.62-.63 7.29-.36 10.74.93 2.38 1 4.87.27 7.21-.44 2.99.99 6.07.68 8.94-.52 6.62.19 11.99 4.36 18.34 5.57 1.64.34 3.18 1.04 4.75 1.64 4.98-1.62 10.25-1.79 15.44-2.1.41 1.1.8 2.21 1.2 3.32-.89 1.72-2.46 3.35-2.2 5.44.47 1.29 1.53 2.23 2.82 2.65 3.51 1.51 6.86 3.45 10.63 4.26-1.71 1.01-3.41 2.04-5.14 3.01-.79-.8-1.58-1.59-2.38-2.36-2.46-.26-5.7.68-7.39-1.62-1.24-2.76-1.06-5.9-1.38-8.85-10.75.89-21.37-1.49-31.45-5.05-5.93-1.78-11.9 1.78-17.89.72-3.29-.59-6.44-1.76-9.59-2.84-3.09.91-6.07-.25-8.58-2.07-.84-1.51-1.76-2.98-2.54-4.53z"/><path fill="#a8dbf0" d="M109.98 218.97c2.51 1.82 5.49 2.98 8.58 2.07 3.15 1.08 6.3 2.25 9.59 2.84 5.99 1.06 11.96-2.5 17.89-.72 10.08 3.56 20.7 5.94 31.45 5.05.32 2.95.14 6.09 1.38 8.85 1.69 2.3 4.93 1.36 7.39 1.62.8.77 1.59 1.56 2.38 2.36-10.31 5.65-21.48 9.75-33.01 12.09l-.36-1.98c-12.68-6.54-25.51-12.78-38.31-19.08-5.11-2.24-4.91-8.68-6.98-13.1z"/></svg>