<svg width="460pt" height="460pt" viewBox="0 0 460 460" xmlns="http://www.w3.org/2000/svg"><path d="M211.59 1.8c35.73-2.89 72.16 2.6 105.31 16.31 36.28 14.86 68.61 39.27 92.83 70.11 20.48 25.7 35.11 55.96 42.87 87.88 11.1 46.24 7.65 95.97-10.4 140.02-15.22 37.7-40.84 71.12-73.16 95.78-33.91 26.13-75.35 42.33-118 46.09-29.29 2.63-59.14-.18-87.3-8.78-62.41-18.52-115.63-65.26-142.3-124.62-15.9-34.73-22.61-73.53-19.75-111.6 2.33-33.41 12.3-66.26 28.82-95.39C47.14 88.15 70.35 62.43 98 42.95 131.23 19.33 170.92 4.86 211.59 1.8m.94 18.94c-7.89.91-15.81 1.7-23.57 3.45C146.88 32.31 107.51 54 78.27 85.35c-36.17 36.89-57.24 88.13-57.94 139.74-1.67 49.97 15.8 100.3 47.92 138.61 16.85 19.67 36.6 37.1 59.4 49.59 27.28 15.35 58.09 24.23 89.31 26.27 8.36.18 16.72.15 25.08.03 39.54-2.23 78.37-15.88 110.48-39.08 9.13-6.35 17.13-14.12 25.3-21.62 10.47-10.96 20.75-22.26 28.71-35.24 22.23-34.43 34.23-75.57 33.15-116.6.34-15.36-2.14-30.62-5.39-45.6-8.45-34.98-25.64-68.05-50.63-94.07-6.21-7.16-13.52-13.26-20.52-19.62-30.02-24.92-67.25-40.96-105.94-45.9-14.78-2.12-29.79-1.76-44.67-1.12z"/><path fill="#523d1f" d="M212.53 20.74c14.88-.64 29.89-1 44.67 1.12 38.69 4.94 75.92 20.98 105.94 45.9 7 6.36 14.31 12.46 20.52 19.62 24.99 26.02 42.18 59.09 50.63 94.07 3.25 14.98 5.73 30.24 5.39 45.6 1.08 41.03-10.92 82.17-33.15 116.6-7.96 12.98-18.24 24.28-28.71 35.24-8.17 7.5-16.17 15.27-25.3 21.62-32.11 23.2-70.94 36.85-110.48 39.08-8.36.12-16.72.15-25.08-.03-31.22-2.04-62.03-10.92-89.31-26.27-22.8-12.49-42.55-29.92-59.4-49.59-32.12-38.31-49.59-88.64-47.92-138.61.7-51.61 21.77-102.85 57.94-139.74C107.51 54 146.88 32.31 188.96 24.19c7.76-1.75 15.68-2.54 23.57-3.45m32.72 117.39c-7.15 5.35-10.24 14.12-12.79 22.32-3.81 11.19-4.8 23.09-6.82 34.61-2.74 29.68-4.46 59.45-8.53 89.04-.92 3.56-1.33 7.23-2.19 10.81-.38 1.66-.81 3.32-1.22 4.98-.68.41-1.38.79-2.09 1.15-3.19-2.73-3.36-7.29-4.88-10.95-3.61-14.2-6.42-28.62-8.72-43.1-.4-1.6-.66-3.24-.91-4.86-.41-2.01-.74-4.03-1.2-6.03-1.8-10.55-4.77-20.92-9.01-30.75-3.1-7.29-9.6-13.82-17.87-14.3-4.01.83-8.29 1.7-11.43 4.54-4.38 3.89-7.53 9.03-9.52 14.51-5.75 15.78-8.13 32.54-10.84 49.04-1.81 7.07-2.68 14.54-6.37 20.98l-3.07-.42c-3.5-9.15-6.51-18.47-9.91-27.66-2.82-7.41-7.03-14.55-13.05-19.8-5.12-4.61-12.13-6.36-18.84-6.74-14.12.02-28.23.03-42.35-.01-.83 6.59-.82 13.41 0 19.99 14.44-.02 28.89-.02 43.33 0 2.75-.1 5.2 1.59 7.03 3.49 4.96 5.88 6.68 13.55 9.26 20.61 3.44 9.37 5.77 19.75 13.17 26.97 3.27 3.64 8.05 5.35 12.79 5.95 7.56.37 14.32-4.68 17.96-11.03 7.11-13.71 9.27-29.18 11.85-44.21 2.3-11.16 3.48-22.97 8.99-33.11.92.95 2.21 1.69 2.69 3 2.34 6.09 4.05 12.42 5.23 18.84.43 1.94.7 3.91 1.19 5.85 2.61 15.1 5.27 30.21 8.71 45.15.44 1.63.8 3.28 1.24 4.91.92 3.88 2.18 7.67 3.57 11.4 3.24 8.75 8.07 18.19 17.25 21.84 1.73.18 3.46.47 5.11 1.04 2.98-.57 5.88-1.5 8.61-2.82 1.25-1.23 2.49-2.46 3.72-3.71 7.34-10.86 9.66-23.94 11.71-36.61 1.24-9.96 2.61-19.9 3.34-29.9 1.14-4.21 0-8.67 1.38-12.82-.26-6.49 1.25-12.85 1.08-19.33 1.24-4.59.36-9.4 1.46-14 .38-2.33.26-4.71.48-7.05 1.33-4.83.92-10.07 2.21-14.97 1.13-9.07 3.25-18.04 6.66-26.53.99-.04 1.99-.08 2.99-.11 3.98 9.09 6.24 18.81 7.7 28.59 3.42 23.33 4.9 46.91 9.45 70.08.44 1.62.83 3.27 1.26 4.9 1.86 7.77 4.79 15.68 10.58 21.4 2.86 2.6 6.7 3.2 10.37 3.83 3.23-.91 6.71-1.05 9.67-2.79 6.28-3.25 9.96-9.67 13.08-15.75 1.54-3.82 3.05-7.66 4.16-11.64 2.91-11.46 5.6-22.99 8.93-34.34l2.31-1.47c3.89 4.58 5.22 10.63 8.09 15.81.4 1.21.86 2.41 1.33 3.6 1.96 2.95 3.45 6.2 5.7 8.96 4.82 6.85 12.33 12.05 20.7 13.2 15.96.04 31.92-.01 47.88.02-.03-6.41.1-12.83-.08-19.24-14.6-.02-29.2.09-43.79-.04-6.33-.29-9.82-6.19-12.43-11.17-3.37-7.31-6.43-14.76-10.2-21.87-1.55-2.9-3.93-5.2-6.34-7.37-5.37-5.03-14.06-6-20.4-2.29-5.28 3.72-9.26 9.24-11.03 15.46-3.67 10.38-5.99 21.15-8.53 31.84-1.69 5.75-2.73 12.11-6.85 16.72-.66-.41-1.98-1.22-2.64-1.62-5.57-20.26-7.06-41.31-9.7-62.07-1.83-14.6-3.52-29.43-8.62-43.34-2.21-6.5-5.02-13.09-10.31-17.71-3-3.51-7.72-4.1-11.92-5.19-3.35.78-6.99 1.04-9.77 3.29z"/><path fill="#fff" d="M245.25 138.13c2.78-2.25 6.42-2.51 9.77-3.29 4.2 1.09 8.92 1.68 11.92 5.19 5.29 4.62 8.1 11.21 10.31 17.71 5.1 13.91 6.79 28.74 8.62 43.34 2.64 20.76 4.13 41.81 9.7 62.07.66.4 1.98 1.21 2.64 1.62 4.12-4.61 5.16-10.97 6.85-16.72 2.54-10.69 4.86-21.46 8.53-31.84 1.77-6.22 5.75-11.74 11.03-15.46 6.34-3.71 15.03-2.74 20.4 2.29 2.41 2.17 4.79 4.47 6.34 7.37 3.77 7.11 6.83 14.56 10.2 21.87 2.61 4.98 6.1 10.88 12.43 11.17 14.59.13 29.19.02 43.79.04.18 6.41.05 12.83.08 19.24-15.96-.03-31.92.02-47.88-.02-8.37-1.15-15.88-6.35-20.7-13.2-2.25-2.76-3.74-6.01-5.7-8.96-.47-1.19-.93-2.39-1.33-3.6-2.87-5.18-4.2-11.23-8.09-15.81l-2.31 1.47c-3.33 11.35-6.02 22.88-8.93 34.34-1.11 3.98-2.62 7.82-4.16 11.64-3.12 6.08-6.8 12.5-13.08 15.75-2.96 1.74-6.44 1.88-9.67 2.79-3.67-.63-7.51-1.23-10.37-3.83-5.79-5.72-8.72-13.63-10.58-21.4-.43-1.63-.82-3.28-1.26-4.9-4.55-23.17-6.03-46.75-9.45-70.08-1.46-9.78-3.72-19.5-7.7-28.59-1 .03-2 .07-2.99.11-3.41 8.49-5.53 17.46-6.66 26.53-1.29 4.9-.88 10.14-2.21 14.97-.22 2.34-.1 4.72-.48 7.05-1.1 4.6-.22 9.41-1.46 14 .17 6.48-1.34 12.84-1.08 19.33-1.38 4.15-.24 8.61-1.38 12.82-.73 10-2.1 19.94-3.34 29.9-2.05 12.67-4.37 25.75-11.71 36.61-1.23 1.25-2.47 2.48-3.72 3.71-2.73 1.32-5.63 2.25-8.61 2.82-1.65-.57-3.38-.86-5.11-1.04-9.18-3.65-14.01-13.09-17.25-21.84-1.39-3.73-2.65-7.52-3.57-11.4-.44-1.63-.8-3.28-1.24-4.91-3.44-14.94-6.1-30.05-8.71-45.15-.49-1.94-.76-3.91-1.19-5.85-1.18-6.42-2.89-12.75-5.23-18.84-.48-1.31-1.77-2.05-2.69-3-5.51 10.14-6.69 21.95-8.99 33.11-2.58 15.03-4.74 30.5-11.85 44.21-3.64 6.35-10.4 11.4-17.96 11.03-4.74-.6-9.52-2.31-12.79-5.95-7.4-7.22-9.73-17.6-13.17-26.97-2.58-7.06-4.3-14.73-9.26-20.61-1.83-1.9-4.28-3.59-7.03-3.49-14.44-.02-28.89-.02-43.33 0-.82-6.58-.83-13.4 0-19.99 14.12.04 28.23.03 42.35.01 6.71.38 13.72 2.13 18.84 6.74 6.02 5.25 10.23 12.39 13.05 19.8 3.4 9.19 6.41 18.51 9.91 27.66l3.07.42c3.69-6.44 4.56-13.91 6.37-20.98 2.71-16.5 5.09-33.26 10.84-49.04 1.99-5.48 5.14-10.62 9.52-14.51 3.14-2.84 7.42-3.71 11.43-4.54 8.27.48 14.77 7.01 17.87 14.3 4.24 9.83 7.21 20.2 9.01 30.75.46 2 .79 4.02 1.2 6.03.25 1.62.51 3.26.91 4.86 2.3 14.48 5.11 28.9 8.72 43.1 1.52 3.66 1.69 8.22 4.88 10.95.71-.36 1.41-.74 2.09-1.15.41-1.66.84-3.32 1.22-4.98.86-3.58 1.27-7.25 2.19-10.81 4.07-29.59 5.79-59.36 8.53-89.04 2.02-11.52 3.01-23.42 6.82-34.61 2.55-8.2 5.64-16.97 12.79-22.32z"/></svg>