<svg width="460pt" height="460pt" viewBox="0 0 460 460" xmlns="http://www.w3.org/2000/svg"><path d="M211.54 1.8c36.5-2.96 73.73 2.85 107.46 17.18 35.45 14.95 67.01 39.03 90.78 69.29 19.12 24.05 33.17 52.05 41.23 81.69 12.99 47.95 10.03 100.17-8.81 146.18-14.81 36.63-39.42 69.24-70.46 93.66-28.34 22.52-62.16 38.02-97.67 44.95-29.05 5.59-59.16 5.6-88.21-.02-62.45-11.92-118.82-51.51-151.61-105.94C13.53 314.97 2.03 275.6 1.14 235.95c-1.33-45.53 11.37-91.39 36.18-129.61 25.16-39.3 62.63-70.56 105.8-88.24 21.77-8.95 44.94-14.51 68.42-16.3m-1.09 19.86c-50.94 4.5-99.84 28.73-134.16 66.66-19.92 20.95-34.79 46.47-44.27 73.73-16.36 47.55-14.9 101.05 4.4 147.53 19.62 48.04 57.97 88.11 104.99 110.03 35.47 16.74 75.74 22.89 114.62 18.02 43.4-5.29 85.1-24.65 116.76-54.87 6.62-5.68 12.13-12.48 18.01-18.89 13.39-15.83 24.16-33.83 32.22-52.92 16.74-39.57 20.55-84.35 11.32-126.26-9.2-41.9-31.72-80.8-63.72-109.39-42.46-39.69-102.44-59.29-160.17-53.64z"/><path d="M245.21 138.18c2.8-2.21 6.44-2.57 9.79-3.37 3.53.98 7.41 1.43 10.35 3.81 3.47 2.9 6.53 6.41 8.41 10.56 5.19 10.98 8.04 22.9 9.83 34.86 4.14 26.33 5.01 53.25 12.01 79.08.69.43 2.09 1.29 2.79 1.72 4.83-6.59 5.98-14.87 8.03-22.58 2.23-9.74 4.69-19.45 8.14-28.85 1.78-4.7 5.07-8.7 8.93-11.86 6.31-4.72 15.81-3.81 21.52 1.46 7.77 6.32 10.37 16.44 14.64 25.09 2.93 6.29 6.32 14.69 14.33 15.33 14.62.21 29.25-.04 43.87.11.03 6.4.02 12.79.02 19.19-14.63.01-29.26-.04-43.88.03-10.34.65-19.84-5.93-25.43-14.22-6.37-8.28-8.41-18.91-14.28-27.45-.6.37-1.78 1.13-2.38 1.51-2.91 9.78-5.35 19.68-7.75 29.59-1.63 6.88-3.83 13.68-7.23 19.91-2.66 4.7-5.95 9.36-10.79 12.02-3.13 1.77-6.74 2.18-10.17 3.03-4.33-.72-9.06-1.77-11.88-5.45-7.86-9.47-9.67-22.06-11.89-33.75-2.43-14.89-4.03-29.9-5.73-44.88-1.82-15.13-3.6-30.55-9.74-44.66-1-.02-2-.03-2.99-.05-5.74 13.84-7.23 28.88-8.99 43.61-2.64 27.01-3.77 54.17-7.77 81.03-1.6 10.01-3.12 20.24-7.61 29.44-1.92 3.8-3.89 7.83-7.37 10.48-2.61 1.91-5.87 2.47-8.92 3.32-3.07-.9-6.41-1.25-9.1-3.1-4.56-3.21-7.97-7.82-10.34-12.82-3.07-6.53-5.44-13.39-7.07-20.42-3.53-14.47-6.12-29.15-8.73-43.8-1.74-9.51-3.31-19.14-6.85-28.18-.56-1.6-1.87-2.75-2.95-3.99-.93 1.83-1.88 3.67-2.55 5.62-7.41 21.3-6.9 44.58-15.41 65.56-2.23 6.36-6.2 12.45-12.34 15.59-7.01 3.59-15.96 1.45-21.28-4.12a35.484 35.484 0 0 1-7.65-11.67c-3.96-9.6-6.59-19.7-10.65-29.25-2.13-4.56-5.43-9.94-11.05-10.17-14.55-.08-29.1.04-43.65-.04-.5-6.63-.5-13.3 0-19.92 13.52-.07 27.05.02 40.57-.05 8.1-.12 16.59 2.26 22.39 8.16 5.68 5.79 9.78 13.06 12.34 20.73 3.03 8.47 5.82 17.03 9.14 25.39l3.04.36c5.36-10.86 6.3-23.15 8.57-34.89 1.65-10.15 3.86-20.21 6.78-30.08 2.13-7.03 5.29-14.04 10.78-19.1 3.23-3.09 7.75-4.28 12.04-4.97 8.49.47 14.99 7.38 18.08 14.83 2.96 7.34 5.54 14.87 7.24 22.61 4.36 21.01 7.03 42.38 12.81 63.08 1.04 3.62 2.06 7.41 4.87 10.11 1.6-2.4 2.73-5.09 3.11-7.96 5.89-30.55 6.73-61.75 10.02-92.62 1.51-14.71 3.33-29.56 8.16-43.61 2.36-7.21 5.53-14.69 11.82-19.34z"/><path fill="#f62459" d="M210.45 21.66c57.73-5.65 117.71 13.95 160.17 53.64 32 28.59 54.52 67.49 63.72 109.39 9.23 41.91 5.42 86.69-11.32 126.26-8.06 19.09-18.83 37.09-32.22 52.92-5.88 6.41-11.39 13.21-18.01 18.89-31.66 30.22-73.36 49.58-116.76 54.87-38.88 4.87-79.15-1.28-114.62-18.02-47.02-21.92-85.37-61.99-104.99-110.03-19.3-46.48-20.76-99.98-4.4-147.53 9.48-27.26 24.35-52.78 44.27-73.73 34.32-37.93 83.22-62.16 134.16-66.66m34.76 116.52c-6.29 4.65-9.46 12.13-11.82 19.34-4.83 14.05-6.65 28.9-8.16 43.61-3.29 30.87-4.13 62.07-10.02 92.62-.38 2.87-1.51 5.56-3.11 7.96-2.81-2.7-3.83-6.49-4.87-10.11-5.78-20.7-8.45-42.07-12.81-63.08-1.7-7.74-4.28-15.27-7.24-22.61-3.09-7.45-9.59-14.36-18.08-14.83-4.29.69-8.81 1.88-12.04 4.97-5.49 5.06-8.65 12.07-10.78 19.1-2.92 9.87-5.13 19.93-6.78 30.08-2.27 11.74-3.21 24.03-8.57 34.89l-3.04-.36c-3.32-8.36-6.11-16.92-9.14-25.39-2.56-7.67-6.66-14.94-12.34-20.73-5.8-5.9-14.29-8.28-22.39-8.16-13.52.07-27.05-.02-40.57.05-.5 6.62-.5 13.29 0 19.92 14.55.08 29.1-.04 43.65.04 5.62.23 8.92 5.61 11.05 10.17 4.06 9.55 6.69 19.65 10.65 29.25 1.74 4.35 4.37 8.34 7.65 11.67 5.32 5.57 14.27 7.71 21.28 4.12 6.14-3.14 10.11-9.23 12.34-15.59 8.51-20.98 8-44.26 15.41-65.56.67-1.95 1.62-3.79 2.55-5.62 1.08 1.24 2.39 2.39 2.95 3.99 3.54 9.04 5.11 18.67 6.85 28.18 2.61 14.65 5.2 29.33 8.73 43.8 1.63 7.03 4 13.89 7.07 20.42 2.37 5 5.78 9.61 10.34 12.82 2.69 1.85 6.03 2.2 9.1 3.1 3.05-.85 6.31-1.41 8.92-3.32 3.48-2.65 5.45-6.68 7.37-10.48 4.49-9.2 6.01-19.43 7.61-29.44 4-26.86 5.13-54.02 7.77-81.03 1.76-14.73 3.25-29.77 8.99-43.61.99.02 1.99.03 2.99.05 6.14 14.11 7.92 29.53 9.74 44.66 1.7 14.98 3.3 29.99 5.73 44.88 2.22 11.69 4.03 24.28 11.89 33.75 2.82 3.68 7.55 4.73 11.88 5.45 3.43-.85 7.04-1.26 10.17-3.03 4.84-2.66 8.13-7.32 10.79-12.02 3.4-6.23 5.6-13.03 7.23-19.91 2.4-9.91 4.84-19.81 7.75-29.59.6-.38 1.78-1.14 2.38-1.51 5.87 8.54 7.91 19.17 14.28 27.45 5.59 8.29 15.09 14.87 25.43 14.22 14.62-.07 29.25-.02 43.88-.03 0-6.4.01-12.79-.02-19.19-14.62-.15-29.25.1-43.87-.11-8.01-.64-11.4-9.04-14.33-15.33-4.27-8.65-6.87-18.77-14.64-25.09-5.71-5.27-15.21-6.18-21.52-1.46-3.86 3.16-7.15 7.16-8.93 11.86-3.45 9.4-5.91 19.11-8.14 28.85-2.05 7.71-3.2 15.99-8.03 22.58-.7-.43-2.1-1.29-2.79-1.72-7-25.83-7.87-52.75-12.01-79.08-1.79-11.96-4.64-23.88-9.83-34.86-1.88-4.15-4.94-7.66-8.41-10.56-2.94-2.38-6.82-2.83-10.35-3.81-3.35.8-6.99 1.16-9.79 3.37z"/></svg>