<svg width="512pt" height="512pt" viewBox="0 0 512 512" xmlns="http://www.w3.org/2000/svg"><path d="M448.53 16.66c13.52-3.08 28.08-3.16 41.22 1.64 7.4 2.78 14.49 7.69 17.9 15.05 2.16 4.5 2.09 9.61 1.9 14.49-1.52-1.78-4.11-3.33-6.34-1.74-4.35 3.14-4.52 9.18-3.93 14.02-5.18-3.31-11.78-4.04-17.66-2.42-2.83.76-4.78 3.04-6.38 5.35-2.84 2.09-6.42 4.2-6.91 8.05-.59 3.71 1.65 6.91 3.57 9.84.23.54.7 1.64.94 2.18 2.7 7.65 10.28 11.77 15.77 17.22 3.19 3.05 4.25 7.48 6.2 11.3 1.4-1.61 2.81-3.22 4.02-4.98-3.62 23.21-11.47 45.49-19.89 67.32-2.09 5.65-4.8 11.08-6.28 16.94-1.13 3.62-5.49 4.09-8.64 3.11-6.9-2.07-12.59-6.66-18.43-10.66-19.08-13.23-37.99-27.72-60.43-34.76-15.08-4.4-31.77-6.62-46.73-.54-1.09.26-2.18.52-3.26.83 8.12-5.41 16.24-10.86 23.79-17.06 12.41-9.76 23.09-21.47 33.43-33.35 3.68-4.75 6.93-9.83 10.39-14.73 9.01-15.65 10.27-34.56 20.16-49.79 5.76-8.96 15.3-14.95 25.59-17.31m3.81 28.81c-5.46 1.85-9.8 7.66-8.39 13.56 1.47 6.6 8.65 10.53 15.09 9.92 7.1-.12 14.36-6.49 12.95-14.01-1.51-8.56-12.1-12.48-19.65-9.47zM80.46 353.92c6.43 2.35 12.98 4.42 19.69 5.78 10.14 2.13 20.54 2.43 30.86 2.87 25.68.16 51.35-.01 77.03.22 4.1.12 8.23.18 12.3-.43 5.22 1.93 10.55 3.55 15.94 4.96-49.83 16.33-104.47 19.52-155.25 5.57-5.16-1.57-10.52-2.98-15.07-5.99-1.41-1.03-3.29-2.85-1.75-4.6 3.73-5.21 10.5-6.57 16.25-8.38z" fill="#6c5353"/><path d="M452.34 45.47c7.55-3.01 18.14.91 19.65 9.47 1.41 7.52-5.85 13.89-12.95 14.01-6.44.61-13.62-3.32-15.09-9.92-1.41-5.9 2.93-11.71 8.39-13.56m10.32 4.33c1.38 2.06 2.78 4.71 1.29 7.12-1.75 3.33-5.92 3.89-9.28 3.27 1.37 2.89 3.83 5.55 7.23 5.73 5.22.68 10.05-4.75 8.49-9.86-.83-3.64-4.38-5.52-7.73-6.26zm40.55-3.7c2.23-1.59 4.82-.04 6.34 1.74 3.55 5.76 3.22 14.22-1.95 18.94-.65.11-1.97.32-2.62.42-3.59-2.99-7.25-6.46-12.05-7.22-6.08-1.09-12.19.55-17.69 3.07 1.6-2.31 3.55-4.59 6.38-5.35 5.88-1.62 12.48-.89 17.66 2.42-.59-4.84-.42-10.88 3.93-14.02m-.45 18.19c2.2 1.37 3.74-1.25 4.95-2.64-4.66-.54-4.81-6.04-3.01-9.33-5.37.91-5.85 9.1-1.94 11.97z" fill="#fff"/><path d="M462.66 49.8c3.35.74 6.9 2.62 7.73 6.26 1.56 5.11-3.27 10.54-8.49 9.86-3.4-.18-5.86-2.84-7.23-5.73 3.36.62 7.53.06 9.28-3.27 1.49-2.41.09-5.06-1.29-7.12zm40.1 14.49c-3.91-2.87-3.43-11.06 1.94-11.97-1.8 3.29-1.65 8.79 3.01 9.33-1.21 1.39-2.75 4.01-4.95 2.64z"/><path fill="#ff7f2a" d="M475.24 63.05c5.5-2.52 11.61-4.16 17.69-3.07 4.8.76 8.46 4.23 12.05 7.22.65-.1 1.97-.31 2.62-.42-.38 7.1 3.48 14.05 1.54 21.13-1.63 3.87-7.34 2.97-9.06-.41-.2-.23-.6-.7-.8-.94-3.25-3.76-8.53-4.26-13.19-4.01-4.8.3-9.53-.61-14.19-1.61-1.92-2.93-4.16-6.13-3.57-9.84.49-3.85 4.07-5.96 6.91-8.05m11.19-.12c2.88 3.57 7.35 5.07 10.94 7.74 4.49 3.49 6.65 8.91 9.5 13.65-.58-6.85-1.32-14.63-6.8-19.5-3.51-3.62-9.21-3.66-13.64-1.89m-5.78 7.12c1.28 2.94 4.92 3.59 7.75 4.07-.89-1.56-2.4-2.52-3.87-3.43.27-.97.54-1.93.82-2.89-1.91-.25-5.21-.76-4.7 2.25z"/><path fill="#fca" d="M486.43 62.93c4.43-1.77 10.13-1.73 13.64 1.89 5.48 4.87 6.22 12.65 6.8 19.5-2.85-4.74-5.01-10.16-9.5-13.65-3.59-2.67-8.06-4.17-10.94-7.74z"/><path fill="#b14903" d="M480.65 70.05c-.51-3.01 2.79-2.5 4.7-2.25-.28.96-.55 1.92-.82 2.89 1.47.91 2.98 1.87 3.87 3.43-2.83-.48-6.47-1.13-7.75-4.07z"/><path fill="#a40" d="M471.9 80.94c4.66 1 9.39 1.91 14.19 1.61 4.66-.25 9.94.25 13.19 4.01-8.71 3.32-18.74 1.57-26.44-3.44-.24-.54-.71-1.64-.94-2.18z"/><path d="M472.84 83.12c7.7 5.01 17.73 6.76 26.44 3.44.2.24.6.71.8.94-.13 6.4-.16 12.84-1.25 19.16-1.21 1.76-2.62 3.37-4.02 4.98-1.95-3.82-3.01-8.25-6.2-11.3-5.49-5.45-13.07-9.57-15.77-17.22zM114.15 290.15c12.72-5.69 25.86-10.39 38.93-15.18-3.67 10.84-5.42 22.76-2.34 33.97 2.95 11.23 10.59 20.64 19.58 27.72 14.83 11.75 32.74 18.47 50.02 25.7-4.07.61-8.2.55-12.3.43-25.68-.23-51.35-.06-77.03-.22-10.32-.44-20.72-.74-30.86-2.87-6.71-1.36-13.26-3.43-19.69-5.78-5.45-2.11-11.02-4.06-16-7.18-1.99-.91-3.65-2.4-3.78-4.72 2.56-1.34 5.18-2.61 7.99-3.34 16.89-4.48 34.1-7.82 51.52-9.4-6.53-1.42-13.85-1.77-19.23-6.17-2.35-1.8-1.69-4.94.16-6.8 2.4-1.99 4.99-3.78 7.81-5.13 6.73-3.46 13.96-5.79 21.38-7.28-5.1-5-12.36-6.75-18.33-10.47l-1.49.24c.89-1.49 1.94-2.95 3.66-3.52z" fill="#483737"/><path fill="#c8b7b7" d="M338.43 148.07c14.96-6.08 31.65-3.86 46.73.54 22.44 7.04 41.35 21.53 60.43 34.76 5.84 4 11.53 8.59 18.43 10.66 3.15.98 7.51.51 8.64-3.11-.68 4.62-.61 9.29-.79 13.95-.93 4.59-6.39 3.4-9.77 2.87-10.04-2.25-20.19-5.18-28.74-11.11-12.07-7.71-22.37-17.77-34.14-25.88-4.44-3.16-9.66-4.91-14.5-7.36-10.64-4.67-21.24-9.69-32.56-12.54-4.52-1.18-9.15-1.87-13.73-2.78z"/><g fill="#b3b3b3"><path d="M335.17 148.9c1.08-.31 2.17-.57 3.26-.83 4.58.91 9.21 1.6 13.73 2.78 11.32 2.85 21.92 7.87 32.56 12.54 4.84 2.45 10.06 4.2 14.5 7.36 11.77 8.11 22.07 18.17 34.14 25.88 8.55 5.93 18.7 8.86 28.74 11.11 3.38.53 8.84 1.72 9.77-2.87-.17 9.73 1.14 19.42 1.34 29.15.78 15.32-1.77 30.55-4.9 45.49-2.73 13.49-8.25 26.23-15.46 37.91-8.08 11.21-17.06 21.74-26.66 31.67-8.09 8.29-15.97 16.84-24.96 24.17-4.08 3.38-8.47 6.37-12.65 9.64-13.66 8.24-27.78 15.9-42.71 21.59l-.51.06c-4.92 2.74-10.39 4.25-15.67 6.14-12.18 4.2-24.79 6.95-37.45 9.24-.33 2.41-.66 4.82-1.01 7.23.11-4.89.79-10.63-2.75-14.57-2.96-3.17-7.64-3.37-11.66-3.99-15.21-1.44-30.54-.91-45.75.28-8.1.8-16.36 1.39-24.05 4.28 1.64 1.63 3.29 3.24 4.99 4.8-34.72-3.63-69.44-7.4-104.11-11.52-21.85-2.73-43.68-6.36-64.79-12.71-11.1-3.45-22.16-7.54-31.94-13.93-4.45-3.06-9.03-6.57-11.16-11.71 7.2-5.48 16.1-7.9 24.54-10.75 12.87-3.97 25.87-7.49 38.86-11.04l1.05.44c4.98 3.12 10.55 5.07 16 7.18-5.75 1.81-12.52 3.17-16.25 8.38-1.54 1.75.34 3.57 1.75 4.6 4.55 3.01 9.91 4.42 15.07 5.99 50.78 13.95 105.42 10.76 155.25-5.57 3.94.98 7.94 1.6 11.92 2.39-.28.21-.83.63-1.11.84 25.62 9.82 54.12 10.83 80.8 5.15 15.28-3.53 30.42-9.93 41.73-21.06 5.85-6.4 11.18-14.15 11.97-23.01 6.13-12.58 8.7-26.73 7.81-40.67-1.4-23.98-10.57-47.72-26.72-65.64-10.35-11.23-24.38-19.7-39.83-20.96-16.85-1.23-33.98-1.47-50.6 2.03-6.37 1.03-12.4 3.58-18.84 4.27 2.31-2.51 5.07-4.53 7.62-6.77 20.62-17.59 41.13-35.64 64.58-49.42 3.23-1.79 6.34-3.78 9.56-5.57z"/><path d="M87.08 299.12c7.84-1.66 15.59-3.69 23.41-5.45l1.49-.24c5.97 3.72 13.23 5.47 18.33 10.47-7.42 1.49-14.65 3.82-21.38 7.28-3.84.57-7.36-1.45-10.99-2.34-5.73-1.96-11.89-3.28-16.8-7.02 1.33-1.99 3.83-2.14 5.94-2.7zm-22.23 19.3c12.02-1.41 24.14-2.89 36.27-2.11-1.85 1.86-2.51 5-.16 6.8 5.38 4.4 12.7 4.75 19.23 6.17-17.42 1.58-34.63 4.92-51.52 9.4-2.81.73-5.43 2-7.99 3.34-6.73-2.09-13.63-4.19-19.5-8.21-1.83-1.34-4-3.27-3.5-5.81.94-2.51 3.57-3.71 5.84-4.74 6.8-2.72 14.12-3.78 21.33-4.84z"/></g><path fill="#ccc" d="M272.25 206.39c16.62-3.5 33.75-3.26 50.6-2.03 15.45 1.26 29.48 9.73 39.83 20.96 16.15 17.92 25.32 41.66 26.72 65.64.89 13.94-1.68 28.09-7.81 40.67-2.72 4.48-5.64 8.97-9.86 12.2-22.96 19.18-53.29 27.05-82.66 28.59-9.04.06-18.17.96-27.13-.64-4.59-.63-9.19-1.2-13.74-2.07-3.98-.79-7.98-1.41-11.92-2.39-5.39-1.41-10.72-3.03-15.94-4.96-17.28-7.23-35.19-13.95-50.02-25.7-8.99-7.08-16.63-16.49-19.58-27.72-3.08-11.21-1.33-23.13 2.34-33.97.87-1.67 2.72-2.56 4.08-3.81 28.58-22.83 58.03-45.99 92.81-58.57 1.22-.51 2.28-1.31 3.44-1.93 6.44-.69 12.47-3.24 18.84-4.27z"/><path fill="#666" d="M426.19 349.09c9.6-9.93 18.58-20.46 26.66-31.67-.15 2.25-.64 4.46-1.31 6.61-2.52 8.47-5.28 17.01-9.95 24.57-2.22 3.69-5.87 6.12-9.14 8.78-10.57 8.09-21.77 15.4-33.66 21.4-3.32 1.56-6.57 3.41-10.21 4.12 4.18-3.27 8.57-6.26 12.65-9.64 8.99-7.33 16.87-15.88 24.96-24.17z"/><path d="M381.59 331.63c-.79 8.86-6.12 16.61-11.97 23.01-11.31 11.13-26.45 17.53-41.73 21.06-26.68 5.68-55.18 4.67-80.8-5.15.28-.21.83-.63 1.11-.84 4.55.87 9.15 1.44 13.74 2.07 8.96 1.6 18.09.7 27.13.64 29.37-1.54 59.7-9.41 82.66-28.59 4.22-3.23 7.14-7.72 9.86-12.2zm-36.23 72.92l.51-.06c2.54 7.6 1.39 15.73-.98 23.21-5.05.92-10.08 1.92-15.02 3.31-2.16.6-4.32 1.18-6.45 1.86l-.53.27c-5.25 1.45-9.06 6.99-14.93 5.92-6.41-.88-12-4.42-17.5-7.58.31-1.43.56-2.88.77-4.32.35-2.41.68-4.82 1.01-7.23 12.66-2.29 25.27-5.04 37.45-9.24 5.28-1.89 10.75-3.4 15.67-6.14z" fill="#999"/><path fill="#ececec" d="M231.07 408.88c15.21-1.19 30.54-1.72 45.75-.28 4.02.62 8.7.82 11.66 3.99 3.54 3.94 2.86 9.68 2.75 14.57-.21 1.44-.46 2.89-.77 4.32-.44 1.82-.94 3.64-1.49 5.44-7.69 3.03-15.46 5.88-23.42 8.1-1.24-2.5-2.21-6.38-5.48-6.62-2.48 1.84-4.11 4.99-3.67 8.12-6.39-.03-12.16-3.22-17.4-6.55-9.73-6.38-18.36-14.24-26.99-22.01-1.7-1.56-3.35-3.17-4.99-4.8 7.69-2.89 15.95-3.48 24.05-4.28z"/><path fill="#f55" d="M323.42 432.87c2.13-.68 4.29-1.26 6.45-1.86 1.62 3.32 1.05 8.79 5.13 10.19 6.21.6 11.8-3.69 18.06-3.11 2.14.05 3.92 1.33 5.7 2.38-6.01 3.49-13.49 2.63-19.96 4.97 2.06 2.88 6.01 2.96 9.22 3.06 12.11-.19 23.84-4.47 35.99-4.01 3.98.08 8.29 1.69 9.88 5.67a10.496 10.496 0 0 1-5.82 1.73c-13.04.54-26.03-1.48-39.06-.97-3.11.26-6.86.2-8.83 3.08 1.5 1.65 3.51 2.64 5.63 3.25 8.91 2.75 18.17 4.13 27.15 6.61 1.55.53 3.33.83 4.5 2.1.63 1.54-.89 2.82-2.29 2.88-4.6.5-9.16-.58-13.63-1.52-12.07-2.77-23.87-6.55-35.71-10.15-6.68-2.38-13.89-1.42-20.83-1.69-6.33-.26-12.93.45-19.01-1.62-.28-2.32 2.39-2.87 4.14-3.17 7.93-.75 16.1.32 23.83-1.98 3.17-.93 6.36-2.8 7.75-5.94 1.54-3.01.44-6.48 1.18-9.63l.53-.27z"/><path fill="#ff8080" d="M256.4 446.52c-.44-3.13 1.19-6.28 3.67-8.12 3.27.24 4.24 4.12 5.48 6.62 2.02 5.2 3.13 10.68 4.88 15.97.6 1.82 2.74 2.63 4.52 2.55 6.79-.54 13.05-5.34 20.03-3.67 1.54.59 3.74 1.29 4.15 3.09-6.44 3.4-14.25 2.82-21.04 5.37-.56 1.79 1.45 2.24 2.67 2.86 2.9 1.09 6.08 1.12 9.15.98 12.49-.72 24.56-5.18 37.14-4.85 4.41.11 9.89 1.82 11.13 6.61-.76 2.11-3.44 2.05-5.27 2.4-16.14 1.12-32.33-2.66-48.43-.66-2.07.26-6.13 1.59-4.61 4.34 2.74 2.56 6.66 3.25 10.11 4.41 9.49 2.87 19.45 4.23 28.7 7.85 2.22.43 2.34 4 .1 4.51-3.7 1.09-7.6.1-11.3-.48-13.84-2.98-27.21-7.76-40.64-12.18-3.89-1.22-7.69-3.01-11.84-3.13-9.36-.42-18.75.02-28.11-.57-2.99-.25-6.22-.34-8.65-2.33 1.27-1.44 2.7-3 4.76-3.11 9.28-1.09 19.02.55 27.95-2.86 4.04-1.45 7.5-4.85 8.25-9.18 1.05-5.6-.59-11.3-2.8-16.42z"/></svg>