<svg width="128pt" height="128pt" viewBox="0 0 128 128" xmlns="http://www.w3.org/2000/svg"><path d="M63.42 9.09c11.06-4.68 25.23-.32 31.19 10.26 4-.26 8.09-.36 11.99.72 3.07 1.65 6.48 3.11 8.51 6.1-3.53-1.49-7.03-3.06-10.44-4.8-3.63-1.85-7.84-.98-11.73-1.02-2.67-3.05-5.22-6.48-9.03-8.17-3.38-1.45-6.8-2.88-10.37-3.73-3.38-.39-6.77.31-10.12.64zM16.06 54.86c1.14 1.9 2.52 3.65 3.92 5.37.13-1.17.24-2.34.36-3.51 1.02-.33 2.05-.65 3.06-1 4.46 3.34 9.9 5.32 15.53 4.63.33-.56 1-1.67 1.33-2.23 1.31 1.53 2.63 3.06 3.95 4.59.22-.56.65-1.67.86-2.22 1.2.68 2.4 1.37 3.6 2.07-.34.52-1.02 1.55-1.35 2.07-1.81-.46-3.63-.91-5.44-1.36-.09.73-.26 2.21-.35 2.95-.32-.93-.66-1.84-1.04-2.74-.96-1.09-1.8-2.66-3.49-2.47-4.46-.3-8.86-.98-13.23-1.91.96 1.58 2.08 3.08 3.56 4.22-2.2.61-4.35 1.39-6.5 2.14-2.14-2.25-4.15-4.8-4.78-7.91 0-.67.01-2.02.01-2.69z" fill="#8998b8"/><path fill="#c3d3df" d="M63.42 9.09c3.35-.33 6.74-1.03 10.12-.64 3.57.85 6.99 2.28 10.37 3.73 3.81 1.69 6.36 5.12 9.03 8.17 3.89.04 8.1-.83 11.73 1.02 3.41 1.74 6.91 3.31 10.44 4.8 4.89 5.5 4.6 13.74 1.49 20.04l-.38.41c-4.19-7.94-12.45-12.98-21.29-13.88-1.24-1.88-2.8-3.52-4.53-4.95a36.52 36.52 0 0 1 8.57-5.53c-5.1.13-10.39-.36-15.23 1.64-1.89.58-3.84.95-5.8 1.18-1.55-.2-3.09-.47-4.63-.68C64.52 23 55 26.99 50.63 34.92c-.5.77-.99 1.55-1.46 2.35-2.74-.73-5.48-1.48-8.27-2 2.75-.57 3.86-3.26 5.11-5.44-3.29.25-5.54 2.44-6.58 5.47-.11.2-.34.6-.45.8 2.57 1.04 5.13 2.11 7.67 3.21.15 2.31.3 4.61.44 6.92-2 1.46-3.94 3.02-5.68 4.79-5.84.65-11.57 2.2-17.03 4.34-3.13-1.06-5.89-3.04-6.5-6.49 1.44 1.24 2.95 2.39 4.46 3.55 3.34-3.22 8.12-3.78 12.01-6.05 2.92-1.63 5.84-3.27 8.84-4.76-1.15-2.49-3.36-4.08-5.97-4.8-5.12-1.11-10.21.24-14.79 2.51-4.3.79-7.96 3.18-11.56 5.52-1.84 1.37-4.21.67-6.31.62.14-1.46.29-2.92.53-4.37 1.16.86 2.07 2.38 3.65 2.46 2.97-2.85 4.64-6.8 7.85-9.45-.72-.17-2.17-.5-2.89-.67 4.58-1.61 9.06.51 13.1 2.53.46-2.02.91-4.06 1.49-6.05-.03 3.41 3.15 3.59 5.77 3.72 2.99-5.43 5.92-11.36 11.73-14.3-2.1-.24-4.19-.51-6.27-.79 4.34-1.93 9.2-1.72 13.8-1.05 2.32.89 4.55 1.99 6.8 3.05 3.16-4.25 6.82-8.25 11.73-10.48-3.67.34-7.34.53-11.01.85l2.28-1.71.3-.11z"/><path d="M52.77 16.66c2.84-3.22 6.18-6.14 10.35-7.46l-2.28 1.71c-2.82 1.81-5.38 4-7.52 6.58-4.6-.67-9.46-.88-13.8 1.05-5.04 2.15-9.3 6.19-11.23 11.37-.58 1.99-1.03 4.03-1.49 6.05-4.04-2.02-8.52-4.14-13.1-2.53-3.77 1.3-6.98 3.97-8.61 7.66-.24 1.45-.39 2.91-.53 4.37-.01.72-.02 2.17-.03 2.9-1.58-3.89-.53-8.48 2.28-11.52 4.77-5.49 13.18-6.18 19.44-2.96 1-4.78 3.21-9.4 7.05-12.54 5.25-4.65 12.7-6.08 19.47-4.68zm67.7 22.04c.51 2.55.97 5.12 1.34 7.7-1.07 1.49-2.18 2.95-3.29 4.41-.23-.61-.68-1.82-.9-2.43-4.47 3.27-9.97 3.97-15.12 5.54-3.18 2.56-3.97 6.86-6.71 9.77-4.03 4.29-9.91 6.79-15.79 6.65-2.72-.06-5.43-.4-8.14-.62.63 1.02 1.27 2.04 1.93 3.04.34.51 1 1.52 1.33 2.03-1.92-.59-3.8-1.3-5.67-2 1.48-1.82 2.87-3.72 4.25-5.62l1.19-.3c5.72 1.34 12.04.52 16.74-3.16 1.6-.95 1.71-2.97 2.4-4.5.75-2.17 1.93-4.39 1.45-6.75-.61-2.75-2.15-5.17-3.28-7.71 2.23 1.14 4.43 2.44 6.12 4.33.64.73 1.12 1.82 2.24 1.87.66-.9 1.29-1.83 1.89-2.77.24-.36.73-1.09.98-1.45.47 1.84.93 3.68 1.43 5.52.28-2.83.07-5.67-.43-8.46 1.87 2.14 3.44 4.52 5.15 6.78 2.74-.06 4.69-2.31 6.64-3.95l.38-.41c2.23-1.93 2.95-4.85 3.87-7.51zM17.89 96.9c6.56-6.36 12.94-12.92 19.76-19-1 1.4-1.97 2.83-3.04 4.19-11.4 11.46-22.4 23.39-34.61 34v-.87c5.61-6.44 11.9-12.24 17.89-18.32z" fill="#737ba4"/><path fill="#ecf1f5" d="M60.84 10.91c3.67-.32 7.34-.51 11.01-.85-4.91 2.23-8.57 6.23-11.73 10.48-2.25-1.06-4.48-2.16-6.8-3.05 2.14-2.58 4.7-4.77 7.52-6.58z"/><path fill="#ebf0f4" d="M28.29 29.91c1.93-5.18 6.19-9.22 11.23-11.37 2.08.28 4.17.55 6.27.79-5.81 2.94-8.74 8.87-11.73 14.3-2.62-.13-5.8-.31-5.77-3.72z"/><path d="M106.6 20.07c8.42 1.93 16.15 7.62 19.55 15.7.2 1.16.38 2.33.54 3.5-.84 3.44-1.04 6.99-.05 10.42-.15 1.2-.32 2.39-.52 3.58-.39.92-.82 1.83-1.29 2.72-1.12.1-2.25.21-3.37.31 2.12-4.44 2.9-9.35 3.3-14.21-.98 1.44-1.95 2.88-2.95 4.31-.37-2.58-.83-5.15-1.34-7.7-.92 2.66-1.64 5.58-3.87 7.51 3.11-6.3 3.4-14.54-1.49-20.04-2.03-2.99-5.44-4.45-8.51-6.1zM5.18 49.98c2.41-.38 4.12 1.75 3.5 4.05-1.53-.96-2.82-2.35-3.5-4.05zm64.23 31.44c1.29-1.42 2.65-2.93 4.56-3.51-3.08 3.89-7.06 6.9-10.46 10.47-3.26 3.37-6.57 6.69-9.9 9.98l.56-1.66c4.97-5.2 10.44-9.91 15.24-15.28z" fill="#8b91b3"/><path fill="#e0e7ee" d="M83.74 23.9c4.84-2 10.13-1.51 15.23-1.64a36.52 36.52 0 0 0-8.57 5.53c-2.18-1.37-4.44-2.59-6.66-3.89z"/><path fill="#f6f8fb" d="M50.63 34.92C55 26.99 64.52 23 73.31 24.4c.03.31.1.95.13 1.27-7.34 3.19-12.29 9.69-17.6 15.39-1.69-2.09-3.42-4.14-5.21-6.14z"/><path fill="#dce5ed" d="M73.31 24.4c1.54.21 3.08.48 4.63.68 1.07 1.28 2.14 2.55 3.22 3.82-2.48 1.8-5.1 3.54-8.16 4.13-1.29.47-2.96.44-3.83 1.66-2.02 2.35-3.88 4.83-5.7 7.33-2.97.47-5.73 1.89-6.93 4.79-2.52-1.42-5.44-1.59-8.27-1.44.2-2.71.22-5.45.9-8.1.47-.8.96-1.58 1.46-2.35 1.79 2 3.52 4.05 5.21 6.14 5.31-5.7 10.26-12.2 17.6-15.39-.03-.32-.1-.96-.13-1.27z"/><path fill="#c1ccdb" d="M77.94 25.08c1.96-.23 3.91-.6 5.8-1.18 2.22 1.3 4.48 2.52 6.66 3.89 1.73 1.43 3.29 3.07 4.53 4.95.88 2.98 1.71 5.98 2.85 8.87 2.76 1.21 4.55 3.48 4.67 6.57-.6.94-1.23 1.87-1.89 2.77-1.12-.05-1.6-1.14-2.24-1.87-1.28-4.75-6.5-5.91-10.03-8.53-1.49-1.35-3.38-.64-4.93.15-.19.14-.58.42-.77.56-4.51-1.7-9.25-.55-13.63.93 1.35-3.05 2.68-6.11 4.04-9.16 3.06-.59 5.68-2.33 8.16-4.13-1.08-1.27-2.15-2.54-3.22-3.82z"/><path fill="#e2eaf0" d="M39.43 35.3c1.04-3.03 3.29-5.22 6.58-5.47-1.25 2.18-2.36 4.87-5.11 5.44l-1.47.03z"/><path fill="#d53010" d="M69.17 34.69c.87-1.22 2.54-1.19 3.83-1.66-1.36 3.05-2.69 6.11-4.04 9.16-.7 1.6-1.42 3.19-2.1 4.8-1.04 2.38-2.13 4.75-3.19 7.12-.79 1.75-1.6 3.48-2.39 5.23-.65 1.49-1.27 2.99-1.91 4.48-.71.03-2.11.08-2.82.11.33-.74.65-1.48.97-2.22.6-1.4 1.22-2.8 1.83-4.21.99-2.3 1.95-4.61 2.94-6.91 2.36-5.27 4.89-10.47 6.88-15.9z"/><path fill="#a3aac1" d="M94.93 32.74c8.84.9 17.1 5.94 21.29 13.88-1.95 1.64-3.9 3.89-6.64 3.95-1.71-2.26-3.28-4.64-5.15-6.78.5 2.79.71 5.63.43 8.46-.5-1.84-.96-3.68-1.43-5.52-.25.36-.74 1.09-.98 1.45-.12-3.09-1.91-5.36-4.67-6.57-1.14-2.89-1.97-5.89-2.85-8.87z"/><path fill="#eaeff4" d="M5.09 41.09c1.63-3.69 4.84-6.36 8.61-7.66.72.17 2.17.5 2.89.67-3.21 2.65-4.88 6.6-7.85 9.45-1.58-.08-2.49-1.6-3.65-2.46z"/><path fill="#9abdd4" d="M38.98 36.1c.11-.2.34-.6.45-.8l1.47-.03c2.79.52 5.53 1.27 8.27 2-.68 2.65-.7 5.39-.9 8.1-.29.21-.88.65-1.18.86-.14-2.31-.29-4.61-.44-6.92-2.54-1.1-5.1-2.17-7.67-3.21z"/><path d="M63.47 42.02c1.82-2.5 3.68-4.98 5.7-7.33-1.99 5.43-4.52 10.63-6.88 15.9-1.84-2.91-.71-6.04 1.18-8.57zm-8.65 8.05l.34-.13c-.08.61-.23 1.82-.31 2.43 1.94 1.29 3.34 3.14 4.5 5.13-.61 1.41-1.23 2.81-1.83 4.21-2.23-2.85-3.2-6.36-3.23-9.94.13-.43.4-1.28.53-1.7z" fill="#ffaf00"/><path fill="#494469" opacity=".76" d="M126.15 35.77c.65 1.44 1.26 2.89 1.85 4.36v8.63c-.6 1.51-1.23 3.02-1.88 4.51.2-1.19.37-2.38.52-3.58.77-3.44.77-6.97.05-10.42-.16-1.17-.34-2.34-.54-3.5z"/><path d="M22.43 39.32c4.58-2.27 9.67-3.62 14.79-2.51.03.42.1 1.26.14 1.68-3.12 1.29-6.37 2.59-8.71 5.13-2.25 2.41-4.54 4.81-7.3 6.66-.92-2.11-1.82-4.23-2.69-6.35 1.13-1.64 2.42-3.16 3.77-4.61zm48.64 28.57l.39-.11C63.8 78.49 54.83 88.2 47.32 99.05c.19-.3.58-.89.77-1.19 3.6-5.44 7.65-10.57 11.56-15.8.76-.99 1.52-1.98 2.27-2.98 2.56-4.12 6.32-7.27 9.15-11.19z" fill="#f9fafb"/><path fill="#e2e9f0" d="M37.22 36.81c2.61.72 4.82 2.31 5.97 4.8-3 1.49-5.92 3.13-8.84 4.76-3.89 2.27-8.67 2.83-12.01 6.05-1.51-1.16-3.02-2.31-4.46-3.55-.2-.51-.6-1.54-.81-2.05.51-.97 1.03-1.94 1.59-2.89.87 2.12 1.77 4.24 2.69 6.35 2.76-1.85 5.05-4.25 7.3-6.66 2.34-2.54 5.59-3.84 8.71-5.13-.04-.42-.11-1.26-.14-1.68z"/><path fill="#91a5bf" d="M10.87 44.84c3.6-2.34 7.26-4.73 11.56-5.52-1.35 1.45-2.64 2.97-3.77 4.61-.56.95-1.08 1.92-1.59 2.89l-.96 1.88c-1.94-.03-3.87-.07-5.81-.11.43 2.41.85 4.82 1.18 7.25-.7-.45-2.1-1.36-2.8-1.81.62-2.3-1.09-4.43-3.5-4.05l-.65-1.62c.01-.73.02-2.18.03-2.9 2.1.05 4.47.75 6.31-.62z"/><path fill="#f8f9fb" d="M68.96 42.19c4.38-1.48 9.12-2.63 13.63-.93a32.077 32.077 0 0 1-5.62 3.66c-4.29 2-6.78 6.24-10.15 9.37-.29-2.42-.34-4.88.04-7.3.68-1.61 1.4-3.2 2.1-4.8z"/><path fill="#bac9da" d="M83.36 40.7c1.55-.79 3.44-1.5 4.93-.15 3.53 2.62 8.75 3.78 10.03 8.53-1.69-1.89-3.89-3.19-6.12-4.33 1.13 2.54 2.67 4.96 3.28 7.71.48 2.36-.7 4.58-1.45 6.75-6.06 5.13-14.68 7.17-22.06 3.63a37.591 37.591 0 0 1-3.76-4.02c-.15-.37-.46-1.1-.62-1.47 6.32-1.93 12.91-3.13 19-5.7 2.69-1.07 3.11-4.29 1.84-6.61-1.66-1.48-3.38-2.89-5.07-4.34z"/><path fill="#6a9cc1" d="M126.69 39.27c.72 3.45.72 6.98-.05 10.42-.99-3.43-.79-6.98.05-10.42z"/><path fill="#e0e8ef" d="M82.59 41.26c.19-.14.58-.42.77-.56 1.69 1.45 3.41 2.86 5.07 4.34-6.75 4.25-13.8 8.11-21.5 10.32l-.11-1.07c3.37-3.13 5.86-7.37 10.15-9.37 2-1.02 3.88-2.25 5.62-3.66z"/><path fill="#fbc03c" d="M56.54 46.81c1.2-2.9 3.96-4.32 6.93-4.79-1.89 2.53-3.02 5.66-1.18 8.57-.99 2.3-1.95 4.61-2.94 6.91-1.16-1.99-2.56-3.84-4.5-5.13.08-.61.23-1.82.31-2.43.42-1.06.88-2.1 1.38-3.13z"/><path d="M124.76 42.09c-.4 4.86-1.18 9.77-3.3 14.21-2.66 3.5-5.71 6.99-9.95 8.55 2.07-1.95 4.38-3.8 5.82-6.3.76-2.17.94-4.48 1.28-6.74-2.69 2.27-5.44 4.47-8.34 6.48.52-1.34 1.05-2.68 1.58-4.01-3.12.16-6.26.18-9.35-.36 5.15-1.57 10.65-2.27 15.12-5.54.22.61.67 1.82.9 2.43 1.11-1.46 2.22-2.92 3.29-4.41 1-1.43 1.97-2.87 2.95-4.31zm-42.04 47.9c4.34-4.98 9.14-9.57 14.09-13.93-4.58 4.75-9.08 9.62-14.09 13.93z" fill="#596992"/><path fill="#f6f8fa" d="M48.27 45.37c2.83-.15 5.75.02 8.27 1.44-.5 1.03-.96 2.07-1.38 3.13l-.34.13c-4.23.86-7.47 3.73-10.46 6.65-1.24-1.34-2.48-2.67-3.72-4.01.2-.42.58-1.27.77-1.69 1.74-1.77 3.68-3.33 5.68-4.79.3-.21.89-.65 1.18-.86z"/><path fill="#cdd9e3" d="M88.43 45.04c1.27 2.32.85 5.54-1.84 6.61-6.09 2.57-12.68 3.77-19 5.7-.16-.5-.49-1.49-.66-1.99 7.7-2.21 14.75-6.07 21.5-10.32z"/><path fill="#b0b2ca" d="M17.07 46.82c.21.51.61 1.54.81 2.05.61 3.45 3.37 5.43 6.5 6.49l-.98.36c-1.01.35-2.04.67-3.06 1-.12 1.17-.23 2.34-.36 3.51-1.4-1.72-2.78-3.47-3.92-5.37 0-2.05.04-4.11.05-6.16l.96-1.88z"/><path fill="#e3ab8f" d="M63.67 54.11c1.06-2.37 2.15-4.74 3.19-7.12-.38 2.42-.33 4.88-.04 7.3l.11 1.07c.17.5.5 1.49.66 1.99.16.37.47 1.1.62 1.47-.64-.15-1.92-.46-2.56-.62-.67-1.36-1.33-2.73-1.98-4.09z"/><path fill="#537099" d="M10.3 48.59c1.94.04 3.87.08 5.81.11-.01 2.05-.05 4.11-.05 6.16 0 .67-.01 2.02-.01 2.69-1.53-.56-3.08-1.06-4.57-1.71-.33-2.43-.75-4.84-1.18-7.25z"/><path fill="#d9e2ea" d="M44.36 56.72c2.99-2.92 6.23-5.79 10.46-6.65-.13.42-.4 1.27-.53 1.7-.34.35-1.01 1.05-1.34 1.4-2.38 1.86-4.57 4.06-7.35 5.31-1.93-.21-3.72-1.06-5.54-1.68.18-1.36.35-2.73.58-4.09 1.24 1.34 2.48 2.67 3.72 4.01z"/><path fill="#b3c6d9" d="M24.38 55.36c5.46-2.14 11.19-3.69 17.03-4.34-.19.42-.57 1.27-.77 1.69-.23 1.36-.4 2.73-.58 4.09 1.82.62 3.61 1.47 5.54 1.68 2.78-1.25 4.97-3.45 7.35-5.31-.36 1.29-.64 2.59-1 3.88-.96 1.91-2.13 3.71-3.28 5.51-1.2-.7-2.4-1.39-3.6-2.07-.21.55-.64 1.66-.86 2.22-1.32-1.53-2.64-3.06-3.95-4.59-.33.56-1 1.67-1.33 2.23-5.63.69-11.07-1.29-15.53-4.63l.98-.36z"/><path fill="#f8ba3b" d="M52.95 53.17c.33-.35 1-1.05 1.34-1.4.03 3.58 1 7.09 3.23 9.94-.32.74-.64 1.48-.97 2.22-.14.32-.43.95-.57 1.26-1.29-2.74-2.61-5.46-4.03-8.14.36-1.29.64-2.59 1-3.88z"/><path d="M110.27 58.29c2.9-2.01 5.65-4.21 8.34-6.48-.34 2.26-.52 4.57-1.28 6.74-1.44 2.5-3.75 4.35-5.82 6.3-4.23 1.92-8.85 2.68-13.42 3.18l-.04-1.09c4.97-.67 9.78-2.32 13.74-5.47-.25-.71-.5-1.42-.74-2.13-3.99 2.76-9.6 1.84-13.06 5.35-3.59 3.32-7.52 6.56-12.3 7.93-3.88 1.06-7.96.67-11.9.14-.66-1-1.3-2.02-1.93-3.04 2.71.22 5.42.56 8.14.62 5.88.14 11.76-2.36 15.79-6.65 2.74-2.91 3.53-7.21 6.71-9.77 3.09.54 6.23.52 9.35.36-.53 1.33-1.06 2.67-1.58 4.01zm-85.45 9.98c1.04.52 2.1 1.02 3.18 1.46-6.65 6.37-12.65 13.52-20.06 19.04 5.46-7.16 12.45-12.97 18.69-19.42-.45-.27-1.36-.81-1.81-1.08zm19.73 37.16c3.59-2.47 6.34-5.9 9.62-8.73l-.56 1.66c-3.49 3.97-7.6 7.34-11.02 11.37.14-.72.42-2.16.57-2.88.17-.17.52-.51.7-.67l.44-.31.25-.44z" fill="#445582"/><path fill="#d08d71" d="M61.28 59.34c.79-1.75 1.6-3.48 2.39-5.23.65 1.36 1.31 2.73 1.98 4.09-.05 1.75-.11 3.5-.16 5.25-1.65-1.1-2.98-2.57-4.21-4.11z"/><path d="M111.51 64.85c4.24-1.56 7.29-5.05 9.95-8.55 1.12-.1 2.25-.21 3.37-.31-3.92 6.8-10.99 11.37-18.54 13.15-3.39.25-6.79.17-10.18.32l-1.02.61a37.95 37.95 0 0 0-3.54 3.03c-1.92.47-3.81 1.01-5.7 1.55-3.51.93-7.19.87-10.73.14-.33-.51-.99-1.52-1.33-2.03 3.94.53 8.02.92 11.9-.14 4.78-1.37 8.71-4.61 12.3-7.93.02.56.04 1.69.06 2.25l.04 1.09c4.57-.5 9.19-1.26 13.42-3.18zm-84.18-1.53c4.31.33 9.24 3.05 13.16.16.38.9.72 1.81 1.04 2.74l-.09 2.47c.49.4 1.47 1.22 1.96 1.63-5.09 1.12-10.52 1.67-15.4-.59-1.08-.44-2.14-.94-3.18-1.46-1.4-.83-2.74-1.77-3.99-2.81 2.15-.75 4.3-1.53 6.5-2.14z" fill="#6f86a8"/><path fill="#ffb307" d="M48.67 62.56c1.15-1.8 2.32-3.6 3.28-5.51 1.42 2.68 2.74 5.4 4.03 8.14-.72 1.65-1.41 3.32-2.09 4.99 1.78-.27 3.55-.56 5.33-.83 3.94-.55 7.88-1.11 11.85-1.46-2.83 3.92-6.59 7.07-9.15 11.19-1.83-3.5-5.52-4.8-8.85-6.41-.14.27-.42.8-.56 1.07-1.39-1.72-2.66-3.57-4.39-4.98-1.25-.31-2.55.15-3.8.26 1.02-1.45 2.02-2.91 3-4.39.33-.52 1.01-1.55 1.35-2.07z"/><path fill="#9f8881" d="M65.65 58.2c.64.16 1.92.47 2.56.62 1.15 1.43 2.41 2.77 3.76 4.02-.38 1.04-.75 2.09-1.13 3.13-2.04.16-4.06.41-6.08.68 1.36-.31 2.72-.68 4.08-1.04-1.12-.72-2.25-1.42-3.35-2.16.05-1.75.11-3.5.16-5.25z"/><path fill="#557eaa" d="M23.77 59.1c4.37.93 8.77 1.61 13.23 1.91 1.69-.19 2.53 1.38 3.49 2.47-3.92 2.89-8.85.17-13.16-.16-1.48-1.14-2.6-2.64-3.56-4.22z"/><path fill="#b8664e" d="M59.37 63.82c.64-1.49 1.26-2.99 1.91-4.48 1.23 1.54 2.56 3.01 4.21 4.11 1.1.74 2.23 1.44 3.35 2.16-1.36.36-2.72.73-4.08 1.04-2.34.37-4.69.68-7.02 1.11.58-1.3 1.09-2.62 1.63-3.94z"/><path fill="#2a4570" d="M97.99 64.69c3.46-3.51 9.07-2.59 13.06-5.35.24.71.49 1.42.74 2.13-3.96 3.15-8.77 4.8-13.74 5.47-.02-.56-.04-1.69-.06-2.25z"/><path fill="#5b93ba" d="M71.97 62.84c7.38 3.54 16 1.5 22.06-3.63-.69 1.53-.8 3.55-2.4 4.5-4.7 3.68-11.02 4.5-16.74 3.16l-1.53-.86-2.52-.04c.38-1.04.75-2.09 1.13-3.13z"/><path fill="#886e78" d="M41.88 63.27c1.81.45 3.63.9 5.44 1.36-.98 1.48-1.98 2.94-3 4.39-.23.33-.69.97-.92 1.3-.49-.41-1.47-1.23-1.96-1.63l.09-2.47c.09-.74.26-2.22.35-2.95z"/><path fill="#d85a07" d="M55.98 65.19c.14-.31.43-.94.57-1.26.71-.03 2.11-.08 2.82-.11-.54 1.32-1.05 2.64-1.63 3.94a275 275 0 0 0-1.44 1.77c.73-.05 2.19-.14 2.92-.18-1.78.27-3.55.56-5.33.83.68-1.67 1.37-3.34 2.09-4.99z"/><path fill="#972a0a" d="M64.76 66.65c2.02-.27 4.04-.52 6.08-.68l2.52.04 1.53.86-1.19.3c-.56.15-1.68.46-2.24.61l-.39.11c-3.97.35-7.91.91-11.85 1.46-.73.04-2.19.13-2.92.18.36-.45 1.08-1.33 1.44-1.77 2.33-.43 4.68-.74 7.02-1.11z"/><path fill="#ae2b0b" opacity=".82" d="M71.46 67.78c.56-.15 1.68-.46 2.24-.61-1.38 1.9-2.77 3.8-4.25 5.62-7.15 8.75-13.91 17.8-20.92 26.66-1.5 1.88-3.01 3.77-3.98 5.98l-.42.28-.27.47c-.18.16-.53.5-.7.67-.53.27-1.57.82-2.1 1.09l.12-1.93c2.6-1.78 4.45-4.35 6.14-6.96C54.83 88.2 63.8 78.49 71.46 67.78z"/><path fill="#ff9507" d="M44.32 69.02c1.25-.11 2.55-.57 3.8-.26 1.73 1.41 3 3.26 4.39 4.98.14-.27.42-.8.56-1.07 3.33 1.61 7.02 2.91 8.85 6.41-.75 1-1.51 1.99-2.27 2.98-1.45-1.54-2.9-3.09-4.34-4.64l-.68 1.08c-1.44-1.5-2.88-2.98-4.32-4.46-.87.7-1.74 1.4-2.6 2.11a52.635 52.635 0 0 1-5.3-4.47c.25-.34.74-1.02.99-1.36.23-.33.69-.97.92-1.3z"/><path fill="#494d73" opacity=".8" d="M95.09 70.07l1.02-.61c3.39-.15 6.79-.07 10.18-.32-3.66.92-7.45.94-11.2.93z"/><path fill="#ff7800" d="M37.65 77.9c1.65-2.03 3.21-4.12 4.76-6.22 1.67 1.6 3.43 3.1 5.3 4.47.86-.71 1.73-1.41 2.6-2.11 1.44 1.48 2.88 2.96 4.32 4.46l.68-1.08c1.44 1.55 2.89 3.1 4.34 4.64-3.91 5.23-7.96 10.36-11.56 15.8-1.51-1.12-3.02-2.25-4.52-3.37 1.31-2.63 2.63-5.24 3.97-7.86.89-1.68 1.76-3.36 2.62-5.06-.2.04-.6.1-.81.14-4.91.09-9.83.27-14.74.38 1.07-1.36 2.04-2.79 3.04-4.19z"/><path fill="#5e537c" opacity=".89" d="M85.85 74.65c1.89-.54 3.78-1.08 5.7-1.55-3.34 3.62-6.85 7.1-10.36 10.56l-.26-2.12c2.42-2.47 4.91-4.85 7.28-7.37l-2.36.48z"/><path fill="#251e24" opacity=".29" d="M49.35 81.71c.21-.04.61-.1.81-.14-.86 1.7-1.73 3.38-2.62 5.06-5.73 2.62-8.63 8.76-14.05 11.87 4.35-6.43 10.93-10.86 15.86-16.79z"/><path fill="#4e416e" opacity=".88" d="M64.69 99c4.26-6.77 10.74-11.74 16.24-17.46l.26 2.12C75.85 88.92 70.86 94.67 64.69 99z"/><path fill="#ffab00" d="M33.2 115.09c3.4-6.9 6.93-13.72 10.37-20.6 1.5 1.12 3.01 2.25 4.52 3.37-.19.3-.58.89-.77 1.19-1.69 2.61-3.54 5.18-6.14 6.96l-.12 1.93c-3.47 3.25-6.43 7.07-8.65 11.29l-.2.33c-.85.34-1.7.67-2.55 1.01 1.35-1.71 2.6-3.51 3.54-5.48z"/><path fill="#0c0609" opacity=".11" d="M44.13 105.71l.42-.28-.25.44-.44.31.27-.47z"/><path fill="#af1500" opacity=".82" d="M32.41 119.23c2.22-4.22 5.18-8.04 8.65-11.29l-.36 2.16c-2.84 2.97-5.09 6.49-8.29 9.13z"/></svg>