<svg width="128pt" height="128pt" viewBox="0 0 128 128" xmlns="http://www.w3.org/2000/svg"><path fill="#b41019" d="M66.68 5.97c4.08-3.26 9.87-1.6 14.24.21 4.16 1.91 9.34 5.4 8.34 10.7 0 2.84-2.62 4.7-5.22 4.97-.49.05-1.47.14-1.95.18l-.08.68c-.15.6-.45 1.78-.59 2.38-.65 2.44-1.47 4.99-.86 7.54.54 3.68 2.11 8.11-.56 11.33-4 3.35-9.79 1.99-14.33.61-1.25-.46-2.47-1-3.67-1.56-4.32-2.03-8.01-5.6-8.9-10.45.91-1.25 1.8-2.52 2.71-3.77-1.68 3.77-.7 9.8 4.09 10.44.51.47 1.53 1.43 2.04 1.91 4.94.73 9.74 4.43 14.82 2.61 2.79-1.04 2.97-4.21 2.69-6.72-.39-2.84-.97-5.67-.98-8.55-1.02.34-2.03.68-3.04 1.02 1.13 2.62 3.62 5.32 2.57 8.33-.9 3.37-5.06 2.41-7.7 2.54.29-3.04.41-6.09.3-9.14 1.14.22 2.27.44 3.41.64-3.07-.79-5.84-2.35-7.95-4.74 1-2.42 1.97-4.84 3.07-7.22.49-.78 1-1.56 1.53-2.33.43.15 1.3.46 1.73.61 4.31 1.89 9.52 3.62 13.96 1.09 1.06-1.51 1.21-3.43 1.53-5.2-4.21-7.13-13.4-9.87-21.2-8.11z"/><path fill="#e41a23" d="M66.68 5.97c7.8-1.76 16.99.98 21.2 8.11-4.31 4.18-10.92.24-15.49 4.11-.43-.15-1.3-.46-1.73-.61-.53.77-1.04 1.55-1.53 2.33-1.28 1.98-2.24 4.14-3.2 6.29-2.84 1.96-5.67 4-7.84 6.71 1.51-1.1 2.94-2.31 4.34-3.54 2.58 2.81 3.6 6.44 3.18 10.19 1.56.28 3.12.57 4.69.81 2.64-.13 6.8.83 7.7-2.54 1.05-3.01-1.44-5.71-2.57-8.33 1.01-.34 2.02-.68 3.04-1.02.01 2.88.59 5.71.98 8.55-.3 2.23-.32 5.06-2.63 6.26-2.83 1.42-6.12.31-8.96-.57-2.09-.86-4.77-1.22-5.89-3.46l-2.07-.03c-4.79-.64-5.77-6.67-4.09-10.44 2.49-2.54 6.31-3.68 7.97-7 1.08-1.87 2.2-3.73 2.97-5.74-.9-1.95-2.79-3.64-2.46-5.97.28-1.49 1.26-2.71 1.92-4.05l.47-.06m7.63 8.32c-2.57-2.12-5.1-4.45-5.96-7.82-1.67 3.82 2.36 7.46 5.96 7.82m.32-4.52c.06 3.06 3.38 3.07 5.61 3.31-.87-2.41-3.3-3.08-5.61-3.31z"/><path fill="#ea454d" d="M74.31 14.29c-3.6-.36-7.63-4-5.96-7.82.86 3.37 3.39 5.7 5.96 7.82z"/><path fill="#b8070a" d="M74.63 9.77c2.31.23 4.74.9 5.61 3.31-2.23-.24-5.55-.25-5.61-3.31z"/><path fill="#c3122f" d="M87.88 14.08c-.32 1.77-.47 3.69-1.53 5.2-4.44 2.53-9.65.8-13.96-1.09 4.57-3.87 11.18.07 15.49-4.11z"/><path d="M65.93 26.2c.96-2.15 1.92-4.31 3.2-6.29-1.1 2.38-2.07 4.8-3.07 7.22 2.11 2.39 4.88 3.95 7.95 4.74-1.14-.2-2.27-.42-3.41-.64-1.83-.98-3.28-2.5-4.86-3.81-1.38-.09-2.26 1.26-3.31 1.95-1.4 1.23-2.83 2.44-4.34 3.54 2.17-2.71 5-4.75 7.84-6.71zm-40.56 4.18c1.58-1.28 3.44-2.63 5.6-2.03 7.39 1.31 14.76 2.74 22.13 4.21.89 4.85 4.58 8.42 8.9 10.45-.65 4.64-2.01 9.13-3.61 13.53 2.63-2.07 3.9-5.19 5.28-8.13l1.45 1.53c1.7 2.48 2.88 5.25 4.12 7.98-1.9-.01-3.8 0-5.7.04 3.44 2.55 7.76 3.04 11.54 4.82-.58.01-1.74.02-2.32.03 1.77 3.56 3.59 7.1 5.55 10.55-5.58-.76-11.11-1.83-16.61-3.07-6.15-10.92-12.03-21.99-17.79-33.11-1.04-2.47-3.07-4.35-5.84-4.55-1.77-.42-3.54-.81-5.34-1.11.31-.43.93-1.28 1.24-1.71-2.87.09-5.74.29-8.6.57z" fill="#d2c9bb"/><path fill="#c9c1b2" d="M82.09 22.03c.48-.04 1.46-.13 1.95-.18 1.76 1.59 2.96 3.68 4.35 5.58 11.23 15.86 22.48 31.71 33.73 47.55.95 1.23 1.42 2.69 1.5 4.24-1.06.96-1.28 2.34-1.59 3.66l-.39.42c-7.8 3-15.03 7.3-22.59 10.85-3.55 1.51-6.92 4.49-11.01 3.86-8.96-1.13-17.91-2.27-26.87-3.34-4.89 5.07-9.95 9.99-14.83 15.08-3.11 2.75-5.46 6.61-9.32 8.36-3.77.98-6.26-2.71-6.98-5.88-.03-1.72-.73-3.36-2.14-4.39-.27-.92-.52-1.84-.77-2.76-.29-1.55-.64-3.37-2.21-4.13l.06-.84c.5-1.71-.1-4.04-2.17-4.22-.21-.92-.42-1.83-.62-2.75-.17-1.69-1-3.19-2.22-4.35-.3-.91-.6-1.82-.91-2.73-.3-.53-.91-1.61-1.22-2.14-.24-.92-.48-1.83-.72-2.74-.2-1.61-.89-3.1-1.99-4.29-.39-.89-.74-1.8-1.05-2.73-.11-1.67-.81-3.24-2.09-4.34-.3-.92-.61-1.84-.92-2.76-.31-.54-.92-1.61-1.22-2.14-.25-.93-.49-1.86-.71-2.79a6.97 6.97 0 0 0-2.11-4.33c-.41-.9-.81-1.79-1.22-2.69-1.08-2.68-2.84-6.21-.4-8.69 3.78-3.29 7.69-6.5 11.84-9.31-.53.79-1.07 1.57-1.61 2.35-1.72 1.95-3.82 3.51-5.79 5.19-1.19 1.24-2.26 2.59-3.31 3.94 3 6.39 5.06 13.2 8.61 19.33 1.32 2.31 1.74 4.95 2.65 7.42 3.21 7.77 6.89 15.36 9.94 23.2 1.11 3.11 2.21 6.22 3.51 9.25.94 1.98 1.87 4.04 3.38 5.66 1.57.34 2.55-1.33 3.67-2.12 6.47-5.69 11.1-13.18 18.01-18.4 1.2-.85 2.39-1.72 3.58-2.59 1.26.83 2.59 1.62 4.13 1.76 6.3.97 12.67 1.33 18.97 2.34 3.57.48 7.47 1.45 10.76-.58 8.31-4.48 16.99-8.31 25.18-13.02.2-.37.61-1.12.81-1.49.24-.21.73-.62.98-.82-1.67-3.02-3.52-5.92-5.4-8.81-1.47-2.42-3.12-4.74-5.33-6.54l-.49-.48c-.74-1.46-1.45-2.95-2.25-4.38-8.45-11.84-16.81-23.76-25.24-35.61l.08-.68z"/><path fill="#e9e3d9" d="M82.01 22.71c8.43 11.85 16.79 23.77 25.24 35.61l-2.03.44a226 226 0 0 1-3.89-5.81c-1.06-1.64-2.14-3.32-3.66-4.56-1.53-.76-3 .27-4.3.98-2.99 1.83-6.2 3.24-9.31 4.85-1.29.63-2.57 1.29-3.89 1.88-.59-.56-1.18-1.12-1.76-1.68 1.12-.72 2.26-1.42 3.36-2.17 4.03-3.34 7.56-7.32 12.23-9.83-3.68-6.12-7.94-11.91-12.58-17.33.14-.6.44-1.78.59-2.38z"/><path fill="#a6cad8" d="M80.56 32.63c-.61-2.55.21-5.1.86-7.54 4.64 5.42 8.9 11.21 12.58 17.33-4.67 2.51-8.2 6.49-12.23 9.83-5.57-.73-10.93-2.67-16.65-2.31l-1.45-1.53c.64-1.29 1.31-2.57 2-3.84C70.21 45.95 76 47.31 80 43.96c2.67-3.22 1.1-7.65.56-11.33z"/><path fill="#cc1f1c" d="M62.43 29.37c1.05-.69 1.93-2.04 3.31-1.95 1.58 1.31 3.03 2.83 4.86 3.81.11 3.05-.01 6.1-.3 9.14-1.57-.24-3.13-.53-4.69-.81.42-3.75-.6-7.38-3.18-10.19z"/><path fill="#d8d2ca" d="M25.27 30.39l.1-.01c2.86-.28 5.73-.48 8.6-.57-.31.43-.93 1.28-1.24 1.71-.51-.05-1.52-.15-2.03-.19 1.56 5.05 4.76 9.31 7.03 14.04l.02.05c-1.75 1.05-3.48 2.16-5.17 3.31-2.5-4.73-4.81-9.55-7.42-14.22-2.26 1.88-4.57 3.68-6.79 5.58l.72 1.84c-.44-.83-.89-1.66-1.34-2.49-.53.01-1.58.01-2.11.02.54-.78 1.08-1.56 1.61-2.35 2.42-2.52 5.46-4.34 8.02-6.72z"/><path fill="#c9beaf" d="M30.7 31.33c.51.04 1.52.14 2.03.19 1.8.3 3.57.69 5.34 1.11l-1.18.37c1.46 3.83 3.45 7.41 5.36 11.03-1.51.45-3.02.89-4.52 1.34-2.27-4.73-5.47-8.99-7.03-14.04z"/><path fill="#d4ba67" d="M36.89 33l1.18-.37c2.77.2 4.8 2.08 5.84 4.55C49.67 48.3 55.55 59.37 61.7 70.29c5.5 1.24 11.03 2.31 16.61 3.07.11.2.35.59.46.79.95 1.65 1.85 3.33 2.78 4.99-5.69-.43-11.18-2.01-16.76-3.11 1.27 2.74 2.65 5.43 4.24 8 .53.88 1.07 1.77 1.55 2.68.52 1.25 1.01 2.51 1.48 3.78-2.59-.48-6.14-.22-7.41-3.09-7.68-14.35-14.71-29.03-22.4-43.37-1.91-3.62-3.9-7.2-5.36-11.03z"/><path fill="#f0921d" d="M18.37 40.09c2.22-1.9 4.53-3.7 6.79-5.58 2.61 4.67 4.92 9.49 7.42 14.22 4.54 8.48 8.81 17.1 13.33 25.59 2.16 4.21 4.37 8.38 6.51 12.59l.84 1.68c.81 1.59 1.6 3.17 2.39 4.76-3.51 1.97-5.89 5.32-9.02 7.76l-1.52-3.48c-.45-1-.9-1.99-1.36-2.99-1.24-2.66-2.49-5.32-3.74-7.98-.94-1.99-1.9-3.98-2.97-5.91-.19-.27-.55-.8-.74-1.07-2.27-3.32-5.3-6.55-9.43-7.32-2.75-.65-5.45.5-8.01 1.37-.69-1.38-1.26-2.82-1.79-4.27-.7-.87-1.4-1.74-2.11-2.6 4.89-2.52 10.73-3.09 15.74-.5-1.96-3.79-3.7-7.68-5.51-11.54-.19-.41-.57-1.23-.77-1.64-1.72-3.77-3.48-7.54-5.33-11.25l-.72-1.84m4.02-.89c.45.49.45.49 0 0m2.68 5.1c-.87.93.38 2.97 1.59 2.29.84-.93-.39-2.96-1.59-2.29m3.11 6.02c-.86 1.06-.18 2.97 1.09 3.37 1.85-.34.62-4.13-1.09-3.37m3.17 6.96c-.8.92.31 3.04 1.54 2.38.81-.92-.31-3.05-1.54-2.38m3.22 6.74c-.69 1.11.59 3.32 1.94 2.72.8-1.09-.59-3.44-1.94-2.72m-11.3 3.3c-1.2 2 3.21 2.93 3.48.88-.35-1.41-2.46-1.8-3.48-.88m7.06 2.1c-.83 1.59 1.93 3.17 3.23 2.3.67-1.57-1.92-3.17-3.23-2.3m7.84.99c-.87 1.02.1 3.49 1.55 3.08.81-1.02-.12-3.44-1.55-3.08m-1.65 3.67c-.58 1.22 1.15 2.93 2.37 2.38.83-1.24-1.13-3.16-2.37-2.38m4.74 3.23c-.73.93.3 3.08 1.56 2.49.74-.93-.3-3.08-1.56-2.49m3.27 6.74c-.77 1.1.56 3.33 1.91 2.73.79-1.09-.56-3.37-1.91-2.73m3.6 6.47c-.9 1 .12 3.55 1.57 3.03.75-1.03-.16-3.4-1.57-3.03z"/><path d="M76.82 43.29c2.31-1.2 2.33-4.03 2.63-6.26.28 2.51.1 5.68-2.69 6.72-5.08 1.82-9.88-1.88-14.82-2.61-.51-.48-1.53-1.44-2.04-1.91l2.07.03c1.12 2.24 3.8 2.6 5.89 3.46 2.84.88 6.13 1.99 8.96.57zm33.17 19.89c2.21 1.8 3.86 4.12 5.33 6.54-8.86 5.52-18.4 9.87-27.43 15.1-1.46.59-1.75 2.15-2.25 3.46 5.23-1.45 9.69-4.64 14.46-7.11 5.42-2.8 10.62-6.03 16.18-8.59.5 2.05 2.57 5.32-.24 6.53-8.59 4.86-17.8 8.51-26.66 12.83-1.35-1.46-2.46-3.56-4.62-3.84-4.65-1.04-9.42-1.45-14.18-1.39-.48-.91-1.02-1.8-1.55-2.68 5.46.83 10.84 2.17 16.37 2.41-1.04-2.12-2.12-4.22-3.28-6.27 7.8-4.16 15.36-8.75 23.12-12.97 1.8-1.04 3.9-1.96 4.75-4.02z" fill="#e3dcd2"/><path fill="#e0dbd5" d="M15.64 39.46c.53-.01 1.58-.01 2.11-.02.45.83.9 1.66 1.34 2.49 1.85 3.71 3.61 7.48 5.33 11.25-2.61-.66-5.56-1.01-7.57-3-1.68-1.65-2.88-3.7-4.16-5.65l-2.84.12c1.97-1.68 4.07-3.24 5.79-5.19z"/><path fill="#f5b567" d="M22.39 39.2c.45.49.45.49 0 0z"/><path fill="#a4968e" d="M62 43.01c1.2.56 2.42 1.1 3.67 1.56-.69 1.27-1.36 2.55-2 3.84-1.38 2.94-2.65 6.06-5.28 8.13 1.6-4.4 2.96-8.89 3.61-13.53z"/><path fill="#eae7e3" d="M9.85 44.65l2.84-.12c1.28 1.95 2.48 4 4.16 5.65 2.01 1.99 4.96 2.34 7.57 3 .2.41.58 1.23.77 1.64-1.78 1.29-3.48 2.75-5.5 3.65-5.22-1.04-9.24-5.15-11.01-10.06-.54.04-1.61.13-2.14.18 1.05-1.35 2.12-2.7 3.31-3.94z"/><path fill="#f5af5a" d="M25.07 44.3c1.2-.67 2.43 1.36 1.59 2.29-1.21.68-2.46-1.36-1.59-2.29z"/><path fill="#cec4b4" d="M37.73 45.37c1.5-.45 3.01-.89 4.52-1.34 7.69 14.34 14.72 29.02 22.4 43.37 1.27 2.87 4.82 2.61 7.41 3.09-.47-1.27-.96-2.53-1.48-3.78 4.76-.06 9.53.35 14.18 1.39 2.16.28 3.27 2.38 4.62 3.84l1.25 1.57c-10.34-.04-20.38-3.38-30.74-3.17-.71-2.11-1.52-4.2-2.5-6.2l-.84-1.68c-2.21-3.91-4.31-7.88-6.3-11.91-3.7-8.62-8.84-16.51-12.5-25.13l-.02-.05z"/><path d="M32.58 48.73c1.69-1.15 3.42-2.26 5.17-3.31 3.66 8.62 8.8 16.51 12.5 25.13-1.45 1.26-2.89 2.52-4.34 3.77-4.52-8.49-8.79-17.11-13.33-25.59zm55.31 36.09c9.03-5.23 18.57-9.58 27.43-15.1 1.88 2.89 3.73 5.79 5.4 8.81-.25.2-.74.61-.98.82-9.73 4.67-19.57 9.13-29.11 14.16l-1.25-1.57c8.86-4.32 18.07-7.97 26.66-12.83 2.81-1.21.74-4.48.24-6.53-5.56 2.56-10.76 5.79-16.18 8.59-4.77 2.47-9.23 5.66-14.46 7.11.5-1.31.79-2.87 2.25-3.46zm-41.26 16.29c3.13-2.44 5.51-5.79 9.02-7.76l.66-.42c-6.91 5.22-11.54 12.71-18.01 18.4-1.12.79-2.1 2.46-3.67 2.12-1.51-1.62-2.44-3.68-3.38-5.66 3.52-4.95 8.17-8.93 12.5-13.15.46 1 .91 1.99 1.36 2.99-3.84 4.13-8.52 7.56-11.54 12.39.37.36 1.12 1.07 1.49 1.43 4.9-2.1 7.52-7.1 11.57-10.34z" fill="#f6f4f1"/><path fill="#f5f3f0" d="M6.54 48.59c.53-.05 1.6-.14 2.14-.18 1.77 4.91 5.79 9.02 11.01 10.06 2.02-.9 3.72-2.36 5.5-3.65 1.81 3.86 3.55 7.75 5.51 11.54-5.01-2.59-10.85-2.02-15.74.5.71.86 1.41 1.73 2.11 2.6.53 1.45 1.1 2.89 1.79 4.27 2.56-.87 5.26-2.02 8.01-1.37 4.13.77 7.16 4 9.43 7.32-4.67.43-9.34.94-13.94 1.86 1.24 3.05 2.59 6.06 3.54 9.21.66 2.45 1.45 4.86 2.48 7.17-.16.16-.48.47-.64.62-3.05-7.84-6.73-15.43-9.94-23.2-.91-2.47-1.33-5.11-2.65-7.42-3.55-6.13-5.61-12.94-8.61-19.33z"/><path fill="#c0bfb5" d="M93.37 49.37c1.3-.71 2.77-1.74 4.3-.98 1.52 1.24 2.6 2.92 3.66 4.56.02 2.24.44 4.68-.56 6.78-3.61 2.86-7.97 4.62-12.3 6.12a73.688 73.688 0 0 1-3.52-6.92c1.99 2 3.68 4.68 6.7 5.11 1.09-3.98-.29-7.78-2.91-10.81-1.57.31-3.13.61-4.68.99 3.11-1.61 6.32-3.02 9.31-4.85z"/><path opacity=".16" d="M6.19 61.7c-1.63-4.11-4.64-8.47-2.83-13.01.71 2.18 1.41 4.37 2.45 6.42.41.9.81 1.79 1.22 2.69-.43 1.7-.04 4.16 2.11 4.33.22.93.46 1.86.71 2.79.3.53.91 1.6 1.22 2.14.31.92.62 1.84.92 2.76-.39 1.71 0 4.06 2.09 4.34.31.93.66 1.84 1.05 2.73l-.39.6c-.17 1.59.72 3.37 2.38 3.69.24.91.48 1.82.72 2.74.31.53.92 1.61 1.22 2.14.31.91.61 1.82.91 2.73-.31 1.71.05 4.2 2.22 4.35.2.92.41 1.83.62 2.75.16 1.64.93 3.14 2.17 4.22l-.06.84c-.44 1.7.26 3.85 2.21 4.13.25.92.5 1.84.77 2.76-.22 1.7.12 3.99 2.14 4.39.72 3.17 3.21 6.86 6.98 5.88 3.86-1.75 6.21-5.61 9.32-8.36 6.69-1.31 11.41-6.85 17.9-8.64 6.4-1.79 13.07-3.24 19.75-2.49 3.31.24 6.88 1.07 9.97-.61 6.26-3.06 12.43-6.34 18.73-9.35 3.11-1.54 6.46-2.85 8.95-5.36l.39-.42c1.1-1.15 1.99-2.47 2.95-3.73.17 5.43-4.94 8.57-9.26 10.59-6.71 3.24-13.37 6.6-20.02 9.96-5.13 2.83-11.13 1.22-16.68 1.62-11.75.62-22.4 6.4-32.02 12.72-3.81 2.63-6.87 7.5-12.03 7.22-3.12-.78-5.33-3.69-6.53-6.55C21.05 97.03 13.61 79.37 6.19 61.7z"/><path fill="#f4ac54" d="M28.18 50.32c1.71-.76 2.94 3.03 1.09 3.37-1.27-.4-1.95-2.31-1.09-3.37z"/><path d="M65.12 49.94c5.72-.36 11.08 1.58 16.65 2.31-1.1.75-2.24 1.45-3.36 2.17.58.56 1.17 1.12 1.76 1.68-2.13-.15-4.24-.52-6.37-.57-.18 1.49-.21 3-.3 4.49-1.52-.48-3.09-.96-4.26-2.1-1.24-2.73-2.42-5.5-4.12-7.98zM45.91 74.32c1.45-1.25 2.89-2.51 4.34-3.77 1.99 4.03 4.09 8 6.3 11.91-1.83 1.02-3.48 2.38-4.13 4.45-2.14-4.21-4.35-8.38-6.51-12.59zm-23.55 7.22c4.6-.92 9.27-1.43 13.94-1.86.19.27.55.8.74 1.07-3.71 3.34-7.32 6.79-11.14 10-.95-3.15-2.3-6.16-3.54-9.21z" fill="#ebe5db"/><path fill="#a1a79d" d="M84.06 54.22c1.55-.38 3.11-.68 4.68-.99 2.62 3.03 4 6.83 2.91 10.81-3.02-.43-4.71-3.11-6.7-5.11 1.05 2.37 2.23 4.68 3.52 6.92a626.47 626.47 0 0 1-6.86 4.55c-2.45-2.3-4.37-5.06-6.53-7.62-3.78-1.78-8.1-2.27-11.54-4.82 1.9-.04 3.8-.05 5.7-.04 1.17 1.14 2.74 1.62 4.26 2.1.09-1.49.12-3 .3-4.49 2.13.05 4.24.42 6.37.57 1.32-.59 2.6-1.25 3.89-1.88z"/><path fill="#e8e3d9" d="M101.33 52.95a226 226 0 0 0 3.89 5.81l2.03-.44c.8 1.43 1.51 2.92 2.25 4.38-.98-.92-1.91-1.9-2.84-2.85-9.57 4.19-18.52 9.67-27.89 14.3-.11-.2-.35-.59-.46-.79-1.96-3.45-3.78-6.99-5.55-10.55.58-.01 1.74-.02 2.32-.03 2.16 2.56 4.08 5.32 6.53 7.62 2.3-1.5 4.58-3.02 6.86-4.55 4.33-1.5 8.69-3.26 12.3-6.12 1-2.1.58-4.54.56-6.78z"/><path fill="#f5b361" d="M31.35 57.28c1.23-.67 2.35 1.46 1.54 2.38-1.23.66-2.34-1.46-1.54-2.38z"/><path fill="#43413c" opacity=".65" d="M7.03 57.8a6.97 6.97 0 0 1 2.11 4.33c-2.15-.17-2.54-2.63-2.11-4.33z"/><path fill="#fdc91b" d="M78.77 74.15c9.37-4.63 18.32-10.11 27.89-14.3.93.95 1.86 1.93 2.84 2.85l.49.48c-.85 2.06-2.95 2.98-4.75 4.02-7.76 4.22-15.32 8.81-23.12 12.97-.14-.26-.43-.77-.57-1.03-.93-1.66-1.83-3.34-2.78-4.99z"/><path fill="#f4ad55" d="M34.57 64.02c1.35-.72 2.74 1.63 1.94 2.72-1.35.6-2.63-1.61-1.94-2.72z"/><path fill="#f4aa50" d="M23.27 67.32c1.02-.92 3.13-.53 3.48.88-.27 2.05-4.68 1.12-3.48-.88z"/><path fill="#f3aa50" d="M30.33 69.42c1.31-.87 3.9.73 3.23 2.3-1.3.87-4.06-.71-3.23-2.3z"/><path fill="#3d3b36" opacity=".62" d="M11.99 69.82c1.28 1.1 1.98 2.67 2.09 4.34-2.09-.28-2.48-2.63-2.09-4.34z"/><path fill="#f4af59" d="M38.17 70.41c1.43-.36 2.36 2.06 1.55 3.08-1.45.41-2.42-2.06-1.55-3.08z"/><path fill="#f4af5a" d="M36.52 74.08c1.24-.78 3.2 1.14 2.37 2.38-1.22.55-2.95-1.16-2.37-2.38z"/><path fill="#ccc1b0" d="M64.79 76.03c5.58 1.1 11.07 2.68 16.76 3.11.14.26.43.77.57 1.03 1.16 2.05 2.24 4.15 3.28 6.27-5.53-.24-10.91-1.58-16.37-2.41-1.59-2.57-2.97-5.26-4.24-8z"/><path fill="#45433e" opacity=".65" d="M15.13 76.89a7.692 7.692 0 0 1 1.99 4.29c-1.66-.32-2.55-2.1-2.38-3.69l.39-.6z"/><path fill="#f6b96d" d="M41.26 77.31c1.26-.59 2.3 1.56 1.56 2.49-1.26.59-2.29-1.56-1.56-2.49z"/><path fill="#bdb09b" d="M90.63 93.51c9.54-5.03 19.38-9.49 29.11-14.16-.2.37-.61 1.12-.81 1.49-8.19 4.71-16.87 8.54-25.18 13.02-3.29 2.03-7.19 1.06-10.76.58-6.3-1.01-12.67-1.37-18.97-2.34-1.54-.14-2.87-.93-4.13-1.76 10.36-.21 20.4 3.13 30.74 3.17z"/><path fill="#fdd120" d="M25.9 90.75c3.82-3.21 7.43-6.66 11.14-10 1.07 1.93 2.03 3.92 2.97 5.91-3.89 3.74-7.72 7.54-11.63 11.26-1.03-2.31-1.82-4.72-2.48-7.17z"/><path fill="#fdfcfb" d="M52.42 86.91c.65-2.07 2.3-3.43 4.13-4.45l.84 1.68c-.96 1.83-2.51 3.21-4.13 4.45l-.84-1.68z"/><path opacity=".42" d="M99.05 94.15c7.56-3.55 14.79-7.85 22.59-10.85-2.49 2.51-5.84 3.82-8.95 5.36-6.3 3.01-12.47 6.29-18.73 9.35-3.09 1.68-6.66.85-9.97.61-6.68-.75-13.35.7-19.75 2.49-6.49 1.79-11.21 7.33-17.9 8.64 4.88-5.09 9.94-10.01 14.83-15.08 8.96 1.07 17.91 2.21 26.87 3.34 4.09.63 7.46-2.35 11.01-3.86z"/><path fill="#534f49" opacity=".74" d="M17.84 83.92c.31.53.92 1.61 1.22 2.14-.3-.53-.91-1.61-1.22-2.14z"/><path fill="#f4ae56" d="M44.53 84.05c1.35-.64 2.7 1.64 1.91 2.73-1.35.6-2.68-1.63-1.91-2.73z"/><path d="M57.39 84.14c.98 2 1.79 4.09 2.5 6.2-1.19.87-2.38 1.74-3.58 2.59l-.66.42c-.79-1.59-1.58-3.17-2.39-4.76 1.62-1.24 3.17-2.62 4.13-4.45zM28.38 97.92c3.91-3.72 7.74-7.52 11.63-11.26 1.25 2.66 2.5 5.32 3.74 7.98-4.33 4.22-8.98 8.2-12.5 13.15-1.3-3.03-2.4-6.14-3.51-9.25.16-.15.48-.46.64-.62z" fill="#eae4da"/><path fill="#3f3d38" opacity=".63" d="M19.97 88.79c1.22 1.16 2.05 2.66 2.22 4.35-2.17-.15-2.53-2.64-2.22-4.35z"/><path fill="#f4ae57" d="M48.13 90.52c1.41-.37 2.32 2 1.57 3.03-1.45.52-2.47-2.03-1.57-3.03z"/><path fill="#6f6b62" opacity=".8" d="M22.81 95.89c2.07.18 2.67 2.51 2.17 4.22a6.398 6.398 0 0 1-2.17-4.22z"/><path fill="#e8e2d8" d="M33.57 110.02c3.02-4.83 7.7-8.26 11.54-12.39l1.52 3.48c-4.05 3.24-6.67 8.24-11.57 10.34-.37-.36-1.12-1.07-1.49-1.43z"/><path fill="#393732" opacity=".6" d="M24.92 100.95c1.57.76 1.92 2.58 2.21 4.13-1.95-.28-2.65-2.43-2.21-4.13z"/><path fill="#413f3a" opacity=".64" d="M27.9 107.84c1.41 1.03 2.11 2.67 2.14 4.39-2.02-.4-2.36-2.69-2.14-4.39z"/></svg>