<svg width="256pt" height="256pt" viewBox="0 0 256 256" xmlns="http://www.w3.org/2000/svg"><g fill="#15150e"><path d="M123.47 4.69c4.69-1.94 10.16-.46 13.61 3.15 34.04 34.01 68.05 68.04 102.08 102.06 2.84 3.02 6.69 5.73 7.22 10.17 1.61 5.87-2.47 11.03-6.5 14.79-33.01 33.33-66.32 66.37-99.45 99.58-2.53 2.35-4.76 5.53-8.31 6.23-4.62 2.14-10.19.34-13.58-3.25-32.65-32.63-65.31-65.26-97.92-97.94-3.42-3.6-7.21-6.92-9.97-11.09-2.33-4.68-1.66-10.83 2.22-14.49C47.86 78.86 82.89 43.86 117.91 8.85c1.6-1.67 3.44-3.19 5.56-4.16m.9 7.75C88.9 47.94 53.38 83.4 17.94 118.95c-1.78 1.34-1.61 3.62-1.31 5.59 35.86 36.1 71.94 72 107.92 107.98 1.38 1.83 4.1 1.09 6.03.9 35.69-35.58 71.25-71.31 106.98-106.87 2.81-1.83 2.67-6.24.06-8.18-35.19-35.25-70.38-70.51-105.67-105.67-1.46-1.83-3.84-1.72-5.95-1.48-.41.31-1.22.91-1.63 1.22z"/><path d="M126.42 28.46c2.19-1.12 5.15-.55 6.77 1.36 29.2 29.16 58.42 58.3 87.6 87.48 2.38 2.21 2.53 6.36.13 8.62-29.23 29.44-58.64 58.69-87.98 88.02-2.23 2.4-6.42 2.09-8.51-.36-28.67-28.66-57.42-57.25-86.01-86-3.13-2.21-4.71-6.94-1.78-9.96 28.98-29.03 58.05-57.97 87.06-86.97.81-.84 1.66-1.66 2.72-2.19m.02 2.97c-29.17 29.17-58.33 58.35-87.5 87.52-1.65 1.24-1.74 3.95-.15 5.29 29.28 29.06 58.39 58.29 87.58 87.44 1.26 1.61 3.89 1.52 5.15-.04 29.02-29.01 57.97-58.09 87.06-87.03 1.81-1.23 2.21-4.13.34-5.51-29.13-29.19-58.28-58.36-87.42-87.55-1.22-1.43-3.78-1.51-5.06-.12z"/><path d="M126.26 97.38c7.95-11.58 15.7-23.33 23.77-34.82 8.19 11.27 15.83 23.18 23.79 34.7 1.57 1.54.76 5.08-1.75 4.81-3.83-.24-7.61-1.11-11.43-1.5-.11 25.66.16 51.33.04 76.99-7.08-.01-14.16.02-21.23-.01-.04-25.66.09-51.32.03-76.98-3.87.38-7.69 1.32-11.57 1.49-2.28.15-3.06-3.2-1.65-4.68zM97.06 66c7.02-.04 14.03-.04 21.05 0 0 25.46.11 50.93-.01 76.39 1.72.83 4.04-.54 6-.43 2.51.02 5.58-1.82 7.68.25.62 1.35.49 2.98-.49 4.14-7.75 11.53-15.59 23-23.41 34.49l-.61-.04c-7.79-11.84-15.89-23.49-23.74-35.28-1.19-1.74.19-4.66 2.46-4.27 3.64.44 7.27.95 10.89 1.56.4-25.56.07-51.22.18-76.81z"/></g><g fill="#e3d33c"><path d="M124.37 12.44c.41-.31 1.22-.91 1.63-1.22 2.11-.24 4.49-.35 5.95 1.48 35.29 35.16 70.48 70.42 105.67 105.67 2.61 1.94 2.75 6.35-.06 8.18-35.73 35.56-71.29 71.29-106.98 106.87-1.93.19-4.65.93-6.03-.9-35.98-35.98-72.06-71.88-107.92-107.98-.3-1.97-.47-4.25 1.31-5.59C53.38 83.4 88.9 47.94 124.37 12.44m2.05 16.02c-1.06.53-1.91 1.35-2.72 2.19-29.01 29-58.08 57.94-87.06 86.97-2.93 3.02-1.35 7.75 1.78 9.96 28.59 28.75 57.34 57.34 86.01 86 2.09 2.45 6.28 2.76 8.51.36 29.34-29.33 58.75-58.58 87.98-88.02 2.4-2.26 2.25-6.41-.13-8.62-29.18-29.18-58.4-58.32-87.6-87.48-1.62-1.91-4.58-2.48-6.77-1.36z"/><path d="M126.44 31.43c1.28-1.39 3.84-1.31 5.06.12 29.14 29.19 58.29 58.36 87.42 87.55 1.87 1.38 1.47 4.28-.34 5.51-29.09 28.94-58.04 58.02-87.06 87.03-1.26 1.56-3.89 1.65-5.15.04-29.19-29.15-58.3-58.38-87.58-87.44-1.59-1.34-1.5-4.05.15-5.29 29.17-29.17 58.33-58.35 87.5-87.52m-.18 65.95c-1.41 1.48-.63 4.83 1.65 4.68 3.88-.17 7.7-1.11 11.57-1.49.06 25.66-.07 51.32-.03 76.98 7.07.03 14.15 0 21.23.01.12-25.66-.15-51.33-.04-76.99 3.82.39 7.6 1.26 11.43 1.5 2.51.27 3.32-3.27 1.75-4.81-7.96-11.52-15.6-23.43-23.79-34.7-8.07 11.49-15.82 23.24-23.77 34.82M97.06 66c-.11 25.59.22 51.25-.18 76.81-3.62-.61-7.25-1.12-10.89-1.56-2.27-.39-3.65 2.53-2.46 4.27 7.85 11.79 15.95 23.44 23.74 35.28l.61.04c7.82-11.49 15.66-22.96 23.41-34.49.98-1.16 1.11-2.79.49-4.14-2.1-2.07-5.17-.23-7.68-.25-1.96-.11-4.28 1.26-6 .43.12-25.46.01-50.93.01-76.39-7.02-.04-14.03-.04-21.05 0z"/></g></svg>