<svg width="256pt" height="256pt" viewBox="0 0 256 256" xmlns="http://www.w3.org/2000/svg"><path fill="#0d6c05" opacity=".94" d="M78.42 33.45c48.84-.86 97.74-4.2 146.6-1.46 9.4 1.7 22.7.4 25.98 12.1V143c.38 1.98-1.56 2.95-2.8 4.06l-.08-1.9c1.96-27.02.4-54.2.86-81.3-.06-6.27.44-12.6-.1-18.84-6.15-15.6-29.02-8.7-41.93-12.1-48.63-.28-97.2 1.55-145.8 3.25-8.48 1-17.9.75-25.35 5.6-4.8 3.1-9.3 6.7-13.05 11.04-4.2 4.7-7.4 10.3-9.02 16.4-4.3 12.5-5.63 25.7-4.76 38.9-.03 1.6-.04 3.2 0 4.9-2.8 11.8 5.4 29.5-3.15 38.5l-1.05.7c-.66 6.3-2.06 13-.03 19.1.73.7 1.5 1.3 2.28 1.9l-.27.8-2.46.3c-2.2-7.9-5.7-20.2 2.5-25.6 2-32.7-6.7-70.9 15.3-98.4 13.3-17.5 36.7-16.1 56.3-16.8z"/><path fill="#68cc12" d="M61.16 36.22c48.6-1.7 97.16-3.53 145.8-3.25-.18 4.82 2.26 11.2-3.17 14-9 .04-18 .76-26.9 1.1-20 1-40 .98-59.9 2.86-25.8-9.65-54-10.03-81.2-9.1 7.4-4.86 16.8-4.6 25.3-5.6z"/><path fill="#87dc33" d="M206.95 32.97c12.9 3.4 35.78-3.5 41.93 12.1-15.04.5-30.06 1.4-45.1 1.9 5.44-2.8 3-9.18 3.17-14z"/><path fill="#9fe86b" d="M35.8 41.82c27.2-.92 55.45-.54 81.27 9.1-.7 2-1.3 3.98-1.94 5.98-30.68-3.35-61.73-1.15-92.38-4.04C26.5 48.53 31 44.9 35.8 41.82z"/><path fill="#003000" opacity=".47" d="M251 44.1c1.46 30.27 1.96 68.12 0 98.94V44.1z"/><path fill="#bffe80" d="M203.8 46.97c15.02-.5 30.04-1.4 45.08-1.9.54 6.26.04 12.57.1 18.86-6.58.56-13.2.84-19.7 2.1-16.44.58-32.8 2.5-49.18 3.94-.6-7.36-1.73-14.67-3.18-21.9 8.96-.34 17.9-1.06 26.87-1.1z"/><path fill="#abfe57" d="M117.07 50.93c19.9-1.88 39.9-1.85 59.85-2.86 1.45 7.23 2.6 14.54 3.18 21.9-19.37 1.62-38.77 3.1-58.13 4.88-4.17-2.2-4.6 1.1-5.64 3.22-12.14-1.22-1.58-13.7-1.2-21.17.63-2 1.25-4 1.94-5.97z"/><path fill="#c0f98d" d="M13.73 69.22c1.62-6.07 4.82-11.7 9.02-16.36 30.65 2.9 61.7.7 92.38 4.04-.38 7.46-10.94 19.95 1.2 21.17-.18 3.52-.28 7.05-.53 10.56-5.83 7.6-5.82 17.96-11.58 25.66-.08-2.2-.18-4.3-.24-6.5-1.94-9.8 3.6-25.8-1.73-32.9-29.5-1.2-59.54-10-88.52-5.8z"/><path fill="#89ec22" d="M229.28 66.02c6.5-1.25 13.12-1.53 19.7-2.1-.46 27.1 1.1 54.27-.86 81.3-10.22 3.4-20.7 5.96-31.13 8.6-3.8.93-7.6 1.9-11.3 2.97l-5.5 1.2c-1.8-8.8-8.7-12.2-16.4-8.1 2.1-7.3 6.4-13.6 10.1-20.1 8.8-3.3 20.4-2.3 27.9-7-4.4-4.8-15.7.9-23.1 1.2.2-3.5 1.9-6.7 3.2-9.8 5.4-1.1 10.9-1.5 16.2-3 3.6-9.3-1-19.5 1.1-29.2 4.9-4.1 7.6-10.4 9.8-16.3m0 13.1c-6.6 7.34-.3 20.4-.6 29.2 5.3.4 18.5 1.42 16.3-8.3 1.6-11.6.7-27.6-15.7-20.9z"/><path fill="#6acf06" d="M180.1 69.97c16.38-1.44 32.74-3.36 49.18-3.95-2.17 5.9-4.9 12.16-9.8 16.25-5.03-3.5-14.58-2.9-19.83.46 1.18 9.6-5.6 24.07 2.5 31.6-1.34 3.2-3.03 6.3-3.26 9.82-22.5 4.67-45.2 8.15-67.5 13.3-3.4 2.8 1.1 4.9 4.5 3.43 19.4-3.46 38.6-8.1 58.1-11.02-3.7 6.57-8 12.83-10.1 20.12-2.3.66-4.6 1.22-6.9 1.8l-2.8.55c-8.6 1.93-17.3 3.88-25.7 6.4-8.6 2-17.1 4.13-25.7 6.02-11.1-.98-7.4 10.24-9.1 17.1-.1 8.85-6.9 15.32-11.3 22.37-.7-5.73 1.3-11.35 1.6-17.05 1-.6 2-1.24 3-1.94 12.8-30.02 5.1-64.7 8.6-96.6.2-3.5.3-7.04.5-10.56 1-2.13 1.5-5.4 5.6-3.22 19.3-1.8 38.7-3.26 58.1-4.88m2.3 12.4c-22.2-4.67-11.5 23.5-12.7 34.9 7.5 3.92 26.1-.27 20.4-13.26-1.9-6.5 5.3-25.1-7.7-21.6m-35 2c-22.3-4.5-13 22.7-15.5 34.7-1.27 13 14.44 3.3 21.2 4.2 10.92-5.7 2.04-22.6 4.83-32.1 2.63-7.4-6.08-7.9-10.58-6.6z"/><path fill="#52b704" d="M13.73 69.22c28.98-4.13 59.03 4.65 88.52 5.8-.23 6.32-6.94 7.85-11.15 11.12-4.25-6.33-14.05-1.24-11.35 5.8-12.04 7.5-6.42-10.06-4.82-16.77-7-.26-13.95-1.2-20.95-1.17-.1 8.4 16.17-.18 18.16 5.87-6.52.02-13.2-2-19.64-.34 6.6 1.06 13.58.1 20 2.22-6.77 1.84-14.42-1.95-20.88-.05 5.9 1.9 14.9-.75 19.37 2.3-3.5 3-15.4-3-19-.02 5 2.5 13.3.04 19.4 2.73-7 1-14.2-2-21-.1 5.7 1.9 14.8-.6 19.4 2.5-3.5 3-15.4-3-19 0 4.8 2.4 13.5-.3 19.4 2.8-6.8 1.9-14.4-1.9-20.8 0C55 94.4 66 90 68.9 95c-6.5-.3-13-1.1-19.54-1.4 4.94 3.5 13.06.15 18.92 3.35-13-.7-22.87 1.17-35-2.33 5-.4 10.06.15 15-.9-4.94-.82-10.57.74-14.97-2.24 5-.66 10.2 1.78 14.9.18-4.6-.9-9.3-.92-13.9-2 5-.34 10.1.1 15-.9-5-.7-10.4.1-15-2.3 4.9-.2 9.7.3 14.5.6-.8-4.5-9.4-.2-13.5-2.4 5-.4 10.1.1 15-.87-5-.7-10.3 0-15-2.3 5-1 10.1 1.5 15 .2-4.6-1.1-9.4-.8-13.9-2.2 5-.4 10-.2 15 .2-3-4.5-12.9 1.7-14.6-3.4 4.7.2 9.4 1 14.1.8 2.1-8.2-10.5-2.4-14.73-3.9-1.4 8.1-4.46 16.1-5.1 24.4 2.9 0 5.74.6 8.25 2-10.2 1.6-22.4.73-30.4 8.43-.87-13.25.43-26.4 4.8-38.9m5.6 9c-8.1 2-3.3 14.96 4 11.2C30 87 25.9 75.83 19.1 78.3z"/><path fill="#6ed122" d="M36.2 73.1c4.23 1.5 16.86-4.28 14.77 3.86-4.73.22-9.43-.64-14.14-.83 1.7 5.12 11.68-1.1 14.65 3.37-4.98-.42-10-.65-15-.23 4.54 1.4 9.37 1.13 13.98 2.18-4.86 1.3-9.98-1.17-14.94-.2 4.63 2.32 10 1.57 14.97 2.28-5 .96-10.1.47-15.1.87 4 2.2 12.7-2.1 13.5 2.42-4.8-.32-9.7-.84-14.5-.62 4.6 2.44 10 1.6 14.9 2.32-5 .97-10 .52-15 .87 4.6 1 9.3 1.1 13.9 2-4.8 1.6-10-.9-14.9-.2 4.4 3 10 1.4 14.9 2.2-5 1-10 .5-15 .9 12.1 3.5 22 1.6 35 2.3-5.9-3.2-14 .1-19-3.4 6.53.3 13.02 1.1 19.6 1.4C66 89.5 55 94 49.4 91.5c6.5-1.9 14.1 1.9 20.8 0-5.9-3.1-14.6-.4-19.4-2.8 3.6-3.02 15.6 3 19 .03-4.6-3.08-13.7-.6-19.44-2.5 6.8-1.94 14 1.1 21 .13C65.3 84 57 86.43 52 84c3.6-3 15.5 3 19 0-4.48-3.05-13.5-.4-19.38-2.3 6.46-1.9 14.1 1.9 20.88.05-6.42-2.1-13.4-1.16-20-2.22 6.43-1.65 13.12.36 19.64.34-2-6.05-18.27 2.54-18.16-5.87 7-.02 13.96.9 20.95 1.17-1.6 6.7-7.22 24.28 4.82 16.77 4.1 5.95 13.9 2.04 11.35-5.8 4.2-3.27 10.92-4.8 11.15-11.12 5.33 7.05-.2 23.1 1.73 32.84-3.5 2.4-7.25 4.66-11.56 5.08-14.75-12-35.37-10.12-53.02-13.3-2.5-1.44-5.38-2.02-8.27-2.07.63-8.3 3.7-16.27 5.07-24.46z"/><path fill="#dd4016" d="M19.32 78.26c6.78-2.46 10.92 8.72 4.06 11.17-7.33 3.76-12.07-9.2-4.06-11.17z"/><path fill="#b5f37e" d="M229.34 79.16c16.4-6.76 17.27 9.25 15.7 20.84 2.2 9.78-11 8.74-16.32 8.32.32-8.78-6.02-21.83.62-29.16m1.95 1.92c-3.3 7.5-.5 17.44-1.3 25.78 5.1-1.5 15.4.86 12.8-7.83-2.2-8.6 3.6-23.74-11.6-17.95z"/><path fill="#afed7c" d="M199.65 82.73c5.25-3.37 14.8-3.95 19.82-.46-2.15 9.62 2.46 19.82-1.13 29.13-5.3 1.5-10.8 1.9-16.2 2.93-8.08-7.53-1.3-22-2.5-31.6m13.73-.35c-19.46-5.06-9 17.97-11.3 28.58 4.9-.05 11.3 0 14.88-2.04-2.53-7 5.43-26.46-3.58-26.54z"/><path fill="#2d911f" d="M231.3 81.08c15.18-5.8 9.45 9.36 11.6 17.95 2.6 8.7-7.8 6.32-12.88 7.83.86-8.34-2-18.27 1.27-25.78m1.7 3.9c-2.7 6.37 4.7 4.45 7 8.05.3-5.16.9-11.17-7-8.04z"/><path fill="#c3fa8f" d="M182.43 82.37c12.96-3.52 5.8 15.13 7.63 21.64 5.7 13-12.85 17.2-20.38 13.3 1.23-11.4-9.5-39.6 12.75-34.9m.04 2.2c-19.5-3.5-9.3 20.7-11.4 31.5 7.18-.3 21.1.7 17-11-2.53-5.4 5.65-23.5-5.6-20.4z"/><path fill="#258a19" d="M213.37 82.38c9 .08 1.05 19.55 3.58 26.54-3.58 2.04-9.97 2-14.9 2.04 2.33-10.6-8.14-33.64 11.32-28.58M205 87.04c-3.04 7.37 6.1 4.13 9.05 7.9 1.58-7-1.67-10.1-9.05-7.9z"/><path fill="#df4217" d="M79.75 91.94c-2.7-7.04 7.1-12.13 11.35-5.8 2.54 7.84-7.24 11.75-11.35 5.8z"/><path fill="#bcf687" d="M147.42 84.37c4.5-1.35 13.2-.85 10.57 6.63-2.8 9.56 6 26.48-4.9 32.17-6.8-.9-22.5 8.8-21.2-4.17 2.4-11.9-6.8-39.14 15.4-34.63m1 2c-22.5-4.24-11.4 24.1-14.4 36.66 6.6-.72 14.7.2 20.7-3.3 3.5-8.94.1-19.35 1.2-28.73 4.1-8.33-5-3.62-7.6-4.62z"/><path fill="#288d1b" d="M182.47 84.56c11.25-3.07 3.07 14.96 5.6 20.45 4.1 11.7-9.82 10.7-17 11 2.1-10.8-8.1-34.9 11.4-31.4m-7.05 2.8c-8.58 5.6 7.12 6.1 10.63 10.7 2.27-9.2-.76-14.2-10.63-10.6z"/><path fill="#9cc998" d="M233 85c7.92-3.14 7.35 2.87 7.02 8.03-2.33-3.6-9.73-1.68-7.02-8.04z"/><path fill="#2a8e1d" d="M148.42 86.38c2.63 1 11.66-3.7 7.6 4.62-1.18 9.38 2.26 19.8-1.26 28.72-5.95 3.5-14.04 2.6-20.72 3.3 3.04-12.55-8.05-40.9 14.38-36.64m-.94 3.2c-4.94.84-13.96-1.34-10.48 7.44 5-1.96 9.93-.03 14.07 2.9 3.1-2.53 4.54-15.4-3.6-10.35z"/><path fill="#8fc28a" d="M175.42 87.33c9.87-3.54 12.9 1.48 10.63 10.68-3.5-4.6-19.2-5.1-10.63-10.6z"/><path fill="#90c28b" d="M205 87.04c7.38-2.2 10.63.9 9.05 7.9-2.94-3.77-12.1-.53-9.05-7.9z"/><path fill="#97e45c" d="M104.22 114.3c5.76-7.7 5.75-18.07 11.58-25.67-3.47 31.9 4.26 66.58-8.58 96.6-.03-5.87 2.75-12.6-.6-17.85-29.5-4.95-59.15-9.94-88.77-13.9-1.65.12-3.3.3-4.95.48 2.75-2.9-2.3-1.9-4.12-2.38 4.27-.44 8.54-.28 12.76.46 14.25 1.7 28.7 7 43.02 4.52 11.72-6.24 23.76-11.96 35.12-18.87 8.62-4.2 2.45-16.1 4.54-23.4z"/><path fill="#92c48d" d="M147.48 89.57c8.13-5.04 6.7 7.82 3.6 10.34-4.15-2.9-9.08-4.8-14.08-2.8-3.48-8.7 5.54-6.6 10.48-7.4z"/><path fill="#c3f990" d="M8.97 108.1c8.02-7.7 20.23-6.84 30.43-8.47 17.65 3.2 38.27 1.32 53.02 13.3 5.9 14.9-17.7 13.48-27 15.37-19.24-.94-41.8-1.18-56.46-15.36-.03-1.62-.02-3.23 0-4.83m28.27-3.9c-3.5 4.7-3.34 11.1-4.23 16.7 9.53 1.5 19.1 3.4 28.78 3.2.35-5.7 1.63-11.3 3.14-16.8-8.42-3.4-18.63-1.6-27.7-3m-11.82 1.2c-3.76.9-8.14 1.2-11.2 3.8-2.55 6.9 10.82 9.2 16.55 10.7.76-7.1 7.72-19.3-5.35-14.5m41.82 1.8c-2.3 5.3-3.27 11.1-3.23 16.8 8.3-1.5 20.7.9 25.9-7.1-5.3-5.9-14.8-8.2-22.8-9.7z"/><path fill="#0a6d09" d="M37.23 104.15c9.06 1.38 19.27-.44 27.7 3.02-1.52 5.5-2.8 11.07-3.15 16.8-9.68.17-19.25-1.72-28.78-3.17.9-5.53.74-11.98 4.23-16.65m1.06 1.92c-2.3 1.47-2 5.9 1.3 5.28 7.8-1.3 21.4 11.26 22-2.37-5.4-3.36-16.3-2.56-23.5-2.9z"/><path fill="#187516" d="M25.4 105.4c13.07-4.87 6.1 7.33 5.35 14.5-5.73-1.5-19.1-3.83-16.56-10.7 3-2.66 7.4-2.94 11.2-3.8z"/><path fill="#579a57" d="M38.3 106.07c7.13.35 18-.45 23.42 2.9-.58 13.64-14.22 1.07-22.04 2.38-3.34.63-3.62-3.8-1.4-5.28z"/><path fill="#147411" d="M67.22 107.18c7.97 1.45 17.48 3.8 22.76 9.73-5.2 8-17.64 5.6-26 7.1-.03-5.7.95-11.5 3.24-16.8m1.06 2.9c-7.74 9.6 15.9 13.3 18.68 6.1-5.43-3.6-12.1-6.2-18.68-6z"/><path fill="#8ade36" d="M92.42 112.94c4.3-.42 8.07-2.67 11.56-5.08.06 2.15.16 4.3.24 6.43-2.1 7.3 4.08 19.2-4.54 23.4-11.36 6.9-23.4 12.6-35.12 18.8-14.33 2.5-28.76-2.8-43.02-4.5 14.86-7.4 30.6-13.8 43.9-23.8 9.3-1.9 32.9-.5 26.98-15.4z"/><path fill="#529752" d="M68.28 110.08c6.6-.16 13.25 2.46 18.68 6.06-2.8 7.25-26.42 3.54-18.68-6.06z"/><path fill="#76d418" d="M8.96 112.94c14.67 14.18 37.22 14.42 56.47 15.36-13.3 9.93-29.03 16.4-43.9 23.74-4.2-.74-8.48-.9-12.75-.46l-2.96-.2c8.54-8.97.35-26.66 3.14-38.44z"/><path fill="#cb9305" d="M198.9 124.15c7.42-.34 18.67-6.02 23.06-1.24-7.45 4.7-19.05 3.8-27.92 7-19.5 3-38.7 7.6-58.1 11-3.4 1.5-7.92-.6-4.53-3.4 22.4-5.1 45.1-8.6 67.5-13.3z"/><path fill="#4c514a" opacity=".98" d="M217 153.8c10.43-2.62 20.9-5.17 31.12-8.58l.08 1.88c4.15 9.33-5.6 25.75-14.9 15.04-.4 7.5-9.02 10.33-14.08 5.05.15 11.3-14.7 12.4-17 1.6-.7 11.6-8.32 26.7-22.22 24.2-7.13-.6-9.63-7.2-12.06-12.8-9.5.4-16.03 4.9-15.5 15.1-3.4 10.4-13.16 20.6-25.27 17.4-9.34-1.3-13.66-11.8-14.54-20.1-3.4 4-5.47 10.6-9.87 13l-.15-.9v-.7c4.4-7.1 11.2-13.5 11.3-22.4 1.8-6.9-1.9-18.1 9.1-17.1-6.5 14.1-8.4 34 4.3 45 16.6 6.8 25-13.8 26.8-26.9 5.2-1.7 10.4-3.5 15.7-4.7 1.9 4.7 3.8 10.4 9.3 11.9 17.6 6.4 25.1-19.6 21.3-32.2 1.8-.4 3.7-.8 5.5-1.25-1.6 6.1-1.7 18.5 7.2 18.23 4.9-2.8 9.7-15.8 0-11.3-7.5-3.3 9.9-3.9 4.1-10z"/><path fill="#a5a5a5" d="M183.94 149.98c7.62-4.12 14.6-.73 16.33 8.06 3.8 12.58-3.76 38.52-21.33 32.14-2.22-3.8-5.9-7.48-5.94-12.05 3.74-5.7 18.52-2.22 18.76-10.78-2.65-10.18-18.02 5.7-19.74-.33 1-5.26 3.47-10.1 5.02-15.23 2.3-.6 4.6-1.2 6.9-1.9z"/><path fill="#278b04" d="M4.77 152.07c.27-.17.8-.52 1.05-.7 1 .08 1.98.15 2.96.2 1.83.5 6.87-.5 4.12 2.4-8.76 3.76-5.56 17.27 3.76 15.75 8.2-1.08 8.4-13.1 1.2-16.23 29.6 3.9 59.27 8.9 88.77 13.8 3.34 5.2.56 12 .6 17.8-13.75 1.6-27.6 2-41.4 1.8-20.8.8-39.34-8.9-58.8-14.1-.8-.6-1.56-1.2-2.3-1.9.18-6.4.12-12.8.04-19.1m78.6 14.2c-9.7 4.2-1.62 19.9 7.9 14.1 7.73-5.1 1.23-18.6-7.9-14.1z"/><path fill="#96d893" d="M4.74 171.18c-2.03-6.13-.63-12.87.03-19.1.08 6.36.14 12.73-.03 19.1z"/><path fill="#197d02" d="M148.62 158.74c8.45-2.53 17.06-4.48 25.67-6.4-3.5 4.8-4 10.87-5.8 16.37-4.2 3.1-9.3 4.1-14.2 5.6-1.6-5.3-3-10.7-5.8-15.5z"/><path fill="#666766" d="M174.3 152.33l2.74-.54c-1.55 5.1-4.03 9.9-5.02 15.2 1.72 6 17.1-9.9 19.74.3-.24 8.5-15.02 5.1-18.76 10.8.03 4.5 3.72 8.2 5.94 12-5.52-1.6-7.4-7.3-9.28-12-5.33 1.1-10.5 3-15.7 4.6-5.52 1.2-22.47 11.5-19.47-2.3 6.5-2.3 13.2-4.4 19.9-6.4 4.8-1.5 10-2.5 14.1-5.6 1.8-5.5 2.2-11.6 5.7-16.4z"/><path fill="#fcfefa" d="M16.66 169.72c-9.32 1.52-12.52-12-3.76-15.76 1.65-.18 3.3-.36 4.95-.47 7.22 3.1 7.02 15.1-1.2 16.2z"/><path fill="#797a78" d="M205.72 156.8c3.74-1.07 7.5-2.05 11.27-3 5.8 6.1-11.7 6.67-4.2 10 9.7-4.5 4.9 8.44 0 11.25-8.9.26-8.8-12.15-7.2-18.26z"/><path fill="#a6a6a5" d="M122.9 164.75c8.6-1.9 17.14-4.02 25.72-6 2.8 4.8 4.23 10.2 5.78 15.5-6.67 2-13.33 4.07-19.9 6.34-3 13.7 13.94 3.5 19.47 2.2-1.74 13.1-10.17 33.7-26.73 26.9-12.78-11-10.85-30.9-4.33-45z"/><path fill="#fbfef8" d="M83.36 166.22c9.15-4.5 15.64 9.06 7.9 14.1-9.5 5.84-17.58-9.9-7.9-14.1z"/><path fill="#f16d1b" d="M7.02 173.05c19.47 5.23 38.02 14.92 58.8 14.05 12.74 1.94 25.62.7 38.4.07-.3 5.7-2.34 11.32-1.65 17.05l.04.7c-1.2 1.53-2.3 3.2-3.1 5-10 1-6.8-8.6-10.7-10.42 3.9 10.03-14.6 9.64-10.6.48-2.2-10.1.3 11.02-8.1 5.12-8.1 2.46-1.9-21.9-6.3-7.34 0 12.98-16.5 5-12-5.1-.9 7.9-4.6 13.2-13.4 9.45-1.3 6.5-1.7 13.2-2.2 19.7-12.6-5.8-33-11.5-31-28.8-.3-6.4-.5-13 1.6-19.1l.3-.7z"/><path fill="#c10b05" opacity=".94" d="M4.3 174.12l2.45-.32c-2.1 6.13-1.98 12.75-1.67 19.14C3.12 210.28 23.53 216 36.02 221.8c18.04 1.3 36.6 1.38 54.14-3.57 4.43-.84 8.07-3.88 9.26-8.3.83-1.82 1.93-3.48 3.2-5.02l.14.9c-1.25 7.8-6.68 15.9-15.73 15.3-23.46 3.3-50.92 9-71.02-7.1-16.4-5.9-14.2-26.1-11.7-39.8z"/><path fill="#bfc273" d="M65.82 187.1c13.82.16 27.66-.23 41.4-1.87-.96.7-1.97 1.33-3 1.94-12.78.62-25.66 1.87-38.4-.07z"/><path fill="#ffa55f" d="M38.25 202.1c8.77 3.76 12.54-1.54 13.46-9.44-4.5 10.1 12 18.08 12 5.1 4.4-14.55-1.8 9.8 6.3 7.34 8.4 5.9 5.9-15.23 8.1-5.12-4 9.16 14.5 9.55 10.6-.48 4 1.8.8 11.43 10.8 10.43-1.2 4.42-4.8 7.46-9.2 8.3-17.5 4.95-36.1 4.86-54.1 3.58.5-6.5.9-13.2 2.3-19.7z"/></svg>