<svg width="256pt" height="256pt" viewBox="0 0 256 256" xmlns="http://www.w3.org/2000/svg"><g fill="#020202"><path d="M102.74 48.97c17.65-3.36 36.86-.96 52.14 8.91 19.01-3.91 41.27 2.14 52.22 19.04 12.76 1.53 25.7 5.06 36.1 12.9 6.49 4.75 11.53 11.71 12.8 19.77v4.79c-2.07 13.99-14.8 22.77-26.94 27.78-1.17 6.34-4.76 12.01-9.53 16.27-11.08 9.86-25.99 14.12-40.48 15.48-17.87 1.34-36.74-1.73-51.85-11.82-13.37 9.74-31.19 12.09-47 7.87-2.45 4.75-4.71 9.68-5.74 14.96-1.68 7.46-.07 15.22 3.56 21.84-.55.26-1.65.76-2.2 1.02-2.34-4.22-4.1-8.82-4.45-13.67-.81-8.77 2.36-17.28 6.35-24.92a52.359 52.359 0 0 1-16.62-9.49c-11.49 8.69-22.83 18.6-28.98 31.92-.58-.22-1.75-.65-2.33-.87 6.11-13.73 17.74-23.92 29.46-32.84-3.09-3.43-5.65-7.31-7.41-11.59-16.36 5.35-34.68 8.14-51.08 1.44.23-.58.71-1.75.95-2.33 15.54 6.19 32.9 3.79 48.4-1.26-10.96-4.35-22.02-11.33-26.51-22.77-6.66-3.52-12.74-8.24-17.34-14.24.55-.29 1.67-.88 2.23-1.17 3.93 4.83 8.8 8.79 14.08 12.06-1.18-7.83 1.65-15.82 7.05-21.51 9.3-9.92 22.69-14.79 35.82-17.06 1.06-5.21 3.3-10.2 6.84-14.2 7.73-8.95 19.07-13.96 30.46-16.31m3.18 2C93.4 53.08 80.57 58.38 72.74 68.8c-4.83 6.3-6.28 14.96-3.41 22.41-.6.21-1.79.62-2.38.83-1.17-3.19-1.6-6.58-1.68-9.96-11.28 2.05-22.62 6.01-31.3 13.74-5.66 5.01-9.93 12.44-8.98 20.21.35 1.4.11 3.52 1.86 4.01 7.25 3.36 15.19 4.86 23.09 5.71 16.79 1.58 33.61-.54 50.4-1.03.16-3.26 1.85-7.32 5.64-7.43 7.29.4 10.58 11.29 5.48 16.15-1.8 1.75-4.4 1.31-6.5.43-7.52 11.46-16.45 21.95-23.42 33.77 18.05 4.75 39.69.21 51.52-15.01.5.36 1.5 1.07 2 1.43-1.68 2.32-3.66 4.4-5.81 6.27 17.45 11.32 39.65 13.41 59.75 9.58 12.15-2.54 24.58-7.57 32.61-17.43 4.93-5.96 6.65-14.54 3.46-21.73.86-.24 1.71-.53 2.55-.87 1.01 3.02 1.49 6.17 1.68 9.35 10.01-4.33 20.5-11.2 23.5-22.35 2.56-9.4-2.98-18.81-10.29-24.38-13.65-10.51-31.52-13.8-48.4-13.37-.02-.62-.05-1.85-.07-2.47 3.26-.09 6.52-.05 9.79.08-5.48-7.77-13.99-12.98-23.06-15.49-12.87-3.64-27.15-2.22-38.92 4.18-.31-.55-.93-1.65-1.25-2.2 3.37-1.88 6.97-3.26 10.63-4.44-13.41-8.24-29.96-10.03-45.31-7.82m-3.61 73.72c1.81 0 3.62-.05 5.43-.12 2.63 2.48-.78 5.05-1.57 7.5 7.8 1.57 7.25-11.27.87-12.21-2.93-.63-4.4 2.45-4.73 4.83m-75.34-1.67c5.7 10.21 16.44 16.24 27.22 19.78 14.24-4.71 27.95-10.91 42.3-15.3-23.15.83-47.37 4.31-69.52-4.48m34.85 19.82c-1.02.29-1.92.84-2.85 1.32 2.67.64 5.39 1.1 8.09 1.64l-.36 2.49c-4.19-.63-8.29-1.67-12.38-2.71 1.61 4.01 4.05 7.63 7.01 10.76 12.06-8.76 24.77-16.59 37.05-25.04 1.08-.74 2.07-1.62 3.03-2.51-13.56 3.61-26.41 9.33-39.59 14.05m1.42 15.28c4.6 3.95 10 6.86 15.75 8.77 6.67-11.34 15.1-21.5 22.47-32.37.69-1.01 1.22-2.12 1.7-3.24-13.35 8.88-26.86 17.54-39.92 26.84z"/><path d="M109.34 87.41c1.64-2.27 3.08-4.99 5.72-6.23 3.19-.92 5.72 1.56 8.04 3.3-.5.7-1.02 1.4-1.54 2.09-1.72-1.18-3.29-3.17-5.56-3.08-1.97 1.27-3.15 3.35-4.43 5.23-.75-.43-1.49-.87-2.23-1.31zm-20.29 1.04c1.46-2.56 3.09-5.37 5.94-6.58 3.19-.66 5.74 1.82 7.92 3.75-.47.42-1.39 1.26-1.86 1.68-1.55-1.22-3.04-2.73-5.07-3.08-2.24 1.04-3.39 3.36-4.72 5.31-.55-.27-1.66-.81-2.21-1.08zm26.21 1.49c6.41-2.86 9.2 10.15 2.79 11.19-5.07-.25-6.52-8.3-2.79-11.19m-.53 5.11c2.72-2.14 4 1.4 5.18 3.28.15-2.26.39-5.18-1.93-6.46-2.18-.81-2.93 1.58-3.25 3.18zm-19.4-3.61c6.28-2.28 8.73 9.91 2.75 11.41-5.25-.16-6.86-8.66-2.75-11.41m-.98 4.95c2.85-2.17 4.41 1.02 5.35 3.23.3-2.15.31-5.33-2.21-6.17-1.82-.44-2.55 1.68-3.14 2.94zm7.03 12.46c-.05-3.15 2.35-5.57 4.23-7.84.43.47 1.28 1.4 1.7 1.87-1.27 1.85-3.69 3.71-3.24 6.16 1.45 2.08 4.14 2.62 6.34 3.57-.17.62-.52 1.86-.69 2.47-3.16-1.29-7.54-2.38-8.34-6.23z"/></g><g fill="#e6e6e6"><path d="M105.92 50.97c15.35-2.21 31.9-.42 45.31 7.82-3.66 1.18-7.26 2.56-10.63 4.44.32.55.94 1.65 1.25 2.2 11.77-6.4 26.05-7.82 38.92-4.18 9.07 2.51 17.58 7.72 23.06 15.49-3.27-.13-6.53-.17-9.79-.08.02.62.05 1.85.07 2.47 16.88-.43 34.75 2.86 48.4 13.37 7.31 5.57 12.85 14.98 10.29 24.38-3 11.15-13.49 18.02-23.5 22.35-.19-3.18-.67-6.33-1.68-9.35-.84.34-1.69.63-2.55.87 3.19 7.19 1.47 15.77-3.46 21.73-8.03 9.86-20.46 14.89-32.61 17.43-20.1 3.83-42.3 1.74-59.75-9.58 2.15-1.87 4.13-3.95 5.81-6.27-.5-.36-1.5-1.07-2-1.43-11.83 15.22-33.47 19.76-51.52 15.01 6.97-11.82 15.9-22.31 23.42-33.77 2.1.88 4.7 1.32 6.5-.43 5.1-4.86 1.81-15.75-5.48-16.15-3.79.11-5.48 4.17-5.64 7.43-16.79.49-33.61 2.61-50.4 1.03-7.9-.85-15.84-2.35-23.09-5.71-1.75-.49-1.51-2.61-1.86-4.01-.95-7.77 3.32-15.2 8.98-20.21 8.68-7.73 20.02-11.69 31.3-13.74.08 3.38.51 6.77 1.68 9.96.59-.21 1.78-.62 2.38-.83-2.87-7.45-1.42-16.11 3.41-22.41 7.83-10.42 20.66-15.72 33.18-17.83m3.42 36.44c.74.44 1.48.88 2.23 1.31 1.28-1.88 2.46-3.96 4.43-5.23 2.27-.09 3.84 1.9 5.56 3.08.52-.69 1.04-1.39 1.54-2.09-2.32-1.74-4.85-4.22-8.04-3.3-2.64 1.24-4.08 3.96-5.72 6.23m-20.29 1.04c.55.27 1.66.81 2.21 1.08 1.33-1.95 2.48-4.27 4.72-5.31 2.03.35 3.52 1.86 5.07 3.08.47-.42 1.39-1.26 1.86-1.68-2.18-1.93-4.73-4.41-7.92-3.75-2.85 1.21-4.48 4.02-5.94 6.58m26.21 1.49c-3.73 2.89-2.28 10.94 2.79 11.19 6.41-1.04 3.62-14.05-2.79-11.19m-19.93 1.5c-4.11 2.75-2.5 11.25 2.75 11.41 5.98-1.5 3.53-13.69-2.75-11.41m6.05 17.41c.8 3.85 5.18 4.94 8.34 6.23.17-.61.52-1.85.69-2.47-2.2-.95-4.89-1.49-6.34-3.57-.45-2.45 1.97-4.31 3.24-6.16-.42-.47-1.27-1.4-1.7-1.87-1.88 2.27-4.28 4.69-4.23 7.84z"/><path d="M114.73 95.05c.32-1.6 1.07-3.99 3.25-3.18 2.32 1.28 2.08 4.2 1.93 6.46-1.18-1.88-2.46-5.42-5.18-3.28zm-20.38 1.34c.59-1.26 1.32-3.38 3.14-2.94 2.52.84 2.51 4.02 2.21 6.17-.94-2.21-2.5-5.4-5.35-3.23zm7.96 28.3c.33-2.38 1.8-5.46 4.73-4.83 6.38.94 6.93 13.78-.87 12.21.79-2.45 4.2-5.02 1.57-7.5-1.81.07-3.62.12-5.43.12zm-75.34-1.67c22.15 8.79 46.37 5.31 69.52 4.48-14.35 4.39-28.06 10.59-42.3 15.3-10.78-3.54-21.52-9.57-27.22-19.78zm34.85 19.82c13.18-4.72 26.03-10.44 39.59-14.05-.96.89-1.95 1.77-3.03 2.51-12.28 8.45-24.99 16.28-37.05 25.04-2.96-3.13-5.4-6.75-7.01-10.76 4.09 1.04 8.19 2.08 12.38 2.71l.36-2.49c-2.7-.54-5.42-1-8.09-1.64.93-.48 1.83-1.03 2.85-1.32zm1.42 15.28c13.06-9.3 26.57-17.96 39.92-26.84-.48 1.12-1.01 2.23-1.7 3.24-7.37 10.87-15.8 21.03-22.47 32.37-5.75-1.91-11.15-4.82-15.75-8.77z"/></g></svg>