<svg width="256pt" height="256pt" viewBox="0 0 256 256" xmlns="http://www.w3.org/2000/svg"><path fill="#869fae" opacity=".95" d="M114.33 3.36c4.4-.96 8.93-.95 13.3 0 1.37 7.73.4 15.63.7 23.43.44-.1 1.3-.3 1.74-.38 3.34-3.77 7.06-7.16 10.55-10.78 1.17-1.3 2.72-2.12 4.42-2.5 2.73 3.14 5.68 6.1 8.82 8.83-.58 3.23-3.4 5.16-5.5 7.37-6.7 6.5-12.96 13.4-19.9 19.65-.22 4.93-.12 9.88-.1 14.82l1.83-.42c3.6-3.15 7.7-5.63 11.48-8.53l5.36.18c-7.16 5.6-14.68 10.74-21.8 16.42-1.44-7.74-.25-15.66-.6-23.48 8.42-8.17 16.6-16.58 24.84-24.92-1.77-1.8-3.55-3.6-5.36-5.36-6.56 6.4-12.96 12.98-19.54 19.37 0-6.06.07-12.1-.02-18.15-.05-4.15-.04-8.3-.05-12.47H117c-.05 4.97-.05 9.95-.08 14.92-.06 5.22-.08 10.44-.1 15.66l-1.02-1c-6.04-6.17-12.2-12.2-18.2-18.4-2.1 1.7-4 3.66-5.64 5.83 5.46 5.22 10.84 10.54 16.1 15.96 2.86 2.95 5.8 5.8 8.72 8.7v3c-.02 5.3-.08 10.6-.07 15.88 0 1.52 0 3.05.03 4.57-1.63-1.26-3.26-2.52-4.95-3.7a70.5 70.5 0 0 0-2.17-1.5c1.63-.28 3.26-.54 4.9-.8-.25-.2-.72-.6-.96-.82.13-4.92.24-9.86-.03-14.78-8.68-7.93-16.64-16.6-25.1-24.77v-3.45c2.9-2.67 5.4-5.74 8.5-8.18h1.18c4.9 4.3 9.4 9.05 13.86 13.8l1.72.4c.3-8.14-.66-16.37.67-24.44z"/><path fill="#e3e7e9" d="M116.98 6.47h7.53c.02 4.17 0 8.33.06 12.48-2.55.83-5.1 1.65-7.66 2.45.03-4.97.03-9.95.08-14.93z"/><path fill="#dde3e5" d="M91.94 23.5c1.64-2.18 3.54-4.13 5.65-5.84 5.97 6.2 12.14 12.23 18.18 18.4-2.53 1.23-5.1 2.36-7.73 3.4a655.172 655.172 0 0 0-16.1-15.97z"/><path fill="#d3dbde" d="M124.58 37.1c6.58-6.4 12.98-12.97 19.54-19.38 1.8 1.77 3.6 3.55 5.36 5.36-8.23 8.34-16.42 16.75-24.84 24.9-2.54 1.27-5.23 2.2-7.88 3.18v-3c-2.9-2.9-5.86-5.75-8.7-8.7 2.6-1.04 5.2-2.17 7.72-3.4.25.24.76.74 1 1 .04-5.22.06-10.44.12-15.66 2.56-.8 5.1-1.62 7.66-2.45.1 6.05.02 12.1.02 18.14z"/><path fill="#30383d" opacity=".31" d="M76.38 38.02c5.17.83 8.9 4.77 13.04 7.63 5.84 4.58 12.07 8.7 17.7 13.52.2.43.55 1.3.73 1.74-6.12-3.63-11.5-8.36-17.3-12.5-4.26-3.06-8.2-6.76-13.23-8.56 2 14.3 3 28.7 5.26 42.98-5.56-.67-9.67-4.85-14.7-6.88-.52-2.65-1.1-5.3-1.8-7.9-2.6-9.27-4.75-18.68-7.73-27.85-4.43.78-8.75 2.06-12.97 3.6 1.37 5.44 2.57 10.92 4.2 16.28.58 1.57.7 3.26.13 4.86-7.48-3.48-14-8.8-21.75-11.72-1.33 2.8-2.7 5.65-5.12 7.67 1.38-3 2-8.6 6.14-8.67 6.96 1.97 12.37 7.3 19.07 9.95-.7-6.64-3.67-12.83-3.8-19.54 4.45-1.4 8.9-3.57 13.66-3.43 1.52-.18 2.07 1.2 2.5 2.37 3.4 10.9 5.53 22.22 9.23 33.03 3.04 2.58 6.82 4.08 10.24 6.07.04-8.63-1.64-17.13-2.35-25.7-.37-5.66-2.22-11.28-1.14-16.95z"/><path fill="#79909f" opacity=".93" d="M161.77 39.54l2.7-.23c-.08 2.9-.12 5.78-.3 8.65-.8 2.6-.88 5.32-1.07 8-.8 2.94-.8 6-.96 9-1.08 5.67-1.93 11.43-1.8 17.2 4.57-1.8 8.8-4.3 12.85-7.07.46-2.07 1-4.13 1.57-6.18 1.15-3.62 1.97-7.33 3-11 1.9-5.83 2.84-11.93 4.9-17.72 4.8.23 9.33 1.98 14.05 2.73-.67 4.2-2.26 8.2-2.56 12.44l-1.68.68c-.93.4-1.85.84-2.76 1.3.9-3.9 1.9-7.76 2.9-11.63-2.48-.7-4.97-1.36-7.47-1.98-2.64 9.88-5.3 19.74-7.8 29.65-.6 1.88-.88 4.2-2.8 5.2-6.04 3.67-12.3 6.97-18.4 10.47.08-7.4 1.3-14.7 2.05-22.02.72-7.35 1.93-14.64 2.43-22-4.64 3.2-9.12 6.6-13.6 10.03l-5.35-.18c6.6-5.24 13.62-9.93 20.1-15.33z"/><path fill="#849dab" opacity=".95" d="M45.38 43.8c4.22-1.54 8.54-2.82 12.97-3.6 2.98 9.16 5.12 18.57 7.73 27.84-.1 1.2-.26 2.4-.4 3.6-.52-.3-1.55-.9-2.07-1.18l-.06-.26c-2.4-8.9-4.65-17.84-7.16-26.7-2.57.72-5.13 1.48-7.68 2.28 2.5 8.75 4.8 17.56 7.17 26.34C46.94 67.2 38.3 61.8 29.3 56.98c-1.23 2.25-2.46 4.5-3.68 6.77 7.75 4.57 15.66 8.88 23.34 13.56.83.56 1.66 1.1 2.48 1.68-8.56 2.6-17.24 4.76-25.86 7.17.65 2.48 1.32 4.95 2.03 7.42C37.9 90.9 48.1 88 58.4 85.47c3.42-1.1 6.55.84 9.3 2.65 4.04 2.62 8.2 5.07 12.58 7.1l.3 1.58c-11.2 4.8-22.12 10.18-33.52 14.43.98-1 1.9-2.03 2.83-3.07l-2.14-.6c2.03-.92 4.04-1.92 6.1-2.8 2.75-1.16 5.48-2.38 8.26-3.47 2.3-1.1 4.6-2.13 6.98-3.06 1.1-.4 2.22-.8 3.33-1.17l.16-2.16c-3.2-1.7-6.18-3.87-9.53-5.28-2.96-.96-6.1-.14-9.07.36-2.3.77-4.65 1.46-7 2.16-1.33.3-2.67.6-4 .94-1.35.33-2.7.63-4.03.96-1.32.4-2.64.77-3.95 1.17-.5.18-1.5.5-2 .67-2.4.6-4.87.95-7.35.84-1.03-4.04-1.96-8.1-2.7-12.23 2.84-.67 5.6-1.65 8.04-3.25l.8-.3c1.06-.36 2.12-.72 3.2-1.07 1.34-.33 2.68-.67 4.02-1.04l2.5-.38-.05-1.55c-6.53-3.4-12.6-7.6-19.3-10.72.12-1.77.24-3.54.66-5.26 2.43-2.03 3.8-4.9 5.12-7.68 7.76 2.92 14.27 8.24 21.76 11.72.57-1.6.46-3.3-.1-4.86-1.65-5.36-2.85-10.84-4.22-16.27z"/><path fill="#94afbe" opacity=".98" d="M77.32 39.84c5.04 1.8 8.97 5.5 13.24 8.57 5.8 4.14 11.17 8.87 17.3 12.5.03.04.1.1.15.1 1.1.8 2.16 1.62 3.16 2.52h.88c.38.3 1.13.94 1.5 1.26l.95.8c-1.64.28-3.27.54-4.9.8C100 59.5 90.76 52.1 81.18 45.1c.42 11.72 2.72 23.27 3.9 34.92.34 3.14.65 6.28.92 9.43-3.3-1.74-6.55-3.57-9.8-5.4-3.68-2-7.3-4.12-10.85-6.34-.6-2.4-1.16-4.82-1.74-7.24l2.08 1.17c.14-1.2.3-2.4.4-3.6.7 2.62 1.28 5.26 1.8 7.9 5.03 2.04 9.14 6.22 14.7 6.9-2.25-14.28-3.25-28.7-5.26-43z"/><path fill="#d7dde0" d="M48.7 45.78c2.55-.8 5.1-1.56 7.68-2.3 2.5 8.88 4.76 17.82 7.16 26.72-3.94 3.94-9.5 5.28-14.58 7.1-7.68-4.67-15.6-8.98-23.34-13.55 1.22-2.27 2.45-4.52 3.7-6.77 8.98 4.8 17.62 10.22 26.55 15.14-2.38-8.78-4.67-17.6-7.17-26.34z"/><path fill="#b4c2c9" d="M185.15 43.72c2.5.62 5 1.28 7.47 1.97-1 3.86-2 7.72-2.9 11.6-.6.44-1.18.9-1.75 1.37-1.18 1.25-2.3 2.55-3.32 3.93-3.66 6.66-1.96 14.46-2.36 21.7-2.28.54-4.58 1.18-6.57 2.44-5.25 3.2-10.55 6.3-15.87 9.34-3.46-3.2-8.43-2.08-12.6-1.34 1.37-8.27 2.13-16.6 3.3-24.9L158.2 67c-.74 7.33-1.97 14.63-2.06 22.02 6.12-3.5 12.37-6.8 18.4-10.47 1.93-1 2.22-3.32 2.8-5.2 2.5-9.9 5.17-19.77 7.8-29.65z"/><path fill="#ccd4d8" d="M85.06 80.02c-1.17-11.65-3.47-23.2-3.9-34.92 9.6 6.97 18.82 14.4 28.45 21.3.55.36 1.64 1.1 2.18 1.5-2.55 1.35-5.16 2.6-7.82 3.73-4.54-3.58-9.32-6.83-13.84-10.43.46 3.5 1 6.97 1.42 10.47-.33 1.93-.72 3.84-1.1 5.76l-5.38 2.6z"/><path fill="#bdc8cd" d="M147.04 55.05c4.47-3.43 8.95-6.83 13.6-10.03-.5 7.36-1.72 14.65-2.44 22-2.54.94-5.1 1.88-7.64 2.8.4-3.02.78-6.05 1.1-9.1-9.13 6.76-18.1 13.75-27.07 20.72-.03 7.5 0 14.98-.06 22.48l-7.6 3.35c-.1-8.67-.05-17.34-.2-26.02-4.2-3.3-8.6-6.3-12.78-9.62 2.66-1.14 5.27-2.38 7.82-3.74 1.7 1.18 3.32 2.44 4.95 3.7-.02-1.5-.04-3.04-.04-4.56l6.78-1.87c.3 2.3.63 4.63.94 6.94l.82-.63c7.12-5.68 14.64-10.8 21.8-16.42z"/><path fill="#c8d1d4" d="M116.76 51.16c2.65-.98 5.34-1.9 7.88-3.17.35 7.8-.84 15.73.6 23.47l-.82.64c-.3-2.3-.63-4.62-.94-6.93l-6.8 1.87c0-5.3.06-10.6.08-15.88z"/><path d="M195.4 54.92c1.97-.2 3.97-.22 5.97-.14v3.17c-1.6-.14-3.16-.26-4.73-.38-.3-.67-.94-2-1.25-2.65zM117.06 174.3c2.18-2.44 4.36-4.9 6.55-7.32.1 4.35-.25 8.8.96 13.05 1.1 1.2 2.28 2.37 3.44 3.53-1.55 2.3-3.5 4.58-3.55 7.5.14 10.27.16 20.53-.04 30.8-2.46-.05-4.92-.1-7.4-.12 0-10.17-.05-20.35-.1-30.53-3.43 3.5-6.93 6.93-10.4 10.4.1-4.47 1.48-8.76 2.3-13.12 2.8-2.77 5.56-5.6 8.3-8.42 0-1.92-.02-3.83-.04-5.75z" fill="#bce4f6"/><path fill="#708596" d="M206.1 56.28c1.6-.88 3.16-1.8 4.7-2.77l3.33-.1c1.87 4.25 5.75 7.74 5.6 12.7-1.53.5-3.03 1.05-4.54 1.58-.7-1.97-1.5-3.9-2.38-5.78-1.63-2.5-4.15-4.2-6.73-5.62z"/><path fill="#e2f3fd" d="M192.48 56.02l1.68-.68 1.23-.42 1.24 2.65c1.57.12 3.14.24 4.72.38l.92.08c-1.6 1.77-3.43 3.4-4.56 5.55-.8 4.08-.22 8.28-.27 12.4.13 21.67.02 43.32-.02 64.97-.03 3.7.22 7.4-.28 11.08-1.28.67-2.64 1.17-3.94 1.77-.57-18.6.86-37.17.6-55.76-.13-9.37.5-18.77-.72-28.08-.6-3.48 1.06-6.7 2.4-9.76l-3-4.18z"/><path fill="#99c4d0" d="M201.37 54.78c1.6.35 3.2.84 4.72 1.5 2.57 1.4 5.1 3.1 6.72 5.62-.83 2.3-1.5 4.67-1.4 7.12.3 41.7-.22 83.38.28 125.05l-.87-.52c-.54-2.13-.42-4.36-.44-6.54.13-9.7-.1-19.42.16-29.14-.57-2.57-3.1-3.4-5.34-3.96l-1.63-.2c-1.65-5.1-.9-10.48-.98-15.73 0-23.64.04-47.28-.05-70.9-.08-3.1.95-6 2.1-8.82l-2.4-.22-.9-.08v-3.17z"/><path fill="#fbfdfe" d="M189.72 57.3c.9-.44 1.83-.87 2.76-1.28l3 4.18c-1.34 3.07-3 6.28-2.4 9.76 1.22 9.3.6 18.7.73 28.08.26 18.6-1.17 37.16-.6 55.76l-.13.13-3.5.8c-1.57-7.13-.8-14.5-1.34-21.73-.05-18.35-.22-36.7.1-55.06 1.04-6.47-1.84-12.82-.36-19.27.57-.47 1.15-.93 1.75-1.36z"/><path fill="#b2daea" d="M202.28 58.03l2.38.22c-1.14 2.8-2.17 5.73-2.1 8.8.1 23.64.05 47.28.06 70.92.07 5.25-.67 10.64.97 15.74-1.73-.13-3.46-.22-5.18-.2-1.8.08-3.58.22-5.35.43l.14-.13c1.3-.6 2.67-1.1 3.95-1.77.5-3.67.25-7.38.28-11.08.04-21.65.15-43.3.02-64.96.05-4.14-.54-8.34.27-12.42 1.13-2.14 2.96-3.78 4.56-5.55z"/><path fill="#ddf2fc" d="M184.65 62.6c1.02-1.38 2.14-2.68 3.32-3.93-1.48 6.45 1.4 12.8.35 19.27-.3 18.35-.14 36.7-.1 55.06.56 7.24-.22 14.6 1.35 21.74-.88.47-1.74.95-2.58 1.45-.1 12.37.23 24.77-.18 37.15l-1.6.98c-.55-18.12-.1-36.27-.2-54.4-.27-19.65.24-39.3-.04-58.95.14-6.13.24-12.27-.33-18.38z"/><path fill="#89a3b2" opacity=".95" d="M90.12 61.2c4.52 3.6 9.3 6.85 13.84 10.43 4.18 3.3 8.6 6.32 12.78 9.62.15 8.68.1 17.35.2 26.02-1.38-.72-2.77-1.44-4.15-2.18-6.05-3.63-12.17-7.12-18.25-10.68-.38-1.9-.78-3.77-1.08-5.67-.6-5.7-1.07-11.42-1.93-17.08-.42-3.5-.96-6.98-1.42-10.47m3.6 8.6c1.1 2.28.74 4.84 1.02 7.27.83 4.88 1.2 9.8 1.97 14.7 3.76 3.24 8.42 5.08 12.52 7.82 1.5 1.16 3.43 1.05 5.22 1.13.04-5.73-.08-11.46.06-17.2-5.8-5.5-12.93-9.36-18.8-14.8l-1.98 1.08z"/><path fill="#839caa" opacity=".95" d="M124.6 81.44c8.97-6.97 17.93-13.96 27.07-20.7-.33 3.03-.7 6.06-1.1 9.1-1.18 8.3-1.94 16.63-3.3 24.9-7.87 3.77-15.2 8.52-22.8 12.8l.07-3.62c.07-7.5.03-15 .05-22.48m19.12-9.94l-1.1.05-.23.9c-1 .42-1.98.82-2.97 1.2l.27.85-1.12.07-.2.9c-.98.4-1.97.8-2.96 1.18l.28 1.08-1.35-.37.4 1.14h-1.23v1.22l-1.13-.43.02 1.3-1.94-.28.2 1.38-1.34-.32.37 1.36-1.24-.33c-.22 6.07-.13 12.13-.1 18.2l2.2-.12-.15-.96 3.2-1.08-.04-1.1 1.93.45.04-1.35 2 .2-.2-1.33 1.34.4-.13-1.37c.48.1 1.44.33 1.9.44l.15-1.43 1.9.4.04-1.36 1.82.16c-.03-5.43 1.83-10.7 1.24-16.13l.85.13c.1-2.1.2-4.2.28-6.32l-3.33.27.32 1z"/><path fill="#c7e9fa" d="M182.3 84.3c.4-7.24-1.3-15.04 2.35-21.7.57 6.1.47 12.25.33 18.38.28 19.65-.23 39.3.04 58.95.1 18.13-.35 36.28.2 54.4-1 .58-1.97 1.16-2.93 1.78-.38-2.3-.78-4.6-1.03-6.93l.75-.58c.75-4.8.27-9.74.1-14.58-1.33-7.5-3.96-14.73-5.58-22.18 1.72-.4 3.43-.83 5.15-1.25.63-3.65.92-7.34.74-11.04-.02-4.93-.02-9.86-.1-14.8v-2.8c-.02-2.43-.02-4.86-.06-7.28l-.02-.66c-.03-2.54 0-5.1.04-7.63 0-.68.04-2.02.05-2.7.2-5.6.02-11.23-.1-16.85l.04-2.56z"/><path fill="#b3dded" d="M211.43 69.02c-.1-2.45.56-4.83 1.4-7.12.88 1.9 1.67 3.8 2.36 5.78.2 4.85-.04 9.7.12 14.55.1 5.32-.1 10.64-.02 15.96-.13 10.66.03 21.33-.1 32-.06 3.9.24 7.82.3 11.73-.03 1.63-.13 3.26-.18 4.9 0 13.9-.06 27.8.04 41.7.18 2.44-.08 4.9-.64 7.28l-3.02-1.73c-.5-41.67.03-83.36-.27-125.05z"/><path fill="#323b41" opacity=".35" d="M93.72 69.8l2-1.06c5.85 5.43 13 9.3 18.78 14.8-.14 5.73-.02 11.46-.06 17.2-1.8-.1-3.72.02-5.22-1.15-4.1-2.75-8.76-4.6-12.5-7.84-.8-4.88-1.15-9.8-1.98-14.7-.28-2.42.07-4.98-1.02-7.25m2.55 2c-.08 6.55 1.03 13.1 2.15 19.54 4.68 2.78 9.14 6.4 14.5 7.68.32-5.22.37-10.48-.36-15.68-5.6-3.6-10.44-8.34-16.3-11.55z"/><path fill="#cbd3d7" d="M63.54 70.2l.07.26c.6 2.42 1.16 4.84 1.75 7.25 3.55 2.23 7.17 4.34 10.85 6.35-2.86 1.3-5.7 2.65-8.5 4.07-2.75-1.8-5.88-3.74-9.3-2.65-10.3 2.53-20.52 5.43-30.8 8.1-.7-2.47-1.37-4.94-2.02-7.42 8.62-2.4 17.3-4.58 25.86-7.17-.82-.57-1.65-1.12-2.48-1.67 5.08-1.82 10.64-3.16 14.58-7.1z"/><path fill="#bec9ce" d="M91.54 71.67c.86 5.66 1.32 11.38 1.93 17.08-.3 1.58-.65 3.16-1 4.74-3.77 1.9-8.12 4.47-12.2 1.72-4.36-2.03-8.53-4.48-12.57-7.1 2.8-1.42 5.64-2.78 8.5-4.07 3.25 1.83 6.5 3.66 9.8 5.4-.28-3.15-.6-6.3-.94-9.43 1.8-.86 3.58-1.73 5.37-2.6.4-1.9.78-3.82 1.1-5.75z"/><path fill="#576772" opacity=".66" d="M21.54 82.87c3.14-.63 6.3-1.26 9.47-1.65-2.43 1.6-5.2 2.58-8.02 3.25.73 4.12 1.66 8.2 2.7 12.24-.46 0-1.37-.06-1.82-.08-.57-4.63-2.54-9.03-2.32-13.75z"/><path fill="#697e8e" opacity=".95" d="M215.32 82.23l4.5 1.47c-.62 3.9-1.47 7.78-2.5 11.6-.18 1.25-1.2 2.05-2.02 2.9-.08-5.33.13-10.65.02-15.97z"/><path fill="#7f97a8" d="M175.73 86.74c2-1.26 4.3-1.9 6.56-2.45l-.04 2.55c-4.86 1.48-9.24 4.15-13.33 7.1-1.08.7-1.34 2-1.77 3.1 5.1 2.14 10.02 4.7 15.2 6.66l-.06 2.7c-1.88-.75-3.76-1.48-5.6-2.28-5.57-2.8-11.72-4.43-16.84-8.04 5.32-3.05 10.62-6.15 15.87-9.34z"/><path fill="#53646e" opacity=".6" d="M168.93 93.95c4.1-2.95 8.47-5.62 13.33-7.1.1 5.62.3 11.24.1 16.86-5.18-1.96-10.1-4.5-15.2-6.65.43-1.1.7-2.4 1.77-3.1m.02 2.05c4.16 2.06 8.37 4.03 12.63 5.88.76-4.22.52-8.52.5-12.8-5.02.56-9.2 3.98-13.13 6.92z"/><path fill="#b7c3c9" d="M93.47 88.75c.3 1.9.7 3.78 1.08 5.67 6.08 3.56 12.2 7.05 18.24 10.67-.97 2.45-2.15 4.83-3.66 7-6.4-3.56-12.65-7.35-19.08-10.84-10.3 4.44-20.74 8.6-31.1 12.96l4.6 2c-2.7 1.76-5.6 3.15-8.65 4.17-4.5-2.08-9.13-3.92-13.68-5.93 1.88-1.2 3.82-2.3 5.84-3.24 11.4-4.25 22.33-9.64 33.5-14.43-.06-.4-.2-1.2-.28-1.58 4.07 2.75 8.42.18 12.2-1.73.34-1.6.7-3.17 1-4.75z"/><path fill="#b5c8d0" d="M147.26 94.74c4.17-.74 9.14-1.87 12.6 1.34 5.12 3.6 11.27 5.25 16.83 8.04-1.57 2-3.35 3.82-5.38 5.35-6.7-2.66-13.15-6.13-20.1-8.03-7.6 3.84-14.77 8.58-22.24 12.72 7.4 4.5 15 8.7 22.42 13.2-2.46 1.46-4.7 3.23-6.98 4.96-6.67-3.6-13.2-7.45-19.78-11.2 0 7.2.1 14.4-.04 21.6-2.63 1-5.3 1.98-7.62 3.6-.3-8.38-.26-16.77-.27-25.16-7.26 4.33-14.54 8.65-22.05 12.56-.3-2.95-1.4-6-.1-8.88 5.95-3.6 12.2-6.73 17.88-10.75-1.1-.68-2.2-1.35-3.3-2 1.52-2.17 2.7-4.55 3.66-7 1.37.73 2.76 1.45 4.15 2.17 2.53-1.1 5.06-2.23 7.6-3.35l-.07 3.63c7.58-4.3 14.92-9.04 22.78-12.8z"/><path fill="#829aa9" opacity=".94" d="M58.97 114.22c10.35-4.35 20.78-8.52 31.1-12.96 6.42 3.5 12.68 7.28 19.07 10.84 1.1.65 2.2 1.32 3.3 2-5.7 4-11.94 7.15-17.9 10.74-1.43.78-2.87 1.65-4.5 1.96-2.08-.28-4-1.18-5.93-1.98-6.8-2.97-13.67-5.8-20.55-8.6l-4.58-2m26.56-8l-.04 1.07c-1.7.4-3.36.88-5.04 1.3l-.05 1.05c-.46-.1-1.4-.34-1.87-.45l-.03 1.25-3.02.14-.06 1.2-1.84-.67-.1 1.13c-1.4.4-2.8.83-4.2 1.26l.3 1.87c.74.03 2.2.12 2.93.16l.05 1.3 1.87-.62.1 1.04c1.4-.1 2.53.35 3.37 1.35l1.53-.22.13 1.44 1.88-.6.07.98c1.65.46 3.27 1 4.9 1.5l.07.9c2.03 0 4.06 0 6.1-.04l-.2-1c1.04-.4 2.1-.77 3.14-1.15l.1-.97 1.98.18.04-1.34 1.82.5-.13-1.2 3.26-1.2-.03-.96 2.07.2c-.05-1-.1-2-.13-2.98l-3-.25.15-1.16-1.34.4.2-1.4c-.47.1-1.4.3-1.86.42l-.2-1.45c-.45.13-1.37.36-1.83.47l-.05-.97c-.6-.27-1.8-.83-2.42-1.1l-.86-.07.17-1.33c-.46.13-1.37.4-1.83.52l-.03-1.3h-4.13l-.02 1.23-1.9-.42z"/><path fill="#788e9e" opacity=".94" d="M128.98 114.16c7.47-4.14 14.64-8.88 22.25-12.72 6.94 1.9 13.4 5.37 20.1 8.03 3.62 1.57 7.34 2.9 10.93 4.55l.02.66c-10.4 3.97-20.62 8.38-30.88 12.68-7.43-4.5-15-8.7-22.42-13.2m19.58-7.94l-.16 1.4c-.46-.1-1.4-.27-1.87-.36l-.13 1.38-1.83-.37.1 1.15-3.24 1.22-.03 1.04-1.84-.48-.1 1.35-1.93-.14-.2 3.15 1.32-.17-.1 1.34c.46-.1 1.4-.27 1.85-.35l.16 1.4 1.84-.43.05 1.04 3.23 1.2-.12 1.2 1.83-.46.05 1.3c.4 0 1.2-.04 1.6-.05 1.04 1.77 3.4.77 5.05 1 .92-.88 2.05-1.3 3.38-1.3l.05-.97 1.57.36c.85-.98 1.97-1.44 3.38-1.38l.08-1 1.9.53.13-1.4 1.9.4.02-1.25 3-.1v-1.1c.5.1 1.55.25 2.07.33-.05-1-.08-2.03-.1-3.04l-2.98-.2-.08-1.27-1.87.57-.08-1c-1.42.03-2.55-.43-3.43-1.4l-1.53.37-.05-1.13-3-.1-.02-1.25-1.9.4-.14-1.43c-.47.13-1.4.4-1.87.55l-.1-1.15-4-.2-.07 1.26-1.84-.44z"/><path fill="#9ab6c3" d="M176.7 104.12c1.84.8 3.72 1.53 5.6 2.27-.04 2.53-.07 5.08-.04 7.62-3.6-1.64-7.3-2.98-10.94-4.55 2.03-1.53 3.8-3.34 5.37-5.35z"/><path fill="#758c9b" opacity=".97" d="M34.2 112.94c4.5-1.2 8.58-3.46 12.88-5.18l.68-.2c.53.16 1.6.45 2.13.6-.93 1.04-1.86 2.08-2.84 3.07-2.02.94-3.96 2.04-5.84 3.24 4.55 2 9.17 3.85 13.7 5.92 8.86 3.85 17.8 7.52 26.58 11.6-4.18 2.75-8.55 5.18-12.9 7.7-3.04 1.43-6.02 4.64-9.66 3.4-10.33-2.54-20.5-5.97-30.9-8.07-1.95 1.36-1.64 4.9-2.5 7.1 8.75 2.66 17.67 4.74 26.48 7.2-2.42 1.45-4.85 2.9-7.28 4.33l2.68.26-1.26 7.1c3.33-1.43 6.56-3.06 9.72-4.84-2.18 8.85-4.6 17.63-6.7 26.5l6.96 1.75c3.06-9.64 5.7-19.4 8.13-29.22.27-3.98 3.56-6.18 6.8-7.8 4.95-2.8 9.87-5.6 14.8-8.42-.3 4.44-.95 8.86-1.4 13.3-.94 10.28-2.44 20.5-3.4 30.8 1.1-.87 2.2-1.75 3.33-2.6 8.72-6.52 17.67-12.75 26.23-19.5 2.06-1.54 4.16-3.05 6.25-4.57.1 5.97.08 11.94.18 17.9l.05 5.76c-2.74 2.83-5.5 5.65-8.3 8.42-2.58 2.5-5.13 5.02-7.7 7.53.06-1.4.12-2.82.2-4.23.07-.23.2-.68.25-.9 4.06-3.8 7.83-7.9 11.92-11.65 1.03-5.1.14-10.27.06-15.4-8.9 5.9-17.37 12.42-25.97 18.76-3.35 2.3-6.2 5.53-10.27 6.6-.1-6.78 1.6-13.4 1.64-20.16 1.27-7.66 1.68-15.42 2.8-23.1-4.7 1.66-8.74 4.62-13.13 6.9-1.1 3.34-1.95 6.77-2.84 10.17l-.53 2c-1.83 5.24-2.6 10.75-4.43 15.98-.65 2.58-1.13 5.24-2.3 7.66l-3.48-.73c-2.36-.7-4.73-1.37-7.07-2.1-.68-.1-2.03-.3-2.7-.38.15-3.22.78-6.4 1.93-9.4 1.06-3.72 2-7.48 2.64-11.3-6.86 1.85-12.42 6.52-18.7 9.63-1.35.24-2.72.35-4.1.34-1.84-4-4.45-7.6-5.93-11.75 6.14-3 11.96-6.6 17.86-10.05 1.16-.94 2.5-1.6 3.9-2.07-1.66-.48-3.3-1.04-4.96-1.62-3.9-1.37-8.05-2-11.94-3.46-1.2-.2-2.38-.36-3.57-.53-.1-2.44-.04-4.9.62-7.3.45-1.27.86-2.55 1.3-3.83.08-.7.28-2.08.37-2.77 3.18-.06 6.3.58 9.3 1.6 2.65.73 5.32 1.38 8 1.96l3.04.96c3.65 1.07 7.38 1.87 11 3.04 2.22.6 4.78 1.37 6.94.15 3.12-1.72 6-3.9 9.43-5.03l.24-2.14c-12-5.68-24.4-10.55-36.55-15.92-1.26-.5-1.9-1.5-1.9-2.96z"/><path d="M151.4 127.36c10.26-4.3 20.48-8.7 30.88-12.68.04 2.42.04 4.85.05 7.27-7.5 3.5-15.52 6.05-22.57 10.45-3.48 2.3-7.7 2.78-11.7 3.6-.78-1.6-2.1-2.8-3.64-3.68 2.27-1.73 4.52-3.5 6.98-4.96zm-34.42 18.97c2.32-1.63 5-2.6 7.62-3.62-.05 1.42-.1 2.84-.18 4.26-4.66 2.64-8.6 6.35-12.2 10.3-1.02.97-1.28 2.4-1.6 3.73-8.55 6.73-17.5 12.96-26.22 19.47-.1-4.98 2.83-9.2 5.83-12.9 5.78-4.35 11.5-8.78 17.22-13.2 3.28-2.54 6.88-4.78 9.53-8.04z" fill="#a7c7d6"/><path fill="#afc0c9" d="M63.55 116.22c6.88 2.8 13.75 5.63 20.56 8.6 1.94.8 3.86 1.7 5.95 1.98 1.62-.3 3.06-1.18 4.5-1.96-1.3 2.88-.2 5.93.1 8.88-1.2 5.82-1.9 11.72-2.58 17.62-2.2 1.17-5.54 3.46-7.6.93.45-4.43 1.1-8.85 1.4-13.3-4.93 2.82-9.85 5.64-14.8 8.44l-2.47-.67v-7.04c4.35-2.52 8.72-4.95 12.9-7.7-8.77-4.08-17.72-7.75-26.6-11.6 3.05-1.03 5.96-2.42 8.65-4.18z"/><path fill="#758c9b" opacity=".92" d="M94.65 133.72c7.5-3.9 14.8-8.23 22.06-12.56.02 8.4 0 16.78.28 25.17-2.65 3.26-6.25 5.5-9.53 8.05-5.73 4.4-11.44 8.84-17.22 13.18.2-5.45 1-10.85 1.84-16.22.67-5.9 1.4-11.8 2.58-17.62m13.86-4.4l-.1 1.34c-.46-.1-1.37-.3-1.82-.42l-.17 1.4c-.45-.1-1.37-.25-1.83-.33l.1 1.32-1.3-.24.06 1.3-1.85-.45-.17 1.4-1.8-.3-.08 1.37-1.97-.1c-.08 1.62-.14 3.26-.17 4.9l-.82.05c-.14 2.5-.2 5.02-.32 7.53-1.15 2.15-.8 4.63-1 6.98l-1 4.5 3.94-2.24 1.4-1.03-.1-.6c1.42-.67 2.7-1.58 3.96-2.48l.07-.5c1.4-.7 2.68-1.6 3.94-2.5l.06-.53c1.44-.58 2.63-1.55 3.77-2.56.35-1.07 1.1-1.7 2.25-1.87.27-5.75.1-11.5.14-17.25l-2.83.63-.8.85-1.52-.18z"/><path fill="#758c9c" opacity=".96" d="M124.64 121.12c6.58 3.75 13.1 7.6 19.78 11.2 1.53.87 2.86 2.07 3.64 3.7.34 5.03.92 10.06 1.68 15.06.8 5.6 1.45 11.23 2.1 16.85-4.65-3.54-9.4-6.97-13.98-10.62-4.43-3.5-9.08-6.74-13.44-10.34l.18-4.25c.14-7.18.03-14.38.04-21.58m3.68 7.14c.07 6-.1 12.03.13 18.04.96.4 1.92.82 2.87 1.25l.32.83 1.05.18-.28.8c.98.38 1.95.77 2.92 1.17l.28.86 1.06.16-.25.8 2.93 1.18.23.9 1.1.1-.3.85 3.22 1.2-.28 1.1 1.35-.42-.35 1.2 2.33.13c-.03-2.38-.1-4.76-.2-7.15l-.87.1c.66-5.12-1.28-10.02-1.06-15.12l-1.18.3.2-1.1-3.15-1.2.1-.8c-1.3-.46-2.62-.95-3.94-1.4l-.1-1.03-1.9.47.1-1.33-1.33.3.12-1.4-1.84.43-.03-1.2-3.25-.2z"/><path fill="#798f9f" d="M159.76 132.4c7.05-4.4 15.06-6.95 22.57-10.45 0 .7 0 2.1.02 2.82-4.95 2.24-10.23 3.84-14.9 6.63-1.13 1.87 1.12 2.88 2.36 3.78 4 2.48 8.12 4.8 12.5 6.52-.17 1.6-1.3 2.77-2.9 1.84-6.67-3.47-13-7.6-19.64-11.14z"/><path fill="#4f5f69" opacity=".58" d="M167.44 131.4c4.68-2.8 9.96-4.4 14.9-6.63.08 4.93.08 9.86.1 14.8l-.13 2.13c-4.38-1.72-8.5-4.04-12.5-6.52-1.23-.9-3.48-1.9-2.36-3.78m3.1-.07l-.48 2.25c3.88 2.13 7.55 4.75 11.76 6.2.33-4.24.36-8.5.16-12.75-4.07.68-7.6 2.93-11.43 4.3z"/><path fill="#637787" opacity=".88" d="M215.2 130.2l.9.67c.93 4.47 2.38 8.83 2.98 13.37l-3.5.88-.08-3.2c-.06-3.9-.36-7.8-.3-11.72z"/><path fill="#323c45" opacity=".46" d="M216.1 130.87l1.1.87c1.76 4.28 3.06 8.78 3.45 13.4-1.78.55-3.56 1.12-5.33 1.68.05-1.63.15-3.26.18-4.9l.07 3.2c1.17-.3 2.34-.6 3.5-.88-.6-4.54-2.04-8.9-2.97-13.37z"/><path fill="#b2d6e7" d="M148.06 136c4-.82 8.22-1.3 11.7-3.6 6.64 3.55 12.97 7.67 19.64 11.14 1.6.93 2.73-.25 2.9-1.84l.14-2.14c.18 3.7-.1 7.4-.75 11.03-1.73.4-3.44.83-5.16 1.24-1.88-2.38-4.72-3.6-7.27-5.1-4.68-2.66-9.4-5.27-13.92-8.2.7 3.8 1.07 7.65 1.4 11.5l-7 1.04c-.77-5-1.35-10.03-1.7-15.07z"/><path fill="#a8b7be" d="M25.53 142.14c.87-2.22.56-5.75 2.5-7.1 10.42 2.1 20.58 5.52 30.9 8.06 3.65 1.24 6.63-1.97 9.68-3.4v7.03l2.48.68c-3.25 1.62-6.54 3.82-6.8 7.8-5.64-.2-11.26-.7-16.86-1.28l-2.68-.26c2.43-1.44 4.86-2.88 7.28-4.34-8.8-2.45-17.73-4.53-26.5-7.18z"/><path fill="#667b8b" opacity=".95" d="M156.75 150.04c-.33-3.85-.7-7.7-1.4-11.5 4.53 2.93 9.24 5.54 13.92 8.2 2.55 1.5 5.4 2.72 7.27 5.1 1.62 7.45 4.25 14.67 5.58 22.18.17 4.84.65 9.77-.1 14.57-.35-6.12-2.77-11.78-4.1-17.68-1.4-5.75-3.3-11.35-4.54-17.13-3.88-3.3-8.5-5.5-13-7.78.35 14.75 3.6 29.3 4.23 44.05-12.58-7.9-23.9-17.65-36.1-26.14-.24 5.02-.25 10.05-.02 15.06 8.8 7.98 16.68 16.9 25.4 24.96-1.22 4.78-6.1 7.12-8.86 10.9-1.65-.42-3.2-1.18-4.37-2.46-3.5-3.6-7.16-7.06-10.53-10.78l-1.75-.48c-.08 2.63.35 5.38-.77 7.86 1.48 5.06.75 10.56.1 15.73-1.6.24-3.16.3-4.74.17-2.82.77-5.7.18-8.52-.3-.2-1.18-.4-2.35-.58-3.5.8-4.36-1.26-8.9.47-13.1-.86-2.2-.7-4.55-.74-6.87l-1.7.5c-4.06 4.5-8.54 8.57-12.7 12.96h-3.4c-2.4-2.53-4.88-5-7.4-7.4v-3.4c4.4-3.9 7.93-8.82 12.9-12.03-.08 1.4-.14 2.82-.2 4.24-3.05 3-6.06 6.06-9.06 9.12 1.82 1.88 3.7 3.72 5.62 5.5 2.9-3.06 5.93-6 8.85-9.02 3.47-3.47 6.97-6.9 10.4-10.4.05 10.2.1 20.37.1 30.54l7.4.1c.2-10.25.2-20.5.05-30.77 6.5 6.6 13.08 13.12 19.66 19.65 1.87-1.82 3.7-3.64 5.54-5.48-7.2-7.25-14.43-14.45-21.64-21.68-1.16-1.16-2.33-2.32-3.44-3.53.2-7.8.03-15.6.07-23.4 2.32 1.72 4.65 3.43 7 5.1 9.72 7.02 19.16 14.4 28.9 21.36-1.1-11.04-2.56-22.04-3.78-33.06z"/><path fill="#b0d3e4" d="M112.23 157.25c3.6-3.94 7.53-7.65 12.2-10.3 4.35 3.6 9 6.84 13.43 10.36-2.22 1.25-4.3 2.75-6.22 4.44-2.36-1.68-4.7-3.4-7-5.1-.05 7.8.12 15.6-.08 23.4-1.2-4.25-.86-8.7-.95-13.06l-6.54 7.33c-.1-5.96-.1-11.93-.18-17.9-2.1 1.53-4.2 3.04-6.25 4.6.3-1.34.57-2.77 1.6-3.75z"/><path fill="#c0e7fa" d="M149.74 151.08l7-1.04c1.23 11.02 2.68 22.02 3.8 33.05-9.75-6.97-19.2-14.35-28.9-21.36 1.92-1.7 4-3.2 6.22-4.43 4.58 3.66 9.33 7.1 14 10.63-.67-5.62-1.32-11.24-2.12-16.85z"/><path fill="#9dbac9" d="M84.47 152.27c2.06 2.53 5.4.24 7.6-.93-.85 5.37-1.64 10.77-1.84 16.22-3 3.7-5.94 7.93-5.83 12.9l-3.33 2.62c.96-10.3 2.46-20.52 3.4-30.8z"/><path fill="#8ba2ad" d="M47.42 153.92c5.6.6 11.22 1.1 16.85 1.3-2.42 9.8-5.07 19.57-8.13 29.2-2.32-.57-4.65-1.16-6.97-1.75 2.1-8.86 4.53-17.64 6.7-26.5-3.15 1.8-6.38 3.42-9.7 4.86.4-2.38.83-4.74 1.25-7.1z"/><path fill="#064aae" d="M189.57 154.74l3.5-.8c1.77-.22 3.56-.36 5.35-.44-1.96 2.3-3.72 5.9-7.3 5.43-1.96.25-3.13-1.37-4.13-2.74.83-.5 1.7-1 2.57-1.46z"/><path fill="#0870cf" d="M198.42 153.5c1.72-.02 3.45.07 5.17.2l1.62.2c-1.73 1.9-3.74 3.72-4.74 6.15.3 10.12.4 20.25.06 30.37-1.1.2-2.18.42-3.26.65 1.27-7.65-.02-15.42.85-23.1.3-2.6.2-5.2-.16-7.8l-3.85-.17-1.25.02c-.55 0-1.66.04-2.2.06-.9 2.87-1.22 5.88-1.2 8.88.07 8.57-.03 17.15.25 25.72-.92.6-1.84 1.22-2.75 1.83-1.88 1.25-3.7 2.58-5.4 4.06-3.06 3.2-5.47 7.08-6.84 11.3-.95 3.7-1.13 7.53-.83 11.32-.82-2-1.84-3.88-2.92-5.72l.06-2.26c.95-7.55 5.12-14.6 11.25-19.1.95-.6 1.93-1.2 2.9-1.77.4-.24 1.2-.74 1.62-.98.4-12.38.08-24.78.17-37.16 1 1.36 2.16 2.98 4.1 2.73 3.6.48 5.36-3.14 7.32-5.43z"/><path fill="#2c8bd9" d="M205.22 153.9c2.25.56 4.77 1.4 5.34 3.96-1.75.55-3.5 1.1-5.28 1.53-.5.07-1.5.2-2.02.3l-2.78.35c1-2.43 3-4.24 4.74-6.15z"/><path fill="#05b" d="M205.28 159.4c1.78-.43 3.53-1 5.28-1.54-.27 9.72-.03 19.44-.17 29.15 0 2.2-.1 4.42.43 6.55 1.2 4.44 3.08 8.75 3.33 13.4.1 8.13-3.04 16.47-9.34 21.8-6.55 6.02-16 7.43-24.53 6.47-2.12-1.2-3.84-3.07-6.25-3.72-1.08-2.1-1.88-4.3-2.53-6.57-.4-2.47-.53-4.98-.54-7.47 1.08 1.84 2.1 3.73 2.92 5.72 1.07 3.13 2.7 6.04 4.55 8.78-.07-1.95-.17-3.9-.15-5.86l1.03-1.6c4.1 1.47 8.33 3.6 12.8 2.82 6.3-.75 12.02-5.46 13.5-11.7 2.45-7.06-2.57-13.57-2.73-20.58-2.38-.66-4.77-1.28-7.16-1.9l-.8-1.54 2.34-.53c1.08-.23 2.17-.45 3.26-.65.34-10.12.25-20.25-.06-30.37l2.78-.36c.4 10.53-.16 21.08.28 31.62l3.52.6c.57-7.62.08-15.26.32-22.88-.32-3.2 1.1-7.55-2.1-9.65z"/><path fill="#2080d6" d="M190.66 160.08l2.2-.06c-1.58 3.07-2.4 6.5-2.3 9.97.14 7.36-.18 14.73.2 22.1l4-1.34c-.34-10.24.67-20.56-.64-30.76 1.28.05 2.57.1 3.85.18.35 2.6.45 5.2.16 7.8-.87 7.67.42 15.44-.85 23.1l-2.33.52.8 1.55c2.38.6 4.77 1.23 7.15 1.9-1.25 3.9-5.3 4.96-8.72 6.22l-.32-.64c-.65-1.24-1.17-2.56-2.04-3.65-1.54-.6-3.24-.42-4.85-.47l2.75-1.82c-.28-8.57-.18-17.15-.24-25.72-.03-3 .28-6 1.18-8.88z"/><path fill="#53a3e1" d="M192.87 160.02l1.25-.02c1.3 10.2.3 20.52.63 30.76-1.33.45-2.65.9-3.98 1.33-.4-7.37-.07-14.74-.2-22.1-.1-3.48.7-6.9 2.3-9.98z"/><path fill="#00359b" d="M203.26 159.7c.5-.1 1.5-.23 2.02-.3 3.2 2.1 1.78 6.43 2.1 9.64-.24 7.62.25 15.26-.32 22.87l-3.52-.58c-.44-10.54.1-21.1-.28-31.63z"/><path fill="#5c6f7f" opacity=".92" d="M215.8 169.07c-.13-3 .04-6-.04-9 1.2 1 2.47 1.94 3.8 2.8.04 1.2.08 2.4.1 3.63l-1.28.1.18 1.78-1.2.2-.03 2.68c-1-.4-1.5-1.13-1.53-2.2z"/><path fill="#caebfb" d="M124.45 191.07c.05-2.93 2-5.22 3.55-7.5 7.2 7.22 14.45 14.42 21.64 21.67a571.98 571.98 0 0 1-5.53 5.48c-6.57-6.53-13.14-13.06-19.65-19.65z"/><path fill="#b1d5e5" d="M101.1 196c2.57-2.5 5.12-5.02 7.7-7.52-.82 4.36-2.2 8.65-2.3 13.12-2.9 3.03-5.93 5.96-8.84 9-1.93-1.76-3.8-3.6-5.62-5.48 3-3.06 6-6.1 9.07-9.1z"/><path fill="#9ac5d2" d="M215.36 188.52c7.17 4.1 12.78 10.64 15.7 18.36-.57 2.9-1.95 5.55-4.63 7.05-.32-1.36-.67-2.7-1.1-4.02-1.93-5.66-5.7-10.66-10.6-14.1.55-2.38.8-4.83.63-7.28z"/><path fill="#e8f6fd" d="M165.56 209.9c2.3-8.6 7.97-16.27 15.7-20.73.26 2.33.66 4.63 1.03 6.94-6.14 4.5-10.3 11.55-11.26 19.1l-5.48-5.3z"/><path fill="#003ea4" d="M210.83 193.55l.87.52 3.02 1.74c4.9 3.44 8.68 8.44 10.62 14.1.8 4.02-1.55 7.57-2.85 11.2-2.53 6.9-7.28 12.9-13.12 17.33-4.48 3.42-9.9 5.2-14.8 7.9l-.97-.12c-2.26-.72-4.55-1.4-6.77-2.26-3.93-1.97-7.43-4.77-10.15-8.22-.96-1.35-1.82-2.78-2.63-4.22 2.4.65 4.13 2.52 6.24 3.72 8.53.96 17.97-.45 24.52-6.46 6.3-5.34 9.45-13.68 9.34-21.82-.25-4.64-2.14-8.95-3.33-13.4z"/><path fill="#0077d6" d="M202.9 195.04c.16 7 5.18 13.52 2.72 20.57-1.47 6.26-7.18 10.97-13.48 11.72-4.48.8-8.7-1.35-12.8-2.83l-1.04 1.6c0-2.68.2-5.36.68-8 .32-1 .66-2 1.02-3 3 1.9 6.13 4.96 10 4.06 4.53-.6 7.5-4.93 8.04-9.2-.25-3.25-2.53-5.83-3.86-8.7 3.4-1.25 7.47-2.3 8.72-6.22z"/><path fill="#389dea" d="M181.58 200.56c1.7-1.48 3.5-2.8 5.4-4.05 1.6.06 3.3-.13 4.84.48.87 1.1 1.4 2.4 2.04 3.65-2.65 1.66-5.3 3.3-7.8 5.2.75-1.77 1.34-3.6 1.93-5.43l-6.42.16z"/><path fill="#57b0f1" d="M181.58 200.56l6.4-.16c-.58 1.83-1.17 3.66-1.9 5.44-2.5 2.74-4.78 5.76-6.08 9.26-.36 1-.7 2-1.02 3-1.08 1.05-2.23 2.02-3.4 3-.5-3.06-.9-6.14-.85-9.23 1.37-4.23 3.78-8.1 6.85-11.3z"/><path fill="#009aee" d="M193.86 200.63l.32.64c1.33 2.86 3.6 5.44 3.86 8.7-.54 4.26-3.5 8.6-8.03 9.2-3.87.9-7-2.17-10-4.07 1.3-3.5 3.57-6.52 6.07-9.26 2.48-1.9 5.14-3.55 7.8-5.2z"/><path fill="#abd3df" d="M226.43 213.93c2.68-1.5 4.06-4.14 4.63-7.05.88 2.84 1.55 5.76 1.92 8.72l-2.13 4.3-4.24.6c-.08-2.2-.05-4.38-.17-6.57z"/><path fill="#cbebfb" d="M165.56 209.9l5.48 5.3-.06 2.26c0 2.5.14 5 .54 7.47l-6.92-2.98c-.3-4.04-.02-8.13.96-12.06z"/><path fill="#3b6ab7" d="M225.34 209.9c.42 1.33.77 2.67 1.1 4.03.1 2.2.08 4.38.17 6.58l.03.58c-.1.65-.3 1.96-.38 2.6-4.03 3.88-7.1 8.6-11.1 12.5-3.26 3.26-7 6.03-9.96 9.58-3.52.54-7.08 1-10.62.57 4.9-2.7 10.32-4.48 14.8-7.9 5.84-4.44 10.6-10.42 13.1-17.34 1.3-3.63 3.67-7.18 2.86-11.2z"/><path fill="#3c85d3" d="M173.9 223.18c-.3-3.8-.12-7.63.83-11.3-.06 3.08.34 6.16.86 9.2 1.15-.96 2.3-1.93 3.38-2.98-.47 2.64-.68 5.32-.68 8-.02 1.95.08 3.9.15 5.86-1.86-2.74-3.48-5.65-4.55-8.78z"/><path fill="#bee6f9" d="M230.85 219.9c.7-1.44 1.42-2.87 2.13-4.3.4 6.47-.74 13.05-3.76 18.8a34.794 34.794 0 0 1-5.75 8.06c-4.46 4.6-10.18 7.9-16.38 9.5.8-1.5 1.67-2.97 2.65-4.36 4.67-1.84 9.57-3.9 12.73-8 3.26-4.22 6.55-9.1 6.3-14.7.3-1.7-1.24-2.7-2.15-3.82l-.02-.57 4.25-.6z"/><path fill="#b5deef" d="M164.6 221.95c2.3 1 4.6 2 6.92 2.98.65 2.26 1.45 4.48 2.53 6.57.8 1.44 1.67 2.87 2.63 4.22-2.62-.1-5.24-.2-7.86-.32a35.26 35.26 0 0 1-4.22-13.45z"/><path fill="#d4eaf3" d="M226.63 221.08c.9 1.13 2.44 2.13 2.15 3.83.25 5.6-3.04 10.48-6.3 14.7-3.16 4.1-8.06 6.16-12.73 8-1.36.05-2.73.06-4.08.07l-.48-1.9c10.5-2.3 19.07-11.57 21.05-22.08l.38-2.62z"/><path fill="#6a9bd7" d="M215.15 236.18c4-3.9 7.07-8.62 11.1-12.5-1.98 10.52-10.55 19.78-21.06 22.08 2.96-3.55 6.7-6.32 9.95-9.58z"/><path opacity=".15" d="M223.47 242.46c2.3-2.4 4.22-5.1 5.75-8.05 4.38 3.37 10.1 4.48 14.2 8.23 1.85 1.6 1.93 5.12-.26 6.47-7.3 5-16.48 4.8-24.76 6.9h-18.63c-6.3-1.97-13.25-1.47-19.12-4.75-3.2-1.36-4.93-4.47-5.6-7.74.82.75 1.65 1.46 2.5 2.15 6.26 4.98 14.3 7.5 22.28 7.3 1.83-.13 3.66-.32 5.5-.5 5.82 1.2 11.8.54 17.62-.36 2.7-.4 5-1.94 7.3-3.28-1.96-2.42-4.26-4.54-6.78-6.36z"/><path fill="#a6d1df" d="M168.82 235.4c2.62.13 5.24.23 7.86.32 2.72 3.45 6.22 6.25 10.15 8.22-3.05.78-6.16 1.33-9.28 1.7-.85-.68-1.68-1.4-2.5-2.13-2.42-2.4-4.57-5.1-6.23-8.1z"/><path opacity=".34" d="M207.1 251.96c6.2-1.6 11.9-4.9 16.37-9.5 2.52 1.82 4.82 3.94 6.78 6.36-2.3 1.34-4.6 2.87-7.3 3.27-5.82.9-11.8 1.56-17.63.35l1.77-.5z"/><path fill="#9bc5d1" d="M186.83 243.94c2.22.87 4.5 1.54 6.78 2.27 2.5 1.64 5.06 3.2 7.83 4.34-.54.8-1.07 1.6-1.6 2.42-7.98.2-16.02-2.33-22.28-7.3 3.12-.4 6.23-.94 9.28-1.72z"/><path fill="#afd4de" d="M193.6 246.2l.98.13c3.54.43 7.1-.03 10.6-.57l.5 1.9c1.34 0 2.7 0 4.07-.06a42.3 42.3 0 0 0-2.66 4.36l-1.78.5c-1.83.17-3.66.36-5.5.5.54-.8 1.07-1.6 1.6-2.42-2.76-1.14-5.3-2.7-7.8-4.33z"/></svg>