<svg width="256pt" height="256pt" viewBox="0 0 256 256" xmlns="http://www.w3.org/2000/svg"><path fill="#229e03" d="M115.26 8.03c4.56-2.36 9.83-1.5 14.74-1.34 1.85 1.09 3.74 2.1 5.67 3.03 3.18 3.12 5.72 6.82 8.22 10.48 2.61 4.37 1.61 9.6.93 14.33 1.27 1.25 3.08 2.43 2.46 4.54-1.01 3.62-2.97 6.96-3.04 10.82-4.84.94-3.45 6.88-6.42 9.78-2.17 2.38-1.23 5.73-1.25 8.63 8.45 5.17 16.75 11.47 26.68 13.36 4.13 2.8 8.04 6.51 9.21 11.54 2.37 10.07 2.91 20.47 2.74 30.78.16 9.86 1.75 19.63 2.97 29.4.26 3.03 1.3 5.9 2.84 8.52 4.63 4.7 7.94 10.62 9.68 16.98.64 2.58 2.52 4.51 4.15 6.5 3.2-.07 6.4.06 9.59.26.5 2.1.99 4.2 1.42 6.32 1.6 3.41 3.78 7.12 1.98 10.92 3.95 2.11 6.51 5.85 9.39 9.14 2.56 4 2.65 8.74 2.09 13.31-.88 1.3-1.72 2.63-2.53 3.98-.39.9-.8 1.79-1.21 2.68l-.08.97c-1.52 1.43-3 2.91-4.43 4.44-9.46 4.19-20.15 3.36-30.13 1.96-8.77-.84-17.4-2.58-26.05-4.18-4.96-1.35-9.92-2.69-14.92-3.87-5.5-1.81-10.96-3.71-16.43-5.6-2.53.96-4.87 2.34-7.3 3.5-14.89 5.69-30.62 8.63-46.37 10.66-8.74 1.36-18.13 1.61-26.23-2.5-.18.35-.53 1.05-.71 1.39l-.56-1.81c-3.19-1.42-6.26-3.11-9.6-4.15l-.2-.77c-1.32-.98-2.21-2.35-2.9-3.81-.59-1.13-1.22-2.23-1.87-3.31-1.36-3.11-2.46-6.38-2.21-9.83 2.8-6.75 8.49-12.19 15.17-15.06-1.2-.54-2.38-1.1-3.57-1.67-.21-3.68 1.25-7.06 3.27-10.04.04-1.61.07-3.23.12-4.84 3.49-.24 7.04-.18 10.42.77.8-.3 1.6-.6 2.41-.88 2.82-4.36 4.66-9.28 7.68-13.51 2.29-3.35 5.43-6.06 7.32-9.69 1.79-9.98 4.17-19.94 4.18-30.13.51-8.89-.45-17.81.24-26.7 1.2-5.93-.14-13.09 4.71-17.68 4.55-4.71 11.75-3.73 16.97-7.24 4.87-3.13 9.82-6.15 14.45-9.62 2.45-1.73 1.42-5.11 1.53-7.64-3.47-2.49-4.69-6.66-5.21-10.69-1.2-.65-2.39-1.3-3.56-1.98-.58-4.17-1.97-8.37-1.2-12.61 1.04-4.65.7-9.51 2.26-14.05 1.59-2.59 3.28-5.11 5.02-7.6 2.16-2.42 4.36-4.99 7.47-6.19M83.45 173.75c-3.57 7.8-10.39 13.66-17.42 18.31a160.86 160.86 0 0 0-5.29 3.3c1.85.09 3.69.1 5.54.14.44-1.33.9-2.66 1.35-3.98 1.41-.14 2.81-.28 4.21-.43 2.82-.91 5.79-1.1 8.72-.9-.06-.17-.17-.51-.23-.68 1.9-.07 3.81-.13 5.72-.19 1.43-6.47 2.54-13.01 3.9-19.49 1.05-5.32 4.12-10.28 3.69-15.84-.14-4.12-1.42-8.06-2.46-12.01-1.69 10.79-4.95 21.24-7.73 31.77m71.06-12.61c.69 2.87 2.47 5.33 3.35 8.15 1.77 4.42 1.81 9.24 2.85 13.84.98 1.69 1.95 3.39 2.98 5.06.59.28 1.77.85 2.36 1.13.5.12 1.52.35 2.02.47 4.46 1.66 9.26 2.06 13.73 3.64-1.07-1.04-2.11-2.09-3.14-3.17-4.85-5.89-10.98-10.67-15.01-17.24-.06-.23-.17-.67-.23-.89-.67-1.76-1.31-3.54-1.7-5.38-1.27-7.84-2.9-15.61-4.6-23.36-1.18 5.85-3.21 11.7-2.61 17.75z"/></svg>