<svg width="256pt" height="256pt" viewBox="0 0 256 256" xmlns="http://www.w3.org/2000/svg"><path fill="#feffd3" d="M108.63 12.95c23.44-3.64 47.96-.17 69.25 10.38 17.86 8.65 33.67 21.69 45.1 37.96 13.04 18.95 20.71 41.74 21 64.79.3 16.75-3.1 33.58-10.09 48.82-11.84 28.32-36.32 50.51-64.79 61.45-21.87 8.68-46.38 10.28-69.24 4.76-27.72-6.5-52.84-23.49-69.12-46.87-16.21-23.44-23.88-52.93-19.94-81.26 1.29-10 4.27-19.71 7.82-29.11 14.92-37.17 50.56-64.76 90.01-70.92M119.08 20c-23.67 2.43-46.87 11.59-65.01 27.14-7.05 5.97-12.92 13.17-18.31 20.64-9.73 14-15.63 30.43-18.53 47.16-.2 9.37-.18 18.77-.01 28.15 3.39 21.5 12.59 42.3 27.16 58.57 9.76 10.46 21.2 19.56 34.21 25.63 30.83 14.63 68.65 14.53 98.75-1.93 26.78-13.68 47.18-39.17 54.67-68.29 4.61-12.53 2.93-26.04 3.08-39.08.01-5.29-1.5-10.41-2.71-15.51-5.92-23.53-20.03-44.87-39.32-59.57-21.07-15.76-47.64-24.29-73.98-22.91z"/><path fill="#cb4037" d="M119.08 20c26.34-1.38 52.91 7.15 73.98 22.91 19.29 14.7 33.4 36.04 39.32 59.57 1.21 5.1 2.72 10.22 2.71 15.51-.15 13.04 1.53 26.55-3.08 39.08-7.49 29.12-27.89 54.61-54.67 68.29-30.1 16.46-67.92 16.56-98.75 1.93-13.01-6.07-24.45-15.17-34.21-25.63-14.57-16.27-23.77-37.07-27.16-58.57-.17-9.38-.19-18.78.01-28.15 2.9-16.73 8.8-33.16 18.53-47.16 5.39-7.47 11.26-14.67 18.31-20.64C72.21 31.59 95.41 22.43 119.08 20m-2.69 32.45c-15.08 2.51-29.95 7.12-43.24 14.79-2.75 1.11-2.39 4.62-1.62 6.93 1.77 5.1 7.11 8.51 12.42 8.59 10.75.07 21.51.77 32.26.06-.31 7.08-.75 14.15-1.33 21.22-.25 2.69-2.02 5.62-4.88 6.08-9.63-2.53-18.97-6.56-29.01-7.26-6.44-.57-13.1 1.13-18.19 5.18.79 3.14.63 7.58 4.12 9.11 7.21 3.2 13.06 8.91 20.59 11.44 3.59 1.1 7.66 1.53 11.24.18 4.41-2.61 4.53-8.57 8.14-11.9 1.33-1.25 3.25-1.1 4.93-1.22-.1 3.8.51 7.56.76 11.34.1 3.18-1.22 7.09-4.67 7.9-8.17 2.01-16.58 2.81-24.93 3.78-17.32 1.8-35.57 3.94-50.3 14.05-2.7 1.3-2.47 6.17.55 6.92 4.93 1.37 9.82 3.27 14.97 3.54 3.21-1.33 6.07-3.34 9.19-4.85 16.46-8.48 34.69-14.61 53.38-14.46.38 15.78-2.48 31.38-3.87 47.05-.61 11.81-.86 23.97 2.97 35.32 1.24 2.98 4.44 4.34 7.07 5.84 6.5-3.05 12.85-6.43 18.93-10.26 2.27-25.89.73-52.03 4.28-77.83 2.44-1.08 5.13-1.14 7.74-1.36 11.6-1.29 23.46-.29 34.7 2.83 4.98 1.28 9.39 4.19 14.46 5.18 6.9 1.65 14.04 1.28 21.07 1.2.31-3.36.59-6.89-.81-10.06-2.55-6.66-9.07-11.1-15.9-12.43-5.78-.97-11.65-.16-17.47-.4-13.96-.43-27.9.56-41.84.76 2.71-4.38 6.29-8.32 10.9-10.74 11.05-5.93 23.98-5.83 36.19-6.26-.15-9.52-5.4-19.6-14.53-23.27-2.42-.72-5.41-1.86-7.78-.71-5.48 10.22-14.08 19.6-25.71 22.5-2.04-14.85 4.75-28.89 11.5-41.65 9.39-.03 18.78.18 28.17-.04.88-8.31-6.09-14.01-10.25-20.28-18.1-.44-36.3.33-54.2 3.19z"/><path fill="#231a09" d="M116.39 52.45c17.9-2.86 36.1-3.63 54.2-3.19 4.16 6.27 11.13 11.97 10.25 20.28-9.39.22-18.78.01-28.17.04-6.75 12.76-13.54 26.8-11.5 41.65 11.63-2.9 20.23-12.28 25.71-22.5 2.37-1.15 5.36-.01 7.78.71 9.13 3.67 14.38 13.75 14.53 23.27-12.21.43-25.14.33-36.19 6.26-4.61 2.42-8.19 6.36-10.9 10.74 13.94-.2 27.88-1.19 41.84-.76 5.82.24 11.69-.57 17.47.4 6.83 1.33 13.35 5.77 15.9 12.43 1.4 3.17 1.12 6.7.81 10.06-7.03.08-14.17.45-21.07-1.2-5.07-.99-9.48-3.9-14.46-5.18-11.24-3.12-23.1-4.12-34.7-2.83-2.61.22-5.3.28-7.74 1.36-3.55 25.8-2.01 51.94-4.28 77.83-6.08 3.83-12.43 7.21-18.93 10.26-2.63-1.5-5.83-2.86-7.07-5.84-3.83-11.35-3.58-23.51-2.97-35.32 1.39-15.67 4.25-31.27 3.87-47.05-18.69-.15-36.92 5.98-53.38 14.46-3.12 1.51-5.98 3.52-9.19 4.85-5.15-.27-10.04-2.17-14.97-3.54-3.02-.75-3.25-5.62-.55-6.92 14.73-10.11 32.98-12.25 50.3-14.05 8.35-.97 16.76-1.77 24.93-3.78 3.45-.81 4.77-4.72 4.67-7.9-.25-3.78-.86-7.54-.76-11.34-1.68.12-3.6-.03-4.93 1.22-3.61 3.33-3.73 9.29-8.14 11.9-3.58 1.35-7.65.92-11.24-.18-7.53-2.53-13.38-8.24-20.59-11.44-3.49-1.53-3.33-5.97-4.12-9.11 5.09-4.05 11.75-5.75 18.19-5.18 10.04.7 19.38 4.73 29.01 7.26 2.86-.46 4.63-3.39 4.88-6.08.58-7.07 1.02-14.14 1.33-21.22-10.75.71-21.51.01-32.26-.06-5.31-.08-10.65-3.49-12.42-8.59-.77-2.31-1.13-5.82 1.62-6.93 13.29-7.67 28.16-12.28 43.24-14.79z"/></svg>