<svg width="180" height="180" viewBox="0 0 135 135" xmlns="http://www.w3.org/2000/svg"><path d="M64.31 8.47c2.99-.19 6.6-1 9.2.86-.01.65-.03 1.95-.03 2.6.37-.05 1.13-.16 1.51-.21.28 1.22.44 2.46.74 3.68-2.09.36-4.09 1.09-6.03 1.94l-.24-1.96c-1.63.18-3.25.19-4.88.03-.67 1.48-.71 3.81-3 3.45.16 1.55.83 2.84 2.01 3.88 1.45-1.14 2.51-2.66 3.26-4.33.36.05 1.1.14 1.47.19 1.02 1.2 2.27 2.08 3.8 2.5.45-1.76.94-3.51 1.73-5.15 2.85 2.66 1.12 6.48-2.06 7.72-.49-2.23-2.46-2.5-4.42-2.61l.16 2.63c-.24-.39-.7-1.18-.93-1.58-1.23.55-2.03 1.42-2.39 2.64-1.57-.4-3.09-.95-4.59-1.54-.02-1.73-.55-3.69.91-5.02-2.69-.66-2.47-3.39-1.93-5.5l2.57-.2c.99-1.37 1.87-2.88 3.14-4.02m-1.76 5.07c1.49-.44 2.9-2.28 3.26-3.76-1.69 0-3.3 2.14-3.26 3.76m3.14-4.16c.69.72 2.06 2.17 2.75 2.9-1.45.46-4.19-.21-4.17 2.19 2.31-.22 4.65-.51 6.87-1.23l-.96 2.53c.86-.14 2.57-.41 3.43-.54-.5-1.22-1.29-2.19-2.37-2.9.15-.51.46-1.52.61-2.03-2.04-.37-4.1-.69-6.16-.92m-5.01 5.03c-1.18.81-1.13 3.04.46 3.32 1.93-.02 1.66-4.88-.46-3.32zm-.36 37.14c1.76.34 3.37 1.25 5.16 1.5.1-.59.29-1.78.38-2.38.17.43.5 1.28.67 1.71-.18.37-.54 1.11-.72 1.47a49.288 49.288 0 0 0-2.76 11.92c-1.01-.83-2.02-1.65-3.02-2.48-.88.57-1.75 1.13-2.62 1.7.48-.69.96-1.38 1.45-2.07l1.5-.61c1.16-1.42 2.11-2.99 2.96-4.61l.13-1.54c-.68-1.75-1.49-3.54-3.13-4.61zm59.15 7.03c1 .18 2.01.37 3.01.56.32 1.1.64 2.21.97 3.32 1.11.65 2.23 1.29 3.36 1.93.88 2.8.6 5.77.21 8.63-.66 1.31-2.16 1.29-3.41 1.43l-.13 1.01c-1.07.32-2.14.67-3.19 1.04-.17-.64-.52-1.94-.69-2.59-1.2.97-2.46 1.85-3.77 2.64-1.59-1.38-3.69-2.59-3.96-4.91 1.74-.41 2.9.62 3.87 1.91 2.29.02 4.57-.05 6.86-.16.17-1.45.42-2.89.55-4.34.11 1.82.64 3.54 1.28 5.24.65-2.91 2.21-5.92 1.07-8.94-1.81-1.68-3.75-3.24-5.61-4.87-1.7-.13-2.48.62-2.35 2.26 3.26-.37 5.78 1.92 7.7 4.23l-1.88 1.92c.18-2.43-.76-3.54-2.81-3.32.71 1.95 1.09 3.99 1.38 6.04-1.42.21-2.77.03-4.06-.55.62-.44 1.86-1.34 2.49-1.79-.35-1.59-.69-3.18-1.01-4.78l-1.95.32c.51-2.52-2.06-2.25-3.78-2.42-1.28 3.13 2.24 4.27 4.03 5.82-1.12 1.27-2.33 2.48-3.68 3.51.19-.78.56-2.35.75-3.13-.69-.17-2.07-.52-2.77-.69l1.63-.14-.8-2.32c-3.84.39-1.08-3.7-.3-5.28 1.64.11 3.27.26 4.9.5.7-.69 1.4-1.38 2.09-2.08zm-48.95 8.05c2.23-.19 4.66-.66 6.76.37-2.38.32-4.7 1.03-6.68 2.43l-.08-2.8zm.1 43.32c1.67.37 3.27.98 4.82 1.71.29 2.13-1.55 5.64 1.3 6.44l-.45 3.42c-1.08.37-2.17.75-3.25 1.13-.79 3.68-4.76 4.38-7.92 3.77-3.95.3-5.03-4.26-5.97-7.23 1.82-.38 3.6-.94 5.3-1.72.76.65 1.52 1.3 2.29 1.95 1.35-.4 2.72-.72 4.11-.95l-.28-1.74c2.34-.11 2.8-2.47 1.83-4.2-2.45-.91-3.31 1.23-4.07 3.04-.88.01-1.75.03-2.63.04-.4-.61-1.21-1.83-1.61-2.44-.62.43-1.87 1.3-2.5 1.74.08.79.22 2.37.29 3.16-4.1-.41-2.09-4.8-.26-6.54.46-.09 1.39-.25 1.85-.33.48 1.77 1.93 2.31 3.63 2.37l.48-2.68c.03.77.1 2.31.13 3.09 1.68-.77 2.36-2.39 2.91-4.03m.89 12.28l.21.14c1.31-1.06 3.7-2.96 2.47-4.81-1.64.34-2.54 3.2-2.68 4.67m-10.32-2.42c.56.58 1.69 1.74 2.25 2.32-.04.58-.13 1.75-.18 2.33 2.71-.08 7.91 2 8.25-2.23-1.54.95-3.49 2.58-5.14.58.87-.29 2.59-.87 3.46-1.16l-.2-2.31c-1.66 1.48-3.91 1.08-5.83 1.88.22-.69.67-2.07.89-2.76-.88.34-2.63 1.01-3.5 1.35z" fill="#fff"/><g fill="#e3442a"><path d="M67.21 0h.51c1.82 2.22 3.87 4.23 5.93 6.22C94.07 26.66 114.43 47.17 135 67.45v.01c-18.64 18.52-37.23 37.09-55.78 55.7-3.69 4.02-7.84 7.6-11.29 11.84h-.32C45.95 113.44 24.47 91.7 2.74 70.22c-.92-.76-1.62-1.83-2.74-2.3v-.51c2.37-1.93 4.27-4.4 6.47-6.52.18 1.14.33 2.28.43 3.43.81.41 1.63.82 2.45 1.21l-.63-2.49c1.94-.15 5.12-3.14 6.12-.1-1.3.76-1.97 1.9-2 3.44-1.4.15-3.04 0-3.63 1.62 1.78 2.54 4.56 4.17 7.65 4.5-.24 1.88-1.12 2.39-2.63 1.53-2.76-2.21-6.96-4.22-5.74-8.55-.5.25-1.51.74-2.01.99l1.17 3.93c1.32 1.03 2.63 2.07 3.94 3.12-.45.9-.9 1.81-1.31 2.73l.94-1.05c2.12 1.05 4.31 1.43 5.85-.7 1.67.09 3.35.18 5.02.28.58-1.29 1.17-2.58 1.59-3.93-.51-.8-1.3-1.36-1.98-2-.54 1.33-1.08 2.66-1.61 3.99-1.8-.98-3.59-1.98-5.4-2.93-.06-1.28-.11-2.56-.15-3.84 1.11-1.49 1.26-3.22.8-5 .99.16 2.97.49 3.97.65 1.32 2.05-1.36 3.87-2.21 5.65.96.48 1.91.95 2.87 1.43l1.51-1.54c-.8-.97-1.27-2.1-1.4-3.38 1.2-.07 3.57-1.43 1.92-2.67-1.67-2.71-5.64-2.69-7.38-.02-.15-.73-.46-2.19-.62-2.92-1.18.7-2.38 1.38-3.56 2.1-1.13-.04-2.27-.07-3.4-.08C26.08 41.93 44.51 22.94 63.29 4.31c1.38-1.37 2.73-2.77 3.92-4.31m-2.9 8.47c-1.27 1.14-2.15 2.65-3.14 4.02l-2.57.2c-.54 2.11-.76 4.84 1.93 5.5-1.46 1.33-.93 3.29-.91 5.02 1.5.59 3.02 1.14 4.59 1.54.36-1.22 1.16-2.09 2.39-2.64.23.4.69 1.19.93 1.58l-.16-2.63c1.96.11 3.93.38 4.42 2.61 3.18-1.24 4.91-5.06 2.06-7.72-.79 1.64-1.28 3.39-1.73 5.15-1.53-.42-2.78-1.3-3.8-2.5-.37-.05-1.11-.14-1.47-.19-.75 1.67-1.81 3.19-3.26 4.33-1.18-1.04-1.85-2.33-2.01-3.88 2.29.36 2.33-1.97 3-3.45 1.63.16 3.25.15 4.88-.03l.24 1.96c1.94-.85 3.94-1.58 6.03-1.94-.3-1.22-.46-2.46-.74-3.68-.38.05-1.14.16-1.51.21 0-.65.02-1.95.03-2.6-2.6-1.86-6.21-1.05-9.2-.86m-13.2 25.14c-1.43.03-2.85.03-4.28.03-.37.6-1.12 1.78-1.49 2.37 1.29 2.41 2.91 4.64 4.82 6.6 1.5.9 3.34 1.01 4.94 1.73 3.66-.98 6.45-3.65 8.97-6.34-.42-1.98.32-4.97-2.07-5.86-1.59-.84-3.4-1.08-5.11-1.55-2 .86-3.98 1.79-5.78 3.02m23.2-2.15c-2.45 1.95-4.75 4.08-7.04 6.22.69 2.1 2.01 4.11 2.02 6.37-.7 2.84-1.44 5.71-2.76 8.33-.17-.43-.5-1.28-.67-1.71-.09.6-.28 1.79-.38 2.38-1.79-.25-3.4-1.16-5.16-1.5-2.72-2.09-6.04-2.64-9.34-1.79-1.57 4.65-5.48 8.01-9.52 10.54-2.71 1.84-6.15 1.31-9.24 1.76.04.64.12 1.92.15 2.56 2.5 1.96 5.39 3.65 8.65 3.71 3.04.32 5.61-1.73 8.44-2.47-2.82 4.91-6.14 9.53-9.5 14.08-1.34 2.46-1.2 6.67 2.02 7.56 2.07.45 3.53-1.37 5-2.49-.93 3.35.06 6.83 2.73 9.07 1.64 2.26 4.65 1.35 7 1.51.04-2.11.64-4.42-.61-6.31-2.06-3.38-1.4-7.56-.96-11.28 1.26-3.01 3.83-5.33 6.54-7.06-.54 7.68-2.84 15.28-2.09 23.04.59 2.54 2.57 4.43 5.06 5.08 3.72-1.9 7.78-3.02 11.88-3.72 1.33 2.21 2.8 4.48 5.38 5.34 6.28-7.66 13.48-14.52 19.73-22.21 2.34-2.4.97-6.03-.8-8.31-1.79-2.24-3.8-4.78-6.77-5.38-5.65.17-11.2 1.44-16.79 2.22-2.1-1.03-4.53-.56-6.76-.37l.08 2.8c-.47.29-1.42.87-1.89 1.16.15-1.79.82-3.43 1.76-4.93 3.95-.33 8.14-.38 11.59-2.6 1.61-1.14 3.65-.76 5.49-.87.26-2.48-.48-4.84-1.46-7.08 1.53-1.78 3.41-3.18 5.64-3.98-.06-4.57-4.91-7.56-8.84-8.71-3.52 1.87-6.39 4.79-10.11 6.32-2.37-1.6-3.58-4.35-2.09-7.04 1.74.32 3.48.91 5.27.7 3.02-1.64 5.19-4.38 7.79-6.56-1.47-3.59-5.89-5.01-9.44-4.38m45.16 27.12c-.69.7-1.39 1.39-2.09 2.08-1.63-.24-3.26-.39-4.9-.5-.78 1.58-3.54 5.67.3 5.28l.8 2.32-1.63.14c.7.17 2.08.52 2.77.69-.19.78-.56 2.35-.75 3.13 1.35-1.03 2.56-2.24 3.68-3.51-1.79-1.55-5.31-2.69-4.03-5.82 1.72.17 4.29-.1 3.78 2.42l1.95-.32c.32 1.6.66 3.19 1.01 4.78-.63.45-1.87 1.35-2.49 1.79 1.29.58 2.64.76 4.06.55-.29-2.05-.67-4.09-1.38-6.04 2.05-.22 2.99.89 2.81 3.32l1.88-1.92c-1.92-2.31-4.44-4.6-7.7-4.23-.13-1.64.65-2.39 2.35-2.26 1.86 1.63 3.8 3.19 5.61 4.87 1.14 3.02-.42 6.03-1.07 8.94-.64-1.7-1.17-3.42-1.28-5.24-.13 1.45-.38 2.89-.55 4.34-2.29.11-4.57.18-6.86.16-.97-1.29-2.13-2.32-3.87-1.91.27 2.32 2.37 3.53 3.96 4.91 1.31-.79 2.57-1.67 3.77-2.64.17.65.52 1.95.69 2.59 1.05-.37 2.12-.72 3.19-1.04l.13-1.01c1.25-.14 2.75-.12 3.41-1.43.39-2.86.67-5.83-.21-8.63-1.13-.64-2.25-1.28-3.36-1.93-.33-1.11-.65-2.22-.97-3.32-1-.19-2.01-.38-3.01-.56m-48.85 51.37c-.55 1.64-1.23 3.26-2.91 4.03-.03-.78-.1-2.32-.13-3.09l-.48 2.68c-1.7-.06-3.15-.6-3.63-2.37-.46.08-1.39.24-1.85.33-1.83 1.74-3.84 6.13.26 6.54-.07-.79-.21-2.37-.29-3.16.63-.44 1.88-1.31 2.5-1.74.4.61 1.21 1.83 1.61 2.44.88-.01 1.75-.03 2.63-.04.76-1.81 1.62-3.95 4.07-3.04.97 1.73.51 4.09-1.83 4.2l.28 1.74c-1.39.23-2.76.55-4.11.95-.77-.65-1.53-1.3-2.29-1.95-1.7.78-3.48 1.34-5.3 1.72.94 2.97 2.02 7.53 5.97 7.23 3.16.61 7.13-.09 7.92-3.77 1.08-.38 2.17-.76 3.25-1.13l.45-3.42c-2.85-.8-1.01-4.31-1.3-6.44-1.55-.73-3.15-1.34-4.82-1.71z"/><path d="M62.55 13.54c-.04-1.62 1.57-3.76 3.26-3.76-.36 1.48-1.77 3.32-3.26 3.76z"/><path d="M65.69 9.38c2.06.23 4.12.55 6.16.92-.15.51-.46 1.52-.61 2.03 1.08.71 1.87 1.68 2.37 2.9-.86.13-2.57.4-3.43.54l.96-2.53c-2.22.72-4.56 1.01-6.87 1.23-.02-2.4 2.72-1.73 4.17-2.19-.69-.73-2.06-2.18-2.75-2.9zm-5.01 5.03c2.12-1.56 2.39 3.3.46 3.32-1.59-.28-1.64-2.51-.46-3.32zm11.99 41.23c2.19-1.38 4.83-1.3 7.33-1.36-2.26 1.79-4.44 3.89-7.33 4.55v-3.19zm-13.81 7.28c.58-2.82 2.37-5.03 4.59-6.76l-.13 1.54c-.85 1.62-1.8 3.19-2.96 4.61l-1.5.61zm-47.02 4.36c1.39-.24 1.87.34 1.45 1.75-1.38.24-1.87-.35-1.45-1.75zm69.32 5.95c4.57-1.89 9.71-1.67 14.56-1.59-1.24 3.59-4 6.31-5.9 9.53-.68-1.33-1.31-2.68-1.91-4.04-2.64.55-5.28 1.39-8.01 1.11.38-1.68.69-3.38 1.26-5.01zm-14.48 4.71c2.58-1.24 5.12-2.87 8.1-2.73-.14 1.95.25 4.08-.74 5.85-2.26 1.8-5.1 2.63-7.74 3.73 0-2.29.14-4.58.38-6.85zm13.06 6.78c2.88-1.34 6.04-2 8.94-3.32.11 1.72-1.36 2.76-2.42 3.87-2.54 2.37-4.84 4.98-7.29 7.45-3.1-1.98-.64-5.75.77-8zM66.3 89.03c2.08-.9 4.34-1.34 6.53-1.88-.56 2.04-.17 5.28-2.72 6.01-2.35 1.24-4.55-2.24-3.81-4.13zm5.21 33.2c.14-1.47 1.04-4.33 2.68-4.67 1.23 1.85-1.16 3.75-2.47 4.81l-.21-.14zm-10.32-2.42c.87-.34 2.62-1.01 3.5-1.35-.22.69-.67 2.07-.89 2.76 1.92-.8 4.17-.4 5.83-1.88l.2 2.31c-.87.29-2.59.87-3.46 1.16 1.65 2 3.6.37 5.14-.58-.34 4.23-5.54 2.15-8.25 2.23.05-.58.14-1.75.18-2.33-.56-.58-1.69-1.74-2.25-2.32z"/></g><g fill="#040304"><path d="M51.11 33.61c1.8-1.23 3.78-2.16 5.78-3.02 1.71.47 3.52.71 5.11 1.55 2.39.89 1.65 3.88 2.07 5.86-2.52 2.69-5.31 5.36-8.97 6.34-1.6-.72-3.44-.83-4.94-1.73a29.206 29.206 0 0 1-4.82-6.6c.37-.59 1.12-1.77 1.49-2.37 1.43 0 2.85 0 4.28-.03z"/><path d="M74.31 31.46c3.55-.63 7.97.79 9.44 4.38-2.6 2.18-4.77 4.92-7.79 6.56-1.79.21-3.53-.38-5.27-.7-1.49 2.69-.28 5.44 2.09 7.04 3.72-1.53 6.59-4.45 10.11-6.32 3.93 1.15 8.78 4.14 8.84 8.71-2.23.8-4.11 2.2-5.64 3.98.98 2.24 1.72 4.6 1.46 7.08-1.84.11-3.88-.27-5.49.87-3.45 2.22-7.64 2.27-11.59 2.6-.94 1.5-1.61 3.14-1.76 4.93.47-.29 1.42-.87 1.89-1.16 1.98-1.4 4.3-2.11 6.68-2.43 5.59-.78 11.14-2.05 16.79-2.22 2.97.6 4.98 3.14 6.77 5.38 1.77 2.28 3.14 5.91.8 8.31-6.25 7.69-13.45 14.55-19.73 22.21-2.58-.86-4.05-3.13-5.38-5.34-4.1.7-8.16 1.82-11.88 3.72-2.49-.65-4.47-2.54-5.06-5.08-.75-7.76 1.55-15.36 2.09-23.04-2.71 1.73-5.28 4.05-6.54 7.06-.44 3.72-1.1 7.9.96 11.28 1.25 1.89.65 4.2.61 6.31-2.35-.16-5.36.75-7-1.51-2.67-2.24-3.66-5.72-2.73-9.07-1.47 1.12-2.93 2.94-5 2.49-3.22-.89-3.36-5.1-2.02-7.56 3.36-4.55 6.68-9.17 9.5-14.08-2.83.74-5.4 2.79-8.44 2.47-3.26-.06-6.15-1.75-8.65-3.71-.03-.64-.11-1.92-.15-2.56 3.09-.45 6.53.08 9.24-1.76 4.04-2.53 7.95-5.89 9.52-10.54 3.3-.85 6.62-.3 9.34 1.79 1.64 1.07 2.45 2.86 3.13 4.61-2.22 1.73-4.01 3.94-4.59 6.76-.49.69-.97 1.38-1.45 2.07.87-.57 1.74-1.13 2.62-1.7 1 .83 2.01 1.65 3.02 2.48.42-4.08 1.35-8.07 2.76-11.92.18-.36.54-1.1.72-1.47 1.32-2.62 2.06-5.49 2.76-8.33-.01-2.26-1.33-4.27-2.02-6.37 2.29-2.14 4.59-4.27 7.04-6.22m-1.64 24.18v3.19c2.89-.66 5.07-2.76 7.33-4.55-2.5.06-5.14-.02-7.33 1.36m8.49 17.59c-.57 1.63-.88 3.33-1.26 5.01 2.73.28 5.37-.56 8.01-1.11.6 1.36 1.23 2.71 1.91 4.04 1.9-3.22 4.66-5.94 5.9-9.53-4.85-.08-9.99-.3-14.56 1.59m-14.48 4.71c-.24 2.27-.38 4.56-.38 6.85 2.64-1.1 5.48-1.93 7.74-3.73.99-1.77.6-3.9.74-5.85-2.98-.14-5.52 1.49-8.1 2.73m13.06 6.78c-1.41 2.25-3.87 6.02-.77 8 2.45-2.47 4.75-5.08 7.29-7.45 1.06-1.11 2.53-2.15 2.42-3.87-2.9 1.32-6.06 1.98-8.94 3.32M66.3 89.03c-.74 1.89 1.46 5.37 3.81 4.13 2.55-.73 2.16-3.97 2.72-6.01-2.19.54-4.45.98-6.53 1.88z"/></g></svg>