<svg width="256pt" height="256pt" viewBox="0 0 256 256" xmlns="http://www.w3.org/2000/svg"><path fill="#16010c" d="M127.15 5c6.62 5.23 10.2 13.15 13.08 20.86 2.47 6.53 3.79 13.39 5.24 20.2 6.63-7.84 12.43-16.81 21.5-22.14 1.85 5.93 2 12.18 3.16 18.24 9.49-3.67 18.21-9.09 27.44-13.33 1.69-.64 3.53-.04 5.16.51 1.14 1.25.4 3.15.49 4.67-.59 7.84-2.87 15.39-4.95 22.93 9.13-2.21 18.25-5.19 27.77-4.74.48 2.22 1.24 4.65-.09 6.74-3.64 7.03-7 14.21-10.95 21.08-.97 1.74-1.61 3.64-2.22 5.53 6.13.6 12.3 1.11 18.25 2.75-5.52 10.27-15.7 16.95-25.19 23.24 5.51 1.83 11.38 2.05 16.96 3.6 9.83 2.52 20 5.84 27.37 13.16-3.19 5.24-8.95 8.01-14.23 10.67-8.39 4.11-17.62 5.77-26.6 8.05 7.63 6.68 17.23 12.08 21.68 21.59-6.15 1.53-12.51 1.78-18.67 3.2 4.31 8.91 8.88 17.69 13.35 26.53 1.17 1.96.66 4.27.4 6.4-9.68.57-18.82-2.99-28.14-4.91 2.02 9.23 5.54 18.35 4.72 27.98-1.77.25-3.69.92-5.36-.1-9.13-4.58-18.15-9.41-27.41-13.74-1.47 5.99-1.65 12.21-3.19 18.19-4.46-1.31-7.59-4.95-10.79-8.1-4.06-4.01-6.78-9.13-10.77-13.21-3.52 14.42-6.68 30.45-18.32 40.78-5.86-4.89-8.74-12.29-11.25-19.28-3-8-3.52-16.62-6.1-24.72-6.38 9.22-12.77 19.09-22.67 24.89-2.6-5.87-1.94-12.47-3.74-18.55-8.59 3.95-16.93 8.46-25.38 12.71-2.28 1.23-4.93 1.08-7.43 1.17-.62-9.81 2.75-19.13 4.86-28.54-8.54 2.37-17.21 4.83-26.13 4.91-1.41-1.25-3-3.46-2.06-5.4 4.46-9.32 9.79-18.24 13.88-27.73-5.99-1.18-12.16-1.39-18.03-3.2 4.97-9.05 13.79-14.93 21.7-21.17-5.95-2.13-12.32-2.77-18.26-4.98C17.91 138.8 9.3 135.09 3.67 128c3.8-4.25 8.92-6.94 14.08-9.16 9.69-3.98 20.06-5.81 30.38-7.3-5.32-4.64-11.76-7.85-16.71-12.94-3.14-3.31-7.08-6.38-8.31-10.98 5.86-1.32 11.83-1.93 17.76-2.8C36.95 76.04 32.14 67.68 28 59c-1.17-2.26-.34-4.83-.16-7.21 9.39-.8 18.32 2.57 27.37 4.43-1.7-8.67-4.83-17.19-4.47-26.14 1.8-1.85 4.93-2.39 7.21-1.06 8.67 4.25 17.07 9.09 25.97 12.88 1.04-5.97 1.46-12.06 3.15-17.91 7 4.1 12.42 10.3 17.18 16.76 2.1 2.85 3.63 6.17 6.37 8.51 1.84-11.19 3.64-22.6 8.66-32.91 1.9-4.23 4.5-8.14 7.87-11.35m.09 3.02c-4.53 5.46-7.74 11.95-9.43 18.83-2.13 6.69-3.61 13.56-4.54 20.51-.33 2.9-1.27 6.15.64 8.72 5.96 13.09 10.16 26.95 12.2 41.2-.9 1.07-.85 2.15.13 3.22-1.35-.02-2.69.07-4.02.28l-.44-.84c1.28-.9.75-3.78-.93-3.81l-.13-1.01c1.12-1.39.85-2.36-.81-2.89-.4-5.5-2.73-10.59-4.65-15.67-1.97-4.13-3.79-8.46-7.01-11.79-2.84-4.53-6.69-8.31-11.07-11.35-3.66-3.12-7.71-5.73-12.04-7.83-4.88-3.06-10.04-5.63-15.28-8.01-4.19-2.33-8.47-4.5-12.87-6.42.16 5.43.99 10.83 2.7 15.99 1.44 5.06 3.37 9.96 5.74 14.66 1.61 3.17 3.35 6.27 5.31 9.23 2.21 3.93 4.81 7.61 7.62 11.14 2.83 3.78 5.69 7.56 9.13 10.82 5.62 6.24 11.58 12.2 18 17.62-.31.41-.94 1.24-1.26 1.65-7.28-6.74-14.94-13.13-21.19-20.89-4.12-2.95-9.46-3.31-14.36-3.45-.78-2.01-4.88-1.95-6.51-.65-.78-.18-2.33-.53-3.1-.71-4.89.03-9.82-.29-14.68.5-2.87-.1-5.98-.65-8.54 1.01-3.29.1-6.57.41-9.79 1.08 1.29 2.09 2.87 3.97 4.68 5.62 5.58 5.63 11.76 10.74 18.81 14.43 7.1 4.06 14.53 7.58 22.36 9.98 6.34 1.95 12.69 4.26 19.37 4.69-.26 1.79 2.88 2.28 3.57.78.93.16 2.79.47 3.73.63-.55.58-1 1.24-1.46 1.91-10.2-1.61-20.35-3.76-30.07-7.31-5.41-1.92-10.52-4.58-15.96-6.4-8.56 1.23-17.28 2.18-25.44 5.19-6.84 1.72-13.5 4.64-18.73 9.46 4.86 5.62 11.94 8.5 18.75 10.97 5.47 1.82 11.05 3.27 16.69 4.47 2.5.46 5.19 1.24 7.61.03 14.16-7.7 29.87-12.67 45.88-14.53 1.27 0 2.55-.01 3.82-.03l-.02.74c-1.95.47-3.92.86-5.81 1.54-.68-1.5-3.83-1.01-3.55.78-7.48.51-14.55 3.36-21.63 5.63-7.44 2.48-14.43 6.09-21.19 10.02-7.99 4.84-15.59 10.73-21.02 18.42 13.3 2.93 27.26 4.41 40.78 2.17 4.33-.27 8.65-1.01 12.82-2.23 2.58-.56 3.95-2.97 5.31-4.98 3.55-2.94 6.56-6.46 9.95-9.56.08-.07.23-.21.3-.28 2.71-2.49 5.5-4.89 8.24-7.34l1.24 1.64c-2.23 1.65-4.41 3.46-5.85 5.88-1.41-1.23-4 1.16-2.91 2.68-4.77 2.92-7.95 7.69-11.7 11.73-5.56 5.71-10.08 12.33-14.3 19.06-3.74 5.6-6.51 11.77-9.05 17.98-2.48 6.84-4.59 13.97-4.57 21.31 7.01-2.79 13.78-6.21 20.3-10 6.45-2.79 12.63-6.36 18.21-10.63 7.05-5 13.34-11.37 17.22-19.16 5.09-8.88 7.65-18.91 9.58-28.89 1.3.26 2.62.34 3.94.44-1.92 15.5-5.81 30.89-12.91 44.87-1.82 2.48-1.28 5.75-.16 8.39.66 6.74 2.2 13.36 4.07 19.86 2.08 6.94 4.65 14.12 10 19.26 4.85-4.77 8.03-10.98 10.06-17.42 3.27-7.93 5.11-16.4 6.11-24.9l-.52.46c-2.71-6.03-5.88-11.85-8.03-18.11-3.93-10.42-5.86-21.42-7.71-32.35.49.01 1.47.04 1.96.05 1.67 15.27 6.3 30.2 13.11 43.95 5.65 11.02 13.04 21.44 23.02 28.94.9-5.48 2.49-11.1 1.93-16.64-4.64-3.45-9.88-6.11-14.1-10.14-10.31-8.66-16.63-21.15-19.9-34.04-1.14-4-1.5-8.21-3.06-12.07.5-.07 1.49-.21 1.98-.27 1.9 10.26 4.8 20.43 9.8 29.64 4.54 8.1 11.13 15.03 19.02 19.92a88.519 88.519 0 0 0 19.3 10.79c5.5 3.44 11.42 6.16 17.35 8.78-.08-5.61-1-11.2-3.1-16.41-2-7.64-5.37-14.89-9.61-21.55-4.1-6.75-8.57-13.37-14.02-19.11-6.48-8.08-14.02-15.25-21.77-22.09.26-.32.78-.95 1.04-1.27 4.97 3.87 9.54 8.2 13.99 12.65 3.27 3.21 6.03 6.99 9.95 9.48 5.25 1.2 10.54 2.37 15.94 2.51 7.03 1.73 14.51 1.3 21.57-.03 5.37-.4 10.75-1 16-2.25-5.16-8.35-13.52-14.15-21.72-19.24-6.93-3.66-13.87-7.41-21.34-9.87-6.04-1.84-12.02-4.33-18.39-4.72-.52-1.69-1.46-1.95-2.82-.78-.56-.06-1.67-.17-2.22-.23-.05-1.98-3.61-2.21-4.6-.75-.4.04-1.19.11-1.59.15l-.41.83c.26-2.33.34-4.69.2-7.02 2.25.28 4.63.5 6.75-.51.71 1.47 3.81.93 3.57-.83 7.47-.58 14.55-3.34 21.57-5.8 7.85-2.65 15.24-6.5 22.25-10.89 7.2-4.58 14.12-10.05 18.91-17.21-4.27-1.28-8.71-1.84-13.14-2.1-2.77-1.16-5.77-.96-8.68-.66-5.59-.57-11.24-.42-16.79.41-5.41.12-10.68 1.43-15.92 2.66-4.49 4.02-8.36 8.68-12.76 12.81-3.31 3.3-7.08 6.12-10.18 9.63-.32-.42-.96-1.26-1.28-1.69 7.24-6.66 14.53-13.34 20.74-21 5.5-5.78 10.06-12.41 14.22-19.2 3.61-5.6 6.47-11.64 8.78-17.88 1.6-4.48 3.13-9.02 3.77-13.75.85-2.49 1.05-5.13.98-7.74-1.96.39-3.81 1.15-5.31 2.49-5.02 2.59-10.35 4.73-14.91 8.12-7.2 2.63-13.86 6.79-19.86 11.53-6.75 5.06-12.57 11.48-16.31 19.09-2.85 6.21-6.04 12.55-6.67 19.45-1.72.45-1.99 1.36-.84 2.74-.91 2-1.07 4.24-1.46 6.38-1.32-.33-2.67-.58-4.02-.71l.2-2.29c1.65-15.4 6.45-30.35 13.23-44.23 1.01-1.78 2.61-3.54 2.25-5.74-1.03-7.29-3.04-14.42-5.41-21.37-2.08-7.03-5.58-13.76-10.82-18.96M88.3 27.92c-.8 3.64-1.24 7.35-1.79 11.04.19 1.55-.26 3.28.54 4.7 2.22 1.97 4.88 3.33 7.31 5 8.7 5.79 16.06 13.72 20.72 23.11 2.23 4.3 3.58 8.97 5.62 13.35.02 4.66 1.52 9.24 3.47 13.43-.1-5.44-.69-11.11-3.32-15.97-.1-3.96-1.86-7.62-3.03-11.34-4.97-13.4-11.58-26.64-21.81-36.82-2.16-2.61-4.49-5.19-7.71-6.5m65.55 10.95c-8.66 10.63-14.64 23.21-18.94 36.16-.43 1.5-1.02 3.01-.94 4.59-2.91 5.8-3.93 12.46-4.07 18.89 2.18-5.15 3.74-10.75 4.35-16.3 1.32-2.42 2.4-4.97 3.5-7.5 3.37-7.69 8.41-14.66 14.73-20.2 4.57-4.1 9.96-7.11 15.04-10.52-.08-5.43-.98-10.78-1.93-16.11-4.69 2.74-8.24 6.93-11.74 10.99M53.43 30.71c-.63 8.43 1.65 16.76 4.19 24.72.38 1.85 2 2.81 3.51 3.69-1-5.38-3.47-10.34-4.64-15.68-1.06-4.23-1.07-8.76-3.06-12.73m144.28 11.92c-1.09 5.64-3.53 10.89-4.97 16.44.67-.2 2-.59 2.66-.79 3.1-8.82 5.85-18.12 5.16-27.57-1.87 3.71-1.99 7.93-2.85 11.92M29.96 54.11C32 62.92 37.72 70.4 43.93 76.75c2.06 2.6 4.33 5.09 7 7.08 4.59 1.82 9.65.8 14.46.98 4.35.62 8.66 1.52 13.03 1.96-2.07-4.42-5.58-7.91-8.14-12.03-2.53-3.6-4.38-7.62-6.7-11.36-1.39-2.37-4.35-2.8-6.66-3.87-8.65-3.06-17.71-5.52-26.96-5.4m166.1 6.2c-6.6 1.82-8.28 9-11.82 13.96-2.68 4.49-6.39 8.27-8.79 12.93 3.26-.28 6.53-.69 9.69-1.6.94 1.43 4.51 1.31 4.51-.68.73-.03 2.2-.1 2.94-.14 3.51.22 7.42 1.22 10.59-.85 2.79-1.73 4.77-4.41 6.95-6.8 5.85-6.42 12.3-13.52 13.41-22.47-9.45-.16-18.63 2.64-27.48 5.65M38.93 75.07c1.19 3.32 2.76 6.48 4.47 9.55 1.56.02 3.11.03 4.66.03-2.46-3.71-5.78-6.69-9.13-9.58m167.01 10.04c1.48-.2 3.15.19 4.48-.61 1.72-2.24 2.6-4.97 3.61-7.57-3.1 2.3-5.9 4.99-8.09 8.18m-6.11 29.87c-8.05 3.5-16.16 7-24.74 9.02-6.46 1.83-13.17 2.43-19.63 4.19 2.08.98 4.32 1.55 6.59 1.86 15.05 2.41 29.76 7.23 43.08 14.69 7.16-.35 14.23-2.21 20.96-4.61 7.73-2.07 15.28-5.61 20.97-11.36-5.14-5.12-12.14-7.7-18.93-9.8-6.5-1.9-13.12-3.51-19.88-4.08-2.62-.96-6.08-2.03-8.42.09m-81.13 61.77c-3.87 6.97-7.01 14.5-12.67 20.3-5.57 6.39-13.01 10.57-19.88 15.32-.53 5.39.72 11.07 2.47 16.21 13.43-10.28 21.98-25.57 27.98-41.1.92-2.66 2.31-5.29 2.36-8.16 2.64-5.46 3.79-11.57 4.1-17.6-1.94 4.81-3.85 9.86-4.36 15.03m-55.31-5.56c-4.23-.31-8.53-.39-12.66.73-2.13 1.97-4.13 4.05-6.05 6.21-5.81 5.7-10.45 12.47-14.04 19.76-.29 1.39-.58 2.78-.88 4.18 2.87.1 5.77-.03 8.51-.97 7.1-.99 14.04-3.04 20.7-5.68 4.4-.84 5.54-5.63 7.64-8.9 3.31-6.21 8.25-11.33 11.75-17.42-5.03.44-9.98 1.44-14.97 2.09m112.23-1.52c3.4 5.99 8.29 10.99 11.51 17.1 2.16 3.81 3.91 8.85 8.91 9.57 8.76 3.38 18.07 5.72 27.49 5.94-.89-8.46-6.79-15.32-12.3-21.37-2.71-2.95-5.13-6.33-8.61-8.42-2.43-.49-4.92-.43-7.38-.55-2.78-1-5.75-.95-8.66-.72-3.64-.61-7.28-1.26-10.96-1.55m-132.24 1.64c-2.03 3.4-3.86 6.92-5.35 10.59 3.56-3.38 7.01-6.89 9.97-10.81-1.54.07-3.08.14-4.62.22m162.54.5c2.08 2.68 4.48 5.1 7.16 7.19-1.28-3.13-2.53-9.08-7.16-7.19m-148.5 28.57c-2.82 7.95-4.44 16.33-5.08 24.74.34-.17 1.03-.51 1.37-.68 1.24-3.07 1.16-6.51 1.93-9.71 1.08-6.15 3.8-11.84 5.19-17.9-1.51.77-2.99 1.78-3.41 3.55m135.63-2.53c2.64 8.83 6.46 17.51 6.5 26.9.3-.04.9-.13 1.2-.18-.95-8.74-2.69-17.42-5.5-25.76l-2.2-.96z"/><path fill="#c96c9c" d="M127.24 8.02c5.24 5.2 8.74 11.93 10.82 18.96-2.88-1.29-5.82-2.73-9.05-2.79-3.92-.25-7.64 1.21-11.2 2.66 1.69-6.88 4.9-13.37 9.43-18.83z"/><path fill="#e179af" d="M117.81 26.85c3.56-1.45 7.28-2.91 11.2-2.66 3.23.06 6.17 1.5 9.05 2.79 2.37 6.95 4.38 14.08 5.41 21.37.36 2.2-1.24 3.96-2.25 5.74.04-1.71.4-3.55-.29-5.17-1.95-1.5-4.52-1.75-6.89-2.03-6.58-.5-13.24-.08-19.7 1.28-.16 2.64-.35 5.27-.43 7.91-1.91-2.57-.97-5.82-.64-8.72.93-6.95 2.41-13.82 4.54-20.51z"/><path fill="#d16fa2" d="M88.3 27.92c3.22 1.31 5.55 3.89 7.71 6.5-3.44.86-6.71 2.32-9.5 4.54.55-3.69.99-7.4 1.79-11.04z"/><path fill="#e47bb2" d="M153.85 38.87c3.5-4.06 7.05-8.25 11.74-10.99.95 5.33 1.85 10.68 1.93 16.11-5.08 3.41-10.47 6.42-15.04 10.52-6.32 5.54-11.36 12.51-14.73 20.2-1.1 2.53-2.18 5.08-3.5 7.5l-.28-2.59c-.08-1.58.51-3.09.94-4.59 4.3-12.95 10.28-25.53 18.94-36.16z"/><path d="M53.43 30.71c1.99 3.97 2 8.5 3.06 12.73 1.17 5.34 3.64 10.3 4.64 15.68-1.51-.88-3.13-1.84-3.51-3.69-2.54-7.96-4.82-16.29-4.19-24.72zm144.28 11.92c.86-3.99.98-8.21 2.85-11.92.69 9.45-2.06 18.75-5.16 27.57-.66.2-1.99.59-2.66.79 1.44-5.55 3.88-10.8 4.97-16.44zM38.93 75.07c3.35 2.89 6.67 5.87 9.13 9.58-1.55 0-3.1-.01-4.66-.03-1.71-3.07-3.28-6.23-4.47-9.55zm167.01 10.04c2.19-3.19 4.99-5.88 8.09-8.18-1.01 2.6-1.89 5.33-3.61 7.57-1.33.8-3 .41-4.48.61zm-162.56 86.2c1.54-.08 3.08-.15 4.62-.22-2.96 3.92-6.41 7.43-9.97 10.81 1.49-3.67 3.32-7.19 5.35-10.59zm162.54.5c4.63-1.89 5.88 4.06 7.16 7.19a40.944 40.944 0 0 1-7.16-7.19zm-148.5 28.57c.42-1.77 1.9-2.78 3.41-3.55-1.39 6.06-4.11 11.75-5.19 17.9-.77 3.2-.69 6.64-1.93 9.71-.34.17-1.03.51-1.37.68.64-8.41 2.26-16.79 5.08-24.74zm135.63-2.53l2.2.96c2.81 8.34 4.55 17.02 5.5 25.76-.3.05-.9.14-1.2.18-.04-9.39-3.86-18.07-6.5-26.9z" fill="#d770a6"/><path fill="#c66a9a" d="M56.99 31.16c4.4 1.92 8.68 4.09 12.87 6.42-3.81 2.71-7.19 5.97-10.17 9.57-1.71-5.16-2.54-10.56-2.7-15.99z"/><path fill="#842658" d="M191.86 34.01c1.5-1.34 3.35-2.1 5.31-2.49.07 2.61-.13 5.25-.98 7.74.03-2.1-.03-4.19-.07-6.29-1.43.33-2.85.66-4.26 1.04z"/><path fill="#ca6c9e" d="M191.86 34.01c1.41-.38 2.83-.71 4.26-1.04.04 2.1.1 4.19.07 6.29-.64 4.73-2.17 9.27-3.77 13.75-1.21-2.47-2.13-5.27-4.36-7.04-3.12-2.55-7.2-3.43-11.11-3.84 4.56-3.39 9.89-5.53 14.91-8.12z"/><path fill="#e67cb4" d="M86.51 38.96c2.79-2.22 6.06-3.68 9.5-4.54 10.23 10.18 16.84 23.42 21.81 36.82 1.17 3.72 2.93 7.38 3.03 11.34-.04.63-.11 1.91-.15 2.54-2.04-4.38-3.39-9.05-5.62-13.35-4.66-9.39-12.02-17.32-20.72-23.11-2.43-1.67-5.09-3.03-7.31-5-.8-1.42-.35-3.15-.54-4.7z"/><path fill="#d573a7" d="M59.69 47.15c2.98-3.6 6.36-6.86 10.17-9.57 5.24 2.38 10.4 4.95 15.28 8.01-8.74 1.89-15.39 8.73-19.71 16.22-2.37-4.7-4.3-9.6-5.74-14.66z"/><path d="M176.95 42.13c3.91.41 7.99 1.29 11.11 3.84 2.23 1.77 3.15 4.57 4.36 7.04-2.31 6.24-5.17 12.28-8.78 17.88-2.43-6.75-9.09-10.16-14.78-13.76-3.53-2.24-7.71-2.92-11.77-3.47 6-4.74 12.66-8.9 19.86-11.53zm-151.3 76.55c8.16-3.01 16.88-3.96 25.44-5.19-3.5 1.75-5.46 5.17-5.58 9.03-.49 7.12-1.33 15.77 4.46 21.09-2.42 1.21-5.11.43-7.61-.03-5.64-1.2-11.22-2.65-16.69-4.47-2.18-6.64-1.87-13.75-.02-20.43zm35.63 84.25c2.54-6.21 5.31-12.38 9.05-17.98 1.23 2.54 2.27 5.32 4.43 7.26 5.93 5.17 12.96 9.03 20.46 11.4-5.58 4.27-11.76 7.84-18.21 10.63-4.07-.29-8.36-1.01-11.6-3.69-2.44-1.81-3.06-4.96-4.13-7.62z" fill="#e17ab0"/><path fill="#e87eb5" d="M65.43 61.81c4.32-7.49 10.97-14.33 19.71-16.22 4.33 2.1 8.38 4.71 12.04 7.83-4.42 1.24-9.01 2.31-12.91 4.85-5.27 3.39-9.28 8.27-13.53 12.77-1.96-2.96-3.7-6.06-5.31-9.23z"/><path d="M114.34 48.17a70.048 70.048 0 0 1 19.7-1.28c2.37.28 4.94.53 6.89 2.03.69 1.62.33 3.46.29 5.17-6.78 13.88-11.58 28.83-13.23 44.23l-1.88-1.04c-2.04-14.25-6.24-28.11-12.2-41.2.08-2.64.27-5.27.43-7.91zm-63.25 65.32c5.44 1.82 10.55 4.48 15.96 6.4 9.72 3.55 19.87 5.7 30.07 7.31-.31.47-.95 1.41-1.27 1.88-16.01 1.86-31.72 6.83-45.88 14.53-5.79-5.32-4.95-13.97-4.46-21.09.12-3.86 2.08-7.28 5.58-9.03z" fill="#ff92d2"/><path fill="#c96d9e" d="M29.96 54.11c9.25-.12 18.31 2.34 26.96 5.4-5.74 1.75-10.19 6.25-12.76 11.57-.79 1.79-.43 3.8-.23 5.67C37.72 70.4 32 62.92 29.96 54.11z"/><path fill="#fc89c6" d="M84.27 58.27c3.9-2.54 8.49-3.61 12.91-4.85 4.38 3.04 8.23 6.82 11.07 11.35-2.62-.93-5.5-1.82-8.26-.89-7.06 2.17-13.45 6.32-18.81 11.36-2.08 1.71-2.41 4.46-2.82 6.94-2.81-3.53-5.41-7.21-7.62-11.14 4.25-4.5 8.26-9.38 13.53-12.77z"/><path d="M157.09 53.66c4.06.55 8.24 1.23 11.77 3.47 5.69 3.6 12.35 7.01 14.78 13.76-4.16 6.79-8.72 13.42-14.22 19.2-.72-2.79-1.17-5.98-3.63-7.86-4.19-3.62-8.92-6.67-13.98-8.94-3.46-1.68-7.37-1.03-11.03-.54 3.74-7.61 9.56-14.03 16.31-19.09zm-109.62 94.1c6.76-3.93 13.75-7.54 21.19-10.02-.33 3.62-.54 7.37.85 10.81 2.36 6 5.1 12.22 10.21 16.41 1.88-1.27 3.79-2.5 5.64-3.82-1.36 2.01-2.73 4.42-5.31 4.98a58.769 58.769 0 0 1-12.82 2.23c-4.5-.12-9.16.22-13.52-1.11-5.15-4.87-7.05-12.55-6.24-19.48z" fill="#ff8ecd"/><path fill="#cb6d9f" d="M196.06 60.31c8.85-3.01 18.03-5.81 27.48-5.65-1.11 8.95-7.56 16.05-13.41 22.47-1.7-7.44-6.53-14.47-14.07-16.82z"/><path fill="#e57cb3" d="M44.16 71.08c2.57-5.32 7.02-9.82 12.76-11.57 2.31 1.07 5.27 1.5 6.66 3.87 2.32 3.74 4.17 7.76 6.7 11.36 2.56 4.12 6.07 7.61 8.14 12.03-4.37-.44-8.68-1.34-13.03-1.96-4.79-.73-9.63-.88-14.46-.98-2.67-1.99-4.94-4.48-7-7.08-.2-1.87-.56-3.88.23-5.67z"/><path fill="#e67db4" d="M184.24 74.27c3.54-4.96 5.22-12.14 11.82-13.96 7.54 2.35 12.37 9.38 14.07 16.82-2.18 2.39-4.16 5.07-6.95 6.8-3.53.27-7.07.52-10.59.85-.74.04-2.21.11-2.94.14-1.54-.06-3.06.2-4.51.68-3.16.91-6.43 1.32-9.69 1.6 2.4-4.66 6.11-8.44 8.79-12.93z"/><path fill="#f9d" d="M99.99 63.88c2.76-.93 5.64-.04 8.26.89 3.22 3.33 5.04 7.66 7.01 11.79-8.37-1.19-16.11 3.3-22.51 8.19-2.8 1.95-4.17 5.14-5.26 8.25-3.44-3.26-6.3-7.04-9.13-10.82.41-2.48.74-5.23 2.82-6.94 5.36-5.04 11.75-9.19 18.81-11.36z"/><path fill="#ffb3fb" d="M140.78 72.75c3.66-.49 7.57-1.14 11.03.54 5.06 2.27 9.79 5.32 13.98 8.94 2.46 1.88 2.91 5.07 3.63 7.86-6.21 7.66-13.5 14.34-20.74 21-4.26-5.18-10.29-8.56-16.87-9.77.39-2.14.55-4.38 1.46-6.38.69-.8.96-1.71.84-2.74.63-6.9 3.82-13.24 6.67-19.45z"/><path fill="#ffb8fd" d="M92.75 84.75c6.4-4.89 14.14-9.38 22.51-8.19 1.92 5.08 4.25 10.17 4.65 15.67-.13 1.07.14 2.04.81 2.89l.13 1.01c0 1.32.16 2.69.93 3.81l.44.84c-6.24 1.93-12.25 4.98-16.73 9.84-6.42-5.42-12.38-11.38-18-17.62 1.09-3.11 2.46-6.3 5.26-8.25z"/><path fill="#d13b90" d="M129.9 98.51c.14-6.43 1.16-13.09 4.07-18.89l.28 2.59c-.61 5.55-2.17 11.15-4.35 16.3z"/><path fill="#cd3489" d="M120.85 82.58c2.63 4.86 3.22 10.53 3.32 15.97-1.95-4.19-3.45-8.77-3.47-13.43.04-.63.11-1.91.15-2.54z"/><path fill="#891c56" d="M50.93 83.83c4.83.1 9.67.25 14.46.98-4.81-.18-9.87.84-14.46-.98z"/><path fill="#c53a84" d="M192.59 84.78c3.52-.33 7.06-.58 10.59-.85-3.17 2.07-7.08 1.07-10.59.85z"/><path fill="#a02265" d="M185.14 85.6c1.45-.48 2.97-.74 4.51-.68 0 1.99-3.57 2.11-4.51.68z"/><path fill="#af3877" d="M35.85 88.08c2.56-1.66 5.67-1.11 8.54-1.01-2.83.44-5.68.8-8.54 1.01z"/><path fill="#e57bb3" d="M44.39 87.07c4.86-.79 9.79-.47 14.68-.5-6.69 5.49-9.08 14.32-9.52 22.64-7.05-3.69-13.23-8.8-18.81-14.43 1.74-2.21 3.46-4.42 5.11-6.7 2.86-.21 5.71-.57 8.54-1.01z"/><path fill="#ff90d0" d="M59.07 86.57c.77.18 2.32.53 3.1.71 2.12.56 4.32.75 6.51.65 4.9.14 10.24.5 14.36 3.45-2.48 1.25-5.24 2.43-6.63 4.99-2.88 4.71-5.54 9.7-6.89 15.09-.85 2.84 1.22 5.32 2.39 7.73-7.83-2.4-15.26-5.92-22.36-9.98.44-8.32 2.83-17.15 9.52-22.64z"/><path fill="#db4e99" d="M62.17 87.28c1.63-1.3 5.73-1.36 6.51.65-2.19.1-4.39-.09-6.51-.65z"/><path fill="#dd77ac" d="M188.82 87.68c5.55-.83 11.2-.98 16.79-.41 2.89.28 5.78.49 8.68.66 4.43.26 8.87.82 13.14 2.1-4.79 7.16-11.71 12.63-18.91 17.21 2.29-6.73-1.4-13.31-4.78-18.93-4.97-.26-9.94-.63-14.92-.63z"/><path fill="#a3306d" d="M205.61 87.27c2.91-.3 5.91-.5 8.68.66-2.9-.17-5.79-.38-8.68-.66z"/><path fill="#cf6da1" d="M26.06 89.16c3.22-.67 6.5-.98 9.79-1.08-1.65 2.28-3.37 4.49-5.11 6.7a26.302 26.302 0 0 1-4.68-5.62z"/><path fill="#ff8cca" d="M172.9 90.34c5.24-1.23 10.51-2.54 15.92-2.66 4.98 0 9.95.37 14.92.63 3.38 5.62 7.07 12.2 4.78 18.93-7.01 4.39-14.4 8.24-22.25 10.89 1.53-8.2-2.67-15.85-6.91-22.52-1.44-2.51-4.02-3.93-6.46-5.27z"/><path fill="#ffaff9" d="M160.14 103.15c4.4-4.13 8.27-8.79 12.76-12.81 2.44 1.34 5.02 2.76 6.46 5.27 4.24 6.67 8.44 14.32 6.91 22.52-7.02 2.46-14.1 5.22-21.57 5.8-1.25-.08-2.47.26-3.57.83-2.12 1.01-4.5.79-6.75.51-.35-4.47-1.92-8.78-4.42-12.49 3.1-3.51 6.87-6.33 10.18-9.63z"/><path d="M76.41 96.37c1.39-2.56 4.15-3.74 6.63-4.99 6.25 7.76 13.91 14.15 21.19 20.89-2.35 3.7-4.01 7.88-4.28 12.3-.34.18-1.03.54-1.37.72-.94-.16-2.8-.47-3.73-.63-1.12-.53-2.33-.85-3.57-.78-6.68-.43-13.03-2.74-19.37-4.69-1.17-2.41-3.24-4.89-2.39-7.73 1.35-5.39 4.01-10.38 6.89-15.09zm55.4 59.47c6.68-1.17 12.59-4.94 16.97-10.03 7.75 6.84 15.29 14.01 21.77 22.09-1.38 3.52-3.19 7.06-6.5 9.13-6.65 4.48-13.88 10.08-22.44 8.45-5-9.21-7.9-19.38-9.8-29.64z" fill="#ffb2fa"/><path fill="#da43a1" d="M119.91 92.23c1.66.53 1.93 1.5.81 2.89-.67-.85-.94-1.82-.81-2.89z"/><path fill="#d33e9a" d="M133.27 94.94c-1.15-1.38-.88-2.29.84-2.74.12 1.03-.15 1.94-.84 2.74z"/><path fill="#d44196" d="M120.85 96.13c1.68.03 2.21 2.91.93 3.81-.77-1.12-.93-2.49-.93-3.81z"/><path fill="#d5418c" d="M126.11 97.28l1.88 1.04-.2 2.29c-.39-.03-1.16-.09-1.55-.11-.98-1.07-1.03-2.15-.13-3.22z"/><path fill="#dae65f" d="M105.49 110.62c4.48-4.86 10.49-7.91 16.73-9.84 1.33-.21 2.67-.3 4.02-.28.39.02 1.16.08 1.55.11 1.35.13 2.7.38 4.02.71 6.58 1.21 12.61 4.59 16.87 9.77.32.43.96 1.27 1.28 1.69 2.5 3.71 4.07 8.02 4.42 12.49.14 2.33.06 4.69-.2 7.02-.49 4.35-1.71 8.69-4.36 12.25-.26.32-.78.95-1.04 1.27-4.38 5.09-10.29 8.86-16.97 10.03-.49.06-1.48.2-1.98.27h-1c-.49-.01-1.47-.04-1.96-.05l-.91-.06c-1.32-.1-2.64-.18-3.94-.44-6.57-1.34-12.5-4.96-16.93-9.96l-1.24-1.64c-2.68-4.22-4.45-9.12-4.2-14.17l.02-.74c.06-1.49.15-2.99.28-4.48.27-4.42 1.93-8.6 4.28-12.3.32-.41.95-1.24 1.26-1.65m20.96-5.59c-5.15 1.22-10.69 1.41-15.4 4.04-1.33.82-.14 2.45.25 3.47-2.08 2.07-4.63 3.67-6.48 5.96-1.35 5.64-.68 11.57-2.21 17.22.53-.41 1.58-1.25 2.1-1.67.62 1.54 1.25 3.07 1.9 4.6l-2.58 1.47c1.5.71 3.15 1.26 4.39 2.43 1.25 1.45 1.54 3.42 2.08 5.21.38-.5 1.14-1.48 1.52-1.97.34.93.67 1.87 1 2.81 1.25-1.42 2.74-1.6 4.13-.28-.46.34-1.37 1.01-1.82 1.34 1 .89 1.99 1.78 2.99 2.68.03-.67.11-2.02.15-2.7.46.06 1.38.18 1.84.23.06.42.19 1.27.25 1.69 3.24.14 6.53.73 9.74-.02 5.61-1.02 11.52-2.27 16.02-5.98-.7-.66-1.41-1.3-2.14-1.92 1.46-1.9 3.22-3.53 5.11-4.99 1.13-4.94.13-10.19 1.94-14.97-1.91-1.31-3.29-3.16-3.94-5.39.91-.46 1.82-.93 2.74-1.39-1.7-.85-3.57-1.52-4.89-2.93-.96-1.38-1.15-3.1-1.58-4.68-.64.89-1.29 1.77-1.93 2.66-1.37-1.06-2.74-2.14-4.08-3.24 1.55-1.6-.62-2.91-1.49-4.15-3.12 1.28-6.39.65-9.61.47z"/><path fill="#eaf430" d="M126.45 105.03c3.22.18 6.49.81 9.61-.47.87 1.24 3.04 2.55 1.49 4.15 1.34 1.1 2.71 2.18 4.08 3.24.64-.89 1.29-1.77 1.93-2.66.43 1.58.62 3.3 1.58 4.68 1.32 1.41 3.19 2.08 4.89 2.93-.92.46-1.83.93-2.74 1.39.65 2.23 2.03 4.08 3.94 5.39-1.81 4.78-.81 10.03-1.94 14.97-1.89 1.46-3.65 3.09-5.11 4.99.73.62 1.44 1.26 2.14 1.92-4.5 3.71-10.41 4.96-16.02 5.98-3.21.75-6.5.16-9.74.02-.06-.42-.19-1.27-.25-1.69-.46-.05-1.38-.17-1.84-.23-.04.68-.12 2.03-.15 2.7-1-.9-1.99-1.79-2.99-2.68.45-.33 1.36-1 1.82-1.34-1.39-1.32-2.88-1.14-4.13.28-.33-.94-.66-1.88-1-2.81-.38.49-1.14 1.47-1.52 1.97-.54-1.79-.83-3.76-2.08-5.21-1.24-1.17-2.89-1.72-4.39-2.43l2.58-1.47c-.65-1.53-1.28-3.06-1.9-4.6-.52.42-1.57 1.26-2.1 1.67 1.53-5.65.86-11.58 2.21-17.22 1.85-2.29 4.4-3.89 6.48-5.96-.39-1.02-1.58-2.65-.25-3.47 4.71-2.63 10.25-2.82 15.4-4.04m-2.2 5.9c.76 1.1 1.53 2.2 2.3 3.3-.07.26-.2.78-.26 1.05-4.7-1.21-8.46 2.14-12.1 4.51-.73-.86-1.45-1.71-2.16-2.57.92 3.57.59 7.23.12 10.83-.61 3.97 1.38 7.61 2.86 11.14.42-1.01.84-2.01 1.26-3.02 1.13 2.26 2.34 4.56 4.37 6.15.7-1.1 1.39-2.19 2.08-3.28.69.38 1.37.75 2.07 1.13-.29 1.19-.42 2.4-.58 3.62 1 .08 1.99.17 2.99.26.25-.77.51-1.53.76-2.3 4.59 1.09 8.25-2.17 11.82-4.47.78.8 1.55 1.61 2.33 2.43-1.09-2.84-1.32-5.87-.49-8.8 1.2-4.57-.8-9.02-2.61-13.12-.41 1.02-.83 2.04-1.24 3.07-1.03-1.74-1.82-3.72-3.37-5.09-1.3-.02-2.59.21-3.88.38-1.09-2.75-3.57-4.3-6.27-5.22z"/><path fill="#f6ff59" d="M124.25 110.93c2.7.92 5.18 2.47 6.27 5.22 1.29-.17 2.58-.4 3.88-.38 1.55 1.37 2.34 3.35 3.37 5.09.41-1.03.83-2.05 1.24-3.07 1.81 4.1 3.81 8.55 2.61 13.12-.83 2.93-.6 5.96.49 8.8-.78-.82-1.55-1.63-2.33-2.43-3.57 2.3-7.23 5.56-11.82 4.47-.25.77-.51 1.53-.76 2.3-1-.09-1.99-.18-2.99-.26.16-1.22.29-2.43.58-3.62.27-1.07.58-2.13.89-3.19 2.45.37 4.91.74 7.36 1.14 1.04-1.8 2.32-3.52 2.84-5.56-.17-2.39-.94-4.75-.47-7.17.59-3.84-3.45-5.8-5.98-7.79-.53.74-1.05 1.48-1.57 2.23-2.31-.29-4.62-.57-6.92-.88-1.16 2.17-3.25 4.33-2.67 6.97.9 3.81-.46 8.04 2.32 11.3l1.63-2.59c.16 1.47.33 2.94.5 4.41-.69 1.09-1.38 2.18-2.08 3.28-2.03-1.59-3.24-3.89-4.37-6.15-.42 1.01-.84 2.01-1.26 3.02-1.48-3.53-3.47-7.17-2.86-11.14.47-3.6.8-7.26-.12-10.83.71.86 1.43 1.71 2.16 2.57 3.64-2.37 7.4-5.72 12.1-4.51.06-.27.19-.79.26-1.05-.77-1.1-1.54-2.2-2.3-3.3z"/><path fill="#b73379" d="M199.83 114.98c2.34-2.12 5.8-1.05 8.42-.09-.49-.01-1.47-.02-1.97-.03-2.15 0-4.3.02-6.45.12z"/><path fill="#ff91d2" d="M175.09 124c8.58-2.02 16.69-5.52 24.74-9.02 2.15-.1 4.3-.12 6.45-.12 1.46 2.82 2.7 5.84 2.71 9.07.18 7.08.48 14.77-3.86 20.81-13.32-7.46-28.03-12.28-43.08-14.69-2.27-.31-4.51-.88-6.59-1.86 6.46-1.76 13.17-2.36 19.63-4.19z"/><path fill="#e07aaf" d="M206.28 114.86c.5.01 1.48.02 1.97.03 6.76.57 13.38 2.18 19.88 4.08 2.69 4.75 3.5 10.42 2.34 15.75-.62 2.34-2.66 3.88-4.38 5.41-6.73 2.4-13.8 4.26-20.96 4.61 4.34-6.04 4.04-13.73 3.86-20.81-.01-3.23-1.25-6.25-2.71-9.07z"/><path fill="#faffa0" d="M129.43 117.6c2.53 1.99 6.57 3.95 5.98 7.79-.47 2.42.3 4.78.47 7.17-.52 2.04-1.8 3.76-2.84 5.56-2.45-.4-4.91-.77-7.36-1.14-.31 1.06-.62 2.12-.89 3.19-.7-.38-1.38-.75-2.07-1.13-.17-1.47-.34-2.94-.5-4.41l-1.63 2.59c-2.78-3.26-1.42-7.49-2.32-11.3-.58-2.64 1.51-4.8 2.67-6.97 2.3.31 4.61.59 6.92.88.52-.75 1.04-1.49 1.57-2.23z"/><path fill="#c96c9d" d="M6.92 128.14c5.23-4.82 11.89-7.74 18.73-9.46-1.85 6.68-2.16 13.79.02 20.43-6.81-2.47-13.89-5.35-18.75-10.97z"/><path fill="#c86c9d" d="M228.13 118.97c6.79 2.1 13.79 4.68 18.93 9.8-5.69 5.75-13.24 9.29-20.97 11.36 1.72-1.53 3.76-3.07 4.38-5.41 1.16-5.33.35-11-2.34-15.75z"/><path fill="#c7378b" d="M91.28 123.88c1.24-.07 2.45.25 3.57.78-.69 1.5-3.83 1.01-3.57-.78z"/><path fill="#d7429f" d="M161.13 124.76c1.1-.57 2.32-.91 3.57-.83.24 1.76-2.86 2.3-3.57.83z"/><path fill="#b95b75" d="M98.58 125.29c.34-.18 1.03-.54 1.37-.72-.13 1.49-.22 2.99-.28 4.48-1.27.02-2.55.03-3.82.03.32-.47.96-1.41 1.27-1.88.46-.67.91-1.33 1.46-1.91z"/><path fill="#ffb1fa" d="M93.84 131.33c1.89-.68 3.86-1.07 5.81-1.54-.25 5.05 1.52 9.95 4.2 14.17-2.74 2.45-5.53 4.85-8.24 7.34-.07.07-.22.21-.3.28-3.39 3.1-6.4 6.62-9.95 9.56-1.85 1.32-3.76 2.55-5.64 3.82-5.11-4.19-7.85-10.41-10.21-16.41-1.39-3.44-1.18-7.19-.85-10.81 7.08-2.27 14.15-5.12 21.63-5.63 1.24.08 2.44-.25 3.55-.78z"/><path fill="#cd3891" d="M90.29 132.11c-.28-1.79 2.87-2.28 3.55-.78-1.11.53-2.31.86-3.55.78z"/><path fill="#ffb0f9" d="M154.59 131.46c.4-.04 1.19-.11 1.59-.15 1.5.43 3.03.76 4.6.75.55.06 1.66.17 2.22.23.82.66 1.76.92 2.82.78 6.37.39 12.35 2.88 18.39 4.72 1.08 2.77 2.27 5.77 1.28 8.77-2.09 7.56-6.37 14.43-11.73 20.11-3.92-2.49-6.68-6.27-9.95-9.48-4.45-4.45-9.02-8.78-13.99-12.65 2.65-3.56 3.87-7.9 4.36-12.25l.41-.83z"/><path fill="#d6459d" d="M156.18 131.31c.99-1.46 4.55-1.23 4.6.75-1.57.01-3.1-.32-4.6-.75z"/><path fill="#d43896" d="M163 132.29c1.36-1.17 2.3-.91 2.82.78-1.06.14-2-.12-2.82-.78z"/><path fill="#ff8ecc" d="M184.21 137.79c7.47 2.46 14.41 6.21 21.34 9.87.61 2.56 1.62 5.22.91 7.87-1.24 4.74-3.72 9.03-5.65 13.51-3.71-.06-7.41.1-11.11.14-5.4-.14-10.69-1.31-15.94-2.51 5.36-5.68 9.64-12.55 11.73-20.11.99-3-.2-6-1.28-8.77z"/><path fill="#ffb3fa" d="M99.24 151.48c1.44-2.42 3.62-4.23 5.85-5.88 4.43 5 10.36 8.62 16.93 9.96-1.93 9.98-4.49 20.01-9.58 28.89-3.29.15-6.76.42-9.8-1.1-5.27-2.46-10.49-5.29-14.78-9.25-2.4-2.03-2.55-5.37-3.23-8.21 3.75-4.04 6.93-8.81 11.7-11.73 1.23-.58 2.29-1.46 2.91-2.68z"/><path fill="#e079b0" d="M26.45 166.18c5.43-7.69 13.03-13.58 21.02-18.42-.81 6.93 1.09 14.61 6.24 19.48 4.36 1.33 9.02.99 13.52 1.11-13.52 2.24-27.48.76-40.78-2.17z"/><path d="M205.55 147.66c8.2 5.09 16.56 10.89 21.72 19.24-5.25 1.25-10.63 1.85-16 2.25-3.49.08-6.98-.07-10.46-.11 1.93-4.48 4.41-8.77 5.65-13.51.71-2.65-.3-5.31-.91-7.87zm-62.94 58.86l.52-.46c-1 8.5-2.84 16.97-6.11 24.9-3.57.84-7.16 1.98-10.86 1.74-3.36-.23-6.3-2.04-9.2-3.58-1.87-6.5-3.41-13.12-4.07-19.86-.01-.48-.03-1.45-.05-1.94 4.3 3.49 10.03 2.62 15.16 2.73 5.01-.16 11.03.91 14.61-3.53z" fill="#e079af"/><path fill="#e863bf" d="M96.33 154.16c-1.09-1.52 1.5-3.91 2.91-2.68-.62 1.22-1.68 2.1-2.91 2.68z"/><path fill="#ff91d1" d="M125.96 156l.91.06c1.85 10.93 3.78 21.93 7.71 32.35 2.15 6.26 5.32 12.08 8.03 18.11-3.58 4.44-9.6 3.37-14.61 3.53-5.13-.11-10.86.76-15.16-2.73.02-2.15.07-4.3.21-6.45 7.1-13.98 10.99-29.37 12.91-44.87z"/><path fill="#e67cb3" d="M128.83 156.11h1c1.56 3.86 1.92 8.07 3.06 12.07 3.27 12.89 9.59 25.38 19.9 34.04 4.22 4.03 9.46 6.69 14.1 10.14.56 5.54-1.03 11.16-1.93 16.64-9.98-7.5-17.37-17.92-23.02-28.94-6.81-13.75-11.44-28.68-13.11-43.95z"/><path fill="#d1398e" d="M118.7 176.75c.51-5.17 2.42-10.22 4.36-15.03-.31 6.03-1.46 12.14-4.1 17.6-.07-.64-.2-1.93-.26-2.57z"/><path fill="#ff8fce" d="M70.33 184.95c4.22-6.73 8.74-13.35 14.3-19.06.68 2.84.83 6.18 3.23 8.21 4.29 3.96 9.51 6.79 14.78 9.25 3.04 1.52 6.51 1.25 9.8 1.1-3.88 7.79-10.17 14.16-17.22 19.16-7.5-2.37-14.53-6.23-20.46-11.4-2.16-1.94-3.2-4.72-4.43-7.26z"/><path fill="#ff8dcb" d="M170.55 167.9c5.45 5.74 9.92 12.36 14.02 19.11-1.28 2.45-2.46 5.1-4.67 6.86-5.82 4.77-12.43 8.45-19.27 11.53-7.89-4.89-14.48-11.82-19.02-19.92 8.56 1.63 15.79-3.97 22.44-8.45 3.31-2.07 5.12-5.61 6.5-9.13z"/><path fill="#e77db5" d="M63.39 171.19c4.99-.65 9.94-1.65 14.97-2.09-3.5 6.09-8.44 11.21-11.75 17.42-2.1 3.27-3.24 8.06-7.64 8.9-6.18-.83-10.53-5.83-13.33-11-.92-1.96-.78-4.19-.96-6.29 1.92-2.16 3.92-4.24 6.05-6.21 4.23.08 8.47-.14 12.66-.73z"/><path fill="#b32f75" d="M189.7 169.18c3.7-.04 7.4-.2 11.11-.14 3.48.04 6.97.19 10.46.11-7.06 1.33-14.54 1.76-21.57.03z"/><path fill="#e57db4" d="M175.62 169.67c3.68.29 7.32.94 10.96 1.55 2.86.46 5.76.65 8.66.72 2.46.12 4.95.06 7.38.55 3.48 2.09 5.9 5.47 8.61 8.42-3.12 6.55-7.05 14.54-15.19 15.43-5-.72-6.75-5.76-8.91-9.57-3.22-6.11-8.11-11.11-11.51-17.1z"/><path fill="#a02667" d="M50.73 171.92c4.13-1.12 8.43-1.04 12.66-.73-4.19.59-8.43.81-12.66.73z"/><path fill="#8b1c57" d="M186.58 171.22c2.91-.23 5.88-.28 8.66.72-2.9-.07-5.8-.26-8.66-.72z"/><path fill="#e47bb3" d="M118.7 176.75c.06.64.19 1.93.26 2.57-.05 2.87-1.44 5.5-2.36 8.16-6 15.53-14.55 30.82-27.98 41.1-1.75-5.14-3-10.82-2.47-16.21 6.87-4.75 14.31-8.93 19.88-15.32 5.66-5.8 8.8-13.33 12.67-20.3z"/><path fill="#cb6e9f" d="M30.64 197.89c3.59-7.29 8.23-14.06 14.04-19.76.18 2.1.04 4.33.96 6.29 2.8 5.17 7.15 10.17 13.33 11-6.66 2.64-13.6 4.69-20.7 5.68-2.32-.02-4.63-.13-6.95-.23-.17-.74-.51-2.23-.68-2.98z"/><path d="M211.23 180.91c5.51 6.05 11.41 12.91 12.3 21.37-9.42-.22-18.73-2.56-27.49-5.94 8.14-.89 12.07-8.88 15.19-15.43zM56.71 224.24c-.02-7.34 2.09-14.47 4.57-21.31 1.07 2.66 1.69 5.81 4.13 7.62 3.24 2.68 7.53 3.4 11.6 3.69-6.52 3.79-13.29 7.21-20.3 10z" fill="#ca6d9e"/><path fill="#de78ad" d="M184.57 187.01c4.24 6.66 7.61 13.91 9.61 21.55-1.94 2.19-3.64 4.7-6.11 6.35-2.52 1.18-5.41 1.11-8.14 1.28a88.519 88.519 0 0 1-19.3-10.79c6.84-3.08 13.45-6.76 19.27-11.53 2.21-1.76 3.39-4.41 4.67-6.86z"/><path fill="#8d275d" d="M29.76 202.07c.3-1.4.59-2.79.88-4.18.17.75.51 2.24.68 2.98 2.32.1 4.63.21 6.95.23-2.74.94-5.64 1.07-8.51.97z"/><path fill="#a6296b" d="M112.89 209.26c-1.12-2.64-1.66-5.91.16-8.39-.14 2.15-.19 4.3-.21 6.45.02.49.04 1.46.05 1.94z"/><path fill="#c76b9b" d="M188.07 214.91c2.47-1.65 4.17-4.16 6.11-6.35 2.1 5.21 3.02 10.8 3.1 16.41-5.93-2.62-11.85-5.34-17.35-8.78 2.73-.17 5.62-.1 8.14-1.28z"/><path fill="#c86b9c" d="M116.96 229.12c2.9 1.54 5.84 3.35 9.2 3.58 3.7.24 7.29-.9 10.86-1.74-2.03 6.44-5.21 12.65-10.06 17.42-5.35-5.14-7.92-12.32-10-19.26z"/></svg>