<svg width="128pt" height="128pt" viewBox="0 0 128 128" xmlns="http://www.w3.org/2000/svg"><path fill="#472f0e" d="M102.11 6.76c1.8.59 3.64 1.12 5.41 1.8 1.48 2.31 2.02 5.09 3.54 7.38 1.35 2.04 2.7 4.09 3.74 6.31-1.13-.43-2.27-.83-3.42-1.2-.09-.72-.28-1.42-.58-2.08-.89-1.39-1.86-2.71-2.92-3.96-1.42-1.69-3.04-3.22-4.92-4.39-5.18.05-10.28 1.78-14.27 5.13-.91.71-1.79 1.46-2.68 2.19-.51-.02-1.53-.05-2.04-.07 2.87-7.51 11.9-7.93 18.14-11.11z"/><path fill="#6a4d26" d="M88.69 15.75c3.99-3.35 9.09-5.08 14.27-5.13-2.27 1.42-4.56 2.8-6.79 4.28 3.89.34 7.83.78 11.71.11 1.06 1.25 2.03 2.57 2.92 3.96-7.26-1.75-14.55-3.84-22.11-3.22z"/><path d="M102.96 10.62c1.88 1.17 3.5 2.7 4.92 4.39-3.88.67-7.82.23-11.71-.11 2.23-1.48 4.52-2.86 6.79-4.28zM37.21 67.98c1.84.45 3.7.78 5.57 1.02-.59.77-1.15 1.57-1.69 2.38-2.13-.66-4.27-1.31-6.39-2.01.63-.35 1.89-1.04 2.51-1.39z" fill="#d59d3e"/><path fill="#fbc601" d="M86.01 17.94c.89-.73 1.77-1.48 2.68-2.19 7.56-.62 14.85 1.47 22.11 3.22.3.66.49 1.36.58 2.08-2.7-.12-5.21.88-6.27 3.49l-2.27.56c-1.56-2.05-3.76-3.38-6.38-3.42-.62-.08-1.86-.25-2.48-.33.2-.59.6-1.75.81-2.33-3.13.22-6.25.48-9.37.63.14-.43.44-1.28.59-1.71z"/><path fill="#5b2f04" d="M80.37 32.38c1.03-4.83.71-10.3 3.6-14.51.51.02 1.53.05 2.04.07-.15.43-.45 1.28-.59 1.71-1.47 5.25-3.07 11.15-1.31 16.47-1.2.54-2.39 1.07-3.6 1.56-2.2.82-4.41 1.61-6.6 2.43 3.67.06 7.32.49 10.88 1.42l-1.12.54c-4.2.28-8.51-.13-12.6 1.04-4.87 1.35-9 4.51-12.51 8.05-2.37 2.2-2.42 5.46-2.25 8.46-1.09 1.5-2.18 3-3.15 4.58-.37 2.38-.41 4.78-.49 7.18 3.45-.49 6.4-2.3 8.83-4.71 1.92-1.41 3.92-2.71 5.94-3.97.01 1.09.01 2.17.02 3.26-.5.24-1.51.71-2.01.95-3.61 1.33-5.96 4.44-7.95 7.55 2.96.15 5.92.23 8.89.12l1.04-.05c-.27.42-.8 1.26-1.06 1.68-1.4 1.77-3.11 3.26-4.94 4.57-4.54 2.77-9.56 4.65-14.03 7.54l-1.88 1.24c-2.42-.14-4.85-.07-7.28-.08h-.92c.5-1.33 1.03-2.65 1.57-3.96-.7-.23-2.11-.68-2.82-.9.2-1.44.31-2.9.69-4.3l.3-.81 1.16-2.96c.48-1.1 1.05-2.16 1.64-3.21.31-.49.92-1.47 1.23-1.96.54-.81 1.1-1.61 1.69-2.38l.48-.57c.25-.3.75-.9 1.01-1.2 1.24-1.55 2.46-3.12 3.56-4.77.27-.53.82-1.58 1.1-2.11 2.3-7.71 8.91-13.03 15.81-16.58 4.18-2.07 7.66-5.28 11.94-7.17-.52-.44-1.03-.88-1.54-1.32 1.77-.91 3.6-1.74 5.23-2.9M53.15 56.29c-1.3.03-1.83 2.46-.28 2.5 1.3-.02 1.81-2.46.28-2.5M40.78 76.93c4.35-4.07 10-7.9 10.43-14.44-4.39 4.07-7.72 9.14-10.43 14.44m6.8-3.81c1 .28 3 .84 4 1.13-1.38 1.37-2.74 2.74-4.09 4.14l-.76-3.96c-2.91 2.47-5.78 5.16-7.21 8.79 6-.92 10.26-5.48 14.57-9.31-1.37-.77-2.65-1.74-4.12-2.33-.84.44-1.61.99-2.39 1.54m7.05 2.62c-.1.49-.3 1.47-.4 1.95-1.39.97-3.5 1.47-4.18 3.15-2.92 1.8-5.78 3.74-8.27 6.1 2.46-.78 4.84-1.75 7.24-2.7 1.98-.75 3.94-1.58 5.88-2.45 1.79-1.17 3.58-2.34 5.35-3.55-1.87-.84-3.74-1.68-5.62-2.5z"/><path d="M85.42 19.65c3.12-.15 6.24-.41 9.37-.63-.21.58-.61 1.74-.81 2.33-1.37-.48-2.75-.91-4.1-1.43-.82 2.81-1.53 5.65-2.08 8.53 1.01.68 2.02 1.36 3.01 2.07-1.73.22-3.13 1.84-2.46 3.59.08.48.22 1.45.3 1.93 1.15-.14 2.31-.27 3.47-.38-.76.91-1.39 1.93-1.93 2.99 1.91.42 4.58-1.14 2.57-3.07.95-.15 1.91-.29 2.87-.43.28.76.67 1.47 1.08 2.17.47.99.88 2 1.46 2.94 1.72-.72 3.42-1.49 5.11-2.26-1.04-.81-2.08-1.61-3.13-2.4.75-.4 1.5-.81 2.24-1.24 1.76 2.97 5.08 3.58 8.25 3.85l.63.53c-5.19 4.5-12.58 4.39-18.86 2.7-3.19-1-5.74-3.26-8.3-5.32-1.76-5.32-.16-11.22 1.31-16.47zM73.91 40.11c2.19-.82 4.4-1.61 6.6-2.43 2.83 1.69 5.72 3.29 8.69 4.73-1.47-.31-2.94-.61-4.41-.88-3.56-.93-7.21-1.36-10.88-1.42z" fill="#d6d4bd"/><g fill="#fdfdfd"><path d="M89.88 19.92c1.35.52 2.73.95 4.1 1.43.62.08 1.86.25 2.48.33-1 1.99-2.88 3.35-3.87 5.31 2.31 1.08 4.67 2.36 7.26 2.52 1.46-1.1 2.12-2.87 2.99-4.41l2.27-.56c1.4 3.66.06 7.25-2.72 9.82-.74.43-1.49.84-2.24 1.24-1.15.57-2.3 1.15-3.44 1.72-.41-.7-.8-1.41-1.08-2.17-.96.14-1.92.28-2.87.43l-.64.08c-1.16.11-2.32.24-3.47.38-.08-.48-.22-1.45-.3-1.93 1.35-.38 4.38-2.15 2.46-3.59-.99-.71-2-1.39-3.01-2.07.55-2.88 1.26-5.72 2.08-8.53m1.41 14.31c2.95-.5 5.65-1.84 8.26-3.26-3.38-1.59-6.55.32-8.26 3.26z"/><path d="M96.98 23.49c1.32-1.06 2.83 1.23 1.54 2.16-1.32 1.04-2.84-1.22-1.54-2.16zm13.89 1.78c1.75.38 3.51.73 5.26 1.14 3.43.86 5.42 4.11 7.87 6.39-1.89-1.03-3.78-2.05-5.65-3.12-2.5-1.45-5-2.92-7.48-4.41z"/></g><path fill="#1f3e62" d="M105.11 24.54c1.06-2.61 3.57-3.61 6.27-3.49 1.15.37 2.29.77 3.42 1.2 6.16 2.19 10.82 7.35 12.54 13.63-2.4-.24-4.78-.74-7.19-.73-2.37.43-4.57 1.47-6.84 2.2-.89.31-1.78.59-2.67.86-3.17-.27-6.49-.88-8.25-3.85 2.78-2.57 4.12-6.16 2.72-9.82m4.06-1.54c-1.43 1.01-2.87 3.53-1.01 4.83 3.23 1.31 6.75 1.57 10.19 1.85 1.87 1.07 3.76 2.09 5.65 3.12-2.45-2.28-4.44-5.53-7.87-6.39-1.94-1.75-4.22-3.43-6.96-3.41z"/><path fill="#020202" d="M96.46 21.68c2.62.04 4.82 1.37 6.38 3.42-.87 1.54-1.53 3.31-2.99 4.41-2.59-.16-4.95-1.44-7.26-2.52.99-1.96 2.87-3.32 3.87-5.31m.52 1.81c-1.3.94.22 3.2 1.54 2.16 1.29-.93-.22-3.22-1.54-2.16z"/><path fill="#5880ad" d="M109.17 23c2.74-.02 5.02 1.66 6.96 3.41-1.75-.41-3.51-.76-5.26-1.14 2.48 1.49 4.98 2.96 7.48 4.41-3.44-.28-6.96-.54-10.19-1.85-1.86-1.3-.42-3.82 1.01-4.83z"/><path fill="#757469" d="M88.35 34.11c-.67-1.75.73-3.37 2.46-3.59 1.92 1.44-1.11 3.21-2.46 3.59z"/><path fill="#65645b" d="M91.29 34.23c1.71-2.94 4.88-4.85 8.26-3.26-2.61 1.42-5.31 2.76-8.26 3.26z"/><path fill="#795827" d="M84.11 36.12c2.56 2.06 5.11 4.32 8.3 5.32 6.28 1.69 13.67 1.8 18.86-2.7.9.9 1.76 1.85 2.58 2.83-.63 1.85-1.25 3.7-1.86 5.56 2.14.8 4.28 1.59 6.38 2.46l-.39 4.12c-1.32-1.07-2.67-2.12-4.04-3.12-3.05-1.18-6.31-2.45-7.51-5.77-1.37-.14-2.73-.34-4.1-.38-1.9.22-3.78.51-5.68.68-1.6-.21-3.18-.52-4.77-.73-3.17-.3-6.29-.9-9.35-1.74l1.14-.58 1.12-.54c1.47.27 2.94.57 4.41.88-2.97-1.44-5.86-3.04-8.69-4.73 1.21-.49 2.4-1.02 3.6-1.56z"/><path d="M92.12 35.66l.64-.08c2.01 1.93-.66 3.49-2.57 3.07.54-1.06 1.17-2.08 1.93-2.99zm4.59 1.66c1.14-.57 2.29-1.15 3.44-1.72 1.05.79 2.09 1.59 3.13 2.4-1.69.77-3.39 1.54-5.11 2.26-.58-.94-.99-1.95-1.46-2.94z" fill="#54534a"/><path fill="#862704" d="M110.64 38.21c.89-.27 1.78-.55 2.67-.86 3.47 5.36 7.84 10.18 10.12 16.26 2.73 5.32 2.63 11.39 2.57 17.21-.48-.16-1.43-.47-1.91-.62-.57 4.01-1.92 7.88-4.26 11.21-3.53.19-5.65 3.28-8.5 4.91-6.14 3.74-13.49 4.7-20.56 4.51-1.92-.02-3.84.03-5.76.11.51 1.15 1.08 2.28 1.73 3.37 3.34 1.79 7.07 2.68 10.57 4.1-1.05.97-2.11 1.93-3.16 2.9.98 1.34 1.95 2.69 2.9 4.05-2.22.13-4.45.2-6.68.21-.19 1.33-.39 2.66-.6 3.98-2.57-1.36-5.53-2.55-7.02-5.23-2.11-3.56-3.19-7.62-4.58-11.49-.15-.45-.44-1.34-.59-1.78 1.26-.42 2.53-.8 3.81-1.16 6.39-1.34 12.95-.57 19.39-1.37 5.67-.72 10.78-4 14.21-8.52 1.39-2.05 2.61-4.21 3.86-6.34.3 1.89.59 3.77.91 5.65 1.72-5.65 1.97-11.6 1.78-17.47 1.18 2.08 2.33 4.17 3.54 6.23-.86-6.13-2.22-12.34-5.22-17.82-1.74-3.06-3.82-5.93-6.01-8.68-.82-.98-1.68-1.93-2.58-2.83l-.63-.53m-25.98 64.13c2.93-1.69 6-3.14 9.22-4.21-3.63-.22-7.16-1.05-10.4-2.72.68 2.25 1.08 4.57 1.18 6.93z"/><path fill="#5a2e03" d="M26.64 54.96c-.35-6.12.9-14.03 7.33-16.6 3.09 3.05 4.73 7.51 6.83 11.33l-.22.68-.68 1.87c-2.59-3.68-4.77-7.62-7.1-11.46-1.25 2.2-2.45 4.44-3.35 6.81-.17 3.09.02 6.18.22 9.26-.99.41-1.97.83-2.95 1.24-3.85-3.03-7.27-6.57-11-9.74-.44 2.2-.92 4.4-1.17 6.63.24 4.47 2.7 8.43 6.7 10.48l-1.92.52c-5.79-1.84-10.96-5.13-16.61-7.32.24 2.89.56 5.84 1.84 8.49 2.45 4.89 6.83 9.13 12.47 9.81 1.99.54 3.72-.74 5.31-1.73.1.96.27 1.91.5 2.84 4.62 1.33 9.46 1.38 14.22 1.44l-.3.81c-5.08 1.13-10.56-.14-15.74-.59-5.76-.83-12.11-1.98-16.04-6.7C.9 68.53-1.51 60.9 2.85 55.81c3.36 1.7 6.68 3.46 10.04 5.15-1.38-5.42-1.63-11.85 3.02-15.83 3.63 3.22 7.13 6.58 10.73 9.83z"/><path d="M29.45 47.59c.9-2.37 2.1-4.61 3.35-6.81 2.33 3.84 4.51 7.78 7.1 11.46l.34.54c-.95 1.38-1.88 2.77-2.71 4.23l-.33.76c-3.52-2.59-5.95-6.25-7.75-10.18zm-13.73.76c3.73 3.17 7.15 6.71 11 9.74l.55.45c-.44 1.56-.87 3.12-1.3 4.68-4.36-1.9-8.12-4.86-11.42-8.24.25-2.23.73-4.43 1.17-6.63zm-13 10.31c5.65 2.19 10.82 5.48 16.61 7.32.4.16 1.2.47 1.6.63-.07 1.84-.13 3.69-.14 5.54-5.61-.94-11.03-2.71-16.23-5-1.28-2.65-1.6-5.6-1.84-8.49zm31.51 4.96c2.91 1.78 5.9 3.45 9.03 4.81l-.48.57c-1.87-.24-3.73-.57-5.57-1.02-1.42-.73-2.81-1.51-4.24-2.22.39.17 1.19.51 1.58.69l-.32-2.83zm7.55 23.32c2.49-2.36 5.35-4.3 8.27-6.1-.36 1.13-.7 2.26-1.03 3.4-2.4.95-4.78 1.92-7.24 2.7z" fill="#fcea52"/><path fill="#f5d92d" d="M71.07 43.11c4.09-1.17 8.4-.76 12.6-1.04l-1.14.58c-4.37.82-9.09.66-13.08 2.87-1.62.7-1.16 2.66-1.37 4.06-3.08.98-6.28 1.6-9.52 1.58 3.51-3.54 7.64-6.7 12.51-8.05z"/><path d="M111.99 47.13c.61-1.86 1.23-3.71 1.86-5.56 2.19 2.75 4.27 5.62 6.01 8.68-.37-.16-1.11-.5-1.49-.66-2.1-.87-4.24-1.66-6.38-2.46zm-71.77 12.6l.78.31c1.83.75 3.78 1.18 5.75 1.39.27.25.81.77 1.08 1.03-1.1 1.65-2.32 3.22-3.56 4.77-1.13-.69-2.25-1.38-3.38-2.06 1.44.26 2.89.46 4.34.67-1.62-2.09-3.31-4.1-5.01-6.11z" fill="#d39b3d"/><path fill="#fcfd05" d="M69.45 45.52c3.99-2.21 8.71-2.05 13.08-2.87 3.06.84 6.18 1.44 9.35 1.74 1.13 1.66 3.2 3.17 2.89 5.41-.07 2.56-2.44 4.03-4.3 5.35-1.62.63-3.23 1.28-4.81 2-.52.25-1.57.74-2.09.99-.07-.32-.19-.95-.26-1.27.17-1 .36-1.99.6-2.98.99-1.01 1.96-2.04 2.88-3.12.9-1.2 1.72-2.46 2.56-3.71-3.82-.67-7.68-1.96-11.58-1.31-2.92.47-5.19 2.53-7.4 4.33 1.69.52 3.38 1.05 5.09 1.54-3.62 1.21-7.07 2.87-10.55 4.42.88.84 1.77 1.67 2.66 2.51-1.25.36-2.5.66-3.74 1.03-2.79-.56-5.29.48-7.29 2.42-.05-.6-.17-1.78-.23-2.38-.17-3-.12-6.26 2.25-8.46 3.24.02 6.44-.6 9.52-1.58.21-1.4-.25-3.36 1.37-4.06z"/><path d="M91.88 44.39c1.59.21 3.17.52 4.77.73.53 1.13 1.07 2.27 1.66 3.37-2.45 7.29-3.92 16.72-12.15 19.75l.12-2c.79-2.23 1.76-4.39 2.58-6.61.47 1.17.96 2.33 1.46 3.48 1.37-2.28 2.74-4.55 3.98-6.9-.76-.22-2.3-.66-3.06-.87l-.77-.19c1.86-1.32 4.23-2.79 4.3-5.35.31-2.24-1.76-3.75-2.89-5.41zm-9.6 3.79l.7-.34c-.29 1.58-.59 3.15-.89 4.72 1.57-.59 3.14-1.19 4.7-1.79-.92 1.08-1.89 2.11-2.88 3.12-1.74.92-3.52 1.73-5.29 2.58.89-2.9 2.16-5.66 3.66-8.29zM75.37 69.3c2.89-2.81 5.89-5.51 9.15-7.88.25.63.49 1.27.73 1.91-2.76 1.63-5.16 3.93-5.84 7.17-1.41.38-2.82.78-4.23 1.17.05-.59.14-1.78.19-2.37zm12.21 8.04c4.42-4.93 9.72-9.17 12.92-15.07-1.37 6.9-6.6 12.32-12.92 15.07zm-31.7 11.59c6.48-2.91 13.03-5.71 19.05-9.54.7.56 1.39 1.11 2.09 1.66-6.71 3.38-13.46 7.37-21.14 7.88zm-8.48-.61c4.47-2.89 9.49-4.77 14.03-7.54-.93 1.54-1.37 3.71-3.21 4.46-3.43 1.56-7.22 2.05-10.82 3.08z" fill="#f4f3d9"/><path fill="#fcfe02" d="M102.33 44.44c1.37.04 2.73.24 4.1.38 1.2 3.32 4.46 4.59 7.51 5.77 1.37 1 2.72 2.05 4.04 3.12l.39-4.12c.38.16 1.12.5 1.49.66 3 5.48 4.36 11.69 5.22 17.82-1.21-2.06-2.36-4.15-3.54-6.23.19 5.87-.06 11.82-1.78 17.47-.32-1.88-.61-3.76-.91-5.65-1.25 2.13-2.47 4.29-3.86 6.34-2.69 1.02-5.37 2.08-8.06 3.1.36-3.96.93-7.91 1.74-11.8-2.11.54-4.22 1.07-6.33 1.6.44-1.75.9-3.5 1.26-5.27.8.78 1.61 1.57 2.41 2.36.53-2.23.92-4.48 1.36-6.72-1.23.35-2.47.69-3.69 1.05-.52.15-1.56.46-2.07.62l.36-.8c1.58-3.2 3.12-6.42 4.79-9.58.26.35.8 1.06 1.06 1.41.52-1.12 1.05-2.24 1.58-3.36-1.32.04-2.63.11-3.95.13-.11-.16-.32-.48-.43-.64-.66-2.63-1.54-5.2-2.69-7.66m10.96 8.09c-.38 4.78-.03 9.71-1.69 14.31 1.11-.25 2.23-.48 3.35-.71-.46 3.47-1.2 6.89-1.78 10.34 6.21-4.64 6.91-13.35 4.64-20.23-.69-2.01-2.92-2.65-4.52-3.71z"/><path d="M77.77 45.75c3.9-.65 7.76.64 11.58 1.31-.84 1.25-1.66 2.51-2.56 3.71-1.56.6-3.13 1.2-4.7 1.79.3-1.57.6-3.14.89-4.72l-.7.34c-3.81 1.4-7.87 1.87-11.91 1.9 2.21-1.8 4.48-3.86 7.4-4.33zM64.91 56.04c3.48-1.55 6.93-3.21 10.55-4.42l2.32.64c-2.13 3.81-6.24 5.23-10.21 6.29-.89-.84-1.78-1.67-2.66-2.51z" fill="#896425"/><path fill="#f8b901" d="M96.65 45.12c1.9-.17 3.78-.46 5.68-.68 1.15 2.46 2.03 5.03 2.69 7.66.11.16.32.48.43.64.33.45.98 1.36 1.31 1.82-1.67 3.16-3.21 6.38-4.79 9.58.5-3.08 1.72-6.21 1.25-9.35-.88-1.16-1.97-2.15-2.95-3.23-.67-1.01-1.34-2.02-1.96-3.07-.59-1.1-1.13-2.24-1.66-3.37m4.53 1.09c-1.45.99.12 3.55 1.6 2.38 1.54-.97-.13-3.55-1.6-2.38z"/><path fill="#7c5c21" d="M101.18 46.21c1.47-1.17 3.14 1.41 1.6 2.38-1.48 1.17-3.05-1.39-1.6-2.38z"/><path d="M29.67 56.85c-.2-3.08-.39-6.17-.22-9.26 1.8 3.93 4.23 7.59 7.75 10.18-.51 1.35-.97 2.73-1.44 4.1-2.11-1.57-4.1-3.31-6.09-5.02zm-15.12-1.87c3.3 3.38 7.06 6.34 11.42 8.24-.06.82-.16 2.45-.22 3.26-1.48-.4-2.99-.73-4.5-1.02-4-2.05-6.46-6.01-6.7-10.48z" fill="#d86609"/><path fill="#f1d32f" d="M70.37 50.08c4.04-.03 8.1-.5 11.91-1.9-1.5 2.63-2.77 5.39-3.66 8.29-.49 1.52-.96 3.05-1.44 4.58 2.09-1.33 4.13-2.73 6.13-4.18.07.32.19.95.26 1.27.28 1.1.58 2.2.95 3.28-3.26 2.37-6.26 5.07-9.15 7.88l.07-1.17c.73-2.77-.77-4.97-2.78-6.67-1.38 2.56-2.68 5.15-3.86 7.81-1.12-.78-2.24-1.57-3.35-2.36.5-.24 1.51-.71 2.01-.95-.01-1.09-.01-2.17-.02-3.26-2.02 1.26-4.02 2.56-5.94 3.97-1.6.27-3.22.69-4.85.47-1.22-.9-2.37-1.91-3.49-2.94.97-1.58 2.06-3.08 3.15-4.58.06.6.18 1.78.23 2.38.18 1.39.36 2.79.55 4.18 2.49-1.94 4.7-4.19 6.74-6.6 1.24-.37 2.49-.67 3.74-1.03 3.97-1.06 8.08-2.48 10.21-6.29l-2.32-.64c-1.71-.49-3.4-1.02-5.09-1.54z"/><path fill="#c5c29b" d="M98.31 48.49c.62 1.05 1.29 2.06 1.96 3.07.46 3.54 1.1 7.19.23 10.71-3.2 5.9-8.5 10.14-12.92 15.07-.77.4-1.55.78-2.34 1.16l.76-2.37c-2.9.96-5.83 1.82-8.8 2.57.19-1.45.39-2.89.59-4.33-3.55 1.7-7.48 2.92-11.42 1.84.26-.42.79-1.26 1.06-1.68.36-.43 1.09-1.28 1.46-1.7l-.16 2.43c2.19-1.12 4.33-2.34 6.45-3.59 1.41-.39 2.82-.79 4.23-1.17 2.27-.69 4.56-1.33 6.75-2.26 8.23-3.03 9.7-12.46 12.15-19.75m-5.37 21.03c2-1.37 3.15-3.47 3.4-5.87-3.09.22-3.05 3.57-3.4 5.87M81.48 75.5c1.91-.61 4.2-.7 5.71-2.16.39-1.18.73-2.37 1.01-3.57-3.46.14-5.34 2.91-6.72 5.73z"/><path fill="#605e4e" opacity=".95" d="M40.58 50.37c3.15 3.01 5.37 6.81 8.35 9.98-.28.53-.83 1.58-1.1 2.11-.27-.26-.81-.78-1.08-1.03-2.42-2.69-4.5-5.66-6.51-8.65l-.34-.54.68-1.87z"/><path d="M100.27 51.56c.98 1.08 2.07 2.07 2.95 3.23.47 3.14-.75 6.27-1.25 9.35l-.36.8c-1.43 2.69-2.21 5.66-2.44 8.68-1.77.72-3.6 1.32-5.25 2.3-.84 1.68-1.36 3.5-1.99 5.27-.41-.98-.81-1.95-1.21-2.92-6.7 2.13-13.22 4.7-19.39 8.08-2.33 1.02-4.68 1.98-7.05 2.9-1.62.61-3.28 1.13-4.94 1.62-.55 0-1.66-.02-2.22-.02-3.89-.22-7.72-.92-11.6-1.29l1.88-1.24c3.6-1.03 7.39-1.52 10.82-3.08 1.84-.75 2.28-2.92 3.21-4.46 1.83-1.31 3.54-2.8 4.94-4.57 3.94 1.08 7.87-.14 11.42-1.84-.2 1.44-.4 2.88-.59 4.33 2.97-.75 5.9-1.61 8.8-2.57l-.76 2.37c.79-.38 1.57-.76 2.34-1.16 6.32-2.75 11.55-8.17 12.92-15.07.87-3.52.23-7.17-.23-10.71M65.61 79.44c-.02.83-.06 1.66-.09 2.49 1.8-.89 3.62-1.73 5.45-2.55-1.79.04-3.57.06-5.36.06m-9.73 9.49c7.68-.51 14.43-4.5 21.14-7.88-.7-.55-1.39-1.1-2.09-1.66-6.02 3.83-12.57 6.63-19.05 9.54zM26.72 58.09c.98-.41 1.96-.83 2.95-1.24 1.99 1.71 3.98 3.45 6.09 5.02 1.65 1.19 3.36 2.29 5.13 3.3 1.13.68 2.25 1.37 3.38 2.06-.26.3-.76.9-1.01 1.2-3.13-1.36-6.12-3.03-9.03-4.81-2.43-1.54-4.7-3.31-6.96-5.08l-.55-.45z" fill="#5c584c"/><path fill="#89741e" d="M105.45 52.74c1.32-.02 2.63-.09 3.95-.13-.53 1.12-1.06 2.24-1.58 3.36-.26-.35-.8-1.06-1.06-1.41-.33-.46-.98-1.37-1.31-1.82z"/><path fill="#fdfcf2" d="M37.53 57.01c.83-1.46 1.76-2.85 2.71-4.23 2.01 2.99 4.09 5.96 6.51 8.65-1.97-.21-3.92-.64-5.75-1.39-1.19-.97-2.32-2.02-3.47-3.03z"/><path d="M113.29 52.53c1.6 1.06 3.83 1.7 4.52 3.71 2.27 6.88 1.57 15.59-4.64 20.23.58-3.45 1.32-6.87 1.78-10.34-1.12.23-2.24.46-3.35.71 1.66-4.6 1.31-9.53 1.69-14.31zM65.61 79.44c1.79 0 3.57-.02 5.36-.06-1.83.82-3.65 1.66-5.45 2.55.03-.83.07-1.66.09-2.49z" fill="#feff97"/><path d="M78.62 56.47c1.77-.85 3.55-1.66 5.29-2.58-.24.99-.43 1.98-.6 2.98-2 1.45-4.04 2.85-6.13 4.18.48-1.53.95-3.06 1.44-4.58zm17.16 24.28c.68-2.49 2.64-4.05 4.89-5.11-.3 1.74-.62 3.48-.95 5.21-1.32.05-2.63.02-3.94-.1z" fill="#6c4f25"/><path fill="#eed53c" d="M85.66 57.15c1.58-.72 3.19-1.37 4.81-2l.77.19c-.88 1.21-1.74 2.43-2.6 3.65-1-.61-1.99-1.22-2.98-1.84z"/><path fill="#baaf94" d="M53.15 56.29c1.53.04 1.02 2.48-.28 2.5-1.55-.04-1.02-2.47.28-2.5z"/><path d="M88.64 58.99c.86-1.22 1.72-2.44 2.6-3.65.76.21 2.3.65 3.06.87-1.24 2.35-2.61 4.62-3.98 6.9-.5-1.15-.99-2.31-1.46-3.48l-.22-.64zM79.41 70.5c.68-3.24 3.08-5.54 5.84-7.17.26.73.78 2.18 1.03 2.91l-.12 2c-2.19.93-4.48 1.57-6.75 2.26z" fill="#8a6526"/><path fill="#d9d4bc" d="M37.2 57.77l.33-.76c1.15 1.01 2.28 2.06 3.47 3.03l-.78-.31c1.7 2.01 3.39 4.02 5.01 6.11-1.45-.21-2.9-.41-4.34-.67a57.378 57.378 0 0 1-5.13-3.3c.47-1.37.93-2.75 1.44-4.1z"/><path fill="#d9cc86" d="M83.57 58.14c.52-.25 1.57-.74 2.09-.99.99.62 1.98 1.23 2.98 1.84l.22.64c-.82 2.22-1.79 4.38-2.58 6.61-.25-.73-.77-2.18-1.03-2.91-.24-.64-.48-1.28-.73-1.91-.37-1.08-.67-2.18-.95-3.28z"/><path fill="#fefdf3" d="M27.27 58.54c2.26 1.77 4.53 3.54 6.96 5.08l.32 2.83c-.39-.18-1.19-.52-1.58-.69-2.28-.99-4.67-1.7-7-2.54.43-1.56.86-3.12 1.3-4.68z"/><path d="M56.54 62c2-1.94 4.5-2.98 7.29-2.42-2.04 2.41-4.25 4.66-6.74 6.6-.19-1.39-.37-2.79-.55-4.18zm-35.29 3.46c1.51.29 3.02.62 4.5 1.02 3 .91 5.97 1.91 8.95 2.89 2.12.7 4.26 1.35 6.39 2.01-.31.49-.92 1.47-1.23 1.96-6.45-1.83-12.71-4.26-18.93-6.73-.4-.16-1.2-.47-1.6-.63l1.92-.52zm71.92 16.78c1.67-.46 2.55 2.4.8 2.81-1.68.45-2.56-2.4-.8-2.81zm-10.1 3.04c1.48-.95 2.68-3.48 4.73-2.43.97.79 1.72 1.8 2.57 2.71-2.44.03-4.87-.1-7.3-.28z" fill="#694d26"/><path d="M72.66 61.46c2.01 1.7 3.51 3.9 2.78 6.67-2.36 1.28-4.83 2.56-6.55 4.7-.37.42-1.1 1.27-1.46 1.7l-1.04.05c.79-1.78 1.6-3.55 2.41-5.31 1.18-2.66 2.48-5.25 3.86-7.81zm31.02 2.86c1.22-.36 2.46-.7 3.69-1.05-.44 2.24-.83 4.49-1.36 6.72-.8-.79-1.61-1.58-2.41-2.36l.08-3.31z" fill="#6a4e26"/><path fill="#d7d3ba" d="M25.97 63.22c2.33.84 4.72 1.55 7 2.54 1.43.71 2.82 1.49 4.24 2.22-.62.35-1.88 1.04-2.51 1.39-2.98-.98-5.95-1.98-8.95-2.89.06-.81.16-2.44.22-3.26z"/><path d="M40.78 76.93c2.71-5.3 6.04-10.37 10.43-14.44-.43 6.54-6.08 10.37-10.43 14.44zm6.8-3.81c.78-.55 1.55-1.1 2.39-1.54 1.47.59 2.75 1.56 4.12 2.33-4.31 3.83-8.57 8.39-14.57 9.31 1.43-3.63 4.3-6.32 7.21-8.79l.76 3.96c1.35-1.4 2.71-2.77 4.09-4.14-1-.29-3-.85-4-1.13z" fill="#f0d130"/><path fill="#d5a508" d="M52.67 71.38c.08-2.4.12-4.8.49-7.18 1.12 1.03 2.27 2.04 3.49 2.94 1.63.22 3.25-.2 4.85-.47-2.43 2.41-5.38 4.22-8.83 4.71z"/><path fill="#79623b" d="M92.94 69.52c.35-2.3.31-5.65 3.4-5.87-.25 2.4-1.4 4.5-3.4 5.87z"/><path fill="#fbbb00" d="M99.17 73.62c.23-3.02 1.01-5.99 2.44-8.68.51-.16 1.55-.47 2.07-.62l-.08 3.31c-.36 1.77-.82 3.52-1.26 5.27 2.11-.53 4.22-1.06 6.33-1.6-.81 3.89-1.38 7.84-1.74 11.8 2.69-1.02 5.37-2.08 8.06-3.1-3.43 4.52-8.54 7.8-14.21 8.52-6.44.8-13 .03-19.39 1.37-.13-1.08-.27-2.16-.4-3.24-2.48 1.09-4.96 2.15-7.45 3.18.6.43 1.82 1.28 2.42 1.7-1.23-.13-2.47-.3-3.69-.53-2.67 1.96-5.33 5.43-9.05 4.32-1.51-1.27-2.67-2.9-3.88-4.45 1.66-.49 3.32-1.01 4.94-1.62 1.38.82 2.51 3.12 4.38 2.32 2.24-.68 2.04-3.42 2.67-5.22 6.17-3.38 12.69-5.95 19.39-8.08.4.97.8 1.94 1.21 2.92.63-1.77 1.15-3.59 1.99-5.27 1.65-.98 3.48-1.58 5.25-2.3m-3.39 7.13c1.31.12 2.62.15 3.94.1.33-1.73.65-3.47.95-5.21-2.25 1.06-4.21 2.62-4.89 5.11m-2.61 1.49c-1.76.41-.88 3.26.8 2.81 1.75-.41.87-3.27-.8-2.81m-10.1 3.04c2.43.18 4.86.31 7.3.28-.85-.91-1.6-1.92-2.57-2.71-2.05-1.05-3.25 1.48-4.73 2.43z"/><path fill="#d86508" d="M4.56 67.15c5.2 2.29 10.62 4.06 16.23 5 .33.26.98.78 1.31 1.04l.24 2.04c-1.59.99-3.32 2.27-5.31 1.73-5.64-.68-10.02-4.92-12.47-9.81z"/><path fill="#fcfae9" d="M20.93 66.61c6.22 2.47 12.48 4.9 18.93 6.73-.59 1.05-1.16 2.11-1.64 3.21-2.64-1.42-5.43-2.54-8.34-3.26l-.36-1.39c-2.47.42-4.94.9-7.42 1.29-.33-.26-.98-.78-1.31-1.04.01-1.85.07-3.7.14-5.54z"/><path fill="#d4a407" d="M57.5 74.46c1.99-3.11 4.34-6.22 7.95-7.55 1.11.79 2.23 1.58 3.35 2.36-.81 1.76-1.62 3.53-2.41 5.31-2.97.11-5.93.03-8.89-.12z"/><path fill="#cfa414" d="M68.89 72.83c1.72-2.14 4.19-3.42 6.55-4.7l-.07 1.17c-.05.59-.14 1.78-.19 2.37-2.12 1.25-4.26 2.47-6.45 3.59l.16-2.43z"/><path fill="#755c35" d="M81.48 75.5c1.38-2.82 3.26-5.59 6.72-5.73-.28 1.2-.62 2.39-1.01 3.57-1.51 1.46-3.8 1.55-5.71 2.16z"/><path fill="#d8d5bd" d="M22.1 73.19c2.48-.39 4.95-.87 7.42-1.29l.36 1.39c2.91.72 5.7 1.84 8.34 3.26l-1.16 2.96c-4.76-.06-9.6-.11-14.22-1.44-.23-.93-.4-1.88-.5-2.84l-.24-2.04z"/><path fill="#c5a642" d="M54.63 75.74c1.88.82 3.75 1.66 5.62 2.5a309.59 309.59 0 0 1-5.35 3.55c-.25-1.36-.5-2.72-.67-4.1.1-.48.3-1.46.4-1.95z"/><path fill="#9d7c27" d="M50.05 80.84c.68-1.68 2.79-2.18 4.18-3.15.17 1.38.42 2.74.67 4.1-1.94.87-3.9 1.7-5.88 2.45.33-1.14.67-2.27 1.03-3.4z"/><path fill="#fcfc02" d="M64.28 89.25c2.37-.92 4.72-1.88 7.05-2.9-.63 1.8-.43 4.54-2.67 5.22-1.87.8-3-1.5-4.38-2.32z"/><path fill="#f5ea02" d="M73.54 89.83c2.49-1.03 4.97-2.09 7.45-3.18.13 1.08.27 2.16.4 3.24-1.28.36-2.55.74-3.81 1.16-.41.12-1.21.36-1.62.48-.6-.42-1.82-1.27-2.42-1.7z"/><path fill="#731d05" d="M63.22 95.32c3.72 1.11 6.38-2.36 9.05-4.32 1.22.23 2.46.4 3.69.53.41-.12 1.21-.36 1.62-.48.15.44.44 1.33.59 1.78-3.1.76-6.22 1.46-9.31 2.27 1.03 3.51 2.18 7 3.4 10.45 3.79.96 7.52 2.21 11.02 3.98-.92 1.03-1.85 2.06-2.79 3.08.75 1.4 1.48 2.8 2.22 4.2-2.36.08-4.7.35-7.02.8-.23 1.35-.47 2.7-.72 4.05-.4-.22-1.21-.66-1.61-.88-3.84-2.38-6.52-6.29-7.52-10.68-1.75-6.85-3.42-14.15-8.72-19.25.56 0 1.67.02 2.22.02 1.21 1.55 2.37 3.18 3.88 4.45m.95 1.95c3.11 6.64 3.21 14.75 8.46 20.26-.14-1.59-.31-3.18-.47-4.77 2.29.82 4.57 1.64 6.89 2.39-1.42-1.42-2.87-2.81-4.3-4.22 2.19-.16 4.37-.34 6.56-.53-3.14-1.62-6.56-2.6-10.08-2.95-1.28-3.35-2.46-6.75-3.7-10.11-1.12-.03-2.24-.05-3.36-.07z"/><path fill="#ee6124" d="M84.66 102.34c-.1-2.36-.5-4.68-1.18-6.93 3.24 1.67 6.77 2.5 10.4 2.72-3.22 1.07-6.29 2.52-9.22 4.21z"/><path fill="#de521b" d="M64.17 97.27c1.12.02 2.24.04 3.36.07 1.24 3.36 2.42 6.76 3.7 10.11 3.52.35 6.94 1.33 10.08 2.95-2.19.19-4.37.37-6.56.53 1.43 1.41 2.88 2.8 4.3 4.22-2.32-.75-4.6-1.57-6.89-2.39.16 1.59.33 3.18.47 4.77-5.25-5.51-5.35-13.62-8.46-20.26z"/></svg>